<?xml version="1.0" encoding="UTF-8"?>
<svg xmlns="http://www.w3.org/2000/svg" xmlns:xlink="http://www.w3.org/1999/xlink" width="76pt" height="76pt" viewBox="0 0 76 76" version="1.1">
<g id="surface108">
<path style="fill:none;stroke-width:0.566929;stroke-linecap:butt;stroke-linejoin:miter;stroke:rgb(100%,100%,100%);stroke-opacity:1;stroke-miterlimit:10;" d="M 36.851562 0 C 36.851562 -20.351562 20.351562 -36.851562 0 -36.851562 C -20.351562 -36.851562 -36.851562 -20.351562 -36.851562 0 C -36.851562 20.351562 -20.351562 36.851562 0 36.851562 C 20.351562 36.851562 36.851562 20.351562 36.851562 0 Z M 36.851562 0 " transform="matrix(1,0,0,1,38,38)"/>
<path style=" stroke:none;fill-rule:evenodd;fill:rgb(20%,20%,70%);fill-opacity:1;" d="M 40.835938 9.652344 C 40.835938 5.875 35.164062 5.875 35.164062 9.652344 C 35.164062 13.433594 40.835938 13.433594 40.835938 9.652344 Z M 40.835938 9.652344 "/>
<path style=" stroke:none;fill-rule:evenodd;fill:rgb(20%,20%,70%);fill-opacity:1;" d="M 60.878906 17.957031 C 60.878906 14.175781 55.210938 14.175781 55.210938 17.957031 C 55.210938 21.734375 60.878906 21.734375 60.878906 17.957031 Z M 60.878906 17.957031 "/>
<path style=" stroke:none;fill-rule:evenodd;fill:rgb(20%,20%,70%);fill-opacity:1;" d="M 69.179688 38 C 69.179688 34.21875 63.511719 34.21875 63.511719 38 C 63.511719 41.78125 69.179688 41.78125 69.179688 38 Z M 69.179688 38 "/>
<path style=" stroke:none;fill-rule:evenodd;fill:rgb(20%,20%,70%);fill-opacity:1;" d="M 60.878906 58.042969 C 60.878906 54.265625 55.210938 54.265625 55.210938 58.042969 C 55.210938 61.824219 60.878906 61.824219 60.878906 58.042969 Z M 60.878906 58.042969 "/>
<path style=" stroke:none;fill-rule:evenodd;fill:rgb(20%,20%,70%);fill-opacity:1;" d="M 40.835938 66.347656 C 40.835938 62.566406 35.164062 62.566406 35.164062 66.347656 C 35.164062 70.125 40.835938 70.125 40.835938 66.347656 Z M 40.835938 66.347656 "/>
<path style=" stroke:none;fill-rule:evenodd;fill:rgb(20%,20%,70%);fill-opacity:1;" d="M 20.789062 58.042969 C 20.789062 54.265625 15.121094 54.265625 15.121094 58.042969 C 15.121094 61.824219 20.789062 61.824219 20.789062 58.042969 Z M 20.789062 58.042969 "/>
<path style=" stroke:none;fill-rule:evenodd;fill:rgb(20%,20%,70%);fill-opacity:1;" d="M 12.488281 38 C 12.488281 34.21875 6.820312 34.21875 6.820312 38 C 6.820312 41.78125 12.488281 41.78125 12.488281 38 Z M 12.488281 38 "/>
<path style=" stroke:none;fill-rule:evenodd;fill:rgb(20%,20%,70%);fill-opacity:1;" d="M 20.789062 17.957031 C 20.789062 14.175781 15.121094 14.175781 15.121094 17.957031 C 15.121094 21.734375 20.789062 21.734375 20.789062 17.957031 Z M 20.789062 17.957031 "/>
<path style="fill:none;stroke-width:2.267717;stroke-linecap:butt;stroke-linejoin:miter;stroke:rgb(20%,20%,70%);stroke-opacity:0.5;stroke-miterlimit:10;" d="M 0 -28.347656 L 0 -28.347656 " transform="matrix(1,0,0,1,38,38)"/>
<path style="fill:none;stroke-width:2.267717;stroke-linecap:butt;stroke-linejoin:miter;stroke:rgb(20%,20%,70%);stroke-opacity:0.5;stroke-miterlimit:10;" d="M 20.042969 -20.042969 L 20.042969 20.042969 " transform="matrix(1,0,0,1,38,38)"/>
<path style="fill:none;stroke-width:2.267717;stroke-linecap:butt;stroke-linejoin:miter;stroke:rgb(20%,20%,70%);stroke-opacity:0.5;stroke-miterlimit:10;" d="M 28.347656 0 L -28.347656 0 " transform="matrix(1,0,0,1,38,38)"/>
<path style="fill:none;stroke-width:2.267717;stroke-linecap:butt;stroke-linejoin:miter;stroke:rgb(20%,20%,70%);stroke-opacity:0.5;stroke-miterlimit:10;" d="M 20.042969 20.042969 L 20.042969 -20.042969 " transform="matrix(1,0,0,1,38,38)"/>
<path style="fill:none;stroke-width:2.267717;stroke-linecap:butt;stroke-linejoin:miter;stroke:rgb(20%,20%,70%);stroke-opacity:0.5;stroke-miterlimit:10;" d="M 0 28.347656 L 0 28.347656 " transform="matrix(1,0,0,1,38,38)"/>
<path style="fill:none;stroke-width:2.267717;stroke-linecap:butt;stroke-linejoin:miter;stroke:rgb(20%,20%,70%);stroke-opacity:0.5;stroke-miterlimit:10;" d="M -20.042969 20.042969 L -20.042969 -20.042969 " transform="matrix(1,0,0,1,38,38)"/>
<path style="fill:none;stroke-width:2.267717;stroke-linecap:butt;stroke-linejoin:miter;stroke:rgb(20%,20%,70%);stroke-opacity:0.5;stroke-miterlimit:10;" d="M -28.347656 0 L 28.347656 0 " transform="matrix(1,0,0,1,38,38)"/>
<path style="fill:none;stroke-width:2.267717;stroke-linecap:butt;stroke-linejoin:miter;stroke:rgb(20%,20%,70%);stroke-opacity:0.5;stroke-miterlimit:10;" d="M -20.042969 -20.042969 L -20.042969 20.042969 " transform="matrix(1,0,0,1,38,38)"/>
</g>
</svg>
