<?xml version="1.0" encoding="UTF-8"?>
<svg xmlns="http://www.w3.org/2000/svg" xmlns:xlink="http://www.w3.org/1999/xlink" width="242pt" height="242pt" viewBox="0 0 242 242" version="1.1">
<g id="surface156">
<path style="fill:none;stroke-width:0.566929;stroke-linecap:butt;stroke-linejoin:miter;stroke:rgb(100%,100%,100%);stroke-opacity:1;stroke-miterlimit:10;" d="M 119.765625 0 C 119.765625 -66.144531 66.144531 -119.765625 0 -119.765625 C -66.144531 -119.765625 -119.765625 -66.144531 -119.765625 0 C -119.765625 66.144531 -66.144531 119.765625 0 119.765625 C 66.144531 119.765625 119.765625 66.144531 119.765625 0 Z M 119.765625 0 " transform="matrix(1,0,0,1,121,121)"/>
<path style=" stroke:none;fill-rule:evenodd;fill:rgb(20%,20%,70%);fill-opacity:1;" d="M 123.835938 28.875 C 123.835938 25.09375 118.164062 25.09375 118.164062 28.875 C 118.164062 32.652344 123.835938 32.652344 123.835938 28.875 Z M 123.835938 28.875 "/>
<path style=" stroke:none;fill-rule:evenodd;fill:rgb(20%,20%,70%);fill-opacity:1;" d="M 145.882812 31.550781 C 145.882812 27.773438 140.210938 27.773438 140.210938 31.550781 C 140.210938 35.332031 145.882812 35.332031 145.882812 31.550781 Z M 145.882812 31.550781 "/>
<path style=" stroke:none;fill-rule:evenodd;fill:rgb(20%,20%,70%);fill-opacity:1;" d="M 166.648438 39.425781 C 166.648438 35.648438 160.976562 35.648438 160.976562 39.425781 C 160.976562 43.207031 166.648438 43.207031 166.648438 39.425781 Z M 166.648438 39.425781 "/>
<path style=" stroke:none;fill-rule:evenodd;fill:rgb(20%,20%,70%);fill-opacity:1;" d="M 184.925781 52.042969 C 184.925781 48.261719 179.257812 48.261719 179.257812 52.042969 C 179.257812 55.820312 184.925781 55.820312 184.925781 52.042969 Z M 184.925781 52.042969 "/>
<path style=" stroke:none;fill-rule:evenodd;fill:rgb(20%,20%,70%);fill-opacity:1;" d="M 199.652344 68.667969 C 199.652344 64.886719 193.984375 64.886719 193.984375 68.667969 C 193.984375 72.445312 199.652344 72.445312 199.652344 68.667969 Z M 199.652344 68.667969 "/>
<path style=" stroke:none;fill-rule:evenodd;fill:rgb(20%,20%,70%);fill-opacity:1;" d="M 209.972656 88.332031 C 209.972656 84.550781 204.304688 84.550781 204.304688 88.332031 C 204.304688 92.109375 209.972656 92.109375 209.972656 88.332031 Z M 209.972656 88.332031 "/>
<path style=" stroke:none;fill-rule:evenodd;fill:rgb(20%,20%,70%);fill-opacity:1;" d="M 215.289062 109.894531 C 215.289062 106.117188 209.621094 106.117188 209.621094 109.894531 C 209.621094 113.675781 215.289062 113.675781 215.289062 109.894531 Z M 215.289062 109.894531 "/>
<path style=" stroke:none;fill-rule:evenodd;fill:rgb(20%,20%,70%);fill-opacity:1;" d="M 215.289062 132.105469 C 215.289062 128.324219 209.621094 128.324219 209.621094 132.105469 C 209.621094 135.882812 215.289062 135.882812 215.289062 132.105469 Z M 215.289062 132.105469 "/>
<path style=" stroke:none;fill-rule:evenodd;fill:rgb(20%,20%,70%);fill-opacity:1;" d="M 209.972656 153.667969 C 209.972656 149.890625 204.304688 149.890625 204.304688 153.667969 C 204.304688 157.449219 209.972656 157.449219 209.972656 153.667969 Z M 209.972656 153.667969 "/>
<path style=" stroke:none;fill-rule:evenodd;fill:rgb(20%,20%,70%);fill-opacity:1;" d="M 199.652344 173.332031 C 199.652344 169.554688 193.984375 169.554688 193.984375 173.332031 C 193.984375 177.113281 199.652344 177.113281 199.652344 173.332031 Z M 199.652344 173.332031 "/>
<path style=" stroke:none;fill-rule:evenodd;fill:rgb(20%,20%,70%);fill-opacity:1;" d="M 184.925781 189.957031 C 184.925781 186.179688 179.257812 186.179688 179.257812 189.957031 C 179.257812 193.738281 184.925781 193.738281 184.925781 189.957031 Z M 184.925781 189.957031 "/>
<path style=" stroke:none;fill-rule:evenodd;fill:rgb(20%,20%,70%);fill-opacity:1;" d="M 166.648438 202.574219 C 166.648438 198.792969 160.976562 198.792969 160.976562 202.574219 C 160.976562 206.351562 166.648438 206.351562 166.648438 202.574219 Z M 166.648438 202.574219 "/>
<path style=" stroke:none;fill-rule:evenodd;fill:rgb(20%,20%,70%);fill-opacity:1;" d="M 145.882812 210.449219 C 145.882812 206.667969 140.210938 206.667969 140.210938 210.449219 C 140.210938 214.226562 145.882812 214.226562 145.882812 210.449219 Z M 145.882812 210.449219 "/>
<path style=" stroke:none;fill-rule:evenodd;fill:rgb(20%,20%,70%);fill-opacity:1;" d="M 123.835938 213.125 C 123.835938 209.347656 118.164062 209.347656 118.164062 213.125 C 118.164062 216.90625 123.835938 216.90625 123.835938 213.125 Z M 123.835938 213.125 "/>
<path style=" stroke:none;fill-rule:evenodd;fill:rgb(20%,20%,70%);fill-opacity:1;" d="M 101.789062 210.449219 C 101.789062 206.667969 96.117188 206.667969 96.117188 210.449219 C 96.117188 214.226562 101.789062 214.226562 101.789062 210.449219 Z M 101.789062 210.449219 "/>
<path style=" stroke:none;fill-rule:evenodd;fill:rgb(20%,20%,70%);fill-opacity:1;" d="M 81.023438 202.574219 C 81.023438 198.792969 75.351562 198.792969 75.351562 202.574219 C 75.351562 206.351562 81.023438 206.351562 81.023438 202.574219 Z M 81.023438 202.574219 "/>
<path style=" stroke:none;fill-rule:evenodd;fill:rgb(20%,20%,70%);fill-opacity:1;" d="M 62.742188 189.957031 C 62.742188 186.179688 57.074219 186.179688 57.074219 189.957031 C 57.074219 193.738281 62.742188 193.738281 62.742188 189.957031 Z M 62.742188 189.957031 "/>
<path style=" stroke:none;fill-rule:evenodd;fill:rgb(20%,20%,70%);fill-opacity:1;" d="M 48.015625 173.332031 C 48.015625 169.554688 42.347656 169.554688 42.347656 173.332031 C 42.347656 177.113281 48.015625 177.113281 48.015625 173.332031 Z M 48.015625 173.332031 "/>
<path style=" stroke:none;fill-rule:evenodd;fill:rgb(20%,20%,70%);fill-opacity:1;" d="M 37.695312 153.667969 C 37.695312 149.890625 32.027344 149.890625 32.027344 153.667969 C 32.027344 157.449219 37.695312 157.449219 37.695312 153.667969 Z M 37.695312 153.667969 "/>
<path style=" stroke:none;fill-rule:evenodd;fill:rgb(20%,20%,70%);fill-opacity:1;" d="M 32.378906 132.105469 C 32.378906 128.324219 26.710938 128.324219 26.710938 132.105469 C 26.710938 135.882812 32.378906 135.882812 32.378906 132.105469 Z M 32.378906 132.105469 "/>
<path style=" stroke:none;fill-rule:evenodd;fill:rgb(20%,20%,70%);fill-opacity:1;" d="M 32.378906 109.894531 C 32.378906 106.117188 26.710938 106.117188 26.710938 109.894531 C 26.710938 113.675781 32.378906 113.675781 32.378906 109.894531 Z M 32.378906 109.894531 "/>
<path style=" stroke:none;fill-rule:evenodd;fill:rgb(20%,20%,70%);fill-opacity:1;" d="M 37.695312 88.332031 C 37.695312 84.550781 32.027344 84.550781 32.027344 88.332031 C 32.027344 92.109375 37.695312 92.109375 37.695312 88.332031 Z M 37.695312 88.332031 "/>
<path style=" stroke:none;fill-rule:evenodd;fill:rgb(20%,20%,70%);fill-opacity:1;" d="M 48.015625 68.667969 C 48.015625 64.886719 42.347656 64.886719 42.347656 68.667969 C 42.347656 72.445312 48.015625 72.445312 48.015625 68.667969 Z M 48.015625 68.667969 "/>
<path style=" stroke:none;fill-rule:evenodd;fill:rgb(20%,20%,70%);fill-opacity:1;" d="M 62.742188 52.042969 C 62.742188 48.261719 57.074219 48.261719 57.074219 52.042969 C 57.074219 55.820312 62.742188 55.820312 62.742188 52.042969 Z M 62.742188 52.042969 "/>
<path style=" stroke:none;fill-rule:evenodd;fill:rgb(20%,20%,70%);fill-opacity:1;" d="M 81.023438 39.425781 C 81.023438 35.648438 75.351562 35.648438 75.351562 39.425781 C 75.351562 43.207031 81.023438 43.207031 81.023438 39.425781 Z M 81.023438 39.425781 "/>
<path style=" stroke:none;fill-rule:evenodd;fill:rgb(20%,20%,70%);fill-opacity:1;" d="M 101.789062 31.550781 C 101.789062 27.773438 96.117188 27.773438 96.117188 31.550781 C 96.117188 35.332031 101.789062 35.332031 101.789062 31.550781 Z M 101.789062 31.550781 "/>
<path style="fill:none;stroke-width:2.267717;stroke-linecap:butt;stroke-linejoin:miter;stroke:rgb(20%,20%,70%);stroke-opacity:0.5;stroke-miterlimit:10;" d="M 0 -92.125 L 0 -92.125 " transform="matrix(1,0,0,1,121,121)"/>
<path style="fill:none;stroke-width:2.267717;stroke-linecap:butt;stroke-linejoin:miter;stroke:rgb(20%,20%,70%);stroke-opacity:0.5;stroke-miterlimit:10;" d="M 22.046875 -89.449219 L 61.089844 -68.957031 " transform="matrix(1,0,0,1,121,121)"/>
<path style="fill:none;stroke-width:2.267717;stroke-linecap:butt;stroke-linejoin:miter;stroke:rgb(20%,20%,70%);stroke-opacity:0.5;stroke-miterlimit:10;" d="M 42.8125 -81.574219 L 91.453125 -11.105469 " transform="matrix(1,0,0,1,121,121)"/>
<path style="fill:none;stroke-width:2.267717;stroke-linecap:butt;stroke-linejoin:miter;stroke:rgb(20%,20%,70%);stroke-opacity:0.5;stroke-miterlimit:10;" d="M 61.089844 -68.957031 L 75.816406 52.332031 " transform="matrix(1,0,0,1,121,121)"/>
<path style="fill:none;stroke-width:2.267717;stroke-linecap:butt;stroke-linejoin:miter;stroke:rgb(20%,20%,70%);stroke-opacity:0.5;stroke-miterlimit:10;" d="M 75.816406 -52.332031 L 22.046875 89.449219 " transform="matrix(1,0,0,1,121,121)"/>
<path style="fill:none;stroke-width:2.267717;stroke-linecap:butt;stroke-linejoin:miter;stroke:rgb(20%,20%,70%);stroke-opacity:0.5;stroke-miterlimit:10;" d="M 86.140625 -32.667969 L -42.8125 81.574219 " transform="matrix(1,0,0,1,121,121)"/>
<path style="fill:none;stroke-width:2.267717;stroke-linecap:butt;stroke-linejoin:miter;stroke:rgb(20%,20%,70%);stroke-opacity:0.5;stroke-miterlimit:10;" d="M 91.453125 -11.105469 L -86.140625 32.667969 " transform="matrix(1,0,0,1,121,121)"/>
<path style="fill:none;stroke-width:2.267717;stroke-linecap:butt;stroke-linejoin:miter;stroke:rgb(20%,20%,70%);stroke-opacity:0.5;stroke-miterlimit:10;" d="M 91.453125 11.105469 L -86.140625 -32.667969 " transform="matrix(1,0,0,1,121,121)"/>
<path style="fill:none;stroke-width:2.267717;stroke-linecap:butt;stroke-linejoin:miter;stroke:rgb(20%,20%,70%);stroke-opacity:0.5;stroke-miterlimit:10;" d="M 86.140625 32.667969 L -42.8125 -81.574219 " transform="matrix(1,0,0,1,121,121)"/>
<path style="fill:none;stroke-width:2.267717;stroke-linecap:butt;stroke-linejoin:miter;stroke:rgb(20%,20%,70%);stroke-opacity:0.5;stroke-miterlimit:10;" d="M 75.816406 52.332031 L 22.046875 -89.449219 " transform="matrix(1,0,0,1,121,121)"/>
<path style="fill:none;stroke-width:2.267717;stroke-linecap:butt;stroke-linejoin:miter;stroke:rgb(20%,20%,70%);stroke-opacity:0.5;stroke-miterlimit:10;" d="M 61.089844 68.957031 L 75.816406 -52.332031 " transform="matrix(1,0,0,1,121,121)"/>
<path style="fill:none;stroke-width:2.267717;stroke-linecap:butt;stroke-linejoin:miter;stroke:rgb(20%,20%,70%);stroke-opacity:0.5;stroke-miterlimit:10;" d="M 42.8125 81.574219 L 91.453125 11.105469 " transform="matrix(1,0,0,1,121,121)"/>
<path style="fill:none;stroke-width:2.267717;stroke-linecap:butt;stroke-linejoin:miter;stroke:rgb(20%,20%,70%);stroke-opacity:0.5;stroke-miterlimit:10;" d="M 22.046875 89.449219 L 61.089844 68.957031 " transform="matrix(1,0,0,1,121,121)"/>
<path style="fill:none;stroke-width:2.267717;stroke-linecap:butt;stroke-linejoin:miter;stroke:rgb(20%,20%,70%);stroke-opacity:0.5;stroke-miterlimit:10;" d="M 0 92.125 L 0 92.125 " transform="matrix(1,0,0,1,121,121)"/>
<path style="fill:none;stroke-width:2.267717;stroke-linecap:butt;stroke-linejoin:miter;stroke:rgb(20%,20%,70%);stroke-opacity:0.5;stroke-miterlimit:10;" d="M -22.046875 89.449219 L -61.089844 68.957031 " transform="matrix(1,0,0,1,121,121)"/>
<path style="fill:none;stroke-width:2.267717;stroke-linecap:butt;stroke-linejoin:miter;stroke:rgb(20%,20%,70%);stroke-opacity:0.5;stroke-miterlimit:10;" d="M -42.8125 81.574219 L -91.453125 11.105469 " transform="matrix(1,0,0,1,121,121)"/>
<path style="fill:none;stroke-width:2.267717;stroke-linecap:butt;stroke-linejoin:miter;stroke:rgb(20%,20%,70%);stroke-opacity:0.5;stroke-miterlimit:10;" d="M -61.089844 68.957031 L -75.816406 -52.332031 " transform="matrix(1,0,0,1,121,121)"/>
<path style="fill:none;stroke-width:2.267717;stroke-linecap:butt;stroke-linejoin:miter;stroke:rgb(20%,20%,70%);stroke-opacity:0.5;stroke-miterlimit:10;" d="M -75.816406 52.332031 L -22.046875 -89.449219 " transform="matrix(1,0,0,1,121,121)"/>
<path style="fill:none;stroke-width:2.267717;stroke-linecap:butt;stroke-linejoin:miter;stroke:rgb(20%,20%,70%);stroke-opacity:0.5;stroke-miterlimit:10;" d="M -86.140625 32.667969 L 42.8125 -81.574219 " transform="matrix(1,0,0,1,121,121)"/>
<path style="fill:none;stroke-width:2.267717;stroke-linecap:butt;stroke-linejoin:miter;stroke:rgb(20%,20%,70%);stroke-opacity:0.5;stroke-miterlimit:10;" d="M -91.453125 11.105469 L 86.140625 -32.667969 " transform="matrix(1,0,0,1,121,121)"/>
<path style="fill:none;stroke-width:2.267717;stroke-linecap:butt;stroke-linejoin:miter;stroke:rgb(20%,20%,70%);stroke-opacity:0.5;stroke-miterlimit:10;" d="M -91.453125 -11.105469 L 86.140625 32.667969 " transform="matrix(1,0,0,1,121,121)"/>
<path style="fill:none;stroke-width:2.267717;stroke-linecap:butt;stroke-linejoin:miter;stroke:rgb(20%,20%,70%);stroke-opacity:0.5;stroke-miterlimit:10;" d="M -86.140625 -32.667969 L 42.8125 81.574219 " transform="matrix(1,0,0,1,121,121)"/>
<path style="fill:none;stroke-width:2.267717;stroke-linecap:butt;stroke-linejoin:miter;stroke:rgb(20%,20%,70%);stroke-opacity:0.5;stroke-miterlimit:10;" d="M -75.816406 -52.332031 L -22.046875 89.449219 " transform="matrix(1,0,0,1,121,121)"/>
<path style="fill:none;stroke-width:2.267717;stroke-linecap:butt;stroke-linejoin:miter;stroke:rgb(20%,20%,70%);stroke-opacity:0.5;stroke-miterlimit:10;" d="M -61.089844 -68.957031 L -75.816406 52.332031 " transform="matrix(1,0,0,1,121,121)"/>
<path style="fill:none;stroke-width:2.267717;stroke-linecap:butt;stroke-linejoin:miter;stroke:rgb(20%,20%,70%);stroke-opacity:0.5;stroke-miterlimit:10;" d="M -42.8125 -81.574219 L -91.453125 -11.105469 " transform="matrix(1,0,0,1,121,121)"/>
<path style="fill:none;stroke-width:2.267717;stroke-linecap:butt;stroke-linejoin:miter;stroke:rgb(20%,20%,70%);stroke-opacity:0.5;stroke-miterlimit:10;" d="M -22.046875 -89.449219 L -61.089844 -68.957031 " transform="matrix(1,0,0,1,121,121)"/>
</g>
</svg>
