<?xml version="1.0" encoding="UTF-8"?>
<svg xmlns="http://www.w3.org/2000/svg" xmlns:xlink="http://www.w3.org/1999/xlink" width="142pt" height="142pt" viewBox="0 0 142 142" version="1.1">
<g id="surface188">
<path style="fill:none;stroke-width:0.566929;stroke-linecap:butt;stroke-linejoin:miter;stroke:rgb(100%,100%,100%);stroke-opacity:1;stroke-miterlimit:10;" d="M 69.09375 0 C 69.09375 -38.160156 38.160156 -69.09375 0 -69.09375 C -38.160156 -69.09375 -69.09375 -38.160156 -69.09375 0 C -69.09375 38.160156 -38.160156 69.09375 0 69.09375 C 38.160156 69.09375 69.09375 38.160156 69.09375 0 Z M 69.09375 0 " transform="matrix(1,0,0,1,71,71)"/>
<path style=" stroke:none;fill-rule:evenodd;fill:rgb(20%,20%,70%);fill-opacity:1;" d="M 73.835938 17.851562 C 73.835938 14.070312 68.164062 14.070312 68.164062 17.851562 C 68.164062 21.628906 73.835938 21.628906 73.835938 17.851562 Z M 73.835938 17.851562 "/>
<path style=" stroke:none;fill-rule:evenodd;fill:rgb(20%,20%,70%);fill-opacity:1;" d="M 95.453125 22.445312 C 95.453125 18.664062 89.785156 18.664062 89.785156 22.445312 C 89.785156 26.226562 95.453125 26.226562 95.453125 22.445312 Z M 95.453125 22.445312 "/>
<path style=" stroke:none;fill-rule:evenodd;fill:rgb(20%,20%,70%);fill-opacity:1;" d="M 113.332031 35.4375 C 113.332031 31.65625 107.664062 31.65625 107.664062 35.4375 C 107.664062 39.214844 113.332031 39.214844 113.332031 35.4375 Z M 113.332031 35.4375 "/>
<path style=" stroke:none;fill-rule:evenodd;fill:rgb(20%,20%,70%);fill-opacity:1;" d="M 124.382812 54.574219 C 124.382812 50.796875 118.714844 50.796875 118.714844 54.574219 C 118.714844 58.355469 124.382812 58.355469 124.382812 54.574219 Z M 124.382812 54.574219 "/>
<path style=" stroke:none;fill-rule:evenodd;fill:rgb(20%,20%,70%);fill-opacity:1;" d="M 126.691406 76.554688 C 126.691406 72.777344 121.023438 72.777344 121.023438 76.554688 C 121.023438 80.335938 126.691406 80.335938 126.691406 76.554688 Z M 126.691406 76.554688 "/>
<path style=" stroke:none;fill-rule:evenodd;fill:rgb(20%,20%,70%);fill-opacity:1;" d="M 119.863281 97.574219 C 119.863281 93.796875 114.195312 93.796875 114.195312 97.574219 C 114.195312 101.355469 119.863281 101.355469 119.863281 97.574219 Z M 119.863281 97.574219 "/>
<path style=" stroke:none;fill-rule:evenodd;fill:rgb(20%,20%,70%);fill-opacity:1;" d="M 105.074219 114 C 105.074219 110.21875 99.40625 110.21875 99.40625 114 C 99.40625 117.777344 105.074219 117.777344 105.074219 114 Z M 105.074219 114 "/>
<path style=" stroke:none;fill-rule:evenodd;fill:rgb(20%,20%,70%);fill-opacity:1;" d="M 84.886719 122.988281 C 84.886719 119.207031 79.214844 119.207031 79.214844 122.988281 C 79.214844 126.769531 84.886719 126.769531 84.886719 122.988281 Z M 84.886719 122.988281 "/>
<path style=" stroke:none;fill-rule:evenodd;fill:rgb(20%,20%,70%);fill-opacity:1;" d="M 62.785156 122.988281 C 62.785156 119.207031 57.113281 119.207031 57.113281 122.988281 C 57.113281 126.769531 62.785156 126.769531 62.785156 122.988281 Z M 62.785156 122.988281 "/>
<path style=" stroke:none;fill-rule:evenodd;fill:rgb(20%,20%,70%);fill-opacity:1;" d="M 42.59375 114 C 42.59375 110.21875 36.925781 110.21875 36.925781 114 C 36.925781 117.777344 42.59375 117.777344 42.59375 114 Z M 42.59375 114 "/>
<path style=" stroke:none;fill-rule:evenodd;fill:rgb(20%,20%,70%);fill-opacity:1;" d="M 27.804688 97.574219 C 27.804688 93.796875 22.136719 93.796875 22.136719 97.574219 C 22.136719 101.355469 27.804688 101.355469 27.804688 97.574219 Z M 27.804688 97.574219 "/>
<path style=" stroke:none;fill-rule:evenodd;fill:rgb(20%,20%,70%);fill-opacity:1;" d="M 20.976562 76.554688 C 20.976562 72.777344 15.308594 72.777344 15.308594 76.554688 C 15.308594 80.335938 20.976562 80.335938 20.976562 76.554688 Z M 20.976562 76.554688 "/>
<path style=" stroke:none;fill-rule:evenodd;fill:rgb(20%,20%,70%);fill-opacity:1;" d="M 23.285156 54.574219 C 23.285156 50.796875 17.617188 50.796875 17.617188 54.574219 C 17.617188 58.355469 23.285156 58.355469 23.285156 54.574219 Z M 23.285156 54.574219 "/>
<path style=" stroke:none;fill-rule:evenodd;fill:rgb(20%,20%,70%);fill-opacity:1;" d="M 34.335938 35.4375 C 34.335938 31.65625 28.667969 31.65625 28.667969 35.4375 C 28.667969 39.214844 34.335938 39.214844 34.335938 35.4375 Z M 34.335938 35.4375 "/>
<path style=" stroke:none;fill-rule:evenodd;fill:rgb(20%,20%,70%);fill-opacity:1;" d="M 52.214844 22.445312 C 52.214844 18.664062 46.546875 18.664062 46.546875 22.445312 C 46.546875 26.226562 52.214844 26.226562 52.214844 22.445312 Z M 52.214844 22.445312 "/>
<path style="fill:none;stroke-width:2.267717;stroke-linecap:butt;stroke-linejoin:miter;stroke:rgb(20%,20%,70%);stroke-opacity:0.5;stroke-miterlimit:10;" d="M 0 -53.148438 L 0 -53.148438 " transform="matrix(1,0,0,1,71,71)"/>
<path style="fill:none;stroke-width:2.267717;stroke-linecap:butt;stroke-linejoin:miter;stroke:rgb(20%,20%,70%);stroke-opacity:0.5;stroke-miterlimit:10;" d="M 21.617188 -48.554688 L 39.496094 -35.5625 " transform="matrix(1,0,0,1,71,71)"/>
<path style="fill:none;stroke-width:2.267717;stroke-linecap:butt;stroke-linejoin:miter;stroke:rgb(20%,20%,70%);stroke-opacity:0.5;stroke-miterlimit:10;" d="M 39.496094 -35.5625 L 52.859375 5.554688 " transform="matrix(1,0,0,1,71,71)"/>
<path style="fill:none;stroke-width:2.267717;stroke-linecap:butt;stroke-linejoin:miter;stroke:rgb(20%,20%,70%);stroke-opacity:0.5;stroke-miterlimit:10;" d="M 50.546875 -16.425781 L 31.242188 43 " transform="matrix(1,0,0,1,71,71)"/>
<path style="fill:none;stroke-width:2.267717;stroke-linecap:butt;stroke-linejoin:miter;stroke:rgb(20%,20%,70%);stroke-opacity:0.5;stroke-miterlimit:10;" d="M 52.859375 5.554688 L -11.050781 51.988281 " transform="matrix(1,0,0,1,71,71)"/>
<path style="fill:none;stroke-width:2.267717;stroke-linecap:butt;stroke-linejoin:miter;stroke:rgb(20%,20%,70%);stroke-opacity:0.5;stroke-miterlimit:10;" d="M 46.027344 26.574219 L -46.027344 26.574219 " transform="matrix(1,0,0,1,71,71)"/>
<path style="fill:none;stroke-width:2.267717;stroke-linecap:butt;stroke-linejoin:miter;stroke:rgb(20%,20%,70%);stroke-opacity:0.5;stroke-miterlimit:10;" d="M 31.242188 43 L -50.546875 -16.425781 " transform="matrix(1,0,0,1,71,71)"/>
<path style="fill:none;stroke-width:2.267717;stroke-linecap:butt;stroke-linejoin:miter;stroke:rgb(20%,20%,70%);stroke-opacity:0.5;stroke-miterlimit:10;" d="M 11.050781 51.988281 L -21.617188 -48.554688 " transform="matrix(1,0,0,1,71,71)"/>
<path style="fill:none;stroke-width:2.267717;stroke-linecap:butt;stroke-linejoin:miter;stroke:rgb(20%,20%,70%);stroke-opacity:0.5;stroke-miterlimit:10;" d="M -11.050781 51.988281 L 21.617188 -48.554688 " transform="matrix(1,0,0,1,71,71)"/>
<path style="fill:none;stroke-width:2.267717;stroke-linecap:butt;stroke-linejoin:miter;stroke:rgb(20%,20%,70%);stroke-opacity:0.5;stroke-miterlimit:10;" d="M -31.242188 43 L 50.546875 -16.425781 " transform="matrix(1,0,0,1,71,71)"/>
<path style="fill:none;stroke-width:2.267717;stroke-linecap:butt;stroke-linejoin:miter;stroke:rgb(20%,20%,70%);stroke-opacity:0.5;stroke-miterlimit:10;" d="M -46.027344 26.574219 L 46.027344 26.574219 " transform="matrix(1,0,0,1,71,71)"/>
<path style="fill:none;stroke-width:2.267717;stroke-linecap:butt;stroke-linejoin:miter;stroke:rgb(20%,20%,70%);stroke-opacity:0.5;stroke-miterlimit:10;" d="M -52.859375 5.554688 L 11.050781 51.988281 " transform="matrix(1,0,0,1,71,71)"/>
<path style="fill:none;stroke-width:2.267717;stroke-linecap:butt;stroke-linejoin:miter;stroke:rgb(20%,20%,70%);stroke-opacity:0.5;stroke-miterlimit:10;" d="M -50.546875 -16.425781 L -31.242188 43 " transform="matrix(1,0,0,1,71,71)"/>
<path style="fill:none;stroke-width:2.267717;stroke-linecap:butt;stroke-linejoin:miter;stroke:rgb(20%,20%,70%);stroke-opacity:0.5;stroke-miterlimit:10;" d="M -39.496094 -35.5625 L -52.859375 5.554688 " transform="matrix(1,0,0,1,71,71)"/>
<path style="fill:none;stroke-width:2.267717;stroke-linecap:butt;stroke-linejoin:miter;stroke:rgb(20%,20%,70%);stroke-opacity:0.5;stroke-miterlimit:10;" d="M -21.617188 -48.554688 L -39.496094 -35.5625 " transform="matrix(1,0,0,1,71,71)"/>
</g>
</svg>
