<?xml version="1.0" encoding="UTF-8"?>
<svg xmlns="http://www.w3.org/2000/svg" xmlns:xlink="http://www.w3.org/1999/xlink" width="30pt" height="30pt" viewBox="0 0 30 30" version="1.1">
<g id="surface92">
<path style="fill:none;stroke-width:0.566929;stroke-linecap:butt;stroke-linejoin:miter;stroke:rgb(100%,100%,100%);stroke-opacity:1;stroke-miterlimit:10;" d="M 13.820312 0 C 13.820312 -7.632812 7.632812 -13.820312 0 -13.820312 C -7.632812 -13.820312 -13.820312 -7.632812 -13.820312 0 C -13.820312 7.632812 -7.632812 13.820312 0 13.820312 C 7.632812 13.820312 13.820312 7.632812 13.820312 0 Z M 13.820312 0 " transform="matrix(1,0,0,1,15,15)"/>
<path style=" stroke:none;fill-rule:evenodd;fill:rgb(20%,20%,70%);fill-opacity:1;" d="M 17.835938 4.371094 C 17.835938 0.589844 12.164062 0.589844 12.164062 4.371094 C 12.164062 8.148438 17.835938 8.148438 17.835938 4.371094 Z M 17.835938 4.371094 "/>
<path style=" stroke:none;fill-rule:evenodd;fill:rgb(20%,20%,70%);fill-opacity:1;" d="M 27.039062 20.316406 C 27.039062 16.535156 21.371094 16.535156 21.371094 20.316406 C 21.371094 24.09375 27.039062 24.09375 27.039062 20.316406 Z M 27.039062 20.316406 "/>
<path style=" stroke:none;fill-rule:evenodd;fill:rgb(20%,20%,70%);fill-opacity:1;" d="M 8.628906 20.316406 C 8.628906 16.535156 2.960938 16.535156 2.960938 20.316406 C 2.960938 24.09375 8.628906 24.09375 8.628906 20.316406 Z M 8.628906 20.316406 "/>
<path style="fill:none;stroke-width:2.267717;stroke-linecap:butt;stroke-linejoin:miter;stroke:rgb(20%,20%,70%);stroke-opacity:0.5;stroke-miterlimit:10;" d="M 0 -10.628906 L 0 -10.628906 " transform="matrix(1,0,0,1,15,15)"/>
<path style="fill:none;stroke-width:2.267717;stroke-linecap:butt;stroke-linejoin:miter;stroke:rgb(20%,20%,70%);stroke-opacity:0.5;stroke-miterlimit:10;" d="M 9.207031 5.316406 L -9.207031 5.316406 " transform="matrix(1,0,0,1,15,15)"/>
<path style="fill:none;stroke-width:2.267717;stroke-linecap:butt;stroke-linejoin:miter;stroke:rgb(20%,20%,70%);stroke-opacity:0.5;stroke-miterlimit:10;" d="M -9.207031 5.316406 L 9.207031 5.316406 " transform="matrix(1,0,0,1,15,15)"/>
</g>
</svg>
