<?xml version="1.0" encoding="UTF-8"?>
<svg xmlns="http://www.w3.org/2000/svg" xmlns:xlink="http://www.w3.org/1999/xlink" width="68pt" height="68pt" viewBox="0 0 68 68" version="1.1">
<g id="surface140">
<path style="fill:none;stroke-width:0.566929;stroke-linecap:butt;stroke-linejoin:miter;stroke:rgb(100%,100%,100%);stroke-opacity:1;stroke-miterlimit:10;" d="M 32.242188 0 C 32.242188 -17.808594 17.808594 -32.242188 0 -32.242188 C -17.808594 -32.242188 -32.242188 -17.808594 -32.242188 0 C -32.242188 17.808594 -17.808594 32.242188 0 32.242188 C 17.808594 32.242188 32.242188 17.808594 32.242188 0 Z M 32.242188 0 " transform="matrix(1,0,0,1,34,34)"/>
<path style=" stroke:none;fill-rule:evenodd;fill:rgb(20%,20%,70%);fill-opacity:1;" d="M 36.835938 9.195312 C 36.835938 5.417969 31.164062 5.417969 31.164062 9.195312 C 31.164062 12.976562 36.835938 12.976562 36.835938 9.195312 Z M 36.835938 9.195312 "/>
<path style=" stroke:none;fill-rule:evenodd;fill:rgb(20%,20%,70%);fill-opacity:1;" d="M 56.226562 18.535156 C 56.226562 14.757812 50.558594 14.757812 50.558594 18.535156 C 50.558594 22.316406 56.226562 22.316406 56.226562 18.535156 Z M 56.226562 18.535156 "/>
<path style=" stroke:none;fill-rule:evenodd;fill:rgb(20%,20%,70%);fill-opacity:1;" d="M 61.015625 39.519531 C 61.015625 35.738281 55.347656 35.738281 55.347656 39.519531 C 55.347656 43.296875 61.015625 43.296875 61.015625 39.519531 Z M 61.015625 39.519531 "/>
<path style=" stroke:none;fill-rule:evenodd;fill:rgb(20%,20%,70%);fill-opacity:1;" d="M 47.597656 56.347656 C 47.597656 52.566406 41.925781 52.566406 41.925781 56.347656 C 41.925781 60.125 47.597656 60.125 47.597656 56.347656 Z M 47.597656 56.347656 "/>
<path style=" stroke:none;fill-rule:evenodd;fill:rgb(20%,20%,70%);fill-opacity:1;" d="M 26.074219 56.347656 C 26.074219 52.566406 20.402344 52.566406 20.402344 56.347656 C 20.402344 60.125 26.074219 60.125 26.074219 56.347656 Z M 26.074219 56.347656 "/>
<path style=" stroke:none;fill-rule:evenodd;fill:rgb(20%,20%,70%);fill-opacity:1;" d="M 12.652344 39.519531 C 12.652344 35.738281 6.984375 35.738281 6.984375 39.519531 C 6.984375 43.296875 12.652344 43.296875 12.652344 39.519531 Z M 12.652344 39.519531 "/>
<path style=" stroke:none;fill-rule:evenodd;fill:rgb(20%,20%,70%);fill-opacity:1;" d="M 17.441406 18.535156 C 17.441406 14.757812 11.773438 14.757812 11.773438 18.535156 C 11.773438 22.316406 17.441406 22.316406 17.441406 18.535156 Z M 17.441406 18.535156 "/>
<path style="fill:none;stroke-width:2.267717;stroke-linecap:butt;stroke-linejoin:miter;stroke:rgb(20%,20%,70%);stroke-opacity:0.5;stroke-miterlimit:10;" d="M 0 -24.804688 L 0 -24.804688 " transform="matrix(1,0,0,1,34,34)"/>
<path style="fill:none;stroke-width:2.267717;stroke-linecap:butt;stroke-linejoin:miter;stroke:rgb(20%,20%,70%);stroke-opacity:0.5;stroke-miterlimit:10;" d="M 19.390625 -15.464844 L 24.179688 5.519531 " transform="matrix(1,0,0,1,34,34)"/>
<path style="fill:none;stroke-width:2.267717;stroke-linecap:butt;stroke-linejoin:miter;stroke:rgb(20%,20%,70%);stroke-opacity:0.5;stroke-miterlimit:10;" d="M 24.179688 5.519531 L -10.761719 22.347656 " transform="matrix(1,0,0,1,34,34)"/>
<path style="fill:none;stroke-width:2.267717;stroke-linecap:butt;stroke-linejoin:miter;stroke:rgb(20%,20%,70%);stroke-opacity:0.5;stroke-miterlimit:10;" d="M 10.761719 22.347656 L -19.390625 -15.464844 " transform="matrix(1,0,0,1,34,34)"/>
<path style="fill:none;stroke-width:2.267717;stroke-linecap:butt;stroke-linejoin:miter;stroke:rgb(20%,20%,70%);stroke-opacity:0.5;stroke-miterlimit:10;" d="M -10.761719 22.347656 L 19.390625 -15.464844 " transform="matrix(1,0,0,1,34,34)"/>
<path style="fill:none;stroke-width:2.267717;stroke-linecap:butt;stroke-linejoin:miter;stroke:rgb(20%,20%,70%);stroke-opacity:0.5;stroke-miterlimit:10;" d="M -24.179688 5.519531 L 10.761719 22.347656 " transform="matrix(1,0,0,1,34,34)"/>
<path style="fill:none;stroke-width:2.267717;stroke-linecap:butt;stroke-linejoin:miter;stroke:rgb(20%,20%,70%);stroke-opacity:0.5;stroke-miterlimit:10;" d="M -19.390625 -15.464844 L -24.179688 5.519531 " transform="matrix(1,0,0,1,34,34)"/>
</g>
</svg>
