<?xml version="1.0" encoding="UTF-8"?>
<svg xmlns="http://www.w3.org/2000/svg" xmlns:xlink="http://www.w3.org/1999/xlink" width="356pt" height="356pt" viewBox="0 0 356 356" version="1.1">
<g id="surface28">
<path style="fill:none;stroke-width:0.566929;stroke-linecap:butt;stroke-linejoin:miter;stroke:rgb(100%,100%,100%);stroke-opacity:1;stroke-miterlimit:10;" d="M 176.882812 0 C 176.882812 -97.6875 97.6875 -176.882812 0 -176.882812 C -97.6875 -176.882812 -176.882812 -97.6875 -176.882812 0 C -176.882812 97.6875 -97.6875 176.882812 0 176.882812 C 97.6875 176.882812 176.882812 97.6875 176.882812 0 Z M 176.882812 0 " transform="matrix(1,0,0,1,178,178)"/>
<path style=" stroke:none;fill-rule:evenodd;fill:rgb(20%,20%,70%);fill-opacity:1;" d="M 180.835938 41.9375 C 180.835938 38.15625 175.164062 38.15625 175.164062 41.9375 C 175.164062 45.714844 180.835938 45.714844 180.835938 41.9375 Z M 180.835938 41.9375 "/>
<path style=" stroke:none;fill-rule:nonzero;fill:rgb(0%,0%,0%);fill-opacity:1;" d="M 176.421875 36.402344 C 176.484375 36.121094 176.734375 35.121094 177.5 35.121094 C 177.5625 35.121094 177.8125 35.121094 178.046875 35.261719 C 177.75 35.308594 177.53125 35.589844 177.53125 35.855469 C 177.53125 36.027344 177.640625 36.230469 177.9375 36.230469 C 178.1875 36.230469 178.53125 36.027344 178.53125 35.605469 C 178.53125 35.027344 177.890625 34.871094 177.515625 34.871094 C 176.875 34.871094 176.5 35.449219 176.375 35.714844 C 176.09375 34.980469 175.5 34.871094 175.1875 34.871094 C 174.0625 34.871094 173.4375 36.292969 173.4375 36.558594 C 173.4375 36.667969 173.546875 36.667969 173.5625 36.667969 C 173.65625 36.667969 173.6875 36.652344 173.703125 36.542969 C 174.078125 35.386719 174.796875 35.121094 175.171875 35.121094 C 175.375 35.121094 175.765625 35.214844 175.765625 35.855469 C 175.765625 36.183594 175.578125 36.917969 175.171875 38.449219 C 175 39.121094 174.609375 39.574219 174.140625 39.574219 C 174.0625 39.574219 173.8125 39.574219 173.59375 39.433594 C 173.859375 39.386719 174.09375 39.152344 174.09375 38.855469 C 174.09375 38.558594 173.859375 38.464844 173.703125 38.464844 C 173.375 38.464844 173.09375 38.746094 173.09375 39.105469 C 173.09375 39.605469 173.640625 39.824219 174.125 39.824219 C 174.84375 39.824219 175.234375 39.058594 175.265625 38.996094 C 175.40625 39.386719 175.796875 39.824219 176.453125 39.824219 C 177.5625 39.824219 178.1875 38.417969 178.1875 38.136719 C 178.1875 38.027344 178.09375 38.027344 178.0625 38.027344 C 177.96875 38.027344 177.9375 38.074219 177.921875 38.152344 C 177.5625 39.324219 176.8125 39.574219 176.46875 39.574219 C 176.046875 39.574219 175.875 39.230469 175.875 38.855469 C 175.875 38.621094 175.9375 38.386719 176.046875 37.902344 Z M 176.421875 36.402344 "/>
<path style=" stroke:none;fill-rule:nonzero;fill:rgb(0%,0%,0%);fill-opacity:1;" d="M 182.90625 33.195312 C 182.90625 32.351562 182.828125 31.835938 182.5625 31.320312 C 182.21875 30.617188 181.5625 30.445312 181.125 30.445312 C 180.125 30.445312 179.75 31.195312 179.640625 31.414062 C 179.359375 31.992188 179.34375 32.789062 179.34375 33.195312 C 179.34375 33.726562 179.359375 34.523438 179.75 35.164062 C 180.109375 35.757812 180.703125 35.914062 181.125 35.914062 C 181.515625 35.914062 182.1875 35.789062 182.59375 35.007812 C 182.890625 34.429688 182.90625 33.710938 182.90625 33.195312 Z M 181.125 35.679688 C 180.859375 35.679688 180.3125 35.554688 180.140625 34.726562 C 180.046875 34.273438 180.046875 33.523438 180.046875 33.101562 C 180.046875 32.554688 180.046875 31.992188 180.140625 31.554688 C 180.3125 30.742188 180.921875 30.664062 181.125 30.664062 C 181.390625 30.664062 181.953125 30.804688 182.109375 31.523438 C 182.203125 31.960938 182.203125 32.570312 182.203125 33.101562 C 182.203125 33.570312 182.203125 34.289062 182.109375 34.742188 C 181.9375 35.570312 181.390625 35.679688 181.125 35.679688 Z M 181.125 35.679688 "/>
<path style=" stroke:none;fill-rule:evenodd;fill:rgb(20%,20%,70%);fill-opacity:1;" d="M 277.046875 81.789062 C 277.046875 78.007812 271.375 78.007812 271.375 81.789062 C 271.375 85.570312 277.046875 85.570312 277.046875 81.789062 Z M 277.046875 81.789062 "/>
<path style=" stroke:none;fill-rule:nonzero;fill:rgb(0%,0%,0%);fill-opacity:1;" d="M 277.605469 78.246094 C 277.667969 77.964844 277.917969 76.964844 278.683594 76.964844 C 278.746094 76.964844 278.996094 76.964844 279.230469 77.105469 C 278.933594 77.152344 278.714844 77.433594 278.714844 77.699219 C 278.714844 77.871094 278.824219 78.074219 279.121094 78.074219 C 279.371094 78.074219 279.714844 77.871094 279.714844 77.449219 C 279.714844 76.871094 279.074219 76.714844 278.699219 76.714844 C 278.058594 76.714844 277.683594 77.292969 277.558594 77.558594 C 277.277344 76.824219 276.683594 76.714844 276.371094 76.714844 C 275.246094 76.714844 274.621094 78.136719 274.621094 78.402344 C 274.621094 78.511719 274.730469 78.511719 274.746094 78.511719 C 274.839844 78.511719 274.871094 78.496094 274.886719 78.386719 C 275.261719 77.230469 275.980469 76.964844 276.355469 76.964844 C 276.558594 76.964844 276.949219 77.058594 276.949219 77.699219 C 276.949219 78.027344 276.761719 78.761719 276.355469 80.292969 C 276.183594 80.964844 275.792969 81.417969 275.324219 81.417969 C 275.246094 81.417969 274.996094 81.417969 274.777344 81.277344 C 275.042969 81.230469 275.277344 80.996094 275.277344 80.699219 C 275.277344 80.402344 275.042969 80.308594 274.886719 80.308594 C 274.558594 80.308594 274.277344 80.589844 274.277344 80.949219 C 274.277344 81.449219 274.824219 81.667969 275.308594 81.667969 C 276.027344 81.667969 276.417969 80.902344 276.449219 80.839844 C 276.589844 81.230469 276.980469 81.667969 277.636719 81.667969 C 278.746094 81.667969 279.371094 80.261719 279.371094 79.980469 C 279.371094 79.871094 279.277344 79.871094 279.246094 79.871094 C 279.152344 79.871094 279.121094 79.917969 279.105469 79.996094 C 278.746094 81.167969 277.996094 81.417969 277.652344 81.417969 C 277.230469 81.417969 277.058594 81.074219 277.058594 80.699219 C 277.058594 80.464844 277.121094 80.230469 277.230469 79.746094 Z M 277.605469 78.246094 "/>
<path style=" stroke:none;fill-rule:nonzero;fill:rgb(0%,0%,0%);fill-opacity:1;" d="M 282.703125 72.507812 C 282.703125 72.289062 282.6875 72.289062 282.46875 72.289062 C 282.140625 72.601562 281.71875 72.789062 280.96875 72.789062 L 280.96875 73.054688 C 281.1875 73.054688 281.609375 73.054688 282.078125 72.851562 L 282.078125 76.929688 C 282.078125 77.226562 282.046875 77.320312 281.296875 77.320312 L 281.015625 77.320312 L 281.015625 77.585938 C 281.34375 77.554688 282.03125 77.554688 282.390625 77.554688 C 282.75 77.554688 283.4375 77.554688 283.765625 77.585938 L 283.765625 77.320312 L 283.484375 77.320312 C 282.734375 77.320312 282.703125 77.226562 282.703125 76.929688 Z M 282.703125 72.507812 "/>
<path style=" stroke:none;fill-rule:evenodd;fill:rgb(20%,20%,70%);fill-opacity:1;" d="M 316.898438 178 C 316.898438 174.21875 311.226562 174.21875 311.226562 178 C 311.226562 181.78125 316.898438 181.78125 316.898438 178 Z M 316.898438 178 "/>
<path style=" stroke:none;fill-rule:nonzero;fill:rgb(0%,0%,0%);fill-opacity:1;" d="M 319.335938 179.269531 C 319.398438 178.988281 319.648438 177.988281 320.414062 177.988281 C 320.476562 177.988281 320.726562 177.988281 320.960938 178.128906 C 320.664062 178.175781 320.445312 178.457031 320.445312 178.722656 C 320.445312 178.894531 320.554688 179.097656 320.851562 179.097656 C 321.101562 179.097656 321.445312 178.894531 321.445312 178.472656 C 321.445312 177.894531 320.804688 177.738281 320.429688 177.738281 C 319.789062 177.738281 319.414062 178.316406 319.289062 178.582031 C 319.007812 177.847656 318.414062 177.738281 318.101562 177.738281 C 316.976562 177.738281 316.351562 179.160156 316.351562 179.425781 C 316.351562 179.535156 316.460938 179.535156 316.476562 179.535156 C 316.570312 179.535156 316.601562 179.519531 316.617188 179.410156 C 316.992188 178.253906 317.710938 177.988281 318.085938 177.988281 C 318.289062 177.988281 318.679688 178.082031 318.679688 178.722656 C 318.679688 179.050781 318.492188 179.785156 318.085938 181.316406 C 317.914062 181.988281 317.523438 182.441406 317.054688 182.441406 C 316.976562 182.441406 316.726562 182.441406 316.507812 182.300781 C 316.773438 182.253906 317.007812 182.019531 317.007812 181.722656 C 317.007812 181.425781 316.773438 181.332031 316.617188 181.332031 C 316.289062 181.332031 316.007812 181.613281 316.007812 181.972656 C 316.007812 182.472656 316.554688 182.691406 317.039062 182.691406 C 317.757812 182.691406 318.148438 181.925781 318.179688 181.863281 C 318.320312 182.253906 318.710938 182.691406 319.367188 182.691406 C 320.476562 182.691406 321.101562 181.285156 321.101562 181.003906 C 321.101562 180.894531 321.007812 180.894531 320.976562 180.894531 C 320.882812 180.894531 320.851562 180.941406 320.835938 181.019531 C 320.476562 182.191406 319.726562 182.441406 319.382812 182.441406 C 318.960938 182.441406 318.789062 182.097656 318.789062 181.722656 C 318.789062 181.488281 318.851562 181.253906 318.960938 180.769531 Z M 319.335938 179.269531 "/>
<path style=" stroke:none;fill-rule:nonzero;fill:rgb(0%,0%,0%);fill-opacity:1;" d="M 324.179688 176.980469 C 324.304688 176.855469 324.632812 176.589844 324.773438 176.480469 C 325.257812 176.027344 325.726562 175.589844 325.726562 174.871094 C 325.726562 173.917969 324.929688 173.308594 323.945312 173.308594 C 322.976562 173.308594 322.351562 174.027344 322.351562 174.746094 C 322.351562 175.136719 322.664062 175.183594 322.773438 175.183594 C 322.945312 175.183594 323.195312 175.074219 323.195312 174.761719 C 323.195312 174.355469 322.789062 174.355469 322.695312 174.355469 C 322.929688 173.761719 323.460938 173.574219 323.851562 173.574219 C 324.585938 173.574219 324.976562 174.199219 324.976562 174.871094 C 324.976562 175.699219 324.398438 176.308594 323.445312 177.261719 L 322.445312 178.308594 C 322.351562 178.386719 322.351562 178.402344 322.351562 178.605469 L 325.492188 178.605469 L 325.726562 177.183594 L 325.476562 177.183594 C 325.460938 177.339844 325.398438 177.730469 325.304688 177.886719 C 325.257812 177.949219 324.648438 177.949219 324.523438 177.949219 L 323.101562 177.949219 Z M 324.179688 176.980469 "/>
<path style=" stroke:none;fill-rule:evenodd;fill:rgb(20%,20%,70%);fill-opacity:1;" d="M 277.046875 274.210938 C 277.046875 270.429688 271.375 270.429688 271.375 274.210938 C 271.375 277.992188 277.046875 277.992188 277.046875 274.210938 Z M 277.046875 274.210938 "/>
<path style=" stroke:none;fill-rule:nonzero;fill:rgb(0%,0%,0%);fill-opacity:1;" d="M 277.449219 280.289062 C 277.511719 280.007812 277.761719 279.007812 278.527344 279.007812 C 278.589844 279.007812 278.839844 279.007812 279.074219 279.148438 C 278.777344 279.195312 278.558594 279.476562 278.558594 279.742188 C 278.558594 279.914062 278.667969 280.117188 278.964844 280.117188 C 279.214844 280.117188 279.558594 279.914062 279.558594 279.492188 C 279.558594 278.914062 278.917969 278.757812 278.542969 278.757812 C 277.902344 278.757812 277.527344 279.335938 277.402344 279.601562 C 277.121094 278.867188 276.527344 278.757812 276.214844 278.757812 C 275.089844 278.757812 274.464844 280.179688 274.464844 280.445312 C 274.464844 280.554688 274.574219 280.554688 274.589844 280.554688 C 274.683594 280.554688 274.714844 280.539062 274.730469 280.429688 C 275.105469 279.273438 275.824219 279.007812 276.199219 279.007812 C 276.402344 279.007812 276.792969 279.101562 276.792969 279.742188 C 276.792969 280.070312 276.605469 280.804688 276.199219 282.335938 C 276.027344 283.007812 275.636719 283.460938 275.167969 283.460938 C 275.089844 283.460938 274.839844 283.460938 274.621094 283.320312 C 274.886719 283.273438 275.121094 283.039062 275.121094 282.742188 C 275.121094 282.445312 274.886719 282.351562 274.730469 282.351562 C 274.402344 282.351562 274.121094 282.632812 274.121094 282.992188 C 274.121094 283.492188 274.667969 283.710938 275.152344 283.710938 C 275.871094 283.710938 276.261719 282.945312 276.292969 282.882812 C 276.433594 283.273438 276.824219 283.710938 277.480469 283.710938 C 278.589844 283.710938 279.214844 282.304688 279.214844 282.023438 C 279.214844 281.914062 279.121094 281.914062 279.089844 281.914062 C 278.996094 281.914062 278.964844 281.960938 278.949219 282.039062 C 278.589844 283.210938 277.839844 283.460938 277.496094 283.460938 C 277.074219 283.460938 276.902344 283.117188 276.902344 282.742188 C 276.902344 282.507812 276.964844 282.273438 277.074219 281.789062 Z M 277.449219 280.289062 "/>
<path style=" stroke:none;fill-rule:nonzero;fill:rgb(0%,0%,0%);fill-opacity:1;" d="M 282.0625 276.972656 C 282.6875 276.972656 283.09375 277.425781 283.09375 278.269531 C 283.09375 279.269531 282.53125 279.550781 282.109375 279.550781 C 281.671875 279.550781 281.0625 279.394531 280.78125 278.972656 C 281.078125 278.972656 281.28125 278.785156 281.28125 278.535156 C 281.28125 278.269531 281.09375 278.097656 280.828125 278.097656 C 280.625 278.097656 280.390625 278.222656 280.390625 278.550781 C 280.390625 279.300781 281.203125 279.800781 282.125 279.800781 C 283.171875 279.800781 283.921875 279.066406 283.921875 278.269531 C 283.921875 277.597656 283.390625 277.003906 282.578125 276.816406 C 283.203125 276.597656 283.6875 276.066406 283.6875 275.425781 C 283.6875 274.785156 282.96875 274.332031 282.140625 274.332031 C 281.28125 274.332031 280.640625 274.785156 280.640625 275.394531 C 280.640625 275.691406 280.828125 275.816406 281.046875 275.816406 C 281.296875 275.816406 281.453125 275.644531 281.453125 275.410156 C 281.453125 275.113281 281.1875 275.003906 281.015625 275.003906 C 281.359375 274.566406 281.96875 274.535156 282.109375 274.535156 C 282.3125 274.535156 282.921875 274.597656 282.921875 275.425781 C 282.921875 275.972656 282.6875 276.316406 282.578125 276.441406 C 282.34375 276.691406 282.15625 276.707031 281.671875 276.738281 C 281.515625 276.738281 281.453125 276.753906 281.453125 276.863281 C 281.453125 276.972656 281.53125 276.972656 281.671875 276.972656 Z M 282.0625 276.972656 "/>
<path style=" stroke:none;fill-rule:evenodd;fill:rgb(20%,20%,70%);fill-opacity:1;" d="M 180.835938 314.0625 C 180.835938 310.285156 175.164062 310.285156 175.164062 314.0625 C 175.164062 317.84375 180.835938 317.84375 180.835938 314.0625 Z M 180.835938 314.0625 "/>
<path style=" stroke:none;fill-rule:nonzero;fill:rgb(0%,0%,0%);fill-opacity:1;" d="M 176.375 322.171875 C 176.4375 321.890625 176.6875 320.890625 177.453125 320.890625 C 177.515625 320.890625 177.765625 320.890625 178 321.03125 C 177.703125 321.078125 177.484375 321.359375 177.484375 321.625 C 177.484375 321.796875 177.59375 322 177.890625 322 C 178.140625 322 178.484375 321.796875 178.484375 321.375 C 178.484375 320.796875 177.84375 320.640625 177.46875 320.640625 C 176.828125 320.640625 176.453125 321.21875 176.328125 321.484375 C 176.046875 320.75 175.453125 320.640625 175.140625 320.640625 C 174.015625 320.640625 173.390625 322.0625 173.390625 322.328125 C 173.390625 322.4375 173.5 322.4375 173.515625 322.4375 C 173.609375 322.4375 173.640625 322.421875 173.65625 322.3125 C 174.03125 321.15625 174.75 320.890625 175.125 320.890625 C 175.328125 320.890625 175.71875 320.984375 175.71875 321.625 C 175.71875 321.953125 175.53125 322.6875 175.125 324.21875 C 174.953125 324.890625 174.5625 325.34375 174.09375 325.34375 C 174.015625 325.34375 173.765625 325.34375 173.546875 325.203125 C 173.8125 325.15625 174.046875 324.921875 174.046875 324.625 C 174.046875 324.328125 173.8125 324.234375 173.65625 324.234375 C 173.328125 324.234375 173.046875 324.515625 173.046875 324.875 C 173.046875 325.375 173.59375 325.59375 174.078125 325.59375 C 174.796875 325.59375 175.1875 324.828125 175.21875 324.765625 C 175.359375 325.15625 175.75 325.59375 176.40625 325.59375 C 177.515625 325.59375 178.140625 324.1875 178.140625 323.90625 C 178.140625 323.796875 178.046875 323.796875 178.015625 323.796875 C 177.921875 323.796875 177.890625 323.84375 177.875 323.921875 C 177.515625 325.09375 176.765625 325.34375 176.421875 325.34375 C 176 325.34375 175.828125 325 175.828125 324.625 C 175.828125 324.390625 175.890625 324.15625 176 323.671875 Z M 176.375 322.171875 "/>
<path style=" stroke:none;fill-rule:nonzero;fill:rgb(0%,0%,0%);fill-opacity:1;" d="M 182.109375 316.355469 C 182.109375 316.199219 182.109375 316.136719 181.9375 316.136719 C 181.84375 316.136719 181.828125 316.136719 181.75 316.246094 L 179.203125 319.949219 L 179.203125 320.199219 L 181.453125 320.199219 L 181.453125 320.871094 C 181.453125 321.167969 181.4375 321.246094 180.8125 321.246094 L 180.640625 321.246094 L 180.640625 321.511719 C 181.3125 321.480469 181.328125 321.480469 181.78125 321.480469 C 182.234375 321.480469 182.25 321.480469 182.921875 321.511719 L 182.921875 321.246094 L 182.75 321.246094 C 182.125 321.246094 182.109375 321.167969 182.109375 320.871094 L 182.109375 320.199219 L 182.953125 320.199219 L 182.953125 319.949219 L 182.109375 319.949219 Z M 181.515625 316.996094 L 181.515625 319.949219 L 179.484375 319.949219 Z M 181.515625 316.996094 "/>
<path style=" stroke:none;fill-rule:evenodd;fill:rgb(20%,20%,70%);fill-opacity:1;" d="M 84.625 274.210938 C 84.625 270.429688 78.953125 270.429688 78.953125 274.210938 C 78.953125 277.992188 84.625 277.992188 84.625 274.210938 Z M 84.625 274.210938 "/>
<path style=" stroke:none;fill-rule:nonzero;fill:rgb(0%,0%,0%);fill-opacity:1;" d="M 75.445312 280.289062 C 75.507812 280.007812 75.757812 279.007812 76.523438 279.007812 C 76.585938 279.007812 76.835938 279.007812 77.070312 279.148438 C 76.773438 279.195312 76.554688 279.476562 76.554688 279.742188 C 76.554688 279.914062 76.664062 280.117188 76.960938 280.117188 C 77.210938 280.117188 77.554688 279.914062 77.554688 279.492188 C 77.554688 278.914062 76.914062 278.757812 76.539062 278.757812 C 75.898438 278.757812 75.523438 279.335938 75.398438 279.601562 C 75.117188 278.867188 74.523438 278.757812 74.210938 278.757812 C 73.085938 278.757812 72.460938 280.179688 72.460938 280.445312 C 72.460938 280.554688 72.570312 280.554688 72.585938 280.554688 C 72.679688 280.554688 72.710938 280.539062 72.726562 280.429688 C 73.101562 279.273438 73.820312 279.007812 74.195312 279.007812 C 74.398438 279.007812 74.789062 279.101562 74.789062 279.742188 C 74.789062 280.070312 74.601562 280.804688 74.195312 282.335938 C 74.023438 283.007812 73.632812 283.460938 73.164062 283.460938 C 73.085938 283.460938 72.835938 283.460938 72.617188 283.320312 C 72.882812 283.273438 73.117188 283.039062 73.117188 282.742188 C 73.117188 282.445312 72.882812 282.351562 72.726562 282.351562 C 72.398438 282.351562 72.117188 282.632812 72.117188 282.992188 C 72.117188 283.492188 72.664062 283.710938 73.148438 283.710938 C 73.867188 283.710938 74.257812 282.945312 74.289062 282.882812 C 74.429688 283.273438 74.820312 283.710938 75.476562 283.710938 C 76.585938 283.710938 77.210938 282.304688 77.210938 282.023438 C 77.210938 281.914062 77.117188 281.914062 77.085938 281.914062 C 76.992188 281.914062 76.960938 281.960938 76.945312 282.039062 C 76.585938 283.210938 75.835938 283.460938 75.492188 283.460938 C 75.070312 283.460938 74.898438 283.117188 74.898438 282.742188 C 74.898438 282.507812 74.960938 282.273438 75.070312 281.789062 Z M 75.445312 280.289062 "/>
<path style=" stroke:none;fill-rule:nonzero;fill:rgb(0%,0%,0%);fill-opacity:1;" d="M 79.152344 275.144531 C 79.261719 275.175781 79.574219 275.269531 79.917969 275.269531 C 80.917969 275.269531 81.511719 274.566406 81.511719 274.441406 C 81.511719 274.347656 81.464844 274.332031 81.417969 274.332031 C 81.402344 274.332031 81.386719 274.332031 81.324219 274.363281 C 81.011719 274.488281 80.636719 274.582031 80.214844 274.582031 C 79.746094 274.582031 79.355469 274.472656 79.105469 274.363281 C 79.027344 274.332031 79.011719 274.332031 78.996094 274.332031 C 78.902344 274.332031 78.902344 274.410156 78.902344 274.566406 L 78.902344 276.894531 C 78.902344 277.035156 78.902344 277.128906 79.027344 277.128906 C 79.089844 277.128906 79.105469 277.097656 79.152344 277.035156 C 79.246094 276.925781 79.542969 276.519531 80.230469 276.519531 C 80.667969 276.519531 80.886719 276.878906 80.964844 277.035156 C 81.089844 277.316406 81.105469 277.691406 81.105469 277.988281 C 81.105469 278.285156 81.105469 278.722656 80.886719 279.066406 C 80.730469 279.316406 80.402344 279.550781 79.980469 279.550781 C 79.464844 279.550781 78.964844 279.238281 78.777344 278.707031 C 78.792969 278.722656 78.855469 278.722656 78.855469 278.722656 C 79.074219 278.722656 79.261719 278.582031 79.261719 278.332031 C 79.261719 278.035156 79.027344 277.925781 78.871094 277.925781 C 78.714844 277.925781 78.464844 278.003906 78.464844 278.347656 C 78.464844 279.066406 79.089844 279.800781 79.996094 279.800781 C 80.996094 279.800781 81.839844 279.019531 81.839844 278.035156 C 81.839844 277.113281 81.167969 276.285156 80.230469 276.285156 C 79.839844 276.285156 79.464844 276.410156 79.152344 276.691406 Z M 79.152344 275.144531 "/>
<path style=" stroke:none;fill-rule:evenodd;fill:rgb(20%,20%,70%);fill-opacity:1;" d="M 44.773438 178 C 44.773438 174.21875 39.101562 174.21875 39.101562 178 C 39.101562 181.78125 44.773438 181.78125 44.773438 178 Z M 44.773438 178 "/>
<path style=" stroke:none;fill-rule:nonzero;fill:rgb(0%,0%,0%);fill-opacity:1;" d="M 33.5625 179.269531 C 33.625 178.988281 33.875 177.988281 34.640625 177.988281 C 34.703125 177.988281 34.953125 177.988281 35.1875 178.128906 C 34.890625 178.175781 34.671875 178.457031 34.671875 178.722656 C 34.671875 178.894531 34.78125 179.097656 35.078125 179.097656 C 35.328125 179.097656 35.671875 178.894531 35.671875 178.472656 C 35.671875 177.894531 35.03125 177.738281 34.65625 177.738281 C 34.015625 177.738281 33.640625 178.316406 33.515625 178.582031 C 33.234375 177.847656 32.640625 177.738281 32.328125 177.738281 C 31.203125 177.738281 30.578125 179.160156 30.578125 179.425781 C 30.578125 179.535156 30.6875 179.535156 30.703125 179.535156 C 30.796875 179.535156 30.828125 179.519531 30.84375 179.410156 C 31.21875 178.253906 31.9375 177.988281 32.3125 177.988281 C 32.515625 177.988281 32.90625 178.082031 32.90625 178.722656 C 32.90625 179.050781 32.71875 179.785156 32.3125 181.316406 C 32.140625 181.988281 31.75 182.441406 31.28125 182.441406 C 31.203125 182.441406 30.953125 182.441406 30.734375 182.300781 C 31 182.253906 31.234375 182.019531 31.234375 181.722656 C 31.234375 181.425781 31 181.332031 30.84375 181.332031 C 30.515625 181.332031 30.234375 181.613281 30.234375 181.972656 C 30.234375 182.472656 30.78125 182.691406 31.265625 182.691406 C 31.984375 182.691406 32.375 181.925781 32.40625 181.863281 C 32.546875 182.253906 32.9375 182.691406 33.59375 182.691406 C 34.703125 182.691406 35.328125 181.285156 35.328125 181.003906 C 35.328125 180.894531 35.234375 180.894531 35.203125 180.894531 C 35.109375 180.894531 35.078125 180.941406 35.0625 181.019531 C 34.703125 182.191406 33.953125 182.441406 33.609375 182.441406 C 33.1875 182.441406 33.015625 182.097656 33.015625 181.722656 C 33.015625 181.488281 33.078125 181.253906 33.1875 180.769531 Z M 33.5625 179.269531 "/>
<path style=" stroke:none;fill-rule:nonzero;fill:rgb(0%,0%,0%);fill-opacity:1;" d="M 37.25 175.964844 C 37.25 175.308594 37.3125 174.730469 37.59375 174.246094 C 37.84375 173.839844 38.25 173.511719 38.75 173.511719 C 38.90625 173.511719 39.265625 173.542969 39.453125 173.808594 C 39.09375 173.839844 39.0625 174.105469 39.0625 174.183594 C 39.0625 174.433594 39.25 174.558594 39.4375 174.558594 C 39.578125 174.558594 39.8125 174.480469 39.8125 174.167969 C 39.8125 173.699219 39.453125 173.308594 38.734375 173.308594 C 37.625 173.308594 36.5 174.355469 36.5 176.074219 C 36.5 178.246094 37.515625 178.777344 38.28125 178.777344 C 38.671875 178.777344 39.078125 178.667969 39.4375 178.324219 C 39.765625 178.011719 40.03125 177.683594 40.03125 176.980469 C 40.03125 175.949219 39.234375 175.214844 38.359375 175.214844 C 37.78125 175.214844 37.4375 175.574219 37.25 175.964844 Z M 38.28125 178.527344 C 37.859375 178.527344 37.59375 178.246094 37.484375 178.011719 C 37.296875 177.652344 37.28125 177.121094 37.28125 176.808594 C 37.28125 176.027344 37.703125 175.433594 38.328125 175.433594 C 38.71875 175.433594 38.96875 175.636719 39.109375 175.917969 C 39.28125 176.214844 39.28125 176.574219 39.28125 176.980469 C 39.28125 177.386719 39.28125 177.730469 39.125 178.027344 C 38.90625 178.386719 38.640625 178.527344 38.28125 178.527344 Z M 38.28125 178.527344 "/>
<path style=" stroke:none;fill-rule:evenodd;fill:rgb(20%,20%,70%);fill-opacity:1;" d="M 84.625 81.789062 C 84.625 78.007812 78.953125 78.007812 78.953125 81.789062 C 78.953125 85.570312 84.625 85.570312 84.625 81.789062 Z M 84.625 81.789062 "/>
<path style=" stroke:none;fill-rule:nonzero;fill:rgb(0%,0%,0%);fill-opacity:1;" d="M 75.289062 78.292969 C 75.351562 78.011719 75.601562 77.011719 76.367188 77.011719 C 76.429688 77.011719 76.679688 77.011719 76.914062 77.152344 C 76.617188 77.199219 76.398438 77.480469 76.398438 77.746094 C 76.398438 77.917969 76.507812 78.121094 76.804688 78.121094 C 77.054688 78.121094 77.398438 77.917969 77.398438 77.496094 C 77.398438 76.917969 76.757812 76.761719 76.382812 76.761719 C 75.742188 76.761719 75.367188 77.339844 75.242188 77.605469 C 74.960938 76.871094 74.367188 76.761719 74.054688 76.761719 C 72.929688 76.761719 72.304688 78.183594 72.304688 78.449219 C 72.304688 78.558594 72.414062 78.558594 72.429688 78.558594 C 72.523438 78.558594 72.554688 78.542969 72.570312 78.433594 C 72.945312 77.277344 73.664062 77.011719 74.039062 77.011719 C 74.242188 77.011719 74.632812 77.105469 74.632812 77.746094 C 74.632812 78.074219 74.445312 78.808594 74.039062 80.339844 C 73.867188 81.011719 73.476562 81.464844 73.007812 81.464844 C 72.929688 81.464844 72.679688 81.464844 72.460938 81.324219 C 72.726562 81.277344 72.960938 81.042969 72.960938 80.746094 C 72.960938 80.449219 72.726562 80.355469 72.570312 80.355469 C 72.242188 80.355469 71.960938 80.636719 71.960938 80.996094 C 71.960938 81.496094 72.507812 81.714844 72.992188 81.714844 C 73.710938 81.714844 74.101562 80.949219 74.132812 80.886719 C 74.273438 81.277344 74.664062 81.714844 75.320312 81.714844 C 76.429688 81.714844 77.054688 80.308594 77.054688 80.027344 C 77.054688 79.917969 76.960938 79.917969 76.929688 79.917969 C 76.835938 79.917969 76.804688 79.964844 76.789062 80.042969 C 76.429688 81.214844 75.679688 81.464844 75.335938 81.464844 C 74.914062 81.464844 74.742188 81.121094 74.742188 80.746094 C 74.742188 80.511719 74.804688 80.277344 74.914062 79.792969 Z M 75.289062 78.292969 "/>
<path style=" stroke:none;fill-rule:nonzero;fill:rgb(0%,0%,0%);fill-opacity:1;" d="M 81.917969 72.773438 C 81.996094 72.695312 81.996094 72.679688 81.996094 72.507812 L 79.964844 72.507812 C 79.761719 72.507812 79.527344 72.492188 79.324219 72.476562 C 78.902344 72.445312 78.902344 72.367188 78.871094 72.242188 L 78.621094 72.242188 L 78.355469 73.929688 L 78.605469 73.929688 C 78.621094 73.804688 78.714844 73.257812 78.824219 73.195312 C 78.902344 73.148438 79.511719 73.148438 79.621094 73.148438 L 81.308594 73.148438 L 80.496094 74.257812 C 79.589844 75.460938 79.386719 76.726562 79.386719 77.351562 C 79.386719 77.429688 79.386719 77.804688 79.761719 77.804688 C 80.136719 77.804688 80.136719 77.445312 80.136719 77.351562 L 80.136719 76.960938 C 80.136719 75.820312 80.339844 74.882812 80.730469 74.351562 Z M 81.917969 72.773438 "/>
<path style="fill:none;stroke-width:2.267717;stroke-linecap:butt;stroke-linejoin:miter;stroke:rgb(20%,20%,70%);stroke-opacity:0.5;stroke-miterlimit:10;" d="M 0 -136.0625 L 0 -136.0625 " transform="matrix(1,0,0,1,178,178)"/>
<path style="fill:none;stroke-width:2.267717;stroke-linecap:butt;stroke-linejoin:miter;stroke:rgb(20%,20%,70%);stroke-opacity:0.5;stroke-miterlimit:10;" d="M 96.210938 -96.210938 L 96.210938 96.210938 " transform="matrix(1,0,0,1,178,178)"/>
<path style="fill:none;stroke-width:2.267717;stroke-linecap:butt;stroke-linejoin:miter;stroke:rgb(20%,20%,70%);stroke-opacity:0.5;stroke-miterlimit:10;" d="M 136.0625 0 L -136.0625 0 " transform="matrix(1,0,0,1,178,178)"/>
<path style="fill:none;stroke-width:2.267717;stroke-linecap:butt;stroke-linejoin:miter;stroke:rgb(20%,20%,70%);stroke-opacity:0.5;stroke-miterlimit:10;" d="M 96.210938 96.210938 L 96.210938 -96.210938 " transform="matrix(1,0,0,1,178,178)"/>
<path style="fill:none;stroke-width:2.267717;stroke-linecap:butt;stroke-linejoin:miter;stroke:rgb(20%,20%,70%);stroke-opacity:0.5;stroke-miterlimit:10;" d="M 0 136.0625 L 0 136.0625 " transform="matrix(1,0,0,1,178,178)"/>
<path style="fill:none;stroke-width:2.267717;stroke-linecap:butt;stroke-linejoin:miter;stroke:rgb(20%,20%,70%);stroke-opacity:0.5;stroke-miterlimit:10;" d="M -96.210938 96.210938 L -96.210938 -96.210938 " transform="matrix(1,0,0,1,178,178)"/>
<path style="fill:none;stroke-width:2.267717;stroke-linecap:butt;stroke-linejoin:miter;stroke:rgb(20%,20%,70%);stroke-opacity:0.5;stroke-miterlimit:10;" d="M -136.0625 0 L 136.0625 0 " transform="matrix(1,0,0,1,178,178)"/>
<path style="fill:none;stroke-width:2.267717;stroke-linecap:butt;stroke-linejoin:miter;stroke:rgb(20%,20%,70%);stroke-opacity:0.5;stroke-miterlimit:10;" d="M -96.210938 -96.210938 L -96.210938 96.210938 " transform="matrix(1,0,0,1,178,178)"/>
</g>
</svg>
