<?xml version="1.0" encoding="UTF-8"?>
<svg xmlns="http://www.w3.org/2000/svg" xmlns:xlink="http://www.w3.org/1999/xlink" width="238pt" height="238pt" viewBox="0 0 238 238" version="1.1">
<g id="surface12">
<path style="fill:none;stroke-width:0.566929;stroke-linecap:butt;stroke-linejoin:miter;stroke:rgb(100%,100%,100%);stroke-opacity:1;stroke-miterlimit:10;" d="M 117.921875 0 C 117.921875 -65.125 65.125 -117.921875 0 -117.921875 C -65.125 -117.921875 -117.921875 -65.125 -117.921875 0 C -117.921875 65.125 -65.125 117.921875 0 117.921875 C 65.125 117.921875 117.921875 65.125 117.921875 0 Z M 117.921875 0 " transform="matrix(1,0,0,1,119,119)"/>
<path style=" stroke:none;fill-rule:evenodd;fill:rgb(20%,20%,70%);fill-opacity:1;" d="M 121.835938 28.292969 C 121.835938 24.511719 116.164062 24.511719 116.164062 28.292969 C 116.164062 32.070312 121.835938 32.070312 121.835938 28.292969 Z M 121.835938 28.292969 "/>
<path style=" stroke:none;fill-rule:nonzero;fill:rgb(0%,0%,0%);fill-opacity:1;" d="M 117.421875 25.023438 C 117.484375 24.742188 117.734375 23.742188 118.5 23.742188 C 118.5625 23.742188 118.8125 23.742188 119.046875 23.882812 C 118.75 23.929688 118.53125 24.210938 118.53125 24.476562 C 118.53125 24.648438 118.640625 24.851562 118.9375 24.851562 C 119.1875 24.851562 119.53125 24.648438 119.53125 24.226562 C 119.53125 23.648438 118.890625 23.492188 118.515625 23.492188 C 117.875 23.492188 117.5 24.070312 117.375 24.335938 C 117.09375 23.601562 116.5 23.492188 116.1875 23.492188 C 115.0625 23.492188 114.4375 24.914062 114.4375 25.179688 C 114.4375 25.289062 114.546875 25.289062 114.5625 25.289062 C 114.65625 25.289062 114.6875 25.273438 114.703125 25.164062 C 115.078125 24.007812 115.796875 23.742188 116.171875 23.742188 C 116.375 23.742188 116.765625 23.835938 116.765625 24.476562 C 116.765625 24.804688 116.578125 25.539062 116.171875 27.070312 C 116 27.742188 115.609375 28.195312 115.140625 28.195312 C 115.0625 28.195312 114.8125 28.195312 114.59375 28.054688 C 114.859375 28.007812 115.09375 27.773438 115.09375 27.476562 C 115.09375 27.179688 114.859375 27.085938 114.703125 27.085938 C 114.375 27.085938 114.09375 27.367188 114.09375 27.726562 C 114.09375 28.226562 114.640625 28.445312 115.125 28.445312 C 115.84375 28.445312 116.234375 27.679688 116.265625 27.617188 C 116.40625 28.007812 116.796875 28.445312 117.453125 28.445312 C 118.5625 28.445312 119.1875 27.039062 119.1875 26.757812 C 119.1875 26.648438 119.09375 26.648438 119.0625 26.648438 C 118.96875 26.648438 118.9375 26.695312 118.921875 26.773438 C 118.5625 27.945312 117.8125 28.195312 117.46875 28.195312 C 117.046875 28.195312 116.875 27.851562 116.875 27.476562 C 116.875 27.242188 116.9375 27.007812 117.046875 26.523438 Z M 117.421875 25.023438 "/>
<path style=" stroke:none;fill-rule:nonzero;fill:rgb(0%,0%,0%);fill-opacity:1;" d="M 123.90625 21.816406 C 123.90625 20.972656 123.828125 20.457031 123.5625 19.941406 C 123.21875 19.238281 122.5625 19.066406 122.125 19.066406 C 121.125 19.066406 120.75 19.816406 120.640625 20.035156 C 120.359375 20.613281 120.34375 21.410156 120.34375 21.816406 C 120.34375 22.347656 120.359375 23.144531 120.75 23.785156 C 121.109375 24.378906 121.703125 24.535156 122.125 24.535156 C 122.515625 24.535156 123.1875 24.410156 123.59375 23.628906 C 123.890625 23.050781 123.90625 22.332031 123.90625 21.816406 Z M 122.125 24.300781 C 121.859375 24.300781 121.3125 24.175781 121.140625 23.347656 C 121.046875 22.894531 121.046875 22.144531 121.046875 21.722656 C 121.046875 21.175781 121.046875 20.613281 121.140625 20.175781 C 121.3125 19.363281 121.921875 19.285156 122.125 19.285156 C 122.390625 19.285156 122.953125 19.425781 123.109375 20.144531 C 123.203125 20.582031 123.203125 21.191406 123.203125 21.722656 C 123.203125 22.191406 123.203125 22.910156 123.109375 23.363281 C 122.9375 24.191406 122.390625 24.300781 122.125 24.300781 Z M 122.125 24.300781 "/>
<path style=" stroke:none;fill-rule:evenodd;fill:rgb(20%,20%,70%);fill-opacity:1;" d="M 200.390625 164.355469 C 200.390625 160.574219 194.722656 160.574219 194.722656 164.355469 C 194.722656 168.132812 200.390625 168.132812 200.390625 164.355469 Z M 200.390625 164.355469 "/>
<path style=" stroke:none;fill-rule:nonzero;fill:rgb(0%,0%,0%);fill-opacity:1;" d="M 200.070312 167.890625 C 200.132812 167.609375 200.382812 166.609375 201.148438 166.609375 C 201.210938 166.609375 201.460938 166.609375 201.695312 166.75 C 201.398438 166.796875 201.179688 167.078125 201.179688 167.34375 C 201.179688 167.515625 201.289062 167.71875 201.585938 167.71875 C 201.835938 167.71875 202.179688 167.515625 202.179688 167.09375 C 202.179688 166.515625 201.539062 166.359375 201.164062 166.359375 C 200.523438 166.359375 200.148438 166.9375 200.023438 167.203125 C 199.742188 166.46875 199.148438 166.359375 198.835938 166.359375 C 197.710938 166.359375 197.085938 167.78125 197.085938 168.046875 C 197.085938 168.15625 197.195312 168.15625 197.210938 168.15625 C 197.304688 168.15625 197.335938 168.140625 197.351562 168.03125 C 197.726562 166.875 198.445312 166.609375 198.820312 166.609375 C 199.023438 166.609375 199.414062 166.703125 199.414062 167.34375 C 199.414062 167.671875 199.226562 168.40625 198.820312 169.9375 C 198.648438 170.609375 198.257812 171.0625 197.789062 171.0625 C 197.710938 171.0625 197.460938 171.0625 197.242188 170.921875 C 197.507812 170.875 197.742188 170.640625 197.742188 170.34375 C 197.742188 170.046875 197.507812 169.953125 197.351562 169.953125 C 197.023438 169.953125 196.742188 170.234375 196.742188 170.59375 C 196.742188 171.09375 197.289062 171.3125 197.773438 171.3125 C 198.492188 171.3125 198.882812 170.546875 198.914062 170.484375 C 199.054688 170.875 199.445312 171.3125 200.101562 171.3125 C 201.210938 171.3125 201.835938 169.90625 201.835938 169.625 C 201.835938 169.515625 201.742188 169.515625 201.710938 169.515625 C 201.617188 169.515625 201.585938 169.5625 201.570312 169.640625 C 201.210938 170.8125 200.460938 171.0625 200.117188 171.0625 C 199.695312 171.0625 199.523438 170.71875 199.523438 170.34375 C 199.523438 170.109375 199.585938 169.875 199.695312 169.390625 Z M 200.070312 167.890625 "/>
<path style=" stroke:none;fill-rule:nonzero;fill:rgb(0%,0%,0%);fill-opacity:1;" d="M 205.164062 162.148438 C 205.164062 161.929688 205.148438 161.929688 204.929688 161.929688 C 204.601562 162.242188 204.179688 162.429688 203.429688 162.429688 L 203.429688 162.695312 C 203.648438 162.695312 204.070312 162.695312 204.539062 162.492188 L 204.539062 166.570312 C 204.539062 166.867188 204.507812 166.960938 203.757812 166.960938 L 203.476562 166.960938 L 203.476562 167.226562 C 203.804688 167.195312 204.492188 167.195312 204.851562 167.195312 C 205.210938 167.195312 205.898438 167.195312 206.226562 167.226562 L 206.226562 166.960938 L 205.945312 166.960938 C 205.195312 166.960938 205.164062 166.867188 205.164062 166.570312 Z M 205.164062 162.148438 "/>
<path style=" stroke:none;fill-rule:evenodd;fill:rgb(20%,20%,70%);fill-opacity:1;" d="M 43.277344 164.355469 C 43.277344 160.574219 37.609375 160.574219 37.609375 164.355469 C 37.609375 168.132812 43.277344 168.132812 43.277344 164.355469 Z M 43.277344 164.355469 "/>
<path style=" stroke:none;fill-rule:nonzero;fill:rgb(0%,0%,0%);fill-opacity:1;" d="M 34.984375 167.890625 C 35.046875 167.609375 35.296875 166.609375 36.0625 166.609375 C 36.125 166.609375 36.375 166.609375 36.609375 166.75 C 36.3125 166.796875 36.09375 167.078125 36.09375 167.34375 C 36.09375 167.515625 36.203125 167.71875 36.5 167.71875 C 36.75 167.71875 37.09375 167.515625 37.09375 167.09375 C 37.09375 166.515625 36.453125 166.359375 36.078125 166.359375 C 35.4375 166.359375 35.0625 166.9375 34.9375 167.203125 C 34.65625 166.46875 34.0625 166.359375 33.75 166.359375 C 32.625 166.359375 32 167.78125 32 168.046875 C 32 168.15625 32.109375 168.15625 32.125 168.15625 C 32.21875 168.15625 32.25 168.140625 32.265625 168.03125 C 32.640625 166.875 33.359375 166.609375 33.734375 166.609375 C 33.9375 166.609375 34.328125 166.703125 34.328125 167.34375 C 34.328125 167.671875 34.140625 168.40625 33.734375 169.9375 C 33.5625 170.609375 33.171875 171.0625 32.703125 171.0625 C 32.625 171.0625 32.375 171.0625 32.15625 170.921875 C 32.421875 170.875 32.65625 170.640625 32.65625 170.34375 C 32.65625 170.046875 32.421875 169.953125 32.265625 169.953125 C 31.9375 169.953125 31.65625 170.234375 31.65625 170.59375 C 31.65625 171.09375 32.203125 171.3125 32.6875 171.3125 C 33.40625 171.3125 33.796875 170.546875 33.828125 170.484375 C 33.96875 170.875 34.359375 171.3125 35.015625 171.3125 C 36.125 171.3125 36.75 169.90625 36.75 169.625 C 36.75 169.515625 36.65625 169.515625 36.625 169.515625 C 36.53125 169.515625 36.5 169.5625 36.484375 169.640625 C 36.125 170.8125 35.375 171.0625 35.03125 171.0625 C 34.609375 171.0625 34.4375 170.71875 34.4375 170.34375 C 34.4375 170.109375 34.5 169.875 34.609375 169.390625 Z M 34.984375 167.890625 "/>
<path style=" stroke:none;fill-rule:nonzero;fill:rgb(0%,0%,0%);fill-opacity:1;" d="M 39.828125 165.601562 C 39.953125 165.476562 40.28125 165.210938 40.421875 165.101562 C 40.90625 164.648438 41.375 164.210938 41.375 163.492188 C 41.375 162.539062 40.578125 161.929688 39.59375 161.929688 C 38.625 161.929688 38 162.648438 38 163.367188 C 38 163.757812 38.3125 163.804688 38.421875 163.804688 C 38.59375 163.804688 38.84375 163.695312 38.84375 163.382812 C 38.84375 162.976562 38.4375 162.976562 38.34375 162.976562 C 38.578125 162.382812 39.109375 162.195312 39.5 162.195312 C 40.234375 162.195312 40.625 162.820312 40.625 163.492188 C 40.625 164.320312 40.046875 164.929688 39.09375 165.882812 L 38.09375 166.929688 C 38 167.007812 38 167.023438 38 167.226562 L 41.140625 167.226562 L 41.375 165.804688 L 41.125 165.804688 C 41.109375 165.960938 41.046875 166.351562 40.953125 166.507812 C 40.90625 166.570312 40.296875 166.570312 40.171875 166.570312 L 38.75 166.570312 Z M 39.828125 165.601562 "/>
<path style="fill:none;stroke-width:2.267717;stroke-linecap:butt;stroke-linejoin:miter;stroke:rgb(20%,20%,70%);stroke-opacity:0.5;stroke-miterlimit:10;" d="M 0 -90.707031 L 0 -90.707031 " transform="matrix(1,0,0,1,119,119)"/>
<path style="fill:none;stroke-width:2.267717;stroke-linecap:butt;stroke-linejoin:miter;stroke:rgb(20%,20%,70%);stroke-opacity:0.5;stroke-miterlimit:10;" d="M 78.554688 45.355469 L -78.554688 45.355469 " transform="matrix(1,0,0,1,119,119)"/>
<path style="fill:none;stroke-width:2.267717;stroke-linecap:butt;stroke-linejoin:miter;stroke:rgb(20%,20%,70%);stroke-opacity:0.5;stroke-miterlimit:10;" d="M -78.554688 45.355469 L 78.554688 45.355469 " transform="matrix(1,0,0,1,119,119)"/>
</g>
</svg>
