<?xml version="1.0" encoding="UTF-8"?>
<svg xmlns="http://www.w3.org/2000/svg" xmlns:xlink="http://www.w3.org/1999/xlink" width="1146pt" height="1146pt" viewBox="0 0 1146 1146" version="1.1">
<g id="surface172">
<path style="fill:none;stroke-width:0.566929;stroke-linecap:butt;stroke-linejoin:miter;stroke:rgb(100%,100%,100%);stroke-opacity:1;stroke-miterlimit:10;" d="M 571.179688 0 C 571.179688 -204.0625 462.316406 -392.625 285.589844 -494.65625 C 108.867188 -596.6875 -108.867188 -596.6875 -285.589844 -494.65625 C -462.316406 -392.625 -571.179688 -204.0625 -571.179688 0 C -571.179688 204.0625 -462.316406 392.625 -285.589844 494.65625 C -108.867188 596.6875 108.867188 596.6875 285.589844 494.65625 C 462.316406 392.625 571.179688 204.0625 571.179688 0 Z M 571.179688 0 " transform="matrix(1,0,0,1,573,573)"/>
<path style=" stroke:none;fill-rule:evenodd;fill:rgb(20%,20%,70%);fill-opacity:1;" d="M 575.835938 133.628906 C 575.835938 129.851562 570.164062 129.851562 570.164062 133.628906 C 570.164062 137.410156 575.835938 137.410156 575.835938 133.628906 Z M 575.835938 133.628906 "/>
<path style=" stroke:none;fill-rule:evenodd;fill:rgb(20%,20%,70%);fill-opacity:1;" d="M 598.089844 134.195312 C 598.089844 130.414062 592.417969 130.414062 592.417969 134.195312 C 592.417969 137.972656 598.089844 137.972656 598.089844 134.195312 Z M 598.089844 134.195312 "/>
<path style=" stroke:none;fill-rule:evenodd;fill:rgb(20%,20%,70%);fill-opacity:1;" d="M 620.285156 135.882812 C 620.285156 132.105469 614.617188 132.105469 614.617188 135.882812 C 614.617188 139.664062 620.285156 139.664062 620.285156 135.882812 Z M 620.285156 135.882812 "/>
<path style=" stroke:none;fill-rule:evenodd;fill:rgb(20%,20%,70%);fill-opacity:1;" d="M 642.367188 138.695312 C 642.367188 134.917969 636.699219 134.917969 636.699219 138.695312 C 636.699219 142.476562 642.367188 142.476562 642.367188 138.695312 Z M 642.367188 138.695312 "/>
<path style=" stroke:none;fill-rule:evenodd;fill:rgb(20%,20%,70%);fill-opacity:1;" d="M 664.277344 142.625 C 664.277344 138.84375 658.609375 138.84375 658.609375 142.625 C 658.609375 146.402344 664.277344 146.402344 664.277344 142.625 Z M 664.277344 142.625 "/>
<path style=" stroke:none;fill-rule:evenodd;fill:rgb(20%,20%,70%);fill-opacity:1;" d="M 685.964844 147.65625 C 685.964844 143.875 680.292969 143.875 680.292969 147.65625 C 680.292969 151.433594 685.964844 151.433594 685.964844 147.65625 Z M 685.964844 147.65625 "/>
<path style=" stroke:none;fill-rule:evenodd;fill:rgb(20%,20%,70%);fill-opacity:1;" d="M 707.367188 153.78125 C 707.367188 150 701.695312 150 701.695312 153.78125 C 701.695312 157.558594 707.367188 157.558594 707.367188 153.78125 Z M 707.367188 153.78125 "/>
<path style=" stroke:none;fill-rule:evenodd;fill:rgb(20%,20%,70%);fill-opacity:1;" d="M 728.429688 160.980469 C 728.429688 157.199219 722.761719 157.199219 722.761719 160.980469 C 722.761719 164.757812 728.429688 164.757812 728.429688 160.980469 Z M 728.429688 160.980469 "/>
<path style=" stroke:none;fill-rule:evenodd;fill:rgb(20%,20%,70%);fill-opacity:1;" d="M 749.101562 169.238281 C 749.101562 165.457031 743.433594 165.457031 743.433594 169.238281 C 743.433594 173.015625 749.101562 173.015625 749.101562 169.238281 Z M 749.101562 169.238281 "/>
<path style=" stroke:none;fill-rule:evenodd;fill:rgb(20%,20%,70%);fill-opacity:1;" d="M 769.332031 178.53125 C 769.332031 174.753906 763.660156 174.753906 763.660156 178.53125 C 763.660156 182.3125 769.332031 182.3125 769.332031 178.53125 Z M 769.332031 178.53125 "/>
<path style=" stroke:none;fill-rule:evenodd;fill:rgb(20%,20%,70%);fill-opacity:1;" d="M 789.0625 188.839844 C 789.0625 185.058594 783.390625 185.058594 783.390625 188.839844 C 783.390625 192.617188 789.0625 192.617188 789.0625 188.839844 Z M 789.0625 188.839844 "/>
<path style=" stroke:none;fill-rule:evenodd;fill:rgb(20%,20%,70%);fill-opacity:1;" d="M 808.246094 200.132812 C 808.246094 196.351562 802.578125 196.351562 802.578125 200.132812 C 802.578125 203.910156 808.246094 203.910156 808.246094 200.132812 Z M 808.246094 200.132812 "/>
<path style=" stroke:none;fill-rule:evenodd;fill:rgb(20%,20%,70%);fill-opacity:1;" d="M 826.832031 212.382812 C 826.832031 208.601562 821.164062 208.601562 821.164062 212.382812 C 821.164062 216.160156 826.832031 216.160156 826.832031 212.382812 Z M 826.832031 212.382812 "/>
<path style=" stroke:none;fill-rule:evenodd;fill:rgb(20%,20%,70%);fill-opacity:1;" d="M 844.777344 225.558594 C 844.777344 221.777344 839.105469 221.777344 839.105469 225.558594 C 839.105469 229.335938 844.777344 229.335938 844.777344 225.558594 Z M 844.777344 225.558594 "/>
<path style=" stroke:none;fill-rule:evenodd;fill:rgb(20%,20%,70%);fill-opacity:1;" d="M 862.027344 239.625 C 862.027344 235.84375 856.359375 235.84375 856.359375 239.625 C 856.359375 243.402344 862.027344 243.402344 862.027344 239.625 Z M 862.027344 239.625 "/>
<path style=" stroke:none;fill-rule:evenodd;fill:rgb(20%,20%,70%);fill-opacity:1;" d="M 878.546875 254.546875 C 878.546875 250.769531 872.875 250.769531 872.875 254.546875 C 872.875 258.328125 878.546875 258.328125 878.546875 254.546875 Z M 878.546875 254.546875 "/>
<path style=" stroke:none;fill-rule:evenodd;fill:rgb(20%,20%,70%);fill-opacity:1;" d="M 894.285156 270.289062 C 894.285156 266.507812 888.617188 266.507812 888.617188 270.289062 C 888.617188 274.066406 894.285156 274.066406 894.285156 270.289062 Z M 894.285156 270.289062 "/>
<path style=" stroke:none;fill-rule:evenodd;fill:rgb(20%,20%,70%);fill-opacity:1;" d="M 909.210938 286.804688 C 909.210938 283.027344 903.539062 283.027344 903.539062 286.804688 C 903.539062 290.585938 909.210938 290.585938 909.210938 286.804688 Z M 909.210938 286.804688 "/>
<path style=" stroke:none;fill-rule:evenodd;fill:rgb(20%,20%,70%);fill-opacity:1;" d="M 923.277344 304.058594 C 923.277344 300.28125 917.609375 300.28125 917.609375 304.058594 C 917.609375 307.839844 923.277344 307.839844 923.277344 304.058594 Z M 923.277344 304.058594 "/>
<path style=" stroke:none;fill-rule:evenodd;fill:rgb(20%,20%,70%);fill-opacity:1;" d="M 936.453125 322 C 936.453125 318.222656 930.785156 318.222656 930.785156 322 C 930.785156 325.78125 936.453125 325.78125 936.453125 322 Z M 936.453125 322 "/>
<path style=" stroke:none;fill-rule:evenodd;fill:rgb(20%,20%,70%);fill-opacity:1;" d="M 948.703125 340.589844 C 948.703125 336.808594 943.035156 336.808594 943.035156 340.589844 C 943.035156 344.367188 948.703125 344.367188 948.703125 340.589844 Z M 948.703125 340.589844 "/>
<path style=" stroke:none;fill-rule:evenodd;fill:rgb(20%,20%,70%);fill-opacity:1;" d="M 959.996094 359.773438 C 959.996094 355.992188 954.328125 355.992188 954.328125 359.773438 C 954.328125 363.550781 959.996094 363.550781 959.996094 359.773438 Z M 959.996094 359.773438 "/>
<path style=" stroke:none;fill-rule:evenodd;fill:rgb(20%,20%,70%);fill-opacity:1;" d="M 970.304688 379.503906 C 970.304688 375.722656 964.632812 375.722656 964.632812 379.503906 C 964.632812 383.285156 970.304688 383.285156 970.304688 379.503906 Z M 970.304688 379.503906 "/>
<path style=" stroke:none;fill-rule:evenodd;fill:rgb(20%,20%,70%);fill-opacity:1;" d="M 979.597656 399.730469 C 979.597656 395.953125 973.929688 395.953125 973.929688 399.730469 C 973.929688 403.511719 979.597656 403.511719 979.597656 399.730469 Z M 979.597656 399.730469 "/>
<path style=" stroke:none;fill-rule:evenodd;fill:rgb(20%,20%,70%);fill-opacity:1;" d="M 987.855469 420.40625 C 987.855469 416.625 982.1875 416.625 982.1875 420.40625 C 982.1875 424.183594 987.855469 424.183594 987.855469 420.40625 Z M 987.855469 420.40625 "/>
<path style=" stroke:none;fill-rule:evenodd;fill:rgb(20%,20%,70%);fill-opacity:1;" d="M 995.054688 441.46875 C 995.054688 437.6875 989.386719 437.6875 989.386719 441.46875 C 989.386719 445.25 995.054688 445.25 995.054688 441.46875 Z M 995.054688 441.46875 "/>
<path style=" stroke:none;fill-rule:evenodd;fill:rgb(20%,20%,70%);fill-opacity:1;" d="M 1001.179688 462.871094 C 1001.179688 459.089844 995.507812 459.089844 995.507812 462.871094 C 995.507812 466.648438 1001.179688 466.648438 1001.179688 462.871094 Z M 1001.179688 462.871094 "/>
<path style=" stroke:none;fill-rule:evenodd;fill:rgb(20%,20%,70%);fill-opacity:1;" d="M 1006.210938 484.554688 C 1006.210938 480.777344 1000.542969 480.777344 1000.542969 484.554688 C 1000.542969 488.335938 1006.210938 488.335938 1006.210938 484.554688 Z M 1006.210938 484.554688 "/>
<path style=" stroke:none;fill-rule:evenodd;fill:rgb(20%,20%,70%);fill-opacity:1;" d="M 1010.136719 506.46875 C 1010.136719 502.6875 1004.46875 502.6875 1004.46875 506.46875 C 1004.46875 510.246094 1010.136719 510.246094 1010.136719 506.46875 Z M 1010.136719 506.46875 "/>
<path style=" stroke:none;fill-rule:evenodd;fill:rgb(20%,20%,70%);fill-opacity:1;" d="M 1012.949219 528.550781 C 1012.949219 524.769531 1007.28125 524.769531 1007.28125 528.550781 C 1007.28125 532.328125 1012.949219 532.328125 1012.949219 528.550781 Z M 1012.949219 528.550781 "/>
<path style=" stroke:none;fill-rule:evenodd;fill:rgb(20%,20%,70%);fill-opacity:1;" d="M 1014.640625 550.746094 C 1014.640625 546.964844 1008.972656 546.964844 1008.972656 550.746094 C 1008.972656 554.527344 1014.640625 554.527344 1014.640625 550.746094 Z M 1014.640625 550.746094 "/>
<path style=" stroke:none;fill-rule:evenodd;fill:rgb(20%,20%,70%);fill-opacity:1;" d="M 1015.203125 573 C 1015.203125 569.21875 1009.535156 569.21875 1009.535156 573 C 1009.535156 576.78125 1015.203125 576.78125 1015.203125 573 Z M 1015.203125 573 "/>
<path style=" stroke:none;fill-rule:evenodd;fill:rgb(20%,20%,70%);fill-opacity:1;" d="M 1014.640625 595.253906 C 1014.640625 591.472656 1008.972656 591.472656 1008.972656 595.253906 C 1008.972656 599.035156 1014.640625 599.035156 1014.640625 595.253906 Z M 1014.640625 595.253906 "/>
<path style=" stroke:none;fill-rule:evenodd;fill:rgb(20%,20%,70%);fill-opacity:1;" d="M 1012.949219 617.449219 C 1012.949219 613.671875 1007.28125 613.671875 1007.28125 617.449219 C 1007.28125 621.230469 1012.949219 621.230469 1012.949219 617.449219 Z M 1012.949219 617.449219 "/>
<path style=" stroke:none;fill-rule:evenodd;fill:rgb(20%,20%,70%);fill-opacity:1;" d="M 1010.136719 639.53125 C 1010.136719 635.753906 1004.46875 635.753906 1004.46875 639.53125 C 1004.46875 643.3125 1010.136719 643.3125 1010.136719 639.53125 Z M 1010.136719 639.53125 "/>
<path style=" stroke:none;fill-rule:evenodd;fill:rgb(20%,20%,70%);fill-opacity:1;" d="M 1006.210938 661.445312 C 1006.210938 657.664062 1000.542969 657.664062 1000.542969 661.445312 C 1000.542969 665.222656 1006.210938 665.222656 1006.210938 661.445312 Z M 1006.210938 661.445312 "/>
<path style=" stroke:none;fill-rule:evenodd;fill:rgb(20%,20%,70%);fill-opacity:1;" d="M 1001.179688 683.128906 C 1001.179688 679.351562 995.507812 679.351562 995.507812 683.128906 C 995.507812 686.910156 1001.179688 686.910156 1001.179688 683.128906 Z M 1001.179688 683.128906 "/>
<path style=" stroke:none;fill-rule:evenodd;fill:rgb(20%,20%,70%);fill-opacity:1;" d="M 995.054688 704.53125 C 995.054688 700.75 989.386719 700.75 989.386719 704.53125 C 989.386719 708.3125 995.054688 708.3125 995.054688 704.53125 Z M 995.054688 704.53125 "/>
<path style=" stroke:none;fill-rule:evenodd;fill:rgb(20%,20%,70%);fill-opacity:1;" d="M 987.855469 725.59375 C 987.855469 721.816406 982.1875 721.816406 982.1875 725.59375 C 982.1875 729.375 987.855469 729.375 987.855469 725.59375 Z M 987.855469 725.59375 "/>
<path style=" stroke:none;fill-rule:evenodd;fill:rgb(20%,20%,70%);fill-opacity:1;" d="M 979.597656 746.269531 C 979.597656 742.488281 973.929688 742.488281 973.929688 746.269531 C 973.929688 750.046875 979.597656 750.046875 979.597656 746.269531 Z M 979.597656 746.269531 "/>
<path style=" stroke:none;fill-rule:evenodd;fill:rgb(20%,20%,70%);fill-opacity:1;" d="M 970.304688 766.496094 C 970.304688 762.714844 964.632812 762.714844 964.632812 766.496094 C 964.632812 770.277344 970.304688 770.277344 970.304688 766.496094 Z M 970.304688 766.496094 "/>
<path style=" stroke:none;fill-rule:evenodd;fill:rgb(20%,20%,70%);fill-opacity:1;" d="M 959.996094 786.226562 C 959.996094 782.449219 954.328125 782.449219 954.328125 786.226562 C 954.328125 790.007812 959.996094 790.007812 959.996094 786.226562 Z M 959.996094 786.226562 "/>
<path style=" stroke:none;fill-rule:evenodd;fill:rgb(20%,20%,70%);fill-opacity:1;" d="M 948.703125 805.410156 C 948.703125 801.632812 943.035156 801.632812 943.035156 805.410156 C 943.035156 809.191406 948.703125 809.191406 948.703125 805.410156 Z M 948.703125 805.410156 "/>
<path style=" stroke:none;fill-rule:evenodd;fill:rgb(20%,20%,70%);fill-opacity:1;" d="M 936.453125 824 C 936.453125 820.21875 930.785156 820.21875 930.785156 824 C 930.785156 827.777344 936.453125 827.777344 936.453125 824 Z M 936.453125 824 "/>
<path style=" stroke:none;fill-rule:evenodd;fill:rgb(20%,20%,70%);fill-opacity:1;" d="M 923.277344 841.941406 C 923.277344 838.160156 917.609375 838.160156 917.609375 841.941406 C 917.609375 845.71875 923.277344 845.71875 923.277344 841.941406 Z M 923.277344 841.941406 "/>
<path style=" stroke:none;fill-rule:evenodd;fill:rgb(20%,20%,70%);fill-opacity:1;" d="M 909.210938 859.195312 C 909.210938 855.414062 903.539062 855.414062 903.539062 859.195312 C 903.539062 862.972656 909.210938 862.972656 909.210938 859.195312 Z M 909.210938 859.195312 "/>
<path style=" stroke:none;fill-rule:evenodd;fill:rgb(20%,20%,70%);fill-opacity:1;" d="M 894.285156 875.710938 C 894.285156 871.933594 888.617188 871.933594 888.617188 875.710938 C 888.617188 879.492188 894.285156 879.492188 894.285156 875.710938 Z M 894.285156 875.710938 "/>
<path style=" stroke:none;fill-rule:evenodd;fill:rgb(20%,20%,70%);fill-opacity:1;" d="M 878.546875 891.453125 C 878.546875 887.671875 872.875 887.671875 872.875 891.453125 C 872.875 895.230469 878.546875 895.230469 878.546875 891.453125 Z M 878.546875 891.453125 "/>
<path style=" stroke:none;fill-rule:evenodd;fill:rgb(20%,20%,70%);fill-opacity:1;" d="M 862.027344 906.375 C 862.027344 902.597656 856.359375 902.597656 856.359375 906.375 C 856.359375 910.15625 862.027344 910.15625 862.027344 906.375 Z M 862.027344 906.375 "/>
<path style=" stroke:none;fill-rule:evenodd;fill:rgb(20%,20%,70%);fill-opacity:1;" d="M 844.777344 920.441406 C 844.777344 916.664062 839.105469 916.664062 839.105469 920.441406 C 839.105469 924.222656 844.777344 924.222656 844.777344 920.441406 Z M 844.777344 920.441406 "/>
<path style=" stroke:none;fill-rule:evenodd;fill:rgb(20%,20%,70%);fill-opacity:1;" d="M 826.832031 933.617188 C 826.832031 929.839844 821.164062 929.839844 821.164062 933.617188 C 821.164062 937.398438 826.832031 937.398438 826.832031 933.617188 Z M 826.832031 933.617188 "/>
<path style=" stroke:none;fill-rule:evenodd;fill:rgb(20%,20%,70%);fill-opacity:1;" d="M 808.246094 945.867188 C 808.246094 942.089844 802.578125 942.089844 802.578125 945.867188 C 802.578125 949.648438 808.246094 949.648438 808.246094 945.867188 Z M 808.246094 945.867188 "/>
<path style=" stroke:none;fill-rule:evenodd;fill:rgb(20%,20%,70%);fill-opacity:1;" d="M 789.0625 957.160156 C 789.0625 953.382812 783.390625 953.382812 783.390625 957.160156 C 783.390625 960.941406 789.0625 960.941406 789.0625 957.160156 Z M 789.0625 957.160156 "/>
<path style=" stroke:none;fill-rule:evenodd;fill:rgb(20%,20%,70%);fill-opacity:1;" d="M 769.332031 967.46875 C 769.332031 963.6875 763.660156 963.6875 763.660156 967.46875 C 763.660156 971.246094 769.332031 971.246094 769.332031 967.46875 Z M 769.332031 967.46875 "/>
<path style=" stroke:none;fill-rule:evenodd;fill:rgb(20%,20%,70%);fill-opacity:1;" d="M 749.101562 976.761719 C 749.101562 972.984375 743.433594 972.984375 743.433594 976.761719 C 743.433594 980.542969 749.101562 980.542969 749.101562 976.761719 Z M 749.101562 976.761719 "/>
<path style=" stroke:none;fill-rule:evenodd;fill:rgb(20%,20%,70%);fill-opacity:1;" d="M 728.429688 985.019531 C 728.429688 981.242188 722.761719 981.242188 722.761719 985.019531 C 722.761719 988.800781 728.429688 988.800781 728.429688 985.019531 Z M 728.429688 985.019531 "/>
<path style=" stroke:none;fill-rule:evenodd;fill:rgb(20%,20%,70%);fill-opacity:1;" d="M 707.367188 992.21875 C 707.367188 988.441406 701.695312 988.441406 701.695312 992.21875 C 701.695312 996 707.367188 996 707.367188 992.21875 Z M 707.367188 992.21875 "/>
<path style=" stroke:none;fill-rule:evenodd;fill:rgb(20%,20%,70%);fill-opacity:1;" d="M 685.964844 998.34375 C 685.964844 994.566406 680.292969 994.566406 680.292969 998.34375 C 680.292969 1002.125 685.964844 1002.125 685.964844 998.34375 Z M 685.964844 998.34375 "/>
<path style=" stroke:none;fill-rule:evenodd;fill:rgb(20%,20%,70%);fill-opacity:1;" d="M 664.277344 1003.375 C 664.277344 999.597656 658.609375 999.597656 658.609375 1003.375 C 658.609375 1007.15625 664.277344 1007.15625 664.277344 1003.375 Z M 664.277344 1003.375 "/>
<path style=" stroke:none;fill-rule:evenodd;fill:rgb(20%,20%,70%);fill-opacity:1;" d="M 642.367188 1007.304688 C 642.367188 1003.523438 636.699219 1003.523438 636.699219 1007.304688 C 636.699219 1011.082031 642.367188 1011.082031 642.367188 1007.304688 Z M 642.367188 1007.304688 "/>
<path style=" stroke:none;fill-rule:evenodd;fill:rgb(20%,20%,70%);fill-opacity:1;" d="M 620.285156 1010.117188 C 620.285156 1006.335938 614.617188 1006.335938 614.617188 1010.117188 C 614.617188 1013.894531 620.285156 1013.894531 620.285156 1010.117188 Z M 620.285156 1010.117188 "/>
<path style=" stroke:none;fill-rule:evenodd;fill:rgb(20%,20%,70%);fill-opacity:1;" d="M 598.089844 1011.804688 C 598.089844 1008.027344 592.417969 1008.027344 592.417969 1011.804688 C 592.417969 1015.585938 598.089844 1015.585938 598.089844 1011.804688 Z M 598.089844 1011.804688 "/>
<path style=" stroke:none;fill-rule:evenodd;fill:rgb(20%,20%,70%);fill-opacity:1;" d="M 575.835938 1012.371094 C 575.835938 1008.589844 570.164062 1008.589844 570.164062 1012.371094 C 570.164062 1016.148438 575.835938 1016.148438 575.835938 1012.371094 Z M 575.835938 1012.371094 "/>
<path style=" stroke:none;fill-rule:evenodd;fill:rgb(20%,20%,70%);fill-opacity:1;" d="M 553.582031 1011.804688 C 553.582031 1008.027344 547.910156 1008.027344 547.910156 1011.804688 C 547.910156 1015.585938 553.582031 1015.585938 553.582031 1011.804688 Z M 553.582031 1011.804688 "/>
<path style=" stroke:none;fill-rule:evenodd;fill:rgb(20%,20%,70%);fill-opacity:1;" d="M 531.382812 1010.117188 C 531.382812 1006.335938 525.714844 1006.335938 525.714844 1010.117188 C 525.714844 1013.894531 531.382812 1013.894531 531.382812 1010.117188 Z M 531.382812 1010.117188 "/>
<path style=" stroke:none;fill-rule:evenodd;fill:rgb(20%,20%,70%);fill-opacity:1;" d="M 509.300781 1007.304688 C 509.300781 1003.523438 503.632812 1003.523438 503.632812 1007.304688 C 503.632812 1011.082031 509.300781 1011.082031 509.300781 1007.304688 Z M 509.300781 1007.304688 "/>
<path style=" stroke:none;fill-rule:evenodd;fill:rgb(20%,20%,70%);fill-opacity:1;" d="M 487.390625 1003.375 C 487.390625 999.597656 481.722656 999.597656 481.722656 1003.375 C 481.722656 1007.15625 487.390625 1007.15625 487.390625 1003.375 Z M 487.390625 1003.375 "/>
<path style=" stroke:none;fill-rule:evenodd;fill:rgb(20%,20%,70%);fill-opacity:1;" d="M 465.707031 998.34375 C 465.707031 994.566406 460.035156 994.566406 460.035156 998.34375 C 460.035156 1002.125 465.707031 1002.125 465.707031 998.34375 Z M 465.707031 998.34375 "/>
<path style=" stroke:none;fill-rule:evenodd;fill:rgb(20%,20%,70%);fill-opacity:1;" d="M 444.304688 992.21875 C 444.304688 988.441406 438.632812 988.441406 438.632812 992.21875 C 438.632812 996 444.304688 996 444.304688 992.21875 Z M 444.304688 992.21875 "/>
<path style=" stroke:none;fill-rule:evenodd;fill:rgb(20%,20%,70%);fill-opacity:1;" d="M 423.238281 985.019531 C 423.238281 981.242188 417.570312 981.242188 417.570312 985.019531 C 417.570312 988.800781 423.238281 988.800781 423.238281 985.019531 Z M 423.238281 985.019531 "/>
<path style=" stroke:none;fill-rule:evenodd;fill:rgb(20%,20%,70%);fill-opacity:1;" d="M 402.566406 976.761719 C 402.566406 972.984375 396.898438 972.984375 396.898438 976.761719 C 396.898438 980.542969 402.566406 980.542969 402.566406 976.761719 Z M 402.566406 976.761719 "/>
<path style=" stroke:none;fill-rule:evenodd;fill:rgb(20%,20%,70%);fill-opacity:1;" d="M 382.339844 967.46875 C 382.339844 963.6875 376.667969 963.6875 376.667969 967.46875 C 376.667969 971.246094 382.339844 971.246094 382.339844 967.46875 Z M 382.339844 967.46875 "/>
<path style=" stroke:none;fill-rule:evenodd;fill:rgb(20%,20%,70%);fill-opacity:1;" d="M 362.609375 957.160156 C 362.609375 953.382812 356.9375 953.382812 356.9375 957.160156 C 356.9375 960.941406 362.609375 960.941406 362.609375 957.160156 Z M 362.609375 957.160156 "/>
<path style=" stroke:none;fill-rule:evenodd;fill:rgb(20%,20%,70%);fill-opacity:1;" d="M 343.421875 945.867188 C 343.421875 942.089844 337.753906 942.089844 337.753906 945.867188 C 337.753906 949.648438 343.421875 949.648438 343.421875 945.867188 Z M 343.421875 945.867188 "/>
<path style=" stroke:none;fill-rule:evenodd;fill:rgb(20%,20%,70%);fill-opacity:1;" d="M 324.835938 933.617188 C 324.835938 929.839844 319.167969 929.839844 319.167969 933.617188 C 319.167969 937.398438 324.835938 937.398438 324.835938 933.617188 Z M 324.835938 933.617188 "/>
<path style=" stroke:none;fill-rule:evenodd;fill:rgb(20%,20%,70%);fill-opacity:1;" d="M 306.894531 920.441406 C 306.894531 916.664062 301.222656 916.664062 301.222656 920.441406 C 301.222656 924.222656 306.894531 924.222656 306.894531 920.441406 Z M 306.894531 920.441406 "/>
<path style=" stroke:none;fill-rule:evenodd;fill:rgb(20%,20%,70%);fill-opacity:1;" d="M 289.640625 906.375 C 289.640625 902.597656 283.972656 902.597656 283.972656 906.375 C 283.972656 910.15625 289.640625 910.15625 289.640625 906.375 Z M 289.640625 906.375 "/>
<path style=" stroke:none;fill-rule:evenodd;fill:rgb(20%,20%,70%);fill-opacity:1;" d="M 273.125 891.453125 C 273.125 887.671875 267.453125 887.671875 267.453125 891.453125 C 267.453125 895.230469 273.125 895.230469 273.125 891.453125 Z M 273.125 891.453125 "/>
<path style=" stroke:none;fill-rule:evenodd;fill:rgb(20%,20%,70%);fill-opacity:1;" d="M 257.382812 875.710938 C 257.382812 871.933594 251.714844 871.933594 251.714844 875.710938 C 251.714844 879.492188 257.382812 879.492188 257.382812 875.710938 Z M 257.382812 875.710938 "/>
<path style=" stroke:none;fill-rule:evenodd;fill:rgb(20%,20%,70%);fill-opacity:1;" d="M 242.460938 859.195312 C 242.460938 855.414062 236.789062 855.414062 236.789062 859.195312 C 236.789062 862.972656 242.460938 862.972656 242.460938 859.195312 Z M 242.460938 859.195312 "/>
<path style=" stroke:none;fill-rule:evenodd;fill:rgb(20%,20%,70%);fill-opacity:1;" d="M 228.390625 841.941406 C 228.390625 838.160156 222.722656 838.160156 222.722656 841.941406 C 222.722656 845.71875 228.390625 845.71875 228.390625 841.941406 Z M 228.390625 841.941406 "/>
<path style=" stroke:none;fill-rule:evenodd;fill:rgb(20%,20%,70%);fill-opacity:1;" d="M 215.214844 824 C 215.214844 820.21875 209.546875 820.21875 209.546875 824 C 209.546875 827.777344 215.214844 827.777344 215.214844 824 Z M 215.214844 824 "/>
<path style=" stroke:none;fill-rule:evenodd;fill:rgb(20%,20%,70%);fill-opacity:1;" d="M 202.964844 805.410156 C 202.964844 801.632812 197.296875 801.632812 197.296875 805.410156 C 197.296875 809.191406 202.964844 809.191406 202.964844 805.410156 Z M 202.964844 805.410156 "/>
<path style=" stroke:none;fill-rule:evenodd;fill:rgb(20%,20%,70%);fill-opacity:1;" d="M 191.671875 786.226562 C 191.671875 782.449219 186.003906 782.449219 186.003906 786.226562 C 186.003906 790.007812 191.671875 790.007812 191.671875 786.226562 Z M 191.671875 786.226562 "/>
<path style=" stroke:none;fill-rule:evenodd;fill:rgb(20%,20%,70%);fill-opacity:1;" d="M 181.367188 766.496094 C 181.367188 762.714844 175.695312 762.714844 175.695312 766.496094 C 175.695312 770.277344 181.367188 770.277344 181.367188 766.496094 Z M 181.367188 766.496094 "/>
<path style=" stroke:none;fill-rule:evenodd;fill:rgb(20%,20%,70%);fill-opacity:1;" d="M 172.070312 746.269531 C 172.070312 742.488281 166.402344 742.488281 166.402344 746.269531 C 166.402344 750.046875 172.070312 750.046875 172.070312 746.269531 Z M 172.070312 746.269531 "/>
<path style=" stroke:none;fill-rule:evenodd;fill:rgb(20%,20%,70%);fill-opacity:1;" d="M 163.8125 725.59375 C 163.8125 721.816406 158.144531 721.816406 158.144531 725.59375 C 158.144531 729.375 163.8125 729.375 163.8125 725.59375 Z M 163.8125 725.59375 "/>
<path style=" stroke:none;fill-rule:evenodd;fill:rgb(20%,20%,70%);fill-opacity:1;" d="M 156.613281 704.53125 C 156.613281 700.75 150.945312 700.75 150.945312 704.53125 C 150.945312 708.3125 156.613281 708.3125 156.613281 704.53125 Z M 156.613281 704.53125 "/>
<path style=" stroke:none;fill-rule:evenodd;fill:rgb(20%,20%,70%);fill-opacity:1;" d="M 150.492188 683.128906 C 150.492188 679.351562 144.820312 679.351562 144.820312 683.128906 C 144.820312 686.910156 150.492188 686.910156 150.492188 683.128906 Z M 150.492188 683.128906 "/>
<path style=" stroke:none;fill-rule:evenodd;fill:rgb(20%,20%,70%);fill-opacity:1;" d="M 145.457031 661.445312 C 145.457031 657.664062 139.789062 657.664062 139.789062 661.445312 C 139.789062 665.222656 145.457031 665.222656 145.457031 661.445312 Z M 145.457031 661.445312 "/>
<path style=" stroke:none;fill-rule:evenodd;fill:rgb(20%,20%,70%);fill-opacity:1;" d="M 141.53125 639.53125 C 141.53125 635.753906 135.863281 635.753906 135.863281 639.53125 C 135.863281 643.3125 141.53125 643.3125 141.53125 639.53125 Z M 141.53125 639.53125 "/>
<path style=" stroke:none;fill-rule:evenodd;fill:rgb(20%,20%,70%);fill-opacity:1;" d="M 138.71875 617.449219 C 138.71875 613.671875 133.050781 613.671875 133.050781 617.449219 C 133.050781 621.230469 138.71875 621.230469 138.71875 617.449219 Z M 138.71875 617.449219 "/>
<path style=" stroke:none;fill-rule:evenodd;fill:rgb(20%,20%,70%);fill-opacity:1;" d="M 137.027344 595.253906 C 137.027344 591.472656 131.359375 591.472656 131.359375 595.253906 C 131.359375 599.035156 137.027344 599.035156 137.027344 595.253906 Z M 137.027344 595.253906 "/>
<path style=" stroke:none;fill-rule:evenodd;fill:rgb(20%,20%,70%);fill-opacity:1;" d="M 136.464844 573 C 136.464844 569.21875 130.796875 569.21875 130.796875 573 C 130.796875 576.78125 136.464844 576.78125 136.464844 573 Z M 136.464844 573 "/>
<path style=" stroke:none;fill-rule:evenodd;fill:rgb(20%,20%,70%);fill-opacity:1;" d="M 137.027344 550.746094 C 137.027344 546.964844 131.359375 546.964844 131.359375 550.746094 C 131.359375 554.527344 137.027344 554.527344 137.027344 550.746094 Z M 137.027344 550.746094 "/>
<path style=" stroke:none;fill-rule:evenodd;fill:rgb(20%,20%,70%);fill-opacity:1;" d="M 138.71875 528.550781 C 138.71875 524.769531 133.050781 524.769531 133.050781 528.550781 C 133.050781 532.328125 138.71875 532.328125 138.71875 528.550781 Z M 138.71875 528.550781 "/>
<path style=" stroke:none;fill-rule:evenodd;fill:rgb(20%,20%,70%);fill-opacity:1;" d="M 141.53125 506.46875 C 141.53125 502.6875 135.863281 502.6875 135.863281 506.46875 C 135.863281 510.246094 141.53125 510.246094 141.53125 506.46875 Z M 141.53125 506.46875 "/>
<path style=" stroke:none;fill-rule:evenodd;fill:rgb(20%,20%,70%);fill-opacity:1;" d="M 145.457031 484.554688 C 145.457031 480.777344 139.789062 480.777344 139.789062 484.554688 C 139.789062 488.335938 145.457031 488.335938 145.457031 484.554688 Z M 145.457031 484.554688 "/>
<path style=" stroke:none;fill-rule:evenodd;fill:rgb(20%,20%,70%);fill-opacity:1;" d="M 150.492188 462.871094 C 150.492188 459.089844 144.820312 459.089844 144.820312 462.871094 C 144.820312 466.648438 150.492188 466.648438 150.492188 462.871094 Z M 150.492188 462.871094 "/>
<path style=" stroke:none;fill-rule:evenodd;fill:rgb(20%,20%,70%);fill-opacity:1;" d="M 156.613281 441.46875 C 156.613281 437.6875 150.945312 437.6875 150.945312 441.46875 C 150.945312 445.25 156.613281 445.25 156.613281 441.46875 Z M 156.613281 441.46875 "/>
<path style=" stroke:none;fill-rule:evenodd;fill:rgb(20%,20%,70%);fill-opacity:1;" d="M 163.8125 420.40625 C 163.8125 416.625 158.144531 416.625 158.144531 420.40625 C 158.144531 424.183594 163.8125 424.183594 163.8125 420.40625 Z M 163.8125 420.40625 "/>
<path style=" stroke:none;fill-rule:evenodd;fill:rgb(20%,20%,70%);fill-opacity:1;" d="M 172.070312 399.730469 C 172.070312 395.953125 166.402344 395.953125 166.402344 399.730469 C 166.402344 403.511719 172.070312 403.511719 172.070312 399.730469 Z M 172.070312 399.730469 "/>
<path style=" stroke:none;fill-rule:evenodd;fill:rgb(20%,20%,70%);fill-opacity:1;" d="M 181.367188 379.503906 C 181.367188 375.722656 175.695312 375.722656 175.695312 379.503906 C 175.695312 383.285156 181.367188 383.285156 181.367188 379.503906 Z M 181.367188 379.503906 "/>
<path style=" stroke:none;fill-rule:evenodd;fill:rgb(20%,20%,70%);fill-opacity:1;" d="M 191.671875 359.773438 C 191.671875 355.992188 186.003906 355.992188 186.003906 359.773438 C 186.003906 363.550781 191.671875 363.550781 191.671875 359.773438 Z M 191.671875 359.773438 "/>
<path style=" stroke:none;fill-rule:evenodd;fill:rgb(20%,20%,70%);fill-opacity:1;" d="M 202.964844 340.589844 C 202.964844 336.808594 197.296875 336.808594 197.296875 340.589844 C 197.296875 344.367188 202.964844 344.367188 202.964844 340.589844 Z M 202.964844 340.589844 "/>
<path style=" stroke:none;fill-rule:evenodd;fill:rgb(20%,20%,70%);fill-opacity:1;" d="M 215.214844 322 C 215.214844 318.222656 209.546875 318.222656 209.546875 322 C 209.546875 325.78125 215.214844 325.78125 215.214844 322 Z M 215.214844 322 "/>
<path style=" stroke:none;fill-rule:evenodd;fill:rgb(20%,20%,70%);fill-opacity:1;" d="M 228.390625 304.058594 C 228.390625 300.28125 222.722656 300.28125 222.722656 304.058594 C 222.722656 307.839844 228.390625 307.839844 228.390625 304.058594 Z M 228.390625 304.058594 "/>
<path style=" stroke:none;fill-rule:evenodd;fill:rgb(20%,20%,70%);fill-opacity:1;" d="M 242.460938 286.804688 C 242.460938 283.027344 236.789062 283.027344 236.789062 286.804688 C 236.789062 290.585938 242.460938 290.585938 242.460938 286.804688 Z M 242.460938 286.804688 "/>
<path style=" stroke:none;fill-rule:evenodd;fill:rgb(20%,20%,70%);fill-opacity:1;" d="M 257.382812 270.289062 C 257.382812 266.507812 251.714844 266.507812 251.714844 270.289062 C 251.714844 274.066406 257.382812 274.066406 257.382812 270.289062 Z M 257.382812 270.289062 "/>
<path style=" stroke:none;fill-rule:evenodd;fill:rgb(20%,20%,70%);fill-opacity:1;" d="M 273.125 254.546875 C 273.125 250.769531 267.453125 250.769531 267.453125 254.546875 C 267.453125 258.328125 273.125 258.328125 273.125 254.546875 Z M 273.125 254.546875 "/>
<path style=" stroke:none;fill-rule:evenodd;fill:rgb(20%,20%,70%);fill-opacity:1;" d="M 289.640625 239.625 C 289.640625 235.84375 283.972656 235.84375 283.972656 239.625 C 283.972656 243.402344 289.640625 243.402344 289.640625 239.625 Z M 289.640625 239.625 "/>
<path style=" stroke:none;fill-rule:evenodd;fill:rgb(20%,20%,70%);fill-opacity:1;" d="M 306.894531 225.558594 C 306.894531 221.777344 301.222656 221.777344 301.222656 225.558594 C 301.222656 229.335938 306.894531 229.335938 306.894531 225.558594 Z M 306.894531 225.558594 "/>
<path style=" stroke:none;fill-rule:evenodd;fill:rgb(20%,20%,70%);fill-opacity:1;" d="M 324.835938 212.382812 C 324.835938 208.601562 319.167969 208.601562 319.167969 212.382812 C 319.167969 216.160156 324.835938 216.160156 324.835938 212.382812 Z M 324.835938 212.382812 "/>
<path style=" stroke:none;fill-rule:evenodd;fill:rgb(20%,20%,70%);fill-opacity:1;" d="M 343.421875 200.132812 C 343.421875 196.351562 337.753906 196.351562 337.753906 200.132812 C 337.753906 203.910156 343.421875 203.910156 343.421875 200.132812 Z M 343.421875 200.132812 "/>
<path style=" stroke:none;fill-rule:evenodd;fill:rgb(20%,20%,70%);fill-opacity:1;" d="M 362.609375 188.839844 C 362.609375 185.058594 356.9375 185.058594 356.9375 188.839844 C 356.9375 192.617188 362.609375 192.617188 362.609375 188.839844 Z M 362.609375 188.839844 "/>
<path style=" stroke:none;fill-rule:evenodd;fill:rgb(20%,20%,70%);fill-opacity:1;" d="M 382.339844 178.53125 C 382.339844 174.753906 376.667969 174.753906 376.667969 178.53125 C 376.667969 182.3125 382.339844 182.3125 382.339844 178.53125 Z M 382.339844 178.53125 "/>
<path style=" stroke:none;fill-rule:evenodd;fill:rgb(20%,20%,70%);fill-opacity:1;" d="M 402.566406 169.238281 C 402.566406 165.457031 396.898438 165.457031 396.898438 169.238281 C 396.898438 173.015625 402.566406 173.015625 402.566406 169.238281 Z M 402.566406 169.238281 "/>
<path style=" stroke:none;fill-rule:evenodd;fill:rgb(20%,20%,70%);fill-opacity:1;" d="M 423.238281 160.980469 C 423.238281 157.199219 417.570312 157.199219 417.570312 160.980469 C 417.570312 164.757812 423.238281 164.757812 423.238281 160.980469 Z M 423.238281 160.980469 "/>
<path style=" stroke:none;fill-rule:evenodd;fill:rgb(20%,20%,70%);fill-opacity:1;" d="M 444.304688 153.78125 C 444.304688 150 438.632812 150 438.632812 153.78125 C 438.632812 157.558594 444.304688 157.558594 444.304688 153.78125 Z M 444.304688 153.78125 "/>
<path style=" stroke:none;fill-rule:evenodd;fill:rgb(20%,20%,70%);fill-opacity:1;" d="M 465.707031 147.65625 C 465.707031 143.875 460.035156 143.875 460.035156 147.65625 C 460.035156 151.433594 465.707031 151.433594 465.707031 147.65625 Z M 465.707031 147.65625 "/>
<path style=" stroke:none;fill-rule:evenodd;fill:rgb(20%,20%,70%);fill-opacity:1;" d="M 487.390625 142.625 C 487.390625 138.84375 481.722656 138.84375 481.722656 142.625 C 481.722656 146.402344 487.390625 146.402344 487.390625 142.625 Z M 487.390625 142.625 "/>
<path style=" stroke:none;fill-rule:evenodd;fill:rgb(20%,20%,70%);fill-opacity:1;" d="M 509.300781 138.695312 C 509.300781 134.917969 503.632812 134.917969 503.632812 138.695312 C 503.632812 142.476562 509.300781 142.476562 509.300781 138.695312 Z M 509.300781 138.695312 "/>
<path style=" stroke:none;fill-rule:evenodd;fill:rgb(20%,20%,70%);fill-opacity:1;" d="M 531.382812 135.882812 C 531.382812 132.105469 525.714844 132.105469 525.714844 135.882812 C 525.714844 139.664062 531.382812 139.664062 531.382812 135.882812 Z M 531.382812 135.882812 "/>
<path style=" stroke:none;fill-rule:evenodd;fill:rgb(20%,20%,70%);fill-opacity:1;" d="M 553.582031 134.195312 C 553.582031 130.414062 547.910156 130.414062 547.910156 134.195312 C 547.910156 137.972656 553.582031 137.972656 553.582031 134.195312 Z M 553.582031 134.195312 "/>
<path style="fill:none;stroke-width:2.267717;stroke-linecap:butt;stroke-linejoin:miter;stroke:rgb(20%,20%,70%);stroke-opacity:0.5;stroke-miterlimit:10;" d="M 0 -439.371094 L 0 -439.371094 " transform="matrix(1,0,0,1,573,573)"/>
<path style="fill:none;stroke-width:2.267717;stroke-linecap:butt;stroke-linejoin:miter;stroke:rgb(20%,20%,70%);stroke-opacity:0.5;stroke-miterlimit:10;" d="M 22.253906 -438.804688 L 110.128906 -425.34375 " transform="matrix(1,0,0,1,573,573)"/>
<path style="fill:none;stroke-width:2.267717;stroke-linecap:butt;stroke-linejoin:miter;stroke:rgb(20%,20%,70%);stroke-opacity:0.5;stroke-miterlimit:10;" d="M 44.449219 -437.117188 L 213.226562 -384.160156 " transform="matrix(1,0,0,1,573,573)"/>
<path style="fill:none;stroke-width:2.267717;stroke-linecap:butt;stroke-linejoin:miter;stroke:rgb(20%,20%,70%);stroke-opacity:0.5;stroke-miterlimit:10;" d="M 66.53125 -434.304688 L 302.710938 -318.453125 " transform="matrix(1,0,0,1,573,573)"/>
<path style="fill:none;stroke-width:2.267717;stroke-linecap:butt;stroke-linejoin:miter;stroke:rgb(20%,20%,70%);stroke-opacity:0.5;stroke-miterlimit:10;" d="M 88.445312 -430.375 L 372.867188 -232.410156 " transform="matrix(1,0,0,1,573,573)"/>
<path style="fill:none;stroke-width:2.267717;stroke-linecap:butt;stroke-linejoin:miter;stroke:rgb(20%,20%,70%);stroke-opacity:0.5;stroke-miterlimit:10;" d="M 110.128906 -425.34375 L 419.21875 -131.53125 " transform="matrix(1,0,0,1,573,573)"/>
<path style="fill:none;stroke-width:2.267717;stroke-linecap:butt;stroke-linejoin:miter;stroke:rgb(20%,20%,70%);stroke-opacity:0.5;stroke-miterlimit:10;" d="M 131.53125 -419.21875 L 438.804688 -22.253906 " transform="matrix(1,0,0,1,573,573)"/>
<path style="fill:none;stroke-width:2.267717;stroke-linecap:butt;stroke-linejoin:miter;stroke:rgb(20%,20%,70%);stroke-opacity:0.5;stroke-miterlimit:10;" d="M 152.59375 -412.019531 L 430.375 88.445312 " transform="matrix(1,0,0,1,573,573)"/>
<path style="fill:none;stroke-width:2.267717;stroke-linecap:butt;stroke-linejoin:miter;stroke:rgb(20%,20%,70%);stroke-opacity:0.5;stroke-miterlimit:10;" d="M 173.269531 -403.761719 L 394.46875 193.496094 " transform="matrix(1,0,0,1,573,573)"/>
<path style="fill:none;stroke-width:2.267717;stroke-linecap:butt;stroke-linejoin:miter;stroke:rgb(20%,20%,70%);stroke-opacity:0.5;stroke-miterlimit:10;" d="M 193.496094 -394.46875 L 333.375 286.195312 " transform="matrix(1,0,0,1,573,573)"/>
<path style="fill:none;stroke-width:2.267717;stroke-linecap:butt;stroke-linejoin:miter;stroke:rgb(20%,20%,70%);stroke-opacity:0.5;stroke-miterlimit:10;" d="M 213.226562 -384.160156 L 251 360.617188 " transform="matrix(1,0,0,1,573,573)"/>
<path style="fill:none;stroke-width:2.267717;stroke-linecap:butt;stroke-linejoin:miter;stroke:rgb(20%,20%,70%);stroke-opacity:0.5;stroke-miterlimit:10;" d="M 232.410156 -372.867188 L 152.59375 412.019531 " transform="matrix(1,0,0,1,573,573)"/>
<path style="fill:none;stroke-width:2.267717;stroke-linecap:butt;stroke-linejoin:miter;stroke:rgb(20%,20%,70%);stroke-opacity:0.5;stroke-miterlimit:10;" d="M 251 -360.617188 L 44.449219 437.117188 " transform="matrix(1,0,0,1,573,573)"/>
<path style="fill:none;stroke-width:2.267717;stroke-linecap:butt;stroke-linejoin:miter;stroke:rgb(20%,20%,70%);stroke-opacity:0.5;stroke-miterlimit:10;" d="M 268.941406 -347.441406 L -66.53125 434.304688 " transform="matrix(1,0,0,1,573,573)"/>
<path style="fill:none;stroke-width:2.267717;stroke-linecap:butt;stroke-linejoin:miter;stroke:rgb(20%,20%,70%);stroke-opacity:0.5;stroke-miterlimit:10;" d="M 286.195312 -333.375 L -173.269531 403.761719 " transform="matrix(1,0,0,1,573,573)"/>
<path style="fill:none;stroke-width:2.267717;stroke-linecap:butt;stroke-linejoin:miter;stroke:rgb(20%,20%,70%);stroke-opacity:0.5;stroke-miterlimit:10;" d="M 302.710938 -318.453125 L -268.941406 347.441406 " transform="matrix(1,0,0,1,573,573)"/>
<path style="fill:none;stroke-width:2.267717;stroke-linecap:butt;stroke-linejoin:miter;stroke:rgb(20%,20%,70%);stroke-opacity:0.5;stroke-miterlimit:10;" d="M 318.453125 -302.710938 L -347.441406 268.941406 " transform="matrix(1,0,0,1,573,573)"/>
<path style="fill:none;stroke-width:2.267717;stroke-linecap:butt;stroke-linejoin:miter;stroke:rgb(20%,20%,70%);stroke-opacity:0.5;stroke-miterlimit:10;" d="M 333.375 -286.195312 L -403.761719 173.269531 " transform="matrix(1,0,0,1,573,573)"/>
<path style="fill:none;stroke-width:2.267717;stroke-linecap:butt;stroke-linejoin:miter;stroke:rgb(20%,20%,70%);stroke-opacity:0.5;stroke-miterlimit:10;" d="M 347.441406 -268.941406 L -434.304688 66.53125 " transform="matrix(1,0,0,1,573,573)"/>
<path style="fill:none;stroke-width:2.267717;stroke-linecap:butt;stroke-linejoin:miter;stroke:rgb(20%,20%,70%);stroke-opacity:0.5;stroke-miterlimit:10;" d="M 360.617188 -251 L -437.117188 -44.449219 " transform="matrix(1,0,0,1,573,573)"/>
<path style="fill:none;stroke-width:2.267717;stroke-linecap:butt;stroke-linejoin:miter;stroke:rgb(20%,20%,70%);stroke-opacity:0.5;stroke-miterlimit:10;" d="M 372.867188 -232.410156 L -412.019531 -152.59375 " transform="matrix(1,0,0,1,573,573)"/>
<path style="fill:none;stroke-width:2.267717;stroke-linecap:butt;stroke-linejoin:miter;stroke:rgb(20%,20%,70%);stroke-opacity:0.5;stroke-miterlimit:10;" d="M 384.160156 -213.226562 L -360.617188 -251 " transform="matrix(1,0,0,1,573,573)"/>
<path style="fill:none;stroke-width:2.267717;stroke-linecap:butt;stroke-linejoin:miter;stroke:rgb(20%,20%,70%);stroke-opacity:0.5;stroke-miterlimit:10;" d="M 394.46875 -193.496094 L -286.195312 -333.375 " transform="matrix(1,0,0,1,573,573)"/>
<path style="fill:none;stroke-width:2.267717;stroke-linecap:butt;stroke-linejoin:miter;stroke:rgb(20%,20%,70%);stroke-opacity:0.5;stroke-miterlimit:10;" d="M 403.761719 -173.269531 L -193.496094 -394.46875 " transform="matrix(1,0,0,1,573,573)"/>
<path style="fill:none;stroke-width:2.267717;stroke-linecap:butt;stroke-linejoin:miter;stroke:rgb(20%,20%,70%);stroke-opacity:0.5;stroke-miterlimit:10;" d="M 412.019531 -152.59375 L -88.445312 -430.375 " transform="matrix(1,0,0,1,573,573)"/>
<path style="fill:none;stroke-width:2.267717;stroke-linecap:butt;stroke-linejoin:miter;stroke:rgb(20%,20%,70%);stroke-opacity:0.5;stroke-miterlimit:10;" d="M 419.21875 -131.53125 L 22.253906 -438.804688 " transform="matrix(1,0,0,1,573,573)"/>
<path style="fill:none;stroke-width:2.267717;stroke-linecap:butt;stroke-linejoin:miter;stroke:rgb(20%,20%,70%);stroke-opacity:0.5;stroke-miterlimit:10;" d="M 425.34375 -110.128906 L 131.53125 -419.21875 " transform="matrix(1,0,0,1,573,573)"/>
<path style="fill:none;stroke-width:2.267717;stroke-linecap:butt;stroke-linejoin:miter;stroke:rgb(20%,20%,70%);stroke-opacity:0.5;stroke-miterlimit:10;" d="M 430.375 -88.445312 L 232.410156 -372.867188 " transform="matrix(1,0,0,1,573,573)"/>
<path style="fill:none;stroke-width:2.267717;stroke-linecap:butt;stroke-linejoin:miter;stroke:rgb(20%,20%,70%);stroke-opacity:0.5;stroke-miterlimit:10;" d="M 434.304688 -66.53125 L 318.453125 -302.710938 " transform="matrix(1,0,0,1,573,573)"/>
<path style="fill:none;stroke-width:2.267717;stroke-linecap:butt;stroke-linejoin:miter;stroke:rgb(20%,20%,70%);stroke-opacity:0.5;stroke-miterlimit:10;" d="M 437.117188 -44.449219 L 384.160156 -213.226562 " transform="matrix(1,0,0,1,573,573)"/>
<path style="fill:none;stroke-width:2.267717;stroke-linecap:butt;stroke-linejoin:miter;stroke:rgb(20%,20%,70%);stroke-opacity:0.5;stroke-miterlimit:10;" d="M 438.804688 -22.253906 L 425.34375 -110.128906 " transform="matrix(1,0,0,1,573,573)"/>
<path style="fill:none;stroke-width:2.267717;stroke-linecap:butt;stroke-linejoin:miter;stroke:rgb(20%,20%,70%);stroke-opacity:0.5;stroke-miterlimit:10;" d="M 439.371094 0 L 439.371094 0 " transform="matrix(1,0,0,1,573,573)"/>
<path style="fill:none;stroke-width:2.267717;stroke-linecap:butt;stroke-linejoin:miter;stroke:rgb(20%,20%,70%);stroke-opacity:0.5;stroke-miterlimit:10;" d="M 438.804688 22.253906 L 425.34375 110.128906 " transform="matrix(1,0,0,1,573,573)"/>
<path style="fill:none;stroke-width:2.267717;stroke-linecap:butt;stroke-linejoin:miter;stroke:rgb(20%,20%,70%);stroke-opacity:0.5;stroke-miterlimit:10;" d="M 437.117188 44.449219 L 384.160156 213.226562 " transform="matrix(1,0,0,1,573,573)"/>
<path style="fill:none;stroke-width:2.267717;stroke-linecap:butt;stroke-linejoin:miter;stroke:rgb(20%,20%,70%);stroke-opacity:0.5;stroke-miterlimit:10;" d="M 434.304688 66.53125 L 318.453125 302.710938 " transform="matrix(1,0,0,1,573,573)"/>
<path style="fill:none;stroke-width:2.267717;stroke-linecap:butt;stroke-linejoin:miter;stroke:rgb(20%,20%,70%);stroke-opacity:0.5;stroke-miterlimit:10;" d="M 430.375 88.445312 L 232.410156 372.867188 " transform="matrix(1,0,0,1,573,573)"/>
<path style="fill:none;stroke-width:2.267717;stroke-linecap:butt;stroke-linejoin:miter;stroke:rgb(20%,20%,70%);stroke-opacity:0.5;stroke-miterlimit:10;" d="M 425.34375 110.128906 L 131.53125 419.21875 " transform="matrix(1,0,0,1,573,573)"/>
<path style="fill:none;stroke-width:2.267717;stroke-linecap:butt;stroke-linejoin:miter;stroke:rgb(20%,20%,70%);stroke-opacity:0.5;stroke-miterlimit:10;" d="M 419.21875 131.53125 L 22.253906 438.804688 " transform="matrix(1,0,0,1,573,573)"/>
<path style="fill:none;stroke-width:2.267717;stroke-linecap:butt;stroke-linejoin:miter;stroke:rgb(20%,20%,70%);stroke-opacity:0.5;stroke-miterlimit:10;" d="M 412.019531 152.59375 L -88.445312 430.375 " transform="matrix(1,0,0,1,573,573)"/>
<path style="fill:none;stroke-width:2.267717;stroke-linecap:butt;stroke-linejoin:miter;stroke:rgb(20%,20%,70%);stroke-opacity:0.5;stroke-miterlimit:10;" d="M 403.761719 173.269531 L -193.496094 394.46875 " transform="matrix(1,0,0,1,573,573)"/>
<path style="fill:none;stroke-width:2.267717;stroke-linecap:butt;stroke-linejoin:miter;stroke:rgb(20%,20%,70%);stroke-opacity:0.5;stroke-miterlimit:10;" d="M 394.46875 193.496094 L -286.195312 333.375 " transform="matrix(1,0,0,1,573,573)"/>
<path style="fill:none;stroke-width:2.267717;stroke-linecap:butt;stroke-linejoin:miter;stroke:rgb(20%,20%,70%);stroke-opacity:0.5;stroke-miterlimit:10;" d="M 384.160156 213.226562 L -360.617188 251 " transform="matrix(1,0,0,1,573,573)"/>
<path style="fill:none;stroke-width:2.267717;stroke-linecap:butt;stroke-linejoin:miter;stroke:rgb(20%,20%,70%);stroke-opacity:0.5;stroke-miterlimit:10;" d="M 372.867188 232.410156 L -412.019531 152.59375 " transform="matrix(1,0,0,1,573,573)"/>
<path style="fill:none;stroke-width:2.267717;stroke-linecap:butt;stroke-linejoin:miter;stroke:rgb(20%,20%,70%);stroke-opacity:0.5;stroke-miterlimit:10;" d="M 360.617188 251 L -437.117188 44.449219 " transform="matrix(1,0,0,1,573,573)"/>
<path style="fill:none;stroke-width:2.267717;stroke-linecap:butt;stroke-linejoin:miter;stroke:rgb(20%,20%,70%);stroke-opacity:0.5;stroke-miterlimit:10;" d="M 347.441406 268.941406 L -434.304688 -66.53125 " transform="matrix(1,0,0,1,573,573)"/>
<path style="fill:none;stroke-width:2.267717;stroke-linecap:butt;stroke-linejoin:miter;stroke:rgb(20%,20%,70%);stroke-opacity:0.5;stroke-miterlimit:10;" d="M 333.375 286.195312 L -403.761719 -173.269531 " transform="matrix(1,0,0,1,573,573)"/>
<path style="fill:none;stroke-width:2.267717;stroke-linecap:butt;stroke-linejoin:miter;stroke:rgb(20%,20%,70%);stroke-opacity:0.5;stroke-miterlimit:10;" d="M 318.453125 302.710938 L -347.441406 -268.941406 " transform="matrix(1,0,0,1,573,573)"/>
<path style="fill:none;stroke-width:2.267717;stroke-linecap:butt;stroke-linejoin:miter;stroke:rgb(20%,20%,70%);stroke-opacity:0.5;stroke-miterlimit:10;" d="M 302.710938 318.453125 L -268.941406 -347.441406 " transform="matrix(1,0,0,1,573,573)"/>
<path style="fill:none;stroke-width:2.267717;stroke-linecap:butt;stroke-linejoin:miter;stroke:rgb(20%,20%,70%);stroke-opacity:0.5;stroke-miterlimit:10;" d="M 286.195312 333.375 L -173.269531 -403.761719 " transform="matrix(1,0,0,1,573,573)"/>
<path style="fill:none;stroke-width:2.267717;stroke-linecap:butt;stroke-linejoin:miter;stroke:rgb(20%,20%,70%);stroke-opacity:0.5;stroke-miterlimit:10;" d="M 268.941406 347.441406 L -66.53125 -434.304688 " transform="matrix(1,0,0,1,573,573)"/>
<path style="fill:none;stroke-width:2.267717;stroke-linecap:butt;stroke-linejoin:miter;stroke:rgb(20%,20%,70%);stroke-opacity:0.5;stroke-miterlimit:10;" d="M 251 360.617188 L 44.449219 -437.117188 " transform="matrix(1,0,0,1,573,573)"/>
<path style="fill:none;stroke-width:2.267717;stroke-linecap:butt;stroke-linejoin:miter;stroke:rgb(20%,20%,70%);stroke-opacity:0.5;stroke-miterlimit:10;" d="M 232.410156 372.867188 L 152.59375 -412.019531 " transform="matrix(1,0,0,1,573,573)"/>
<path style="fill:none;stroke-width:2.267717;stroke-linecap:butt;stroke-linejoin:miter;stroke:rgb(20%,20%,70%);stroke-opacity:0.5;stroke-miterlimit:10;" d="M 213.226562 384.160156 L 251 -360.617188 " transform="matrix(1,0,0,1,573,573)"/>
<path style="fill:none;stroke-width:2.267717;stroke-linecap:butt;stroke-linejoin:miter;stroke:rgb(20%,20%,70%);stroke-opacity:0.5;stroke-miterlimit:10;" d="M 193.496094 394.46875 L 333.375 -286.195312 " transform="matrix(1,0,0,1,573,573)"/>
<path style="fill:none;stroke-width:2.267717;stroke-linecap:butt;stroke-linejoin:miter;stroke:rgb(20%,20%,70%);stroke-opacity:0.5;stroke-miterlimit:10;" d="M 173.269531 403.761719 L 394.46875 -193.496094 " transform="matrix(1,0,0,1,573,573)"/>
<path style="fill:none;stroke-width:2.267717;stroke-linecap:butt;stroke-linejoin:miter;stroke:rgb(20%,20%,70%);stroke-opacity:0.5;stroke-miterlimit:10;" d="M 152.59375 412.019531 L 430.375 -88.445312 " transform="matrix(1,0,0,1,573,573)"/>
<path style="fill:none;stroke-width:2.267717;stroke-linecap:butt;stroke-linejoin:miter;stroke:rgb(20%,20%,70%);stroke-opacity:0.5;stroke-miterlimit:10;" d="M 131.53125 419.21875 L 438.804688 22.253906 " transform="matrix(1,0,0,1,573,573)"/>
<path style="fill:none;stroke-width:2.267717;stroke-linecap:butt;stroke-linejoin:miter;stroke:rgb(20%,20%,70%);stroke-opacity:0.5;stroke-miterlimit:10;" d="M 110.128906 425.34375 L 419.21875 131.53125 " transform="matrix(1,0,0,1,573,573)"/>
<path style="fill:none;stroke-width:2.267717;stroke-linecap:butt;stroke-linejoin:miter;stroke:rgb(20%,20%,70%);stroke-opacity:0.5;stroke-miterlimit:10;" d="M 88.445312 430.375 L 372.867188 232.410156 " transform="matrix(1,0,0,1,573,573)"/>
<path style="fill:none;stroke-width:2.267717;stroke-linecap:butt;stroke-linejoin:miter;stroke:rgb(20%,20%,70%);stroke-opacity:0.5;stroke-miterlimit:10;" d="M 66.53125 434.304688 L 302.710938 318.453125 " transform="matrix(1,0,0,1,573,573)"/>
<path style="fill:none;stroke-width:2.267717;stroke-linecap:butt;stroke-linejoin:miter;stroke:rgb(20%,20%,70%);stroke-opacity:0.5;stroke-miterlimit:10;" d="M 44.449219 437.117188 L 213.226562 384.160156 " transform="matrix(1,0,0,1,573,573)"/>
<path style="fill:none;stroke-width:2.267717;stroke-linecap:butt;stroke-linejoin:miter;stroke:rgb(20%,20%,70%);stroke-opacity:0.5;stroke-miterlimit:10;" d="M 22.253906 438.804688 L 110.128906 425.34375 " transform="matrix(1,0,0,1,573,573)"/>
<path style="fill:none;stroke-width:2.267717;stroke-linecap:butt;stroke-linejoin:miter;stroke:rgb(20%,20%,70%);stroke-opacity:0.5;stroke-miterlimit:10;" d="M 0 439.371094 L 0 439.371094 " transform="matrix(1,0,0,1,573,573)"/>
<path style="fill:none;stroke-width:2.267717;stroke-linecap:butt;stroke-linejoin:miter;stroke:rgb(20%,20%,70%);stroke-opacity:0.5;stroke-miterlimit:10;" d="M -22.253906 438.804688 L -110.128906 425.34375 " transform="matrix(1,0,0,1,573,573)"/>
<path style="fill:none;stroke-width:2.267717;stroke-linecap:butt;stroke-linejoin:miter;stroke:rgb(20%,20%,70%);stroke-opacity:0.5;stroke-miterlimit:10;" d="M -44.449219 437.117188 L -213.226562 384.160156 " transform="matrix(1,0,0,1,573,573)"/>
<path style="fill:none;stroke-width:2.267717;stroke-linecap:butt;stroke-linejoin:miter;stroke:rgb(20%,20%,70%);stroke-opacity:0.5;stroke-miterlimit:10;" d="M -66.53125 434.304688 L -302.710938 318.453125 " transform="matrix(1,0,0,1,573,573)"/>
<path style="fill:none;stroke-width:2.267717;stroke-linecap:butt;stroke-linejoin:miter;stroke:rgb(20%,20%,70%);stroke-opacity:0.5;stroke-miterlimit:10;" d="M -88.445312 430.375 L -372.867188 232.410156 " transform="matrix(1,0,0,1,573,573)"/>
<path style="fill:none;stroke-width:2.267717;stroke-linecap:butt;stroke-linejoin:miter;stroke:rgb(20%,20%,70%);stroke-opacity:0.5;stroke-miterlimit:10;" d="M -110.128906 425.34375 L -419.21875 131.53125 " transform="matrix(1,0,0,1,573,573)"/>
<path style="fill:none;stroke-width:2.267717;stroke-linecap:butt;stroke-linejoin:miter;stroke:rgb(20%,20%,70%);stroke-opacity:0.5;stroke-miterlimit:10;" d="M -131.53125 419.21875 L -438.804688 22.253906 " transform="matrix(1,0,0,1,573,573)"/>
<path style="fill:none;stroke-width:2.267717;stroke-linecap:butt;stroke-linejoin:miter;stroke:rgb(20%,20%,70%);stroke-opacity:0.5;stroke-miterlimit:10;" d="M -152.59375 412.019531 L -430.375 -88.445312 " transform="matrix(1,0,0,1,573,573)"/>
<path style="fill:none;stroke-width:2.267717;stroke-linecap:butt;stroke-linejoin:miter;stroke:rgb(20%,20%,70%);stroke-opacity:0.5;stroke-miterlimit:10;" d="M -173.269531 403.761719 L -394.46875 -193.496094 " transform="matrix(1,0,0,1,573,573)"/>
<path style="fill:none;stroke-width:2.267717;stroke-linecap:butt;stroke-linejoin:miter;stroke:rgb(20%,20%,70%);stroke-opacity:0.5;stroke-miterlimit:10;" d="M -193.496094 394.46875 L -333.375 -286.195312 " transform="matrix(1,0,0,1,573,573)"/>
<path style="fill:none;stroke-width:2.267717;stroke-linecap:butt;stroke-linejoin:miter;stroke:rgb(20%,20%,70%);stroke-opacity:0.5;stroke-miterlimit:10;" d="M -213.226562 384.160156 L -251 -360.617188 " transform="matrix(1,0,0,1,573,573)"/>
<path style="fill:none;stroke-width:2.267717;stroke-linecap:butt;stroke-linejoin:miter;stroke:rgb(20%,20%,70%);stroke-opacity:0.5;stroke-miterlimit:10;" d="M -232.410156 372.867188 L -152.59375 -412.019531 " transform="matrix(1,0,0,1,573,573)"/>
<path style="fill:none;stroke-width:2.267717;stroke-linecap:butt;stroke-linejoin:miter;stroke:rgb(20%,20%,70%);stroke-opacity:0.5;stroke-miterlimit:10;" d="M -251 360.617188 L -44.449219 -437.117188 " transform="matrix(1,0,0,1,573,573)"/>
<path style="fill:none;stroke-width:2.267717;stroke-linecap:butt;stroke-linejoin:miter;stroke:rgb(20%,20%,70%);stroke-opacity:0.5;stroke-miterlimit:10;" d="M -268.941406 347.441406 L 66.53125 -434.304688 " transform="matrix(1,0,0,1,573,573)"/>
<path style="fill:none;stroke-width:2.267717;stroke-linecap:butt;stroke-linejoin:miter;stroke:rgb(20%,20%,70%);stroke-opacity:0.5;stroke-miterlimit:10;" d="M -286.195312 333.375 L 173.269531 -403.761719 " transform="matrix(1,0,0,1,573,573)"/>
<path style="fill:none;stroke-width:2.267717;stroke-linecap:butt;stroke-linejoin:miter;stroke:rgb(20%,20%,70%);stroke-opacity:0.5;stroke-miterlimit:10;" d="M -302.710938 318.453125 L 268.941406 -347.441406 " transform="matrix(1,0,0,1,573,573)"/>
<path style="fill:none;stroke-width:2.267717;stroke-linecap:butt;stroke-linejoin:miter;stroke:rgb(20%,20%,70%);stroke-opacity:0.5;stroke-miterlimit:10;" d="M -318.453125 302.710938 L 347.441406 -268.941406 " transform="matrix(1,0,0,1,573,573)"/>
<path style="fill:none;stroke-width:2.267717;stroke-linecap:butt;stroke-linejoin:miter;stroke:rgb(20%,20%,70%);stroke-opacity:0.5;stroke-miterlimit:10;" d="M -333.375 286.195312 L 403.761719 -173.269531 " transform="matrix(1,0,0,1,573,573)"/>
<path style="fill:none;stroke-width:2.267717;stroke-linecap:butt;stroke-linejoin:miter;stroke:rgb(20%,20%,70%);stroke-opacity:0.5;stroke-miterlimit:10;" d="M -347.441406 268.941406 L 434.304688 -66.53125 " transform="matrix(1,0,0,1,573,573)"/>
<path style="fill:none;stroke-width:2.267717;stroke-linecap:butt;stroke-linejoin:miter;stroke:rgb(20%,20%,70%);stroke-opacity:0.5;stroke-miterlimit:10;" d="M -360.617188 251 L 437.117188 44.449219 " transform="matrix(1,0,0,1,573,573)"/>
<path style="fill:none;stroke-width:2.267717;stroke-linecap:butt;stroke-linejoin:miter;stroke:rgb(20%,20%,70%);stroke-opacity:0.5;stroke-miterlimit:10;" d="M -372.867188 232.410156 L 412.019531 152.59375 " transform="matrix(1,0,0,1,573,573)"/>
<path style="fill:none;stroke-width:2.267717;stroke-linecap:butt;stroke-linejoin:miter;stroke:rgb(20%,20%,70%);stroke-opacity:0.5;stroke-miterlimit:10;" d="M -384.160156 213.226562 L 360.617188 251 " transform="matrix(1,0,0,1,573,573)"/>
<path style="fill:none;stroke-width:2.267717;stroke-linecap:butt;stroke-linejoin:miter;stroke:rgb(20%,20%,70%);stroke-opacity:0.5;stroke-miterlimit:10;" d="M -394.46875 193.496094 L 286.195312 333.375 " transform="matrix(1,0,0,1,573,573)"/>
<path style="fill:none;stroke-width:2.267717;stroke-linecap:butt;stroke-linejoin:miter;stroke:rgb(20%,20%,70%);stroke-opacity:0.5;stroke-miterlimit:10;" d="M -403.761719 173.269531 L 193.496094 394.46875 " transform="matrix(1,0,0,1,573,573)"/>
<path style="fill:none;stroke-width:2.267717;stroke-linecap:butt;stroke-linejoin:miter;stroke:rgb(20%,20%,70%);stroke-opacity:0.5;stroke-miterlimit:10;" d="M -412.019531 152.59375 L 88.445312 430.375 " transform="matrix(1,0,0,1,573,573)"/>
<path style="fill:none;stroke-width:2.267717;stroke-linecap:butt;stroke-linejoin:miter;stroke:rgb(20%,20%,70%);stroke-opacity:0.5;stroke-miterlimit:10;" d="M -419.21875 131.53125 L -22.253906 438.804688 " transform="matrix(1,0,0,1,573,573)"/>
<path style="fill:none;stroke-width:2.267717;stroke-linecap:butt;stroke-linejoin:miter;stroke:rgb(20%,20%,70%);stroke-opacity:0.5;stroke-miterlimit:10;" d="M -425.34375 110.128906 L -131.53125 419.21875 " transform="matrix(1,0,0,1,573,573)"/>
<path style="fill:none;stroke-width:2.267717;stroke-linecap:butt;stroke-linejoin:miter;stroke:rgb(20%,20%,70%);stroke-opacity:0.5;stroke-miterlimit:10;" d="M -430.375 88.445312 L -232.410156 372.867188 " transform="matrix(1,0,0,1,573,573)"/>
<path style="fill:none;stroke-width:2.267717;stroke-linecap:butt;stroke-linejoin:miter;stroke:rgb(20%,20%,70%);stroke-opacity:0.5;stroke-miterlimit:10;" d="M -434.304688 66.53125 L -318.453125 302.710938 " transform="matrix(1,0,0,1,573,573)"/>
<path style="fill:none;stroke-width:2.267717;stroke-linecap:butt;stroke-linejoin:miter;stroke:rgb(20%,20%,70%);stroke-opacity:0.5;stroke-miterlimit:10;" d="M -437.117188 44.449219 L -384.160156 213.226562 " transform="matrix(1,0,0,1,573,573)"/>
<path style="fill:none;stroke-width:2.267717;stroke-linecap:butt;stroke-linejoin:miter;stroke:rgb(20%,20%,70%);stroke-opacity:0.5;stroke-miterlimit:10;" d="M -438.804688 22.253906 L -425.34375 110.128906 " transform="matrix(1,0,0,1,573,573)"/>
<path style="fill:none;stroke-width:2.267717;stroke-linecap:butt;stroke-linejoin:miter;stroke:rgb(20%,20%,70%);stroke-opacity:0.5;stroke-miterlimit:10;" d="M -439.371094 0 L -439.371094 0 " transform="matrix(1,0,0,1,573,573)"/>
<path style="fill:none;stroke-width:2.267717;stroke-linecap:butt;stroke-linejoin:miter;stroke:rgb(20%,20%,70%);stroke-opacity:0.5;stroke-miterlimit:10;" d="M -438.804688 -22.253906 L -425.34375 -110.128906 " transform="matrix(1,0,0,1,573,573)"/>
<path style="fill:none;stroke-width:2.267717;stroke-linecap:butt;stroke-linejoin:miter;stroke:rgb(20%,20%,70%);stroke-opacity:0.5;stroke-miterlimit:10;" d="M -437.117188 -44.449219 L -384.160156 -213.226562 " transform="matrix(1,0,0,1,573,573)"/>
<path style="fill:none;stroke-width:2.267717;stroke-linecap:butt;stroke-linejoin:miter;stroke:rgb(20%,20%,70%);stroke-opacity:0.5;stroke-miterlimit:10;" d="M -434.304688 -66.53125 L -318.453125 -302.710938 " transform="matrix(1,0,0,1,573,573)"/>
<path style="fill:none;stroke-width:2.267717;stroke-linecap:butt;stroke-linejoin:miter;stroke:rgb(20%,20%,70%);stroke-opacity:0.5;stroke-miterlimit:10;" d="M -430.375 -88.445312 L -232.410156 -372.867188 " transform="matrix(1,0,0,1,573,573)"/>
<path style="fill:none;stroke-width:2.267717;stroke-linecap:butt;stroke-linejoin:miter;stroke:rgb(20%,20%,70%);stroke-opacity:0.5;stroke-miterlimit:10;" d="M -425.34375 -110.128906 L -131.53125 -419.21875 " transform="matrix(1,0,0,1,573,573)"/>
<path style="fill:none;stroke-width:2.267717;stroke-linecap:butt;stroke-linejoin:miter;stroke:rgb(20%,20%,70%);stroke-opacity:0.5;stroke-miterlimit:10;" d="M -419.21875 -131.53125 L -22.253906 -438.804688 " transform="matrix(1,0,0,1,573,573)"/>
<path style="fill:none;stroke-width:2.267717;stroke-linecap:butt;stroke-linejoin:miter;stroke:rgb(20%,20%,70%);stroke-opacity:0.5;stroke-miterlimit:10;" d="M -412.019531 -152.59375 L 88.445312 -430.375 " transform="matrix(1,0,0,1,573,573)"/>
<path style="fill:none;stroke-width:2.267717;stroke-linecap:butt;stroke-linejoin:miter;stroke:rgb(20%,20%,70%);stroke-opacity:0.5;stroke-miterlimit:10;" d="M -403.761719 -173.269531 L 193.496094 -394.46875 " transform="matrix(1,0,0,1,573,573)"/>
<path style="fill:none;stroke-width:2.267717;stroke-linecap:butt;stroke-linejoin:miter;stroke:rgb(20%,20%,70%);stroke-opacity:0.5;stroke-miterlimit:10;" d="M -394.46875 -193.496094 L 286.195312 -333.375 " transform="matrix(1,0,0,1,573,573)"/>
<path style="fill:none;stroke-width:2.267717;stroke-linecap:butt;stroke-linejoin:miter;stroke:rgb(20%,20%,70%);stroke-opacity:0.5;stroke-miterlimit:10;" d="M -384.160156 -213.226562 L 360.617188 -251 " transform="matrix(1,0,0,1,573,573)"/>
<path style="fill:none;stroke-width:2.267717;stroke-linecap:butt;stroke-linejoin:miter;stroke:rgb(20%,20%,70%);stroke-opacity:0.5;stroke-miterlimit:10;" d="M -372.867188 -232.410156 L 412.019531 -152.59375 " transform="matrix(1,0,0,1,573,573)"/>
<path style="fill:none;stroke-width:2.267717;stroke-linecap:butt;stroke-linejoin:miter;stroke:rgb(20%,20%,70%);stroke-opacity:0.5;stroke-miterlimit:10;" d="M -360.617188 -251 L 437.117188 -44.449219 " transform="matrix(1,0,0,1,573,573)"/>
<path style="fill:none;stroke-width:2.267717;stroke-linecap:butt;stroke-linejoin:miter;stroke:rgb(20%,20%,70%);stroke-opacity:0.5;stroke-miterlimit:10;" d="M -347.441406 -268.941406 L 434.304688 66.53125 " transform="matrix(1,0,0,1,573,573)"/>
<path style="fill:none;stroke-width:2.267717;stroke-linecap:butt;stroke-linejoin:miter;stroke:rgb(20%,20%,70%);stroke-opacity:0.5;stroke-miterlimit:10;" d="M -333.375 -286.195312 L 403.761719 173.269531 " transform="matrix(1,0,0,1,573,573)"/>
<path style="fill:none;stroke-width:2.267717;stroke-linecap:butt;stroke-linejoin:miter;stroke:rgb(20%,20%,70%);stroke-opacity:0.5;stroke-miterlimit:10;" d="M -318.453125 -302.710938 L 347.441406 268.941406 " transform="matrix(1,0,0,1,573,573)"/>
<path style="fill:none;stroke-width:2.267717;stroke-linecap:butt;stroke-linejoin:miter;stroke:rgb(20%,20%,70%);stroke-opacity:0.5;stroke-miterlimit:10;" d="M -302.710938 -318.453125 L 268.941406 347.441406 " transform="matrix(1,0,0,1,573,573)"/>
<path style="fill:none;stroke-width:2.267717;stroke-linecap:butt;stroke-linejoin:miter;stroke:rgb(20%,20%,70%);stroke-opacity:0.5;stroke-miterlimit:10;" d="M -286.195312 -333.375 L 173.269531 403.761719 " transform="matrix(1,0,0,1,573,573)"/>
<path style="fill:none;stroke-width:2.267717;stroke-linecap:butt;stroke-linejoin:miter;stroke:rgb(20%,20%,70%);stroke-opacity:0.5;stroke-miterlimit:10;" d="M -268.941406 -347.441406 L 66.53125 434.304688 " transform="matrix(1,0,0,1,573,573)"/>
<path style="fill:none;stroke-width:2.267717;stroke-linecap:butt;stroke-linejoin:miter;stroke:rgb(20%,20%,70%);stroke-opacity:0.5;stroke-miterlimit:10;" d="M -251 -360.617188 L -44.449219 437.117188 " transform="matrix(1,0,0,1,573,573)"/>
<path style="fill:none;stroke-width:2.267717;stroke-linecap:butt;stroke-linejoin:miter;stroke:rgb(20%,20%,70%);stroke-opacity:0.5;stroke-miterlimit:10;" d="M -232.410156 -372.867188 L -152.59375 412.019531 " transform="matrix(1,0,0,1,573,573)"/>
<path style="fill:none;stroke-width:2.267717;stroke-linecap:butt;stroke-linejoin:miter;stroke:rgb(20%,20%,70%);stroke-opacity:0.5;stroke-miterlimit:10;" d="M -213.226562 -384.160156 L -251 360.617188 " transform="matrix(1,0,0,1,573,573)"/>
<path style="fill:none;stroke-width:2.267717;stroke-linecap:butt;stroke-linejoin:miter;stroke:rgb(20%,20%,70%);stroke-opacity:0.5;stroke-miterlimit:10;" d="M -193.496094 -394.46875 L -333.375 286.195312 " transform="matrix(1,0,0,1,573,573)"/>
<path style="fill:none;stroke-width:2.267717;stroke-linecap:butt;stroke-linejoin:miter;stroke:rgb(20%,20%,70%);stroke-opacity:0.5;stroke-miterlimit:10;" d="M -173.269531 -403.761719 L -394.46875 193.496094 " transform="matrix(1,0,0,1,573,573)"/>
<path style="fill:none;stroke-width:2.267717;stroke-linecap:butt;stroke-linejoin:miter;stroke:rgb(20%,20%,70%);stroke-opacity:0.5;stroke-miterlimit:10;" d="M -152.59375 -412.019531 L -430.375 88.445312 " transform="matrix(1,0,0,1,573,573)"/>
<path style="fill:none;stroke-width:2.267717;stroke-linecap:butt;stroke-linejoin:miter;stroke:rgb(20%,20%,70%);stroke-opacity:0.5;stroke-miterlimit:10;" d="M -131.53125 -419.21875 L -438.804688 -22.253906 " transform="matrix(1,0,0,1,573,573)"/>
<path style="fill:none;stroke-width:2.267717;stroke-linecap:butt;stroke-linejoin:miter;stroke:rgb(20%,20%,70%);stroke-opacity:0.5;stroke-miterlimit:10;" d="M -110.128906 -425.34375 L -419.21875 -131.53125 " transform="matrix(1,0,0,1,573,573)"/>
<path style="fill:none;stroke-width:2.267717;stroke-linecap:butt;stroke-linejoin:miter;stroke:rgb(20%,20%,70%);stroke-opacity:0.5;stroke-miterlimit:10;" d="M -88.445312 -430.375 L -372.867188 -232.410156 " transform="matrix(1,0,0,1,573,573)"/>
<path style="fill:none;stroke-width:2.267717;stroke-linecap:butt;stroke-linejoin:miter;stroke:rgb(20%,20%,70%);stroke-opacity:0.5;stroke-miterlimit:10;" d="M -66.53125 -434.304688 L -302.710938 -318.453125 " transform="matrix(1,0,0,1,573,573)"/>
<path style="fill:none;stroke-width:2.267717;stroke-linecap:butt;stroke-linejoin:miter;stroke:rgb(20%,20%,70%);stroke-opacity:0.5;stroke-miterlimit:10;" d="M -44.449219 -437.117188 L -213.226562 -384.160156 " transform="matrix(1,0,0,1,573,573)"/>
<path style="fill:none;stroke-width:2.267717;stroke-linecap:butt;stroke-linejoin:miter;stroke:rgb(20%,20%,70%);stroke-opacity:0.5;stroke-miterlimit:10;" d="M -22.253906 -438.804688 L -110.128906 -425.34375 " transform="matrix(1,0,0,1,573,573)"/>
</g>
</svg>
