<?xml version="1.0" encoding="UTF-8"?>
<svg xmlns="http://www.w3.org/2000/svg" xmlns:xlink="http://www.w3.org/1999/xlink" width="740pt" height="740pt" viewBox="0 0 740 740" version="1.1">
<g id="surface12">
<path style="fill:none;stroke-width:0.566929;stroke-linecap:butt;stroke-linejoin:miter;stroke:rgb(100%,100%,100%);stroke-opacity:1;stroke-miterlimit:10;" d="M 368.503906 0 C 368.503906 -131.652344 298.265625 -253.308594 184.253906 -319.132812 C 70.238281 -384.960938 -70.238281 -384.960938 -184.253906 -319.132812 C -298.265625 -253.308594 -368.503906 -131.652344 -368.503906 0 C -368.503906 131.652344 -298.265625 253.308594 -184.253906 319.132812 C -70.238281 384.960938 70.238281 384.960938 184.253906 319.132812 C 298.265625 253.308594 368.503906 131.652344 368.503906 0 Z M 368.503906 0 " transform="matrix(1,0,0,1,370,370)"/>
<path style=" stroke:none;fill-rule:evenodd;fill:rgb(20%,20%,70%);fill-opacity:1;" d="M 372.835938 86.535156 C 372.835938 82.757812 367.164062 82.757812 367.164062 86.535156 C 367.164062 90.316406 372.835938 90.316406 372.835938 86.535156 Z M 372.835938 86.535156 "/>
<path style=" stroke:none;fill-rule:nonzero;fill:rgb(0%,0%,0%);fill-opacity:1;" d="M 368.421875 73.628906 C 368.484375 73.347656 368.734375 72.347656 369.5 72.347656 C 369.5625 72.347656 369.8125 72.347656 370.046875 72.488281 C 369.75 72.535156 369.53125 72.816406 369.53125 73.082031 C 369.53125 73.253906 369.640625 73.457031 369.9375 73.457031 C 370.1875 73.457031 370.53125 73.253906 370.53125 72.832031 C 370.53125 72.253906 369.890625 72.097656 369.515625 72.097656 C 368.875 72.097656 368.5 72.675781 368.375 72.941406 C 368.09375 72.207031 367.5 72.097656 367.1875 72.097656 C 366.0625 72.097656 365.4375 73.519531 365.4375 73.785156 C 365.4375 73.894531 365.546875 73.894531 365.5625 73.894531 C 365.65625 73.894531 365.6875 73.878906 365.703125 73.769531 C 366.078125 72.613281 366.796875 72.347656 367.171875 72.347656 C 367.375 72.347656 367.765625 72.441406 367.765625 73.082031 C 367.765625 73.410156 367.578125 74.144531 367.171875 75.675781 C 367 76.347656 366.609375 76.800781 366.140625 76.800781 C 366.0625 76.800781 365.8125 76.800781 365.59375 76.660156 C 365.859375 76.613281 366.09375 76.378906 366.09375 76.082031 C 366.09375 75.785156 365.859375 75.691406 365.703125 75.691406 C 365.375 75.691406 365.09375 75.972656 365.09375 76.332031 C 365.09375 76.832031 365.640625 77.050781 366.125 77.050781 C 366.84375 77.050781 367.234375 76.285156 367.265625 76.222656 C 367.40625 76.613281 367.796875 77.050781 368.453125 77.050781 C 369.5625 77.050781 370.1875 75.644531 370.1875 75.363281 C 370.1875 75.253906 370.09375 75.253906 370.0625 75.253906 C 369.96875 75.253906 369.9375 75.300781 369.921875 75.378906 C 369.5625 76.550781 368.8125 76.800781 368.46875 76.800781 C 368.046875 76.800781 367.875 76.457031 367.875 76.082031 C 367.875 75.847656 367.9375 75.613281 368.046875 75.128906 Z M 368.421875 73.628906 "/>
<path style=" stroke:none;fill-rule:nonzero;fill:rgb(0%,0%,0%);fill-opacity:1;" d="M 374.90625 70.421875 C 374.90625 69.578125 374.828125 69.0625 374.5625 68.546875 C 374.21875 67.84375 373.5625 67.671875 373.125 67.671875 C 372.125 67.671875 371.75 68.421875 371.640625 68.640625 C 371.359375 69.21875 371.34375 70.015625 371.34375 70.421875 C 371.34375 70.953125 371.359375 71.75 371.75 72.390625 C 372.109375 72.984375 372.703125 73.140625 373.125 73.140625 C 373.515625 73.140625 374.1875 73.015625 374.59375 72.234375 C 374.890625 71.65625 374.90625 70.9375 374.90625 70.421875 Z M 373.125 72.90625 C 372.859375 72.90625 372.3125 72.78125 372.140625 71.953125 C 372.046875 71.5 372.046875 70.75 372.046875 70.328125 C 372.046875 69.78125 372.046875 69.21875 372.140625 68.78125 C 372.3125 67.96875 372.921875 67.890625 373.125 67.890625 C 373.390625 67.890625 373.953125 68.03125 374.109375 68.75 C 374.203125 69.1875 374.203125 69.796875 374.203125 70.328125 C 374.203125 70.796875 374.203125 71.515625 374.109375 71.96875 C 373.9375 72.796875 373.390625 72.90625 373.125 72.90625 Z M 373.125 72.90625 "/>
<path style=" stroke:none;fill-rule:evenodd;fill:rgb(20%,20%,70%);fill-opacity:1;" d="M 446.199219 96.195312 C 446.199219 92.414062 440.53125 92.414062 440.53125 96.195312 C 440.53125 99.972656 446.199219 99.972656 446.199219 96.195312 Z M 446.199219 96.195312 "/>
<path style=" stroke:none;fill-rule:nonzero;fill:rgb(0%,0%,0%);fill-opacity:1;" d="M 445.621094 83.773438 C 445.683594 83.492188 445.933594 82.492188 446.699219 82.492188 C 446.761719 82.492188 447.011719 82.492188 447.246094 82.632812 C 446.949219 82.679688 446.730469 82.960938 446.730469 83.226562 C 446.730469 83.398438 446.839844 83.601562 447.136719 83.601562 C 447.386719 83.601562 447.730469 83.398438 447.730469 82.976562 C 447.730469 82.398438 447.089844 82.242188 446.714844 82.242188 C 446.074219 82.242188 445.699219 82.820312 445.574219 83.085938 C 445.292969 82.351562 444.699219 82.242188 444.386719 82.242188 C 443.261719 82.242188 442.636719 83.664062 442.636719 83.929688 C 442.636719 84.039062 442.746094 84.039062 442.761719 84.039062 C 442.855469 84.039062 442.886719 84.023438 442.902344 83.914062 C 443.277344 82.757812 443.996094 82.492188 444.371094 82.492188 C 444.574219 82.492188 444.964844 82.585938 444.964844 83.226562 C 444.964844 83.554688 444.777344 84.289062 444.371094 85.820312 C 444.199219 86.492188 443.808594 86.945312 443.339844 86.945312 C 443.261719 86.945312 443.011719 86.945312 442.792969 86.804688 C 443.058594 86.757812 443.292969 86.523438 443.292969 86.226562 C 443.292969 85.929688 443.058594 85.835938 442.902344 85.835938 C 442.574219 85.835938 442.292969 86.117188 442.292969 86.476562 C 442.292969 86.976562 442.839844 87.195312 443.324219 87.195312 C 444.042969 87.195312 444.433594 86.429688 444.464844 86.367188 C 444.605469 86.757812 444.996094 87.195312 445.652344 87.195312 C 446.761719 87.195312 447.386719 85.789062 447.386719 85.507812 C 447.386719 85.398438 447.292969 85.398438 447.261719 85.398438 C 447.167969 85.398438 447.136719 85.445312 447.121094 85.523438 C 446.761719 86.695312 446.011719 86.945312 445.667969 86.945312 C 445.246094 86.945312 445.074219 86.601562 445.074219 86.226562 C 445.074219 85.992188 445.136719 85.757812 445.246094 85.273438 Z M 445.621094 83.773438 "/>
<path style=" stroke:none;fill-rule:nonzero;fill:rgb(0%,0%,0%);fill-opacity:1;" d="M 450.714844 78.03125 C 450.714844 77.8125 450.699219 77.8125 450.480469 77.8125 C 450.152344 78.125 449.730469 78.3125 448.980469 78.3125 L 448.980469 78.578125 C 449.199219 78.578125 449.621094 78.578125 450.089844 78.375 L 450.089844 82.453125 C 450.089844 82.75 450.058594 82.84375 449.308594 82.84375 L 449.027344 82.84375 L 449.027344 83.109375 C 449.355469 83.078125 450.042969 83.078125 450.402344 83.078125 C 450.761719 83.078125 451.449219 83.078125 451.777344 83.109375 L 451.777344 82.84375 L 451.496094 82.84375 C 450.746094 82.84375 450.714844 82.75 450.714844 82.453125 Z M 450.714844 78.03125 "/>
<path style=" stroke:none;fill-rule:evenodd;fill:rgb(20%,20%,70%);fill-opacity:1;" d="M 514.566406 124.511719 C 514.566406 120.734375 508.898438 120.734375 508.898438 124.511719 C 508.898438 128.292969 514.566406 128.292969 514.566406 124.511719 Z M 514.566406 124.511719 "/>
<path style=" stroke:none;fill-rule:nonzero;fill:rgb(0%,0%,0%);fill-opacity:1;" d="M 517.289062 113.507812 C 517.351562 113.226562 517.601562 112.226562 518.367188 112.226562 C 518.429688 112.226562 518.679688 112.226562 518.914062 112.367188 C 518.617188 112.414062 518.398438 112.695312 518.398438 112.960938 C 518.398438 113.132812 518.507812 113.335938 518.804688 113.335938 C 519.054688 113.335938 519.398438 113.132812 519.398438 112.710938 C 519.398438 112.132812 518.757812 111.976562 518.382812 111.976562 C 517.742188 111.976562 517.367188 112.554688 517.242188 112.820312 C 516.960938 112.085938 516.367188 111.976562 516.054688 111.976562 C 514.929688 111.976562 514.304688 113.398438 514.304688 113.664062 C 514.304688 113.773438 514.414062 113.773438 514.429688 113.773438 C 514.523438 113.773438 514.554688 113.757812 514.570312 113.648438 C 514.945312 112.492188 515.664062 112.226562 516.039062 112.226562 C 516.242188 112.226562 516.632812 112.320312 516.632812 112.960938 C 516.632812 113.289062 516.445312 114.023438 516.039062 115.554688 C 515.867188 116.226562 515.476562 116.679688 515.007812 116.679688 C 514.929688 116.679688 514.679688 116.679688 514.460938 116.539062 C 514.726562 116.492188 514.960938 116.257812 514.960938 115.960938 C 514.960938 115.664062 514.726562 115.570312 514.570312 115.570312 C 514.242188 115.570312 513.960938 115.851562 513.960938 116.210938 C 513.960938 116.710938 514.507812 116.929688 514.992188 116.929688 C 515.710938 116.929688 516.101562 116.164062 516.132812 116.101562 C 516.273438 116.492188 516.664062 116.929688 517.320312 116.929688 C 518.429688 116.929688 519.054688 115.523438 519.054688 115.242188 C 519.054688 115.132812 518.960938 115.132812 518.929688 115.132812 C 518.835938 115.132812 518.804688 115.179688 518.789062 115.257812 C 518.429688 116.429688 517.679688 116.679688 517.335938 116.679688 C 516.914062 116.679688 516.742188 116.335938 516.742188 115.960938 C 516.742188 115.726562 516.804688 115.492188 516.914062 115.007812 Z M 517.289062 113.507812 "/>
<path style=" stroke:none;fill-rule:nonzero;fill:rgb(0%,0%,0%);fill-opacity:1;" d="M 522.132812 111.21875 C 522.257812 111.09375 522.585938 110.828125 522.726562 110.71875 C 523.210938 110.265625 523.679688 109.828125 523.679688 109.109375 C 523.679688 108.15625 522.882812 107.546875 521.898438 107.546875 C 520.929688 107.546875 520.304688 108.265625 520.304688 108.984375 C 520.304688 109.375 520.617188 109.421875 520.726562 109.421875 C 520.898438 109.421875 521.148438 109.3125 521.148438 109 C 521.148438 108.59375 520.742188 108.59375 520.648438 108.59375 C 520.882812 108 521.414062 107.8125 521.804688 107.8125 C 522.539062 107.8125 522.929688 108.4375 522.929688 109.109375 C 522.929688 109.9375 522.351562 110.546875 521.398438 111.5 L 520.398438 112.546875 C 520.304688 112.625 520.304688 112.640625 520.304688 112.84375 L 523.445312 112.84375 L 523.679688 111.421875 L 523.429688 111.421875 C 523.414062 111.578125 523.351562 111.96875 523.257812 112.125 C 523.210938 112.1875 522.601562 112.1875 522.476562 112.1875 L 521.054688 112.1875 Z M 522.132812 111.21875 "/>
<path style=" stroke:none;fill-rule:evenodd;fill:rgb(20%,20%,70%);fill-opacity:1;" d="M 573.273438 169.558594 C 573.273438 165.78125 567.605469 165.78125 567.605469 169.558594 C 567.605469 173.339844 573.273438 173.339844 573.273438 169.558594 Z M 573.273438 169.558594 "/>
<path style=" stroke:none;fill-rule:nonzero;fill:rgb(0%,0%,0%);fill-opacity:1;" d="M 578.890625 160.804688 C 578.953125 160.523438 579.203125 159.523438 579.96875 159.523438 C 580.03125 159.523438 580.28125 159.523438 580.515625 159.664062 C 580.21875 159.710938 580 159.992188 580 160.257812 C 580 160.429688 580.109375 160.632812 580.40625 160.632812 C 580.65625 160.632812 581 160.429688 581 160.007812 C 581 159.429688 580.359375 159.273438 579.984375 159.273438 C 579.34375 159.273438 578.96875 159.851562 578.84375 160.117188 C 578.5625 159.382812 577.96875 159.273438 577.65625 159.273438 C 576.53125 159.273438 575.90625 160.695312 575.90625 160.960938 C 575.90625 161.070312 576.015625 161.070312 576.03125 161.070312 C 576.125 161.070312 576.15625 161.054688 576.171875 160.945312 C 576.546875 159.789062 577.265625 159.523438 577.640625 159.523438 C 577.84375 159.523438 578.234375 159.617188 578.234375 160.257812 C 578.234375 160.585938 578.046875 161.320312 577.640625 162.851562 C 577.46875 163.523438 577.078125 163.976562 576.609375 163.976562 C 576.53125 163.976562 576.28125 163.976562 576.0625 163.835938 C 576.328125 163.789062 576.5625 163.554688 576.5625 163.257812 C 576.5625 162.960938 576.328125 162.867188 576.171875 162.867188 C 575.84375 162.867188 575.5625 163.148438 575.5625 163.507812 C 575.5625 164.007812 576.109375 164.226562 576.59375 164.226562 C 577.3125 164.226562 577.703125 163.460938 577.734375 163.398438 C 577.875 163.789062 578.265625 164.226562 578.921875 164.226562 C 580.03125 164.226562 580.65625 162.820312 580.65625 162.539062 C 580.65625 162.429688 580.5625 162.429688 580.53125 162.429688 C 580.4375 162.429688 580.40625 162.476562 580.390625 162.554688 C 580.03125 163.726562 579.28125 163.976562 578.9375 163.976562 C 578.515625 163.976562 578.34375 163.632812 578.34375 163.257812 C 578.34375 163.023438 578.40625 162.789062 578.515625 162.304688 Z M 578.890625 160.804688 "/>
<path style=" stroke:none;fill-rule:nonzero;fill:rgb(0%,0%,0%);fill-opacity:1;" d="M 583.5 157.488281 C 584.125 157.488281 584.53125 157.941406 584.53125 158.785156 C 584.53125 159.785156 583.96875 160.066406 583.546875 160.066406 C 583.109375 160.066406 582.5 159.910156 582.21875 159.488281 C 582.515625 159.488281 582.71875 159.300781 582.71875 159.050781 C 582.71875 158.785156 582.53125 158.613281 582.265625 158.613281 C 582.0625 158.613281 581.828125 158.738281 581.828125 159.066406 C 581.828125 159.816406 582.640625 160.316406 583.5625 160.316406 C 584.609375 160.316406 585.359375 159.582031 585.359375 158.785156 C 585.359375 158.113281 584.828125 157.519531 584.015625 157.332031 C 584.640625 157.113281 585.125 156.582031 585.125 155.941406 C 585.125 155.300781 584.40625 154.847656 583.578125 154.847656 C 582.71875 154.847656 582.078125 155.300781 582.078125 155.910156 C 582.078125 156.207031 582.265625 156.332031 582.484375 156.332031 C 582.734375 156.332031 582.890625 156.160156 582.890625 155.925781 C 582.890625 155.628906 582.625 155.519531 582.453125 155.519531 C 582.796875 155.082031 583.40625 155.050781 583.546875 155.050781 C 583.75 155.050781 584.359375 155.113281 584.359375 155.941406 C 584.359375 156.488281 584.125 156.832031 584.015625 156.957031 C 583.78125 157.207031 583.59375 157.222656 583.109375 157.253906 C 582.953125 157.253906 582.890625 157.269531 582.890625 157.378906 C 582.890625 157.488281 582.96875 157.488281 583.109375 157.488281 Z M 583.5 157.488281 "/>
<path style=" stroke:none;fill-rule:evenodd;fill:rgb(20%,20%,70%);fill-opacity:1;" d="M 618.320312 228.269531 C 618.320312 224.488281 612.652344 224.488281 612.652344 228.269531 C 612.652344 232.046875 618.320312 232.046875 618.320312 228.269531 Z M 618.320312 228.269531 "/>
<path style=" stroke:none;fill-rule:nonzero;fill:rgb(0%,0%,0%);fill-opacity:1;" d="M 626.136719 222.488281 C 626.199219 222.207031 626.449219 221.207031 627.214844 221.207031 C 627.277344 221.207031 627.527344 221.207031 627.761719 221.347656 C 627.464844 221.394531 627.246094 221.675781 627.246094 221.941406 C 627.246094 222.113281 627.355469 222.316406 627.652344 222.316406 C 627.902344 222.316406 628.246094 222.113281 628.246094 221.691406 C 628.246094 221.113281 627.605469 220.957031 627.230469 220.957031 C 626.589844 220.957031 626.214844 221.535156 626.089844 221.800781 C 625.808594 221.066406 625.214844 220.957031 624.902344 220.957031 C 623.777344 220.957031 623.152344 222.378906 623.152344 222.644531 C 623.152344 222.753906 623.261719 222.753906 623.277344 222.753906 C 623.371094 222.753906 623.402344 222.738281 623.417969 222.628906 C 623.792969 221.472656 624.511719 221.207031 624.886719 221.207031 C 625.089844 221.207031 625.480469 221.300781 625.480469 221.941406 C 625.480469 222.269531 625.292969 223.003906 624.886719 224.535156 C 624.714844 225.207031 624.324219 225.660156 623.855469 225.660156 C 623.777344 225.660156 623.527344 225.660156 623.308594 225.519531 C 623.574219 225.472656 623.808594 225.238281 623.808594 224.941406 C 623.808594 224.644531 623.574219 224.550781 623.417969 224.550781 C 623.089844 224.550781 622.808594 224.832031 622.808594 225.191406 C 622.808594 225.691406 623.355469 225.910156 623.839844 225.910156 C 624.558594 225.910156 624.949219 225.144531 624.980469 225.082031 C 625.121094 225.472656 625.511719 225.910156 626.167969 225.910156 C 627.277344 225.910156 627.902344 224.503906 627.902344 224.222656 C 627.902344 224.113281 627.808594 224.113281 627.777344 224.113281 C 627.683594 224.113281 627.652344 224.160156 627.636719 224.238281 C 627.277344 225.410156 626.527344 225.660156 626.183594 225.660156 C 625.761719 225.660156 625.589844 225.316406 625.589844 224.941406 C 625.589844 224.707031 625.652344 224.472656 625.761719 223.988281 Z M 626.136719 222.488281 "/>
<path style=" stroke:none;fill-rule:nonzero;fill:rgb(0%,0%,0%);fill-opacity:1;" d="M 631.871094 216.671875 C 631.871094 216.515625 631.871094 216.453125 631.699219 216.453125 C 631.605469 216.453125 631.589844 216.453125 631.511719 216.5625 L 628.964844 220.265625 L 628.964844 220.515625 L 631.214844 220.515625 L 631.214844 221.1875 C 631.214844 221.484375 631.199219 221.5625 630.574219 221.5625 L 630.402344 221.5625 L 630.402344 221.828125 C 631.074219 221.796875 631.089844 221.796875 631.542969 221.796875 C 631.996094 221.796875 632.011719 221.796875 632.683594 221.828125 L 632.683594 221.5625 L 632.511719 221.5625 C 631.886719 221.5625 631.871094 221.484375 631.871094 221.1875 L 631.871094 220.515625 L 632.714844 220.515625 L 632.714844 220.265625 L 631.871094 220.265625 Z M 631.277344 217.3125 L 631.277344 220.265625 L 629.246094 220.265625 Z M 631.277344 217.3125 "/>
<path style=" stroke:none;fill-rule:evenodd;fill:rgb(20%,20%,70%);fill-opacity:1;" d="M 646.640625 296.632812 C 646.640625 292.855469 640.972656 292.855469 640.972656 296.632812 C 640.972656 300.414062 646.640625 300.414062 646.640625 296.632812 Z M 646.640625 296.632812 "/>
<path style=" stroke:none;fill-rule:nonzero;fill:rgb(0%,0%,0%);fill-opacity:1;" d="M 655.964844 294.234375 C 656.027344 293.953125 656.277344 292.953125 657.042969 292.953125 C 657.105469 292.953125 657.355469 292.953125 657.589844 293.09375 C 657.292969 293.140625 657.074219 293.421875 657.074219 293.6875 C 657.074219 293.859375 657.183594 294.0625 657.480469 294.0625 C 657.730469 294.0625 658.074219 293.859375 658.074219 293.4375 C 658.074219 292.859375 657.433594 292.703125 657.058594 292.703125 C 656.417969 292.703125 656.042969 293.28125 655.917969 293.546875 C 655.636719 292.8125 655.042969 292.703125 654.730469 292.703125 C 653.605469 292.703125 652.980469 294.125 652.980469 294.390625 C 652.980469 294.5 653.089844 294.5 653.105469 294.5 C 653.199219 294.5 653.230469 294.484375 653.246094 294.375 C 653.621094 293.21875 654.339844 292.953125 654.714844 292.953125 C 654.917969 292.953125 655.308594 293.046875 655.308594 293.6875 C 655.308594 294.015625 655.121094 294.75 654.714844 296.28125 C 654.542969 296.953125 654.152344 297.40625 653.683594 297.40625 C 653.605469 297.40625 653.355469 297.40625 653.136719 297.265625 C 653.402344 297.21875 653.636719 296.984375 653.636719 296.6875 C 653.636719 296.390625 653.402344 296.296875 653.246094 296.296875 C 652.917969 296.296875 652.636719 296.578125 652.636719 296.9375 C 652.636719 297.4375 653.183594 297.65625 653.667969 297.65625 C 654.386719 297.65625 654.777344 296.890625 654.808594 296.828125 C 654.949219 297.21875 655.339844 297.65625 655.996094 297.65625 C 657.105469 297.65625 657.730469 296.25 657.730469 295.96875 C 657.730469 295.859375 657.636719 295.859375 657.605469 295.859375 C 657.511719 295.859375 657.480469 295.90625 657.464844 295.984375 C 657.105469 297.15625 656.355469 297.40625 656.011719 297.40625 C 655.589844 297.40625 655.417969 297.0625 655.417969 296.6875 C 655.417969 296.453125 655.480469 296.21875 655.589844 295.734375 Z M 655.964844 294.234375 "/>
<path style=" stroke:none;fill-rule:nonzero;fill:rgb(0%,0%,0%);fill-opacity:1;" d="M 659.667969 289.089844 C 659.777344 289.121094 660.089844 289.214844 660.433594 289.214844 C 661.433594 289.214844 662.027344 288.511719 662.027344 288.386719 C 662.027344 288.292969 661.980469 288.277344 661.933594 288.277344 C 661.917969 288.277344 661.902344 288.277344 661.839844 288.308594 C 661.527344 288.433594 661.152344 288.527344 660.730469 288.527344 C 660.261719 288.527344 659.871094 288.417969 659.621094 288.308594 C 659.542969 288.277344 659.527344 288.277344 659.511719 288.277344 C 659.417969 288.277344 659.417969 288.355469 659.417969 288.511719 L 659.417969 290.839844 C 659.417969 290.980469 659.417969 291.074219 659.542969 291.074219 C 659.605469 291.074219 659.621094 291.042969 659.667969 290.980469 C 659.761719 290.871094 660.058594 290.464844 660.746094 290.464844 C 661.183594 290.464844 661.402344 290.824219 661.480469 290.980469 C 661.605469 291.261719 661.621094 291.636719 661.621094 291.933594 C 661.621094 292.230469 661.621094 292.667969 661.402344 293.011719 C 661.246094 293.261719 660.917969 293.496094 660.496094 293.496094 C 659.980469 293.496094 659.480469 293.183594 659.292969 292.652344 C 659.308594 292.667969 659.371094 292.667969 659.371094 292.667969 C 659.589844 292.667969 659.777344 292.527344 659.777344 292.277344 C 659.777344 291.980469 659.542969 291.871094 659.386719 291.871094 C 659.230469 291.871094 658.980469 291.949219 658.980469 292.292969 C 658.980469 293.011719 659.605469 293.746094 660.511719 293.746094 C 661.511719 293.746094 662.355469 292.964844 662.355469 291.980469 C 662.355469 291.058594 661.683594 290.230469 660.746094 290.230469 C 660.355469 290.230469 659.980469 290.355469 659.667969 290.636719 Z M 659.667969 289.089844 "/>
<path style=" stroke:none;fill-rule:evenodd;fill:rgb(20%,20%,70%);fill-opacity:1;" d="M 656.300781 370 C 656.300781 366.21875 650.628906 366.21875 650.628906 370 C 650.628906 373.78125 656.300781 373.78125 656.300781 370 Z M 656.300781 370 "/>
<path style=" stroke:none;fill-rule:nonzero;fill:rgb(0%,0%,0%);fill-opacity:1;" d="M 666.066406 371.269531 C 666.128906 370.988281 666.378906 369.988281 667.144531 369.988281 C 667.207031 369.988281 667.457031 369.988281 667.691406 370.128906 C 667.394531 370.175781 667.175781 370.457031 667.175781 370.722656 C 667.175781 370.894531 667.285156 371.097656 667.582031 371.097656 C 667.832031 371.097656 668.175781 370.894531 668.175781 370.472656 C 668.175781 369.894531 667.535156 369.738281 667.160156 369.738281 C 666.519531 369.738281 666.144531 370.316406 666.019531 370.582031 C 665.738281 369.847656 665.144531 369.738281 664.832031 369.738281 C 663.707031 369.738281 663.082031 371.160156 663.082031 371.425781 C 663.082031 371.535156 663.191406 371.535156 663.207031 371.535156 C 663.300781 371.535156 663.332031 371.519531 663.347656 371.410156 C 663.722656 370.253906 664.441406 369.988281 664.816406 369.988281 C 665.019531 369.988281 665.410156 370.082031 665.410156 370.722656 C 665.410156 371.050781 665.222656 371.785156 664.816406 373.316406 C 664.644531 373.988281 664.253906 374.441406 663.785156 374.441406 C 663.707031 374.441406 663.457031 374.441406 663.238281 374.300781 C 663.503906 374.253906 663.738281 374.019531 663.738281 373.722656 C 663.738281 373.425781 663.503906 373.332031 663.347656 373.332031 C 663.019531 373.332031 662.738281 373.613281 662.738281 373.972656 C 662.738281 374.472656 663.285156 374.691406 663.769531 374.691406 C 664.488281 374.691406 664.878906 373.925781 664.910156 373.863281 C 665.050781 374.253906 665.441406 374.691406 666.097656 374.691406 C 667.207031 374.691406 667.832031 373.285156 667.832031 373.003906 C 667.832031 372.894531 667.738281 372.894531 667.707031 372.894531 C 667.613281 372.894531 667.582031 372.941406 667.566406 373.019531 C 667.207031 374.191406 666.457031 374.441406 666.113281 374.441406 C 665.691406 374.441406 665.519531 374.097656 665.519531 373.722656 C 665.519531 373.488281 665.582031 373.253906 665.691406 372.769531 Z M 666.066406 371.269531 "/>
<path style=" stroke:none;fill-rule:nonzero;fill:rgb(0%,0%,0%);fill-opacity:1;" d="M 669.753906 367.964844 C 669.753906 367.308594 669.816406 366.730469 670.097656 366.246094 C 670.347656 365.839844 670.753906 365.511719 671.253906 365.511719 C 671.410156 365.511719 671.769531 365.542969 671.957031 365.808594 C 671.597656 365.839844 671.566406 366.105469 671.566406 366.183594 C 671.566406 366.433594 671.753906 366.558594 671.941406 366.558594 C 672.082031 366.558594 672.316406 366.480469 672.316406 366.167969 C 672.316406 365.699219 671.957031 365.308594 671.238281 365.308594 C 670.128906 365.308594 669.003906 366.355469 669.003906 368.074219 C 669.003906 370.246094 670.019531 370.777344 670.785156 370.777344 C 671.175781 370.777344 671.582031 370.667969 671.941406 370.324219 C 672.269531 370.011719 672.535156 369.683594 672.535156 368.980469 C 672.535156 367.949219 671.738281 367.214844 670.863281 367.214844 C 670.285156 367.214844 669.941406 367.574219 669.753906 367.964844 Z M 670.785156 370.527344 C 670.363281 370.527344 670.097656 370.246094 669.988281 370.011719 C 669.800781 369.652344 669.785156 369.121094 669.785156 368.808594 C 669.785156 368.027344 670.207031 367.433594 670.832031 367.433594 C 671.222656 367.433594 671.472656 367.636719 671.613281 367.917969 C 671.785156 368.214844 671.785156 368.574219 671.785156 368.980469 C 671.785156 369.386719 671.785156 369.730469 671.628906 370.027344 C 671.410156 370.386719 671.144531 370.527344 670.785156 370.527344 Z M 670.785156 370.527344 "/>
<path style=" stroke:none;fill-rule:evenodd;fill:rgb(20%,20%,70%);fill-opacity:1;" d="M 646.640625 443.367188 C 646.640625 439.585938 640.972656 439.585938 640.972656 443.367188 C 640.972656 447.144531 646.640625 447.144531 646.640625 443.367188 Z M 646.640625 443.367188 "/>
<path style=" stroke:none;fill-rule:nonzero;fill:rgb(0%,0%,0%);fill-opacity:1;" d="M 655.808594 448.347656 C 655.871094 448.066406 656.121094 447.066406 656.886719 447.066406 C 656.949219 447.066406 657.199219 447.066406 657.433594 447.207031 C 657.136719 447.253906 656.917969 447.535156 656.917969 447.800781 C 656.917969 447.972656 657.027344 448.175781 657.324219 448.175781 C 657.574219 448.175781 657.917969 447.972656 657.917969 447.550781 C 657.917969 446.972656 657.277344 446.816406 656.902344 446.816406 C 656.261719 446.816406 655.886719 447.394531 655.761719 447.660156 C 655.480469 446.925781 654.886719 446.816406 654.574219 446.816406 C 653.449219 446.816406 652.824219 448.238281 652.824219 448.503906 C 652.824219 448.613281 652.933594 448.613281 652.949219 448.613281 C 653.042969 448.613281 653.074219 448.597656 653.089844 448.488281 C 653.464844 447.332031 654.183594 447.066406 654.558594 447.066406 C 654.761719 447.066406 655.152344 447.160156 655.152344 447.800781 C 655.152344 448.128906 654.964844 448.863281 654.558594 450.394531 C 654.386719 451.066406 653.996094 451.519531 653.527344 451.519531 C 653.449219 451.519531 653.199219 451.519531 652.980469 451.378906 C 653.246094 451.332031 653.480469 451.097656 653.480469 450.800781 C 653.480469 450.503906 653.246094 450.410156 653.089844 450.410156 C 652.761719 450.410156 652.480469 450.691406 652.480469 451.050781 C 652.480469 451.550781 653.027344 451.769531 653.511719 451.769531 C 654.230469 451.769531 654.621094 451.003906 654.652344 450.941406 C 654.792969 451.332031 655.183594 451.769531 655.839844 451.769531 C 656.949219 451.769531 657.574219 450.363281 657.574219 450.082031 C 657.574219 449.972656 657.480469 449.972656 657.449219 449.972656 C 657.355469 449.972656 657.324219 450.019531 657.308594 450.097656 C 656.949219 451.269531 656.199219 451.519531 655.855469 451.519531 C 655.433594 451.519531 655.261719 451.175781 655.261719 450.800781 C 655.261719 450.566406 655.324219 450.332031 655.433594 449.847656 Z M 655.808594 448.347656 "/>
<path style=" stroke:none;fill-rule:nonzero;fill:rgb(0%,0%,0%);fill-opacity:1;" d="M 662.433594 442.828125 C 662.511719 442.75 662.511719 442.734375 662.511719 442.5625 L 660.480469 442.5625 C 660.277344 442.5625 660.042969 442.546875 659.839844 442.53125 C 659.417969 442.5 659.417969 442.421875 659.386719 442.296875 L 659.136719 442.296875 L 658.871094 443.984375 L 659.121094 443.984375 C 659.136719 443.859375 659.230469 443.3125 659.339844 443.25 C 659.417969 443.203125 660.027344 443.203125 660.136719 443.203125 L 661.824219 443.203125 L 661.011719 444.3125 C 660.105469 445.515625 659.902344 446.78125 659.902344 447.40625 C 659.902344 447.484375 659.902344 447.859375 660.277344 447.859375 C 660.652344 447.859375 660.652344 447.5 660.652344 447.40625 L 660.652344 447.015625 C 660.652344 445.875 660.855469 444.9375 661.246094 444.40625 Z M 662.433594 442.828125 "/>
<path style=" stroke:none;fill-rule:evenodd;fill:rgb(20%,20%,70%);fill-opacity:1;" d="M 618.320312 511.730469 C 618.320312 507.953125 612.652344 507.953125 612.652344 511.730469 C 612.652344 515.511719 618.320312 515.511719 618.320312 511.730469 Z M 618.320312 511.730469 "/>
<path style=" stroke:none;fill-rule:nonzero;fill:rgb(0%,0%,0%);fill-opacity:1;" d="M 626.191406 520.085938 C 626.253906 519.804688 626.503906 518.804688 627.269531 518.804688 C 627.332031 518.804688 627.582031 518.804688 627.816406 518.945312 C 627.519531 518.992188 627.300781 519.273438 627.300781 519.539062 C 627.300781 519.710938 627.410156 519.914062 627.707031 519.914062 C 627.957031 519.914062 628.300781 519.710938 628.300781 519.289062 C 628.300781 518.710938 627.660156 518.554688 627.285156 518.554688 C 626.644531 518.554688 626.269531 519.132812 626.144531 519.398438 C 625.863281 518.664062 625.269531 518.554688 624.957031 518.554688 C 623.832031 518.554688 623.207031 519.976562 623.207031 520.242188 C 623.207031 520.351562 623.316406 520.351562 623.332031 520.351562 C 623.425781 520.351562 623.457031 520.335938 623.472656 520.226562 C 623.847656 519.070312 624.566406 518.804688 624.941406 518.804688 C 625.144531 518.804688 625.535156 518.898438 625.535156 519.539062 C 625.535156 519.867188 625.347656 520.601562 624.941406 522.132812 C 624.769531 522.804688 624.378906 523.257812 623.910156 523.257812 C 623.832031 523.257812 623.582031 523.257812 623.363281 523.117188 C 623.628906 523.070312 623.863281 522.835938 623.863281 522.539062 C 623.863281 522.242188 623.628906 522.148438 623.472656 522.148438 C 623.144531 522.148438 622.863281 522.429688 622.863281 522.789062 C 622.863281 523.289062 623.410156 523.507812 623.894531 523.507812 C 624.613281 523.507812 625.003906 522.742188 625.035156 522.679688 C 625.175781 523.070312 625.566406 523.507812 626.222656 523.507812 C 627.332031 523.507812 627.957031 522.101562 627.957031 521.820312 C 627.957031 521.710938 627.863281 521.710938 627.832031 521.710938 C 627.738281 521.710938 627.707031 521.757812 627.691406 521.835938 C 627.332031 523.007812 626.582031 523.257812 626.238281 523.257812 C 625.816406 523.257812 625.644531 522.914062 625.644531 522.539062 C 625.644531 522.304688 625.707031 522.070312 625.816406 521.585938 Z M 626.191406 520.085938 "/>
<path style=" stroke:none;fill-rule:nonzero;fill:rgb(0%,0%,0%);fill-opacity:1;" d="M 631.425781 516.550781 C 631.878906 516.332031 632.425781 515.941406 632.425781 515.316406 C 632.425781 514.550781 631.644531 514.128906 630.910156 514.128906 C 630.066406 514.128906 629.378906 514.707031 629.378906 515.457031 C 629.378906 515.753906 629.472656 516.019531 629.675781 516.253906 C 629.816406 516.425781 629.847656 516.441406 630.332031 516.753906 C 629.347656 517.191406 629.128906 517.769531 629.128906 518.207031 C 629.128906 519.097656 630.019531 519.597656 630.894531 519.597656 C 631.863281 519.597656 632.660156 518.925781 632.660156 518.082031 C 632.660156 517.582031 632.394531 517.253906 632.253906 517.113281 C 632.128906 516.988281 632.113281 516.972656 631.425781 516.550781 Z M 630.191406 515.800781 C 629.957031 515.660156 629.769531 515.425781 629.769531 515.160156 C 629.769531 514.660156 630.316406 514.332031 630.894531 514.332031 C 631.503906 514.332031 632.019531 514.753906 632.019531 515.316406 C 632.019531 515.769531 631.660156 516.160156 631.191406 516.394531 Z M 630.582031 516.894531 C 630.613281 516.910156 631.519531 517.472656 631.660156 517.550781 C 631.785156 517.628906 632.207031 517.878906 632.207031 518.363281 C 632.207031 518.972656 631.550781 519.347656 630.910156 519.347656 C 630.191406 519.347656 629.597656 518.863281 629.597656 518.207031 C 629.597656 517.613281 630.035156 517.144531 630.582031 516.894531 Z M 630.582031 516.894531 "/>
<path style=" stroke:none;fill-rule:evenodd;fill:rgb(20%,20%,70%);fill-opacity:1;" d="M 573.273438 570.441406 C 573.273438 566.660156 567.605469 566.660156 567.605469 570.441406 C 567.605469 574.21875 573.273438 574.21875 573.273438 570.441406 Z M 573.273438 570.441406 "/>
<path style=" stroke:none;fill-rule:nonzero;fill:rgb(0%,0%,0%);fill-opacity:1;" d="M 578.890625 581.730469 C 578.953125 581.449219 579.203125 580.449219 579.96875 580.449219 C 580.03125 580.449219 580.28125 580.449219 580.515625 580.589844 C 580.21875 580.636719 580 580.917969 580 581.183594 C 580 581.355469 580.109375 581.558594 580.40625 581.558594 C 580.65625 581.558594 581 581.355469 581 580.933594 C 581 580.355469 580.359375 580.199219 579.984375 580.199219 C 579.34375 580.199219 578.96875 580.777344 578.84375 581.042969 C 578.5625 580.308594 577.96875 580.199219 577.65625 580.199219 C 576.53125 580.199219 575.90625 581.621094 575.90625 581.886719 C 575.90625 581.996094 576.015625 581.996094 576.03125 581.996094 C 576.125 581.996094 576.15625 581.980469 576.171875 581.871094 C 576.546875 580.714844 577.265625 580.449219 577.640625 580.449219 C 577.84375 580.449219 578.234375 580.542969 578.234375 581.183594 C 578.234375 581.511719 578.046875 582.246094 577.640625 583.777344 C 577.46875 584.449219 577.078125 584.902344 576.609375 584.902344 C 576.53125 584.902344 576.28125 584.902344 576.0625 584.761719 C 576.328125 584.714844 576.5625 584.480469 576.5625 584.183594 C 576.5625 583.886719 576.328125 583.792969 576.171875 583.792969 C 575.84375 583.792969 575.5625 584.074219 575.5625 584.433594 C 575.5625 584.933594 576.109375 585.152344 576.59375 585.152344 C 577.3125 585.152344 577.703125 584.386719 577.734375 584.324219 C 577.875 584.714844 578.265625 585.152344 578.921875 585.152344 C 580.03125 585.152344 580.65625 583.746094 580.65625 583.464844 C 580.65625 583.355469 580.5625 583.355469 580.53125 583.355469 C 580.4375 583.355469 580.40625 583.402344 580.390625 583.480469 C 580.03125 584.652344 579.28125 584.902344 578.9375 584.902344 C 578.515625 584.902344 578.34375 584.558594 578.34375 584.183594 C 578.34375 583.949219 578.40625 583.714844 578.515625 583.230469 Z M 578.890625 581.730469 "/>
<path style=" stroke:none;fill-rule:nonzero;fill:rgb(0%,0%,0%);fill-opacity:1;" d="M 584.609375 578.726562 C 584.609375 580.664062 583.6875 580.992188 583.21875 580.992188 C 583.046875 580.992188 582.640625 580.976562 582.421875 580.726562 C 582.78125 580.695312 582.796875 580.429688 582.796875 580.351562 C 582.796875 580.117188 582.609375 579.976562 582.421875 579.976562 C 582.28125 579.976562 582.046875 580.070312 582.046875 580.367188 C 582.046875 580.914062 582.5 581.242188 583.234375 581.242188 C 584.328125 581.242188 585.359375 580.148438 585.359375 578.445312 C 585.359375 576.382812 584.4375 575.773438 583.625 575.773438 C 582.671875 575.773438 581.828125 576.507812 581.828125 577.554688 C 581.828125 578.570312 582.609375 579.320312 583.515625 579.320312 C 584.078125 579.320312 584.421875 578.960938 584.609375 578.554688 Z M 583.546875 579.101562 C 583.171875 579.101562 582.9375 578.929688 582.765625 578.632812 C 582.578125 578.351562 582.578125 577.960938 582.578125 577.554688 C 582.578125 577.085938 582.578125 576.757812 582.796875 576.429688 C 583 576.132812 583.25 575.976562 583.625 575.976562 C 584.15625 575.976562 584.390625 576.507812 584.421875 576.539062 C 584.578125 576.929688 584.59375 577.554688 584.59375 577.710938 C 584.59375 578.351562 584.25 579.101562 583.546875 579.101562 Z M 583.546875 579.101562 "/>
<path style=" stroke:none;fill-rule:evenodd;fill:rgb(20%,20%,70%);fill-opacity:1;" d="M 514.566406 615.488281 C 514.566406 611.707031 508.898438 611.707031 508.898438 615.488281 C 508.898438 619.265625 514.566406 619.265625 514.566406 615.488281 Z M 514.566406 615.488281 "/>
<path style=" stroke:none;fill-rule:nonzero;fill:rgb(0%,0%,0%);fill-opacity:1;" d="M 515.125 629.03125 C 515.1875 628.75 515.4375 627.75 516.203125 627.75 C 516.265625 627.75 516.515625 627.75 516.75 627.890625 C 516.453125 627.9375 516.234375 628.21875 516.234375 628.484375 C 516.234375 628.65625 516.34375 628.859375 516.640625 628.859375 C 516.890625 628.859375 517.234375 628.65625 517.234375 628.234375 C 517.234375 627.65625 516.59375 627.5 516.21875 627.5 C 515.578125 627.5 515.203125 628.078125 515.078125 628.34375 C 514.796875 627.609375 514.203125 627.5 513.890625 627.5 C 512.765625 627.5 512.140625 628.921875 512.140625 629.1875 C 512.140625 629.296875 512.25 629.296875 512.265625 629.296875 C 512.359375 629.296875 512.390625 629.28125 512.40625 629.171875 C 512.78125 628.015625 513.5 627.75 513.875 627.75 C 514.078125 627.75 514.46875 627.84375 514.46875 628.484375 C 514.46875 628.8125 514.28125 629.546875 513.875 631.078125 C 513.703125 631.75 513.3125 632.203125 512.84375 632.203125 C 512.765625 632.203125 512.515625 632.203125 512.296875 632.0625 C 512.5625 632.015625 512.796875 631.78125 512.796875 631.484375 C 512.796875 631.1875 512.5625 631.09375 512.40625 631.09375 C 512.078125 631.09375 511.796875 631.375 511.796875 631.734375 C 511.796875 632.234375 512.34375 632.453125 512.828125 632.453125 C 513.546875 632.453125 513.9375 631.6875 513.96875 631.625 C 514.109375 632.015625 514.5 632.453125 515.15625 632.453125 C 516.265625 632.453125 516.890625 631.046875 516.890625 630.765625 C 516.890625 630.65625 516.796875 630.65625 516.765625 630.65625 C 516.671875 630.65625 516.640625 630.703125 516.625 630.78125 C 516.265625 631.953125 515.515625 632.203125 515.171875 632.203125 C 514.75 632.203125 514.578125 631.859375 514.578125 631.484375 C 514.578125 631.25 514.640625 631.015625 514.75 630.53125 Z M 515.125 629.03125 "/>
<path style=" stroke:none;fill-rule:nonzero;fill:rgb(0%,0%,0%);fill-opacity:1;" d="M 520.21875 623.289062 C 520.21875 623.070312 520.203125 623.070312 519.984375 623.070312 C 519.65625 623.382812 519.234375 623.570312 518.484375 623.570312 L 518.484375 623.835938 C 518.703125 623.835938 519.125 623.835938 519.59375 623.632812 L 519.59375 627.710938 C 519.59375 628.007812 519.5625 628.101562 518.8125 628.101562 L 518.53125 628.101562 L 518.53125 628.367188 C 518.859375 628.335938 519.546875 628.335938 519.90625 628.335938 C 520.265625 628.335938 520.953125 628.335938 521.28125 628.367188 L 521.28125 628.101562 L 521 628.101562 C 520.25 628.101562 520.21875 628.007812 520.21875 627.710938 Z M 520.21875 623.289062 "/>
<path style=" stroke:none;fill-rule:nonzero;fill:rgb(0%,0%,0%);fill-opacity:1;" d="M 525.84375 625.820312 C 525.84375 624.976562 525.765625 624.460938 525.5 623.945312 C 525.15625 623.242188 524.5 623.070312 524.0625 623.070312 C 523.0625 623.070312 522.6875 623.820312 522.578125 624.039062 C 522.296875 624.617188 522.28125 625.414062 522.28125 625.820312 C 522.28125 626.351562 522.296875 627.148438 522.6875 627.789062 C 523.046875 628.382812 523.640625 628.539062 524.0625 628.539062 C 524.453125 628.539062 525.125 628.414062 525.53125 627.632812 C 525.828125 627.054688 525.84375 626.335938 525.84375 625.820312 Z M 524.0625 628.304688 C 523.796875 628.304688 523.25 628.179688 523.078125 627.351562 C 522.984375 626.898438 522.984375 626.148438 522.984375 625.726562 C 522.984375 625.179688 522.984375 624.617188 523.078125 624.179688 C 523.25 623.367188 523.859375 623.289062 524.0625 623.289062 C 524.328125 623.289062 524.890625 623.429688 525.046875 624.148438 C 525.140625 624.585938 525.140625 625.195312 525.140625 625.726562 C 525.140625 626.195312 525.140625 626.914062 525.046875 627.367188 C 524.875 628.195312 524.328125 628.304688 524.0625 628.304688 Z M 524.0625 628.304688 "/>
<path style=" stroke:none;fill-rule:evenodd;fill:rgb(20%,20%,70%);fill-opacity:1;" d="M 446.199219 643.804688 C 446.199219 640.027344 440.53125 640.027344 440.53125 643.804688 C 440.53125 647.585938 446.199219 647.585938 446.199219 643.804688 Z M 446.199219 643.804688 "/>
<path style=" stroke:none;fill-rule:nonzero;fill:rgb(0%,0%,0%);fill-opacity:1;" d="M 443.503906 658.765625 C 443.566406 658.484375 443.816406 657.484375 444.582031 657.484375 C 444.644531 657.484375 444.894531 657.484375 445.128906 657.625 C 444.832031 657.671875 444.613281 657.953125 444.613281 658.21875 C 444.613281 658.390625 444.722656 658.59375 445.019531 658.59375 C 445.269531 658.59375 445.613281 658.390625 445.613281 657.96875 C 445.613281 657.390625 444.972656 657.234375 444.597656 657.234375 C 443.957031 657.234375 443.582031 657.8125 443.457031 658.078125 C 443.175781 657.34375 442.582031 657.234375 442.269531 657.234375 C 441.144531 657.234375 440.519531 658.65625 440.519531 658.921875 C 440.519531 659.03125 440.628906 659.03125 440.644531 659.03125 C 440.738281 659.03125 440.769531 659.015625 440.785156 658.90625 C 441.160156 657.75 441.878906 657.484375 442.253906 657.484375 C 442.457031 657.484375 442.847656 657.578125 442.847656 658.21875 C 442.847656 658.546875 442.660156 659.28125 442.253906 660.8125 C 442.082031 661.484375 441.691406 661.9375 441.222656 661.9375 C 441.144531 661.9375 440.894531 661.9375 440.675781 661.796875 C 440.941406 661.75 441.175781 661.515625 441.175781 661.21875 C 441.175781 660.921875 440.941406 660.828125 440.785156 660.828125 C 440.457031 660.828125 440.175781 661.109375 440.175781 661.46875 C 440.175781 661.96875 440.722656 662.1875 441.207031 662.1875 C 441.925781 662.1875 442.316406 661.421875 442.347656 661.359375 C 442.488281 661.75 442.878906 662.1875 443.535156 662.1875 C 444.644531 662.1875 445.269531 660.78125 445.269531 660.5 C 445.269531 660.390625 445.175781 660.390625 445.144531 660.390625 C 445.050781 660.390625 445.019531 660.4375 445.003906 660.515625 C 444.644531 661.6875 443.894531 661.9375 443.550781 661.9375 C 443.128906 661.9375 442.957031 661.59375 442.957031 661.21875 C 442.957031 660.984375 443.019531 660.75 443.128906 660.265625 Z M 443.503906 658.765625 "/>
<path style=" stroke:none;fill-rule:nonzero;fill:rgb(0%,0%,0%);fill-opacity:1;" d="M 448.597656 653.023438 C 448.597656 652.804688 448.582031 652.804688 448.363281 652.804688 C 448.035156 653.117188 447.613281 653.304688 446.863281 653.304688 L 446.863281 653.570312 C 447.082031 653.570312 447.503906 653.570312 447.972656 653.367188 L 447.972656 657.445312 C 447.972656 657.742188 447.941406 657.835938 447.191406 657.835938 L 446.910156 657.835938 L 446.910156 658.101562 C 447.238281 658.070312 447.925781 658.070312 448.285156 658.070312 C 448.644531 658.070312 449.332031 658.070312 449.660156 658.101562 L 449.660156 657.835938 L 449.378906 657.835938 C 448.628906 657.835938 448.597656 657.742188 448.597656 657.445312 Z M 448.597656 653.023438 "/>
<path style=" stroke:none;fill-rule:nonzero;fill:rgb(0%,0%,0%);fill-opacity:1;" d="M 452.832031 653.023438 C 452.832031 652.804688 452.816406 652.804688 452.597656 652.804688 C 452.269531 653.117188 451.847656 653.304688 451.097656 653.304688 L 451.097656 653.570312 C 451.316406 653.570312 451.738281 653.570312 452.207031 653.367188 L 452.207031 657.445312 C 452.207031 657.742188 452.175781 657.835938 451.425781 657.835938 L 451.144531 657.835938 L 451.144531 658.101562 C 451.472656 658.070312 452.160156 658.070312 452.519531 658.070312 C 452.878906 658.070312 453.566406 658.070312 453.894531 658.101562 L 453.894531 657.835938 L 453.613281 657.835938 C 452.863281 657.835938 452.832031 657.742188 452.832031 657.445312 Z M 452.832031 653.023438 "/>
<path style=" stroke:none;fill-rule:evenodd;fill:rgb(20%,20%,70%);fill-opacity:1;" d="M 372.835938 653.464844 C 372.835938 649.683594 367.164062 649.683594 367.164062 653.464844 C 367.164062 657.242188 372.835938 657.242188 372.835938 653.464844 Z M 372.835938 653.464844 "/>
<path style=" stroke:none;fill-rule:nonzero;fill:rgb(0%,0%,0%);fill-opacity:1;" d="M 366.351562 668.90625 C 366.414062 668.625 366.664062 667.625 367.429688 667.625 C 367.492188 667.625 367.742188 667.625 367.976562 667.765625 C 367.679688 667.8125 367.460938 668.09375 367.460938 668.359375 C 367.460938 668.53125 367.570312 668.734375 367.867188 668.734375 C 368.117188 668.734375 368.460938 668.53125 368.460938 668.109375 C 368.460938 667.53125 367.820312 667.375 367.445312 667.375 C 366.804688 667.375 366.429688 667.953125 366.304688 668.21875 C 366.023438 667.484375 365.429688 667.375 365.117188 667.375 C 363.992188 667.375 363.367188 668.796875 363.367188 669.0625 C 363.367188 669.171875 363.476562 669.171875 363.492188 669.171875 C 363.585938 669.171875 363.617188 669.15625 363.632812 669.046875 C 364.007812 667.890625 364.726562 667.625 365.101562 667.625 C 365.304688 667.625 365.695312 667.71875 365.695312 668.359375 C 365.695312 668.6875 365.507812 669.421875 365.101562 670.953125 C 364.929688 671.625 364.539062 672.078125 364.070312 672.078125 C 363.992188 672.078125 363.742188 672.078125 363.523438 671.9375 C 363.789062 671.890625 364.023438 671.65625 364.023438 671.359375 C 364.023438 671.0625 363.789062 670.96875 363.632812 670.96875 C 363.304688 670.96875 363.023438 671.25 363.023438 671.609375 C 363.023438 672.109375 363.570312 672.328125 364.054688 672.328125 C 364.773438 672.328125 365.164062 671.5625 365.195312 671.5 C 365.335938 671.890625 365.726562 672.328125 366.382812 672.328125 C 367.492188 672.328125 368.117188 670.921875 368.117188 670.640625 C 368.117188 670.53125 368.023438 670.53125 367.992188 670.53125 C 367.898438 670.53125 367.867188 670.578125 367.851562 670.65625 C 367.492188 671.828125 366.742188 672.078125 366.398438 672.078125 C 365.976562 672.078125 365.804688 671.734375 365.804688 671.359375 C 365.804688 671.125 365.867188 670.890625 365.976562 670.40625 Z M 366.351562 668.90625 "/>
<path style=" stroke:none;fill-rule:nonzero;fill:rgb(0%,0%,0%);fill-opacity:1;" d="M 371.445312 663.167969 C 371.445312 662.949219 371.429688 662.949219 371.210938 662.949219 C 370.882812 663.261719 370.460938 663.449219 369.710938 663.449219 L 369.710938 663.714844 C 369.929688 663.714844 370.351562 663.714844 370.820312 663.511719 L 370.820312 667.589844 C 370.820312 667.886719 370.789062 667.980469 370.039062 667.980469 L 369.757812 667.980469 L 369.757812 668.246094 C 370.085938 668.214844 370.773438 668.214844 371.132812 668.214844 C 371.492188 668.214844 372.179688 668.214844 372.507812 668.246094 L 372.507812 667.980469 L 372.226562 667.980469 C 371.476562 667.980469 371.445312 667.886719 371.445312 667.589844 Z M 371.445312 663.167969 "/>
<path style=" stroke:none;fill-rule:nonzero;fill:rgb(0%,0%,0%);fill-opacity:1;" d="M 375.429688 666.621094 C 375.554688 666.496094 375.882812 666.230469 376.023438 666.121094 C 376.507812 665.667969 376.976562 665.230469 376.976562 664.511719 C 376.976562 663.558594 376.179688 662.949219 375.195312 662.949219 C 374.226562 662.949219 373.601562 663.667969 373.601562 664.386719 C 373.601562 664.777344 373.914062 664.824219 374.023438 664.824219 C 374.195312 664.824219 374.445312 664.714844 374.445312 664.402344 C 374.445312 663.996094 374.039062 663.996094 373.945312 663.996094 C 374.179688 663.402344 374.710938 663.214844 375.101562 663.214844 C 375.835938 663.214844 376.226562 663.839844 376.226562 664.511719 C 376.226562 665.339844 375.648438 665.949219 374.695312 666.902344 L 373.695312 667.949219 C 373.601562 668.027344 373.601562 668.042969 373.601562 668.246094 L 376.742188 668.246094 L 376.976562 666.824219 L 376.726562 666.824219 C 376.710938 666.980469 376.648438 667.371094 376.554688 667.527344 C 376.507812 667.589844 375.898438 667.589844 375.773438 667.589844 L 374.351562 667.589844 Z M 375.429688 666.621094 "/>
<path style=" stroke:none;fill-rule:evenodd;fill:rgb(20%,20%,70%);fill-opacity:1;" d="M 299.46875 643.804688 C 299.46875 640.027344 293.800781 640.027344 293.800781 643.804688 C 293.800781 647.585938 299.46875 647.585938 299.46875 643.804688 Z M 299.46875 643.804688 "/>
<path style=" stroke:none;fill-rule:nonzero;fill:rgb(0%,0%,0%);fill-opacity:1;" d="M 289.277344 658.765625 C 289.339844 658.484375 289.589844 657.484375 290.355469 657.484375 C 290.417969 657.484375 290.667969 657.484375 290.902344 657.625 C 290.605469 657.671875 290.386719 657.953125 290.386719 658.21875 C 290.386719 658.390625 290.496094 658.59375 290.792969 658.59375 C 291.042969 658.59375 291.386719 658.390625 291.386719 657.96875 C 291.386719 657.390625 290.746094 657.234375 290.371094 657.234375 C 289.730469 657.234375 289.355469 657.8125 289.230469 658.078125 C 288.949219 657.34375 288.355469 657.234375 288.042969 657.234375 C 286.917969 657.234375 286.292969 658.65625 286.292969 658.921875 C 286.292969 659.03125 286.402344 659.03125 286.417969 659.03125 C 286.511719 659.03125 286.542969 659.015625 286.558594 658.90625 C 286.933594 657.75 287.652344 657.484375 288.027344 657.484375 C 288.230469 657.484375 288.621094 657.578125 288.621094 658.21875 C 288.621094 658.546875 288.433594 659.28125 288.027344 660.8125 C 287.855469 661.484375 287.464844 661.9375 286.996094 661.9375 C 286.917969 661.9375 286.667969 661.9375 286.449219 661.796875 C 286.714844 661.75 286.949219 661.515625 286.949219 661.21875 C 286.949219 660.921875 286.714844 660.828125 286.558594 660.828125 C 286.230469 660.828125 285.949219 661.109375 285.949219 661.46875 C 285.949219 661.96875 286.496094 662.1875 286.980469 662.1875 C 287.699219 662.1875 288.089844 661.421875 288.121094 661.359375 C 288.261719 661.75 288.652344 662.1875 289.308594 662.1875 C 290.417969 662.1875 291.042969 660.78125 291.042969 660.5 C 291.042969 660.390625 290.949219 660.390625 290.917969 660.390625 C 290.824219 660.390625 290.792969 660.4375 290.777344 660.515625 C 290.417969 661.6875 289.667969 661.9375 289.324219 661.9375 C 288.902344 661.9375 288.730469 661.59375 288.730469 661.21875 C 288.730469 660.984375 288.792969 660.75 288.902344 660.265625 Z M 289.277344 658.765625 "/>
<path style=" stroke:none;fill-rule:nonzero;fill:rgb(0%,0%,0%);fill-opacity:1;" d="M 294.371094 653.023438 C 294.371094 652.804688 294.355469 652.804688 294.136719 652.804688 C 293.808594 653.117188 293.386719 653.304688 292.636719 653.304688 L 292.636719 653.570312 C 292.855469 653.570312 293.277344 653.570312 293.746094 653.367188 L 293.746094 657.445312 C 293.746094 657.742188 293.714844 657.835938 292.964844 657.835938 L 292.683594 657.835938 L 292.683594 658.101562 C 293.011719 658.070312 293.699219 658.070312 294.058594 658.070312 C 294.417969 658.070312 295.105469 658.070312 295.433594 658.101562 L 295.433594 657.835938 L 295.152344 657.835938 C 294.402344 657.835938 294.371094 657.742188 294.371094 657.445312 Z M 294.371094 653.023438 "/>
<path style=" stroke:none;fill-rule:nonzero;fill:rgb(0%,0%,0%);fill-opacity:1;" d="M 298.121094 655.445312 C 298.746094 655.445312 299.152344 655.898438 299.152344 656.742188 C 299.152344 657.742188 298.589844 658.023438 298.167969 658.023438 C 297.730469 658.023438 297.121094 657.867188 296.839844 657.445312 C 297.136719 657.445312 297.339844 657.257812 297.339844 657.007812 C 297.339844 656.742188 297.152344 656.570312 296.886719 656.570312 C 296.683594 656.570312 296.449219 656.695312 296.449219 657.023438 C 296.449219 657.773438 297.261719 658.273438 298.183594 658.273438 C 299.230469 658.273438 299.980469 657.539062 299.980469 656.742188 C 299.980469 656.070312 299.449219 655.476562 298.636719 655.289062 C 299.261719 655.070312 299.746094 654.539062 299.746094 653.898438 C 299.746094 653.257812 299.027344 652.804688 298.199219 652.804688 C 297.339844 652.804688 296.699219 653.257812 296.699219 653.867188 C 296.699219 654.164062 296.886719 654.289062 297.105469 654.289062 C 297.355469 654.289062 297.511719 654.117188 297.511719 653.882812 C 297.511719 653.585938 297.246094 653.476562 297.074219 653.476562 C 297.417969 653.039062 298.027344 653.007812 298.167969 653.007812 C 298.371094 653.007812 298.980469 653.070312 298.980469 653.898438 C 298.980469 654.445312 298.746094 654.789062 298.636719 654.914062 C 298.402344 655.164062 298.214844 655.179688 297.730469 655.210938 C 297.574219 655.210938 297.511719 655.226562 297.511719 655.335938 C 297.511719 655.445312 297.589844 655.445312 297.730469 655.445312 Z M 298.121094 655.445312 "/>
<path style=" stroke:none;fill-rule:evenodd;fill:rgb(20%,20%,70%);fill-opacity:1;" d="M 231.101562 615.488281 C 231.101562 611.707031 225.433594 611.707031 225.433594 615.488281 C 225.433594 619.265625 231.101562 619.265625 231.101562 615.488281 Z M 231.101562 615.488281 "/>
<path style=" stroke:none;fill-rule:nonzero;fill:rgb(0%,0%,0%);fill-opacity:1;" d="M 217.4375 629.070312 C 217.5 628.789062 217.75 627.789062 218.515625 627.789062 C 218.578125 627.789062 218.828125 627.789062 219.0625 627.929688 C 218.765625 627.976562 218.546875 628.257812 218.546875 628.523438 C 218.546875 628.695312 218.65625 628.898438 218.953125 628.898438 C 219.203125 628.898438 219.546875 628.695312 219.546875 628.273438 C 219.546875 627.695312 218.90625 627.539062 218.53125 627.539062 C 217.890625 627.539062 217.515625 628.117188 217.390625 628.382812 C 217.109375 627.648438 216.515625 627.539062 216.203125 627.539062 C 215.078125 627.539062 214.453125 628.960938 214.453125 629.226562 C 214.453125 629.335938 214.5625 629.335938 214.578125 629.335938 C 214.671875 629.335938 214.703125 629.320312 214.71875 629.210938 C 215.09375 628.054688 215.8125 627.789062 216.1875 627.789062 C 216.390625 627.789062 216.78125 627.882812 216.78125 628.523438 C 216.78125 628.851562 216.59375 629.585938 216.1875 631.117188 C 216.015625 631.789062 215.625 632.242188 215.15625 632.242188 C 215.078125 632.242188 214.828125 632.242188 214.609375 632.101562 C 214.875 632.054688 215.109375 631.820312 215.109375 631.523438 C 215.109375 631.226562 214.875 631.132812 214.71875 631.132812 C 214.390625 631.132812 214.109375 631.414062 214.109375 631.773438 C 214.109375 632.273438 214.65625 632.492188 215.140625 632.492188 C 215.859375 632.492188 216.25 631.726562 216.28125 631.664062 C 216.421875 632.054688 216.8125 632.492188 217.46875 632.492188 C 218.578125 632.492188 219.203125 631.085938 219.203125 630.804688 C 219.203125 630.695312 219.109375 630.695312 219.078125 630.695312 C 218.984375 630.695312 218.953125 630.742188 218.9375 630.820312 C 218.578125 631.992188 217.828125 632.242188 217.484375 632.242188 C 217.0625 632.242188 216.890625 631.898438 216.890625 631.523438 C 216.890625 631.289062 216.953125 631.054688 217.0625 630.570312 Z M 217.4375 629.070312 "/>
<path style=" stroke:none;fill-rule:nonzero;fill:rgb(0%,0%,0%);fill-opacity:1;" d="M 222.53125 623.328125 C 222.53125 623.109375 222.515625 623.109375 222.296875 623.109375 C 221.96875 623.421875 221.546875 623.609375 220.796875 623.609375 L 220.796875 623.875 C 221.015625 623.875 221.4375 623.875 221.90625 623.671875 L 221.90625 627.75 C 221.90625 628.046875 221.875 628.140625 221.125 628.140625 L 220.84375 628.140625 L 220.84375 628.40625 C 221.171875 628.375 221.859375 628.375 222.21875 628.375 C 222.578125 628.375 223.265625 628.375 223.59375 628.40625 L 223.59375 628.140625 L 223.3125 628.140625 C 222.5625 628.140625 222.53125 628.046875 222.53125 627.75 Z M 222.53125 623.328125 "/>
<path style=" stroke:none;fill-rule:nonzero;fill:rgb(0%,0%,0%);fill-opacity:1;" d="M 227.40625 623.25 C 227.40625 623.09375 227.40625 623.03125 227.234375 623.03125 C 227.140625 623.03125 227.125 623.03125 227.046875 623.140625 L 224.5 626.84375 L 224.5 627.09375 L 226.75 627.09375 L 226.75 627.765625 C 226.75 628.0625 226.734375 628.140625 226.109375 628.140625 L 225.9375 628.140625 L 225.9375 628.40625 C 226.609375 628.375 226.625 628.375 227.078125 628.375 C 227.53125 628.375 227.546875 628.375 228.21875 628.40625 L 228.21875 628.140625 L 228.046875 628.140625 C 227.421875 628.140625 227.40625 628.0625 227.40625 627.765625 L 227.40625 627.09375 L 228.25 627.09375 L 228.25 626.84375 L 227.40625 626.84375 Z M 226.8125 623.890625 L 226.8125 626.84375 L 224.78125 626.84375 Z M 226.8125 623.890625 "/>
<path style=" stroke:none;fill-rule:evenodd;fill:rgb(20%,20%,70%);fill-opacity:1;" d="M 172.394531 570.441406 C 172.394531 566.660156 166.726562 566.660156 166.726562 570.441406 C 166.726562 574.21875 172.394531 574.21875 172.394531 570.441406 Z M 172.394531 570.441406 "/>
<path style=" stroke:none;fill-rule:nonzero;fill:rgb(0%,0%,0%);fill-opacity:1;" d="M 155.890625 581.730469 C 155.953125 581.449219 156.203125 580.449219 156.96875 580.449219 C 157.03125 580.449219 157.28125 580.449219 157.515625 580.589844 C 157.21875 580.636719 157 580.917969 157 581.183594 C 157 581.355469 157.109375 581.558594 157.40625 581.558594 C 157.65625 581.558594 158 581.355469 158 580.933594 C 158 580.355469 157.359375 580.199219 156.984375 580.199219 C 156.34375 580.199219 155.96875 580.777344 155.84375 581.042969 C 155.5625 580.308594 154.96875 580.199219 154.65625 580.199219 C 153.53125 580.199219 152.90625 581.621094 152.90625 581.886719 C 152.90625 581.996094 153.015625 581.996094 153.03125 581.996094 C 153.125 581.996094 153.15625 581.980469 153.171875 581.871094 C 153.546875 580.714844 154.265625 580.449219 154.640625 580.449219 C 154.84375 580.449219 155.234375 580.542969 155.234375 581.183594 C 155.234375 581.511719 155.046875 582.246094 154.640625 583.777344 C 154.46875 584.449219 154.078125 584.902344 153.609375 584.902344 C 153.53125 584.902344 153.28125 584.902344 153.0625 584.761719 C 153.328125 584.714844 153.5625 584.480469 153.5625 584.183594 C 153.5625 583.886719 153.328125 583.792969 153.171875 583.792969 C 152.84375 583.792969 152.5625 584.074219 152.5625 584.433594 C 152.5625 584.933594 153.109375 585.152344 153.59375 585.152344 C 154.3125 585.152344 154.703125 584.386719 154.734375 584.324219 C 154.875 584.714844 155.265625 585.152344 155.921875 585.152344 C 157.03125 585.152344 157.65625 583.746094 157.65625 583.464844 C 157.65625 583.355469 157.5625 583.355469 157.53125 583.355469 C 157.4375 583.355469 157.40625 583.402344 157.390625 583.480469 C 157.03125 584.652344 156.28125 584.902344 155.9375 584.902344 C 155.515625 584.902344 155.34375 584.558594 155.34375 584.183594 C 155.34375 583.949219 155.40625 583.714844 155.515625 583.230469 Z M 155.890625 581.730469 "/>
<path style=" stroke:none;fill-rule:nonzero;fill:rgb(0%,0%,0%);fill-opacity:1;" d="M 160.984375 575.992188 C 160.984375 575.773438 160.96875 575.773438 160.75 575.773438 C 160.421875 576.085938 160 576.273438 159.25 576.273438 L 159.25 576.539062 C 159.46875 576.539062 159.890625 576.539062 160.359375 576.335938 L 160.359375 580.414062 C 160.359375 580.710938 160.328125 580.804688 159.578125 580.804688 L 159.296875 580.804688 L 159.296875 581.070312 C 159.625 581.039062 160.3125 581.039062 160.671875 581.039062 C 161.03125 581.039062 161.71875 581.039062 162.046875 581.070312 L 162.046875 580.804688 L 161.765625 580.804688 C 161.015625 580.804688 160.984375 580.710938 160.984375 580.414062 Z M 160.984375 575.992188 "/>
<path style=" stroke:none;fill-rule:nonzero;fill:rgb(0%,0%,0%);fill-opacity:1;" d="M 163.828125 576.585938 C 163.9375 576.617188 164.25 576.710938 164.59375 576.710938 C 165.59375 576.710938 166.1875 576.007812 166.1875 575.882812 C 166.1875 575.789062 166.140625 575.773438 166.09375 575.773438 C 166.078125 575.773438 166.0625 575.773438 166 575.804688 C 165.6875 575.929688 165.3125 576.023438 164.890625 576.023438 C 164.421875 576.023438 164.03125 575.914062 163.78125 575.804688 C 163.703125 575.773438 163.6875 575.773438 163.671875 575.773438 C 163.578125 575.773438 163.578125 575.851562 163.578125 576.007812 L 163.578125 578.335938 C 163.578125 578.476562 163.578125 578.570312 163.703125 578.570312 C 163.765625 578.570312 163.78125 578.539062 163.828125 578.476562 C 163.921875 578.367188 164.21875 577.960938 164.90625 577.960938 C 165.34375 577.960938 165.5625 578.320312 165.640625 578.476562 C 165.765625 578.757812 165.78125 579.132812 165.78125 579.429688 C 165.78125 579.726562 165.78125 580.164062 165.5625 580.507812 C 165.40625 580.757812 165.078125 580.992188 164.65625 580.992188 C 164.140625 580.992188 163.640625 580.679688 163.453125 580.148438 C 163.46875 580.164062 163.53125 580.164062 163.53125 580.164062 C 163.75 580.164062 163.9375 580.023438 163.9375 579.773438 C 163.9375 579.476562 163.703125 579.367188 163.546875 579.367188 C 163.390625 579.367188 163.140625 579.445312 163.140625 579.789062 C 163.140625 580.507812 163.765625 581.242188 164.671875 581.242188 C 165.671875 581.242188 166.515625 580.460938 166.515625 579.476562 C 166.515625 578.554688 165.84375 577.726562 164.90625 577.726562 C 164.515625 577.726562 164.140625 577.851562 163.828125 578.132812 Z M 163.828125 576.585938 "/>
<path style=" stroke:none;fill-rule:evenodd;fill:rgb(20%,20%,70%);fill-opacity:1;" d="M 127.347656 511.730469 C 127.347656 507.953125 121.679688 507.953125 121.679688 511.730469 C 121.679688 515.511719 127.347656 515.511719 127.347656 511.730469 Z M 127.347656 511.730469 "/>
<path style=" stroke:none;fill-rule:nonzero;fill:rgb(0%,0%,0%);fill-opacity:1;" d="M 108.550781 520.085938 C 108.613281 519.804688 108.863281 518.804688 109.628906 518.804688 C 109.691406 518.804688 109.941406 518.804688 110.175781 518.945312 C 109.878906 518.992188 109.660156 519.273438 109.660156 519.539062 C 109.660156 519.710938 109.769531 519.914062 110.066406 519.914062 C 110.316406 519.914062 110.660156 519.710938 110.660156 519.289062 C 110.660156 518.710938 110.019531 518.554688 109.644531 518.554688 C 109.003906 518.554688 108.628906 519.132812 108.503906 519.398438 C 108.222656 518.664062 107.628906 518.554688 107.316406 518.554688 C 106.191406 518.554688 105.566406 519.976562 105.566406 520.242188 C 105.566406 520.351562 105.675781 520.351562 105.691406 520.351562 C 105.785156 520.351562 105.816406 520.335938 105.832031 520.226562 C 106.207031 519.070312 106.925781 518.804688 107.300781 518.804688 C 107.503906 518.804688 107.894531 518.898438 107.894531 519.539062 C 107.894531 519.867188 107.707031 520.601562 107.300781 522.132812 C 107.128906 522.804688 106.738281 523.257812 106.269531 523.257812 C 106.191406 523.257812 105.941406 523.257812 105.722656 523.117188 C 105.988281 523.070312 106.222656 522.835938 106.222656 522.539062 C 106.222656 522.242188 105.988281 522.148438 105.832031 522.148438 C 105.503906 522.148438 105.222656 522.429688 105.222656 522.789062 C 105.222656 523.289062 105.769531 523.507812 106.253906 523.507812 C 106.972656 523.507812 107.363281 522.742188 107.394531 522.679688 C 107.535156 523.070312 107.925781 523.507812 108.582031 523.507812 C 109.691406 523.507812 110.316406 522.101562 110.316406 521.820312 C 110.316406 521.710938 110.222656 521.710938 110.191406 521.710938 C 110.097656 521.710938 110.066406 521.757812 110.050781 521.835938 C 109.691406 523.007812 108.941406 523.257812 108.597656 523.257812 C 108.175781 523.257812 108.003906 522.914062 108.003906 522.539062 C 108.003906 522.304688 108.066406 522.070312 108.175781 521.585938 Z M 108.550781 520.085938 "/>
<path style=" stroke:none;fill-rule:nonzero;fill:rgb(0%,0%,0%);fill-opacity:1;" d="M 113.644531 514.347656 C 113.644531 514.128906 113.628906 514.128906 113.410156 514.128906 C 113.082031 514.441406 112.660156 514.628906 111.910156 514.628906 L 111.910156 514.894531 C 112.128906 514.894531 112.550781 514.894531 113.019531 514.691406 L 113.019531 518.769531 C 113.019531 519.066406 112.988281 519.160156 112.238281 519.160156 L 111.957031 519.160156 L 111.957031 519.425781 C 112.285156 519.394531 112.972656 519.394531 113.332031 519.394531 C 113.691406 519.394531 114.378906 519.394531 114.707031 519.425781 L 114.707031 519.160156 L 114.425781 519.160156 C 113.675781 519.160156 113.644531 519.066406 113.644531 518.769531 Z M 113.644531 514.347656 "/>
<path style=" stroke:none;fill-rule:nonzero;fill:rgb(0%,0%,0%);fill-opacity:1;" d="M 116.472656 516.785156 C 116.472656 516.128906 116.535156 515.550781 116.816406 515.066406 C 117.066406 514.660156 117.472656 514.332031 117.972656 514.332031 C 118.128906 514.332031 118.488281 514.363281 118.675781 514.628906 C 118.316406 514.660156 118.285156 514.925781 118.285156 515.003906 C 118.285156 515.253906 118.472656 515.378906 118.660156 515.378906 C 118.800781 515.378906 119.035156 515.300781 119.035156 514.988281 C 119.035156 514.519531 118.675781 514.128906 117.957031 514.128906 C 116.847656 514.128906 115.722656 515.175781 115.722656 516.894531 C 115.722656 519.066406 116.738281 519.597656 117.503906 519.597656 C 117.894531 519.597656 118.300781 519.488281 118.660156 519.144531 C 118.988281 518.832031 119.253906 518.503906 119.253906 517.800781 C 119.253906 516.769531 118.457031 516.035156 117.582031 516.035156 C 117.003906 516.035156 116.660156 516.394531 116.472656 516.785156 Z M 117.503906 519.347656 C 117.082031 519.347656 116.816406 519.066406 116.707031 518.832031 C 116.519531 518.472656 116.503906 517.941406 116.503906 517.628906 C 116.503906 516.847656 116.925781 516.253906 117.550781 516.253906 C 117.941406 516.253906 118.191406 516.457031 118.332031 516.738281 C 118.503906 517.035156 118.503906 517.394531 118.503906 517.800781 C 118.503906 518.207031 118.503906 518.550781 118.347656 518.847656 C 118.128906 519.207031 117.863281 519.347656 117.503906 519.347656 Z M 117.503906 519.347656 "/>
<path style=" stroke:none;fill-rule:evenodd;fill:rgb(20%,20%,70%);fill-opacity:1;" d="M 99.027344 443.367188 C 99.027344 439.585938 93.359375 439.585938 93.359375 443.367188 C 93.359375 447.144531 99.027344 447.144531 99.027344 443.367188 Z M 99.027344 443.367188 "/>
<path style=" stroke:none;fill-rule:nonzero;fill:rgb(0%,0%,0%);fill-opacity:1;" d="M 78.699219 448.347656 C 78.761719 448.066406 79.011719 447.066406 79.777344 447.066406 C 79.839844 447.066406 80.089844 447.066406 80.324219 447.207031 C 80.027344 447.253906 79.808594 447.535156 79.808594 447.800781 C 79.808594 447.972656 79.917969 448.175781 80.214844 448.175781 C 80.464844 448.175781 80.808594 447.972656 80.808594 447.550781 C 80.808594 446.972656 80.167969 446.816406 79.792969 446.816406 C 79.152344 446.816406 78.777344 447.394531 78.652344 447.660156 C 78.371094 446.925781 77.777344 446.816406 77.464844 446.816406 C 76.339844 446.816406 75.714844 448.238281 75.714844 448.503906 C 75.714844 448.613281 75.824219 448.613281 75.839844 448.613281 C 75.933594 448.613281 75.964844 448.597656 75.980469 448.488281 C 76.355469 447.332031 77.074219 447.066406 77.449219 447.066406 C 77.652344 447.066406 78.042969 447.160156 78.042969 447.800781 C 78.042969 448.128906 77.855469 448.863281 77.449219 450.394531 C 77.277344 451.066406 76.886719 451.519531 76.417969 451.519531 C 76.339844 451.519531 76.089844 451.519531 75.871094 451.378906 C 76.136719 451.332031 76.371094 451.097656 76.371094 450.800781 C 76.371094 450.503906 76.136719 450.410156 75.980469 450.410156 C 75.652344 450.410156 75.371094 450.691406 75.371094 451.050781 C 75.371094 451.550781 75.917969 451.769531 76.402344 451.769531 C 77.121094 451.769531 77.511719 451.003906 77.542969 450.941406 C 77.683594 451.332031 78.074219 451.769531 78.730469 451.769531 C 79.839844 451.769531 80.464844 450.363281 80.464844 450.082031 C 80.464844 449.972656 80.371094 449.972656 80.339844 449.972656 C 80.246094 449.972656 80.214844 450.019531 80.199219 450.097656 C 79.839844 451.269531 79.089844 451.519531 78.746094 451.519531 C 78.324219 451.519531 78.152344 451.175781 78.152344 450.800781 C 78.152344 450.566406 78.214844 450.332031 78.324219 449.847656 Z M 78.699219 448.347656 "/>
<path style=" stroke:none;fill-rule:nonzero;fill:rgb(0%,0%,0%);fill-opacity:1;" d="M 83.792969 442.609375 C 83.792969 442.390625 83.777344 442.390625 83.558594 442.390625 C 83.230469 442.703125 82.808594 442.890625 82.058594 442.890625 L 82.058594 443.15625 C 82.277344 443.15625 82.699219 443.15625 83.167969 442.953125 L 83.167969 447.03125 C 83.167969 447.328125 83.136719 447.421875 82.386719 447.421875 L 82.105469 447.421875 L 82.105469 447.6875 C 82.433594 447.65625 83.121094 447.65625 83.480469 447.65625 C 83.839844 447.65625 84.527344 447.65625 84.855469 447.6875 L 84.855469 447.421875 L 84.574219 447.421875 C 83.824219 447.421875 83.792969 447.328125 83.792969 447.03125 Z M 83.792969 442.609375 "/>
<path style=" stroke:none;fill-rule:nonzero;fill:rgb(0%,0%,0%);fill-opacity:1;" d="M 89.558594 442.828125 C 89.636719 442.75 89.636719 442.734375 89.636719 442.5625 L 87.605469 442.5625 C 87.402344 442.5625 87.167969 442.546875 86.964844 442.53125 C 86.542969 442.5 86.542969 442.421875 86.511719 442.296875 L 86.261719 442.296875 L 85.996094 443.984375 L 86.246094 443.984375 C 86.261719 443.859375 86.355469 443.3125 86.464844 443.25 C 86.542969 443.203125 87.152344 443.203125 87.261719 443.203125 L 88.949219 443.203125 L 88.136719 444.3125 C 87.230469 445.515625 87.027344 446.78125 87.027344 447.40625 C 87.027344 447.484375 87.027344 447.859375 87.402344 447.859375 C 87.777344 447.859375 87.777344 447.5 87.777344 447.40625 L 87.777344 447.015625 C 87.777344 445.875 87.980469 444.9375 88.371094 444.40625 Z M 89.558594 442.828125 "/>
<path style=" stroke:none;fill-rule:evenodd;fill:rgb(20%,20%,70%);fill-opacity:1;" d="M 89.371094 370 C 89.371094 366.21875 83.699219 366.21875 83.699219 370 C 83.699219 373.78125 89.371094 373.78125 89.371094 370 Z M 89.371094 370 "/>
<path style=" stroke:none;fill-rule:nonzero;fill:rgb(0%,0%,0%);fill-opacity:1;" d="M 68.675781 371.269531 C 68.738281 370.988281 68.988281 369.988281 69.753906 369.988281 C 69.816406 369.988281 70.066406 369.988281 70.300781 370.128906 C 70.003906 370.175781 69.785156 370.457031 69.785156 370.722656 C 69.785156 370.894531 69.894531 371.097656 70.191406 371.097656 C 70.441406 371.097656 70.785156 370.894531 70.785156 370.472656 C 70.785156 369.894531 70.144531 369.738281 69.769531 369.738281 C 69.128906 369.738281 68.753906 370.316406 68.628906 370.582031 C 68.347656 369.847656 67.753906 369.738281 67.441406 369.738281 C 66.316406 369.738281 65.691406 371.160156 65.691406 371.425781 C 65.691406 371.535156 65.800781 371.535156 65.816406 371.535156 C 65.910156 371.535156 65.941406 371.519531 65.957031 371.410156 C 66.332031 370.253906 67.050781 369.988281 67.425781 369.988281 C 67.628906 369.988281 68.019531 370.082031 68.019531 370.722656 C 68.019531 371.050781 67.832031 371.785156 67.425781 373.316406 C 67.253906 373.988281 66.863281 374.441406 66.394531 374.441406 C 66.316406 374.441406 66.066406 374.441406 65.847656 374.300781 C 66.113281 374.253906 66.347656 374.019531 66.347656 373.722656 C 66.347656 373.425781 66.113281 373.332031 65.957031 373.332031 C 65.628906 373.332031 65.347656 373.613281 65.347656 373.972656 C 65.347656 374.472656 65.894531 374.691406 66.378906 374.691406 C 67.097656 374.691406 67.488281 373.925781 67.519531 373.863281 C 67.660156 374.253906 68.050781 374.691406 68.707031 374.691406 C 69.816406 374.691406 70.441406 373.285156 70.441406 373.003906 C 70.441406 372.894531 70.347656 372.894531 70.316406 372.894531 C 70.222656 372.894531 70.191406 372.941406 70.175781 373.019531 C 69.816406 374.191406 69.066406 374.441406 68.722656 374.441406 C 68.300781 374.441406 68.128906 374.097656 68.128906 373.722656 C 68.128906 373.488281 68.191406 373.253906 68.300781 372.769531 Z M 68.675781 371.269531 "/>
<path style=" stroke:none;fill-rule:nonzero;fill:rgb(0%,0%,0%);fill-opacity:1;" d="M 73.769531 365.527344 C 73.769531 365.308594 73.753906 365.308594 73.535156 365.308594 C 73.207031 365.621094 72.785156 365.808594 72.035156 365.808594 L 72.035156 366.074219 C 72.253906 366.074219 72.675781 366.074219 73.144531 365.871094 L 73.144531 369.949219 C 73.144531 370.246094 73.113281 370.339844 72.363281 370.339844 L 72.082031 370.339844 L 72.082031 370.605469 C 72.410156 370.574219 73.097656 370.574219 73.457031 370.574219 C 73.816406 370.574219 74.503906 370.574219 74.832031 370.605469 L 74.832031 370.339844 L 74.550781 370.339844 C 73.800781 370.339844 73.769531 370.246094 73.769531 369.949219 Z M 73.769531 365.527344 "/>
<path style=" stroke:none;fill-rule:nonzero;fill:rgb(0%,0%,0%);fill-opacity:1;" d="M 78.144531 367.730469 C 78.597656 367.511719 79.144531 367.121094 79.144531 366.496094 C 79.144531 365.730469 78.363281 365.308594 77.628906 365.308594 C 76.785156 365.308594 76.097656 365.886719 76.097656 366.636719 C 76.097656 366.933594 76.191406 367.199219 76.394531 367.433594 C 76.535156 367.605469 76.566406 367.621094 77.050781 367.933594 C 76.066406 368.371094 75.847656 368.949219 75.847656 369.386719 C 75.847656 370.277344 76.738281 370.777344 77.613281 370.777344 C 78.582031 370.777344 79.378906 370.105469 79.378906 369.261719 C 79.378906 368.761719 79.113281 368.433594 78.972656 368.292969 C 78.847656 368.167969 78.832031 368.152344 78.144531 367.730469 Z M 76.910156 366.980469 C 76.675781 366.839844 76.488281 366.605469 76.488281 366.339844 C 76.488281 365.839844 77.035156 365.511719 77.613281 365.511719 C 78.222656 365.511719 78.738281 365.933594 78.738281 366.496094 C 78.738281 366.949219 78.378906 367.339844 77.910156 367.574219 Z M 77.300781 368.074219 C 77.332031 368.089844 78.238281 368.652344 78.378906 368.730469 C 78.503906 368.808594 78.925781 369.058594 78.925781 369.542969 C 78.925781 370.152344 78.269531 370.527344 77.628906 370.527344 C 76.910156 370.527344 76.316406 370.042969 76.316406 369.386719 C 76.316406 368.792969 76.753906 368.324219 77.300781 368.074219 Z M 77.300781 368.074219 "/>
<path style=" stroke:none;fill-rule:evenodd;fill:rgb(20%,20%,70%);fill-opacity:1;" d="M 99.027344 296.632812 C 99.027344 292.855469 93.359375 292.855469 93.359375 296.632812 C 93.359375 300.414062 99.027344 300.414062 99.027344 296.632812 Z M 99.027344 296.632812 "/>
<path style=" stroke:none;fill-rule:nonzero;fill:rgb(0%,0%,0%);fill-opacity:1;" d="M 78.816406 294.234375 C 78.878906 293.953125 79.128906 292.953125 79.894531 292.953125 C 79.957031 292.953125 80.207031 292.953125 80.441406 293.09375 C 80.144531 293.140625 79.925781 293.421875 79.925781 293.6875 C 79.925781 293.859375 80.035156 294.0625 80.332031 294.0625 C 80.582031 294.0625 80.925781 293.859375 80.925781 293.4375 C 80.925781 292.859375 80.285156 292.703125 79.910156 292.703125 C 79.269531 292.703125 78.894531 293.28125 78.769531 293.546875 C 78.488281 292.8125 77.894531 292.703125 77.582031 292.703125 C 76.457031 292.703125 75.832031 294.125 75.832031 294.390625 C 75.832031 294.5 75.941406 294.5 75.957031 294.5 C 76.050781 294.5 76.082031 294.484375 76.097656 294.375 C 76.472656 293.21875 77.191406 292.953125 77.566406 292.953125 C 77.769531 292.953125 78.160156 293.046875 78.160156 293.6875 C 78.160156 294.015625 77.972656 294.75 77.566406 296.28125 C 77.394531 296.953125 77.003906 297.40625 76.535156 297.40625 C 76.457031 297.40625 76.207031 297.40625 75.988281 297.265625 C 76.253906 297.21875 76.488281 296.984375 76.488281 296.6875 C 76.488281 296.390625 76.253906 296.296875 76.097656 296.296875 C 75.769531 296.296875 75.488281 296.578125 75.488281 296.9375 C 75.488281 297.4375 76.035156 297.65625 76.519531 297.65625 C 77.238281 297.65625 77.628906 296.890625 77.660156 296.828125 C 77.800781 297.21875 78.191406 297.65625 78.847656 297.65625 C 79.957031 297.65625 80.582031 296.25 80.582031 295.96875 C 80.582031 295.859375 80.488281 295.859375 80.457031 295.859375 C 80.363281 295.859375 80.332031 295.90625 80.316406 295.984375 C 79.957031 297.15625 79.207031 297.40625 78.863281 297.40625 C 78.441406 297.40625 78.269531 297.0625 78.269531 296.6875 C 78.269531 296.453125 78.332031 296.21875 78.441406 295.734375 Z M 78.816406 294.234375 "/>
<path style=" stroke:none;fill-rule:nonzero;fill:rgb(0%,0%,0%);fill-opacity:1;" d="M 83.910156 288.496094 C 83.910156 288.277344 83.894531 288.277344 83.675781 288.277344 C 83.347656 288.589844 82.925781 288.777344 82.175781 288.777344 L 82.175781 289.042969 C 82.394531 289.042969 82.816406 289.042969 83.285156 288.839844 L 83.285156 292.917969 C 83.285156 293.214844 83.253906 293.308594 82.503906 293.308594 L 82.222656 293.308594 L 82.222656 293.574219 C 82.550781 293.542969 83.238281 293.542969 83.597656 293.542969 C 83.957031 293.542969 84.644531 293.542969 84.972656 293.574219 L 84.972656 293.308594 L 84.691406 293.308594 C 83.941406 293.308594 83.910156 293.214844 83.910156 292.917969 Z M 83.910156 288.496094 "/>
<path style=" stroke:none;fill-rule:nonzero;fill:rgb(0%,0%,0%);fill-opacity:1;" d="M 88.769531 291.230469 C 88.769531 293.167969 87.847656 293.496094 87.378906 293.496094 C 87.207031 293.496094 86.800781 293.480469 86.582031 293.230469 C 86.941406 293.199219 86.957031 292.933594 86.957031 292.855469 C 86.957031 292.621094 86.769531 292.480469 86.582031 292.480469 C 86.441406 292.480469 86.207031 292.574219 86.207031 292.871094 C 86.207031 293.417969 86.660156 293.746094 87.394531 293.746094 C 88.488281 293.746094 89.519531 292.652344 89.519531 290.949219 C 89.519531 288.886719 88.597656 288.277344 87.785156 288.277344 C 86.832031 288.277344 85.988281 289.011719 85.988281 290.058594 C 85.988281 291.074219 86.769531 291.824219 87.675781 291.824219 C 88.238281 291.824219 88.582031 291.464844 88.769531 291.058594 Z M 87.707031 291.605469 C 87.332031 291.605469 87.097656 291.433594 86.925781 291.136719 C 86.738281 290.855469 86.738281 290.464844 86.738281 290.058594 C 86.738281 289.589844 86.738281 289.261719 86.957031 288.933594 C 87.160156 288.636719 87.410156 288.480469 87.785156 288.480469 C 88.316406 288.480469 88.550781 289.011719 88.582031 289.042969 C 88.738281 289.433594 88.753906 290.058594 88.753906 290.214844 C 88.753906 290.855469 88.410156 291.605469 87.707031 291.605469 Z M 87.707031 291.605469 "/>
<path style=" stroke:none;fill-rule:evenodd;fill:rgb(20%,20%,70%);fill-opacity:1;" d="M 127.347656 228.269531 C 127.347656 224.488281 121.679688 224.488281 121.679688 228.269531 C 121.679688 232.046875 127.347656 232.046875 127.347656 228.269531 Z M 127.347656 228.269531 "/>
<path style=" stroke:none;fill-rule:nonzero;fill:rgb(0%,0%,0%);fill-opacity:1;" d="M 108.542969 222.449219 C 108.605469 222.167969 108.855469 221.167969 109.621094 221.167969 C 109.683594 221.167969 109.933594 221.167969 110.167969 221.308594 C 109.871094 221.355469 109.652344 221.636719 109.652344 221.902344 C 109.652344 222.074219 109.761719 222.277344 110.058594 222.277344 C 110.308594 222.277344 110.652344 222.074219 110.652344 221.652344 C 110.652344 221.074219 110.011719 220.917969 109.636719 220.917969 C 108.996094 220.917969 108.621094 221.496094 108.496094 221.761719 C 108.214844 221.027344 107.621094 220.917969 107.308594 220.917969 C 106.183594 220.917969 105.558594 222.339844 105.558594 222.605469 C 105.558594 222.714844 105.667969 222.714844 105.683594 222.714844 C 105.777344 222.714844 105.808594 222.699219 105.824219 222.589844 C 106.199219 221.433594 106.917969 221.167969 107.292969 221.167969 C 107.496094 221.167969 107.886719 221.261719 107.886719 221.902344 C 107.886719 222.230469 107.699219 222.964844 107.292969 224.496094 C 107.121094 225.167969 106.730469 225.621094 106.261719 225.621094 C 106.183594 225.621094 105.933594 225.621094 105.714844 225.480469 C 105.980469 225.433594 106.214844 225.199219 106.214844 224.902344 C 106.214844 224.605469 105.980469 224.511719 105.824219 224.511719 C 105.496094 224.511719 105.214844 224.792969 105.214844 225.152344 C 105.214844 225.652344 105.761719 225.871094 106.246094 225.871094 C 106.964844 225.871094 107.355469 225.105469 107.386719 225.042969 C 107.527344 225.433594 107.917969 225.871094 108.574219 225.871094 C 109.683594 225.871094 110.308594 224.464844 110.308594 224.183594 C 110.308594 224.074219 110.214844 224.074219 110.183594 224.074219 C 110.089844 224.074219 110.058594 224.121094 110.042969 224.199219 C 109.683594 225.371094 108.933594 225.621094 108.589844 225.621094 C 108.167969 225.621094 107.996094 225.277344 107.996094 224.902344 C 107.996094 224.667969 108.058594 224.433594 108.167969 223.949219 Z M 108.542969 222.449219 "/>
<path style=" stroke:none;fill-rule:nonzero;fill:rgb(0%,0%,0%);fill-opacity:1;" d="M 113.386719 220.164062 C 113.511719 220.039062 113.839844 219.773438 113.980469 219.664062 C 114.464844 219.210938 114.933594 218.773438 114.933594 218.054688 C 114.933594 217.101562 114.136719 216.492188 113.152344 216.492188 C 112.183594 216.492188 111.558594 217.210938 111.558594 217.929688 C 111.558594 218.320312 111.871094 218.367188 111.980469 218.367188 C 112.152344 218.367188 112.402344 218.257812 112.402344 217.945312 C 112.402344 217.539062 111.996094 217.539062 111.902344 217.539062 C 112.136719 216.945312 112.667969 216.757812 113.058594 216.757812 C 113.792969 216.757812 114.183594 217.382812 114.183594 218.054688 C 114.183594 218.882812 113.605469 219.492188 112.652344 220.445312 L 111.652344 221.492188 C 111.558594 221.570312 111.558594 221.585938 111.558594 221.789062 L 114.699219 221.789062 L 114.933594 220.367188 L 114.683594 220.367188 C 114.667969 220.523438 114.605469 220.914062 114.511719 221.070312 C 114.464844 221.132812 113.855469 221.132812 113.730469 221.132812 L 112.308594 221.132812 Z M 113.386719 220.164062 "/>
<path style=" stroke:none;fill-rule:nonzero;fill:rgb(0%,0%,0%);fill-opacity:1;" d="M 119.261719 219.242188 C 119.261719 218.398438 119.183594 217.882812 118.917969 217.367188 C 118.574219 216.664062 117.917969 216.492188 117.480469 216.492188 C 116.480469 216.492188 116.105469 217.242188 115.996094 217.460938 C 115.714844 218.039062 115.699219 218.835938 115.699219 219.242188 C 115.699219 219.773438 115.714844 220.570312 116.105469 221.210938 C 116.464844 221.804688 117.058594 221.960938 117.480469 221.960938 C 117.871094 221.960938 118.542969 221.835938 118.949219 221.054688 C 119.246094 220.476562 119.261719 219.757812 119.261719 219.242188 Z M 117.480469 221.726562 C 117.214844 221.726562 116.667969 221.601562 116.496094 220.773438 C 116.402344 220.320312 116.402344 219.570312 116.402344 219.148438 C 116.402344 218.601562 116.402344 218.039062 116.496094 217.601562 C 116.667969 216.789062 117.277344 216.710938 117.480469 216.710938 C 117.746094 216.710938 118.308594 216.851562 118.464844 217.570312 C 118.558594 218.007812 118.558594 218.617188 118.558594 219.148438 C 118.558594 219.617188 118.558594 220.335938 118.464844 220.789062 C 118.292969 221.617188 117.746094 221.726562 117.480469 221.726562 Z M 117.480469 221.726562 "/>
<path style=" stroke:none;fill-rule:evenodd;fill:rgb(20%,20%,70%);fill-opacity:1;" d="M 172.394531 169.558594 C 172.394531 165.78125 166.726562 165.78125 166.726562 169.558594 C 166.726562 173.339844 172.394531 173.339844 172.394531 169.558594 Z M 172.394531 169.558594 "/>
<path style=" stroke:none;fill-rule:nonzero;fill:rgb(0%,0%,0%);fill-opacity:1;" d="M 156.007812 160.804688 C 156.070312 160.523438 156.320312 159.523438 157.085938 159.523438 C 157.148438 159.523438 157.398438 159.523438 157.632812 159.664062 C 157.335938 159.710938 157.117188 159.992188 157.117188 160.257812 C 157.117188 160.429688 157.226562 160.632812 157.523438 160.632812 C 157.773438 160.632812 158.117188 160.429688 158.117188 160.007812 C 158.117188 159.429688 157.476562 159.273438 157.101562 159.273438 C 156.460938 159.273438 156.085938 159.851562 155.960938 160.117188 C 155.679688 159.382812 155.085938 159.273438 154.773438 159.273438 C 153.648438 159.273438 153.023438 160.695312 153.023438 160.960938 C 153.023438 161.070312 153.132812 161.070312 153.148438 161.070312 C 153.242188 161.070312 153.273438 161.054688 153.289062 160.945312 C 153.664062 159.789062 154.382812 159.523438 154.757812 159.523438 C 154.960938 159.523438 155.351562 159.617188 155.351562 160.257812 C 155.351562 160.585938 155.164062 161.320312 154.757812 162.851562 C 154.585938 163.523438 154.195312 163.976562 153.726562 163.976562 C 153.648438 163.976562 153.398438 163.976562 153.179688 163.835938 C 153.445312 163.789062 153.679688 163.554688 153.679688 163.257812 C 153.679688 162.960938 153.445312 162.867188 153.289062 162.867188 C 152.960938 162.867188 152.679688 163.148438 152.679688 163.507812 C 152.679688 164.007812 153.226562 164.226562 153.710938 164.226562 C 154.429688 164.226562 154.820312 163.460938 154.851562 163.398438 C 154.992188 163.789062 155.382812 164.226562 156.039062 164.226562 C 157.148438 164.226562 157.773438 162.820312 157.773438 162.539062 C 157.773438 162.429688 157.679688 162.429688 157.648438 162.429688 C 157.554688 162.429688 157.523438 162.476562 157.507812 162.554688 C 157.148438 163.726562 156.398438 163.976562 156.054688 163.976562 C 155.632812 163.976562 155.460938 163.632812 155.460938 163.257812 C 155.460938 163.023438 155.523438 162.789062 155.632812 162.304688 Z M 156.007812 160.804688 "/>
<path style=" stroke:none;fill-rule:nonzero;fill:rgb(0%,0%,0%);fill-opacity:1;" d="M 160.851562 158.519531 C 160.976562 158.394531 161.304688 158.128906 161.445312 158.019531 C 161.929688 157.566406 162.398438 157.128906 162.398438 156.410156 C 162.398438 155.457031 161.601562 154.847656 160.617188 154.847656 C 159.648438 154.847656 159.023438 155.566406 159.023438 156.285156 C 159.023438 156.675781 159.335938 156.722656 159.445312 156.722656 C 159.617188 156.722656 159.867188 156.613281 159.867188 156.300781 C 159.867188 155.894531 159.460938 155.894531 159.367188 155.894531 C 159.601562 155.300781 160.132812 155.113281 160.523438 155.113281 C 161.257812 155.113281 161.648438 155.738281 161.648438 156.410156 C 161.648438 157.238281 161.070312 157.847656 160.117188 158.800781 L 159.117188 159.847656 C 159.023438 159.925781 159.023438 159.941406 159.023438 160.144531 L 162.164062 160.144531 L 162.398438 158.722656 L 162.148438 158.722656 C 162.132812 158.878906 162.070312 159.269531 161.976562 159.425781 C 161.929688 159.488281 161.320312 159.488281 161.195312 159.488281 L 159.773438 159.488281 Z M 160.851562 158.519531 "/>
<path style=" stroke:none;fill-rule:nonzero;fill:rgb(0%,0%,0%);fill-opacity:1;" d="M 165.335938 155.066406 C 165.335938 154.847656 165.320312 154.847656 165.101562 154.847656 C 164.773438 155.160156 164.351562 155.347656 163.601562 155.347656 L 163.601562 155.613281 C 163.820312 155.613281 164.242188 155.613281 164.710938 155.410156 L 164.710938 159.488281 C 164.710938 159.785156 164.679688 159.878906 163.929688 159.878906 L 163.648438 159.878906 L 163.648438 160.144531 C 163.976562 160.113281 164.664062 160.113281 165.023438 160.113281 C 165.382812 160.113281 166.070312 160.113281 166.398438 160.144531 L 166.398438 159.878906 L 166.117188 159.878906 C 165.367188 159.878906 165.335938 159.785156 165.335938 159.488281 Z M 165.335938 155.066406 "/>
<path style=" stroke:none;fill-rule:evenodd;fill:rgb(20%,20%,70%);fill-opacity:1;" d="M 231.101562 124.511719 C 231.101562 120.734375 225.433594 120.734375 225.433594 124.511719 C 225.433594 128.292969 231.101562 128.292969 231.101562 124.511719 Z M 231.101562 124.511719 "/>
<path style=" stroke:none;fill-rule:nonzero;fill:rgb(0%,0%,0%);fill-opacity:1;" d="M 217.53125 113.507812 C 217.59375 113.226562 217.84375 112.226562 218.609375 112.226562 C 218.671875 112.226562 218.921875 112.226562 219.15625 112.367188 C 218.859375 112.414062 218.640625 112.695312 218.640625 112.960938 C 218.640625 113.132812 218.75 113.335938 219.046875 113.335938 C 219.296875 113.335938 219.640625 113.132812 219.640625 112.710938 C 219.640625 112.132812 219 111.976562 218.625 111.976562 C 217.984375 111.976562 217.609375 112.554688 217.484375 112.820312 C 217.203125 112.085938 216.609375 111.976562 216.296875 111.976562 C 215.171875 111.976562 214.546875 113.398438 214.546875 113.664062 C 214.546875 113.773438 214.65625 113.773438 214.671875 113.773438 C 214.765625 113.773438 214.796875 113.757812 214.8125 113.648438 C 215.1875 112.492188 215.90625 112.226562 216.28125 112.226562 C 216.484375 112.226562 216.875 112.320312 216.875 112.960938 C 216.875 113.289062 216.6875 114.023438 216.28125 115.554688 C 216.109375 116.226562 215.71875 116.679688 215.25 116.679688 C 215.171875 116.679688 214.921875 116.679688 214.703125 116.539062 C 214.96875 116.492188 215.203125 116.257812 215.203125 115.960938 C 215.203125 115.664062 214.96875 115.570312 214.8125 115.570312 C 214.484375 115.570312 214.203125 115.851562 214.203125 116.210938 C 214.203125 116.710938 214.75 116.929688 215.234375 116.929688 C 215.953125 116.929688 216.34375 116.164062 216.375 116.101562 C 216.515625 116.492188 216.90625 116.929688 217.5625 116.929688 C 218.671875 116.929688 219.296875 115.523438 219.296875 115.242188 C 219.296875 115.132812 219.203125 115.132812 219.171875 115.132812 C 219.078125 115.132812 219.046875 115.179688 219.03125 115.257812 C 218.671875 116.429688 217.921875 116.679688 217.578125 116.679688 C 217.15625 116.679688 216.984375 116.335938 216.984375 115.960938 C 216.984375 115.726562 217.046875 115.492188 217.15625 115.007812 Z M 217.53125 113.507812 "/>
<path style=" stroke:none;fill-rule:nonzero;fill:rgb(0%,0%,0%);fill-opacity:1;" d="M 222.375 111.21875 C 222.5 111.09375 222.828125 110.828125 222.96875 110.71875 C 223.453125 110.265625 223.921875 109.828125 223.921875 109.109375 C 223.921875 108.15625 223.125 107.546875 222.140625 107.546875 C 221.171875 107.546875 220.546875 108.265625 220.546875 108.984375 C 220.546875 109.375 220.859375 109.421875 220.96875 109.421875 C 221.140625 109.421875 221.390625 109.3125 221.390625 109 C 221.390625 108.59375 220.984375 108.59375 220.890625 108.59375 C 221.125 108 221.65625 107.8125 222.046875 107.8125 C 222.78125 107.8125 223.171875 108.4375 223.171875 109.109375 C 223.171875 109.9375 222.59375 110.546875 221.640625 111.5 L 220.640625 112.546875 C 220.546875 112.625 220.546875 112.640625 220.546875 112.84375 L 223.6875 112.84375 L 223.921875 111.421875 L 223.671875 111.421875 C 223.65625 111.578125 223.59375 111.96875 223.5 112.125 C 223.453125 112.1875 222.84375 112.1875 222.71875 112.1875 L 221.296875 112.1875 Z M 222.375 111.21875 "/>
<path style=" stroke:none;fill-rule:nonzero;fill:rgb(0%,0%,0%);fill-opacity:1;" d="M 226.609375 111.21875 C 226.734375 111.09375 227.0625 110.828125 227.203125 110.71875 C 227.6875 110.265625 228.15625 109.828125 228.15625 109.109375 C 228.15625 108.15625 227.359375 107.546875 226.375 107.546875 C 225.40625 107.546875 224.78125 108.265625 224.78125 108.984375 C 224.78125 109.375 225.09375 109.421875 225.203125 109.421875 C 225.375 109.421875 225.625 109.3125 225.625 109 C 225.625 108.59375 225.21875 108.59375 225.125 108.59375 C 225.359375 108 225.890625 107.8125 226.28125 107.8125 C 227.015625 107.8125 227.40625 108.4375 227.40625 109.109375 C 227.40625 109.9375 226.828125 110.546875 225.875 111.5 L 224.875 112.546875 C 224.78125 112.625 224.78125 112.640625 224.78125 112.84375 L 227.921875 112.84375 L 228.15625 111.421875 L 227.90625 111.421875 C 227.890625 111.578125 227.828125 111.96875 227.734375 112.125 C 227.6875 112.1875 227.078125 112.1875 226.953125 112.1875 L 225.53125 112.1875 Z M 226.609375 111.21875 "/>
<path style=" stroke:none;fill-rule:evenodd;fill:rgb(20%,20%,70%);fill-opacity:1;" d="M 299.46875 96.195312 C 299.46875 92.414062 293.800781 92.414062 293.800781 96.195312 C 293.800781 99.972656 299.46875 99.972656 299.46875 96.195312 Z M 299.46875 96.195312 "/>
<path style=" stroke:none;fill-rule:nonzero;fill:rgb(0%,0%,0%);fill-opacity:1;" d="M 289.277344 83.773438 C 289.339844 83.492188 289.589844 82.492188 290.355469 82.492188 C 290.417969 82.492188 290.667969 82.492188 290.902344 82.632812 C 290.605469 82.679688 290.386719 82.960938 290.386719 83.226562 C 290.386719 83.398438 290.496094 83.601562 290.792969 83.601562 C 291.042969 83.601562 291.386719 83.398438 291.386719 82.976562 C 291.386719 82.398438 290.746094 82.242188 290.371094 82.242188 C 289.730469 82.242188 289.355469 82.820312 289.230469 83.085938 C 288.949219 82.351562 288.355469 82.242188 288.042969 82.242188 C 286.917969 82.242188 286.292969 83.664062 286.292969 83.929688 C 286.292969 84.039062 286.402344 84.039062 286.417969 84.039062 C 286.511719 84.039062 286.542969 84.023438 286.558594 83.914062 C 286.933594 82.757812 287.652344 82.492188 288.027344 82.492188 C 288.230469 82.492188 288.621094 82.585938 288.621094 83.226562 C 288.621094 83.554688 288.433594 84.289062 288.027344 85.820312 C 287.855469 86.492188 287.464844 86.945312 286.996094 86.945312 C 286.917969 86.945312 286.667969 86.945312 286.449219 86.804688 C 286.714844 86.757812 286.949219 86.523438 286.949219 86.226562 C 286.949219 85.929688 286.714844 85.835938 286.558594 85.835938 C 286.230469 85.835938 285.949219 86.117188 285.949219 86.476562 C 285.949219 86.976562 286.496094 87.195312 286.980469 87.195312 C 287.699219 87.195312 288.089844 86.429688 288.121094 86.367188 C 288.261719 86.757812 288.652344 87.195312 289.308594 87.195312 C 290.417969 87.195312 291.042969 85.789062 291.042969 85.507812 C 291.042969 85.398438 290.949219 85.398438 290.917969 85.398438 C 290.824219 85.398438 290.792969 85.445312 290.777344 85.523438 C 290.417969 86.695312 289.667969 86.945312 289.324219 86.945312 C 288.902344 86.945312 288.730469 86.601562 288.730469 86.226562 C 288.730469 85.992188 288.792969 85.757812 288.902344 85.273438 Z M 289.277344 83.773438 "/>
<path style=" stroke:none;fill-rule:nonzero;fill:rgb(0%,0%,0%);fill-opacity:1;" d="M 294.121094 81.484375 C 294.246094 81.359375 294.574219 81.09375 294.714844 80.984375 C 295.199219 80.53125 295.667969 80.09375 295.667969 79.375 C 295.667969 78.421875 294.871094 77.8125 293.886719 77.8125 C 292.917969 77.8125 292.292969 78.53125 292.292969 79.25 C 292.292969 79.640625 292.605469 79.6875 292.714844 79.6875 C 292.886719 79.6875 293.136719 79.578125 293.136719 79.265625 C 293.136719 78.859375 292.730469 78.859375 292.636719 78.859375 C 292.871094 78.265625 293.402344 78.078125 293.792969 78.078125 C 294.527344 78.078125 294.917969 78.703125 294.917969 79.375 C 294.917969 80.203125 294.339844 80.8125 293.386719 81.765625 L 292.386719 82.8125 C 292.292969 82.890625 292.292969 82.90625 292.292969 83.109375 L 295.433594 83.109375 L 295.667969 81.6875 L 295.417969 81.6875 C 295.402344 81.84375 295.339844 82.234375 295.246094 82.390625 C 295.199219 82.453125 294.589844 82.453125 294.464844 82.453125 L 293.042969 82.453125 Z M 294.121094 81.484375 "/>
<path style=" stroke:none;fill-rule:nonzero;fill:rgb(0%,0%,0%);fill-opacity:1;" d="M 298.121094 80.453125 C 298.746094 80.453125 299.152344 80.90625 299.152344 81.75 C 299.152344 82.75 298.589844 83.03125 298.167969 83.03125 C 297.730469 83.03125 297.121094 82.875 296.839844 82.453125 C 297.136719 82.453125 297.339844 82.265625 297.339844 82.015625 C 297.339844 81.75 297.152344 81.578125 296.886719 81.578125 C 296.683594 81.578125 296.449219 81.703125 296.449219 82.03125 C 296.449219 82.78125 297.261719 83.28125 298.183594 83.28125 C 299.230469 83.28125 299.980469 82.546875 299.980469 81.75 C 299.980469 81.078125 299.449219 80.484375 298.636719 80.296875 C 299.261719 80.078125 299.746094 79.546875 299.746094 78.90625 C 299.746094 78.265625 299.027344 77.8125 298.199219 77.8125 C 297.339844 77.8125 296.699219 78.265625 296.699219 78.875 C 296.699219 79.171875 296.886719 79.296875 297.105469 79.296875 C 297.355469 79.296875 297.511719 79.125 297.511719 78.890625 C 297.511719 78.59375 297.246094 78.484375 297.074219 78.484375 C 297.417969 78.046875 298.027344 78.015625 298.167969 78.015625 C 298.371094 78.015625 298.980469 78.078125 298.980469 78.90625 C 298.980469 79.453125 298.746094 79.796875 298.636719 79.921875 C 298.402344 80.171875 298.214844 80.1875 297.730469 80.21875 C 297.574219 80.21875 297.511719 80.234375 297.511719 80.34375 C 297.511719 80.453125 297.589844 80.453125 297.730469 80.453125 Z M 298.121094 80.453125 "/>
<path style="fill:none;stroke-width:2.267717;stroke-linecap:butt;stroke-linejoin:miter;stroke:rgb(20%,20%,70%);stroke-opacity:0.5;stroke-miterlimit:10;" d="M 73.367188 -273.804688 L 273.804688 -73.367188 " transform="matrix(1,0,0,1,370,370)"/>
<path style="fill:none;stroke-width:2.267717;stroke-linecap:butt;stroke-linejoin:miter;stroke:rgb(20%,20%,70%);stroke-opacity:0.5;stroke-miterlimit:10;" d="M 141.730469 -245.488281 L 141.730469 245.488281 " transform="matrix(1,0,0,1,370,370)"/>
<path style="fill:none;stroke-width:2.267717;stroke-linecap:butt;stroke-linejoin:miter;stroke:rgb(20%,20%,70%);stroke-opacity:0.5;stroke-miterlimit:10;" d="M 200.441406 -200.441406 L -200.441406 200.441406 " transform="matrix(1,0,0,1,370,370)"/>
<path style="fill:none;stroke-width:2.267717;stroke-linecap:butt;stroke-linejoin:miter;stroke:rgb(20%,20%,70%);stroke-opacity:0.5;stroke-miterlimit:10;" d="M 245.488281 -141.730469 L -245.488281 -141.730469 " transform="matrix(1,0,0,1,370,370)"/>
<path style="fill:none;stroke-width:2.267717;stroke-linecap:butt;stroke-linejoin:miter;stroke:rgb(20%,20%,70%);stroke-opacity:0.5;stroke-miterlimit:10;" d="M 273.804688 73.367188 L 73.367188 273.804688 " transform="matrix(1,0,0,1,370,370)"/>
<path style="fill:none;stroke-width:2.267717;stroke-linecap:butt;stroke-linejoin:miter;stroke:rgb(20%,20%,70%);stroke-opacity:0.5;stroke-miterlimit:10;" d="M 245.488281 141.730469 L -245.488281 141.730469 " transform="matrix(1,0,0,1,370,370)"/>
<path style="fill:none;stroke-width:2.267717;stroke-linecap:butt;stroke-linejoin:miter;stroke:rgb(20%,20%,70%);stroke-opacity:0.5;stroke-miterlimit:10;" d="M 200.441406 200.441406 L -200.441406 -200.441406 " transform="matrix(1,0,0,1,370,370)"/>
<path style="fill:none;stroke-width:2.267717;stroke-linecap:butt;stroke-linejoin:miter;stroke:rgb(20%,20%,70%);stroke-opacity:0.5;stroke-miterlimit:10;" d="M -73.367188 273.804688 L -273.804688 73.367188 " transform="matrix(1,0,0,1,370,370)"/>
<path style="fill:none;stroke-width:2.267717;stroke-linecap:butt;stroke-linejoin:miter;stroke:rgb(20%,20%,70%);stroke-opacity:0.5;stroke-miterlimit:10;" d="M -141.730469 245.488281 L -141.730469 -245.488281 " transform="matrix(1,0,0,1,370,370)"/>
<path style="fill:none;stroke-width:2.267717;stroke-linecap:butt;stroke-linejoin:miter;stroke:rgb(20%,20%,70%);stroke-opacity:0.5;stroke-miterlimit:10;" d="M -273.804688 -73.367188 L -73.367188 -273.804688 " transform="matrix(1,0,0,1,370,370)"/>
</g>
</svg>
