<?xml version="1.0" encoding="UTF-8"?>
<svg xmlns="http://www.w3.org/2000/svg" xmlns:xlink="http://www.w3.org/1999/xlink" width="584pt" height="584pt" viewBox="0 0 584 584" version="1.1">
<g id="surface236">
<path style="fill:none;stroke-width:0.566929;stroke-linecap:butt;stroke-linejoin:miter;stroke:rgb(100%,100%,100%);stroke-opacity:1;stroke-miterlimit:10;" d="M 290.195312 0 C 290.195312 -160.269531 160.269531 -290.195312 0 -290.195312 C -160.269531 -290.195312 -290.195312 -160.269531 -290.195312 0 C -290.195312 160.269531 -160.269531 290.195312 0 290.195312 C 160.269531 290.195312 290.195312 160.269531 290.195312 0 Z M 290.195312 0 " transform="matrix(1,0,0,1,292,292)"/>
<path style=" stroke:none;fill-rule:evenodd;fill:rgb(20%,20%,70%);fill-opacity:1;" d="M 294.835938 68.773438 C 294.835938 64.992188 289.164062 64.992188 289.164062 68.773438 C 289.164062 72.550781 294.835938 72.550781 294.835938 68.773438 Z M 294.835938 68.773438 "/>
<path style=" stroke:none;fill-rule:evenodd;fill:rgb(20%,20%,70%);fill-opacity:1;" d="M 317.0625 69.882812 C 317.0625 66.101562 311.390625 66.101562 311.390625 69.882812 C 311.390625 73.660156 317.0625 73.660156 317.0625 69.882812 Z M 317.0625 69.882812 "/>
<path style=" stroke:none;fill-rule:evenodd;fill:rgb(20%,20%,70%);fill-opacity:1;" d="M 339.066406 73.199219 C 339.066406 69.417969 333.398438 69.417969 333.398438 73.199219 C 333.398438 76.976562 339.066406 76.976562 339.066406 73.199219 Z M 339.066406 73.199219 "/>
<path style=" stroke:none;fill-rule:evenodd;fill:rgb(20%,20%,70%);fill-opacity:1;" d="M 360.632812 78.6875 C 360.632812 74.910156 354.964844 74.910156 354.964844 78.6875 C 354.964844 82.46875 360.632812 82.46875 360.632812 78.6875 Z M 360.632812 78.6875 "/>
<path style=" stroke:none;fill-rule:evenodd;fill:rgb(20%,20%,70%);fill-opacity:1;" d="M 381.542969 86.300781 C 381.542969 82.519531 375.875 82.519531 375.875 86.300781 C 375.875 90.078125 381.542969 90.078125 381.542969 86.300781 Z M 381.542969 86.300781 "/>
<path style=" stroke:none;fill-rule:evenodd;fill:rgb(20%,20%,70%);fill-opacity:1;" d="M 401.59375 95.957031 C 401.59375 92.175781 395.925781 92.175781 395.925781 95.957031 C 395.925781 99.734375 401.59375 99.734375 401.59375 95.957031 Z M 401.59375 95.957031 "/>
<path style=" stroke:none;fill-rule:evenodd;fill:rgb(20%,20%,70%);fill-opacity:1;" d="M 420.582031 107.558594 C 420.582031 103.78125 414.914062 103.78125 414.914062 107.558594 C 414.914062 111.339844 420.582031 111.339844 420.582031 107.558594 Z M 420.582031 107.558594 "/>
<path style=" stroke:none;fill-rule:evenodd;fill:rgb(20%,20%,70%);fill-opacity:1;" d="M 438.324219 120.996094 C 438.324219 117.21875 432.652344 117.21875 432.652344 120.996094 C 432.652344 124.777344 438.324219 124.777344 438.324219 120.996094 Z M 438.324219 120.996094 "/>
<path style=" stroke:none;fill-rule:evenodd;fill:rgb(20%,20%,70%);fill-opacity:1;" d="M 454.636719 136.132812 C 454.636719 132.355469 448.96875 132.355469 448.96875 136.132812 C 448.96875 139.914062 454.636719 139.914062 454.636719 136.132812 Z M 454.636719 136.132812 "/>
<path style=" stroke:none;fill-rule:evenodd;fill:rgb(20%,20%,70%);fill-opacity:1;" d="M 469.363281 152.820312 C 469.363281 149.039062 463.691406 149.039062 463.691406 152.820312 C 463.691406 156.597656 469.363281 156.597656 469.363281 152.820312 Z M 469.363281 152.820312 "/>
<path style=" stroke:none;fill-rule:evenodd;fill:rgb(20%,20%,70%);fill-opacity:1;" d="M 482.351562 170.886719 C 482.351562 167.109375 476.683594 167.109375 476.683594 170.886719 C 476.683594 174.667969 482.351562 174.667969 482.351562 170.886719 Z M 482.351562 170.886719 "/>
<path style=" stroke:none;fill-rule:evenodd;fill:rgb(20%,20%,70%);fill-opacity:1;" d="M 493.480469 190.160156 C 493.480469 186.382812 487.808594 186.382812 487.808594 190.160156 C 487.808594 193.941406 493.480469 193.941406 493.480469 190.160156 Z M 493.480469 190.160156 "/>
<path style=" stroke:none;fill-rule:evenodd;fill:rgb(20%,20%,70%);fill-opacity:1;" d="M 502.632812 210.445312 C 502.632812 206.664062 496.960938 206.664062 496.960938 210.445312 C 496.960938 214.226562 502.632812 214.226562 502.632812 210.445312 Z M 502.632812 210.445312 "/>
<path style=" stroke:none;fill-rule:evenodd;fill:rgb(20%,20%,70%);fill-opacity:1;" d="M 509.71875 231.539062 C 509.71875 227.761719 504.050781 227.761719 504.050781 231.539062 C 504.050781 235.320312 509.71875 235.320312 509.71875 231.539062 Z M 509.71875 231.539062 "/>
<path style=" stroke:none;fill-rule:evenodd;fill:rgb(20%,20%,70%);fill-opacity:1;" d="M 514.671875 253.238281 C 514.671875 249.457031 509.003906 249.457031 509.003906 253.238281 C 509.003906 257.015625 514.671875 257.015625 514.671875 253.238281 Z M 514.671875 253.238281 "/>
<path style=" stroke:none;fill-rule:evenodd;fill:rgb(20%,20%,70%);fill-opacity:1;" d="M 517.4375 275.316406 C 517.4375 271.539062 511.769531 271.539062 511.769531 275.316406 C 511.769531 279.097656 517.4375 279.097656 517.4375 275.316406 Z M 517.4375 275.316406 "/>
<path style=" stroke:none;fill-rule:evenodd;fill:rgb(20%,20%,70%);fill-opacity:1;" d="M 517.992188 297.566406 C 517.992188 293.785156 512.324219 293.785156 512.324219 297.566406 C 512.324219 301.34375 517.992188 301.34375 517.992188 297.566406 Z M 517.992188 297.566406 "/>
<path style=" stroke:none;fill-rule:evenodd;fill:rgb(20%,20%,70%);fill-opacity:1;" d="M 516.332031 319.757812 C 516.332031 315.976562 510.660156 315.976562 510.660156 319.757812 C 510.660156 323.535156 516.332031 323.535156 516.332031 319.757812 Z M 516.332031 319.757812 "/>
<path style=" stroke:none;fill-rule:evenodd;fill:rgb(20%,20%,70%);fill-opacity:1;" d="M 512.464844 341.671875 C 512.464844 337.894531 506.796875 337.894531 506.796875 341.671875 C 506.796875 345.453125 512.464844 345.453125 512.464844 341.671875 Z M 512.464844 341.671875 "/>
<path style=" stroke:none;fill-rule:evenodd;fill:rgb(20%,20%,70%);fill-opacity:1;" d="M 506.4375 363.09375 C 506.4375 359.316406 500.769531 359.316406 500.769531 363.09375 C 500.769531 366.875 506.4375 366.875 506.4375 363.09375 Z M 506.4375 363.09375 "/>
<path style=" stroke:none;fill-rule:evenodd;fill:rgb(20%,20%,70%);fill-opacity:1;" d="M 498.308594 383.8125 C 498.308594 380.03125 492.640625 380.03125 492.640625 383.8125 C 492.640625 387.589844 498.308594 387.589844 498.308594 383.8125 Z M 498.308594 383.8125 "/>
<path style=" stroke:none;fill-rule:evenodd;fill:rgb(20%,20%,70%);fill-opacity:1;" d="M 488.15625 403.613281 C 488.15625 399.835938 482.488281 399.835938 482.488281 403.613281 C 482.488281 407.394531 488.15625 407.394531 488.15625 403.613281 Z M 488.15625 403.613281 "/>
<path style=" stroke:none;fill-rule:evenodd;fill:rgb(20%,20%,70%);fill-opacity:1;" d="M 476.082031 422.308594 C 476.082031 418.527344 470.414062 418.527344 470.414062 422.308594 C 470.414062 426.085938 476.082031 426.085938 476.082031 422.308594 Z M 476.082031 422.308594 "/>
<path style=" stroke:none;fill-rule:evenodd;fill:rgb(20%,20%,70%);fill-opacity:1;" d="M 462.207031 439.707031 C 462.207031 435.925781 456.539062 435.925781 456.539062 439.707031 C 456.539062 443.488281 462.207031 443.488281 462.207031 439.707031 Z M 462.207031 439.707031 "/>
<path style=" stroke:none;fill-rule:evenodd;fill:rgb(20%,20%,70%);fill-opacity:1;" d="M 446.667969 455.636719 C 446.667969 451.859375 441 451.859375 441 455.636719 C 441 459.417969 446.667969 459.417969 446.667969 455.636719 Z M 446.667969 455.636719 "/>
<path style=" stroke:none;fill-rule:evenodd;fill:rgb(20%,20%,70%);fill-opacity:1;" d="M 429.621094 469.941406 C 429.621094 466.164062 423.953125 466.164062 423.953125 469.941406 C 423.953125 473.722656 429.621094 473.722656 429.621094 469.941406 Z M 429.621094 469.941406 "/>
<path style=" stroke:none;fill-rule:evenodd;fill:rgb(20%,20%,70%);fill-opacity:1;" d="M 411.234375 482.480469 C 411.234375 478.699219 405.566406 478.699219 405.566406 482.480469 C 405.566406 486.257812 411.234375 486.257812 411.234375 482.480469 Z M 411.234375 482.480469 "/>
<path style=" stroke:none;fill-rule:evenodd;fill:rgb(20%,20%,70%);fill-opacity:1;" d="M 391.691406 493.121094 C 391.691406 489.34375 386.019531 489.34375 386.019531 493.121094 C 386.019531 496.902344 391.691406 496.902344 391.691406 493.121094 Z M 391.691406 493.121094 "/>
<path style=" stroke:none;fill-rule:evenodd;fill:rgb(20%,20%,70%);fill-opacity:1;" d="M 371.183594 501.765625 C 371.183594 497.988281 365.515625 497.988281 365.515625 501.765625 C 365.515625 505.546875 371.183594 505.546875 371.183594 501.765625 Z M 371.183594 501.765625 "/>
<path style=" stroke:none;fill-rule:evenodd;fill:rgb(20%,20%,70%);fill-opacity:1;" d="M 349.917969 508.324219 C 349.917969 504.546875 344.25 504.546875 344.25 508.324219 C 344.25 512.105469 349.917969 512.105469 349.917969 508.324219 Z M 349.917969 508.324219 "/>
<path style=" stroke:none;fill-rule:evenodd;fill:rgb(20%,20%,70%);fill-opacity:1;" d="M 328.105469 512.734375 C 328.105469 508.957031 322.4375 508.957031 322.4375 512.734375 C 322.4375 516.515625 328.105469 516.515625 328.105469 512.734375 Z M 328.105469 512.734375 "/>
<path style=" stroke:none;fill-rule:evenodd;fill:rgb(20%,20%,70%);fill-opacity:1;" d="M 305.960938 514.949219 C 305.960938 511.171875 300.292969 511.171875 300.292969 514.949219 C 300.292969 518.730469 305.960938 518.730469 305.960938 514.949219 Z M 305.960938 514.949219 "/>
<path style=" stroke:none;fill-rule:evenodd;fill:rgb(20%,20%,70%);fill-opacity:1;" d="M 283.707031 514.949219 C 283.707031 511.171875 278.039062 511.171875 278.039062 514.949219 C 278.039062 518.730469 283.707031 518.730469 283.707031 514.949219 Z M 283.707031 514.949219 "/>
<path style=" stroke:none;fill-rule:evenodd;fill:rgb(20%,20%,70%);fill-opacity:1;" d="M 261.5625 512.734375 C 261.5625 508.957031 255.894531 508.957031 255.894531 512.734375 C 255.894531 516.515625 261.5625 516.515625 261.5625 512.734375 Z M 261.5625 512.734375 "/>
<path style=" stroke:none;fill-rule:evenodd;fill:rgb(20%,20%,70%);fill-opacity:1;" d="M 239.75 508.324219 C 239.75 504.546875 234.082031 504.546875 234.082031 508.324219 C 234.082031 512.105469 239.75 512.105469 239.75 508.324219 Z M 239.75 508.324219 "/>
<path style=" stroke:none;fill-rule:evenodd;fill:rgb(20%,20%,70%);fill-opacity:1;" d="M 218.484375 501.765625 C 218.484375 497.988281 212.816406 497.988281 212.816406 501.765625 C 212.816406 505.546875 218.484375 505.546875 218.484375 501.765625 Z M 218.484375 501.765625 "/>
<path style=" stroke:none;fill-rule:evenodd;fill:rgb(20%,20%,70%);fill-opacity:1;" d="M 197.980469 493.121094 C 197.980469 489.34375 192.308594 489.34375 192.308594 493.121094 C 192.308594 496.902344 197.980469 496.902344 197.980469 493.121094 Z M 197.980469 493.121094 "/>
<path style=" stroke:none;fill-rule:evenodd;fill:rgb(20%,20%,70%);fill-opacity:1;" d="M 178.433594 482.480469 C 178.433594 478.699219 172.765625 478.699219 172.765625 482.480469 C 172.765625 486.257812 178.433594 486.257812 178.433594 482.480469 Z M 178.433594 482.480469 "/>
<path style=" stroke:none;fill-rule:evenodd;fill:rgb(20%,20%,70%);fill-opacity:1;" d="M 160.046875 469.941406 C 160.046875 466.164062 154.378906 466.164062 154.378906 469.941406 C 154.378906 473.722656 160.046875 473.722656 160.046875 469.941406 Z M 160.046875 469.941406 "/>
<path style=" stroke:none;fill-rule:evenodd;fill:rgb(20%,20%,70%);fill-opacity:1;" d="M 143 455.636719 C 143 451.859375 137.332031 451.859375 137.332031 455.636719 C 137.332031 459.417969 143 459.417969 143 455.636719 Z M 143 455.636719 "/>
<path style=" stroke:none;fill-rule:evenodd;fill:rgb(20%,20%,70%);fill-opacity:1;" d="M 127.460938 439.707031 C 127.460938 435.925781 121.792969 435.925781 121.792969 439.707031 C 121.792969 443.488281 127.460938 443.488281 127.460938 439.707031 Z M 127.460938 439.707031 "/>
<path style=" stroke:none;fill-rule:evenodd;fill:rgb(20%,20%,70%);fill-opacity:1;" d="M 113.585938 422.308594 C 113.585938 418.527344 107.917969 418.527344 107.917969 422.308594 C 107.917969 426.085938 113.585938 426.085938 113.585938 422.308594 Z M 113.585938 422.308594 "/>
<path style=" stroke:none;fill-rule:evenodd;fill:rgb(20%,20%,70%);fill-opacity:1;" d="M 101.511719 403.613281 C 101.511719 399.835938 95.84375 399.835938 95.84375 403.613281 C 95.84375 407.394531 101.511719 407.394531 101.511719 403.613281 Z M 101.511719 403.613281 "/>
<path style=" stroke:none;fill-rule:evenodd;fill:rgb(20%,20%,70%);fill-opacity:1;" d="M 91.359375 383.8125 C 91.359375 380.03125 85.691406 380.03125 85.691406 383.8125 C 85.691406 387.589844 91.359375 387.589844 91.359375 383.8125 Z M 91.359375 383.8125 "/>
<path style=" stroke:none;fill-rule:evenodd;fill:rgb(20%,20%,70%);fill-opacity:1;" d="M 83.230469 363.09375 C 83.230469 359.316406 77.5625 359.316406 77.5625 363.09375 C 77.5625 366.875 83.230469 366.875 83.230469 363.09375 Z M 83.230469 363.09375 "/>
<path style=" stroke:none;fill-rule:evenodd;fill:rgb(20%,20%,70%);fill-opacity:1;" d="M 77.203125 341.671875 C 77.203125 337.894531 71.535156 337.894531 71.535156 341.671875 C 71.535156 345.453125 77.203125 345.453125 77.203125 341.671875 Z M 77.203125 341.671875 "/>
<path style=" stroke:none;fill-rule:evenodd;fill:rgb(20%,20%,70%);fill-opacity:1;" d="M 73.339844 319.757812 C 73.339844 315.976562 67.667969 315.976562 67.667969 319.757812 C 67.667969 323.535156 73.339844 323.535156 73.339844 319.757812 Z M 73.339844 319.757812 "/>
<path style=" stroke:none;fill-rule:evenodd;fill:rgb(20%,20%,70%);fill-opacity:1;" d="M 71.675781 297.566406 C 71.675781 293.785156 66.007812 293.785156 66.007812 297.566406 C 66.007812 301.34375 71.675781 301.34375 71.675781 297.566406 Z M 71.675781 297.566406 "/>
<path style=" stroke:none;fill-rule:evenodd;fill:rgb(20%,20%,70%);fill-opacity:1;" d="M 72.230469 275.316406 C 72.230469 271.539062 66.5625 271.539062 66.5625 275.316406 C 66.5625 279.097656 72.230469 279.097656 72.230469 275.316406 Z M 72.230469 275.316406 "/>
<path style=" stroke:none;fill-rule:evenodd;fill:rgb(20%,20%,70%);fill-opacity:1;" d="M 74.996094 253.238281 C 74.996094 249.457031 69.328125 249.457031 69.328125 253.238281 C 69.328125 257.015625 74.996094 257.015625 74.996094 253.238281 Z M 74.996094 253.238281 "/>
<path style=" stroke:none;fill-rule:evenodd;fill:rgb(20%,20%,70%);fill-opacity:1;" d="M 79.949219 231.539062 C 79.949219 227.761719 74.28125 227.761719 74.28125 231.539062 C 74.28125 235.320312 79.949219 235.320312 79.949219 231.539062 Z M 79.949219 231.539062 "/>
<path style=" stroke:none;fill-rule:evenodd;fill:rgb(20%,20%,70%);fill-opacity:1;" d="M 87.039062 210.445312 C 87.039062 206.664062 81.367188 206.664062 81.367188 210.445312 C 81.367188 214.226562 87.039062 214.226562 87.039062 210.445312 Z M 87.039062 210.445312 "/>
<path style=" stroke:none;fill-rule:evenodd;fill:rgb(20%,20%,70%);fill-opacity:1;" d="M 96.191406 190.160156 C 96.191406 186.382812 90.519531 186.382812 90.519531 190.160156 C 90.519531 193.941406 96.191406 193.941406 96.191406 190.160156 Z M 96.191406 190.160156 "/>
<path style=" stroke:none;fill-rule:evenodd;fill:rgb(20%,20%,70%);fill-opacity:1;" d="M 107.316406 170.886719 C 107.316406 167.109375 101.648438 167.109375 101.648438 170.886719 C 101.648438 174.667969 107.316406 174.667969 107.316406 170.886719 Z M 107.316406 170.886719 "/>
<path style=" stroke:none;fill-rule:evenodd;fill:rgb(20%,20%,70%);fill-opacity:1;" d="M 120.308594 152.820312 C 120.308594 149.039062 114.636719 149.039062 114.636719 152.820312 C 114.636719 156.597656 120.308594 156.597656 120.308594 152.820312 Z M 120.308594 152.820312 "/>
<path style=" stroke:none;fill-rule:evenodd;fill:rgb(20%,20%,70%);fill-opacity:1;" d="M 135.03125 136.132812 C 135.03125 132.355469 129.363281 132.355469 129.363281 136.132812 C 129.363281 139.914062 135.03125 139.914062 135.03125 136.132812 Z M 135.03125 136.132812 "/>
<path style=" stroke:none;fill-rule:evenodd;fill:rgb(20%,20%,70%);fill-opacity:1;" d="M 151.347656 120.996094 C 151.347656 117.21875 145.675781 117.21875 145.675781 120.996094 C 145.675781 124.777344 151.347656 124.777344 151.347656 120.996094 Z M 151.347656 120.996094 "/>
<path style=" stroke:none;fill-rule:evenodd;fill:rgb(20%,20%,70%);fill-opacity:1;" d="M 169.085938 107.558594 C 169.085938 103.78125 163.417969 103.78125 163.417969 107.558594 C 163.417969 111.339844 169.085938 111.339844 169.085938 107.558594 Z M 169.085938 107.558594 "/>
<path style=" stroke:none;fill-rule:evenodd;fill:rgb(20%,20%,70%);fill-opacity:1;" d="M 188.074219 95.957031 C 188.074219 92.175781 182.40625 92.175781 182.40625 95.957031 C 182.40625 99.734375 188.074219 99.734375 188.074219 95.957031 Z M 188.074219 95.957031 "/>
<path style=" stroke:none;fill-rule:evenodd;fill:rgb(20%,20%,70%);fill-opacity:1;" d="M 208.125 86.300781 C 208.125 82.519531 202.457031 82.519531 202.457031 86.300781 C 202.457031 90.078125 208.125 90.078125 208.125 86.300781 Z M 208.125 86.300781 "/>
<path style=" stroke:none;fill-rule:evenodd;fill:rgb(20%,20%,70%);fill-opacity:1;" d="M 229.035156 78.6875 C 229.035156 74.910156 223.367188 74.910156 223.367188 78.6875 C 223.367188 82.46875 229.035156 82.46875 229.035156 78.6875 Z M 229.035156 78.6875 "/>
<path style=" stroke:none;fill-rule:evenodd;fill:rgb(20%,20%,70%);fill-opacity:1;" d="M 250.601562 73.199219 C 250.601562 69.417969 244.933594 69.417969 244.933594 73.199219 C 244.933594 76.976562 250.601562 76.976562 250.601562 73.199219 Z M 250.601562 73.199219 "/>
<path style=" stroke:none;fill-rule:evenodd;fill:rgb(20%,20%,70%);fill-opacity:1;" d="M 272.609375 69.882812 C 272.609375 66.101562 266.9375 66.101562 266.9375 69.882812 C 266.9375 73.660156 272.609375 73.660156 272.609375 69.882812 Z M 272.609375 69.882812 "/>
<path style="fill:none;stroke-width:2.267717;stroke-linecap:butt;stroke-linejoin:miter;stroke:rgb(20%,20%,70%);stroke-opacity:0.5;stroke-miterlimit:10;" d="M 0 -223.226562 L 0 -223.226562 " transform="matrix(1,0,0,1,292,292)"/>
<path style="fill:none;stroke-width:2.267717;stroke-linecap:butt;stroke-linejoin:miter;stroke:rgb(20%,20%,70%);stroke-opacity:0.5;stroke-miterlimit:10;" d="M 22.226562 -222.117188 L 44.230469 -218.800781 " transform="matrix(1,0,0,1,292,292)"/>
<path style="fill:none;stroke-width:2.267717;stroke-linecap:butt;stroke-linejoin:miter;stroke:rgb(20%,20%,70%);stroke-opacity:0.5;stroke-miterlimit:10;" d="M 44.230469 -218.800781 L 86.710938 -205.699219 " transform="matrix(1,0,0,1,292,292)"/>
<path style="fill:none;stroke-width:2.267717;stroke-linecap:butt;stroke-linejoin:miter;stroke:rgb(20%,20%,70%);stroke-opacity:0.5;stroke-miterlimit:10;" d="M 65.796875 -213.3125 L 125.75 -184.441406 " transform="matrix(1,0,0,1,292,292)"/>
<path style="fill:none;stroke-width:2.267717;stroke-linecap:butt;stroke-linejoin:miter;stroke:rgb(20%,20%,70%);stroke-opacity:0.5;stroke-miterlimit:10;" d="M 86.710938 -205.699219 L 159.800781 -155.867188 " transform="matrix(1,0,0,1,292,292)"/>
<path style="fill:none;stroke-width:2.267717;stroke-linecap:butt;stroke-linejoin:miter;stroke:rgb(20%,20%,70%);stroke-opacity:0.5;stroke-miterlimit:10;" d="M 106.761719 -196.042969 L 187.519531 -121.113281 " transform="matrix(1,0,0,1,292,292)"/>
<path style="fill:none;stroke-width:2.267717;stroke-linecap:butt;stroke-linejoin:miter;stroke:rgb(20%,20%,70%);stroke-opacity:0.5;stroke-miterlimit:10;" d="M 125.75 -184.441406 L 207.796875 -81.554688 " transform="matrix(1,0,0,1,292,292)"/>
<path style="fill:none;stroke-width:2.267717;stroke-linecap:butt;stroke-linejoin:miter;stroke:rgb(20%,20%,70%);stroke-opacity:0.5;stroke-miterlimit:10;" d="M 143.488281 -171.003906 L 219.835938 -38.761719 " transform="matrix(1,0,0,1,292,292)"/>
<path style="fill:none;stroke-width:2.267717;stroke-linecap:butt;stroke-linejoin:miter;stroke:rgb(20%,20%,70%);stroke-opacity:0.5;stroke-miterlimit:10;" d="M 159.800781 -155.867188 L 223.160156 5.566406 " transform="matrix(1,0,0,1,292,292)"/>
<path style="fill:none;stroke-width:2.267717;stroke-linecap:butt;stroke-linejoin:miter;stroke:rgb(20%,20%,70%);stroke-opacity:0.5;stroke-miterlimit:10;" d="M 174.527344 -139.179688 L 217.632812 49.671875 " transform="matrix(1,0,0,1,292,292)"/>
<path style="fill:none;stroke-width:2.267717;stroke-linecap:butt;stroke-linejoin:miter;stroke:rgb(20%,20%,70%);stroke-opacity:0.5;stroke-miterlimit:10;" d="M 187.519531 -121.113281 L 203.472656 91.8125 " transform="matrix(1,0,0,1,292,292)"/>
<path style="fill:none;stroke-width:2.267717;stroke-linecap:butt;stroke-linejoin:miter;stroke:rgb(20%,20%,70%);stroke-opacity:0.5;stroke-miterlimit:10;" d="M 198.644531 -101.839844 L 181.246094 130.308594 " transform="matrix(1,0,0,1,292,292)"/>
<path style="fill:none;stroke-width:2.267717;stroke-linecap:butt;stroke-linejoin:miter;stroke:rgb(20%,20%,70%);stroke-opacity:0.5;stroke-miterlimit:10;" d="M 207.796875 -81.554688 L 151.832031 163.636719 " transform="matrix(1,0,0,1,292,292)"/>
<path style="fill:none;stroke-width:2.267717;stroke-linecap:butt;stroke-linejoin:miter;stroke:rgb(20%,20%,70%);stroke-opacity:0.5;stroke-miterlimit:10;" d="M 214.886719 -60.460938 L 116.398438 190.480469 " transform="matrix(1,0,0,1,292,292)"/>
<path style="fill:none;stroke-width:2.267717;stroke-linecap:butt;stroke-linejoin:miter;stroke:rgb(20%,20%,70%);stroke-opacity:0.5;stroke-miterlimit:10;" d="M 219.835938 -38.761719 L 76.347656 209.765625 " transform="matrix(1,0,0,1,292,292)"/>
<path style="fill:none;stroke-width:2.267717;stroke-linecap:butt;stroke-linejoin:miter;stroke:rgb(20%,20%,70%);stroke-opacity:0.5;stroke-miterlimit:10;" d="M 222.605469 -16.683594 L 33.269531 220.734375 " transform="matrix(1,0,0,1,292,292)"/>
<path style="fill:none;stroke-width:2.267717;stroke-linecap:butt;stroke-linejoin:miter;stroke:rgb(20%,20%,70%);stroke-opacity:0.5;stroke-miterlimit:10;" d="M 223.160156 5.566406 L -11.128906 222.949219 " transform="matrix(1,0,0,1,292,292)"/>
<path style="fill:none;stroke-width:2.267717;stroke-linecap:butt;stroke-linejoin:miter;stroke:rgb(20%,20%,70%);stroke-opacity:0.5;stroke-miterlimit:10;" d="M 221.496094 27.757812 L -55.082031 216.324219 " transform="matrix(1,0,0,1,292,292)"/>
<path style="fill:none;stroke-width:2.267717;stroke-linecap:butt;stroke-linejoin:miter;stroke:rgb(20%,20%,70%);stroke-opacity:0.5;stroke-miterlimit:10;" d="M 217.632812 49.671875 L -96.855469 201.121094 " transform="matrix(1,0,0,1,292,292)"/>
<path style="fill:none;stroke-width:2.267717;stroke-linecap:butt;stroke-linejoin:miter;stroke:rgb(20%,20%,70%);stroke-opacity:0.5;stroke-miterlimit:10;" d="M 211.605469 71.09375 L -134.785156 177.941406 " transform="matrix(1,0,0,1,292,292)"/>
<path style="fill:none;stroke-width:2.267717;stroke-linecap:butt;stroke-linejoin:miter;stroke:rgb(20%,20%,70%);stroke-opacity:0.5;stroke-miterlimit:10;" d="M 203.472656 91.8125 L -167.371094 147.707031 " transform="matrix(1,0,0,1,292,292)"/>
<path style="fill:none;stroke-width:2.267717;stroke-linecap:butt;stroke-linejoin:miter;stroke:rgb(20%,20%,70%);stroke-opacity:0.5;stroke-miterlimit:10;" d="M 193.320312 111.613281 L -193.320312 111.613281 " transform="matrix(1,0,0,1,292,292)"/>
<path style="fill:none;stroke-width:2.267717;stroke-linecap:butt;stroke-linejoin:miter;stroke:rgb(20%,20%,70%);stroke-opacity:0.5;stroke-miterlimit:10;" d="M 181.246094 130.308594 L -211.605469 71.09375 " transform="matrix(1,0,0,1,292,292)"/>
<path style="fill:none;stroke-width:2.267717;stroke-linecap:butt;stroke-linejoin:miter;stroke:rgb(20%,20%,70%);stroke-opacity:0.5;stroke-miterlimit:10;" d="M 167.371094 147.707031 L -221.496094 27.757812 " transform="matrix(1,0,0,1,292,292)"/>
<path style="fill:none;stroke-width:2.267717;stroke-linecap:butt;stroke-linejoin:miter;stroke:rgb(20%,20%,70%);stroke-opacity:0.5;stroke-miterlimit:10;" d="M 151.832031 163.636719 L -222.605469 -16.683594 " transform="matrix(1,0,0,1,292,292)"/>
<path style="fill:none;stroke-width:2.267717;stroke-linecap:butt;stroke-linejoin:miter;stroke:rgb(20%,20%,70%);stroke-opacity:0.5;stroke-miterlimit:10;" d="M 134.785156 177.941406 L -214.886719 -60.460938 " transform="matrix(1,0,0,1,292,292)"/>
<path style="fill:none;stroke-width:2.267717;stroke-linecap:butt;stroke-linejoin:miter;stroke:rgb(20%,20%,70%);stroke-opacity:0.5;stroke-miterlimit:10;" d="M 116.398438 190.480469 L -198.644531 -101.839844 " transform="matrix(1,0,0,1,292,292)"/>
<path style="fill:none;stroke-width:2.267717;stroke-linecap:butt;stroke-linejoin:miter;stroke:rgb(20%,20%,70%);stroke-opacity:0.5;stroke-miterlimit:10;" d="M 96.855469 201.121094 L -174.527344 -139.179688 " transform="matrix(1,0,0,1,292,292)"/>
<path style="fill:none;stroke-width:2.267717;stroke-linecap:butt;stroke-linejoin:miter;stroke:rgb(20%,20%,70%);stroke-opacity:0.5;stroke-miterlimit:10;" d="M 76.347656 209.765625 L -143.488281 -171.003906 " transform="matrix(1,0,0,1,292,292)"/>
<path style="fill:none;stroke-width:2.267717;stroke-linecap:butt;stroke-linejoin:miter;stroke:rgb(20%,20%,70%);stroke-opacity:0.5;stroke-miterlimit:10;" d="M 55.082031 216.324219 L -106.761719 -196.042969 " transform="matrix(1,0,0,1,292,292)"/>
<path style="fill:none;stroke-width:2.267717;stroke-linecap:butt;stroke-linejoin:miter;stroke:rgb(20%,20%,70%);stroke-opacity:0.5;stroke-miterlimit:10;" d="M 33.269531 220.734375 L -65.796875 -213.3125 " transform="matrix(1,0,0,1,292,292)"/>
<path style="fill:none;stroke-width:2.267717;stroke-linecap:butt;stroke-linejoin:miter;stroke:rgb(20%,20%,70%);stroke-opacity:0.5;stroke-miterlimit:10;" d="M 11.128906 222.949219 L -22.226562 -222.117188 " transform="matrix(1,0,0,1,292,292)"/>
<path style="fill:none;stroke-width:2.267717;stroke-linecap:butt;stroke-linejoin:miter;stroke:rgb(20%,20%,70%);stroke-opacity:0.5;stroke-miterlimit:10;" d="M -11.128906 222.949219 L 22.226562 -222.117188 " transform="matrix(1,0,0,1,292,292)"/>
<path style="fill:none;stroke-width:2.267717;stroke-linecap:butt;stroke-linejoin:miter;stroke:rgb(20%,20%,70%);stroke-opacity:0.5;stroke-miterlimit:10;" d="M -33.269531 220.734375 L 65.796875 -213.3125 " transform="matrix(1,0,0,1,292,292)"/>
<path style="fill:none;stroke-width:2.267717;stroke-linecap:butt;stroke-linejoin:miter;stroke:rgb(20%,20%,70%);stroke-opacity:0.5;stroke-miterlimit:10;" d="M -55.082031 216.324219 L 106.761719 -196.042969 " transform="matrix(1,0,0,1,292,292)"/>
<path style="fill:none;stroke-width:2.267717;stroke-linecap:butt;stroke-linejoin:miter;stroke:rgb(20%,20%,70%);stroke-opacity:0.5;stroke-miterlimit:10;" d="M -76.347656 209.765625 L 143.488281 -171.003906 " transform="matrix(1,0,0,1,292,292)"/>
<path style="fill:none;stroke-width:2.267717;stroke-linecap:butt;stroke-linejoin:miter;stroke:rgb(20%,20%,70%);stroke-opacity:0.5;stroke-miterlimit:10;" d="M -96.855469 201.121094 L 174.527344 -139.179688 " transform="matrix(1,0,0,1,292,292)"/>
<path style="fill:none;stroke-width:2.267717;stroke-linecap:butt;stroke-linejoin:miter;stroke:rgb(20%,20%,70%);stroke-opacity:0.5;stroke-miterlimit:10;" d="M -116.398438 190.480469 L 198.644531 -101.839844 " transform="matrix(1,0,0,1,292,292)"/>
<path style="fill:none;stroke-width:2.267717;stroke-linecap:butt;stroke-linejoin:miter;stroke:rgb(20%,20%,70%);stroke-opacity:0.5;stroke-miterlimit:10;" d="M -134.785156 177.941406 L 214.886719 -60.460938 " transform="matrix(1,0,0,1,292,292)"/>
<path style="fill:none;stroke-width:2.267717;stroke-linecap:butt;stroke-linejoin:miter;stroke:rgb(20%,20%,70%);stroke-opacity:0.5;stroke-miterlimit:10;" d="M -151.832031 163.636719 L 222.605469 -16.683594 " transform="matrix(1,0,0,1,292,292)"/>
<path style="fill:none;stroke-width:2.267717;stroke-linecap:butt;stroke-linejoin:miter;stroke:rgb(20%,20%,70%);stroke-opacity:0.5;stroke-miterlimit:10;" d="M -167.371094 147.707031 L 221.496094 27.757812 " transform="matrix(1,0,0,1,292,292)"/>
<path style="fill:none;stroke-width:2.267717;stroke-linecap:butt;stroke-linejoin:miter;stroke:rgb(20%,20%,70%);stroke-opacity:0.5;stroke-miterlimit:10;" d="M -181.246094 130.308594 L 211.605469 71.09375 " transform="matrix(1,0,0,1,292,292)"/>
<path style="fill:none;stroke-width:2.267717;stroke-linecap:butt;stroke-linejoin:miter;stroke:rgb(20%,20%,70%);stroke-opacity:0.5;stroke-miterlimit:10;" d="M -193.320312 111.613281 L 193.320312 111.613281 " transform="matrix(1,0,0,1,292,292)"/>
<path style="fill:none;stroke-width:2.267717;stroke-linecap:butt;stroke-linejoin:miter;stroke:rgb(20%,20%,70%);stroke-opacity:0.5;stroke-miterlimit:10;" d="M -203.472656 91.8125 L 167.371094 147.707031 " transform="matrix(1,0,0,1,292,292)"/>
<path style="fill:none;stroke-width:2.267717;stroke-linecap:butt;stroke-linejoin:miter;stroke:rgb(20%,20%,70%);stroke-opacity:0.5;stroke-miterlimit:10;" d="M -211.605469 71.09375 L 134.785156 177.941406 " transform="matrix(1,0,0,1,292,292)"/>
<path style="fill:none;stroke-width:2.267717;stroke-linecap:butt;stroke-linejoin:miter;stroke:rgb(20%,20%,70%);stroke-opacity:0.5;stroke-miterlimit:10;" d="M -217.632812 49.671875 L 96.855469 201.121094 " transform="matrix(1,0,0,1,292,292)"/>
<path style="fill:none;stroke-width:2.267717;stroke-linecap:butt;stroke-linejoin:miter;stroke:rgb(20%,20%,70%);stroke-opacity:0.5;stroke-miterlimit:10;" d="M -221.496094 27.757812 L 55.082031 216.324219 " transform="matrix(1,0,0,1,292,292)"/>
<path style="fill:none;stroke-width:2.267717;stroke-linecap:butt;stroke-linejoin:miter;stroke:rgb(20%,20%,70%);stroke-opacity:0.5;stroke-miterlimit:10;" d="M -223.160156 5.566406 L 11.128906 222.949219 " transform="matrix(1,0,0,1,292,292)"/>
<path style="fill:none;stroke-width:2.267717;stroke-linecap:butt;stroke-linejoin:miter;stroke:rgb(20%,20%,70%);stroke-opacity:0.5;stroke-miterlimit:10;" d="M -222.605469 -16.683594 L -33.269531 220.734375 " transform="matrix(1,0,0,1,292,292)"/>
<path style="fill:none;stroke-width:2.267717;stroke-linecap:butt;stroke-linejoin:miter;stroke:rgb(20%,20%,70%);stroke-opacity:0.5;stroke-miterlimit:10;" d="M -219.835938 -38.761719 L -76.347656 209.765625 " transform="matrix(1,0,0,1,292,292)"/>
<path style="fill:none;stroke-width:2.267717;stroke-linecap:butt;stroke-linejoin:miter;stroke:rgb(20%,20%,70%);stroke-opacity:0.5;stroke-miterlimit:10;" d="M -214.886719 -60.460938 L -116.398438 190.480469 " transform="matrix(1,0,0,1,292,292)"/>
<path style="fill:none;stroke-width:2.267717;stroke-linecap:butt;stroke-linejoin:miter;stroke:rgb(20%,20%,70%);stroke-opacity:0.5;stroke-miterlimit:10;" d="M -207.796875 -81.554688 L -151.832031 163.636719 " transform="matrix(1,0,0,1,292,292)"/>
<path style="fill:none;stroke-width:2.267717;stroke-linecap:butt;stroke-linejoin:miter;stroke:rgb(20%,20%,70%);stroke-opacity:0.5;stroke-miterlimit:10;" d="M -198.644531 -101.839844 L -181.246094 130.308594 " transform="matrix(1,0,0,1,292,292)"/>
<path style="fill:none;stroke-width:2.267717;stroke-linecap:butt;stroke-linejoin:miter;stroke:rgb(20%,20%,70%);stroke-opacity:0.5;stroke-miterlimit:10;" d="M -187.519531 -121.113281 L -203.472656 91.8125 " transform="matrix(1,0,0,1,292,292)"/>
<path style="fill:none;stroke-width:2.267717;stroke-linecap:butt;stroke-linejoin:miter;stroke:rgb(20%,20%,70%);stroke-opacity:0.5;stroke-miterlimit:10;" d="M -174.527344 -139.179688 L -217.632812 49.671875 " transform="matrix(1,0,0,1,292,292)"/>
<path style="fill:none;stroke-width:2.267717;stroke-linecap:butt;stroke-linejoin:miter;stroke:rgb(20%,20%,70%);stroke-opacity:0.5;stroke-miterlimit:10;" d="M -159.800781 -155.867188 L -223.160156 5.566406 " transform="matrix(1,0,0,1,292,292)"/>
<path style="fill:none;stroke-width:2.267717;stroke-linecap:butt;stroke-linejoin:miter;stroke:rgb(20%,20%,70%);stroke-opacity:0.5;stroke-miterlimit:10;" d="M -143.488281 -171.003906 L -219.835938 -38.761719 " transform="matrix(1,0,0,1,292,292)"/>
<path style="fill:none;stroke-width:2.267717;stroke-linecap:butt;stroke-linejoin:miter;stroke:rgb(20%,20%,70%);stroke-opacity:0.5;stroke-miterlimit:10;" d="M -125.75 -184.441406 L -207.796875 -81.554688 " transform="matrix(1,0,0,1,292,292)"/>
<path style="fill:none;stroke-width:2.267717;stroke-linecap:butt;stroke-linejoin:miter;stroke:rgb(20%,20%,70%);stroke-opacity:0.5;stroke-miterlimit:10;" d="M -106.761719 -196.042969 L -187.519531 -121.113281 " transform="matrix(1,0,0,1,292,292)"/>
<path style="fill:none;stroke-width:2.267717;stroke-linecap:butt;stroke-linejoin:miter;stroke:rgb(20%,20%,70%);stroke-opacity:0.5;stroke-miterlimit:10;" d="M -86.710938 -205.699219 L -159.800781 -155.867188 " transform="matrix(1,0,0,1,292,292)"/>
<path style="fill:none;stroke-width:2.267717;stroke-linecap:butt;stroke-linejoin:miter;stroke:rgb(20%,20%,70%);stroke-opacity:0.5;stroke-miterlimit:10;" d="M -65.796875 -213.3125 L -125.75 -184.441406 " transform="matrix(1,0,0,1,292,292)"/>
<path style="fill:none;stroke-width:2.267717;stroke-linecap:butt;stroke-linejoin:miter;stroke:rgb(20%,20%,70%);stroke-opacity:0.5;stroke-miterlimit:10;" d="M -44.230469 -218.800781 L -86.710938 -205.699219 " transform="matrix(1,0,0,1,292,292)"/>
<path style="fill:none;stroke-width:2.267717;stroke-linecap:butt;stroke-linejoin:miter;stroke:rgb(20%,20%,70%);stroke-opacity:0.5;stroke-miterlimit:10;" d="M -22.226562 -222.117188 L -44.230469 -218.800781 " transform="matrix(1,0,0,1,292,292)"/>
</g>
</svg>
