<?xml version="1.0" encoding="UTF-8"?>
<svg xmlns="http://www.w3.org/2000/svg" xmlns:xlink="http://www.w3.org/1999/xlink" width="740pt" height="740pt" viewBox="0 0 740 740" version="1.1">
<g id="surface332">
<path style="fill:none;stroke-width:0.566929;stroke-linecap:butt;stroke-linejoin:miter;stroke:rgb(100%,100%,100%);stroke-opacity:1;stroke-miterlimit:10;" d="M 368.503906 0 C 368.503906 -131.652344 298.265625 -253.308594 184.253906 -319.132812 C 70.238281 -384.960938 -70.238281 -384.960938 -184.253906 -319.132812 C -298.265625 -253.308594 -368.503906 -131.652344 -368.503906 0 C -368.503906 131.652344 -298.265625 253.308594 -184.253906 319.132812 C -70.238281 384.960938 70.238281 384.960938 184.253906 319.132812 C 298.265625 253.308594 368.503906 131.652344 368.503906 0 Z M 368.503906 0 " transform="matrix(1,0,0,1,370,370)"/>
<path style=" stroke:none;fill-rule:evenodd;fill:rgb(20%,20%,70%);fill-opacity:1;" d="M 372.835938 86.535156 C 372.835938 82.757812 367.164062 82.757812 367.164062 86.535156 C 367.164062 90.316406 372.835938 90.316406 372.835938 86.535156 Z M 372.835938 86.535156 "/>
<path style=" stroke:none;fill-rule:evenodd;fill:rgb(20%,20%,70%);fill-opacity:1;" d="M 395.074219 87.410156 C 395.074219 83.628906 389.40625 83.628906 389.40625 87.410156 C 389.40625 91.1875 395.074219 91.1875 395.074219 87.410156 Z M 395.074219 87.410156 "/>
<path style=" stroke:none;fill-rule:evenodd;fill:rgb(20%,20%,70%);fill-opacity:1;" d="M 417.179688 90.023438 C 417.179688 86.246094 411.507812 86.246094 411.507812 90.023438 C 411.507812 93.804688 417.179688 93.804688 417.179688 90.023438 Z M 417.179688 90.023438 "/>
<path style=" stroke:none;fill-rule:evenodd;fill:rgb(20%,20%,70%);fill-opacity:1;" d="M 439.007812 94.367188 C 439.007812 90.589844 433.339844 90.589844 433.339844 94.367188 C 433.339844 98.148438 439.007812 98.148438 439.007812 94.367188 Z M 439.007812 94.367188 "/>
<path style=" stroke:none;fill-rule:evenodd;fill:rgb(20%,20%,70%);fill-opacity:1;" d="M 460.429688 100.410156 C 460.429688 96.628906 454.761719 96.628906 454.761719 100.410156 C 454.761719 104.1875 460.429688 104.1875 460.429688 100.410156 Z M 460.429688 100.410156 "/>
<path style=" stroke:none;fill-rule:evenodd;fill:rgb(20%,20%,70%);fill-opacity:1;" d="M 481.3125 108.113281 C 481.3125 104.332031 475.640625 104.332031 475.640625 108.113281 C 475.640625 111.890625 481.3125 111.890625 481.3125 108.113281 Z M 481.3125 108.113281 "/>
<path style=" stroke:none;fill-rule:evenodd;fill:rgb(20%,20%,70%);fill-opacity:1;" d="M 501.523438 117.429688 C 501.523438 113.652344 495.855469 113.652344 495.855469 117.429688 C 495.855469 121.210938 501.523438 121.210938 501.523438 117.429688 Z M 501.523438 117.429688 "/>
<path style=" stroke:none;fill-rule:evenodd;fill:rgb(20%,20%,70%);fill-opacity:1;" d="M 520.945312 128.308594 C 520.945312 124.527344 515.273438 124.527344 515.273438 128.308594 C 515.273438 132.085938 520.945312 132.085938 520.945312 128.308594 Z M 520.945312 128.308594 "/>
<path style=" stroke:none;fill-rule:evenodd;fill:rgb(20%,20%,70%);fill-opacity:1;" d="M 539.449219 140.671875 C 539.449219 136.894531 533.78125 136.894531 533.78125 140.671875 C 533.78125 144.453125 539.449219 144.453125 539.449219 140.671875 Z M 539.449219 140.671875 "/>
<path style=" stroke:none;fill-rule:evenodd;fill:rgb(20%,20%,70%);fill-opacity:1;" d="M 556.929688 154.453125 C 556.929688 150.671875 551.261719 150.671875 551.261719 154.453125 C 551.261719 158.230469 556.929688 158.230469 556.929688 154.453125 Z M 556.929688 154.453125 "/>
<path style=" stroke:none;fill-rule:evenodd;fill:rgb(20%,20%,70%);fill-opacity:1;" d="M 573.273438 169.558594 C 573.273438 165.78125 567.605469 165.78125 567.605469 169.558594 C 567.605469 173.339844 573.273438 173.339844 573.273438 169.558594 Z M 573.273438 169.558594 "/>
<path style=" stroke:none;fill-rule:evenodd;fill:rgb(20%,20%,70%);fill-opacity:1;" d="M 588.382812 185.90625 C 588.382812 182.125 582.714844 182.125 582.714844 185.90625 C 582.714844 189.683594 588.382812 189.683594 588.382812 185.90625 Z M 588.382812 185.90625 "/>
<path style=" stroke:none;fill-rule:evenodd;fill:rgb(20%,20%,70%);fill-opacity:1;" d="M 602.164062 203.382812 C 602.164062 199.605469 596.492188 199.605469 596.492188 203.382812 C 596.492188 207.164062 602.164062 207.164062 602.164062 203.382812 Z M 602.164062 203.382812 "/>
<path style=" stroke:none;fill-rule:evenodd;fill:rgb(20%,20%,70%);fill-opacity:1;" d="M 614.527344 221.890625 C 614.527344 218.109375 608.859375 218.109375 608.859375 221.890625 C 608.859375 225.667969 614.527344 225.667969 614.527344 221.890625 Z M 614.527344 221.890625 "/>
<path style=" stroke:none;fill-rule:evenodd;fill:rgb(20%,20%,70%);fill-opacity:1;" d="M 625.402344 241.308594 C 625.402344 237.53125 619.734375 237.53125 619.734375 241.308594 C 619.734375 245.089844 625.402344 245.089844 625.402344 241.308594 Z M 625.402344 241.308594 "/>
<path style=" stroke:none;fill-rule:evenodd;fill:rgb(20%,20%,70%);fill-opacity:1;" d="M 634.722656 261.523438 C 634.722656 257.742188 629.050781 257.742188 629.050781 261.523438 C 629.050781 265.300781 634.722656 265.300781 634.722656 261.523438 Z M 634.722656 261.523438 "/>
<path style=" stroke:none;fill-rule:evenodd;fill:rgb(20%,20%,70%);fill-opacity:1;" d="M 642.425781 282.40625 C 642.425781 278.625 636.757812 278.625 636.757812 282.40625 C 636.757812 286.183594 642.425781 286.183594 642.425781 282.40625 Z M 642.425781 282.40625 "/>
<path style=" stroke:none;fill-rule:evenodd;fill:rgb(20%,20%,70%);fill-opacity:1;" d="M 648.46875 303.828125 C 648.46875 300.046875 642.796875 300.046875 642.796875 303.828125 C 642.796875 307.605469 648.46875 307.605469 648.46875 303.828125 Z M 648.46875 303.828125 "/>
<path style=" stroke:none;fill-rule:evenodd;fill:rgb(20%,20%,70%);fill-opacity:1;" d="M 652.808594 325.65625 C 652.808594 321.875 647.140625 321.875 647.140625 325.65625 C 647.140625 329.4375 652.808594 329.4375 652.808594 325.65625 Z M 652.808594 325.65625 "/>
<path style=" stroke:none;fill-rule:evenodd;fill:rgb(20%,20%,70%);fill-opacity:1;" d="M 655.425781 347.757812 C 655.425781 343.980469 649.757812 343.980469 649.757812 347.757812 C 649.757812 351.539062 655.425781 351.539062 655.425781 347.757812 Z M 655.425781 347.757812 "/>
<path style=" stroke:none;fill-rule:evenodd;fill:rgb(20%,20%,70%);fill-opacity:1;" d="M 656.300781 370 C 656.300781 366.21875 650.628906 366.21875 650.628906 370 C 650.628906 373.78125 656.300781 373.78125 656.300781 370 Z M 656.300781 370 "/>
<path style=" stroke:none;fill-rule:evenodd;fill:rgb(20%,20%,70%);fill-opacity:1;" d="M 655.425781 392.242188 C 655.425781 388.460938 649.757812 388.460938 649.757812 392.242188 C 649.757812 396.019531 655.425781 396.019531 655.425781 392.242188 Z M 655.425781 392.242188 "/>
<path style=" stroke:none;fill-rule:evenodd;fill:rgb(20%,20%,70%);fill-opacity:1;" d="M 652.808594 414.34375 C 652.808594 410.5625 647.140625 410.5625 647.140625 414.34375 C 647.140625 418.125 652.808594 418.125 652.808594 414.34375 Z M 652.808594 414.34375 "/>
<path style=" stroke:none;fill-rule:evenodd;fill:rgb(20%,20%,70%);fill-opacity:1;" d="M 648.46875 436.171875 C 648.46875 432.394531 642.796875 432.394531 642.796875 436.171875 C 642.796875 439.953125 648.46875 439.953125 648.46875 436.171875 Z M 648.46875 436.171875 "/>
<path style=" stroke:none;fill-rule:evenodd;fill:rgb(20%,20%,70%);fill-opacity:1;" d="M 642.425781 457.59375 C 642.425781 453.816406 636.757812 453.816406 636.757812 457.59375 C 636.757812 461.375 642.425781 461.375 642.425781 457.59375 Z M 642.425781 457.59375 "/>
<path style=" stroke:none;fill-rule:evenodd;fill:rgb(20%,20%,70%);fill-opacity:1;" d="M 634.722656 478.476562 C 634.722656 474.699219 629.050781 474.699219 629.050781 478.476562 C 629.050781 482.257812 634.722656 482.257812 634.722656 478.476562 Z M 634.722656 478.476562 "/>
<path style=" stroke:none;fill-rule:evenodd;fill:rgb(20%,20%,70%);fill-opacity:1;" d="M 625.402344 498.691406 C 625.402344 494.910156 619.734375 494.910156 619.734375 498.691406 C 619.734375 502.46875 625.402344 502.46875 625.402344 498.691406 Z M 625.402344 498.691406 "/>
<path style=" stroke:none;fill-rule:evenodd;fill:rgb(20%,20%,70%);fill-opacity:1;" d="M 614.527344 518.109375 C 614.527344 514.332031 608.859375 514.332031 608.859375 518.109375 C 608.859375 521.890625 614.527344 521.890625 614.527344 518.109375 Z M 614.527344 518.109375 "/>
<path style=" stroke:none;fill-rule:evenodd;fill:rgb(20%,20%,70%);fill-opacity:1;" d="M 602.164062 536.617188 C 602.164062 532.835938 596.492188 532.835938 596.492188 536.617188 C 596.492188 540.394531 602.164062 540.394531 602.164062 536.617188 Z M 602.164062 536.617188 "/>
<path style=" stroke:none;fill-rule:evenodd;fill:rgb(20%,20%,70%);fill-opacity:1;" d="M 588.382812 554.09375 C 588.382812 550.316406 582.714844 550.316406 582.714844 554.09375 C 582.714844 557.875 588.382812 557.875 588.382812 554.09375 Z M 588.382812 554.09375 "/>
<path style=" stroke:none;fill-rule:evenodd;fill:rgb(20%,20%,70%);fill-opacity:1;" d="M 573.273438 570.441406 C 573.273438 566.660156 567.605469 566.660156 567.605469 570.441406 C 567.605469 574.21875 573.273438 574.21875 573.273438 570.441406 Z M 573.273438 570.441406 "/>
<path style=" stroke:none;fill-rule:evenodd;fill:rgb(20%,20%,70%);fill-opacity:1;" d="M 556.929688 585.546875 C 556.929688 581.769531 551.261719 581.769531 551.261719 585.546875 C 551.261719 589.328125 556.929688 589.328125 556.929688 585.546875 Z M 556.929688 585.546875 "/>
<path style=" stroke:none;fill-rule:evenodd;fill:rgb(20%,20%,70%);fill-opacity:1;" d="M 539.449219 599.328125 C 539.449219 595.546875 533.78125 595.546875 533.78125 599.328125 C 533.78125 603.105469 539.449219 603.105469 539.449219 599.328125 Z M 539.449219 599.328125 "/>
<path style=" stroke:none;fill-rule:evenodd;fill:rgb(20%,20%,70%);fill-opacity:1;" d="M 520.945312 611.691406 C 520.945312 607.914062 515.273438 607.914062 515.273438 611.691406 C 515.273438 615.472656 520.945312 615.472656 520.945312 611.691406 Z M 520.945312 611.691406 "/>
<path style=" stroke:none;fill-rule:evenodd;fill:rgb(20%,20%,70%);fill-opacity:1;" d="M 501.523438 622.570312 C 501.523438 618.789062 495.855469 618.789062 495.855469 622.570312 C 495.855469 626.347656 501.523438 626.347656 501.523438 622.570312 Z M 501.523438 622.570312 "/>
<path style=" stroke:none;fill-rule:evenodd;fill:rgb(20%,20%,70%);fill-opacity:1;" d="M 481.3125 631.886719 C 481.3125 628.109375 475.640625 628.109375 475.640625 631.886719 C 475.640625 635.667969 481.3125 635.667969 481.3125 631.886719 Z M 481.3125 631.886719 "/>
<path style=" stroke:none;fill-rule:evenodd;fill:rgb(20%,20%,70%);fill-opacity:1;" d="M 460.429688 639.589844 C 460.429688 635.8125 454.761719 635.8125 454.761719 639.589844 C 454.761719 643.371094 460.429688 643.371094 460.429688 639.589844 Z M 460.429688 639.589844 "/>
<path style=" stroke:none;fill-rule:evenodd;fill:rgb(20%,20%,70%);fill-opacity:1;" d="M 439.007812 645.632812 C 439.007812 641.851562 433.339844 641.851562 433.339844 645.632812 C 433.339844 649.410156 439.007812 649.410156 439.007812 645.632812 Z M 439.007812 645.632812 "/>
<path style=" stroke:none;fill-rule:evenodd;fill:rgb(20%,20%,70%);fill-opacity:1;" d="M 417.179688 649.976562 C 417.179688 646.195312 411.507812 646.195312 411.507812 649.976562 C 411.507812 653.753906 417.179688 653.753906 417.179688 649.976562 Z M 417.179688 649.976562 "/>
<path style=" stroke:none;fill-rule:evenodd;fill:rgb(20%,20%,70%);fill-opacity:1;" d="M 395.074219 652.589844 C 395.074219 648.8125 389.40625 648.8125 389.40625 652.589844 C 389.40625 656.371094 395.074219 656.371094 395.074219 652.589844 Z M 395.074219 652.589844 "/>
<path style=" stroke:none;fill-rule:evenodd;fill:rgb(20%,20%,70%);fill-opacity:1;" d="M 372.835938 653.464844 C 372.835938 649.683594 367.164062 649.683594 367.164062 653.464844 C 367.164062 657.242188 372.835938 657.242188 372.835938 653.464844 Z M 372.835938 653.464844 "/>
<path style=" stroke:none;fill-rule:evenodd;fill:rgb(20%,20%,70%);fill-opacity:1;" d="M 350.59375 652.589844 C 350.59375 648.8125 344.925781 648.8125 344.925781 652.589844 C 344.925781 656.371094 350.59375 656.371094 350.59375 652.589844 Z M 350.59375 652.589844 "/>
<path style=" stroke:none;fill-rule:evenodd;fill:rgb(20%,20%,70%);fill-opacity:1;" d="M 328.492188 649.976562 C 328.492188 646.195312 322.820312 646.195312 322.820312 649.976562 C 322.820312 653.753906 328.492188 653.753906 328.492188 649.976562 Z M 328.492188 649.976562 "/>
<path style=" stroke:none;fill-rule:evenodd;fill:rgb(20%,20%,70%);fill-opacity:1;" d="M 306.660156 645.632812 C 306.660156 641.851562 300.992188 641.851562 300.992188 645.632812 C 300.992188 649.410156 306.660156 649.410156 306.660156 645.632812 Z M 306.660156 645.632812 "/>
<path style=" stroke:none;fill-rule:evenodd;fill:rgb(20%,20%,70%);fill-opacity:1;" d="M 285.238281 639.589844 C 285.238281 635.8125 279.570312 635.8125 279.570312 639.589844 C 279.570312 643.371094 285.238281 643.371094 285.238281 639.589844 Z M 285.238281 639.589844 "/>
<path style=" stroke:none;fill-rule:evenodd;fill:rgb(20%,20%,70%);fill-opacity:1;" d="M 264.359375 631.886719 C 264.359375 628.109375 258.6875 628.109375 258.6875 631.886719 C 258.6875 635.667969 264.359375 635.667969 264.359375 631.886719 Z M 264.359375 631.886719 "/>
<path style=" stroke:none;fill-rule:evenodd;fill:rgb(20%,20%,70%);fill-opacity:1;" d="M 244.144531 622.570312 C 244.144531 618.789062 238.476562 618.789062 238.476562 622.570312 C 238.476562 626.347656 244.144531 626.347656 244.144531 622.570312 Z M 244.144531 622.570312 "/>
<path style=" stroke:none;fill-rule:evenodd;fill:rgb(20%,20%,70%);fill-opacity:1;" d="M 224.726562 611.691406 C 224.726562 607.914062 219.054688 607.914062 219.054688 611.691406 C 219.054688 615.472656 224.726562 615.472656 224.726562 611.691406 Z M 224.726562 611.691406 "/>
<path style=" stroke:none;fill-rule:evenodd;fill:rgb(20%,20%,70%);fill-opacity:1;" d="M 206.21875 599.328125 C 206.21875 595.546875 200.550781 595.546875 200.550781 599.328125 C 200.550781 603.105469 206.21875 603.105469 206.21875 599.328125 Z M 206.21875 599.328125 "/>
<path style=" stroke:none;fill-rule:evenodd;fill:rgb(20%,20%,70%);fill-opacity:1;" d="M 188.738281 585.546875 C 188.738281 581.769531 183.070312 581.769531 183.070312 585.546875 C 183.070312 589.328125 188.738281 589.328125 188.738281 585.546875 Z M 188.738281 585.546875 "/>
<path style=" stroke:none;fill-rule:evenodd;fill:rgb(20%,20%,70%);fill-opacity:1;" d="M 172.394531 570.441406 C 172.394531 566.660156 166.726562 566.660156 166.726562 570.441406 C 166.726562 574.21875 172.394531 574.21875 172.394531 570.441406 Z M 172.394531 570.441406 "/>
<path style=" stroke:none;fill-rule:evenodd;fill:rgb(20%,20%,70%);fill-opacity:1;" d="M 157.285156 554.09375 C 157.285156 550.316406 151.617188 550.316406 151.617188 554.09375 C 151.617188 557.875 157.285156 557.875 157.285156 554.09375 Z M 157.285156 554.09375 "/>
<path style=" stroke:none;fill-rule:evenodd;fill:rgb(20%,20%,70%);fill-opacity:1;" d="M 143.507812 536.617188 C 143.507812 532.835938 137.835938 532.835938 137.835938 536.617188 C 137.835938 540.394531 143.507812 540.394531 143.507812 536.617188 Z M 143.507812 536.617188 "/>
<path style=" stroke:none;fill-rule:evenodd;fill:rgb(20%,20%,70%);fill-opacity:1;" d="M 131.140625 518.109375 C 131.140625 514.332031 125.472656 514.332031 125.472656 518.109375 C 125.472656 521.890625 131.140625 521.890625 131.140625 518.109375 Z M 131.140625 518.109375 "/>
<path style=" stroke:none;fill-rule:evenodd;fill:rgb(20%,20%,70%);fill-opacity:1;" d="M 120.265625 498.691406 C 120.265625 494.910156 114.597656 494.910156 114.597656 498.691406 C 114.597656 502.46875 120.265625 502.46875 120.265625 498.691406 Z M 120.265625 498.691406 "/>
<path style=" stroke:none;fill-rule:evenodd;fill:rgb(20%,20%,70%);fill-opacity:1;" d="M 110.949219 478.476562 C 110.949219 474.699219 105.277344 474.699219 105.277344 478.476562 C 105.277344 482.257812 110.949219 482.257812 110.949219 478.476562 Z M 110.949219 478.476562 "/>
<path style=" stroke:none;fill-rule:evenodd;fill:rgb(20%,20%,70%);fill-opacity:1;" d="M 103.242188 457.59375 C 103.242188 453.816406 97.574219 453.816406 97.574219 457.59375 C 97.574219 461.375 103.242188 461.375 103.242188 457.59375 Z M 103.242188 457.59375 "/>
<path style=" stroke:none;fill-rule:evenodd;fill:rgb(20%,20%,70%);fill-opacity:1;" d="M 97.203125 436.171875 C 97.203125 432.394531 91.53125 432.394531 91.53125 436.171875 C 91.53125 439.953125 97.203125 439.953125 97.203125 436.171875 Z M 97.203125 436.171875 "/>
<path style=" stroke:none;fill-rule:evenodd;fill:rgb(20%,20%,70%);fill-opacity:1;" d="M 92.859375 414.34375 C 92.859375 410.5625 87.191406 410.5625 87.191406 414.34375 C 87.191406 418.125 92.859375 418.125 92.859375 414.34375 Z M 92.859375 414.34375 "/>
<path style=" stroke:none;fill-rule:evenodd;fill:rgb(20%,20%,70%);fill-opacity:1;" d="M 90.242188 392.242188 C 90.242188 388.460938 84.574219 388.460938 84.574219 392.242188 C 84.574219 396.019531 90.242188 396.019531 90.242188 392.242188 Z M 90.242188 392.242188 "/>
<path style=" stroke:none;fill-rule:evenodd;fill:rgb(20%,20%,70%);fill-opacity:1;" d="M 89.371094 370 C 89.371094 366.21875 83.699219 366.21875 83.699219 370 C 83.699219 373.78125 89.371094 373.78125 89.371094 370 Z M 89.371094 370 "/>
<path style=" stroke:none;fill-rule:evenodd;fill:rgb(20%,20%,70%);fill-opacity:1;" d="M 90.242188 347.757812 C 90.242188 343.980469 84.574219 343.980469 84.574219 347.757812 C 84.574219 351.539062 90.242188 351.539062 90.242188 347.757812 Z M 90.242188 347.757812 "/>
<path style=" stroke:none;fill-rule:evenodd;fill:rgb(20%,20%,70%);fill-opacity:1;" d="M 92.859375 325.65625 C 92.859375 321.875 87.191406 321.875 87.191406 325.65625 C 87.191406 329.4375 92.859375 329.4375 92.859375 325.65625 Z M 92.859375 325.65625 "/>
<path style=" stroke:none;fill-rule:evenodd;fill:rgb(20%,20%,70%);fill-opacity:1;" d="M 97.203125 303.828125 C 97.203125 300.046875 91.53125 300.046875 91.53125 303.828125 C 91.53125 307.605469 97.203125 307.605469 97.203125 303.828125 Z M 97.203125 303.828125 "/>
<path style=" stroke:none;fill-rule:evenodd;fill:rgb(20%,20%,70%);fill-opacity:1;" d="M 103.242188 282.40625 C 103.242188 278.625 97.574219 278.625 97.574219 282.40625 C 97.574219 286.183594 103.242188 286.183594 103.242188 282.40625 Z M 103.242188 282.40625 "/>
<path style=" stroke:none;fill-rule:evenodd;fill:rgb(20%,20%,70%);fill-opacity:1;" d="M 110.949219 261.523438 C 110.949219 257.742188 105.277344 257.742188 105.277344 261.523438 C 105.277344 265.300781 110.949219 265.300781 110.949219 261.523438 Z M 110.949219 261.523438 "/>
<path style=" stroke:none;fill-rule:evenodd;fill:rgb(20%,20%,70%);fill-opacity:1;" d="M 120.265625 241.308594 C 120.265625 237.53125 114.597656 237.53125 114.597656 241.308594 C 114.597656 245.089844 120.265625 245.089844 120.265625 241.308594 Z M 120.265625 241.308594 "/>
<path style=" stroke:none;fill-rule:evenodd;fill:rgb(20%,20%,70%);fill-opacity:1;" d="M 131.140625 221.890625 C 131.140625 218.109375 125.472656 218.109375 125.472656 221.890625 C 125.472656 225.667969 131.140625 225.667969 131.140625 221.890625 Z M 131.140625 221.890625 "/>
<path style=" stroke:none;fill-rule:evenodd;fill:rgb(20%,20%,70%);fill-opacity:1;" d="M 143.507812 203.382812 C 143.507812 199.605469 137.835938 199.605469 137.835938 203.382812 C 137.835938 207.164062 143.507812 207.164062 143.507812 203.382812 Z M 143.507812 203.382812 "/>
<path style=" stroke:none;fill-rule:evenodd;fill:rgb(20%,20%,70%);fill-opacity:1;" d="M 157.285156 185.90625 C 157.285156 182.125 151.617188 182.125 151.617188 185.90625 C 151.617188 189.683594 157.285156 189.683594 157.285156 185.90625 Z M 157.285156 185.90625 "/>
<path style=" stroke:none;fill-rule:evenodd;fill:rgb(20%,20%,70%);fill-opacity:1;" d="M 172.394531 169.558594 C 172.394531 165.78125 166.726562 165.78125 166.726562 169.558594 C 166.726562 173.339844 172.394531 173.339844 172.394531 169.558594 Z M 172.394531 169.558594 "/>
<path style=" stroke:none;fill-rule:evenodd;fill:rgb(20%,20%,70%);fill-opacity:1;" d="M 188.738281 154.453125 C 188.738281 150.671875 183.070312 150.671875 183.070312 154.453125 C 183.070312 158.230469 188.738281 158.230469 188.738281 154.453125 Z M 188.738281 154.453125 "/>
<path style=" stroke:none;fill-rule:evenodd;fill:rgb(20%,20%,70%);fill-opacity:1;" d="M 206.21875 140.671875 C 206.21875 136.894531 200.550781 136.894531 200.550781 140.671875 C 200.550781 144.453125 206.21875 144.453125 206.21875 140.671875 Z M 206.21875 140.671875 "/>
<path style=" stroke:none;fill-rule:evenodd;fill:rgb(20%,20%,70%);fill-opacity:1;" d="M 224.726562 128.308594 C 224.726562 124.527344 219.054688 124.527344 219.054688 128.308594 C 219.054688 132.085938 224.726562 132.085938 224.726562 128.308594 Z M 224.726562 128.308594 "/>
<path style=" stroke:none;fill-rule:evenodd;fill:rgb(20%,20%,70%);fill-opacity:1;" d="M 244.144531 117.429688 C 244.144531 113.652344 238.476562 113.652344 238.476562 117.429688 C 238.476562 121.210938 244.144531 121.210938 244.144531 117.429688 Z M 244.144531 117.429688 "/>
<path style=" stroke:none;fill-rule:evenodd;fill:rgb(20%,20%,70%);fill-opacity:1;" d="M 264.359375 108.113281 C 264.359375 104.332031 258.6875 104.332031 258.6875 108.113281 C 258.6875 111.890625 264.359375 111.890625 264.359375 108.113281 Z M 264.359375 108.113281 "/>
<path style=" stroke:none;fill-rule:evenodd;fill:rgb(20%,20%,70%);fill-opacity:1;" d="M 285.238281 100.410156 C 285.238281 96.628906 279.570312 96.628906 279.570312 100.410156 C 279.570312 104.1875 285.238281 104.1875 285.238281 100.410156 Z M 285.238281 100.410156 "/>
<path style=" stroke:none;fill-rule:evenodd;fill:rgb(20%,20%,70%);fill-opacity:1;" d="M 306.660156 94.367188 C 306.660156 90.589844 300.992188 90.589844 300.992188 94.367188 C 300.992188 98.148438 306.660156 98.148438 306.660156 94.367188 Z M 306.660156 94.367188 "/>
<path style=" stroke:none;fill-rule:evenodd;fill:rgb(20%,20%,70%);fill-opacity:1;" d="M 328.492188 90.023438 C 328.492188 86.246094 322.820312 86.246094 322.820312 90.023438 C 322.820312 93.804688 328.492188 93.804688 328.492188 90.023438 Z M 328.492188 90.023438 "/>
<path style=" stroke:none;fill-rule:evenodd;fill:rgb(20%,20%,70%);fill-opacity:1;" d="M 350.59375 87.410156 C 350.59375 83.628906 344.925781 83.628906 344.925781 87.410156 C 344.925781 91.1875 350.59375 91.1875 350.59375 87.410156 Z M 350.59375 87.410156 "/>
<path style="fill:none;stroke-width:2.267717;stroke-linecap:butt;stroke-linejoin:miter;stroke:rgb(20%,20%,70%);stroke-opacity:0.5;stroke-miterlimit:10;" d="M 0 -283.464844 L 0 -283.464844 " transform="matrix(1,0,0,1,370,370)"/>
<path style="fill:none;stroke-width:2.267717;stroke-linecap:butt;stroke-linejoin:miter;stroke:rgb(20%,20%,70%);stroke-opacity:0.5;stroke-miterlimit:10;" d="M 22.242188 -282.589844 L 66.171875 -275.632812 " transform="matrix(1,0,0,1,370,370)"/>
<path style="fill:none;stroke-width:2.267717;stroke-linecap:butt;stroke-linejoin:miter;stroke:rgb(20%,20%,70%);stroke-opacity:0.5;stroke-miterlimit:10;" d="M 44.34375 -279.976562 L 128.691406 -252.570312 " transform="matrix(1,0,0,1,370,370)"/>
<path style="fill:none;stroke-width:2.267717;stroke-linecap:butt;stroke-linejoin:miter;stroke:rgb(20%,20%,70%);stroke-opacity:0.5;stroke-miterlimit:10;" d="M 66.171875 -275.632812 L 184.09375 -215.546875 " transform="matrix(1,0,0,1,370,370)"/>
<path style="fill:none;stroke-width:2.267717;stroke-linecap:butt;stroke-linejoin:miter;stroke:rgb(20%,20%,70%);stroke-opacity:0.5;stroke-miterlimit:10;" d="M 87.59375 -269.589844 L 229.328125 -166.617188 " transform="matrix(1,0,0,1,370,370)"/>
<path style="fill:none;stroke-width:2.267717;stroke-linecap:butt;stroke-linejoin:miter;stroke:rgb(20%,20%,70%);stroke-opacity:0.5;stroke-miterlimit:10;" d="M 108.476562 -261.886719 L 261.886719 -108.476562 " transform="matrix(1,0,0,1,370,370)"/>
<path style="fill:none;stroke-width:2.267717;stroke-linecap:butt;stroke-linejoin:miter;stroke:rgb(20%,20%,70%);stroke-opacity:0.5;stroke-miterlimit:10;" d="M 128.691406 -252.570312 L 279.976562 -44.34375 " transform="matrix(1,0,0,1,370,370)"/>
<path style="fill:none;stroke-width:2.267717;stroke-linecap:butt;stroke-linejoin:miter;stroke:rgb(20%,20%,70%);stroke-opacity:0.5;stroke-miterlimit:10;" d="M 148.109375 -241.691406 L 282.589844 22.242188 " transform="matrix(1,0,0,1,370,370)"/>
<path style="fill:none;stroke-width:2.267717;stroke-linecap:butt;stroke-linejoin:miter;stroke:rgb(20%,20%,70%);stroke-opacity:0.5;stroke-miterlimit:10;" d="M 166.617188 -229.328125 L 269.589844 87.59375 " transform="matrix(1,0,0,1,370,370)"/>
<path style="fill:none;stroke-width:2.267717;stroke-linecap:butt;stroke-linejoin:miter;stroke:rgb(20%,20%,70%);stroke-opacity:0.5;stroke-miterlimit:10;" d="M 184.09375 -215.546875 L 241.691406 148.109375 " transform="matrix(1,0,0,1,370,370)"/>
<path style="fill:none;stroke-width:2.267717;stroke-linecap:butt;stroke-linejoin:miter;stroke:rgb(20%,20%,70%);stroke-opacity:0.5;stroke-miterlimit:10;" d="M 200.441406 -200.441406 L 200.441406 200.441406 " transform="matrix(1,0,0,1,370,370)"/>
<path style="fill:none;stroke-width:2.267717;stroke-linecap:butt;stroke-linejoin:miter;stroke:rgb(20%,20%,70%);stroke-opacity:0.5;stroke-miterlimit:10;" d="M 215.546875 -184.09375 L 148.109375 241.691406 " transform="matrix(1,0,0,1,370,370)"/>
<path style="fill:none;stroke-width:2.267717;stroke-linecap:butt;stroke-linejoin:miter;stroke:rgb(20%,20%,70%);stroke-opacity:0.5;stroke-miterlimit:10;" d="M 229.328125 -166.617188 L 87.59375 269.589844 " transform="matrix(1,0,0,1,370,370)"/>
<path style="fill:none;stroke-width:2.267717;stroke-linecap:butt;stroke-linejoin:miter;stroke:rgb(20%,20%,70%);stroke-opacity:0.5;stroke-miterlimit:10;" d="M 241.691406 -148.109375 L 22.242188 282.589844 " transform="matrix(1,0,0,1,370,370)"/>
<path style="fill:none;stroke-width:2.267717;stroke-linecap:butt;stroke-linejoin:miter;stroke:rgb(20%,20%,70%);stroke-opacity:0.5;stroke-miterlimit:10;" d="M 252.570312 -128.691406 L -44.34375 279.976562 " transform="matrix(1,0,0,1,370,370)"/>
<path style="fill:none;stroke-width:2.267717;stroke-linecap:butt;stroke-linejoin:miter;stroke:rgb(20%,20%,70%);stroke-opacity:0.5;stroke-miterlimit:10;" d="M 261.886719 -108.476562 L -108.476562 261.886719 " transform="matrix(1,0,0,1,370,370)"/>
<path style="fill:none;stroke-width:2.267717;stroke-linecap:butt;stroke-linejoin:miter;stroke:rgb(20%,20%,70%);stroke-opacity:0.5;stroke-miterlimit:10;" d="M 269.589844 -87.59375 L -166.617188 229.328125 " transform="matrix(1,0,0,1,370,370)"/>
<path style="fill:none;stroke-width:2.267717;stroke-linecap:butt;stroke-linejoin:miter;stroke:rgb(20%,20%,70%);stroke-opacity:0.5;stroke-miterlimit:10;" d="M 275.632812 -66.171875 L -215.546875 184.09375 " transform="matrix(1,0,0,1,370,370)"/>
<path style="fill:none;stroke-width:2.267717;stroke-linecap:butt;stroke-linejoin:miter;stroke:rgb(20%,20%,70%);stroke-opacity:0.5;stroke-miterlimit:10;" d="M 279.976562 -44.34375 L -252.570312 128.691406 " transform="matrix(1,0,0,1,370,370)"/>
<path style="fill:none;stroke-width:2.267717;stroke-linecap:butt;stroke-linejoin:miter;stroke:rgb(20%,20%,70%);stroke-opacity:0.5;stroke-miterlimit:10;" d="M 282.589844 -22.242188 L -275.632812 66.171875 " transform="matrix(1,0,0,1,370,370)"/>
<path style="fill:none;stroke-width:2.267717;stroke-linecap:butt;stroke-linejoin:miter;stroke:rgb(20%,20%,70%);stroke-opacity:0.5;stroke-miterlimit:10;" d="M 283.464844 0 L -283.464844 0 " transform="matrix(1,0,0,1,370,370)"/>
<path style="fill:none;stroke-width:2.267717;stroke-linecap:butt;stroke-linejoin:miter;stroke:rgb(20%,20%,70%);stroke-opacity:0.5;stroke-miterlimit:10;" d="M 282.589844 22.242188 L -275.632812 -66.171875 " transform="matrix(1,0,0,1,370,370)"/>
<path style="fill:none;stroke-width:2.267717;stroke-linecap:butt;stroke-linejoin:miter;stroke:rgb(20%,20%,70%);stroke-opacity:0.5;stroke-miterlimit:10;" d="M 279.976562 44.34375 L -252.570312 -128.691406 " transform="matrix(1,0,0,1,370,370)"/>
<path style="fill:none;stroke-width:2.267717;stroke-linecap:butt;stroke-linejoin:miter;stroke:rgb(20%,20%,70%);stroke-opacity:0.5;stroke-miterlimit:10;" d="M 275.632812 66.171875 L -215.546875 -184.09375 " transform="matrix(1,0,0,1,370,370)"/>
<path style="fill:none;stroke-width:2.267717;stroke-linecap:butt;stroke-linejoin:miter;stroke:rgb(20%,20%,70%);stroke-opacity:0.5;stroke-miterlimit:10;" d="M 269.589844 87.59375 L -166.617188 -229.328125 " transform="matrix(1,0,0,1,370,370)"/>
<path style="fill:none;stroke-width:2.267717;stroke-linecap:butt;stroke-linejoin:miter;stroke:rgb(20%,20%,70%);stroke-opacity:0.5;stroke-miterlimit:10;" d="M 261.886719 108.476562 L -108.476562 -261.886719 " transform="matrix(1,0,0,1,370,370)"/>
<path style="fill:none;stroke-width:2.267717;stroke-linecap:butt;stroke-linejoin:miter;stroke:rgb(20%,20%,70%);stroke-opacity:0.5;stroke-miterlimit:10;" d="M 252.570312 128.691406 L -44.34375 -279.976562 " transform="matrix(1,0,0,1,370,370)"/>
<path style="fill:none;stroke-width:2.267717;stroke-linecap:butt;stroke-linejoin:miter;stroke:rgb(20%,20%,70%);stroke-opacity:0.5;stroke-miterlimit:10;" d="M 241.691406 148.109375 L 22.242188 -282.589844 " transform="matrix(1,0,0,1,370,370)"/>
<path style="fill:none;stroke-width:2.267717;stroke-linecap:butt;stroke-linejoin:miter;stroke:rgb(20%,20%,70%);stroke-opacity:0.5;stroke-miterlimit:10;" d="M 229.328125 166.617188 L 87.59375 -269.589844 " transform="matrix(1,0,0,1,370,370)"/>
<path style="fill:none;stroke-width:2.267717;stroke-linecap:butt;stroke-linejoin:miter;stroke:rgb(20%,20%,70%);stroke-opacity:0.5;stroke-miterlimit:10;" d="M 215.546875 184.09375 L 148.109375 -241.691406 " transform="matrix(1,0,0,1,370,370)"/>
<path style="fill:none;stroke-width:2.267717;stroke-linecap:butt;stroke-linejoin:miter;stroke:rgb(20%,20%,70%);stroke-opacity:0.5;stroke-miterlimit:10;" d="M 200.441406 200.441406 L 200.441406 -200.441406 " transform="matrix(1,0,0,1,370,370)"/>
<path style="fill:none;stroke-width:2.267717;stroke-linecap:butt;stroke-linejoin:miter;stroke:rgb(20%,20%,70%);stroke-opacity:0.5;stroke-miterlimit:10;" d="M 184.09375 215.546875 L 241.691406 -148.109375 " transform="matrix(1,0,0,1,370,370)"/>
<path style="fill:none;stroke-width:2.267717;stroke-linecap:butt;stroke-linejoin:miter;stroke:rgb(20%,20%,70%);stroke-opacity:0.5;stroke-miterlimit:10;" d="M 166.617188 229.328125 L 269.589844 -87.59375 " transform="matrix(1,0,0,1,370,370)"/>
<path style="fill:none;stroke-width:2.267717;stroke-linecap:butt;stroke-linejoin:miter;stroke:rgb(20%,20%,70%);stroke-opacity:0.5;stroke-miterlimit:10;" d="M 148.109375 241.691406 L 282.589844 -22.242188 " transform="matrix(1,0,0,1,370,370)"/>
<path style="fill:none;stroke-width:2.267717;stroke-linecap:butt;stroke-linejoin:miter;stroke:rgb(20%,20%,70%);stroke-opacity:0.5;stroke-miterlimit:10;" d="M 128.691406 252.570312 L 279.976562 44.34375 " transform="matrix(1,0,0,1,370,370)"/>
<path style="fill:none;stroke-width:2.267717;stroke-linecap:butt;stroke-linejoin:miter;stroke:rgb(20%,20%,70%);stroke-opacity:0.5;stroke-miterlimit:10;" d="M 108.476562 261.886719 L 261.886719 108.476562 " transform="matrix(1,0,0,1,370,370)"/>
<path style="fill:none;stroke-width:2.267717;stroke-linecap:butt;stroke-linejoin:miter;stroke:rgb(20%,20%,70%);stroke-opacity:0.5;stroke-miterlimit:10;" d="M 87.59375 269.589844 L 229.328125 166.617188 " transform="matrix(1,0,0,1,370,370)"/>
<path style="fill:none;stroke-width:2.267717;stroke-linecap:butt;stroke-linejoin:miter;stroke:rgb(20%,20%,70%);stroke-opacity:0.5;stroke-miterlimit:10;" d="M 66.171875 275.632812 L 184.09375 215.546875 " transform="matrix(1,0,0,1,370,370)"/>
<path style="fill:none;stroke-width:2.267717;stroke-linecap:butt;stroke-linejoin:miter;stroke:rgb(20%,20%,70%);stroke-opacity:0.5;stroke-miterlimit:10;" d="M 44.34375 279.976562 L 128.691406 252.570312 " transform="matrix(1,0,0,1,370,370)"/>
<path style="fill:none;stroke-width:2.267717;stroke-linecap:butt;stroke-linejoin:miter;stroke:rgb(20%,20%,70%);stroke-opacity:0.5;stroke-miterlimit:10;" d="M 22.242188 282.589844 L 66.171875 275.632812 " transform="matrix(1,0,0,1,370,370)"/>
<path style="fill:none;stroke-width:2.267717;stroke-linecap:butt;stroke-linejoin:miter;stroke:rgb(20%,20%,70%);stroke-opacity:0.5;stroke-miterlimit:10;" d="M 0 283.464844 L 0 283.464844 " transform="matrix(1,0,0,1,370,370)"/>
<path style="fill:none;stroke-width:2.267717;stroke-linecap:butt;stroke-linejoin:miter;stroke:rgb(20%,20%,70%);stroke-opacity:0.5;stroke-miterlimit:10;" d="M -22.242188 282.589844 L -66.171875 275.632812 " transform="matrix(1,0,0,1,370,370)"/>
<path style="fill:none;stroke-width:2.267717;stroke-linecap:butt;stroke-linejoin:miter;stroke:rgb(20%,20%,70%);stroke-opacity:0.5;stroke-miterlimit:10;" d="M -44.34375 279.976562 L -128.691406 252.570312 " transform="matrix(1,0,0,1,370,370)"/>
<path style="fill:none;stroke-width:2.267717;stroke-linecap:butt;stroke-linejoin:miter;stroke:rgb(20%,20%,70%);stroke-opacity:0.5;stroke-miterlimit:10;" d="M -66.171875 275.632812 L -184.09375 215.546875 " transform="matrix(1,0,0,1,370,370)"/>
<path style="fill:none;stroke-width:2.267717;stroke-linecap:butt;stroke-linejoin:miter;stroke:rgb(20%,20%,70%);stroke-opacity:0.5;stroke-miterlimit:10;" d="M -87.59375 269.589844 L -229.328125 166.617188 " transform="matrix(1,0,0,1,370,370)"/>
<path style="fill:none;stroke-width:2.267717;stroke-linecap:butt;stroke-linejoin:miter;stroke:rgb(20%,20%,70%);stroke-opacity:0.5;stroke-miterlimit:10;" d="M -108.476562 261.886719 L -261.886719 108.476562 " transform="matrix(1,0,0,1,370,370)"/>
<path style="fill:none;stroke-width:2.267717;stroke-linecap:butt;stroke-linejoin:miter;stroke:rgb(20%,20%,70%);stroke-opacity:0.5;stroke-miterlimit:10;" d="M -128.691406 252.570312 L -279.976562 44.34375 " transform="matrix(1,0,0,1,370,370)"/>
<path style="fill:none;stroke-width:2.267717;stroke-linecap:butt;stroke-linejoin:miter;stroke:rgb(20%,20%,70%);stroke-opacity:0.5;stroke-miterlimit:10;" d="M -148.109375 241.691406 L -282.589844 -22.242188 " transform="matrix(1,0,0,1,370,370)"/>
<path style="fill:none;stroke-width:2.267717;stroke-linecap:butt;stroke-linejoin:miter;stroke:rgb(20%,20%,70%);stroke-opacity:0.5;stroke-miterlimit:10;" d="M -166.617188 229.328125 L -269.589844 -87.59375 " transform="matrix(1,0,0,1,370,370)"/>
<path style="fill:none;stroke-width:2.267717;stroke-linecap:butt;stroke-linejoin:miter;stroke:rgb(20%,20%,70%);stroke-opacity:0.5;stroke-miterlimit:10;" d="M -184.09375 215.546875 L -241.691406 -148.109375 " transform="matrix(1,0,0,1,370,370)"/>
<path style="fill:none;stroke-width:2.267717;stroke-linecap:butt;stroke-linejoin:miter;stroke:rgb(20%,20%,70%);stroke-opacity:0.5;stroke-miterlimit:10;" d="M -200.441406 200.441406 L -200.441406 -200.441406 " transform="matrix(1,0,0,1,370,370)"/>
<path style="fill:none;stroke-width:2.267717;stroke-linecap:butt;stroke-linejoin:miter;stroke:rgb(20%,20%,70%);stroke-opacity:0.5;stroke-miterlimit:10;" d="M -215.546875 184.09375 L -148.109375 -241.691406 " transform="matrix(1,0,0,1,370,370)"/>
<path style="fill:none;stroke-width:2.267717;stroke-linecap:butt;stroke-linejoin:miter;stroke:rgb(20%,20%,70%);stroke-opacity:0.5;stroke-miterlimit:10;" d="M -229.328125 166.617188 L -87.59375 -269.589844 " transform="matrix(1,0,0,1,370,370)"/>
<path style="fill:none;stroke-width:2.267717;stroke-linecap:butt;stroke-linejoin:miter;stroke:rgb(20%,20%,70%);stroke-opacity:0.5;stroke-miterlimit:10;" d="M -241.691406 148.109375 L -22.242188 -282.589844 " transform="matrix(1,0,0,1,370,370)"/>
<path style="fill:none;stroke-width:2.267717;stroke-linecap:butt;stroke-linejoin:miter;stroke:rgb(20%,20%,70%);stroke-opacity:0.5;stroke-miterlimit:10;" d="M -252.570312 128.691406 L 44.34375 -279.976562 " transform="matrix(1,0,0,1,370,370)"/>
<path style="fill:none;stroke-width:2.267717;stroke-linecap:butt;stroke-linejoin:miter;stroke:rgb(20%,20%,70%);stroke-opacity:0.5;stroke-miterlimit:10;" d="M -261.886719 108.476562 L 108.476562 -261.886719 " transform="matrix(1,0,0,1,370,370)"/>
<path style="fill:none;stroke-width:2.267717;stroke-linecap:butt;stroke-linejoin:miter;stroke:rgb(20%,20%,70%);stroke-opacity:0.5;stroke-miterlimit:10;" d="M -269.589844 87.59375 L 166.617188 -229.328125 " transform="matrix(1,0,0,1,370,370)"/>
<path style="fill:none;stroke-width:2.267717;stroke-linecap:butt;stroke-linejoin:miter;stroke:rgb(20%,20%,70%);stroke-opacity:0.5;stroke-miterlimit:10;" d="M -275.632812 66.171875 L 215.546875 -184.09375 " transform="matrix(1,0,0,1,370,370)"/>
<path style="fill:none;stroke-width:2.267717;stroke-linecap:butt;stroke-linejoin:miter;stroke:rgb(20%,20%,70%);stroke-opacity:0.5;stroke-miterlimit:10;" d="M -279.976562 44.34375 L 252.570312 -128.691406 " transform="matrix(1,0,0,1,370,370)"/>
<path style="fill:none;stroke-width:2.267717;stroke-linecap:butt;stroke-linejoin:miter;stroke:rgb(20%,20%,70%);stroke-opacity:0.5;stroke-miterlimit:10;" d="M -282.589844 22.242188 L 275.632812 -66.171875 " transform="matrix(1,0,0,1,370,370)"/>
<path style="fill:none;stroke-width:2.267717;stroke-linecap:butt;stroke-linejoin:miter;stroke:rgb(20%,20%,70%);stroke-opacity:0.5;stroke-miterlimit:10;" d="M -283.464844 0 L 283.464844 0 " transform="matrix(1,0,0,1,370,370)"/>
<path style="fill:none;stroke-width:2.267717;stroke-linecap:butt;stroke-linejoin:miter;stroke:rgb(20%,20%,70%);stroke-opacity:0.5;stroke-miterlimit:10;" d="M -282.589844 -22.242188 L 275.632812 66.171875 " transform="matrix(1,0,0,1,370,370)"/>
<path style="fill:none;stroke-width:2.267717;stroke-linecap:butt;stroke-linejoin:miter;stroke:rgb(20%,20%,70%);stroke-opacity:0.5;stroke-miterlimit:10;" d="M -279.976562 -44.34375 L 252.570312 128.691406 " transform="matrix(1,0,0,1,370,370)"/>
<path style="fill:none;stroke-width:2.267717;stroke-linecap:butt;stroke-linejoin:miter;stroke:rgb(20%,20%,70%);stroke-opacity:0.5;stroke-miterlimit:10;" d="M -275.632812 -66.171875 L 215.546875 184.09375 " transform="matrix(1,0,0,1,370,370)"/>
<path style="fill:none;stroke-width:2.267717;stroke-linecap:butt;stroke-linejoin:miter;stroke:rgb(20%,20%,70%);stroke-opacity:0.5;stroke-miterlimit:10;" d="M -269.589844 -87.59375 L 166.617188 229.328125 " transform="matrix(1,0,0,1,370,370)"/>
<path style="fill:none;stroke-width:2.267717;stroke-linecap:butt;stroke-linejoin:miter;stroke:rgb(20%,20%,70%);stroke-opacity:0.5;stroke-miterlimit:10;" d="M -261.886719 -108.476562 L 108.476562 261.886719 " transform="matrix(1,0,0,1,370,370)"/>
<path style="fill:none;stroke-width:2.267717;stroke-linecap:butt;stroke-linejoin:miter;stroke:rgb(20%,20%,70%);stroke-opacity:0.5;stroke-miterlimit:10;" d="M -252.570312 -128.691406 L 44.34375 279.976562 " transform="matrix(1,0,0,1,370,370)"/>
<path style="fill:none;stroke-width:2.267717;stroke-linecap:butt;stroke-linejoin:miter;stroke:rgb(20%,20%,70%);stroke-opacity:0.5;stroke-miterlimit:10;" d="M -241.691406 -148.109375 L -22.242188 282.589844 " transform="matrix(1,0,0,1,370,370)"/>
<path style="fill:none;stroke-width:2.267717;stroke-linecap:butt;stroke-linejoin:miter;stroke:rgb(20%,20%,70%);stroke-opacity:0.5;stroke-miterlimit:10;" d="M -229.328125 -166.617188 L -87.59375 269.589844 " transform="matrix(1,0,0,1,370,370)"/>
<path style="fill:none;stroke-width:2.267717;stroke-linecap:butt;stroke-linejoin:miter;stroke:rgb(20%,20%,70%);stroke-opacity:0.5;stroke-miterlimit:10;" d="M -215.546875 -184.09375 L -148.109375 241.691406 " transform="matrix(1,0,0,1,370,370)"/>
<path style="fill:none;stroke-width:2.267717;stroke-linecap:butt;stroke-linejoin:miter;stroke:rgb(20%,20%,70%);stroke-opacity:0.5;stroke-miterlimit:10;" d="M -200.441406 -200.441406 L -200.441406 200.441406 " transform="matrix(1,0,0,1,370,370)"/>
<path style="fill:none;stroke-width:2.267717;stroke-linecap:butt;stroke-linejoin:miter;stroke:rgb(20%,20%,70%);stroke-opacity:0.5;stroke-miterlimit:10;" d="M -184.09375 -215.546875 L -241.691406 148.109375 " transform="matrix(1,0,0,1,370,370)"/>
<path style="fill:none;stroke-width:2.267717;stroke-linecap:butt;stroke-linejoin:miter;stroke:rgb(20%,20%,70%);stroke-opacity:0.5;stroke-miterlimit:10;" d="M -166.617188 -229.328125 L -269.589844 87.59375 " transform="matrix(1,0,0,1,370,370)"/>
<path style="fill:none;stroke-width:2.267717;stroke-linecap:butt;stroke-linejoin:miter;stroke:rgb(20%,20%,70%);stroke-opacity:0.5;stroke-miterlimit:10;" d="M -148.109375 -241.691406 L -282.589844 22.242188 " transform="matrix(1,0,0,1,370,370)"/>
<path style="fill:none;stroke-width:2.267717;stroke-linecap:butt;stroke-linejoin:miter;stroke:rgb(20%,20%,70%);stroke-opacity:0.5;stroke-miterlimit:10;" d="M -128.691406 -252.570312 L -279.976562 -44.34375 " transform="matrix(1,0,0,1,370,370)"/>
<path style="fill:none;stroke-width:2.267717;stroke-linecap:butt;stroke-linejoin:miter;stroke:rgb(20%,20%,70%);stroke-opacity:0.5;stroke-miterlimit:10;" d="M -108.476562 -261.886719 L -261.886719 -108.476562 " transform="matrix(1,0,0,1,370,370)"/>
<path style="fill:none;stroke-width:2.267717;stroke-linecap:butt;stroke-linejoin:miter;stroke:rgb(20%,20%,70%);stroke-opacity:0.5;stroke-miterlimit:10;" d="M -87.59375 -269.589844 L -229.328125 -166.617188 " transform="matrix(1,0,0,1,370,370)"/>
<path style="fill:none;stroke-width:2.267717;stroke-linecap:butt;stroke-linejoin:miter;stroke:rgb(20%,20%,70%);stroke-opacity:0.5;stroke-miterlimit:10;" d="M -66.171875 -275.632812 L -184.09375 -215.546875 " transform="matrix(1,0,0,1,370,370)"/>
<path style="fill:none;stroke-width:2.267717;stroke-linecap:butt;stroke-linejoin:miter;stroke:rgb(20%,20%,70%);stroke-opacity:0.5;stroke-miterlimit:10;" d="M -44.34375 -279.976562 L -128.691406 -252.570312 " transform="matrix(1,0,0,1,370,370)"/>
<path style="fill:none;stroke-width:2.267717;stroke-linecap:butt;stroke-linejoin:miter;stroke:rgb(20%,20%,70%);stroke-opacity:0.5;stroke-miterlimit:10;" d="M -22.242188 -282.589844 L -66.171875 -275.632812 " transform="matrix(1,0,0,1,370,370)"/>
</g>
</svg>
