<?xml version="1.0" encoding="UTF-8"?>
<svg xmlns="http://www.w3.org/2000/svg" xmlns:xlink="http://www.w3.org/1999/xlink" width="224pt" height="224pt" viewBox="0 0 224 224" version="1.1">
<g id="surface124">
<path style="fill:none;stroke-width:0.566929;stroke-linecap:butt;stroke-linejoin:miter;stroke:rgb(100%,100%,100%);stroke-opacity:1;stroke-miterlimit:10;" d="M 110.550781 0 C 110.550781 -61.054688 61.054688 -110.550781 0 -110.550781 C -61.054688 -110.550781 -110.550781 -61.054688 -110.550781 0 C -110.550781 61.054688 -61.054688 110.550781 0 110.550781 C 61.054688 110.550781 110.550781 61.054688 110.550781 0 Z M 110.550781 0 " transform="matrix(1,0,0,1,112,112)"/>
<path style=" stroke:none;fill-rule:evenodd;fill:rgb(20%,20%,70%);fill-opacity:1;" d="M 114.835938 26.960938 C 114.835938 23.179688 109.164062 23.179688 109.164062 26.960938 C 109.164062 30.738281 114.835938 30.738281 114.835938 26.960938 Z M 114.835938 26.960938 "/>
<path style=" stroke:none;fill-rule:evenodd;fill:rgb(20%,20%,70%);fill-opacity:1;" d="M 136.84375 29.859375 C 136.84375 26.078125 131.175781 26.078125 131.175781 29.859375 C 131.175781 33.636719 136.84375 33.636719 136.84375 29.859375 Z M 136.84375 29.859375 "/>
<path style=" stroke:none;fill-rule:evenodd;fill:rgb(20%,20%,70%);fill-opacity:1;" d="M 157.355469 38.355469 C 157.355469 34.574219 151.683594 34.574219 151.683594 38.355469 C 151.683594 42.132812 157.355469 42.132812 157.355469 38.355469 Z M 157.355469 38.355469 "/>
<path style=" stroke:none;fill-rule:evenodd;fill:rgb(20%,20%,70%);fill-opacity:1;" d="M 174.964844 51.867188 C 174.964844 48.089844 169.296875 48.089844 169.296875 51.867188 C 169.296875 55.648438 174.964844 55.648438 174.964844 51.867188 Z M 174.964844 51.867188 "/>
<path style=" stroke:none;fill-rule:evenodd;fill:rgb(20%,20%,70%);fill-opacity:1;" d="M 188.480469 69.480469 C 188.480469 65.699219 182.8125 65.699219 182.8125 69.480469 C 182.8125 73.261719 188.480469 73.261719 188.480469 69.480469 Z M 188.480469 69.480469 "/>
<path style=" stroke:none;fill-rule:evenodd;fill:rgb(20%,20%,70%);fill-opacity:1;" d="M 196.976562 89.988281 C 196.976562 86.210938 191.308594 86.210938 191.308594 89.988281 C 191.308594 93.769531 196.976562 93.769531 196.976562 89.988281 Z M 196.976562 89.988281 "/>
<path style=" stroke:none;fill-rule:evenodd;fill:rgb(20%,20%,70%);fill-opacity:1;" d="M 199.875 112 C 199.875 108.21875 194.203125 108.21875 194.203125 112 C 194.203125 115.78125 199.875 115.78125 199.875 112 Z M 199.875 112 "/>
<path style=" stroke:none;fill-rule:evenodd;fill:rgb(20%,20%,70%);fill-opacity:1;" d="M 196.976562 134.011719 C 196.976562 130.230469 191.308594 130.230469 191.308594 134.011719 C 191.308594 137.789062 196.976562 137.789062 196.976562 134.011719 Z M 196.976562 134.011719 "/>
<path style=" stroke:none;fill-rule:evenodd;fill:rgb(20%,20%,70%);fill-opacity:1;" d="M 188.480469 154.519531 C 188.480469 150.738281 182.8125 150.738281 182.8125 154.519531 C 182.8125 158.300781 188.480469 158.300781 188.480469 154.519531 Z M 188.480469 154.519531 "/>
<path style=" stroke:none;fill-rule:evenodd;fill:rgb(20%,20%,70%);fill-opacity:1;" d="M 174.964844 172.132812 C 174.964844 168.351562 169.296875 168.351562 169.296875 172.132812 C 169.296875 175.910156 174.964844 175.910156 174.964844 172.132812 Z M 174.964844 172.132812 "/>
<path style=" stroke:none;fill-rule:evenodd;fill:rgb(20%,20%,70%);fill-opacity:1;" d="M 157.355469 185.644531 C 157.355469 181.867188 151.683594 181.867188 151.683594 185.644531 C 151.683594 189.425781 157.355469 189.425781 157.355469 185.644531 Z M 157.355469 185.644531 "/>
<path style=" stroke:none;fill-rule:evenodd;fill:rgb(20%,20%,70%);fill-opacity:1;" d="M 136.84375 194.140625 C 136.84375 190.363281 131.175781 190.363281 131.175781 194.140625 C 131.175781 197.921875 136.84375 197.921875 136.84375 194.140625 Z M 136.84375 194.140625 "/>
<path style=" stroke:none;fill-rule:evenodd;fill:rgb(20%,20%,70%);fill-opacity:1;" d="M 114.835938 197.039062 C 114.835938 193.261719 109.164062 193.261719 109.164062 197.039062 C 109.164062 200.820312 114.835938 200.820312 114.835938 197.039062 Z M 114.835938 197.039062 "/>
<path style=" stroke:none;fill-rule:evenodd;fill:rgb(20%,20%,70%);fill-opacity:1;" d="M 92.824219 194.140625 C 92.824219 190.363281 87.15625 190.363281 87.15625 194.140625 C 87.15625 197.921875 92.824219 197.921875 92.824219 194.140625 Z M 92.824219 194.140625 "/>
<path style=" stroke:none;fill-rule:evenodd;fill:rgb(20%,20%,70%);fill-opacity:1;" d="M 72.316406 185.644531 C 72.316406 181.867188 66.644531 181.867188 66.644531 185.644531 C 66.644531 189.425781 72.316406 189.425781 72.316406 185.644531 Z M 72.316406 185.644531 "/>
<path style=" stroke:none;fill-rule:evenodd;fill:rgb(20%,20%,70%);fill-opacity:1;" d="M 54.703125 172.132812 C 54.703125 168.351562 49.035156 168.351562 49.035156 172.132812 C 49.035156 175.910156 54.703125 175.910156 54.703125 172.132812 Z M 54.703125 172.132812 "/>
<path style=" stroke:none;fill-rule:evenodd;fill:rgb(20%,20%,70%);fill-opacity:1;" d="M 41.1875 154.519531 C 41.1875 150.738281 35.519531 150.738281 35.519531 154.519531 C 35.519531 158.300781 41.1875 158.300781 41.1875 154.519531 Z M 41.1875 154.519531 "/>
<path style=" stroke:none;fill-rule:evenodd;fill:rgb(20%,20%,70%);fill-opacity:1;" d="M 32.691406 134.011719 C 32.691406 130.230469 27.023438 130.230469 27.023438 134.011719 C 27.023438 137.789062 32.691406 137.789062 32.691406 134.011719 Z M 32.691406 134.011719 "/>
<path style=" stroke:none;fill-rule:evenodd;fill:rgb(20%,20%,70%);fill-opacity:1;" d="M 29.796875 112 C 29.796875 108.21875 24.125 108.21875 24.125 112 C 24.125 115.78125 29.796875 115.78125 29.796875 112 Z M 29.796875 112 "/>
<path style=" stroke:none;fill-rule:evenodd;fill:rgb(20%,20%,70%);fill-opacity:1;" d="M 32.691406 89.988281 C 32.691406 86.210938 27.023438 86.210938 27.023438 89.988281 C 27.023438 93.769531 32.691406 93.769531 32.691406 89.988281 Z M 32.691406 89.988281 "/>
<path style=" stroke:none;fill-rule:evenodd;fill:rgb(20%,20%,70%);fill-opacity:1;" d="M 41.1875 69.480469 C 41.1875 65.699219 35.519531 65.699219 35.519531 69.480469 C 35.519531 73.261719 41.1875 73.261719 41.1875 69.480469 Z M 41.1875 69.480469 "/>
<path style=" stroke:none;fill-rule:evenodd;fill:rgb(20%,20%,70%);fill-opacity:1;" d="M 54.703125 51.867188 C 54.703125 48.089844 49.035156 48.089844 49.035156 51.867188 C 49.035156 55.648438 54.703125 55.648438 54.703125 51.867188 Z M 54.703125 51.867188 "/>
<path style=" stroke:none;fill-rule:evenodd;fill:rgb(20%,20%,70%);fill-opacity:1;" d="M 72.316406 38.355469 C 72.316406 34.574219 66.644531 34.574219 66.644531 38.355469 C 66.644531 42.132812 72.316406 42.132812 72.316406 38.355469 Z M 72.316406 38.355469 "/>
<path style=" stroke:none;fill-rule:evenodd;fill:rgb(20%,20%,70%);fill-opacity:1;" d="M 92.824219 29.859375 C 92.824219 26.078125 87.15625 26.078125 87.15625 29.859375 C 87.15625 33.636719 92.824219 33.636719 92.824219 29.859375 Z M 92.824219 29.859375 "/>
<path style="fill:none;stroke-width:2.267717;stroke-linecap:butt;stroke-linejoin:miter;stroke:rgb(20%,20%,70%);stroke-opacity:0.5;stroke-miterlimit:10;" d="M 0 -85.039062 L 0 -85.039062 " transform="matrix(1,0,0,1,112,112)"/>
<path style="fill:none;stroke-width:2.267717;stroke-linecap:butt;stroke-linejoin:miter;stroke:rgb(20%,20%,70%);stroke-opacity:0.5;stroke-miterlimit:10;" d="M 22.011719 -82.140625 L 82.140625 -22.011719 " transform="matrix(1,0,0,1,112,112)"/>
<path style="fill:none;stroke-width:2.267717;stroke-linecap:butt;stroke-linejoin:miter;stroke:rgb(20%,20%,70%);stroke-opacity:0.5;stroke-miterlimit:10;" d="M 42.519531 -73.644531 L 42.519531 73.644531 " transform="matrix(1,0,0,1,112,112)"/>
<path style="fill:none;stroke-width:2.267717;stroke-linecap:butt;stroke-linejoin:miter;stroke:rgb(20%,20%,70%);stroke-opacity:0.5;stroke-miterlimit:10;" d="M 60.132812 -60.132812 L -60.132812 60.132812 " transform="matrix(1,0,0,1,112,112)"/>
<path style="fill:none;stroke-width:2.267717;stroke-linecap:butt;stroke-linejoin:miter;stroke:rgb(20%,20%,70%);stroke-opacity:0.5;stroke-miterlimit:10;" d="M 73.644531 -42.519531 L -73.644531 -42.519531 " transform="matrix(1,0,0,1,112,112)"/>
<path style="fill:none;stroke-width:2.267717;stroke-linecap:butt;stroke-linejoin:miter;stroke:rgb(20%,20%,70%);stroke-opacity:0.5;stroke-miterlimit:10;" d="M 82.140625 -22.011719 L 22.011719 -82.140625 " transform="matrix(1,0,0,1,112,112)"/>
<path style="fill:none;stroke-width:2.267717;stroke-linecap:butt;stroke-linejoin:miter;stroke:rgb(20%,20%,70%);stroke-opacity:0.5;stroke-miterlimit:10;" d="M 85.039062 0 L 85.039062 0 " transform="matrix(1,0,0,1,112,112)"/>
<path style="fill:none;stroke-width:2.267717;stroke-linecap:butt;stroke-linejoin:miter;stroke:rgb(20%,20%,70%);stroke-opacity:0.5;stroke-miterlimit:10;" d="M 82.140625 22.011719 L 22.011719 82.140625 " transform="matrix(1,0,0,1,112,112)"/>
<path style="fill:none;stroke-width:2.267717;stroke-linecap:butt;stroke-linejoin:miter;stroke:rgb(20%,20%,70%);stroke-opacity:0.5;stroke-miterlimit:10;" d="M 73.644531 42.519531 L -73.644531 42.519531 " transform="matrix(1,0,0,1,112,112)"/>
<path style="fill:none;stroke-width:2.267717;stroke-linecap:butt;stroke-linejoin:miter;stroke:rgb(20%,20%,70%);stroke-opacity:0.5;stroke-miterlimit:10;" d="M 60.132812 60.132812 L -60.132812 -60.132812 " transform="matrix(1,0,0,1,112,112)"/>
<path style="fill:none;stroke-width:2.267717;stroke-linecap:butt;stroke-linejoin:miter;stroke:rgb(20%,20%,70%);stroke-opacity:0.5;stroke-miterlimit:10;" d="M 42.519531 73.644531 L 42.519531 -73.644531 " transform="matrix(1,0,0,1,112,112)"/>
<path style="fill:none;stroke-width:2.267717;stroke-linecap:butt;stroke-linejoin:miter;stroke:rgb(20%,20%,70%);stroke-opacity:0.5;stroke-miterlimit:10;" d="M 22.011719 82.140625 L 82.140625 22.011719 " transform="matrix(1,0,0,1,112,112)"/>
<path style="fill:none;stroke-width:2.267717;stroke-linecap:butt;stroke-linejoin:miter;stroke:rgb(20%,20%,70%);stroke-opacity:0.5;stroke-miterlimit:10;" d="M 0 85.039062 L 0 85.039062 " transform="matrix(1,0,0,1,112,112)"/>
<path style="fill:none;stroke-width:2.267717;stroke-linecap:butt;stroke-linejoin:miter;stroke:rgb(20%,20%,70%);stroke-opacity:0.5;stroke-miterlimit:10;" d="M -22.011719 82.140625 L -82.140625 22.011719 " transform="matrix(1,0,0,1,112,112)"/>
<path style="fill:none;stroke-width:2.267717;stroke-linecap:butt;stroke-linejoin:miter;stroke:rgb(20%,20%,70%);stroke-opacity:0.5;stroke-miterlimit:10;" d="M -42.519531 73.644531 L -42.519531 -73.644531 " transform="matrix(1,0,0,1,112,112)"/>
<path style="fill:none;stroke-width:2.267717;stroke-linecap:butt;stroke-linejoin:miter;stroke:rgb(20%,20%,70%);stroke-opacity:0.5;stroke-miterlimit:10;" d="M -60.132812 60.132812 L 60.132812 -60.132812 " transform="matrix(1,0,0,1,112,112)"/>
<path style="fill:none;stroke-width:2.267717;stroke-linecap:butt;stroke-linejoin:miter;stroke:rgb(20%,20%,70%);stroke-opacity:0.5;stroke-miterlimit:10;" d="M -73.644531 42.519531 L 73.644531 42.519531 " transform="matrix(1,0,0,1,112,112)"/>
<path style="fill:none;stroke-width:2.267717;stroke-linecap:butt;stroke-linejoin:miter;stroke:rgb(20%,20%,70%);stroke-opacity:0.5;stroke-miterlimit:10;" d="M -82.140625 22.011719 L -22.011719 82.140625 " transform="matrix(1,0,0,1,112,112)"/>
<path style="fill:none;stroke-width:2.267717;stroke-linecap:butt;stroke-linejoin:miter;stroke:rgb(20%,20%,70%);stroke-opacity:0.5;stroke-miterlimit:10;" d="M -85.039062 0 L -85.039062 0 " transform="matrix(1,0,0,1,112,112)"/>
<path style="fill:none;stroke-width:2.267717;stroke-linecap:butt;stroke-linejoin:miter;stroke:rgb(20%,20%,70%);stroke-opacity:0.5;stroke-miterlimit:10;" d="M -82.140625 -22.011719 L -22.011719 -82.140625 " transform="matrix(1,0,0,1,112,112)"/>
<path style="fill:none;stroke-width:2.267717;stroke-linecap:butt;stroke-linejoin:miter;stroke:rgb(20%,20%,70%);stroke-opacity:0.5;stroke-miterlimit:10;" d="M -73.644531 -42.519531 L 73.644531 -42.519531 " transform="matrix(1,0,0,1,112,112)"/>
<path style="fill:none;stroke-width:2.267717;stroke-linecap:butt;stroke-linejoin:miter;stroke:rgb(20%,20%,70%);stroke-opacity:0.5;stroke-miterlimit:10;" d="M -60.132812 -60.132812 L 60.132812 60.132812 " transform="matrix(1,0,0,1,112,112)"/>
<path style="fill:none;stroke-width:2.267717;stroke-linecap:butt;stroke-linejoin:miter;stroke:rgb(20%,20%,70%);stroke-opacity:0.5;stroke-miterlimit:10;" d="M -42.519531 -73.644531 L -42.519531 73.644531 " transform="matrix(1,0,0,1,112,112)"/>
<path style="fill:none;stroke-width:2.267717;stroke-linecap:butt;stroke-linejoin:miter;stroke:rgb(20%,20%,70%);stroke-opacity:0.5;stroke-miterlimit:10;" d="M -22.011719 -82.140625 L -82.140625 -22.011719 " transform="matrix(1,0,0,1,112,112)"/>
</g>
</svg>
