<?xml version="1.0" encoding="UTF-8"?>
<svg xmlns="http://www.w3.org/2000/svg" xmlns:xlink="http://www.w3.org/1999/xlink" width="329pt" height="408pt" viewBox="0 0 329 408" version="1.1">
<g id="surface39">
<path style="fill:none;stroke-width:0.566929;stroke-linecap:butt;stroke-linejoin:miter;stroke:rgb(0%,0%,0%);stroke-opacity:1;stroke-miterlimit:10;" d="M 0 0 L 272.125 0 " transform="matrix(1,0,0,1,21,208)"/>
<path style="fill:none;stroke-width:0.566929;stroke-linecap:round;stroke-linejoin:round;stroke:rgb(0%,0%,0%);stroke-opacity:1;stroke-miterlimit:10;" d="M 272.125 0 L 271.878906 -0.105469 L 271.722656 -0.183594 L 271.566406 -0.269531 L 271.488281 -0.316406 L 271.339844 -0.410156 L 271.191406 -0.511719 L 270.980469 -0.675781 L 270.847656 -0.792969 L 270.78125 -0.855469 L 270.714844 -0.914062 L 270.652344 -0.976562 L 270.589844 -1.042969 L 270.414062 -1.242188 L 270.25 -1.453125 L 270.148438 -1.601562 L 270.054688 -1.75 L 270.007812 -1.828125 L 269.921875 -1.984375 L 269.882812 -2.0625 L 269.84375 -2.144531 L 269.808594 -2.222656 L 269.738281 -2.386719 L 269.707031 -2.472656 M 272.125 0 L 271.878906 0.105469 L 271.722656 0.183594 L 271.566406 0.269531 L 271.488281 0.316406 L 271.339844 0.410156 L 271.191406 0.511719 L 270.980469 0.675781 L 270.847656 0.792969 L 270.78125 0.855469 L 270.714844 0.914062 L 270.652344 0.976562 L 270.589844 1.042969 L 270.414062 1.242188 L 270.25 1.453125 L 270.148438 1.601562 L 270.054688 1.75 L 270.007812 1.828125 L 269.921875 1.984375 L 269.882812 2.0625 L 269.84375 2.144531 L 269.808594 2.222656 L 269.738281 2.386719 L 269.707031 2.472656 " transform="matrix(1,0,0,1,21,208)"/>
<path style="fill:none;stroke-width:0.566929;stroke-linecap:butt;stroke-linejoin:miter;stroke:rgb(0%,0%,0%);stroke-opacity:1;stroke-miterlimit:10;" d="M 0 0 L 0 -198.425781 " transform="matrix(1,0,0,1,21,208)"/>
<path style="fill:none;stroke-width:0.566929;stroke-linecap:round;stroke-linejoin:round;stroke:rgb(0%,0%,0%);stroke-opacity:1;stroke-miterlimit:10;" d="M 0 -198.425781 L -0.105469 -198.179688 L -0.144531 -198.101562 L -0.183594 -198.019531 L -0.269531 -197.863281 L -0.316406 -197.789062 L -0.363281 -197.710938 L -0.410156 -197.636719 L -0.460938 -197.5625 L -0.511719 -197.492188 L -0.566406 -197.417969 L -0.621094 -197.347656 L -0.675781 -197.28125 L -0.734375 -197.210938 L -0.792969 -197.144531 L -0.855469 -197.078125 L -0.914062 -197.015625 L -0.976562 -196.953125 L -1.042969 -196.890625 L -1.242188 -196.714844 L -1.453125 -196.550781 L -1.601562 -196.449219 L -1.675781 -196.402344 L -1.75 -196.351562 L -1.984375 -196.222656 L -2.0625 -196.183594 L -2.144531 -196.144531 L -2.222656 -196.105469 L -2.386719 -196.035156 L -2.472656 -196.003906 M 0 -198.425781 L 0.105469 -198.179688 L 0.144531 -198.101562 L 0.183594 -198.019531 L 0.269531 -197.863281 L 0.316406 -197.789062 L 0.363281 -197.710938 L 0.410156 -197.636719 L 0.460938 -197.5625 L 0.511719 -197.492188 L 0.566406 -197.417969 L 0.621094 -197.347656 L 0.675781 -197.28125 L 0.734375 -197.210938 L 0.792969 -197.144531 L 0.855469 -197.078125 L 0.914062 -197.015625 L 0.976562 -196.953125 L 1.042969 -196.890625 L 1.242188 -196.714844 L 1.453125 -196.550781 L 1.601562 -196.449219 L 1.675781 -196.402344 L 1.75 -196.351562 L 1.984375 -196.222656 L 2.0625 -196.183594 L 2.144531 -196.144531 L 2.222656 -196.105469 L 2.386719 -196.035156 L 2.472656 -196.003906 " transform="matrix(1,0,0,1,21,208)"/>
<path style="fill:none;stroke-width:0.566929;stroke-linecap:butt;stroke-linejoin:miter;stroke:rgb(0%,0%,0%);stroke-opacity:1;stroke-miterlimit:10;" d="M 0 0 L 0 198.425781 " transform="matrix(1,0,0,1,21,208)"/>
<path style="fill:none;stroke-width:0.566929;stroke-linecap:round;stroke-linejoin:round;stroke:rgb(0%,0%,0%);stroke-opacity:1;stroke-miterlimit:10;" d="M 0 198.425781 L 0.105469 198.179688 L 0.144531 198.101562 L 0.183594 198.019531 L 0.269531 197.863281 L 0.316406 197.789062 L 0.363281 197.710938 L 0.410156 197.636719 L 0.460938 197.5625 L 0.511719 197.492188 L 0.566406 197.417969 L 0.621094 197.347656 L 0.675781 197.28125 L 0.734375 197.210938 L 0.792969 197.144531 L 0.855469 197.078125 L 0.914062 197.015625 L 0.976562 196.953125 L 1.042969 196.890625 L 1.242188 196.714844 L 1.453125 196.550781 L 1.601562 196.449219 L 1.675781 196.402344 L 1.75 196.351562 L 1.984375 196.222656 L 2.0625 196.183594 L 2.144531 196.144531 L 2.222656 196.105469 L 2.386719 196.035156 L 2.472656 196.003906 M 0 198.425781 L -0.105469 198.179688 L -0.144531 198.101562 L -0.183594 198.019531 L -0.269531 197.863281 L -0.316406 197.789062 L -0.363281 197.710938 L -0.410156 197.636719 L -0.460938 197.5625 L -0.511719 197.492188 L -0.566406 197.417969 L -0.621094 197.347656 L -0.675781 197.28125 L -0.734375 197.210938 L -0.792969 197.144531 L -0.855469 197.078125 L -0.914062 197.015625 L -0.976562 196.953125 L -1.042969 196.890625 L -1.242188 196.714844 L -1.453125 196.550781 L -1.601562 196.449219 L -1.675781 196.402344 L -1.75 196.351562 L -1.984375 196.222656 L -2.0625 196.183594 L -2.144531 196.144531 L -2.222656 196.105469 L -2.386719 196.035156 L -2.472656 196.003906 " transform="matrix(1,0,0,1,21,208)"/>
<path style=" stroke:none;fill-rule:nonzero;fill:rgb(0%,0%,0%);fill-opacity:1;" d="M 295.71875 216.054688 L 297.5625 216.054688 C 298.875 216.054688 300.0625 215.179688 300.0625 214.085938 C 300.0625 213.023438 298.96875 212.054688 297.484375 212.054688 L 293.625 212.054688 L 293.625 212.398438 L 293.890625 212.398438 C 294.734375 212.398438 294.75 212.523438 294.75 212.914062 L 294.75 218.664062 C 294.75 219.054688 294.734375 219.164062 293.890625 219.164062 L 293.625 219.164062 L 293.625 219.507812 C 294.015625 219.476562 294.828125 219.476562 295.234375 219.476562 C 295.65625 219.476562 296.46875 219.476562 296.84375 219.507812 L 296.84375 219.164062 L 296.59375 219.164062 C 295.75 219.164062 295.71875 219.054688 295.71875 218.664062 Z M 295.6875 215.773438 L 295.6875 212.835938 C 295.6875 212.476562 295.71875 212.398438 296.234375 212.398438 L 297.203125 212.398438 C 298.9375 212.398438 298.9375 213.554688 298.9375 214.085938 C 298.9375 214.601562 298.9375 215.773438 297.203125 215.773438 Z M 295.6875 215.773438 "/>
<path style=" stroke:none;fill-rule:nonzero;fill:rgb(0%,0%,0%);fill-opacity:1;" d="M 307.144531 218.820312 C 307.285156 219.054688 307.722656 219.492188 307.847656 219.492188 C 307.941406 219.492188 307.941406 219.414062 307.941406 219.242188 L 307.941406 217.351562 C 307.941406 216.929688 307.988281 216.867188 308.691406 216.867188 L 308.691406 216.523438 C 308.285156 216.539062 307.691406 216.570312 307.363281 216.570312 C 306.925781 216.570312 306.003906 216.570312 305.597656 216.523438 L 305.597656 216.867188 L 305.957031 216.867188 C 306.941406 216.867188 306.972656 216.992188 306.972656 217.398438 L 306.972656 218.085938 C 306.972656 219.304688 305.582031 219.414062 305.285156 219.414062 C 304.566406 219.414062 302.410156 219.023438 302.410156 215.773438 C 302.410156 212.523438 304.550781 212.164062 305.207031 212.164062 C 306.378906 212.164062 307.378906 213.132812 307.597656 214.742188 C 307.613281 214.898438 307.613281 214.929688 307.769531 214.929688 C 307.941406 214.929688 307.941406 214.898438 307.941406 214.664062 L 307.941406 212.085938 C 307.941406 211.898438 307.941406 211.820312 307.816406 211.820312 C 307.769531 211.820312 307.738281 211.820312 307.644531 211.945312 L 307.097656 212.757812 C 306.753906 212.414062 306.160156 211.820312 305.082031 211.820312 C 303.050781 211.820312 301.285156 213.539062 301.285156 215.773438 C 301.285156 218.007812 303.035156 219.742188 305.097656 219.742188 C 305.894531 219.742188 306.769531 219.460938 307.144531 218.820312 Z M 307.144531 218.820312 "/>
<path style=" stroke:none;fill-rule:nonzero;fill:rgb(0%,0%,0%);fill-opacity:1;" d="M 315.578125 216.695312 L 315.3125 216.695312 C 315.1875 217.804688 315.03125 219.164062 313.109375 219.164062 L 312.21875 219.164062 C 311.703125 219.164062 311.6875 219.085938 311.6875 218.726562 L 311.6875 212.914062 C 311.6875 212.554688 311.6875 212.398438 312.71875 212.398438 L 313.078125 212.398438 L 313.078125 212.054688 C 312.6875 212.085938 311.703125 212.085938 311.25 212.085938 C 310.828125 212.085938 309.96875 212.085938 309.59375 212.054688 L 309.59375 212.398438 L 309.859375 212.398438 C 310.703125 212.398438 310.71875 212.523438 310.71875 212.914062 L 310.71875 218.664062 C 310.71875 219.054688 310.703125 219.164062 309.859375 219.164062 L 309.59375 219.164062 L 309.59375 219.507812 L 315.28125 219.507812 Z M 315.578125 216.695312 "/>
<path style=" stroke:none;fill-rule:nonzero;fill:rgb(0%,0%,0%);fill-opacity:1;" d="M 319.664062 222.132812 C 319.664062 222.085938 319.664062 222.070312 319.476562 221.882812 C 318.117188 220.507812 317.773438 218.445312 317.773438 216.789062 C 317.773438 214.882812 318.179688 212.992188 319.523438 211.617188 C 319.664062 211.492188 319.664062 211.476562 319.664062 211.429688 C 319.664062 211.367188 319.617188 211.335938 319.554688 211.335938 C 319.445312 211.335938 318.460938 212.070312 317.820312 213.460938 C 317.257812 214.648438 317.132812 215.867188 317.132812 216.789062 C 317.132812 217.632812 317.257812 218.945312 317.851562 220.179688 C 318.507812 221.523438 319.445312 222.226562 319.554688 222.226562 C 319.617188 222.226562 319.664062 222.195312 319.664062 222.132812 Z M 319.664062 222.132812 "/>
<path style=" stroke:none;fill-rule:nonzero;fill:rgb(0%,0%,0%);fill-opacity:1;" d="M 321.6875 218.664062 L 322.84375 217.539062 C 324.546875 216.039062 325.1875 215.445312 325.1875 214.367188 C 325.1875 213.117188 324.21875 212.242188 322.875 212.242188 C 321.65625 212.242188 320.84375 213.242188 320.84375 214.210938 C 320.84375 214.835938 321.390625 214.835938 321.421875 214.835938 C 321.609375 214.835938 321.984375 214.695312 321.984375 214.257812 C 321.984375 213.960938 321.796875 213.679688 321.40625 213.679688 C 321.328125 213.679688 321.296875 213.679688 321.265625 213.695312 C 321.515625 212.992188 322.109375 212.585938 322.734375 212.585938 C 323.734375 212.585938 324.203125 213.460938 324.203125 214.367188 C 324.203125 215.226562 323.65625 216.101562 323.0625 216.773438 L 320.96875 219.101562 C 320.84375 219.226562 320.84375 219.242188 320.84375 219.507812 L 324.890625 219.507812 L 325.1875 217.617188 L 324.921875 217.617188 C 324.859375 217.929688 324.796875 218.414062 324.6875 218.585938 C 324.609375 218.664062 323.890625 218.664062 323.640625 218.664062 Z M 321.6875 218.664062 "/>
<path style=" stroke:none;fill-rule:nonzero;fill:rgb(0%,0%,0%);fill-opacity:1;" d="M 328.90625 216.789062 C 328.90625 215.929688 328.78125 214.617188 328.1875 213.382812 C 327.53125 212.039062 326.59375 211.335938 326.484375 211.335938 C 326.421875 211.335938 326.375 211.367188 326.375 211.429688 C 326.375 211.476562 326.375 211.492188 326.578125 211.695312 C 327.640625 212.773438 328.265625 214.507812 328.265625 216.789062 C 328.265625 218.648438 327.859375 220.570312 326.515625 221.945312 C 326.375 222.070312 326.375 222.085938 326.375 222.132812 C 326.375 222.195312 326.421875 222.226562 326.484375 222.226562 C 326.59375 222.226562 327.578125 221.492188 328.21875 220.101562 C 328.765625 218.914062 328.90625 217.695312 328.90625 216.789062 Z M 328.90625 216.789062 "/>
<path style=" stroke:none;fill-rule:nonzero;fill:rgb(0%,0%,0%);fill-opacity:1;" d="M 30.195312 8.386719 C 30.335938 8.621094 30.773438 9.058594 30.898438 9.058594 C 30.992188 9.058594 30.992188 8.980469 30.992188 8.808594 L 30.992188 6.917969 C 30.992188 6.496094 31.039062 6.433594 31.742188 6.433594 L 31.742188 6.089844 C 31.335938 6.105469 30.742188 6.136719 30.414062 6.136719 C 29.976562 6.136719 29.054688 6.136719 28.648438 6.089844 L 28.648438 6.433594 L 29.007812 6.433594 C 29.992188 6.433594 30.023438 6.558594 30.023438 6.964844 L 30.023438 7.652344 C 30.023438 8.871094 28.632812 8.980469 28.335938 8.980469 C 27.617188 8.980469 25.460938 8.589844 25.460938 5.339844 C 25.460938 2.089844 27.601562 1.730469 28.257812 1.730469 C 29.429688 1.730469 30.429688 2.699219 30.648438 4.308594 C 30.664062 4.464844 30.664062 4.496094 30.820312 4.496094 C 30.992188 4.496094 30.992188 4.464844 30.992188 4.230469 L 30.992188 1.652344 C 30.992188 1.464844 30.992188 1.386719 30.867188 1.386719 C 30.820312 1.386719 30.789062 1.386719 30.695312 1.511719 L 30.148438 2.324219 C 29.804688 1.980469 29.210938 1.386719 28.132812 1.386719 C 26.101562 1.386719 24.335938 3.105469 24.335938 5.339844 C 24.335938 7.574219 26.085938 9.308594 28.148438 9.308594 C 28.945312 9.308594 29.820312 9.027344 30.195312 8.386719 Z M 30.195312 8.386719 "/>
<path style=" stroke:none;fill-rule:nonzero;fill:rgb(0%,0%,0%);fill-opacity:1;" d="M 38.628906 6.261719 L 38.363281 6.261719 C 38.238281 7.371094 38.082031 8.730469 36.160156 8.730469 L 35.269531 8.730469 C 34.753906 8.730469 34.738281 8.652344 34.738281 8.292969 L 34.738281 2.480469 C 34.738281 2.121094 34.738281 1.964844 35.769531 1.964844 L 36.128906 1.964844 L 36.128906 1.621094 C 35.738281 1.652344 34.753906 1.652344 34.300781 1.652344 C 33.878906 1.652344 33.019531 1.652344 32.644531 1.621094 L 32.644531 1.964844 L 32.910156 1.964844 C 33.753906 1.964844 33.769531 2.089844 33.769531 2.480469 L 33.769531 8.230469 C 33.769531 8.621094 33.753906 8.730469 32.910156 8.730469 L 32.644531 8.730469 L 32.644531 9.074219 L 38.332031 9.074219 Z M 38.628906 6.261719 "/>
<path style=" stroke:none;fill-rule:nonzero;fill:rgb(0%,0%,0%);fill-opacity:1;" d="M 42.714844 11.699219 C 42.714844 11.652344 42.714844 11.636719 42.527344 11.449219 C 41.167969 10.074219 40.824219 8.011719 40.824219 6.355469 C 40.824219 4.449219 41.230469 2.558594 42.574219 1.183594 C 42.714844 1.058594 42.714844 1.042969 42.714844 0.996094 C 42.714844 0.933594 42.667969 0.902344 42.605469 0.902344 C 42.496094 0.902344 41.511719 1.636719 40.871094 3.027344 C 40.308594 4.214844 40.183594 5.433594 40.183594 6.355469 C 40.183594 7.199219 40.308594 8.511719 40.902344 9.746094 C 41.558594 11.089844 42.496094 11.792969 42.605469 11.792969 C 42.667969 11.792969 42.714844 11.761719 42.714844 11.699219 Z M 42.714844 11.699219 "/>
<path style=" stroke:none;fill-rule:nonzero;fill:rgb(0%,0%,0%);fill-opacity:1;" d="M 46.550781 2.089844 C 46.550781 1.839844 46.550781 1.808594 46.300781 1.808594 C 45.628906 2.511719 44.660156 2.511719 44.316406 2.511719 L 44.316406 2.839844 C 44.535156 2.839844 45.175781 2.839844 45.753906 2.558594 L 45.753906 8.214844 C 45.753906 8.605469 45.707031 8.730469 44.738281 8.730469 L 44.378906 8.730469 L 44.378906 9.074219 C 44.769531 9.042969 45.707031 9.042969 46.144531 9.042969 C 46.582031 9.042969 47.535156 9.042969 47.910156 9.074219 L 47.910156 8.730469 L 47.566406 8.730469 C 46.582031 8.730469 46.550781 8.621094 46.550781 8.214844 Z M 46.550781 2.089844 "/>
<path style=" stroke:none;fill-rule:nonzero;fill:rgb(0%,0%,0%);fill-opacity:1;" d="M 51.957031 6.355469 C 51.957031 5.496094 51.832031 4.183594 51.238281 2.949219 C 50.582031 1.605469 49.644531 0.902344 49.535156 0.902344 C 49.472656 0.902344 49.425781 0.933594 49.425781 0.996094 C 49.425781 1.042969 49.425781 1.058594 49.628906 1.261719 C 50.691406 2.339844 51.316406 4.074219 51.316406 6.355469 C 51.316406 8.214844 50.910156 10.136719 49.566406 11.511719 C 49.425781 11.636719 49.425781 11.652344 49.425781 11.699219 C 49.425781 11.761719 49.472656 11.792969 49.535156 11.792969 C 49.644531 11.792969 50.628906 11.058594 51.269531 9.667969 C 51.816406 8.480469 51.957031 7.261719 51.957031 6.355469 Z M 51.957031 6.355469 "/>
<path style=" stroke:none;fill-rule:nonzero;fill:rgb(0%,0%,0%);fill-opacity:1;" d="M 22.417969 378.078125 C 22.417969 376.1875 19.582031 376.1875 19.582031 378.078125 C 19.582031 379.96875 22.417969 379.96875 22.417969 378.078125 Z M 22.417969 378.078125 "/>
<path style="fill:none;stroke-width:0.801759;stroke-linecap:butt;stroke-linejoin:miter;stroke:rgb(100%,0%,0%);stroke-opacity:1;stroke-miterlimit:10;" d="M -19.84375 187.085938 L -14.171875 187.085938 L -14.171875 181.417969 L -19.84375 181.417969 Z M -19.84375 187.085938 " transform="matrix(1,0,0,1,21,208)"/>
<path style="fill:none;stroke-width:0.801759;stroke-linecap:butt;stroke-linejoin:miter;stroke:rgb(100%,0%,0%);stroke-opacity:1;stroke-miterlimit:10;" d="M -14.171875 187.085938 L -8.503906 187.085938 L -8.503906 181.417969 L -14.171875 181.417969 Z M -14.171875 187.085938 " transform="matrix(1,0,0,1,21,208)"/>
<path style="fill:none;stroke-width:0.801759;stroke-linecap:butt;stroke-linejoin:miter;stroke:rgb(100%,0%,0%);stroke-opacity:1;stroke-miterlimit:10;" d="M -8.503906 187.085938 L -2.835938 187.085938 L -2.835938 181.417969 L -8.503906 181.417969 Z M -8.503906 187.085938 " transform="matrix(1,0,0,1,21,208)"/>
<path style="fill:none;stroke-width:0.801759;stroke-linecap:butt;stroke-linejoin:miter;stroke:rgb(100%,0%,0%);stroke-opacity:1;stroke-miterlimit:10;" d="M -19.84375 181.417969 L -14.171875 181.417969 L -14.171875 175.746094 L -19.84375 175.746094 Z M -19.84375 181.417969 " transform="matrix(1,0,0,1,21,208)"/>
<path style="fill:none;stroke-width:0.801759;stroke-linecap:butt;stroke-linejoin:miter;stroke:rgb(100%,0%,0%);stroke-opacity:1;stroke-miterlimit:10;" d="M -14.171875 181.417969 L -8.503906 181.417969 L -8.503906 175.746094 L -14.171875 175.746094 Z M -14.171875 181.417969 " transform="matrix(1,0,0,1,21,208)"/>
<path style="fill:none;stroke-width:0.801759;stroke-linecap:butt;stroke-linejoin:miter;stroke:rgb(100%,0%,0%);stroke-opacity:1;stroke-miterlimit:10;" d="M -8.503906 181.417969 L -2.835938 181.417969 L -2.835938 175.746094 L -8.503906 175.746094 Z M -8.503906 181.417969 " transform="matrix(1,0,0,1,21,208)"/>
<path style=" stroke:none;fill-rule:nonzero;fill:rgb(0%,0%,0%);fill-opacity:1;" d="M 22.417969 321.386719 C 22.417969 319.496094 19.582031 319.496094 19.582031 321.386719 C 19.582031 323.277344 22.417969 323.277344 22.417969 321.386719 Z M 22.417969 321.386719 "/>
<path style="fill:none;stroke-width:0.801759;stroke-linecap:butt;stroke-linejoin:miter;stroke:rgb(100%,0%,0%);stroke-opacity:1;stroke-miterlimit:10;" d="M -17.007812 130.394531 L -11.339844 130.394531 L -11.339844 124.722656 L -17.007812 124.722656 Z M -17.007812 130.394531 " transform="matrix(1,0,0,1,21,208)"/>
<path style="fill:none;stroke-width:0.801759;stroke-linecap:butt;stroke-linejoin:miter;stroke:rgb(100%,0%,0%);stroke-opacity:1;stroke-miterlimit:10;" d="M -11.339844 130.394531 L -5.667969 130.394531 L -5.667969 124.722656 L -11.339844 124.722656 Z M -11.339844 130.394531 " transform="matrix(1,0,0,1,21,208)"/>
<path style="fill:none;stroke-width:0.801759;stroke-linecap:butt;stroke-linejoin:miter;stroke:rgb(100%,0%,0%);stroke-opacity:1;stroke-miterlimit:10;" d="M -17.007812 124.722656 L -11.339844 124.722656 L -11.339844 119.054688 L -17.007812 119.054688 Z M -17.007812 124.722656 " transform="matrix(1,0,0,1,21,208)"/>
<path style="fill:none;stroke-width:0.801759;stroke-linecap:butt;stroke-linejoin:miter;stroke:rgb(100%,0%,0%);stroke-opacity:1;stroke-miterlimit:10;" d="M -11.339844 124.722656 L -5.667969 124.722656 L -5.667969 119.054688 L -11.339844 119.054688 Z M -11.339844 124.722656 " transform="matrix(1,0,0,1,21,208)"/>
<path style=" stroke:none;fill-rule:nonzero;fill:rgb(0%,0%,0%);fill-opacity:1;" d="M 22.417969 264.691406 C 22.417969 262.804688 19.582031 262.804688 19.582031 264.691406 C 19.582031 266.582031 22.417969 266.582031 22.417969 264.691406 Z M 22.417969 264.691406 "/>
<path style="fill:none;stroke-width:0.801759;stroke-linecap:butt;stroke-linejoin:miter;stroke:rgb(100%,0%,0%);stroke-opacity:1;stroke-miterlimit:10;" d="M -14.171875 73.699219 L -8.503906 73.699219 L -8.503906 68.03125 L -14.171875 68.03125 Z M -14.171875 73.699219 " transform="matrix(1,0,0,1,21,208)"/>
<path style="fill:none;stroke-width:0.801759;stroke-linecap:butt;stroke-linejoin:miter;stroke:rgb(100%,0%,0%);stroke-opacity:1;stroke-miterlimit:10;" d="M -14.171875 68.03125 L -8.503906 68.03125 L -8.503906 62.363281 L -14.171875 62.363281 Z M -14.171875 68.03125 " transform="matrix(1,0,0,1,21,208)"/>
<path style="fill:none;stroke-width:0.566929;stroke-linecap:butt;stroke-linejoin:miter;stroke:rgb(0%,0%,0%);stroke-opacity:1;stroke-miterlimit:10;" d="M 2.835938 0 C 2.835938 -3.78125 -2.835938 -3.78125 -2.835938 0 C -2.835938 3.78125 2.835938 3.78125 2.835938 0 Z M 2.835938 0 " transform="matrix(1,0,0,1,21,208)"/>
<path style=" stroke:none;fill-rule:nonzero;fill:rgb(0%,0%,0%);fill-opacity:1;" d="M 22.417969 208 C 22.417969 206.109375 19.582031 206.109375 19.582031 208 C 19.582031 209.890625 22.417969 209.890625 22.417969 208 Z M 22.417969 208 "/>
<path style=" stroke:none;fill-rule:nonzero;fill:rgb(0%,0%,0%);fill-opacity:1;" d="M 13.347656 203.351562 C 13.347656 203.335938 13.378906 203.210938 13.378906 203.210938 C 13.378906 203.195312 13.378906 203.101562 13.253906 203.101562 C 13.144531 203.101562 13.128906 203.132812 13.082031 203.320312 L 12.457031 205.835938 C 10.722656 205.882812 9.113281 207.335938 9.113281 208.820312 C 9.113281 209.851562 9.878906 210.710938 11.207031 210.789062 C 11.128906 211.132812 11.050781 211.476562 10.957031 211.820312 C 10.832031 212.335938 10.722656 212.742188 10.722656 212.773438 C 10.722656 212.882812 10.800781 212.898438 10.847656 212.898438 C 10.910156 212.898438 10.925781 212.882812 10.957031 212.851562 C 10.988281 212.835938 11.050781 212.570312 11.082031 212.414062 L 11.488281 210.789062 C 13.253906 210.742188 14.832031 209.273438 14.832031 207.804688 C 14.832031 206.945312 14.253906 205.945312 12.738281 205.835938 Z M 11.269531 210.554688 C 10.613281 210.523438 9.832031 210.132812 9.832031 209.054688 C 9.832031 207.742188 10.769531 206.210938 12.394531 206.070312 Z M 12.675781 206.070312 C 13.503906 206.117188 14.128906 206.617188 14.128906 207.570312 C 14.128906 208.867188 13.191406 210.429688 11.550781 210.554688 Z M 12.675781 206.070312 "/>
<path style=" stroke:none;fill-rule:nonzero;fill:rgb(0%,0%,0%);fill-opacity:1;" d="M 22.417969 151.308594 C 22.417969 149.417969 19.582031 149.417969 19.582031 151.308594 C 19.582031 153.195312 22.417969 153.195312 22.417969 151.308594 Z M 22.417969 151.308594 "/>
<path style="fill:none;stroke-width:0.801759;stroke-linecap:butt;stroke-linejoin:miter;stroke:rgb(0%,0%,0%);stroke-opacity:1;stroke-miterlimit:10;" d="M -14.171875 -39.683594 L -8.503906 -39.683594 L -8.503906 -45.355469 L -14.171875 -45.355469 Z M -14.171875 -39.683594 " transform="matrix(1,0,0,1,21,208)"/>
<path style="fill:none;stroke-width:0.801759;stroke-linecap:butt;stroke-linejoin:miter;stroke:rgb(0%,0%,0%);stroke-opacity:1;stroke-miterlimit:10;" d="M -14.171875 -45.355469 L -8.503906 -45.355469 L -8.503906 -51.023438 L -14.171875 -51.023438 Z M -14.171875 -45.355469 " transform="matrix(1,0,0,1,21,208)"/>
<path style=" stroke:none;fill-rule:nonzero;fill:rgb(0%,0%,0%);fill-opacity:1;" d="M 22.417969 94.613281 C 22.417969 92.722656 19.582031 92.722656 19.582031 94.613281 C 19.582031 96.503906 22.417969 96.503906 22.417969 94.613281 Z M 22.417969 94.613281 "/>
<path style="fill:none;stroke-width:0.801759;stroke-linecap:butt;stroke-linejoin:miter;stroke:rgb(0%,0%,0%);stroke-opacity:1;stroke-miterlimit:10;" d="M -17.007812 -96.378906 L -11.339844 -96.378906 L -11.339844 -102.046875 L -17.007812 -102.046875 Z M -17.007812 -96.378906 " transform="matrix(1,0,0,1,21,208)"/>
<path style="fill:none;stroke-width:0.801759;stroke-linecap:butt;stroke-linejoin:miter;stroke:rgb(0%,0%,0%);stroke-opacity:1;stroke-miterlimit:10;" d="M -11.339844 -96.378906 L -5.667969 -96.378906 L -5.667969 -102.046875 L -11.339844 -102.046875 Z M -11.339844 -96.378906 " transform="matrix(1,0,0,1,21,208)"/>
<path style="fill:none;stroke-width:0.801759;stroke-linecap:butt;stroke-linejoin:miter;stroke:rgb(0%,0%,0%);stroke-opacity:1;stroke-miterlimit:10;" d="M -17.007812 -102.046875 L -11.339844 -102.046875 L -11.339844 -107.714844 L -17.007812 -107.714844 Z M -17.007812 -102.046875 " transform="matrix(1,0,0,1,21,208)"/>
<path style="fill:none;stroke-width:0.801759;stroke-linecap:butt;stroke-linejoin:miter;stroke:rgb(0%,0%,0%);stroke-opacity:1;stroke-miterlimit:10;" d="M -11.339844 -102.046875 L -5.667969 -102.046875 L -5.667969 -107.714844 L -11.339844 -107.714844 Z M -11.339844 -102.046875 " transform="matrix(1,0,0,1,21,208)"/>
<path style=" stroke:none;fill-rule:nonzero;fill:rgb(0%,0%,0%);fill-opacity:1;" d="M 22.417969 37.921875 C 22.417969 36.03125 19.582031 36.03125 19.582031 37.921875 C 19.582031 39.8125 22.417969 39.8125 22.417969 37.921875 Z M 22.417969 37.921875 "/>
<path style="fill:none;stroke-width:0.801759;stroke-linecap:butt;stroke-linejoin:miter;stroke:rgb(0%,0%,0%);stroke-opacity:1;stroke-miterlimit:10;" d="M -19.84375 -153.070312 L -14.171875 -153.070312 L -14.171875 -158.738281 L -19.84375 -158.738281 Z M -19.84375 -153.070312 " transform="matrix(1,0,0,1,21,208)"/>
<path style="fill:none;stroke-width:0.801759;stroke-linecap:butt;stroke-linejoin:miter;stroke:rgb(0%,0%,0%);stroke-opacity:1;stroke-miterlimit:10;" d="M -14.171875 -153.070312 L -8.503906 -153.070312 L -8.503906 -158.738281 L -14.171875 -158.738281 Z M -14.171875 -153.070312 " transform="matrix(1,0,0,1,21,208)"/>
<path style="fill:none;stroke-width:0.801759;stroke-linecap:butt;stroke-linejoin:miter;stroke:rgb(0%,0%,0%);stroke-opacity:1;stroke-miterlimit:10;" d="M -8.503906 -153.070312 L -2.835938 -153.070312 L -2.835938 -158.738281 L -8.503906 -158.738281 Z M -8.503906 -153.070312 " transform="matrix(1,0,0,1,21,208)"/>
<path style="fill:none;stroke-width:0.801759;stroke-linecap:butt;stroke-linejoin:miter;stroke:rgb(0%,0%,0%);stroke-opacity:1;stroke-miterlimit:10;" d="M -19.84375 -158.738281 L -14.171875 -158.738281 L -14.171875 -164.410156 L -19.84375 -164.410156 Z M -19.84375 -158.738281 " transform="matrix(1,0,0,1,21,208)"/>
<path style="fill:none;stroke-width:0.801759;stroke-linecap:butt;stroke-linejoin:miter;stroke:rgb(0%,0%,0%);stroke-opacity:1;stroke-miterlimit:10;" d="M -14.171875 -158.738281 L -8.503906 -158.738281 L -8.503906 -164.410156 L -14.171875 -164.410156 Z M -14.171875 -158.738281 " transform="matrix(1,0,0,1,21,208)"/>
<path style="fill:none;stroke-width:0.801759;stroke-linecap:butt;stroke-linejoin:miter;stroke:rgb(0%,0%,0%);stroke-opacity:1;stroke-miterlimit:10;" d="M -8.503906 -158.738281 L -2.835938 -158.738281 L -2.835938 -164.410156 L -8.503906 -164.410156 Z M -8.503906 -158.738281 " transform="matrix(1,0,0,1,21,208)"/>
<path style=" stroke:none;fill-rule:nonzero;fill:rgb(0%,0%,0%);fill-opacity:1;" d="M 56.433594 349.730469 C 56.433594 347.84375 53.597656 347.84375 53.597656 349.730469 C 53.597656 351.621094 56.433594 351.621094 56.433594 349.730469 Z M 56.433594 349.730469 "/>
<path style="fill:none;stroke-width:0.801759;stroke-linecap:butt;stroke-linejoin:miter;stroke:rgb(100%,0%,0%);stroke-opacity:1;stroke-miterlimit:10;" d="M 25.511719 158.738281 L 31.179688 158.738281 L 31.179688 153.070312 L 25.511719 153.070312 Z M 25.511719 158.738281 " transform="matrix(1,0,0,1,21,208)"/>
<path style="fill:none;stroke-width:0.801759;stroke-linecap:butt;stroke-linejoin:miter;stroke:rgb(100%,0%,0%);stroke-opacity:1;stroke-miterlimit:10;" d="M 31.179688 158.738281 L 36.851562 158.738281 L 36.851562 153.070312 L 31.179688 153.070312 Z M 31.179688 158.738281 " transform="matrix(1,0,0,1,21,208)"/>
<path style="fill:none;stroke-width:0.801759;stroke-linecap:butt;stroke-linejoin:miter;stroke:rgb(100%,0%,0%);stroke-opacity:1;stroke-miterlimit:10;" d="M 36.851562 158.738281 L 42.519531 158.738281 L 42.519531 153.070312 L 36.851562 153.070312 Z M 36.851562 158.738281 " transform="matrix(1,0,0,1,21,208)"/>
<path style="fill:none;stroke-width:0.801759;stroke-linecap:butt;stroke-linejoin:miter;stroke:rgb(100%,0%,0%);stroke-opacity:1;stroke-miterlimit:10;" d="M 25.511719 153.070312 L 31.179688 153.070312 L 31.179688 147.402344 L 25.511719 147.402344 Z M 25.511719 153.070312 " transform="matrix(1,0,0,1,21,208)"/>
<path style="fill:none;stroke-width:0.801759;stroke-linecap:butt;stroke-linejoin:miter;stroke:rgb(100%,0%,0%);stroke-opacity:1;stroke-miterlimit:10;" d="M 31.179688 153.070312 L 36.851562 153.070312 L 36.851562 147.402344 L 31.179688 147.402344 Z M 31.179688 153.070312 " transform="matrix(1,0,0,1,21,208)"/>
<path style=" stroke:none;fill-rule:nonzero;fill:rgb(0%,0%,0%);fill-opacity:1;" d="M 56.433594 293.039062 C 56.433594 291.148438 53.597656 291.148438 53.597656 293.039062 C 53.597656 294.929688 56.433594 294.929688 56.433594 293.039062 Z M 56.433594 293.039062 "/>
<path style="fill:none;stroke-width:0.801759;stroke-linecap:butt;stroke-linejoin:miter;stroke:rgb(100%,0%,0%);stroke-opacity:1;stroke-miterlimit:10;" d="M 28.347656 102.046875 L 34.015625 102.046875 L 34.015625 96.378906 L 28.347656 96.378906 Z M 28.347656 102.046875 " transform="matrix(1,0,0,1,21,208)"/>
<path style="fill:none;stroke-width:0.801759;stroke-linecap:butt;stroke-linejoin:miter;stroke:rgb(100%,0%,0%);stroke-opacity:1;stroke-miterlimit:10;" d="M 34.015625 102.046875 L 39.683594 102.046875 L 39.683594 96.378906 L 34.015625 96.378906 Z M 34.015625 102.046875 " transform="matrix(1,0,0,1,21,208)"/>
<path style="fill:none;stroke-width:0.801759;stroke-linecap:butt;stroke-linejoin:miter;stroke:rgb(100%,0%,0%);stroke-opacity:1;stroke-miterlimit:10;" d="M 28.347656 96.378906 L 34.015625 96.378906 L 34.015625 90.707031 L 28.347656 90.707031 Z M 28.347656 96.378906 " transform="matrix(1,0,0,1,21,208)"/>
<path style=" stroke:none;fill-rule:nonzero;fill:rgb(0%,0%,0%);fill-opacity:1;" d="M 56.433594 236.347656 C 56.433594 234.457031 53.597656 234.457031 53.597656 236.347656 C 53.597656 238.234375 56.433594 238.234375 56.433594 236.347656 Z M 56.433594 236.347656 "/>
<path style="fill:none;stroke-width:0.801759;stroke-linecap:butt;stroke-linejoin:miter;stroke:rgb(100%,0%,0%);stroke-opacity:1;stroke-miterlimit:10;" d="M 31.179688 39.683594 L 36.851562 39.683594 L 36.851562 34.015625 L 31.179688 34.015625 Z M 31.179688 39.683594 " transform="matrix(1,0,0,1,21,208)"/>
<path style=" stroke:none;fill-rule:nonzero;fill:rgb(0%,0%,0%);fill-opacity:1;" d="M 64.585938 233.949219 C 65.132812 233.089844 65.585938 233.058594 65.992188 233.042969 C 66.117188 233.027344 66.132812 232.839844 66.132812 232.839844 C 66.132812 232.746094 66.070312 232.699219 65.992188 232.699219 C 65.710938 232.699219 65.382812 232.730469 65.085938 232.730469 C 64.726562 232.730469 64.367188 232.699219 64.007812 232.699219 C 63.945312 232.699219 63.804688 232.699219 63.804688 232.917969 C 63.804688 233.027344 63.898438 233.042969 63.976562 233.042969 C 64.273438 233.058594 64.476562 233.167969 64.476562 233.402344 C 64.476562 233.558594 64.320312 233.808594 64.320312 233.808594 L 60.976562 239.136719 L 60.226562 233.371094 C 60.226562 233.183594 60.476562 233.042969 60.976562 233.042969 C 61.132812 233.042969 61.257812 233.042969 61.257812 232.824219 C 61.257812 232.730469 61.164062 232.699219 61.101562 232.699219 C 60.664062 232.699219 60.195312 232.730469 59.742188 232.730469 C 59.554688 232.730469 59.351562 232.730469 59.148438 232.730469 C 58.945312 232.730469 58.742188 232.699219 58.554688 232.699219 C 58.476562 232.699219 58.351562 232.699219 58.351562 232.917969 C 58.351562 233.042969 58.445312 233.042969 58.632812 233.042969 C 59.242188 233.042969 59.242188 233.136719 59.273438 233.417969 L 60.148438 240.136719 C 60.179688 240.355469 60.210938 240.386719 60.367188 240.386719 C 60.539062 240.386719 60.570312 240.339844 60.664062 240.199219 Z M 64.585938 233.949219 "/>
<path style=" stroke:none;fill-rule:nonzero;fill:rgb(0%,0%,0%);fill-opacity:1;" d="M 70.464844 233.914062 C 70.589844 233.867188 70.621094 233.851562 70.621094 233.773438 C 70.621094 233.726562 70.574219 233.664062 70.511719 233.664062 C 70.496094 233.664062 70.277344 233.710938 70.167969 233.726562 L 68.949219 233.976562 L 68.761719 232.507812 C 68.746094 232.382812 68.730469 232.304688 68.636719 232.304688 C 68.542969 232.304688 68.542969 232.367188 68.511719 232.507812 L 68.339844 233.976562 L 66.871094 233.679688 L 66.761719 233.664062 C 66.699219 233.664062 66.652344 233.726562 66.652344 233.773438 C 66.652344 233.851562 66.714844 233.882812 66.792969 233.914062 L 68.167969 234.539062 L 67.527344 235.664062 C 67.480469 235.757812 67.371094 235.960938 67.371094 235.976562 C 67.371094 236.023438 67.402344 236.085938 67.480469 236.085938 C 67.496094 236.085938 67.527344 236.085938 67.574219 236.054688 C 67.636719 235.992188 67.792969 235.820312 67.855469 235.742188 L 68.636719 234.898438 L 69.511719 235.835938 C 69.542969 235.882812 69.636719 235.976562 69.667969 236.007812 C 69.761719 236.085938 69.761719 236.085938 69.792969 236.085938 C 69.871094 236.085938 69.902344 236.023438 69.902344 235.976562 C 69.902344 235.929688 69.214844 234.710938 69.121094 234.539062 Z M 70.464844 233.914062 "/>
<path style=" stroke:none;fill-rule:nonzero;fill:rgb(0%,0%,0%);fill-opacity:1;" d="M 56.433594 179.652344 C 56.433594 177.765625 53.597656 177.765625 53.597656 179.652344 C 53.597656 181.542969 56.433594 181.542969 56.433594 179.652344 Z M 56.433594 179.652344 "/>
<path style="fill:none;stroke-width:0.801759;stroke-linecap:butt;stroke-linejoin:miter;stroke:rgb(0%,0%,0%);stroke-opacity:1;stroke-miterlimit:10;" d="M 31.179688 -17.007812 L 36.851562 -17.007812 L 36.851562 -22.675781 L 31.179688 -22.675781 Z M 31.179688 -17.007812 " transform="matrix(1,0,0,1,21,208)"/>
<path style=" stroke:none;fill-rule:nonzero;fill:rgb(0%,0%,0%);fill-opacity:1;" d="M 64.585938 177.058594 C 65.132812 176.199219 65.585938 176.167969 65.992188 176.152344 C 66.117188 176.136719 66.132812 175.949219 66.132812 175.949219 C 66.132812 175.855469 66.070312 175.808594 65.992188 175.808594 C 65.710938 175.808594 65.382812 175.839844 65.085938 175.839844 C 64.726562 175.839844 64.367188 175.808594 64.007812 175.808594 C 63.945312 175.808594 63.804688 175.808594 63.804688 176.027344 C 63.804688 176.136719 63.898438 176.152344 63.976562 176.152344 C 64.273438 176.167969 64.476562 176.277344 64.476562 176.511719 C 64.476562 176.667969 64.320312 176.917969 64.320312 176.917969 L 60.976562 182.246094 L 60.226562 176.480469 C 60.226562 176.292969 60.476562 176.152344 60.976562 176.152344 C 61.132812 176.152344 61.257812 176.152344 61.257812 175.933594 C 61.257812 175.839844 61.164062 175.808594 61.101562 175.808594 C 60.664062 175.808594 60.195312 175.839844 59.742188 175.839844 C 59.554688 175.839844 59.351562 175.839844 59.148438 175.839844 C 58.945312 175.839844 58.742188 175.808594 58.554688 175.808594 C 58.476562 175.808594 58.351562 175.808594 58.351562 176.027344 C 58.351562 176.152344 58.445312 176.152344 58.632812 176.152344 C 59.242188 176.152344 59.242188 176.246094 59.273438 176.527344 L 60.148438 183.246094 C 60.179688 183.464844 60.210938 183.496094 60.367188 183.496094 C 60.539062 183.496094 60.570312 183.449219 60.664062 183.308594 Z M 64.585938 177.058594 "/>
<path style=" stroke:none;fill-rule:nonzero;fill:rgb(0%,0%,0%);fill-opacity:1;" d="M 56.433594 122.960938 C 56.433594 121.070312 53.597656 121.070312 53.597656 122.960938 C 53.597656 124.851562 56.433594 124.851562 56.433594 122.960938 Z M 56.433594 122.960938 "/>
<path style="fill:none;stroke-width:0.801759;stroke-linecap:butt;stroke-linejoin:miter;stroke:rgb(0%,0%,0%);stroke-opacity:1;stroke-miterlimit:10;" d="M 28.347656 -68.03125 L 34.015625 -68.03125 L 34.015625 -73.699219 L 28.347656 -73.699219 Z M 28.347656 -68.03125 " transform="matrix(1,0,0,1,21,208)"/>
<path style="fill:none;stroke-width:0.801759;stroke-linecap:butt;stroke-linejoin:miter;stroke:rgb(0%,0%,0%);stroke-opacity:1;stroke-miterlimit:10;" d="M 34.015625 -68.03125 L 39.683594 -68.03125 L 39.683594 -73.699219 L 34.015625 -73.699219 Z M 34.015625 -68.03125 " transform="matrix(1,0,0,1,21,208)"/>
<path style="fill:none;stroke-width:0.801759;stroke-linecap:butt;stroke-linejoin:miter;stroke:rgb(0%,0%,0%);stroke-opacity:1;stroke-miterlimit:10;" d="M 28.347656 -73.699219 L 34.015625 -73.699219 L 34.015625 -79.371094 L 28.347656 -79.371094 Z M 28.347656 -73.699219 " transform="matrix(1,0,0,1,21,208)"/>
<path style=" stroke:none;fill-rule:nonzero;fill:rgb(0%,0%,0%);fill-opacity:1;" d="M 56.433594 66.269531 C 56.433594 64.378906 53.597656 64.378906 53.597656 66.269531 C 53.597656 68.15625 56.433594 68.15625 56.433594 66.269531 Z M 56.433594 66.269531 "/>
<path style="fill:none;stroke-width:0.801759;stroke-linecap:butt;stroke-linejoin:miter;stroke:rgb(0%,0%,0%);stroke-opacity:1;stroke-miterlimit:10;" d="M 25.511719 -124.722656 L 31.179688 -124.722656 L 31.179688 -130.394531 L 25.511719 -130.394531 Z M 25.511719 -124.722656 " transform="matrix(1,0,0,1,21,208)"/>
<path style="fill:none;stroke-width:0.801759;stroke-linecap:butt;stroke-linejoin:miter;stroke:rgb(0%,0%,0%);stroke-opacity:1;stroke-miterlimit:10;" d="M 31.179688 -124.722656 L 36.851562 -124.722656 L 36.851562 -130.394531 L 31.179688 -130.394531 Z M 31.179688 -124.722656 " transform="matrix(1,0,0,1,21,208)"/>
<path style="fill:none;stroke-width:0.801759;stroke-linecap:butt;stroke-linejoin:miter;stroke:rgb(0%,0%,0%);stroke-opacity:1;stroke-miterlimit:10;" d="M 36.851562 -124.722656 L 42.519531 -124.722656 L 42.519531 -130.394531 L 36.851562 -130.394531 Z M 36.851562 -124.722656 " transform="matrix(1,0,0,1,21,208)"/>
<path style="fill:none;stroke-width:0.801759;stroke-linecap:butt;stroke-linejoin:miter;stroke:rgb(0%,0%,0%);stroke-opacity:1;stroke-miterlimit:10;" d="M 25.511719 -130.394531 L 31.179688 -130.394531 L 31.179688 -136.0625 L 25.511719 -136.0625 Z M 25.511719 -130.394531 " transform="matrix(1,0,0,1,21,208)"/>
<path style="fill:none;stroke-width:0.801759;stroke-linecap:butt;stroke-linejoin:miter;stroke:rgb(0%,0%,0%);stroke-opacity:1;stroke-miterlimit:10;" d="M 31.179688 -130.394531 L 36.851562 -130.394531 L 36.851562 -136.0625 L 31.179688 -136.0625 Z M 31.179688 -130.394531 " transform="matrix(1,0,0,1,21,208)"/>
<path style=" stroke:none;fill-rule:nonzero;fill:rgb(0%,0%,0%);fill-opacity:1;" d="M 90.449219 378.078125 C 90.449219 376.1875 87.613281 376.1875 87.613281 378.078125 C 87.613281 379.96875 90.449219 379.96875 90.449219 378.078125 Z M 90.449219 378.078125 "/>
<path style="fill:none;stroke-width:0.801759;stroke-linecap:butt;stroke-linejoin:miter;stroke:rgb(100%,0%,0%);stroke-opacity:1;stroke-miterlimit:10;" d="M 56.691406 187.085938 L 62.363281 187.085938 L 62.363281 181.417969 L 56.691406 181.417969 Z M 56.691406 187.085938 " transform="matrix(1,0,0,1,21,208)"/>
<path style="fill:none;stroke-width:0.801759;stroke-linecap:butt;stroke-linejoin:miter;stroke:rgb(100%,0%,0%);stroke-opacity:1;stroke-miterlimit:10;" d="M 62.363281 187.085938 L 68.03125 187.085938 L 68.03125 181.417969 L 62.363281 181.417969 Z M 62.363281 187.085938 " transform="matrix(1,0,0,1,21,208)"/>
<path style="fill:none;stroke-width:0.801759;stroke-linecap:butt;stroke-linejoin:miter;stroke:rgb(100%,0%,0%);stroke-opacity:1;stroke-miterlimit:10;" d="M 68.03125 187.085938 L 73.699219 187.085938 L 73.699219 181.417969 L 68.03125 181.417969 Z M 68.03125 187.085938 " transform="matrix(1,0,0,1,21,208)"/>
<path style="fill:none;stroke-width:0.801759;stroke-linecap:butt;stroke-linejoin:miter;stroke:rgb(100%,0%,0%);stroke-opacity:1;stroke-miterlimit:10;" d="M 73.699219 187.085938 L 79.371094 187.085938 L 79.371094 181.417969 L 73.699219 181.417969 Z M 73.699219 187.085938 " transform="matrix(1,0,0,1,21,208)"/>
<path style="fill:none;stroke-width:0.801759;stroke-linecap:butt;stroke-linejoin:miter;stroke:rgb(100%,0%,0%);stroke-opacity:1;stroke-miterlimit:10;" d="M 56.691406 181.417969 L 62.363281 181.417969 L 62.363281 175.746094 L 56.691406 175.746094 Z M 56.691406 181.417969 " transform="matrix(1,0,0,1,21,208)"/>
<path style="fill:none;stroke-width:0.801759;stroke-linecap:butt;stroke-linejoin:miter;stroke:rgb(100%,0%,0%);stroke-opacity:1;stroke-miterlimit:10;" d="M 62.363281 181.417969 L 68.03125 181.417969 L 68.03125 175.746094 L 62.363281 175.746094 Z M 62.363281 181.417969 " transform="matrix(1,0,0,1,21,208)"/>
<path style=" stroke:none;fill-rule:nonzero;fill:rgb(0%,0%,0%);fill-opacity:1;" d="M 90.449219 321.386719 C 90.449219 319.496094 87.613281 319.496094 87.613281 321.386719 C 87.613281 323.277344 90.449219 323.277344 90.449219 321.386719 Z M 90.449219 321.386719 "/>
<path style="fill:none;stroke-width:0.801759;stroke-linecap:butt;stroke-linejoin:miter;stroke:rgb(100%,0%,0%);stroke-opacity:1;stroke-miterlimit:10;" d="M 59.527344 130.394531 L 65.195312 130.394531 L 65.195312 124.722656 L 59.527344 124.722656 Z M 59.527344 130.394531 " transform="matrix(1,0,0,1,21,208)"/>
<path style="fill:none;stroke-width:0.801759;stroke-linecap:butt;stroke-linejoin:miter;stroke:rgb(100%,0%,0%);stroke-opacity:1;stroke-miterlimit:10;" d="M 65.195312 130.394531 L 70.867188 130.394531 L 70.867188 124.722656 L 65.195312 124.722656 Z M 65.195312 130.394531 " transform="matrix(1,0,0,1,21,208)"/>
<path style="fill:none;stroke-width:0.801759;stroke-linecap:butt;stroke-linejoin:miter;stroke:rgb(100%,0%,0%);stroke-opacity:1;stroke-miterlimit:10;" d="M 70.867188 130.394531 L 76.535156 130.394531 L 76.535156 124.722656 L 70.867188 124.722656 Z M 70.867188 130.394531 " transform="matrix(1,0,0,1,21,208)"/>
<path style="fill:none;stroke-width:0.801759;stroke-linecap:butt;stroke-linejoin:miter;stroke:rgb(100%,0%,0%);stroke-opacity:1;stroke-miterlimit:10;" d="M 59.527344 124.722656 L 65.195312 124.722656 L 65.195312 119.054688 L 59.527344 119.054688 Z M 59.527344 124.722656 " transform="matrix(1,0,0,1,21,208)"/>
<path style=" stroke:none;fill-rule:nonzero;fill:rgb(0%,0%,0%);fill-opacity:1;" d="M 90.449219 264.691406 C 90.449219 262.804688 87.613281 262.804688 87.613281 264.691406 C 87.613281 266.582031 90.449219 266.582031 90.449219 264.691406 Z M 90.449219 264.691406 "/>
<path style="fill:none;stroke-width:0.801759;stroke-linecap:butt;stroke-linejoin:miter;stroke:rgb(100%,0%,0%);stroke-opacity:1;stroke-miterlimit:10;" d="M 62.363281 68.03125 L 68.03125 68.03125 L 68.03125 62.363281 L 62.363281 62.363281 Z M 62.363281 68.03125 " transform="matrix(1,0,0,1,21,208)"/>
<path style="fill:none;stroke-width:0.801759;stroke-linecap:butt;stroke-linejoin:miter;stroke:rgb(100%,0%,0%);stroke-opacity:1;stroke-miterlimit:10;" d="M 68.03125 68.03125 L 73.699219 68.03125 L 73.699219 62.363281 L 68.03125 62.363281 Z M 68.03125 68.03125 " transform="matrix(1,0,0,1,21,208)"/>
<path style=" stroke:none;fill-rule:nonzero;fill:rgb(0%,0%,0%);fill-opacity:1;" d="M 90.449219 208 C 90.449219 206.109375 87.613281 206.109375 87.613281 208 C 87.613281 209.890625 90.449219 209.890625 90.449219 208 Z M 90.449219 208 "/>
<path style=" stroke:none;fill-rule:nonzero;fill:rgb(0%,0%,0%);fill-opacity:1;" d="M 90.449219 151.308594 C 90.449219 149.417969 87.613281 149.417969 87.613281 151.308594 C 87.613281 153.195312 90.449219 153.195312 90.449219 151.308594 Z M 90.449219 151.308594 "/>
<path style="fill:none;stroke-width:0.801759;stroke-linecap:butt;stroke-linejoin:miter;stroke:rgb(0%,0%,0%);stroke-opacity:1;stroke-miterlimit:10;" d="M 62.363281 -45.355469 L 68.03125 -45.355469 L 68.03125 -51.023438 L 62.363281 -51.023438 Z M 62.363281 -45.355469 " transform="matrix(1,0,0,1,21,208)"/>
<path style="fill:none;stroke-width:0.801759;stroke-linecap:butt;stroke-linejoin:miter;stroke:rgb(0%,0%,0%);stroke-opacity:1;stroke-miterlimit:10;" d="M 68.03125 -45.355469 L 73.699219 -45.355469 L 73.699219 -51.023438 L 68.03125 -51.023438 Z M 68.03125 -45.355469 " transform="matrix(1,0,0,1,21,208)"/>
<path style=" stroke:none;fill-rule:nonzero;fill:rgb(0%,0%,0%);fill-opacity:1;" d="M 90.449219 94.613281 C 90.449219 92.722656 87.613281 92.722656 87.613281 94.613281 C 87.613281 96.503906 90.449219 96.503906 90.449219 94.613281 Z M 90.449219 94.613281 "/>
<path style="fill:none;stroke-width:0.801759;stroke-linecap:butt;stroke-linejoin:miter;stroke:rgb(0%,0%,0%);stroke-opacity:1;stroke-miterlimit:10;" d="M 59.527344 -96.378906 L 65.195312 -96.378906 L 65.195312 -102.046875 L 59.527344 -102.046875 Z M 59.527344 -96.378906 " transform="matrix(1,0,0,1,21,208)"/>
<path style="fill:none;stroke-width:0.801759;stroke-linecap:butt;stroke-linejoin:miter;stroke:rgb(0%,0%,0%);stroke-opacity:1;stroke-miterlimit:10;" d="M 65.195312 -96.378906 L 70.867188 -96.378906 L 70.867188 -102.046875 L 65.195312 -102.046875 Z M 65.195312 -96.378906 " transform="matrix(1,0,0,1,21,208)"/>
<path style="fill:none;stroke-width:0.801759;stroke-linecap:butt;stroke-linejoin:miter;stroke:rgb(0%,0%,0%);stroke-opacity:1;stroke-miterlimit:10;" d="M 70.867188 -96.378906 L 76.535156 -96.378906 L 76.535156 -102.046875 L 70.867188 -102.046875 Z M 70.867188 -96.378906 " transform="matrix(1,0,0,1,21,208)"/>
<path style="fill:none;stroke-width:0.801759;stroke-linecap:butt;stroke-linejoin:miter;stroke:rgb(0%,0%,0%);stroke-opacity:1;stroke-miterlimit:10;" d="M 59.527344 -102.046875 L 65.195312 -102.046875 L 65.195312 -107.714844 L 59.527344 -107.714844 Z M 59.527344 -102.046875 " transform="matrix(1,0,0,1,21,208)"/>
<path style=" stroke:none;fill-rule:nonzero;fill:rgb(0%,0%,0%);fill-opacity:1;" d="M 90.449219 37.921875 C 90.449219 36.03125 87.613281 36.03125 87.613281 37.921875 C 87.613281 39.8125 90.449219 39.8125 90.449219 37.921875 Z M 90.449219 37.921875 "/>
<path style="fill:none;stroke-width:0.801759;stroke-linecap:butt;stroke-linejoin:miter;stroke:rgb(0%,0%,0%);stroke-opacity:1;stroke-miterlimit:10;" d="M 56.691406 -153.070312 L 62.363281 -153.070312 L 62.363281 -158.738281 L 56.691406 -158.738281 Z M 56.691406 -153.070312 " transform="matrix(1,0,0,1,21,208)"/>
<path style="fill:none;stroke-width:0.801759;stroke-linecap:butt;stroke-linejoin:miter;stroke:rgb(0%,0%,0%);stroke-opacity:1;stroke-miterlimit:10;" d="M 62.363281 -153.070312 L 68.03125 -153.070312 L 68.03125 -158.738281 L 62.363281 -158.738281 Z M 62.363281 -153.070312 " transform="matrix(1,0,0,1,21,208)"/>
<path style="fill:none;stroke-width:0.801759;stroke-linecap:butt;stroke-linejoin:miter;stroke:rgb(0%,0%,0%);stroke-opacity:1;stroke-miterlimit:10;" d="M 68.03125 -153.070312 L 73.699219 -153.070312 L 73.699219 -158.738281 L 68.03125 -158.738281 Z M 68.03125 -153.070312 " transform="matrix(1,0,0,1,21,208)"/>
<path style="fill:none;stroke-width:0.801759;stroke-linecap:butt;stroke-linejoin:miter;stroke:rgb(0%,0%,0%);stroke-opacity:1;stroke-miterlimit:10;" d="M 73.699219 -153.070312 L 79.371094 -153.070312 L 79.371094 -158.738281 L 73.699219 -158.738281 Z M 73.699219 -153.070312 " transform="matrix(1,0,0,1,21,208)"/>
<path style="fill:none;stroke-width:0.801759;stroke-linecap:butt;stroke-linejoin:miter;stroke:rgb(0%,0%,0%);stroke-opacity:1;stroke-miterlimit:10;" d="M 56.691406 -158.738281 L 62.363281 -158.738281 L 62.363281 -164.410156 L 56.691406 -164.410156 Z M 56.691406 -158.738281 " transform="matrix(1,0,0,1,21,208)"/>
<path style="fill:none;stroke-width:0.801759;stroke-linecap:butt;stroke-linejoin:miter;stroke:rgb(0%,0%,0%);stroke-opacity:1;stroke-miterlimit:10;" d="M 62.363281 -158.738281 L 68.03125 -158.738281 L 68.03125 -164.410156 L 62.363281 -164.410156 Z M 62.363281 -158.738281 " transform="matrix(1,0,0,1,21,208)"/>
<path style=" stroke:none;fill-rule:nonzero;fill:rgb(0%,0%,0%);fill-opacity:1;" d="M 124.464844 349.730469 C 124.464844 347.84375 121.628906 347.84375 121.628906 349.730469 C 121.628906 351.621094 124.464844 351.621094 124.464844 349.730469 Z M 124.464844 349.730469 "/>
<path style="fill:none;stroke-width:0.801759;stroke-linecap:butt;stroke-linejoin:miter;stroke:rgb(100%,0%,0%);stroke-opacity:1;stroke-miterlimit:10;" d="M 90.707031 158.738281 L 96.378906 158.738281 L 96.378906 153.070312 L 90.707031 153.070312 Z M 90.707031 158.738281 " transform="matrix(1,0,0,1,21,208)"/>
<path style="fill:none;stroke-width:0.801759;stroke-linecap:butt;stroke-linejoin:miter;stroke:rgb(100%,0%,0%);stroke-opacity:1;stroke-miterlimit:10;" d="M 96.378906 158.738281 L 102.046875 158.738281 L 102.046875 153.070312 L 96.378906 153.070312 Z M 96.378906 158.738281 " transform="matrix(1,0,0,1,21,208)"/>
<path style="fill:none;stroke-width:0.801759;stroke-linecap:butt;stroke-linejoin:miter;stroke:rgb(100%,0%,0%);stroke-opacity:1;stroke-miterlimit:10;" d="M 102.046875 158.738281 L 107.714844 158.738281 L 107.714844 153.070312 L 102.046875 153.070312 Z M 102.046875 158.738281 " transform="matrix(1,0,0,1,21,208)"/>
<path style="fill:none;stroke-width:0.801759;stroke-linecap:butt;stroke-linejoin:miter;stroke:rgb(100%,0%,0%);stroke-opacity:1;stroke-miterlimit:10;" d="M 107.714844 158.738281 L 113.386719 158.738281 L 113.386719 153.070312 L 107.714844 153.070312 Z M 107.714844 158.738281 " transform="matrix(1,0,0,1,21,208)"/>
<path style="fill:none;stroke-width:0.801759;stroke-linecap:butt;stroke-linejoin:miter;stroke:rgb(100%,0%,0%);stroke-opacity:1;stroke-miterlimit:10;" d="M 90.707031 153.070312 L 96.378906 153.070312 L 96.378906 147.402344 L 90.707031 147.402344 Z M 90.707031 153.070312 " transform="matrix(1,0,0,1,21,208)"/>
<path style=" stroke:none;fill-rule:nonzero;fill:rgb(0%,0%,0%);fill-opacity:1;" d="M 124.464844 293.039062 C 124.464844 291.148438 121.628906 291.148438 121.628906 293.039062 C 121.628906 294.929688 124.464844 294.929688 124.464844 293.039062 Z M 124.464844 293.039062 "/>
<path style="fill:none;stroke-width:0.801759;stroke-linecap:butt;stroke-linejoin:miter;stroke:rgb(100%,0%,0%);stroke-opacity:1;stroke-miterlimit:10;" d="M 93.542969 96.378906 L 99.210938 96.378906 L 99.210938 90.707031 L 93.542969 90.707031 Z M 93.542969 96.378906 " transform="matrix(1,0,0,1,21,208)"/>
<path style="fill:none;stroke-width:0.801759;stroke-linecap:butt;stroke-linejoin:miter;stroke:rgb(100%,0%,0%);stroke-opacity:1;stroke-miterlimit:10;" d="M 99.210938 96.378906 L 104.882812 96.378906 L 104.882812 90.707031 L 99.210938 90.707031 Z M 99.210938 96.378906 " transform="matrix(1,0,0,1,21,208)"/>
<path style="fill:none;stroke-width:0.801759;stroke-linecap:butt;stroke-linejoin:miter;stroke:rgb(100%,0%,0%);stroke-opacity:1;stroke-miterlimit:10;" d="M 104.882812 96.378906 L 110.550781 96.378906 L 110.550781 90.707031 L 104.882812 90.707031 Z M 104.882812 96.378906 " transform="matrix(1,0,0,1,21,208)"/>
<path style=" stroke:none;fill-rule:nonzero;fill:rgb(0%,0%,0%);fill-opacity:1;" d="M 124.464844 236.347656 C 124.464844 234.457031 121.628906 234.457031 121.628906 236.347656 C 121.628906 238.234375 124.464844 238.234375 124.464844 236.347656 Z M 124.464844 236.347656 "/>
<path style=" stroke:none;fill-rule:nonzero;fill:rgb(0%,0%,0%);fill-opacity:1;" d="M 124.464844 179.652344 C 124.464844 177.765625 121.628906 177.765625 121.628906 179.652344 C 121.628906 181.542969 124.464844 181.542969 124.464844 179.652344 Z M 124.464844 179.652344 "/>
<path style=" stroke:none;fill-rule:nonzero;fill:rgb(0%,0%,0%);fill-opacity:1;" d="M 124.464844 122.960938 C 124.464844 121.070312 121.628906 121.070312 121.628906 122.960938 C 121.628906 124.851562 124.464844 124.851562 124.464844 122.960938 Z M 124.464844 122.960938 "/>
<path style="fill:none;stroke-width:0.801759;stroke-linecap:butt;stroke-linejoin:miter;stroke:rgb(0%,0%,0%);stroke-opacity:1;stroke-miterlimit:10;" d="M 93.542969 -73.699219 L 99.210938 -73.699219 L 99.210938 -79.371094 L 93.542969 -79.371094 Z M 93.542969 -73.699219 " transform="matrix(1,0,0,1,21,208)"/>
<path style="fill:none;stroke-width:0.801759;stroke-linecap:butt;stroke-linejoin:miter;stroke:rgb(0%,0%,0%);stroke-opacity:1;stroke-miterlimit:10;" d="M 99.210938 -73.699219 L 104.882812 -73.699219 L 104.882812 -79.371094 L 99.210938 -79.371094 Z M 99.210938 -73.699219 " transform="matrix(1,0,0,1,21,208)"/>
<path style="fill:none;stroke-width:0.801759;stroke-linecap:butt;stroke-linejoin:miter;stroke:rgb(0%,0%,0%);stroke-opacity:1;stroke-miterlimit:10;" d="M 104.882812 -73.699219 L 110.550781 -73.699219 L 110.550781 -79.371094 L 104.882812 -79.371094 Z M 104.882812 -73.699219 " transform="matrix(1,0,0,1,21,208)"/>
<path style=" stroke:none;fill-rule:nonzero;fill:rgb(0%,0%,0%);fill-opacity:1;" d="M 124.464844 66.269531 C 124.464844 64.378906 121.628906 64.378906 121.628906 66.269531 C 121.628906 68.15625 124.464844 68.15625 124.464844 66.269531 Z M 124.464844 66.269531 "/>
<path style="fill:none;stroke-width:0.801759;stroke-linecap:butt;stroke-linejoin:miter;stroke:rgb(0%,0%,0%);stroke-opacity:1;stroke-miterlimit:10;" d="M 90.707031 -124.722656 L 96.378906 -124.722656 L 96.378906 -130.394531 L 90.707031 -130.394531 Z M 90.707031 -124.722656 " transform="matrix(1,0,0,1,21,208)"/>
<path style="fill:none;stroke-width:0.801759;stroke-linecap:butt;stroke-linejoin:miter;stroke:rgb(0%,0%,0%);stroke-opacity:1;stroke-miterlimit:10;" d="M 96.378906 -124.722656 L 102.046875 -124.722656 L 102.046875 -130.394531 L 96.378906 -130.394531 Z M 96.378906 -124.722656 " transform="matrix(1,0,0,1,21,208)"/>
<path style="fill:none;stroke-width:0.801759;stroke-linecap:butt;stroke-linejoin:miter;stroke:rgb(0%,0%,0%);stroke-opacity:1;stroke-miterlimit:10;" d="M 102.046875 -124.722656 L 107.714844 -124.722656 L 107.714844 -130.394531 L 102.046875 -130.394531 Z M 102.046875 -124.722656 " transform="matrix(1,0,0,1,21,208)"/>
<path style="fill:none;stroke-width:0.801759;stroke-linecap:butt;stroke-linejoin:miter;stroke:rgb(0%,0%,0%);stroke-opacity:1;stroke-miterlimit:10;" d="M 107.714844 -124.722656 L 113.386719 -124.722656 L 113.386719 -130.394531 L 107.714844 -130.394531 Z M 107.714844 -124.722656 " transform="matrix(1,0,0,1,21,208)"/>
<path style="fill:none;stroke-width:0.801759;stroke-linecap:butt;stroke-linejoin:miter;stroke:rgb(0%,0%,0%);stroke-opacity:1;stroke-miterlimit:10;" d="M 90.707031 -130.394531 L 96.378906 -130.394531 L 96.378906 -136.0625 L 90.707031 -136.0625 Z M 90.707031 -130.394531 " transform="matrix(1,0,0,1,21,208)"/>
<path style=" stroke:none;fill-rule:nonzero;fill:rgb(0%,0%,0%);fill-opacity:1;" d="M 158.480469 378.078125 C 158.480469 376.1875 155.644531 376.1875 155.644531 378.078125 C 155.644531 379.96875 158.480469 379.96875 158.480469 378.078125 Z M 158.480469 378.078125 "/>
<path style="fill:none;stroke-width:0.801759;stroke-linecap:butt;stroke-linejoin:miter;stroke:rgb(100%,0%,0%);stroke-opacity:1;stroke-miterlimit:10;" d="M 121.890625 187.085938 L 127.558594 187.085938 L 127.558594 181.417969 L 121.890625 181.417969 Z M 121.890625 187.085938 " transform="matrix(1,0,0,1,21,208)"/>
<path style="fill:none;stroke-width:0.801759;stroke-linecap:butt;stroke-linejoin:miter;stroke:rgb(100%,0%,0%);stroke-opacity:1;stroke-miterlimit:10;" d="M 127.558594 187.085938 L 133.226562 187.085938 L 133.226562 181.417969 L 127.558594 181.417969 Z M 127.558594 187.085938 " transform="matrix(1,0,0,1,21,208)"/>
<path style="fill:none;stroke-width:0.801759;stroke-linecap:butt;stroke-linejoin:miter;stroke:rgb(100%,0%,0%);stroke-opacity:1;stroke-miterlimit:10;" d="M 133.226562 187.085938 L 138.898438 187.085938 L 138.898438 181.417969 L 133.226562 181.417969 Z M 133.226562 187.085938 " transform="matrix(1,0,0,1,21,208)"/>
<path style="fill:none;stroke-width:0.801759;stroke-linecap:butt;stroke-linejoin:miter;stroke:rgb(100%,0%,0%);stroke-opacity:1;stroke-miterlimit:10;" d="M 138.898438 187.085938 L 144.566406 187.085938 L 144.566406 181.417969 L 138.898438 181.417969 Z M 138.898438 187.085938 " transform="matrix(1,0,0,1,21,208)"/>
<path style="fill:none;stroke-width:0.801759;stroke-linecap:butt;stroke-linejoin:miter;stroke:rgb(100%,0%,0%);stroke-opacity:1;stroke-miterlimit:10;" d="M 144.566406 187.085938 L 150.234375 187.085938 L 150.234375 181.417969 L 144.566406 181.417969 Z M 144.566406 187.085938 " transform="matrix(1,0,0,1,21,208)"/>
<path style="fill:none;stroke-width:0.801759;stroke-linecap:butt;stroke-linejoin:miter;stroke:rgb(100%,0%,0%);stroke-opacity:1;stroke-miterlimit:10;" d="M 121.890625 181.417969 L 127.558594 181.417969 L 127.558594 175.746094 L 121.890625 175.746094 Z M 121.890625 181.417969 " transform="matrix(1,0,0,1,21,208)"/>
<path style=" stroke:none;fill-rule:nonzero;fill:rgb(0%,0%,0%);fill-opacity:1;" d="M 158.480469 321.386719 C 158.480469 319.496094 155.644531 319.496094 155.644531 321.386719 C 155.644531 323.277344 158.480469 323.277344 158.480469 321.386719 Z M 158.480469 321.386719 "/>
<path style="fill:none;stroke-width:0.801759;stroke-linecap:butt;stroke-linejoin:miter;stroke:rgb(100%,0%,0%);stroke-opacity:1;stroke-miterlimit:10;" d="M 124.722656 124.722656 L 130.394531 124.722656 L 130.394531 119.054688 L 124.722656 119.054688 Z M 124.722656 124.722656 " transform="matrix(1,0,0,1,21,208)"/>
<path style="fill:none;stroke-width:0.801759;stroke-linecap:butt;stroke-linejoin:miter;stroke:rgb(100%,0%,0%);stroke-opacity:1;stroke-miterlimit:10;" d="M 130.394531 124.722656 L 136.0625 124.722656 L 136.0625 119.054688 L 130.394531 119.054688 Z M 130.394531 124.722656 " transform="matrix(1,0,0,1,21,208)"/>
<path style="fill:none;stroke-width:0.801759;stroke-linecap:butt;stroke-linejoin:miter;stroke:rgb(100%,0%,0%);stroke-opacity:1;stroke-miterlimit:10;" d="M 136.0625 124.722656 L 141.730469 124.722656 L 141.730469 119.054688 L 136.0625 119.054688 Z M 136.0625 124.722656 " transform="matrix(1,0,0,1,21,208)"/>
<path style="fill:none;stroke-width:0.801759;stroke-linecap:butt;stroke-linejoin:miter;stroke:rgb(100%,0%,0%);stroke-opacity:1;stroke-miterlimit:10;" d="M 141.730469 124.722656 L 147.402344 124.722656 L 147.402344 119.054688 L 141.730469 119.054688 Z M 141.730469 124.722656 " transform="matrix(1,0,0,1,21,208)"/>
<path style=" stroke:none;fill-rule:nonzero;fill:rgb(0%,0%,0%);fill-opacity:1;" d="M 158.480469 264.691406 C 158.480469 262.804688 155.644531 262.804688 155.644531 264.691406 C 155.644531 266.582031 158.480469 266.582031 158.480469 264.691406 Z M 158.480469 264.691406 "/>
<path style=" stroke:none;fill-rule:nonzero;fill:rgb(0%,0%,0%);fill-opacity:1;" d="M 158.480469 208 C 158.480469 206.109375 155.644531 206.109375 155.644531 208 C 155.644531 209.890625 158.480469 209.890625 158.480469 208 Z M 158.480469 208 "/>
<path style=" stroke:none;fill-rule:nonzero;fill:rgb(0%,0%,0%);fill-opacity:1;" d="M 158.480469 151.308594 C 158.480469 149.417969 155.644531 149.417969 155.644531 151.308594 C 155.644531 153.195312 158.480469 153.195312 158.480469 151.308594 Z M 158.480469 151.308594 "/>
<path style=" stroke:none;fill-rule:nonzero;fill:rgb(0%,0%,0%);fill-opacity:1;" d="M 158.480469 94.613281 C 158.480469 92.722656 155.644531 92.722656 155.644531 94.613281 C 155.644531 96.503906 158.480469 96.503906 158.480469 94.613281 Z M 158.480469 94.613281 "/>
<path style="fill:none;stroke-width:0.801759;stroke-linecap:butt;stroke-linejoin:miter;stroke:rgb(0%,0%,0%);stroke-opacity:1;stroke-miterlimit:10;" d="M 124.722656 -102.046875 L 130.394531 -102.046875 L 130.394531 -107.714844 L 124.722656 -107.714844 Z M 124.722656 -102.046875 " transform="matrix(1,0,0,1,21,208)"/>
<path style="fill:none;stroke-width:0.801759;stroke-linecap:butt;stroke-linejoin:miter;stroke:rgb(0%,0%,0%);stroke-opacity:1;stroke-miterlimit:10;" d="M 130.394531 -102.046875 L 136.0625 -102.046875 L 136.0625 -107.714844 L 130.394531 -107.714844 Z M 130.394531 -102.046875 " transform="matrix(1,0,0,1,21,208)"/>
<path style="fill:none;stroke-width:0.801759;stroke-linecap:butt;stroke-linejoin:miter;stroke:rgb(0%,0%,0%);stroke-opacity:1;stroke-miterlimit:10;" d="M 136.0625 -102.046875 L 141.730469 -102.046875 L 141.730469 -107.714844 L 136.0625 -107.714844 Z M 136.0625 -102.046875 " transform="matrix(1,0,0,1,21,208)"/>
<path style="fill:none;stroke-width:0.801759;stroke-linecap:butt;stroke-linejoin:miter;stroke:rgb(0%,0%,0%);stroke-opacity:1;stroke-miterlimit:10;" d="M 141.730469 -102.046875 L 147.402344 -102.046875 L 147.402344 -107.714844 L 141.730469 -107.714844 Z M 141.730469 -102.046875 " transform="matrix(1,0,0,1,21,208)"/>
<path style=" stroke:none;fill-rule:nonzero;fill:rgb(0%,0%,0%);fill-opacity:1;" d="M 158.480469 37.921875 C 158.480469 36.03125 155.644531 36.03125 155.644531 37.921875 C 155.644531 39.8125 158.480469 39.8125 158.480469 37.921875 Z M 158.480469 37.921875 "/>
<path style="fill:none;stroke-width:0.801759;stroke-linecap:butt;stroke-linejoin:miter;stroke:rgb(0%,0%,0%);stroke-opacity:1;stroke-miterlimit:10;" d="M 121.890625 -153.070312 L 127.558594 -153.070312 L 127.558594 -158.738281 L 121.890625 -158.738281 Z M 121.890625 -153.070312 " transform="matrix(1,0,0,1,21,208)"/>
<path style="fill:none;stroke-width:0.801759;stroke-linecap:butt;stroke-linejoin:miter;stroke:rgb(0%,0%,0%);stroke-opacity:1;stroke-miterlimit:10;" d="M 127.558594 -153.070312 L 133.226562 -153.070312 L 133.226562 -158.738281 L 127.558594 -158.738281 Z M 127.558594 -153.070312 " transform="matrix(1,0,0,1,21,208)"/>
<path style="fill:none;stroke-width:0.801759;stroke-linecap:butt;stroke-linejoin:miter;stroke:rgb(0%,0%,0%);stroke-opacity:1;stroke-miterlimit:10;" d="M 133.226562 -153.070312 L 138.898438 -153.070312 L 138.898438 -158.738281 L 133.226562 -158.738281 Z M 133.226562 -153.070312 " transform="matrix(1,0,0,1,21,208)"/>
<path style="fill:none;stroke-width:0.801759;stroke-linecap:butt;stroke-linejoin:miter;stroke:rgb(0%,0%,0%);stroke-opacity:1;stroke-miterlimit:10;" d="M 138.898438 -153.070312 L 144.566406 -153.070312 L 144.566406 -158.738281 L 138.898438 -158.738281 Z M 138.898438 -153.070312 " transform="matrix(1,0,0,1,21,208)"/>
<path style="fill:none;stroke-width:0.801759;stroke-linecap:butt;stroke-linejoin:miter;stroke:rgb(0%,0%,0%);stroke-opacity:1;stroke-miterlimit:10;" d="M 144.566406 -153.070312 L 150.234375 -153.070312 L 150.234375 -158.738281 L 144.566406 -158.738281 Z M 144.566406 -153.070312 " transform="matrix(1,0,0,1,21,208)"/>
<path style="fill:none;stroke-width:0.801759;stroke-linecap:butt;stroke-linejoin:miter;stroke:rgb(0%,0%,0%);stroke-opacity:1;stroke-miterlimit:10;" d="M 121.890625 -158.738281 L 127.558594 -158.738281 L 127.558594 -164.410156 L 121.890625 -164.410156 Z M 121.890625 -158.738281 " transform="matrix(1,0,0,1,21,208)"/>
<path style=" stroke:none;fill-rule:nonzero;fill:rgb(0%,0%,0%);fill-opacity:1;" d="M 192.496094 349.730469 C 192.496094 347.84375 189.660156 347.84375 189.660156 349.730469 C 189.660156 351.621094 192.496094 351.621094 192.496094 349.730469 Z M 192.496094 349.730469 "/>
<path style="fill:none;stroke-width:0.801759;stroke-linecap:butt;stroke-linejoin:miter;stroke:rgb(100%,0%,0%);stroke-opacity:1;stroke-miterlimit:10;" d="M 155.90625 153.070312 L 161.574219 153.070312 L 161.574219 147.402344 L 155.90625 147.402344 Z M 155.90625 153.070312 " transform="matrix(1,0,0,1,21,208)"/>
<path style="fill:none;stroke-width:0.801759;stroke-linecap:butt;stroke-linejoin:miter;stroke:rgb(100%,0%,0%);stroke-opacity:1;stroke-miterlimit:10;" d="M 161.574219 153.070312 L 167.242188 153.070312 L 167.242188 147.402344 L 161.574219 147.402344 Z M 161.574219 153.070312 " transform="matrix(1,0,0,1,21,208)"/>
<path style="fill:none;stroke-width:0.801759;stroke-linecap:butt;stroke-linejoin:miter;stroke:rgb(100%,0%,0%);stroke-opacity:1;stroke-miterlimit:10;" d="M 167.242188 153.070312 L 172.914062 153.070312 L 172.914062 147.402344 L 167.242188 147.402344 Z M 167.242188 153.070312 " transform="matrix(1,0,0,1,21,208)"/>
<path style="fill:none;stroke-width:0.801759;stroke-linecap:butt;stroke-linejoin:miter;stroke:rgb(100%,0%,0%);stroke-opacity:1;stroke-miterlimit:10;" d="M 172.914062 153.070312 L 178.582031 153.070312 L 178.582031 147.402344 L 172.914062 147.402344 Z M 172.914062 153.070312 " transform="matrix(1,0,0,1,21,208)"/>
<path style="fill:none;stroke-width:0.801759;stroke-linecap:butt;stroke-linejoin:miter;stroke:rgb(100%,0%,0%);stroke-opacity:1;stroke-miterlimit:10;" d="M 178.582031 153.070312 L 184.253906 153.070312 L 184.253906 147.402344 L 178.582031 147.402344 Z M 178.582031 153.070312 " transform="matrix(1,0,0,1,21,208)"/>
<path style=" stroke:none;fill-rule:nonzero;fill:rgb(0%,0%,0%);fill-opacity:1;" d="M 192.496094 293.039062 C 192.496094 291.148438 189.660156 291.148438 189.660156 293.039062 C 189.660156 294.929688 192.496094 294.929688 192.496094 293.039062 Z M 192.496094 293.039062 "/>
<path style=" stroke:none;fill-rule:nonzero;fill:rgb(0%,0%,0%);fill-opacity:1;" d="M 192.496094 236.347656 C 192.496094 234.457031 189.660156 234.457031 189.660156 236.347656 C 189.660156 238.234375 192.496094 238.234375 192.496094 236.347656 Z M 192.496094 236.347656 "/>
<path style=" stroke:none;fill-rule:nonzero;fill:rgb(0%,0%,0%);fill-opacity:1;" d="M 192.496094 179.652344 C 192.496094 177.765625 189.660156 177.765625 189.660156 179.652344 C 189.660156 181.542969 192.496094 181.542969 192.496094 179.652344 Z M 192.496094 179.652344 "/>
<path style=" stroke:none;fill-rule:nonzero;fill:rgb(0%,0%,0%);fill-opacity:1;" d="M 192.496094 122.960938 C 192.496094 121.070312 189.660156 121.070312 189.660156 122.960938 C 189.660156 124.851562 192.496094 124.851562 192.496094 122.960938 Z M 192.496094 122.960938 "/>
<path style=" stroke:none;fill-rule:nonzero;fill:rgb(0%,0%,0%);fill-opacity:1;" d="M 192.496094 66.269531 C 192.496094 64.378906 189.660156 64.378906 189.660156 66.269531 C 189.660156 68.15625 192.496094 68.15625 192.496094 66.269531 Z M 192.496094 66.269531 "/>
<path style="fill:none;stroke-width:0.801759;stroke-linecap:butt;stroke-linejoin:miter;stroke:rgb(0%,0%,0%);stroke-opacity:1;stroke-miterlimit:10;" d="M 155.90625 -130.394531 L 161.574219 -130.394531 L 161.574219 -136.0625 L 155.90625 -136.0625 Z M 155.90625 -130.394531 " transform="matrix(1,0,0,1,21,208)"/>
<path style="fill:none;stroke-width:0.801759;stroke-linecap:butt;stroke-linejoin:miter;stroke:rgb(0%,0%,0%);stroke-opacity:1;stroke-miterlimit:10;" d="M 161.574219 -130.394531 L 167.242188 -130.394531 L 167.242188 -136.0625 L 161.574219 -136.0625 Z M 161.574219 -130.394531 " transform="matrix(1,0,0,1,21,208)"/>
<path style="fill:none;stroke-width:0.801759;stroke-linecap:butt;stroke-linejoin:miter;stroke:rgb(0%,0%,0%);stroke-opacity:1;stroke-miterlimit:10;" d="M 167.242188 -130.394531 L 172.914062 -130.394531 L 172.914062 -136.0625 L 167.242188 -136.0625 Z M 167.242188 -130.394531 " transform="matrix(1,0,0,1,21,208)"/>
<path style="fill:none;stroke-width:0.801759;stroke-linecap:butt;stroke-linejoin:miter;stroke:rgb(0%,0%,0%);stroke-opacity:1;stroke-miterlimit:10;" d="M 172.914062 -130.394531 L 178.582031 -130.394531 L 178.582031 -136.0625 L 172.914062 -136.0625 Z M 172.914062 -130.394531 " transform="matrix(1,0,0,1,21,208)"/>
<path style="fill:none;stroke-width:0.801759;stroke-linecap:butt;stroke-linejoin:miter;stroke:rgb(0%,0%,0%);stroke-opacity:1;stroke-miterlimit:10;" d="M 178.582031 -130.394531 L 184.253906 -130.394531 L 184.253906 -136.0625 L 178.582031 -136.0625 Z M 178.582031 -130.394531 " transform="matrix(1,0,0,1,21,208)"/>
<path style=" stroke:none;fill-rule:nonzero;fill:rgb(0%,0%,0%);fill-opacity:1;" d="M 226.511719 378.078125 C 226.511719 376.1875 223.675781 376.1875 223.675781 378.078125 C 223.675781 379.96875 226.511719 379.96875 226.511719 378.078125 Z M 226.511719 378.078125 "/>
<path style="fill:none;stroke-width:0.801759;stroke-linecap:butt;stroke-linejoin:miter;stroke:rgb(100%,0%,0%);stroke-opacity:1;stroke-miterlimit:10;" d="M 187.085938 181.417969 L 192.757812 181.417969 L 192.757812 175.746094 L 187.085938 175.746094 Z M 187.085938 181.417969 " transform="matrix(1,0,0,1,21,208)"/>
<path style="fill:none;stroke-width:0.801759;stroke-linecap:butt;stroke-linejoin:miter;stroke:rgb(100%,0%,0%);stroke-opacity:1;stroke-miterlimit:10;" d="M 192.757812 181.417969 L 198.425781 181.417969 L 198.425781 175.746094 L 192.757812 175.746094 Z M 192.757812 181.417969 " transform="matrix(1,0,0,1,21,208)"/>
<path style="fill:none;stroke-width:0.801759;stroke-linecap:butt;stroke-linejoin:miter;stroke:rgb(100%,0%,0%);stroke-opacity:1;stroke-miterlimit:10;" d="M 198.425781 181.417969 L 204.09375 181.417969 L 204.09375 175.746094 L 198.425781 175.746094 Z M 198.425781 181.417969 " transform="matrix(1,0,0,1,21,208)"/>
<path style="fill:none;stroke-width:0.801759;stroke-linecap:butt;stroke-linejoin:miter;stroke:rgb(100%,0%,0%);stroke-opacity:1;stroke-miterlimit:10;" d="M 204.09375 181.417969 L 209.765625 181.417969 L 209.765625 175.746094 L 204.09375 175.746094 Z M 204.09375 181.417969 " transform="matrix(1,0,0,1,21,208)"/>
<path style="fill:none;stroke-width:0.801759;stroke-linecap:butt;stroke-linejoin:miter;stroke:rgb(100%,0%,0%);stroke-opacity:1;stroke-miterlimit:10;" d="M 209.765625 181.417969 L 215.433594 181.417969 L 215.433594 175.746094 L 209.765625 175.746094 Z M 209.765625 181.417969 " transform="matrix(1,0,0,1,21,208)"/>
<path style="fill:none;stroke-width:0.801759;stroke-linecap:butt;stroke-linejoin:miter;stroke:rgb(100%,0%,0%);stroke-opacity:1;stroke-miterlimit:10;" d="M 215.433594 181.417969 L 221.101562 181.417969 L 221.101562 175.746094 L 215.433594 175.746094 Z M 215.433594 181.417969 " transform="matrix(1,0,0,1,21,208)"/>
<path style=" stroke:none;fill-rule:nonzero;fill:rgb(0%,0%,0%);fill-opacity:1;" d="M 226.511719 321.386719 C 226.511719 319.496094 223.675781 319.496094 223.675781 321.386719 C 223.675781 323.277344 226.511719 323.277344 226.511719 321.386719 Z M 226.511719 321.386719 "/>
<path style=" stroke:none;fill-rule:nonzero;fill:rgb(0%,0%,0%);fill-opacity:1;" d="M 226.511719 264.691406 C 226.511719 262.804688 223.675781 262.804688 223.675781 264.691406 C 223.675781 266.582031 226.511719 266.582031 226.511719 264.691406 Z M 226.511719 264.691406 "/>
<path style=" stroke:none;fill-rule:nonzero;fill:rgb(0%,0%,0%);fill-opacity:1;" d="M 226.511719 208 C 226.511719 206.109375 223.675781 206.109375 223.675781 208 C 223.675781 209.890625 226.511719 209.890625 226.511719 208 Z M 226.511719 208 "/>
<path style=" stroke:none;fill-rule:nonzero;fill:rgb(0%,0%,0%);fill-opacity:1;" d="M 226.511719 151.308594 C 226.511719 149.417969 223.675781 149.417969 223.675781 151.308594 C 223.675781 153.195312 226.511719 153.195312 226.511719 151.308594 Z M 226.511719 151.308594 "/>
<path style=" stroke:none;fill-rule:nonzero;fill:rgb(0%,0%,0%);fill-opacity:1;" d="M 226.511719 94.613281 C 226.511719 92.722656 223.675781 92.722656 223.675781 94.613281 C 223.675781 96.503906 226.511719 96.503906 226.511719 94.613281 Z M 226.511719 94.613281 "/>
<path style=" stroke:none;fill-rule:nonzero;fill:rgb(0%,0%,0%);fill-opacity:1;" d="M 226.511719 37.921875 C 226.511719 36.03125 223.675781 36.03125 223.675781 37.921875 C 223.675781 39.8125 226.511719 39.8125 226.511719 37.921875 Z M 226.511719 37.921875 "/>
<path style="fill:none;stroke-width:0.801759;stroke-linecap:butt;stroke-linejoin:miter;stroke:rgb(0%,0%,0%);stroke-opacity:1;stroke-miterlimit:10;" d="M 187.085938 -158.738281 L 192.757812 -158.738281 L 192.757812 -164.410156 L 187.085938 -164.410156 Z M 187.085938 -158.738281 " transform="matrix(1,0,0,1,21,208)"/>
<path style="fill:none;stroke-width:0.801759;stroke-linecap:butt;stroke-linejoin:miter;stroke:rgb(0%,0%,0%);stroke-opacity:1;stroke-miterlimit:10;" d="M 192.757812 -158.738281 L 198.425781 -158.738281 L 198.425781 -164.410156 L 192.757812 -164.410156 Z M 192.757812 -158.738281 " transform="matrix(1,0,0,1,21,208)"/>
<path style="fill:none;stroke-width:0.801759;stroke-linecap:butt;stroke-linejoin:miter;stroke:rgb(0%,0%,0%);stroke-opacity:1;stroke-miterlimit:10;" d="M 198.425781 -158.738281 L 204.09375 -158.738281 L 204.09375 -164.410156 L 198.425781 -164.410156 Z M 198.425781 -158.738281 " transform="matrix(1,0,0,1,21,208)"/>
<path style="fill:none;stroke-width:0.801759;stroke-linecap:butt;stroke-linejoin:miter;stroke:rgb(0%,0%,0%);stroke-opacity:1;stroke-miterlimit:10;" d="M 204.09375 -158.738281 L 209.765625 -158.738281 L 209.765625 -164.410156 L 204.09375 -164.410156 Z M 204.09375 -158.738281 " transform="matrix(1,0,0,1,21,208)"/>
<path style="fill:none;stroke-width:0.801759;stroke-linecap:butt;stroke-linejoin:miter;stroke:rgb(0%,0%,0%);stroke-opacity:1;stroke-miterlimit:10;" d="M 209.765625 -158.738281 L 215.433594 -158.738281 L 215.433594 -164.410156 L 209.765625 -164.410156 Z M 209.765625 -158.738281 " transform="matrix(1,0,0,1,21,208)"/>
<path style="fill:none;stroke-width:0.801759;stroke-linecap:butt;stroke-linejoin:miter;stroke:rgb(0%,0%,0%);stroke-opacity:1;stroke-miterlimit:10;" d="M 215.433594 -158.738281 L 221.101562 -158.738281 L 221.101562 -164.410156 L 215.433594 -164.410156 Z M 215.433594 -158.738281 " transform="matrix(1,0,0,1,21,208)"/>
<path style=" stroke:none;fill-rule:nonzero;fill:rgb(0%,0%,0%);fill-opacity:1;" d="M 260.527344 349.730469 C 260.527344 347.84375 257.691406 347.84375 257.691406 349.730469 C 257.691406 351.621094 260.527344 351.621094 260.527344 349.730469 Z M 260.527344 349.730469 "/>
<path style=" stroke:none;fill-rule:nonzero;fill:rgb(0%,0%,0%);fill-opacity:1;" d="M 260.527344 293.039062 C 260.527344 291.148438 257.691406 291.148438 257.691406 293.039062 C 257.691406 294.929688 260.527344 294.929688 260.527344 293.039062 Z M 260.527344 293.039062 "/>
<path style=" stroke:none;fill-rule:nonzero;fill:rgb(0%,0%,0%);fill-opacity:1;" d="M 260.527344 236.347656 C 260.527344 234.457031 257.691406 234.457031 257.691406 236.347656 C 257.691406 238.234375 260.527344 238.234375 260.527344 236.347656 Z M 260.527344 236.347656 "/>
<path style=" stroke:none;fill-rule:nonzero;fill:rgb(0%,0%,0%);fill-opacity:1;" d="M 260.527344 179.652344 C 260.527344 177.765625 257.691406 177.765625 257.691406 179.652344 C 257.691406 181.542969 260.527344 181.542969 260.527344 179.652344 Z M 260.527344 179.652344 "/>
<path style=" stroke:none;fill-rule:nonzero;fill:rgb(0%,0%,0%);fill-opacity:1;" d="M 260.527344 122.960938 C 260.527344 121.070312 257.691406 121.070312 257.691406 122.960938 C 257.691406 124.851562 260.527344 124.851562 260.527344 122.960938 Z M 260.527344 122.960938 "/>
<path style=" stroke:none;fill-rule:nonzero;fill:rgb(0%,0%,0%);fill-opacity:1;" d="M 260.527344 66.269531 C 260.527344 64.378906 257.691406 64.378906 257.691406 66.269531 C 257.691406 68.15625 260.527344 68.15625 260.527344 66.269531 Z M 260.527344 66.269531 "/>
</g>
</svg>
