<?xml version="1.0" encoding="UTF-8"?>
<svg xmlns="http://www.w3.org/2000/svg" xmlns:xlink="http://www.w3.org/1999/xlink" width="568pt" height="445pt" viewBox="0 0 568 445" version="1.1">
<g id="surface81">
<path style="fill:none;stroke-width:1.603518;stroke-linecap:butt;stroke-linejoin:miter;stroke:rgb(100%,30%,20%);stroke-opacity:0.7;stroke-miterlimit:10;" d="M 0 0 L 7.085938 -12.273438 " transform="matrix(1,0,0,1,57,263)"/>
<path style="fill:none;stroke-width:1.603518;stroke-linecap:butt;stroke-linejoin:miter;stroke:rgb(100%,30%,20%);stroke-opacity:0.7;stroke-miterlimit:10;" d="M 0 0 L 14.171875 0 " transform="matrix(1,0,0,1,57,263)"/>
<path style=" stroke:none;fill-rule:nonzero;fill:rgb(0%,0%,0%);fill-opacity:1;" d="M 58.375 269.417969 C 58.375 269.402344 58.40625 269.277344 58.40625 269.277344 C 58.40625 269.261719 58.40625 269.167969 58.28125 269.167969 C 58.171875 269.167969 58.15625 269.199219 58.109375 269.386719 L 57.484375 271.902344 C 55.75 271.949219 54.140625 273.402344 54.140625 274.886719 C 54.140625 275.917969 54.90625 276.777344 56.234375 276.855469 C 56.15625 277.199219 56.078125 277.542969 55.984375 277.886719 C 55.859375 278.402344 55.75 278.808594 55.75 278.839844 C 55.75 278.949219 55.828125 278.964844 55.875 278.964844 C 55.9375 278.964844 55.953125 278.949219 55.984375 278.917969 C 56.015625 278.902344 56.078125 278.636719 56.109375 278.480469 L 56.515625 276.855469 C 58.28125 276.808594 59.859375 275.339844 59.859375 273.871094 C 59.859375 273.011719 59.28125 272.011719 57.765625 271.902344 Z M 56.296875 276.621094 C 55.640625 276.589844 54.859375 276.199219 54.859375 275.121094 C 54.859375 273.808594 55.796875 272.277344 57.421875 272.136719 Z M 57.703125 272.136719 C 58.53125 272.183594 59.15625 272.683594 59.15625 273.636719 C 59.15625 274.933594 58.21875 276.496094 56.578125 276.621094 Z M 57.703125 272.136719 "/>
<path style=" stroke:none;fill-rule:nonzero;fill:rgb(0%,0%,0%);fill-opacity:1;" d="M 58.417969 263 C 58.417969 261.109375 55.582031 261.109375 55.582031 263 C 55.582031 264.890625 58.417969 264.890625 58.417969 263 Z M 58.417969 263 "/>
<path style="fill:none;stroke-width:0.566929;stroke-linecap:butt;stroke-linejoin:miter;stroke:rgb(0%,0%,0%);stroke-opacity:1;stroke-miterlimit:10;" d="M 2.835938 0 C 2.835938 -3.78125 -2.835938 -3.78125 -2.835938 0 C -2.835938 3.78125 2.835938 3.78125 2.835938 0 Z M 2.835938 0 " transform="matrix(1,0,0,1,57,263)"/>
<path style="fill:none;stroke-width:1.603518;stroke-linecap:butt;stroke-linejoin:miter;stroke:rgb(100%,30%,20%);stroke-opacity:0.7;stroke-miterlimit:10;" d="M -0.00135335 0.0000922736 L 21.260365 -36.824126 " transform="matrix(1,0,0,1,71.173228,237.488189)"/>
<path style="fill:none;stroke-width:1.603518;stroke-linecap:butt;stroke-linejoin:miter;stroke:rgb(100%,30%,20%);stroke-opacity:0.7;stroke-miterlimit:10;" d="M -0.00135335 0.0000922736 L 42.518178 0.0000922736 " transform="matrix(1,0,0,1,71.173228,237.488189)"/>
<path style=" stroke:none;fill-rule:nonzero;fill:rgb(20%,70%,20%);fill-opacity:1;" d="M 72.589844 237.488281 C 72.589844 235.597656 69.757812 235.597656 69.757812 237.488281 C 69.757812 239.378906 72.589844 239.378906 72.589844 237.488281 Z M 72.589844 237.488281 "/>
<path style=" stroke:none;fill-rule:nonzero;fill:rgb(20%,70%,20%);fill-opacity:1;" d="M 86.765625 212.9375 C 86.765625 211.050781 83.929688 211.050781 83.929688 212.9375 C 83.929688 214.828125 86.765625 214.828125 86.765625 212.9375 Z M 86.765625 212.9375 "/>
<path style="fill:none;stroke-width:0.801759;stroke-linecap:butt;stroke-linejoin:miter;stroke:rgb(0%,0%,0%);stroke-opacity:1;stroke-miterlimit:10;" d="M 25.510365 11.339936 L 31.18224 11.339936 L 31.18224 5.668061 L 25.510365 5.668061 Z M 25.510365 11.339936 " transform="matrix(1,0,0,1,71.173228,237.488189)"/>
<path style=" stroke:none;fill-rule:nonzero;fill:rgb(0%,0%,0%);fill-opacity:1;" d="M 100.9375 237.488281 C 100.9375 235.597656 98.101562 235.597656 98.101562 237.488281 C 98.101562 239.378906 100.9375 239.378906 100.9375 237.488281 Z M 100.9375 237.488281 "/>
<path style=" stroke:none;fill-rule:nonzero;fill:rgb(0%,0%,0%);fill-opacity:1;" d="M 104.699219 227.714844 C 105.246094 226.855469 105.699219 226.824219 106.105469 226.808594 C 106.230469 226.792969 106.246094 226.605469 106.246094 226.605469 C 106.246094 226.511719 106.183594 226.464844 106.105469 226.464844 C 105.824219 226.464844 105.496094 226.496094 105.199219 226.496094 C 104.839844 226.496094 104.480469 226.464844 104.121094 226.464844 C 104.058594 226.464844 103.917969 226.464844 103.917969 226.683594 C 103.917969 226.792969 104.011719 226.808594 104.089844 226.808594 C 104.386719 226.824219 104.589844 226.933594 104.589844 227.167969 C 104.589844 227.324219 104.433594 227.574219 104.433594 227.574219 L 101.089844 232.902344 L 100.339844 227.136719 C 100.339844 226.949219 100.589844 226.808594 101.089844 226.808594 C 101.246094 226.808594 101.371094 226.808594 101.371094 226.589844 C 101.371094 226.496094 101.277344 226.464844 101.214844 226.464844 C 100.777344 226.464844 100.308594 226.496094 99.855469 226.496094 C 99.667969 226.496094 99.464844 226.496094 99.261719 226.496094 C 99.058594 226.496094 98.855469 226.464844 98.667969 226.464844 C 98.589844 226.464844 98.464844 226.464844 98.464844 226.683594 C 98.464844 226.808594 98.558594 226.808594 98.746094 226.808594 C 99.355469 226.808594 99.355469 226.902344 99.386719 227.183594 L 100.261719 233.902344 C 100.292969 234.121094 100.324219 234.152344 100.480469 234.152344 C 100.652344 234.152344 100.683594 234.105469 100.777344 233.964844 Z M 104.699219 227.714844 "/>
<path style="fill:none;stroke-width:1.603518;stroke-linecap:butt;stroke-linejoin:miter;stroke:rgb(100%,30%,20%);stroke-opacity:0.7;stroke-miterlimit:10;" d="M -0.00150714 0.000184547 L 35.432087 -61.370909 " transform="matrix(1,0,0,1,113.692913,211.976378)"/>
<path style="fill:none;stroke-width:1.603518;stroke-linecap:butt;stroke-linejoin:miter;stroke:rgb(100%,30%,20%);stroke-opacity:0.7;stroke-miterlimit:10;" d="M -0.00150714 0.000184547 L 70.86568 0.000184547 " transform="matrix(1,0,0,1,113.692913,211.976378)"/>
<path style=" stroke:none;fill-rule:nonzero;fill:rgb(20%,70%,20%);fill-opacity:1;" d="M 115.109375 211.976562 C 115.109375 210.085938 112.277344 210.085938 112.277344 211.976562 C 112.277344 213.867188 115.109375 213.867188 115.109375 211.976562 Z M 115.109375 211.976562 "/>
<path style="fill:none;stroke-width:0.801759;stroke-linecap:butt;stroke-linejoin:miter;stroke:rgb(0%,0%,0%);stroke-opacity:1;stroke-miterlimit:10;" d="M 11.338337 -7.542784 L 17.006305 -7.542784 L 17.006305 -13.210753 L 11.338337 -13.210753 Z M 11.338337 -7.542784 " transform="matrix(1,0,0,1,113.692913,211.976378)"/>
<path style="fill:none;stroke-width:0.801759;stroke-linecap:butt;stroke-linejoin:miter;stroke:rgb(0%,0%,0%);stroke-opacity:1;stroke-miterlimit:10;" d="M 11.338337 -13.210753 L 17.006305 -13.210753 L 17.006305 -18.878722 L 11.338337 -18.878722 Z M 11.338337 -13.210753 " transform="matrix(1,0,0,1,113.692913,211.976378)"/>
<path style=" stroke:none;fill-rule:nonzero;fill:rgb(0%,0%,0%);fill-opacity:1;" d="M 129.285156 187.425781 C 129.285156 185.539062 126.449219 185.539062 126.449219 187.425781 C 126.449219 189.316406 129.285156 189.316406 129.285156 187.425781 Z M 129.285156 187.425781 "/>
<path style=" stroke:none;fill-rule:nonzero;fill:rgb(20%,70%,20%);fill-opacity:1;" d="M 143.457031 162.878906 C 143.457031 160.988281 140.621094 160.988281 140.621094 162.878906 C 140.621094 164.769531 143.457031 164.769531 143.457031 162.878906 Z M 143.457031 162.878906 "/>
<path style=" stroke:none;fill-rule:nonzero;fill:rgb(20%,70%,20%);fill-opacity:1;" d="M 143.457031 211.976562 C 143.457031 210.085938 140.621094 210.085938 140.621094 211.976562 C 140.621094 213.867188 143.457031 213.867188 143.457031 211.976562 Z M 143.457031 211.976562 "/>
<path style=" stroke:none;fill-rule:nonzero;fill:rgb(20%,70%,20%);fill-opacity:1;" d="M 157.628906 187.425781 C 157.628906 185.539062 154.796875 185.539062 154.796875 187.425781 C 154.796875 189.316406 157.628906 189.316406 157.628906 187.425781 Z M 157.628906 187.425781 "/>
<path style="fill:none;stroke-width:0.801759;stroke-linecap:butt;stroke-linejoin:miter;stroke:rgb(0%,0%,0%);stroke-opacity:1;stroke-miterlimit:10;" d="M 51.02193 11.340028 L 56.693805 11.340028 L 56.693805 5.668153 L 51.02193 5.668153 Z M 51.02193 11.340028 " transform="matrix(1,0,0,1,113.692913,211.976378)"/>
<path style="fill:none;stroke-width:0.801759;stroke-linecap:butt;stroke-linejoin:miter;stroke:rgb(0%,0%,0%);stroke-opacity:1;stroke-miterlimit:10;" d="M 56.693805 11.340028 L 62.361774 11.340028 L 62.361774 5.668153 L 56.693805 5.668153 Z M 56.693805 11.340028 " transform="matrix(1,0,0,1,113.692913,211.976378)"/>
<path style=" stroke:none;fill-rule:nonzero;fill:rgb(0%,0%,0%);fill-opacity:1;" d="M 171.804688 211.976562 C 171.804688 210.085938 168.96875 210.085938 168.96875 211.976562 C 168.96875 213.867188 171.804688 213.867188 171.804688 211.976562 Z M 171.804688 211.976562 "/>
<path style="fill:none;stroke-width:1.603518;stroke-linecap:butt;stroke-linejoin:miter;stroke:rgb(100%,30%,20%);stroke-opacity:0.7;stroke-miterlimit:10;" d="M -0.000461368 0.000276821 L 49.605007 -85.921598 " transform="matrix(1,0,0,1,184.559055,186.464567)"/>
<path style="fill:none;stroke-width:1.603518;stroke-linecap:butt;stroke-linejoin:miter;stroke:rgb(100%,30%,20%);stroke-opacity:0.7;stroke-miterlimit:10;" d="M -0.000461368 0.000276821 L 99.214382 0.000276821 " transform="matrix(1,0,0,1,184.559055,186.464567)"/>
<path style="fill:none;stroke-width:0.801759;stroke-linecap:butt;stroke-linejoin:miter;stroke:rgb(0%,0%,0%);stroke-opacity:1;stroke-miterlimit:10;" d="M -2.836399 22.676058 L 2.835476 22.676058 L 2.835476 17.008089 L -2.836399 17.008089 Z M -2.836399 22.676058 " transform="matrix(1,0,0,1,184.559055,186.464567)"/>
<path style="fill:none;stroke-width:0.801759;stroke-linecap:butt;stroke-linejoin:miter;stroke:rgb(0%,0%,0%);stroke-opacity:1;stroke-miterlimit:10;" d="M -2.836399 17.008089 L 2.835476 17.008089 L 2.835476 11.340121 L -2.836399 11.340121 Z M -2.836399 17.008089 " transform="matrix(1,0,0,1,184.559055,186.464567)"/>
<path style="fill:none;stroke-width:0.801759;stroke-linecap:butt;stroke-linejoin:miter;stroke:rgb(0%,0%,0%);stroke-opacity:1;stroke-miterlimit:10;" d="M -2.836399 11.340121 L 2.835476 11.340121 L 2.835476 5.668246 L -2.836399 5.668246 Z M -2.836399 11.340121 " transform="matrix(1,0,0,1,184.559055,186.464567)"/>
<path style=" stroke:none;fill-rule:nonzero;fill:rgb(0%,0%,0%);fill-opacity:1;" d="M 185.976562 186.464844 C 185.976562 184.574219 183.140625 184.574219 183.140625 186.464844 C 183.140625 188.355469 185.976562 188.355469 185.976562 186.464844 Z M 185.976562 186.464844 "/>
<path style="fill:none;stroke-width:0.566929;stroke-linecap:butt;stroke-linejoin:miter;stroke:rgb(0%,0%,0%);stroke-opacity:1;stroke-miterlimit:10;" d="M 2.835476 0.000276821 C 2.835476 -3.780973 -2.836399 -3.780973 -2.836399 0.000276821 C -2.836399 3.777621 2.835476 3.777621 2.835476 0.000276821 Z M 2.835476 0.000276821 " transform="matrix(1,0,0,1,184.559055,186.464567)"/>
<path style=" stroke:none;fill-rule:nonzero;fill:rgb(20%,70%,20%);fill-opacity:1;" d="M 200.148438 161.914062 C 200.148438 160.027344 197.316406 160.027344 197.316406 161.914062 C 197.316406 163.804688 200.148438 163.804688 200.148438 161.914062 Z M 200.148438 161.914062 "/>
<path style=" stroke:none;fill-rule:nonzero;fill:rgb(20%,70%,20%);fill-opacity:1;" d="M 214.324219 137.367188 C 214.324219 135.476562 211.488281 135.476562 211.488281 137.367188 C 211.488281 139.257812 214.324219 139.257812 214.324219 137.367188 Z M 214.324219 137.367188 "/>
<path style=" stroke:none;fill-rule:nonzero;fill:rgb(20%,70%,20%);fill-opacity:1;" d="M 228.496094 112.816406 C 228.496094 110.929688 225.660156 110.929688 225.660156 112.816406 C 225.660156 114.707031 228.496094 114.707031 228.496094 112.816406 Z M 228.496094 112.816406 "/>
<path style=" stroke:none;fill-rule:nonzero;fill:rgb(20%,70%,20%);fill-opacity:1;" d="M 214.324219 186.464844 C 214.324219 184.574219 211.488281 184.574219 211.488281 186.464844 C 211.488281 188.355469 214.324219 188.355469 214.324219 186.464844 Z M 214.324219 186.464844 "/>
<path style="fill:none;stroke-width:0.801759;stroke-linecap:butt;stroke-linejoin:miter;stroke:rgb(0%,0%,0%);stroke-opacity:1;stroke-miterlimit:10;" d="M 36.851101 -7.542692 L 42.51907 -7.542692 L 42.51907 -13.210661 L 36.851101 -13.210661 Z M 36.851101 -7.542692 " transform="matrix(1,0,0,1,184.559055,186.464567)"/>
<path style="fill:none;stroke-width:0.801759;stroke-linecap:butt;stroke-linejoin:miter;stroke:rgb(0%,0%,0%);stroke-opacity:1;stroke-miterlimit:10;" d="M 42.51907 -7.542692 L 48.187039 -7.542692 L 48.187039 -13.210661 L 42.51907 -13.210661 Z M 42.51907 -7.542692 " transform="matrix(1,0,0,1,184.559055,186.464567)"/>
<path style="fill:none;stroke-width:0.801759;stroke-linecap:butt;stroke-linejoin:miter;stroke:rgb(0%,0%,0%);stroke-opacity:1;stroke-miterlimit:10;" d="M 36.851101 -13.210661 L 42.51907 -13.210661 L 42.51907 -18.878629 L 36.851101 -18.878629 Z M 36.851101 -13.210661 " transform="matrix(1,0,0,1,184.559055,186.464567)"/>
<path style=" stroke:none;fill-rule:nonzero;fill:rgb(0%,0%,0%);fill-opacity:1;" d="M 228.496094 161.914062 C 228.496094 160.027344 225.660156 160.027344 225.660156 161.914062 C 225.660156 163.804688 228.496094 163.804688 228.496094 161.914062 Z M 228.496094 161.914062 "/>
<path style=" stroke:none;fill-rule:nonzero;fill:rgb(20%,70%,20%);fill-opacity:1;" d="M 242.667969 137.367188 C 242.667969 135.476562 239.835938 135.476562 239.835938 137.367188 C 239.835938 139.257812 242.667969 139.257812 242.667969 137.367188 Z M 242.667969 137.367188 "/>
<path style=" stroke:none;fill-rule:nonzero;fill:rgb(20%,70%,20%);fill-opacity:1;" d="M 242.667969 186.464844 C 242.667969 184.574219 239.835938 184.574219 239.835938 186.464844 C 239.835938 188.355469 242.667969 188.355469 242.667969 186.464844 Z M 242.667969 186.464844 "/>
<path style=" stroke:none;fill-rule:nonzero;fill:rgb(20%,70%,20%);fill-opacity:1;" d="M 256.84375 161.914062 C 256.84375 160.027344 254.007812 160.027344 254.007812 161.914062 C 254.007812 163.804688 256.84375 163.804688 256.84375 161.914062 Z M 256.84375 161.914062 "/>
<path style="fill:none;stroke-width:0.801759;stroke-linecap:butt;stroke-linejoin:miter;stroke:rgb(0%,0%,0%);stroke-opacity:1;stroke-miterlimit:10;" d="M 76.534695 11.340121 L 82.20657 11.340121 L 82.20657 5.668246 L 76.534695 5.668246 Z M 76.534695 11.340121 " transform="matrix(1,0,0,1,184.559055,186.464567)"/>
<path style="fill:none;stroke-width:0.801759;stroke-linecap:butt;stroke-linejoin:miter;stroke:rgb(0%,0%,0%);stroke-opacity:1;stroke-miterlimit:10;" d="M 82.20657 11.340121 L 87.874539 11.340121 L 87.874539 5.668246 L 82.20657 5.668246 Z M 82.20657 11.340121 " transform="matrix(1,0,0,1,184.559055,186.464567)"/>
<path style="fill:none;stroke-width:0.801759;stroke-linecap:butt;stroke-linejoin:miter;stroke:rgb(0%,0%,0%);stroke-opacity:1;stroke-miterlimit:10;" d="M 87.874539 11.340121 L 93.542507 11.340121 L 93.542507 5.668246 L 87.874539 5.668246 Z M 87.874539 11.340121 " transform="matrix(1,0,0,1,184.559055,186.464567)"/>
<path style=" stroke:none;fill-rule:nonzero;fill:rgb(0%,0%,0%);fill-opacity:1;" d="M 271.015625 186.464844 C 271.015625 184.574219 268.179688 184.574219 268.179688 186.464844 C 268.179688 188.355469 271.015625 188.355469 271.015625 186.464844 Z M 271.015625 186.464844 "/>
<path style="fill:none;stroke-width:1.603518;stroke-linecap:butt;stroke-linejoin:miter;stroke:rgb(100%,30%,20%);stroke-opacity:0.7;stroke-miterlimit:10;" d="M 0.00178396 0.000369094 L 63.779128 -110.468381 " transform="matrix(1,0,0,1,283.771654,160.952756)"/>
<path style="fill:none;stroke-width:1.603518;stroke-linecap:butt;stroke-linejoin:miter;stroke:rgb(100%,30%,20%);stroke-opacity:0.7;stroke-miterlimit:10;" d="M 0.00178396 0.000369094 L 127.560378 0.000369094 " transform="matrix(1,0,0,1,283.771654,160.952756)"/>
<path style=" stroke:none;fill-rule:nonzero;fill:rgb(20%,70%,20%);fill-opacity:1;" d="M 285.1875 160.953125 C 285.1875 159.0625 282.355469 159.0625 282.355469 160.953125 C 282.355469 162.84375 285.1875 162.84375 285.1875 160.953125 Z M 285.1875 160.953125 "/>
<path style=" stroke:none;fill-rule:nonzero;fill:rgb(20%,70%,20%);fill-opacity:1;" d="M 299.363281 136.402344 C 299.363281 134.515625 296.527344 134.515625 296.527344 136.402344 C 296.527344 138.292969 299.363281 138.292969 299.363281 136.402344 Z M 299.363281 136.402344 "/>
<path style="fill:none;stroke-width:0.801759;stroke-linecap:butt;stroke-linejoin:miter;stroke:rgb(0%,0%,0%);stroke-opacity:1;stroke-miterlimit:10;" d="M 22.677565 -32.089475 L 28.345534 -32.089475 L 28.345534 -37.757443 L 22.677565 -37.757443 Z M 22.677565 -32.089475 " transform="matrix(1,0,0,1,283.771654,160.952756)"/>
<path style="fill:none;stroke-width:0.801759;stroke-linecap:butt;stroke-linejoin:miter;stroke:rgb(0%,0%,0%);stroke-opacity:1;stroke-miterlimit:10;" d="M 28.345534 -32.089475 L 34.017409 -32.089475 L 34.017409 -37.757443 L 28.345534 -37.757443 Z M 28.345534 -32.089475 " transform="matrix(1,0,0,1,283.771654,160.952756)"/>
<path style="fill:none;stroke-width:0.801759;stroke-linecap:butt;stroke-linejoin:miter;stroke:rgb(0%,0%,0%);stroke-opacity:1;stroke-miterlimit:10;" d="M 22.677565 -37.757443 L 28.345534 -37.757443 L 28.345534 -43.429318 L 22.677565 -43.429318 Z M 22.677565 -37.757443 " transform="matrix(1,0,0,1,283.771654,160.952756)"/>
<path style="fill:none;stroke-width:0.801759;stroke-linecap:butt;stroke-linejoin:miter;stroke:rgb(0%,0%,0%);stroke-opacity:1;stroke-miterlimit:10;" d="M 28.345534 -37.757443 L 34.017409 -37.757443 L 34.017409 -43.429318 L 28.345534 -43.429318 Z M 28.345534 -37.757443 " transform="matrix(1,0,0,1,283.771654,160.952756)"/>
<path style=" stroke:none;fill-rule:nonzero;fill:rgb(0%,0%,0%);fill-opacity:1;" d="M 313.535156 111.855469 C 313.535156 109.964844 310.699219 109.964844 310.699219 111.855469 C 310.699219 113.746094 313.535156 113.746094 313.535156 111.855469 Z M 313.535156 111.855469 "/>
<path style=" stroke:none;fill-rule:nonzero;fill:rgb(20%,70%,20%);fill-opacity:1;" d="M 327.707031 87.304688 C 327.707031 85.417969 324.875 85.417969 324.875 87.304688 C 324.875 89.195312 327.707031 89.195312 327.707031 87.304688 Z M 327.707031 87.304688 "/>
<path style=" stroke:none;fill-rule:nonzero;fill:rgb(20%,70%,20%);fill-opacity:1;" d="M 341.882812 62.757812 C 341.882812 60.867188 339.046875 60.867188 339.046875 62.757812 C 339.046875 64.648438 341.882812 64.648438 341.882812 62.757812 Z M 341.882812 62.757812 "/>
<path style="fill:none;stroke-width:0.801759;stroke-linecap:butt;stroke-linejoin:miter;stroke:rgb(0%,0%,0%);stroke-opacity:1;stroke-miterlimit:10;" d="M 22.677565 22.67615 L 28.345534 22.67615 L 28.345534 17.008182 L 22.677565 17.008182 Z M 22.677565 22.67615 " transform="matrix(1,0,0,1,283.771654,160.952756)"/>
<path style="fill:none;stroke-width:0.801759;stroke-linecap:butt;stroke-linejoin:miter;stroke:rgb(0%,0%,0%);stroke-opacity:1;stroke-miterlimit:10;" d="M 28.345534 22.67615 L 34.017409 22.67615 L 34.017409 17.008182 L 28.345534 17.008182 Z M 28.345534 22.67615 " transform="matrix(1,0,0,1,283.771654,160.952756)"/>
<path style="fill:none;stroke-width:0.801759;stroke-linecap:butt;stroke-linejoin:miter;stroke:rgb(0%,0%,0%);stroke-opacity:1;stroke-miterlimit:10;" d="M 22.677565 17.008182 L 28.345534 17.008182 L 28.345534 11.340213 L 22.677565 11.340213 Z M 22.677565 17.008182 " transform="matrix(1,0,0,1,283.771654,160.952756)"/>
<path style="fill:none;stroke-width:0.801759;stroke-linecap:butt;stroke-linejoin:miter;stroke:rgb(0%,0%,0%);stroke-opacity:1;stroke-miterlimit:10;" d="M 22.677565 11.340213 L 28.345534 11.340213 L 28.345534 5.668338 L 22.677565 5.668338 Z M 22.677565 11.340213 " transform="matrix(1,0,0,1,283.771654,160.952756)"/>
<path style=" stroke:none;fill-rule:nonzero;fill:rgb(0%,0%,0%);fill-opacity:1;" d="M 313.535156 160.953125 C 313.535156 159.0625 310.699219 159.0625 310.699219 160.953125 C 310.699219 162.84375 313.535156 162.84375 313.535156 160.953125 Z M 313.535156 160.953125 "/>
<path style=" stroke:none;fill-rule:nonzero;fill:rgb(20%,70%,20%);fill-opacity:1;" d="M 327.707031 136.402344 C 327.707031 134.515625 324.875 134.515625 324.875 136.402344 C 324.875 138.292969 327.707031 138.292969 327.707031 136.402344 Z M 327.707031 136.402344 "/>
<path style=" stroke:none;fill-rule:nonzero;fill:rgb(20%,70%,20%);fill-opacity:1;" d="M 341.882812 111.855469 C 341.882812 109.964844 339.046875 109.964844 339.046875 111.855469 C 339.046875 113.746094 341.882812 113.746094 341.882812 111.855469 Z M 341.882812 111.855469 "/>
<path style=" stroke:none;fill-rule:nonzero;fill:rgb(20%,70%,20%);fill-opacity:1;" d="M 356.054688 87.304688 C 356.054688 85.417969 353.21875 85.417969 353.21875 87.304688 C 353.21875 89.195312 356.054688 89.195312 356.054688 87.304688 Z M 356.054688 87.304688 "/>
<path style=" stroke:none;fill-rule:nonzero;fill:rgb(20%,70%,20%);fill-opacity:1;" d="M 341.882812 160.953125 C 341.882812 159.0625 339.046875 159.0625 339.046875 160.953125 C 339.046875 162.84375 341.882812 162.84375 341.882812 160.953125 Z M 341.882812 160.953125 "/>
<path style="fill:none;stroke-width:0.801759;stroke-linecap:butt;stroke-linejoin:miter;stroke:rgb(0%,0%,0%);stroke-opacity:1;stroke-miterlimit:10;" d="M 62.361159 -7.5426 L 68.033034 -7.5426 L 68.033034 -13.210568 L 62.361159 -13.210568 Z M 62.361159 -7.5426 " transform="matrix(1,0,0,1,283.771654,160.952756)"/>
<path style="fill:none;stroke-width:0.801759;stroke-linecap:butt;stroke-linejoin:miter;stroke:rgb(0%,0%,0%);stroke-opacity:1;stroke-miterlimit:10;" d="M 68.033034 -7.5426 L 73.701003 -7.5426 L 73.701003 -13.210568 L 68.033034 -13.210568 Z M 68.033034 -7.5426 " transform="matrix(1,0,0,1,283.771654,160.952756)"/>
<path style="fill:none;stroke-width:0.801759;stroke-linecap:butt;stroke-linejoin:miter;stroke:rgb(0%,0%,0%);stroke-opacity:1;stroke-miterlimit:10;" d="M 73.701003 -7.5426 L 79.368971 -7.5426 L 79.368971 -13.210568 L 73.701003 -13.210568 Z M 73.701003 -7.5426 " transform="matrix(1,0,0,1,283.771654,160.952756)"/>
<path style="fill:none;stroke-width:0.801759;stroke-linecap:butt;stroke-linejoin:miter;stroke:rgb(0%,0%,0%);stroke-opacity:1;stroke-miterlimit:10;" d="M 62.361159 -13.210568 L 68.033034 -13.210568 L 68.033034 -18.878537 L 62.361159 -18.878537 Z M 62.361159 -13.210568 " transform="matrix(1,0,0,1,283.771654,160.952756)"/>
<path style=" stroke:none;fill-rule:nonzero;fill:rgb(0%,0%,0%);fill-opacity:1;" d="M 356.054688 136.402344 C 356.054688 134.515625 353.21875 134.515625 353.21875 136.402344 C 353.21875 138.292969 356.054688 138.292969 356.054688 136.402344 Z M 356.054688 136.402344 "/>
<path style=" stroke:none;fill-rule:nonzero;fill:rgb(20%,70%,20%);fill-opacity:1;" d="M 370.226562 111.855469 C 370.226562 109.964844 367.394531 109.964844 367.394531 111.855469 C 367.394531 113.746094 370.226562 113.746094 370.226562 111.855469 Z M 370.226562 111.855469 "/>
<path style=" stroke:none;fill-rule:nonzero;fill:rgb(20%,70%,20%);fill-opacity:1;" d="M 370.226562 160.953125 C 370.226562 159.0625 367.394531 159.0625 367.394531 160.953125 C 367.394531 162.84375 370.226562 162.84375 370.226562 160.953125 Z M 370.226562 160.953125 "/>
<path style=" stroke:none;fill-rule:nonzero;fill:rgb(20%,70%,20%);fill-opacity:1;" d="M 384.402344 136.402344 C 384.402344 134.515625 381.566406 134.515625 381.566406 136.402344 C 381.566406 138.292969 384.402344 138.292969 384.402344 136.402344 Z M 384.402344 136.402344 "/>
<path style="fill:none;stroke-width:0.801759;stroke-linecap:butt;stroke-linejoin:miter;stroke:rgb(0%,0%,0%);stroke-opacity:1;stroke-miterlimit:10;" d="M 102.048659 11.340213 L 107.716628 11.340213 L 107.716628 5.668338 L 102.048659 5.668338 Z M 102.048659 11.340213 " transform="matrix(1,0,0,1,283.771654,160.952756)"/>
<path style="fill:none;stroke-width:0.801759;stroke-linecap:butt;stroke-linejoin:miter;stroke:rgb(0%,0%,0%);stroke-opacity:1;stroke-miterlimit:10;" d="M 107.716628 11.340213 L 113.384596 11.340213 L 113.384596 5.668338 L 107.716628 5.668338 Z M 107.716628 11.340213 " transform="matrix(1,0,0,1,283.771654,160.952756)"/>
<path style="fill:none;stroke-width:0.801759;stroke-linecap:butt;stroke-linejoin:miter;stroke:rgb(0%,0%,0%);stroke-opacity:1;stroke-miterlimit:10;" d="M 113.384596 11.340213 L 119.056471 11.340213 L 119.056471 5.668338 L 113.384596 5.668338 Z M 113.384596 11.340213 " transform="matrix(1,0,0,1,283.771654,160.952756)"/>
<path style="fill:none;stroke-width:0.801759;stroke-linecap:butt;stroke-linejoin:miter;stroke:rgb(0%,0%,0%);stroke-opacity:1;stroke-miterlimit:10;" d="M 119.056471 11.340213 L 124.72444 11.340213 L 124.72444 5.668338 L 119.056471 5.668338 Z M 119.056471 11.340213 " transform="matrix(1,0,0,1,283.771654,160.952756)"/>
<path style=" stroke:none;fill-rule:nonzero;fill:rgb(0%,0%,0%);fill-opacity:1;" d="M 398.574219 160.953125 C 398.574219 159.0625 395.738281 159.0625 395.738281 160.953125 C 395.738281 162.84375 398.574219 162.84375 398.574219 160.953125 Z M 398.574219 160.953125 "/>
<path style="fill:none;stroke-width:1.603518;stroke-linecap:butt;stroke-linejoin:miter;stroke:rgb(100%,30%,20%);stroke-opacity:0.7;stroke-miterlimit:10;" d="M 0.00132259 0.000461368 L 77.954448 -135.01907 " transform="matrix(1,0,0,1,411.330709,135.440945)"/>
<path style="fill:none;stroke-width:1.603518;stroke-linecap:butt;stroke-linejoin:miter;stroke:rgb(100%,30%,20%);stroke-opacity:0.7;stroke-miterlimit:10;" d="M 0.00132259 0.000461368 L 155.903666 0.000461368 " transform="matrix(1,0,0,1,411.330709,135.440945)"/>
<path style=" stroke:none;fill-rule:nonzero;fill:rgb(20%,70%,20%);fill-opacity:1;" d="M 412.746094 135.441406 C 412.746094 133.550781 409.914062 133.550781 409.914062 135.441406 C 409.914062 137.332031 412.746094 137.332031 412.746094 135.441406 Z M 412.746094 135.441406 "/>
<path style="fill:none;stroke-width:0.801759;stroke-linecap:butt;stroke-linejoin:miter;stroke:rgb(0%,0%,0%);stroke-opacity:1;stroke-miterlimit:10;" d="M 8.505229 -1.870632 L 14.173198 -1.870632 L 14.173198 -7.542507 L 8.505229 -7.542507 Z M 8.505229 -1.870632 " transform="matrix(1,0,0,1,411.330709,135.440945)"/>
<path style="fill:none;stroke-width:0.801759;stroke-linecap:butt;stroke-linejoin:miter;stroke:rgb(0%,0%,0%);stroke-opacity:1;stroke-miterlimit:10;" d="M 14.173198 -1.870632 L 19.841166 -1.870632 L 19.841166 -7.542507 L 14.173198 -7.542507 Z M 14.173198 -1.870632 " transform="matrix(1,0,0,1,411.330709,135.440945)"/>
<path style="fill:none;stroke-width:0.801759;stroke-linecap:butt;stroke-linejoin:miter;stroke:rgb(0%,0%,0%);stroke-opacity:1;stroke-miterlimit:10;" d="M 8.505229 -7.542507 L 14.173198 -7.542507 L 14.173198 -13.210476 L 8.505229 -13.210476 Z M 8.505229 -7.542507 " transform="matrix(1,0,0,1,411.330709,135.440945)"/>
<path style="fill:none;stroke-width:0.801759;stroke-linecap:butt;stroke-linejoin:miter;stroke:rgb(0%,0%,0%);stroke-opacity:1;stroke-miterlimit:10;" d="M 14.173198 -7.542507 L 19.841166 -7.542507 L 19.841166 -13.210476 L 14.173198 -13.210476 Z M 14.173198 -7.542507 " transform="matrix(1,0,0,1,411.330709,135.440945)"/>
<path style="fill:none;stroke-width:0.801759;stroke-linecap:butt;stroke-linejoin:miter;stroke:rgb(0%,0%,0%);stroke-opacity:1;stroke-miterlimit:10;" d="M 8.505229 -13.210476 L 14.173198 -13.210476 L 14.173198 -18.878445 L 8.505229 -18.878445 Z M 8.505229 -13.210476 " transform="matrix(1,0,0,1,411.330709,135.440945)"/>
<path style=" stroke:none;fill-rule:nonzero;fill:rgb(0%,0%,0%);fill-opacity:1;" d="M 426.921875 110.890625 C 426.921875 109.003906 424.085938 109.003906 424.085938 110.890625 C 424.085938 112.78125 426.921875 112.78125 426.921875 110.890625 Z M 426.921875 110.890625 "/>
<path style=" stroke:none;fill-rule:nonzero;fill:rgb(20%,70%,20%);fill-opacity:1;" d="M 441.09375 86.34375 C 441.09375 84.453125 438.261719 84.453125 438.261719 86.34375 C 438.261719 88.234375 441.09375 88.234375 441.09375 86.34375 Z M 441.09375 86.34375 "/>
<path style=" stroke:none;fill-rule:nonzero;fill:rgb(20%,70%,20%);fill-opacity:1;" d="M 455.269531 61.792969 C 455.269531 59.90625 452.433594 59.90625 452.433594 61.792969 C 452.433594 63.683594 455.269531 63.683594 455.269531 61.792969 Z M 455.269531 61.792969 "/>
<path style=" stroke:none;fill-rule:nonzero;fill:rgb(20%,70%,20%);fill-opacity:1;" d="M 469.441406 37.246094 C 469.441406 35.355469 466.605469 35.355469 466.605469 37.246094 C 466.605469 39.136719 469.441406 39.136719 469.441406 37.246094 Z M 469.441406 37.246094 "/>
<path style=" stroke:none;fill-rule:nonzero;fill:rgb(20%,70%,20%);fill-opacity:1;" d="M 483.613281 12.695312 C 483.613281 10.808594 480.78125 10.808594 480.78125 12.695312 C 480.78125 14.585938 483.613281 14.585938 483.613281 12.695312 Z M 483.613281 12.695312 "/>
<path style=" stroke:none;fill-rule:nonzero;fill:rgb(20%,70%,20%);fill-opacity:1;" d="M 441.09375 135.441406 C 441.09375 133.550781 438.261719 133.550781 438.261719 135.441406 C 438.261719 137.332031 441.09375 137.332031 441.09375 135.441406 Z M 441.09375 135.441406 "/>
<path style=" stroke:none;fill-rule:nonzero;fill:rgb(20%,70%,20%);fill-opacity:1;" d="M 455.269531 110.890625 C 455.269531 109.003906 452.433594 109.003906 452.433594 110.890625 C 452.433594 112.78125 455.269531 112.78125 455.269531 110.890625 Z M 455.269531 110.890625 "/>
<path style="fill:none;stroke-width:0.801759;stroke-linecap:butt;stroke-linejoin:miter;stroke:rgb(0%,0%,0%);stroke-opacity:1;stroke-miterlimit:10;" d="M 48.188823 -32.089382 L 53.856791 -32.089382 L 53.856791 -37.757351 L 48.188823 -37.757351 Z M 48.188823 -32.089382 " transform="matrix(1,0,0,1,411.330709,135.440945)"/>
<path style="fill:none;stroke-width:0.801759;stroke-linecap:butt;stroke-linejoin:miter;stroke:rgb(0%,0%,0%);stroke-opacity:1;stroke-miterlimit:10;" d="M 53.856791 -32.089382 L 59.528666 -32.089382 L 59.528666 -37.757351 L 53.856791 -37.757351 Z M 53.856791 -32.089382 " transform="matrix(1,0,0,1,411.330709,135.440945)"/>
<path style="fill:none;stroke-width:0.801759;stroke-linecap:butt;stroke-linejoin:miter;stroke:rgb(0%,0%,0%);stroke-opacity:1;stroke-miterlimit:10;" d="M 59.528666 -32.089382 L 65.196635 -32.089382 L 65.196635 -37.757351 L 59.528666 -37.757351 Z M 59.528666 -32.089382 " transform="matrix(1,0,0,1,411.330709,135.440945)"/>
<path style="fill:none;stroke-width:0.801759;stroke-linecap:butt;stroke-linejoin:miter;stroke:rgb(0%,0%,0%);stroke-opacity:1;stroke-miterlimit:10;" d="M 48.188823 -37.757351 L 53.856791 -37.757351 L 53.856791 -43.429226 L 48.188823 -43.429226 Z M 48.188823 -37.757351 " transform="matrix(1,0,0,1,411.330709,135.440945)"/>
<path style="fill:none;stroke-width:0.801759;stroke-linecap:butt;stroke-linejoin:miter;stroke:rgb(0%,0%,0%);stroke-opacity:1;stroke-miterlimit:10;" d="M 53.856791 -37.757351 L 59.528666 -37.757351 L 59.528666 -43.429226 L 53.856791 -43.429226 Z M 53.856791 -37.757351 " transform="matrix(1,0,0,1,411.330709,135.440945)"/>
<path style=" stroke:none;fill-rule:nonzero;fill:rgb(0%,0%,0%);fill-opacity:1;" d="M 469.441406 86.34375 C 469.441406 84.453125 466.605469 84.453125 466.605469 86.34375 C 466.605469 88.234375 469.441406 88.234375 469.441406 86.34375 Z M 469.441406 86.34375 "/>
<path style=" stroke:none;fill-rule:nonzero;fill:rgb(20%,70%,20%);fill-opacity:1;" d="M 483.613281 61.792969 C 483.613281 59.90625 480.78125 59.90625 480.78125 61.792969 C 480.78125 63.683594 483.613281 63.683594 483.613281 61.792969 Z M 483.613281 61.792969 "/>
<path style=" stroke:none;fill-rule:nonzero;fill:rgb(20%,70%,20%);fill-opacity:1;" d="M 497.789062 37.246094 C 497.789062 35.355469 494.953125 35.355469 494.953125 37.246094 C 494.953125 39.136719 497.789062 39.136719 497.789062 37.246094 Z M 497.789062 37.246094 "/>
<path style="fill:none;stroke-width:0.801759;stroke-linecap:butt;stroke-linejoin:miter;stroke:rgb(0%,0%,0%);stroke-opacity:1;stroke-miterlimit:10;" d="M 48.188823 22.676243 L 53.856791 22.676243 L 53.856791 17.008274 L 48.188823 17.008274 Z M 48.188823 22.676243 " transform="matrix(1,0,0,1,411.330709,135.440945)"/>
<path style="fill:none;stroke-width:0.801759;stroke-linecap:butt;stroke-linejoin:miter;stroke:rgb(0%,0%,0%);stroke-opacity:1;stroke-miterlimit:10;" d="M 53.856791 22.676243 L 59.528666 22.676243 L 59.528666 17.008274 L 53.856791 17.008274 Z M 53.856791 22.676243 " transform="matrix(1,0,0,1,411.330709,135.440945)"/>
<path style="fill:none;stroke-width:0.801759;stroke-linecap:butt;stroke-linejoin:miter;stroke:rgb(0%,0%,0%);stroke-opacity:1;stroke-miterlimit:10;" d="M 59.528666 22.676243 L 65.196635 22.676243 L 65.196635 17.008274 L 59.528666 17.008274 Z M 59.528666 22.676243 " transform="matrix(1,0,0,1,411.330709,135.440945)"/>
<path style="fill:none;stroke-width:0.801759;stroke-linecap:butt;stroke-linejoin:miter;stroke:rgb(0%,0%,0%);stroke-opacity:1;stroke-miterlimit:10;" d="M 48.188823 17.008274 L 53.856791 17.008274 L 53.856791 11.340305 L 48.188823 11.340305 Z M 48.188823 17.008274 " transform="matrix(1,0,0,1,411.330709,135.440945)"/>
<path style="fill:none;stroke-width:0.801759;stroke-linecap:butt;stroke-linejoin:miter;stroke:rgb(0%,0%,0%);stroke-opacity:1;stroke-miterlimit:10;" d="M 48.188823 11.340305 L 53.856791 11.340305 L 53.856791 5.66843 L 48.188823 5.66843 Z M 48.188823 11.340305 " transform="matrix(1,0,0,1,411.330709,135.440945)"/>
<path style=" stroke:none;fill-rule:nonzero;fill:rgb(0%,0%,0%);fill-opacity:1;" d="M 469.441406 135.441406 C 469.441406 133.550781 466.605469 133.550781 466.605469 135.441406 C 466.605469 137.332031 469.441406 137.332031 469.441406 135.441406 Z M 469.441406 135.441406 "/>
<path style=" stroke:none;fill-rule:nonzero;fill:rgb(20%,70%,20%);fill-opacity:1;" d="M 483.613281 110.890625 C 483.613281 109.003906 480.78125 109.003906 480.78125 110.890625 C 480.78125 112.78125 483.613281 112.78125 483.613281 110.890625 Z M 483.613281 110.890625 "/>
<path style=" stroke:none;fill-rule:nonzero;fill:rgb(20%,70%,20%);fill-opacity:1;" d="M 497.789062 86.34375 C 497.789062 84.453125 494.953125 84.453125 494.953125 86.34375 C 494.953125 88.234375 497.789062 88.234375 497.789062 86.34375 Z M 497.789062 86.34375 "/>
<path style=" stroke:none;fill-rule:nonzero;fill:rgb(20%,70%,20%);fill-opacity:1;" d="M 511.960938 61.792969 C 511.960938 59.90625 509.125 59.90625 509.125 61.792969 C 509.125 63.683594 511.960938 63.683594 511.960938 61.792969 Z M 511.960938 61.792969 "/>
<path style=" stroke:none;fill-rule:nonzero;fill:rgb(20%,70%,20%);fill-opacity:1;" d="M 497.789062 135.441406 C 497.789062 133.550781 494.953125 133.550781 494.953125 135.441406 C 494.953125 137.332031 497.789062 137.332031 497.789062 135.441406 Z M 497.789062 135.441406 "/>
<path style="fill:none;stroke-width:0.801759;stroke-linecap:butt;stroke-linejoin:miter;stroke:rgb(0%,0%,0%);stroke-opacity:1;stroke-miterlimit:10;" d="M 87.872416 -7.542507 L 93.544291 -7.542507 L 93.544291 -13.210476 L 87.872416 -13.210476 Z M 87.872416 -7.542507 " transform="matrix(1,0,0,1,411.330709,135.440945)"/>
<path style="fill:none;stroke-width:0.801759;stroke-linecap:butt;stroke-linejoin:miter;stroke:rgb(0%,0%,0%);stroke-opacity:1;stroke-miterlimit:10;" d="M 93.544291 -7.542507 L 99.21226 -7.542507 L 99.21226 -13.210476 L 93.544291 -13.210476 Z M 93.544291 -7.542507 " transform="matrix(1,0,0,1,411.330709,135.440945)"/>
<path style="fill:none;stroke-width:0.801759;stroke-linecap:butt;stroke-linejoin:miter;stroke:rgb(0%,0%,0%);stroke-opacity:1;stroke-miterlimit:10;" d="M 99.21226 -7.542507 L 104.880229 -7.542507 L 104.880229 -13.210476 L 99.21226 -13.210476 Z M 99.21226 -7.542507 " transform="matrix(1,0,0,1,411.330709,135.440945)"/>
<path style="fill:none;stroke-width:0.801759;stroke-linecap:butt;stroke-linejoin:miter;stroke:rgb(0%,0%,0%);stroke-opacity:1;stroke-miterlimit:10;" d="M 104.880229 -7.542507 L 110.552104 -7.542507 L 110.552104 -13.210476 L 104.880229 -13.210476 Z M 104.880229 -7.542507 " transform="matrix(1,0,0,1,411.330709,135.440945)"/>
<path style="fill:none;stroke-width:0.801759;stroke-linecap:butt;stroke-linejoin:miter;stroke:rgb(0%,0%,0%);stroke-opacity:1;stroke-miterlimit:10;" d="M 87.872416 -13.210476 L 93.544291 -13.210476 L 93.544291 -18.878445 L 87.872416 -18.878445 Z M 87.872416 -13.210476 " transform="matrix(1,0,0,1,411.330709,135.440945)"/>
<path style=" stroke:none;fill-rule:nonzero;fill:rgb(0%,0%,0%);fill-opacity:1;" d="M 511.960938 110.890625 C 511.960938 109.003906 509.125 109.003906 509.125 110.890625 C 509.125 112.78125 511.960938 112.78125 511.960938 110.890625 Z M 511.960938 110.890625 "/>
<path style=" stroke:none;fill-rule:nonzero;fill:rgb(20%,70%,20%);fill-opacity:1;" d="M 526.132812 86.34375 C 526.132812 84.453125 523.300781 84.453125 523.300781 86.34375 C 523.300781 88.234375 526.132812 88.234375 526.132812 86.34375 Z M 526.132812 86.34375 "/>
<path style=" stroke:none;fill-rule:nonzero;fill:rgb(20%,70%,20%);fill-opacity:1;" d="M 526.132812 135.441406 C 526.132812 133.550781 523.300781 133.550781 523.300781 135.441406 C 523.300781 137.332031 526.132812 137.332031 526.132812 135.441406 Z M 526.132812 135.441406 "/>
<path style=" stroke:none;fill-rule:nonzero;fill:rgb(20%,70%,20%);fill-opacity:1;" d="M 540.308594 110.890625 C 540.308594 109.003906 537.472656 109.003906 537.472656 110.890625 C 537.472656 112.78125 540.308594 112.78125 540.308594 110.890625 Z M 540.308594 110.890625 "/>
<path style="fill:none;stroke-width:0.801759;stroke-linecap:butt;stroke-linejoin:miter;stroke:rgb(0%,0%,0%);stroke-opacity:1;stroke-miterlimit:10;" d="M 127.559916 11.340305 L 133.227885 11.340305 L 133.227885 5.66843 L 127.559916 5.66843 Z M 127.559916 11.340305 " transform="matrix(1,0,0,1,411.330709,135.440945)"/>
<path style="fill:none;stroke-width:0.801759;stroke-linecap:butt;stroke-linejoin:miter;stroke:rgb(0%,0%,0%);stroke-opacity:1;stroke-miterlimit:10;" d="M 133.227885 11.340305 L 138.895854 11.340305 L 138.895854 5.66843 L 133.227885 5.66843 Z M 133.227885 11.340305 " transform="matrix(1,0,0,1,411.330709,135.440945)"/>
<path style="fill:none;stroke-width:0.801759;stroke-linecap:butt;stroke-linejoin:miter;stroke:rgb(0%,0%,0%);stroke-opacity:1;stroke-miterlimit:10;" d="M 138.895854 11.340305 L 144.567729 11.340305 L 144.567729 5.66843 L 138.895854 5.66843 Z M 138.895854 11.340305 " transform="matrix(1,0,0,1,411.330709,135.440945)"/>
<path style="fill:none;stroke-width:0.801759;stroke-linecap:butt;stroke-linejoin:miter;stroke:rgb(0%,0%,0%);stroke-opacity:1;stroke-miterlimit:10;" d="M 144.567729 11.340305 L 150.235698 11.340305 L 150.235698 5.66843 L 144.567729 5.66843 Z M 144.567729 11.340305 " transform="matrix(1,0,0,1,411.330709,135.440945)"/>
<path style="fill:none;stroke-width:0.801759;stroke-linecap:butt;stroke-linejoin:miter;stroke:rgb(0%,0%,0%);stroke-opacity:1;stroke-miterlimit:10;" d="M 150.235698 11.340305 L 155.903666 11.340305 L 155.903666 5.66843 L 150.235698 5.66843 Z M 150.235698 11.340305 " transform="matrix(1,0,0,1,411.330709,135.440945)"/>
<path style=" stroke:none;fill-rule:nonzero;fill:rgb(0%,0%,0%);fill-opacity:1;" d="M 554.480469 135.441406 C 554.480469 133.550781 551.644531 133.550781 551.644531 135.441406 C 551.644531 137.332031 554.480469 137.332031 554.480469 135.441406 Z M 554.480469 135.441406 "/>
<path style="fill:none;stroke-width:1.603518;stroke-linecap:butt;stroke-linejoin:miter;stroke:rgb(100%,30%,20%);stroke-opacity:0.7;stroke-miterlimit:10;" d="M 0 -0.000878796 L 93.543527 -162.020968 " transform="matrix(0.7,0,0,0.7,57,433.07874)"/>
<path style="fill:none;stroke-width:1.603518;stroke-linecap:butt;stroke-linejoin:miter;stroke:rgb(100%,30%,20%);stroke-opacity:0.7;stroke-miterlimit:10;" d="M 0 -0.000878796 L 187.087054 -0.000878796 " transform="matrix(0.7,0,0,0.7,57,433.07874)"/>
<path style=" stroke:none;fill-rule:nonzero;fill:rgb(0%,0%,0%);fill-opacity:1;" d="M 57.960938 437.570312 C 57.960938 437.5625 57.984375 437.472656 57.984375 437.472656 C 57.984375 437.460938 57.984375 437.398438 57.898438 437.398438 C 57.820312 437.398438 57.808594 437.417969 57.777344 437.550781 L 57.339844 439.3125 C 56.125 439.34375 55 440.359375 55 441.398438 C 55 442.121094 55.535156 442.722656 56.464844 442.777344 C 56.410156 443.019531 56.355469 443.257812 56.289062 443.5 C 56.203125 443.859375 56.125 444.144531 56.125 444.167969 C 56.125 444.242188 56.179688 444.253906 56.210938 444.253906 C 56.257812 444.253906 56.265625 444.242188 56.289062 444.222656 C 56.3125 444.210938 56.355469 444.023438 56.375 443.914062 L 56.660156 442.777344 C 57.898438 442.746094 59 441.71875 59 440.6875 C 59 440.085938 58.597656 439.386719 57.535156 439.3125 Z M 56.507812 442.613281 C 56.046875 442.59375 55.5 442.320312 55.5 441.5625 C 55.5 440.644531 56.15625 439.574219 57.296875 439.476562 Z M 57.492188 439.476562 C 58.070312 439.507812 58.507812 439.859375 58.507812 440.523438 C 58.507812 441.433594 57.851562 442.527344 56.703125 442.613281 Z M 57.492188 439.476562 "/>
<path style=" stroke:none;fill-rule:nonzero;fill:rgb(0%,0%,0%);fill-opacity:1;" d="M 57.992188 433.078125 C 57.992188 431.757812 56.007812 431.757812 56.007812 433.078125 C 56.007812 434.402344 57.992188 434.402344 57.992188 433.078125 Z M 57.992188 433.078125 "/>
<path style="fill:none;stroke-width:0.566929;stroke-linecap:butt;stroke-linejoin:miter;stroke:rgb(0%,0%,0%);stroke-opacity:1;stroke-miterlimit:10;" d="M 2.834821 -0.000878796 C 2.834821 -3.778781 -2.834821 -3.778781 -2.834821 -0.000878796 C -2.834821 3.777023 2.834821 3.777023 2.834821 -0.000878796 Z M 2.834821 -0.000878796 " transform="matrix(0.7,0,0,0.7,57,433.07874)"/>
<path style="fill:none;stroke-width:0.801759;stroke-linecap:butt;stroke-linejoin:miter;stroke:rgb(0%,0%,0%);stroke-opacity:1;stroke-miterlimit:10;" d="M 14.174107 -12.450656 L 19.84375 -12.450656 L 19.84375 -18.120298 L 14.174107 -18.120298 Z M 14.174107 -12.450656 " transform="matrix(0.7,0,0,0.7,57,433.07874)"/>
<path style="fill:none;stroke-width:0.801759;stroke-linecap:butt;stroke-linejoin:miter;stroke:rgb(0%,0%,0%);stroke-opacity:1;stroke-miterlimit:10;" d="M 14.174107 -18.120298 L 19.84375 -18.120298 L 19.84375 -23.789941 L 14.174107 -23.789941 Z M 14.174107 -18.120298 " transform="matrix(0.7,0,0,0.7,57,433.07874)"/>
<path style=" stroke:none;fill-rule:nonzero;fill:rgb(0%,0%,0%);fill-opacity:1;" d="M 69.898438 412.457031 C 69.898438 411.136719 67.914062 411.136719 67.914062 412.457031 C 67.914062 413.78125 69.898438 413.78125 69.898438 412.457031 Z M 69.898438 412.457031 "/>
<path style="fill:none;stroke-width:0.801759;stroke-linecap:butt;stroke-linejoin:miter;stroke:rgb(0%,0%,0%);stroke-opacity:1;stroke-miterlimit:10;" d="M 28.348214 -41.909361 L 34.017857 -41.909361 L 34.017857 -47.579004 L 28.348214 -47.579004 Z M 28.348214 -41.909361 " transform="matrix(0.7,0,0,0.7,57,433.07874)"/>
<path style="fill:none;stroke-width:0.801759;stroke-linecap:butt;stroke-linejoin:miter;stroke:rgb(0%,0%,0%);stroke-opacity:1;stroke-miterlimit:10;" d="M 34.017857 -41.909361 L 39.6875 -41.909361 L 39.6875 -47.579004 L 34.017857 -47.579004 Z M 34.017857 -41.909361 " transform="matrix(0.7,0,0,0.7,57,433.07874)"/>
<path style="fill:none;stroke-width:0.801759;stroke-linecap:butt;stroke-linejoin:miter;stroke:rgb(0%,0%,0%);stroke-opacity:1;stroke-miterlimit:10;" d="M 28.348214 -47.579004 L 34.017857 -47.579004 L 34.017857 -53.248647 L 28.348214 -53.248647 Z M 28.348214 -47.579004 " transform="matrix(0.7,0,0,0.7,57,433.07874)"/>
<path style="fill:none;stroke-width:0.801759;stroke-linecap:butt;stroke-linejoin:miter;stroke:rgb(0%,0%,0%);stroke-opacity:1;stroke-miterlimit:10;" d="M 34.017857 -47.579004 L 39.6875 -47.579004 L 39.6875 -53.248647 L 34.017857 -53.248647 Z M 34.017857 -47.579004 " transform="matrix(0.7,0,0,0.7,57,433.07874)"/>
<path style=" stroke:none;fill-rule:nonzero;fill:rgb(0%,0%,0%);fill-opacity:1;" d="M 81.804688 391.835938 C 81.804688 390.515625 79.820312 390.515625 79.820312 391.835938 C 79.820312 393.160156 81.804688 393.160156 81.804688 391.835938 Z M 81.804688 391.835938 "/>
<path style="fill:none;stroke-width:0.801759;stroke-linecap:butt;stroke-linejoin:miter;stroke:rgb(0%,0%,0%);stroke-opacity:1;stroke-miterlimit:10;" d="M 42.522321 -71.368066 L 48.186384 -71.368066 L 48.186384 -77.037709 L 42.522321 -77.037709 Z M 42.522321 -71.368066 " transform="matrix(0.7,0,0,0.7,57,433.07874)"/>
<path style="fill:none;stroke-width:0.801759;stroke-linecap:butt;stroke-linejoin:miter;stroke:rgb(0%,0%,0%);stroke-opacity:1;stroke-miterlimit:10;" d="M 48.186384 -71.368066 L 53.856027 -71.368066 L 53.856027 -77.037709 L 48.186384 -77.037709 Z M 48.186384 -71.368066 " transform="matrix(0.7,0,0,0.7,57,433.07874)"/>
<path style="fill:none;stroke-width:0.801759;stroke-linecap:butt;stroke-linejoin:miter;stroke:rgb(0%,0%,0%);stroke-opacity:1;stroke-miterlimit:10;" d="M 53.856027 -71.368066 L 59.52567 -71.368066 L 59.52567 -77.037709 L 53.856027 -77.037709 Z M 53.856027 -71.368066 " transform="matrix(0.7,0,0,0.7,57,433.07874)"/>
<path style="fill:none;stroke-width:0.801759;stroke-linecap:butt;stroke-linejoin:miter;stroke:rgb(0%,0%,0%);stroke-opacity:1;stroke-miterlimit:10;" d="M 42.522321 -77.037709 L 48.186384 -77.037709 L 48.186384 -82.707352 L 42.522321 -82.707352 Z M 42.522321 -77.037709 " transform="matrix(0.7,0,0,0.7,57,433.07874)"/>
<path style="fill:none;stroke-width:0.801759;stroke-linecap:butt;stroke-linejoin:miter;stroke:rgb(0%,0%,0%);stroke-opacity:1;stroke-miterlimit:10;" d="M 48.186384 -77.037709 L 53.856027 -77.037709 L 53.856027 -82.707352 L 48.186384 -82.707352 Z M 48.186384 -77.037709 " transform="matrix(0.7,0,0,0.7,57,433.07874)"/>
<path style="fill:none;stroke-width:0.801759;stroke-linecap:butt;stroke-linejoin:miter;stroke:rgb(0%,0%,0%);stroke-opacity:1;stroke-miterlimit:10;" d="M 53.856027 -77.037709 L 59.52567 -77.037709 L 59.52567 -82.707352 L 53.856027 -82.707352 Z M 53.856027 -77.037709 " transform="matrix(0.7,0,0,0.7,57,433.07874)"/>
<path style=" stroke:none;fill-rule:nonzero;fill:rgb(0%,0%,0%);fill-opacity:1;" d="M 93.707031 371.214844 C 93.707031 369.894531 91.722656 369.894531 91.722656 371.214844 C 91.722656 372.539062 93.707031 372.539062 93.707031 371.214844 Z M 93.707031 371.214844 "/>
<path style="fill:none;stroke-width:0.801759;stroke-linecap:butt;stroke-linejoin:miter;stroke:rgb(0%,0%,0%);stroke-opacity:1;stroke-miterlimit:10;" d="M 56.690848 -100.826772 L 62.360491 -100.826772 L 62.360491 -106.496415 L 56.690848 -106.496415 Z M 56.690848 -100.826772 " transform="matrix(0.7,0,0,0.7,57,433.07874)"/>
<path style="fill:none;stroke-width:0.801759;stroke-linecap:butt;stroke-linejoin:miter;stroke:rgb(0%,0%,0%);stroke-opacity:1;stroke-miterlimit:10;" d="M 62.360491 -100.826772 L 68.030134 -100.826772 L 68.030134 -106.496415 L 62.360491 -106.496415 Z M 62.360491 -100.826772 " transform="matrix(0.7,0,0,0.7,57,433.07874)"/>
<path style="fill:none;stroke-width:0.801759;stroke-linecap:butt;stroke-linejoin:miter;stroke:rgb(0%,0%,0%);stroke-opacity:1;stroke-miterlimit:10;" d="M 68.030134 -100.826772 L 73.699777 -100.826772 L 73.699777 -106.496415 L 68.030134 -106.496415 Z M 68.030134 -100.826772 " transform="matrix(0.7,0,0,0.7,57,433.07874)"/>
<path style="fill:none;stroke-width:0.801759;stroke-linecap:butt;stroke-linejoin:miter;stroke:rgb(0%,0%,0%);stroke-opacity:1;stroke-miterlimit:10;" d="M 73.699777 -100.826772 L 79.36942 -100.826772 L 79.36942 -106.496415 L 73.699777 -106.496415 Z M 73.699777 -100.826772 " transform="matrix(0.7,0,0,0.7,57,433.07874)"/>
<path style="fill:none;stroke-width:0.801759;stroke-linecap:butt;stroke-linejoin:miter;stroke:rgb(0%,0%,0%);stroke-opacity:1;stroke-miterlimit:10;" d="M 56.690848 -106.496415 L 62.360491 -106.496415 L 62.360491 -112.166057 L 56.690848 -112.166057 Z M 56.690848 -106.496415 " transform="matrix(0.7,0,0,0.7,57,433.07874)"/>
<path style="fill:none;stroke-width:0.801759;stroke-linecap:butt;stroke-linejoin:miter;stroke:rgb(0%,0%,0%);stroke-opacity:1;stroke-miterlimit:10;" d="M 62.360491 -106.496415 L 68.030134 -106.496415 L 68.030134 -112.166057 L 62.360491 -112.166057 Z M 62.360491 -106.496415 " transform="matrix(0.7,0,0,0.7,57,433.07874)"/>
<path style="fill:none;stroke-width:0.801759;stroke-linecap:butt;stroke-linejoin:miter;stroke:rgb(0%,0%,0%);stroke-opacity:1;stroke-miterlimit:10;" d="M 68.030134 -106.496415 L 73.699777 -106.496415 L 73.699777 -112.166057 L 68.030134 -112.166057 Z M 68.030134 -106.496415 " transform="matrix(0.7,0,0,0.7,57,433.07874)"/>
<path style="fill:none;stroke-width:0.801759;stroke-linecap:butt;stroke-linejoin:miter;stroke:rgb(0%,0%,0%);stroke-opacity:1;stroke-miterlimit:10;" d="M 73.699777 -106.496415 L 79.36942 -106.496415 L 79.36942 -112.166057 L 73.699777 -112.166057 Z M 73.699777 -106.496415 " transform="matrix(0.7,0,0,0.7,57,433.07874)"/>
<path style=" stroke:none;fill-rule:nonzero;fill:rgb(0%,0%,0%);fill-opacity:1;" d="M 105.613281 350.59375 C 105.613281 349.273438 103.628906 349.273438 103.628906 350.59375 C 103.628906 351.917969 105.613281 351.917969 105.613281 350.59375 Z M 105.613281 350.59375 "/>
<path style="fill:none;stroke-width:0.801759;stroke-linecap:butt;stroke-linejoin:miter;stroke:rgb(0%,0%,0%);stroke-opacity:1;stroke-miterlimit:10;" d="M 70.864955 -130.285477 L 76.534598 -130.285477 L 76.534598 -135.95512 L 70.864955 -135.95512 Z M 70.864955 -130.285477 " transform="matrix(0.7,0,0,0.7,57,433.07874)"/>
<path style="fill:none;stroke-width:0.801759;stroke-linecap:butt;stroke-linejoin:miter;stroke:rgb(0%,0%,0%);stroke-opacity:1;stroke-miterlimit:10;" d="M 76.534598 -130.285477 L 82.204241 -130.285477 L 82.204241 -135.95512 L 76.534598 -135.95512 Z M 76.534598 -130.285477 " transform="matrix(0.7,0,0,0.7,57,433.07874)"/>
<path style="fill:none;stroke-width:0.801759;stroke-linecap:butt;stroke-linejoin:miter;stroke:rgb(0%,0%,0%);stroke-opacity:1;stroke-miterlimit:10;" d="M 82.204241 -130.285477 L 87.873884 -130.285477 L 87.873884 -135.95512 L 82.204241 -135.95512 Z M 82.204241 -130.285477 " transform="matrix(0.7,0,0,0.7,57,433.07874)"/>
<path style="fill:none;stroke-width:0.801759;stroke-linecap:butt;stroke-linejoin:miter;stroke:rgb(0%,0%,0%);stroke-opacity:1;stroke-miterlimit:10;" d="M 87.873884 -130.285477 L 93.543527 -130.285477 L 93.543527 -135.95512 L 87.873884 -135.95512 Z M 87.873884 -130.285477 " transform="matrix(0.7,0,0,0.7,57,433.07874)"/>
<path style="fill:none;stroke-width:0.801759;stroke-linecap:butt;stroke-linejoin:miter;stroke:rgb(0%,0%,0%);stroke-opacity:1;stroke-miterlimit:10;" d="M 93.543527 -130.285477 L 99.21317 -130.285477 L 99.21317 -135.95512 L 93.543527 -135.95512 Z M 93.543527 -130.285477 " transform="matrix(0.7,0,0,0.7,57,433.07874)"/>
<path style="fill:none;stroke-width:0.801759;stroke-linecap:butt;stroke-linejoin:miter;stroke:rgb(0%,0%,0%);stroke-opacity:1;stroke-miterlimit:10;" d="M 70.864955 -135.95512 L 76.534598 -135.95512 L 76.534598 -141.624763 L 70.864955 -141.624763 Z M 70.864955 -135.95512 " transform="matrix(0.7,0,0,0.7,57,433.07874)"/>
<path style="fill:none;stroke-width:0.801759;stroke-linecap:butt;stroke-linejoin:miter;stroke:rgb(0%,0%,0%);stroke-opacity:1;stroke-miterlimit:10;" d="M 76.534598 -135.95512 L 82.204241 -135.95512 L 82.204241 -141.624763 L 76.534598 -141.624763 Z M 76.534598 -135.95512 " transform="matrix(0.7,0,0,0.7,57,433.07874)"/>
<path style="fill:none;stroke-width:0.801759;stroke-linecap:butt;stroke-linejoin:miter;stroke:rgb(0%,0%,0%);stroke-opacity:1;stroke-miterlimit:10;" d="M 82.204241 -135.95512 L 87.873884 -135.95512 L 87.873884 -141.624763 L 82.204241 -141.624763 Z M 82.204241 -135.95512 " transform="matrix(0.7,0,0,0.7,57,433.07874)"/>
<path style="fill:none;stroke-width:0.801759;stroke-linecap:butt;stroke-linejoin:miter;stroke:rgb(0%,0%,0%);stroke-opacity:1;stroke-miterlimit:10;" d="M 87.873884 -135.95512 L 93.543527 -135.95512 L 93.543527 -141.624763 L 87.873884 -141.624763 Z M 87.873884 -135.95512 " transform="matrix(0.7,0,0,0.7,57,433.07874)"/>
<path style="fill:none;stroke-width:0.801759;stroke-linecap:butt;stroke-linejoin:miter;stroke:rgb(0%,0%,0%);stroke-opacity:1;stroke-miterlimit:10;" d="M 93.543527 -135.95512 L 99.21317 -135.95512 L 99.21317 -141.624763 L 93.543527 -141.624763 Z M 93.543527 -135.95512 " transform="matrix(0.7,0,0,0.7,57,433.07874)"/>
<path style=" stroke:none;fill-rule:nonzero;fill:rgb(0%,0%,0%);fill-opacity:1;" d="M 117.519531 329.972656 C 117.519531 328.652344 115.535156 328.652344 115.535156 329.972656 C 115.535156 331.296875 117.519531 331.296875 117.519531 329.972656 Z M 117.519531 329.972656 "/>
<path style="fill:none;stroke-width:0.801759;stroke-linecap:butt;stroke-linejoin:miter;stroke:rgb(0%,0%,0%);stroke-opacity:1;stroke-miterlimit:10;" d="M 31.183036 11.338407 L 36.852679 11.338407 L 36.852679 5.668764 L 31.183036 5.668764 Z M 31.183036 11.338407 " transform="matrix(0.7,0,0,0.7,57,433.07874)"/>
<path style=" stroke:none;fill-rule:nonzero;fill:rgb(0%,0%,0%);fill-opacity:1;" d="M 81.804688 433.078125 C 81.804688 431.757812 79.820312 431.757812 79.820312 433.078125 C 79.820312 434.402344 81.804688 434.402344 81.804688 433.078125 Z M 81.804688 433.078125 "/>
<path style="fill:none;stroke-width:0.801759;stroke-linecap:butt;stroke-linejoin:miter;stroke:rgb(0%,0%,0%);stroke-opacity:1;stroke-miterlimit:10;" d="M 45.351562 -12.450656 L 51.021205 -12.450656 L 51.021205 -18.120298 L 45.351562 -18.120298 Z M 45.351562 -12.450656 " transform="matrix(0.7,0,0,0.7,57,433.07874)"/>
<path style="fill:none;stroke-width:0.801759;stroke-linecap:butt;stroke-linejoin:miter;stroke:rgb(0%,0%,0%);stroke-opacity:1;stroke-miterlimit:10;" d="M 51.021205 -12.450656 L 56.690848 -12.450656 L 56.690848 -18.120298 L 51.021205 -18.120298 Z M 51.021205 -12.450656 " transform="matrix(0.7,0,0,0.7,57,433.07874)"/>
<path style="fill:none;stroke-width:0.801759;stroke-linecap:butt;stroke-linejoin:miter;stroke:rgb(0%,0%,0%);stroke-opacity:1;stroke-miterlimit:10;" d="M 45.351562 -18.120298 L 51.021205 -18.120298 L 51.021205 -23.789941 L 45.351562 -23.789941 Z M 45.351562 -18.120298 " transform="matrix(0.7,0,0,0.7,57,433.07874)"/>
<path style=" stroke:none;fill-rule:nonzero;fill:rgb(0%,0%,0%);fill-opacity:1;" d="M 93.707031 412.457031 C 93.707031 411.136719 91.722656 411.136719 91.722656 412.457031 C 91.722656 413.78125 93.707031 413.78125 93.707031 412.457031 Z M 93.707031 412.457031 "/>
<path style="fill:none;stroke-width:0.801759;stroke-linecap:butt;stroke-linejoin:miter;stroke:rgb(0%,0%,0%);stroke-opacity:1;stroke-miterlimit:10;" d="M 59.52567 -41.909361 L 65.195313 -41.909361 L 65.195313 -47.579004 L 59.52567 -47.579004 Z M 59.52567 -41.909361 " transform="matrix(0.7,0,0,0.7,57,433.07874)"/>
<path style="fill:none;stroke-width:0.801759;stroke-linecap:butt;stroke-linejoin:miter;stroke:rgb(0%,0%,0%);stroke-opacity:1;stroke-miterlimit:10;" d="M 65.195313 -41.909361 L 70.864955 -41.909361 L 70.864955 -47.579004 L 65.195313 -47.579004 Z M 65.195313 -41.909361 " transform="matrix(0.7,0,0,0.7,57,433.07874)"/>
<path style="fill:none;stroke-width:0.801759;stroke-linecap:butt;stroke-linejoin:miter;stroke:rgb(0%,0%,0%);stroke-opacity:1;stroke-miterlimit:10;" d="M 70.864955 -41.909361 L 76.534598 -41.909361 L 76.534598 -47.579004 L 70.864955 -47.579004 Z M 70.864955 -41.909361 " transform="matrix(0.7,0,0,0.7,57,433.07874)"/>
<path style="fill:none;stroke-width:0.801759;stroke-linecap:butt;stroke-linejoin:miter;stroke:rgb(0%,0%,0%);stroke-opacity:1;stroke-miterlimit:10;" d="M 59.52567 -47.579004 L 65.195313 -47.579004 L 65.195313 -53.248647 L 59.52567 -53.248647 Z M 59.52567 -47.579004 " transform="matrix(0.7,0,0,0.7,57,433.07874)"/>
<path style="fill:none;stroke-width:0.801759;stroke-linecap:butt;stroke-linejoin:miter;stroke:rgb(0%,0%,0%);stroke-opacity:1;stroke-miterlimit:10;" d="M 65.195313 -47.579004 L 70.864955 -47.579004 L 70.864955 -53.248647 L 65.195313 -53.248647 Z M 65.195313 -47.579004 " transform="matrix(0.7,0,0,0.7,57,433.07874)"/>
<path style=" stroke:none;fill-rule:nonzero;fill:rgb(0%,0%,0%);fill-opacity:1;" d="M 105.613281 391.835938 C 105.613281 390.515625 103.628906 390.515625 103.628906 391.835938 C 103.628906 393.160156 105.613281 393.160156 105.613281 391.835938 Z M 105.613281 391.835938 "/>
<path style="fill:none;stroke-width:0.801759;stroke-linecap:butt;stroke-linejoin:miter;stroke:rgb(0%,0%,0%);stroke-opacity:1;stroke-miterlimit:10;" d="M 73.699777 -71.368066 L 79.36942 -71.368066 L 79.36942 -77.037709 L 73.699777 -77.037709 Z M 73.699777 -71.368066 " transform="matrix(0.7,0,0,0.7,57,433.07874)"/>
<path style="fill:none;stroke-width:0.801759;stroke-linecap:butt;stroke-linejoin:miter;stroke:rgb(0%,0%,0%);stroke-opacity:1;stroke-miterlimit:10;" d="M 79.36942 -71.368066 L 85.039063 -71.368066 L 85.039063 -77.037709 L 79.36942 -77.037709 Z M 79.36942 -71.368066 " transform="matrix(0.7,0,0,0.7,57,433.07874)"/>
<path style="fill:none;stroke-width:0.801759;stroke-linecap:butt;stroke-linejoin:miter;stroke:rgb(0%,0%,0%);stroke-opacity:1;stroke-miterlimit:10;" d="M 85.039063 -71.368066 L 90.708705 -71.368066 L 90.708705 -77.037709 L 85.039063 -77.037709 Z M 85.039063 -71.368066 " transform="matrix(0.7,0,0,0.7,57,433.07874)"/>
<path style="fill:none;stroke-width:0.801759;stroke-linecap:butt;stroke-linejoin:miter;stroke:rgb(0%,0%,0%);stroke-opacity:1;stroke-miterlimit:10;" d="M 90.708705 -71.368066 L 96.378348 -71.368066 L 96.378348 -77.037709 L 90.708705 -77.037709 Z M 90.708705 -71.368066 " transform="matrix(0.7,0,0,0.7,57,433.07874)"/>
<path style="fill:none;stroke-width:0.801759;stroke-linecap:butt;stroke-linejoin:miter;stroke:rgb(0%,0%,0%);stroke-opacity:1;stroke-miterlimit:10;" d="M 73.699777 -77.037709 L 79.36942 -77.037709 L 79.36942 -82.707352 L 73.699777 -82.707352 Z M 73.699777 -77.037709 " transform="matrix(0.7,0,0,0.7,57,433.07874)"/>
<path style="fill:none;stroke-width:0.801759;stroke-linecap:butt;stroke-linejoin:miter;stroke:rgb(0%,0%,0%);stroke-opacity:1;stroke-miterlimit:10;" d="M 79.36942 -77.037709 L 85.039063 -77.037709 L 85.039063 -82.707352 L 79.36942 -82.707352 Z M 79.36942 -77.037709 " transform="matrix(0.7,0,0,0.7,57,433.07874)"/>
<path style="fill:none;stroke-width:0.801759;stroke-linecap:butt;stroke-linejoin:miter;stroke:rgb(0%,0%,0%);stroke-opacity:1;stroke-miterlimit:10;" d="M 85.039063 -77.037709 L 90.708705 -77.037709 L 90.708705 -82.707352 L 85.039063 -82.707352 Z M 85.039063 -77.037709 " transform="matrix(0.7,0,0,0.7,57,433.07874)"/>
<path style=" stroke:none;fill-rule:nonzero;fill:rgb(0%,0%,0%);fill-opacity:1;" d="M 117.519531 371.214844 C 117.519531 369.894531 115.535156 369.894531 115.535156 371.214844 C 115.535156 372.539062 117.519531 372.539062 117.519531 371.214844 Z M 117.519531 371.214844 "/>
<path style="fill:none;stroke-width:0.801759;stroke-linecap:butt;stroke-linejoin:miter;stroke:rgb(0%,0%,0%);stroke-opacity:1;stroke-miterlimit:10;" d="M 87.873884 -100.826772 L 93.543527 -100.826772 L 93.543527 -106.496415 L 87.873884 -106.496415 Z M 87.873884 -100.826772 " transform="matrix(0.7,0,0,0.7,57,433.07874)"/>
<path style="fill:none;stroke-width:0.801759;stroke-linecap:butt;stroke-linejoin:miter;stroke:rgb(0%,0%,0%);stroke-opacity:1;stroke-miterlimit:10;" d="M 93.543527 -100.826772 L 99.21317 -100.826772 L 99.21317 -106.496415 L 93.543527 -106.496415 Z M 93.543527 -100.826772 " transform="matrix(0.7,0,0,0.7,57,433.07874)"/>
<path style="fill:none;stroke-width:0.801759;stroke-linecap:butt;stroke-linejoin:miter;stroke:rgb(0%,0%,0%);stroke-opacity:1;stroke-miterlimit:10;" d="M 99.21317 -100.826772 L 104.882813 -100.826772 L 104.882813 -106.496415 L 99.21317 -106.496415 Z M 99.21317 -100.826772 " transform="matrix(0.7,0,0,0.7,57,433.07874)"/>
<path style="fill:none;stroke-width:0.801759;stroke-linecap:butt;stroke-linejoin:miter;stroke:rgb(0%,0%,0%);stroke-opacity:1;stroke-miterlimit:10;" d="M 104.882813 -100.826772 L 110.552455 -100.826772 L 110.552455 -106.496415 L 104.882813 -106.496415 Z M 104.882813 -100.826772 " transform="matrix(0.7,0,0,0.7,57,433.07874)"/>
<path style="fill:none;stroke-width:0.801759;stroke-linecap:butt;stroke-linejoin:miter;stroke:rgb(0%,0%,0%);stroke-opacity:1;stroke-miterlimit:10;" d="M 110.552455 -100.826772 L 116.222098 -100.826772 L 116.222098 -106.496415 L 110.552455 -106.496415 Z M 110.552455 -100.826772 " transform="matrix(0.7,0,0,0.7,57,433.07874)"/>
<path style="fill:none;stroke-width:0.801759;stroke-linecap:butt;stroke-linejoin:miter;stroke:rgb(0%,0%,0%);stroke-opacity:1;stroke-miterlimit:10;" d="M 87.873884 -106.496415 L 93.543527 -106.496415 L 93.543527 -112.166057 L 87.873884 -112.166057 Z M 87.873884 -106.496415 " transform="matrix(0.7,0,0,0.7,57,433.07874)"/>
<path style="fill:none;stroke-width:0.801759;stroke-linecap:butt;stroke-linejoin:miter;stroke:rgb(0%,0%,0%);stroke-opacity:1;stroke-miterlimit:10;" d="M 93.543527 -106.496415 L 99.21317 -106.496415 L 99.21317 -112.166057 L 93.543527 -112.166057 Z M 93.543527 -106.496415 " transform="matrix(0.7,0,0,0.7,57,433.07874)"/>
<path style="fill:none;stroke-width:0.801759;stroke-linecap:butt;stroke-linejoin:miter;stroke:rgb(0%,0%,0%);stroke-opacity:1;stroke-miterlimit:10;" d="M 99.21317 -106.496415 L 104.882813 -106.496415 L 104.882813 -112.166057 L 99.21317 -112.166057 Z M 99.21317 -106.496415 " transform="matrix(0.7,0,0,0.7,57,433.07874)"/>
<path style="fill:none;stroke-width:0.801759;stroke-linecap:butt;stroke-linejoin:miter;stroke:rgb(0%,0%,0%);stroke-opacity:1;stroke-miterlimit:10;" d="M 104.882813 -106.496415 L 110.552455 -106.496415 L 110.552455 -112.166057 L 104.882813 -112.166057 Z M 104.882813 -106.496415 " transform="matrix(0.7,0,0,0.7,57,433.07874)"/>
<path style=" stroke:none;fill-rule:nonzero;fill:rgb(0%,0%,0%);fill-opacity:1;" d="M 129.425781 350.59375 C 129.425781 349.273438 127.441406 349.273438 127.441406 350.59375 C 127.441406 351.917969 129.425781 351.917969 129.425781 350.59375 Z M 129.425781 350.59375 "/>
<path style="fill:none;stroke-width:0.801759;stroke-linecap:butt;stroke-linejoin:miter;stroke:rgb(0%,0%,0%);stroke-opacity:1;stroke-miterlimit:10;" d="M 62.360491 11.338407 L 68.030134 11.338407 L 68.030134 5.668764 L 62.360491 5.668764 Z M 62.360491 11.338407 " transform="matrix(0.7,0,0,0.7,57,433.07874)"/>
<path style="fill:none;stroke-width:0.801759;stroke-linecap:butt;stroke-linejoin:miter;stroke:rgb(0%,0%,0%);stroke-opacity:1;stroke-miterlimit:10;" d="M 68.030134 11.338407 L 73.699777 11.338407 L 73.699777 5.668764 L 68.030134 5.668764 Z M 68.030134 11.338407 " transform="matrix(0.7,0,0,0.7,57,433.07874)"/>
<path style=" stroke:none;fill-rule:nonzero;fill:rgb(0%,0%,0%);fill-opacity:1;" d="M 105.613281 433.078125 C 105.613281 431.757812 103.628906 431.757812 103.628906 433.078125 C 103.628906 434.402344 105.613281 434.402344 105.613281 433.078125 Z M 105.613281 433.078125 "/>
<path style="fill:none;stroke-width:0.801759;stroke-linecap:butt;stroke-linejoin:miter;stroke:rgb(0%,0%,0%);stroke-opacity:1;stroke-miterlimit:10;" d="M 76.534598 -12.450656 L 82.204241 -12.450656 L 82.204241 -18.120298 L 76.534598 -18.120298 Z M 76.534598 -12.450656 " transform="matrix(0.7,0,0,0.7,57,433.07874)"/>
<path style="fill:none;stroke-width:0.801759;stroke-linecap:butt;stroke-linejoin:miter;stroke:rgb(0%,0%,0%);stroke-opacity:1;stroke-miterlimit:10;" d="M 82.204241 -12.450656 L 87.873884 -12.450656 L 87.873884 -18.120298 L 82.204241 -18.120298 Z M 82.204241 -12.450656 " transform="matrix(0.7,0,0,0.7,57,433.07874)"/>
<path style="fill:none;stroke-width:0.801759;stroke-linecap:butt;stroke-linejoin:miter;stroke:rgb(0%,0%,0%);stroke-opacity:1;stroke-miterlimit:10;" d="M 87.873884 -12.450656 L 93.543527 -12.450656 L 93.543527 -18.120298 L 87.873884 -18.120298 Z M 87.873884 -12.450656 " transform="matrix(0.7,0,0,0.7,57,433.07874)"/>
<path style="fill:none;stroke-width:0.801759;stroke-linecap:butt;stroke-linejoin:miter;stroke:rgb(0%,0%,0%);stroke-opacity:1;stroke-miterlimit:10;" d="M 76.534598 -18.120298 L 82.204241 -18.120298 L 82.204241 -23.789941 L 76.534598 -23.789941 Z M 76.534598 -18.120298 " transform="matrix(0.7,0,0,0.7,57,433.07874)"/>
<path style=" stroke:none;fill-rule:nonzero;fill:rgb(0%,0%,0%);fill-opacity:1;" d="M 117.519531 412.457031 C 117.519531 411.136719 115.535156 411.136719 115.535156 412.457031 C 115.535156 413.78125 117.519531 413.78125 117.519531 412.457031 Z M 117.519531 412.457031 "/>
<path style="fill:none;stroke-width:0.801759;stroke-linecap:butt;stroke-linejoin:miter;stroke:rgb(0%,0%,0%);stroke-opacity:1;stroke-miterlimit:10;" d="M 90.708705 -41.909361 L 96.378348 -41.909361 L 96.378348 -47.579004 L 90.708705 -47.579004 Z M 90.708705 -41.909361 " transform="matrix(0.7,0,0,0.7,57,433.07874)"/>
<path style="fill:none;stroke-width:0.801759;stroke-linecap:butt;stroke-linejoin:miter;stroke:rgb(0%,0%,0%);stroke-opacity:1;stroke-miterlimit:10;" d="M 96.378348 -41.909361 L 102.047991 -41.909361 L 102.047991 -47.579004 L 96.378348 -47.579004 Z M 96.378348 -41.909361 " transform="matrix(0.7,0,0,0.7,57,433.07874)"/>
<path style="fill:none;stroke-width:0.801759;stroke-linecap:butt;stroke-linejoin:miter;stroke:rgb(0%,0%,0%);stroke-opacity:1;stroke-miterlimit:10;" d="M 102.047991 -41.909361 L 107.717634 -41.909361 L 107.717634 -47.579004 L 102.047991 -47.579004 Z M 102.047991 -41.909361 " transform="matrix(0.7,0,0,0.7,57,433.07874)"/>
<path style="fill:none;stroke-width:0.801759;stroke-linecap:butt;stroke-linejoin:miter;stroke:rgb(0%,0%,0%);stroke-opacity:1;stroke-miterlimit:10;" d="M 107.717634 -41.909361 L 113.387277 -41.909361 L 113.387277 -47.579004 L 107.717634 -47.579004 Z M 107.717634 -41.909361 " transform="matrix(0.7,0,0,0.7,57,433.07874)"/>
<path style="fill:none;stroke-width:0.801759;stroke-linecap:butt;stroke-linejoin:miter;stroke:rgb(0%,0%,0%);stroke-opacity:1;stroke-miterlimit:10;" d="M 90.708705 -47.579004 L 96.378348 -47.579004 L 96.378348 -53.248647 L 90.708705 -53.248647 Z M 90.708705 -47.579004 " transform="matrix(0.7,0,0,0.7,57,433.07874)"/>
<path style="fill:none;stroke-width:0.801759;stroke-linecap:butt;stroke-linejoin:miter;stroke:rgb(0%,0%,0%);stroke-opacity:1;stroke-miterlimit:10;" d="M 96.378348 -47.579004 L 102.047991 -47.579004 L 102.047991 -53.248647 L 96.378348 -53.248647 Z M 96.378348 -47.579004 " transform="matrix(0.7,0,0,0.7,57,433.07874)"/>
<path style=" stroke:none;fill-rule:nonzero;fill:rgb(0%,0%,0%);fill-opacity:1;" d="M 129.425781 391.835938 C 129.425781 390.515625 127.441406 390.515625 127.441406 391.835938 C 127.441406 393.160156 129.425781 393.160156 129.425781 391.835938 Z M 129.425781 391.835938 "/>
<path style="fill:none;stroke-width:0.801759;stroke-linecap:butt;stroke-linejoin:miter;stroke:rgb(0%,0%,0%);stroke-opacity:1;stroke-miterlimit:10;" d="M 104.882813 -71.368066 L 110.552455 -71.368066 L 110.552455 -77.037709 L 104.882813 -77.037709 Z M 104.882813 -71.368066 " transform="matrix(0.7,0,0,0.7,57,433.07874)"/>
<path style="fill:none;stroke-width:0.801759;stroke-linecap:butt;stroke-linejoin:miter;stroke:rgb(0%,0%,0%);stroke-opacity:1;stroke-miterlimit:10;" d="M 110.552455 -71.368066 L 116.222098 -71.368066 L 116.222098 -77.037709 L 110.552455 -77.037709 Z M 110.552455 -71.368066 " transform="matrix(0.7,0,0,0.7,57,433.07874)"/>
<path style="fill:none;stroke-width:0.801759;stroke-linecap:butt;stroke-linejoin:miter;stroke:rgb(0%,0%,0%);stroke-opacity:1;stroke-miterlimit:10;" d="M 116.222098 -71.368066 L 121.891741 -71.368066 L 121.891741 -77.037709 L 116.222098 -77.037709 Z M 116.222098 -71.368066 " transform="matrix(0.7,0,0,0.7,57,433.07874)"/>
<path style="fill:none;stroke-width:0.801759;stroke-linecap:butt;stroke-linejoin:miter;stroke:rgb(0%,0%,0%);stroke-opacity:1;stroke-miterlimit:10;" d="M 121.891741 -71.368066 L 127.561384 -71.368066 L 127.561384 -77.037709 L 121.891741 -77.037709 Z M 121.891741 -71.368066 " transform="matrix(0.7,0,0,0.7,57,433.07874)"/>
<path style="fill:none;stroke-width:0.801759;stroke-linecap:butt;stroke-linejoin:miter;stroke:rgb(0%,0%,0%);stroke-opacity:1;stroke-miterlimit:10;" d="M 127.561384 -71.368066 L 133.231027 -71.368066 L 133.231027 -77.037709 L 127.561384 -77.037709 Z M 127.561384 -71.368066 " transform="matrix(0.7,0,0,0.7,57,433.07874)"/>
<path style="fill:none;stroke-width:0.801759;stroke-linecap:butt;stroke-linejoin:miter;stroke:rgb(0%,0%,0%);stroke-opacity:1;stroke-miterlimit:10;" d="M 104.882813 -77.037709 L 110.552455 -77.037709 L 110.552455 -82.707352 L 104.882813 -82.707352 Z M 104.882813 -77.037709 " transform="matrix(0.7,0,0,0.7,57,433.07874)"/>
<path style="fill:none;stroke-width:0.801759;stroke-linecap:butt;stroke-linejoin:miter;stroke:rgb(0%,0%,0%);stroke-opacity:1;stroke-miterlimit:10;" d="M 110.552455 -77.037709 L 116.222098 -77.037709 L 116.222098 -82.707352 L 110.552455 -82.707352 Z M 110.552455 -77.037709 " transform="matrix(0.7,0,0,0.7,57,433.07874)"/>
<path style="fill:none;stroke-width:0.801759;stroke-linecap:butt;stroke-linejoin:miter;stroke:rgb(0%,0%,0%);stroke-opacity:1;stroke-miterlimit:10;" d="M 116.222098 -77.037709 L 121.891741 -77.037709 L 121.891741 -82.707352 L 116.222098 -82.707352 Z M 116.222098 -77.037709 " transform="matrix(0.7,0,0,0.7,57,433.07874)"/>
<path style=" stroke:none;fill-rule:nonzero;fill:rgb(0%,0%,0%);fill-opacity:1;" d="M 141.332031 371.214844 C 141.332031 369.894531 139.347656 369.894531 139.347656 371.214844 C 139.347656 372.539062 141.332031 372.539062 141.332031 371.214844 Z M 141.332031 371.214844 "/>
<path style="fill:none;stroke-width:0.801759;stroke-linecap:butt;stroke-linejoin:miter;stroke:rgb(0%,0%,0%);stroke-opacity:1;stroke-miterlimit:10;" d="M 93.543527 11.338407 L 99.21317 11.338407 L 99.21317 5.668764 L 93.543527 5.668764 Z M 93.543527 11.338407 " transform="matrix(0.7,0,0,0.7,57,433.07874)"/>
<path style="fill:none;stroke-width:0.801759;stroke-linecap:butt;stroke-linejoin:miter;stroke:rgb(0%,0%,0%);stroke-opacity:1;stroke-miterlimit:10;" d="M 99.21317 11.338407 L 104.882813 11.338407 L 104.882813 5.668764 L 99.21317 5.668764 Z M 99.21317 11.338407 " transform="matrix(0.7,0,0,0.7,57,433.07874)"/>
<path style="fill:none;stroke-width:0.801759;stroke-linecap:butt;stroke-linejoin:miter;stroke:rgb(0%,0%,0%);stroke-opacity:1;stroke-miterlimit:10;" d="M 104.882813 11.338407 L 110.552455 11.338407 L 110.552455 5.668764 L 104.882813 5.668764 Z M 104.882813 11.338407 " transform="matrix(0.7,0,0,0.7,57,433.07874)"/>
<path style=" stroke:none;fill-rule:nonzero;fill:rgb(0%,0%,0%);fill-opacity:1;" d="M 129.425781 433.078125 C 129.425781 431.757812 127.441406 431.757812 127.441406 433.078125 C 127.441406 434.402344 129.425781 434.402344 129.425781 433.078125 Z M 129.425781 433.078125 "/>
<path style="fill:none;stroke-width:0.801759;stroke-linecap:butt;stroke-linejoin:miter;stroke:rgb(0%,0%,0%);stroke-opacity:1;stroke-miterlimit:10;" d="M 107.717634 -12.450656 L 113.387277 -12.450656 L 113.387277 -18.120298 L 107.717634 -18.120298 Z M 107.717634 -12.450656 " transform="matrix(0.7,0,0,0.7,57,433.07874)"/>
<path style="fill:none;stroke-width:0.801759;stroke-linecap:butt;stroke-linejoin:miter;stroke:rgb(0%,0%,0%);stroke-opacity:1;stroke-miterlimit:10;" d="M 113.387277 -12.450656 L 119.05692 -12.450656 L 119.05692 -18.120298 L 113.387277 -18.120298 Z M 113.387277 -12.450656 " transform="matrix(0.7,0,0,0.7,57,433.07874)"/>
<path style="fill:none;stroke-width:0.801759;stroke-linecap:butt;stroke-linejoin:miter;stroke:rgb(0%,0%,0%);stroke-opacity:1;stroke-miterlimit:10;" d="M 119.05692 -12.450656 L 124.726563 -12.450656 L 124.726563 -18.120298 L 119.05692 -18.120298 Z M 119.05692 -12.450656 " transform="matrix(0.7,0,0,0.7,57,433.07874)"/>
<path style="fill:none;stroke-width:0.801759;stroke-linecap:butt;stroke-linejoin:miter;stroke:rgb(0%,0%,0%);stroke-opacity:1;stroke-miterlimit:10;" d="M 124.726563 -12.450656 L 130.396205 -12.450656 L 130.396205 -18.120298 L 124.726563 -18.120298 Z M 124.726563 -12.450656 " transform="matrix(0.7,0,0,0.7,57,433.07874)"/>
<path style="fill:none;stroke-width:0.801759;stroke-linecap:butt;stroke-linejoin:miter;stroke:rgb(0%,0%,0%);stroke-opacity:1;stroke-miterlimit:10;" d="M 107.717634 -18.120298 L 113.387277 -18.120298 L 113.387277 -23.789941 L 107.717634 -23.789941 Z M 107.717634 -18.120298 " transform="matrix(0.7,0,0,0.7,57,433.07874)"/>
<path style=" stroke:none;fill-rule:nonzero;fill:rgb(0%,0%,0%);fill-opacity:1;" d="M 141.332031 412.457031 C 141.332031 411.136719 139.347656 411.136719 139.347656 412.457031 C 139.347656 413.78125 141.332031 413.78125 141.332031 412.457031 Z M 141.332031 412.457031 "/>
<path style="fill:none;stroke-width:0.801759;stroke-linecap:butt;stroke-linejoin:miter;stroke:rgb(0%,0%,0%);stroke-opacity:1;stroke-miterlimit:10;" d="M 121.891741 -41.909361 L 127.561384 -41.909361 L 127.561384 -47.579004 L 121.891741 -47.579004 Z M 121.891741 -41.909361 " transform="matrix(0.7,0,0,0.7,57,433.07874)"/>
<path style="fill:none;stroke-width:0.801759;stroke-linecap:butt;stroke-linejoin:miter;stroke:rgb(0%,0%,0%);stroke-opacity:1;stroke-miterlimit:10;" d="M 127.561384 -41.909361 L 133.231027 -41.909361 L 133.231027 -47.579004 L 127.561384 -47.579004 Z M 127.561384 -41.909361 " transform="matrix(0.7,0,0,0.7,57,433.07874)"/>
<path style="fill:none;stroke-width:0.801759;stroke-linecap:butt;stroke-linejoin:miter;stroke:rgb(0%,0%,0%);stroke-opacity:1;stroke-miterlimit:10;" d="M 133.231027 -41.909361 L 138.895089 -41.909361 L 138.895089 -47.579004 L 133.231027 -47.579004 Z M 133.231027 -41.909361 " transform="matrix(0.7,0,0,0.7,57,433.07874)"/>
<path style="fill:none;stroke-width:0.801759;stroke-linecap:butt;stroke-linejoin:miter;stroke:rgb(0%,0%,0%);stroke-opacity:1;stroke-miterlimit:10;" d="M 138.895089 -41.909361 L 144.564732 -41.909361 L 144.564732 -47.579004 L 138.895089 -47.579004 Z M 138.895089 -41.909361 " transform="matrix(0.7,0,0,0.7,57,433.07874)"/>
<path style="fill:none;stroke-width:0.801759;stroke-linecap:butt;stroke-linejoin:miter;stroke:rgb(0%,0%,0%);stroke-opacity:1;stroke-miterlimit:10;" d="M 144.564732 -41.909361 L 150.234375 -41.909361 L 150.234375 -47.579004 L 144.564732 -47.579004 Z M 144.564732 -41.909361 " transform="matrix(0.7,0,0,0.7,57,433.07874)"/>
<path style="fill:none;stroke-width:0.801759;stroke-linecap:butt;stroke-linejoin:miter;stroke:rgb(0%,0%,0%);stroke-opacity:1;stroke-miterlimit:10;" d="M 121.891741 -47.579004 L 127.561384 -47.579004 L 127.561384 -53.248647 L 121.891741 -53.248647 Z M 121.891741 -47.579004 " transform="matrix(0.7,0,0,0.7,57,433.07874)"/>
<path style="fill:none;stroke-width:0.801759;stroke-linecap:butt;stroke-linejoin:miter;stroke:rgb(0%,0%,0%);stroke-opacity:1;stroke-miterlimit:10;" d="M 127.561384 -47.579004 L 133.231027 -47.579004 L 133.231027 -53.248647 L 127.561384 -53.248647 Z M 127.561384 -47.579004 " transform="matrix(0.7,0,0,0.7,57,433.07874)"/>
<path style=" stroke:none;fill-rule:nonzero;fill:rgb(0%,0%,0%);fill-opacity:1;" d="M 153.234375 391.835938 C 153.234375 390.515625 151.253906 390.515625 151.253906 391.835938 C 151.253906 393.160156 153.234375 393.160156 153.234375 391.835938 Z M 153.234375 391.835938 "/>
<path style="fill:none;stroke-width:0.801759;stroke-linecap:butt;stroke-linejoin:miter;stroke:rgb(0%,0%,0%);stroke-opacity:1;stroke-miterlimit:10;" d="M 124.726563 11.338407 L 130.396205 11.338407 L 130.396205 5.668764 L 124.726563 5.668764 Z M 124.726563 11.338407 " transform="matrix(0.7,0,0,0.7,57,433.07874)"/>
<path style="fill:none;stroke-width:0.801759;stroke-linecap:butt;stroke-linejoin:miter;stroke:rgb(0%,0%,0%);stroke-opacity:1;stroke-miterlimit:10;" d="M 130.396205 11.338407 L 136.060268 11.338407 L 136.060268 5.668764 L 130.396205 5.668764 Z M 130.396205 11.338407 " transform="matrix(0.7,0,0,0.7,57,433.07874)"/>
<path style="fill:none;stroke-width:0.801759;stroke-linecap:butt;stroke-linejoin:miter;stroke:rgb(0%,0%,0%);stroke-opacity:1;stroke-miterlimit:10;" d="M 136.060268 11.338407 L 141.729911 11.338407 L 141.729911 5.668764 L 136.060268 5.668764 Z M 136.060268 11.338407 " transform="matrix(0.7,0,0,0.7,57,433.07874)"/>
<path style="fill:none;stroke-width:0.801759;stroke-linecap:butt;stroke-linejoin:miter;stroke:rgb(0%,0%,0%);stroke-opacity:1;stroke-miterlimit:10;" d="M 141.729911 11.338407 L 147.399554 11.338407 L 147.399554 5.668764 L 141.729911 5.668764 Z M 141.729911 11.338407 " transform="matrix(0.7,0,0,0.7,57,433.07874)"/>
<path style=" stroke:none;fill-rule:nonzero;fill:rgb(0%,0%,0%);fill-opacity:1;" d="M 153.234375 433.078125 C 153.234375 431.757812 151.253906 431.757812 151.253906 433.078125 C 151.253906 434.402344 153.234375 434.402344 153.234375 433.078125 Z M 153.234375 433.078125 "/>
<path style="fill:none;stroke-width:0.801759;stroke-linecap:butt;stroke-linejoin:miter;stroke:rgb(0%,0%,0%);stroke-opacity:1;stroke-miterlimit:10;" d="M 138.895089 -12.450656 L 144.564732 -12.450656 L 144.564732 -18.120298 L 138.895089 -18.120298 Z M 138.895089 -12.450656 " transform="matrix(0.7,0,0,0.7,57,433.07874)"/>
<path style="fill:none;stroke-width:0.801759;stroke-linecap:butt;stroke-linejoin:miter;stroke:rgb(0%,0%,0%);stroke-opacity:1;stroke-miterlimit:10;" d="M 144.564732 -12.450656 L 150.234375 -12.450656 L 150.234375 -18.120298 L 144.564732 -18.120298 Z M 144.564732 -12.450656 " transform="matrix(0.7,0,0,0.7,57,433.07874)"/>
<path style="fill:none;stroke-width:0.801759;stroke-linecap:butt;stroke-linejoin:miter;stroke:rgb(0%,0%,0%);stroke-opacity:1;stroke-miterlimit:10;" d="M 150.234375 -12.450656 L 155.904018 -12.450656 L 155.904018 -18.120298 L 150.234375 -18.120298 Z M 150.234375 -12.450656 " transform="matrix(0.7,0,0,0.7,57,433.07874)"/>
<path style="fill:none;stroke-width:0.801759;stroke-linecap:butt;stroke-linejoin:miter;stroke:rgb(0%,0%,0%);stroke-opacity:1;stroke-miterlimit:10;" d="M 155.904018 -12.450656 L 161.573661 -12.450656 L 161.573661 -18.120298 L 155.904018 -18.120298 Z M 155.904018 -12.450656 " transform="matrix(0.7,0,0,0.7,57,433.07874)"/>
<path style="fill:none;stroke-width:0.801759;stroke-linecap:butt;stroke-linejoin:miter;stroke:rgb(0%,0%,0%);stroke-opacity:1;stroke-miterlimit:10;" d="M 161.573661 -12.450656 L 167.243304 -12.450656 L 167.243304 -18.120298 L 161.573661 -18.120298 Z M 161.573661 -12.450656 " transform="matrix(0.7,0,0,0.7,57,433.07874)"/>
<path style="fill:none;stroke-width:0.801759;stroke-linecap:butt;stroke-linejoin:miter;stroke:rgb(0%,0%,0%);stroke-opacity:1;stroke-miterlimit:10;" d="M 138.895089 -18.120298 L 144.564732 -18.120298 L 144.564732 -23.789941 L 138.895089 -23.789941 Z M 138.895089 -18.120298 " transform="matrix(0.7,0,0,0.7,57,433.07874)"/>
<path style=" stroke:none;fill-rule:nonzero;fill:rgb(0%,0%,0%);fill-opacity:1;" d="M 165.140625 412.457031 C 165.140625 411.136719 163.15625 411.136719 163.15625 412.457031 C 163.15625 413.78125 165.140625 413.78125 165.140625 412.457031 Z M 165.140625 412.457031 "/>
<path style="fill:none;stroke-width:0.801759;stroke-linecap:butt;stroke-linejoin:miter;stroke:rgb(0%,0%,0%);stroke-opacity:1;stroke-miterlimit:10;" d="M 155.904018 11.338407 L 161.573661 11.338407 L 161.573661 5.668764 L 155.904018 5.668764 Z M 155.904018 11.338407 " transform="matrix(0.7,0,0,0.7,57,433.07874)"/>
<path style="fill:none;stroke-width:0.801759;stroke-linecap:butt;stroke-linejoin:miter;stroke:rgb(0%,0%,0%);stroke-opacity:1;stroke-miterlimit:10;" d="M 161.573661 11.338407 L 167.243304 11.338407 L 167.243304 5.668764 L 161.573661 5.668764 Z M 161.573661 11.338407 " transform="matrix(0.7,0,0,0.7,57,433.07874)"/>
<path style="fill:none;stroke-width:0.801759;stroke-linecap:butt;stroke-linejoin:miter;stroke:rgb(0%,0%,0%);stroke-opacity:1;stroke-miterlimit:10;" d="M 167.243304 11.338407 L 172.912946 11.338407 L 172.912946 5.668764 L 167.243304 5.668764 Z M 167.243304 11.338407 " transform="matrix(0.7,0,0,0.7,57,433.07874)"/>
<path style="fill:none;stroke-width:0.801759;stroke-linecap:butt;stroke-linejoin:miter;stroke:rgb(0%,0%,0%);stroke-opacity:1;stroke-miterlimit:10;" d="M 172.912946 11.338407 L 178.582589 11.338407 L 178.582589 5.668764 L 172.912946 5.668764 Z M 172.912946 11.338407 " transform="matrix(0.7,0,0,0.7,57,433.07874)"/>
<path style="fill:none;stroke-width:0.801759;stroke-linecap:butt;stroke-linejoin:miter;stroke:rgb(0%,0%,0%);stroke-opacity:1;stroke-miterlimit:10;" d="M 178.582589 11.338407 L 184.252232 11.338407 L 184.252232 5.668764 L 178.582589 5.668764 Z M 178.582589 11.338407 " transform="matrix(0.7,0,0,0.7,57,433.07874)"/>
<path style=" stroke:none;fill-rule:nonzero;fill:rgb(0%,0%,0%);fill-opacity:1;" d="M 177.046875 433.078125 C 177.046875 431.757812 175.0625 431.757812 175.0625 433.078125 C 175.0625 434.402344 177.046875 434.402344 177.046875 433.078125 Z M 177.046875 433.078125 "/>
<path style=" stroke:none;fill-rule:nonzero;fill:rgb(0%,0%,0%);fill-opacity:1;" d="M 6.667969 261.8125 C 6.808594 262.046875 7.246094 262.484375 7.371094 262.484375 C 7.464844 262.484375 7.464844 262.40625 7.464844 262.234375 L 7.464844 260.34375 C 7.464844 259.921875 7.511719 259.859375 8.214844 259.859375 L 8.214844 259.515625 C 7.808594 259.53125 7.214844 259.5625 6.886719 259.5625 C 6.449219 259.5625 5.527344 259.5625 5.121094 259.515625 L 5.121094 259.859375 L 5.480469 259.859375 C 6.464844 259.859375 6.496094 259.984375 6.496094 260.390625 L 6.496094 261.078125 C 6.496094 262.296875 5.105469 262.40625 4.808594 262.40625 C 4.089844 262.40625 1.933594 262.015625 1.933594 258.765625 C 1.933594 255.515625 4.074219 255.15625 4.730469 255.15625 C 5.902344 255.15625 6.902344 256.125 7.121094 257.734375 C 7.136719 257.890625 7.136719 257.921875 7.292969 257.921875 C 7.464844 257.921875 7.464844 257.890625 7.464844 257.65625 L 7.464844 255.078125 C 7.464844 254.890625 7.464844 254.8125 7.339844 254.8125 C 7.292969 254.8125 7.261719 254.8125 7.167969 254.9375 L 6.621094 255.75 C 6.277344 255.40625 5.683594 254.8125 4.605469 254.8125 C 2.574219 254.8125 0.808594 256.53125 0.808594 258.765625 C 0.808594 261 2.558594 262.734375 4.621094 262.734375 C 5.417969 262.734375 6.292969 262.453125 6.667969 261.8125 Z M 6.667969 261.8125 "/>
<path style=" stroke:none;fill-rule:nonzero;fill:rgb(0%,0%,0%);fill-opacity:1;" d="M 15.101562 259.6875 L 14.835938 259.6875 C 14.710938 260.796875 14.554688 262.15625 12.632812 262.15625 L 11.742188 262.15625 C 11.226562 262.15625 11.210938 262.078125 11.210938 261.71875 L 11.210938 255.90625 C 11.210938 255.546875 11.210938 255.390625 12.242188 255.390625 L 12.601562 255.390625 L 12.601562 255.046875 C 12.210938 255.078125 11.226562 255.078125 10.773438 255.078125 C 10.351562 255.078125 9.492188 255.078125 9.117188 255.046875 L 9.117188 255.390625 L 9.382812 255.390625 C 10.226562 255.390625 10.242188 255.515625 10.242188 255.90625 L 10.242188 261.65625 C 10.242188 262.046875 10.226562 262.15625 9.382812 262.15625 L 9.117188 262.15625 L 9.117188 262.5 L 14.804688 262.5 Z M 15.101562 259.6875 "/>
<path style=" stroke:none;fill-rule:nonzero;fill:rgb(0%,0%,0%);fill-opacity:1;" d="M 19.1875 265.125 C 19.1875 265.078125 19.1875 265.0625 19 264.875 C 17.640625 263.5 17.296875 261.4375 17.296875 259.78125 C 17.296875 257.875 17.703125 255.984375 19.046875 254.609375 C 19.1875 254.484375 19.1875 254.46875 19.1875 254.421875 C 19.1875 254.359375 19.140625 254.328125 19.078125 254.328125 C 18.96875 254.328125 17.984375 255.0625 17.34375 256.453125 C 16.78125 257.640625 16.65625 258.859375 16.65625 259.78125 C 16.65625 260.625 16.78125 261.9375 17.375 263.171875 C 18.03125 264.515625 18.96875 265.21875 19.078125 265.21875 C 19.140625 265.21875 19.1875 265.1875 19.1875 265.125 Z M 19.1875 265.125 "/>
<path style=" stroke:none;fill-rule:nonzero;fill:rgb(0%,0%,0%);fill-opacity:1;" d="M 22.976562 258.65625 C 23.882812 258.359375 24.507812 257.609375 24.507812 256.734375 C 24.507812 255.84375 23.554688 255.234375 22.507812 255.234375 C 21.398438 255.234375 20.570312 255.890625 20.570312 256.71875 C 20.570312 257.078125 20.820312 257.28125 21.132812 257.28125 C 21.460938 257.28125 21.679688 257.046875 21.679688 256.734375 C 21.679688 256.1875 21.179688 256.1875 21.007812 256.1875 C 21.351562 255.65625 22.070312 255.515625 22.460938 255.515625 C 22.914062 255.515625 23.507812 255.75 23.507812 256.734375 C 23.507812 256.859375 23.492188 257.5 23.195312 257.96875 C 22.867188 258.5 22.507812 258.53125 22.226562 258.546875 C 22.148438 258.546875 21.882812 258.578125 21.804688 258.578125 C 21.710938 258.578125 21.648438 258.59375 21.648438 258.703125 C 21.648438 258.828125 21.710938 258.828125 21.898438 258.828125 L 22.382812 258.828125 C 23.273438 258.828125 23.679688 259.5625 23.679688 260.640625 C 23.679688 262.125 22.929688 262.4375 22.445312 262.4375 C 21.976562 262.4375 21.164062 262.25 20.773438 261.609375 C 21.164062 261.65625 21.492188 261.421875 21.492188 261 C 21.492188 260.609375 21.210938 260.390625 20.882812 260.390625 C 20.632812 260.390625 20.273438 260.546875 20.273438 261.03125 C 20.273438 262.015625 21.289062 262.734375 22.476562 262.734375 C 23.804688 262.734375 24.804688 261.75 24.804688 260.640625 C 24.804688 259.734375 24.117188 258.890625 22.976562 258.65625 Z M 22.976562 258.65625 "/>
<path style=" stroke:none;fill-rule:nonzero;fill:rgb(0%,0%,0%);fill-opacity:1;" d="M 28.429688 259.78125 C 28.429688 258.921875 28.304688 257.609375 27.710938 256.375 C 27.054688 255.03125 26.117188 254.328125 26.007812 254.328125 C 25.945312 254.328125 25.898438 254.359375 25.898438 254.421875 C 25.898438 254.46875 25.898438 254.484375 26.101562 254.6875 C 27.164062 255.765625 27.789062 257.5 27.789062 259.78125 C 27.789062 261.640625 27.382812 263.5625 26.039062 264.9375 C 25.898438 265.0625 25.898438 265.078125 25.898438 265.125 C 25.898438 265.1875 25.945312 265.21875 26.007812 265.21875 C 26.117188 265.21875 27.101562 264.484375 27.742188 263.09375 C 28.289062 261.90625 28.429688 260.6875 28.429688 259.78125 Z M 28.429688 259.78125 "/>
<path style=" stroke:none;fill-rule:nonzero;fill:rgb(0%,0%,0%);fill-opacity:1;" d="M 4.011719 428.34375 L 2.605469 428.015625 C 1.933594 427.84375 1.511719 427.25 1.511719 426.625 C 1.511719 425.859375 2.089844 425.1875 2.949219 425.1875 C 4.761719 425.1875 5.011719 426.984375 5.074219 427.46875 C 5.089844 427.546875 5.089844 427.609375 5.199219 427.609375 C 5.339844 427.609375 5.339844 427.546875 5.339844 427.34375 L 5.339844 425.15625 C 5.339844 424.96875 5.339844 424.890625 5.230469 424.890625 C 5.152344 424.890625 5.136719 424.90625 5.058594 425.03125 L 4.683594 425.65625 C 4.355469 425.34375 3.902344 424.890625 2.933594 424.890625 C 1.730469 424.890625 0.808594 425.84375 0.808594 427 C 0.808594 427.90625 1.386719 428.703125 2.246094 429 C 2.355469 429.046875 2.917969 429.171875 3.683594 429.359375 C 3.980469 429.4375 4.292969 429.515625 4.605469 429.921875 C 4.839844 430.203125 4.949219 430.5625 4.949219 430.921875 C 4.949219 431.6875 4.402344 432.484375 3.480469 432.484375 C 3.167969 432.484375 2.339844 432.421875 1.761719 431.890625 C 1.121094 431.296875 1.089844 430.609375 1.089844 430.21875 C 1.074219 430.109375 0.980469 430.109375 0.949219 430.109375 C 0.808594 430.109375 0.808594 430.171875 0.808594 430.375 L 0.808594 432.5625 C 0.808594 432.734375 0.808594 432.8125 0.933594 432.8125 C 1.011719 432.8125 1.011719 432.796875 1.089844 432.671875 C 1.089844 432.671875 1.121094 432.625 1.480469 432.046875 C 1.824219 432.421875 2.527344 432.8125 3.496094 432.8125 C 4.761719 432.8125 5.636719 431.75 5.636719 430.546875 C 5.636719 429.453125 4.917969 428.5625 4.011719 428.34375 Z M 4.011719 428.34375 "/>
<path style=" stroke:none;fill-rule:nonzero;fill:rgb(0%,0%,0%);fill-opacity:1;" d="M 12.601562 429.765625 L 12.335938 429.765625 C 12.210938 430.875 12.054688 432.234375 10.132812 432.234375 L 9.242188 432.234375 C 8.726562 432.234375 8.710938 432.15625 8.710938 431.796875 L 8.710938 425.984375 C 8.710938 425.625 8.710938 425.46875 9.742188 425.46875 L 10.101562 425.46875 L 10.101562 425.125 C 9.710938 425.15625 8.726562 425.15625 8.273438 425.15625 C 7.851562 425.15625 6.992188 425.15625 6.617188 425.125 L 6.617188 425.46875 L 6.882812 425.46875 C 7.726562 425.46875 7.742188 425.59375 7.742188 425.984375 L 7.742188 431.734375 C 7.742188 432.125 7.726562 432.234375 6.882812 432.234375 L 6.617188 432.234375 L 6.617188 432.578125 L 12.304688 432.578125 Z M 12.601562 429.765625 "/>
<path style=" stroke:none;fill-rule:nonzero;fill:rgb(0%,0%,0%);fill-opacity:1;" d="M 16.6875 435.203125 C 16.6875 435.15625 16.6875 435.140625 16.5 434.953125 C 15.140625 433.578125 14.796875 431.515625 14.796875 429.859375 C 14.796875 427.953125 15.203125 426.0625 16.546875 424.6875 C 16.6875 424.5625 16.6875 424.546875 16.6875 424.5 C 16.6875 424.4375 16.640625 424.40625 16.578125 424.40625 C 16.46875 424.40625 15.484375 425.140625 14.84375 426.53125 C 14.28125 427.71875 14.15625 428.9375 14.15625 429.859375 C 14.15625 430.703125 14.28125 432.015625 14.875 433.25 C 15.53125 434.59375 16.46875 435.296875 16.578125 435.296875 C 16.640625 435.296875 16.6875 435.265625 16.6875 435.203125 Z M 16.6875 435.203125 "/>
<path style=" stroke:none;fill-rule:nonzero;fill:rgb(0%,0%,0%);fill-opacity:1;" d="M 20.476562 428.734375 C 21.382812 428.4375 22.007812 427.6875 22.007812 426.8125 C 22.007812 425.921875 21.054688 425.3125 20.007812 425.3125 C 18.898438 425.3125 18.070312 425.96875 18.070312 426.796875 C 18.070312 427.15625 18.320312 427.359375 18.632812 427.359375 C 18.960938 427.359375 19.179688 427.125 19.179688 426.8125 C 19.179688 426.265625 18.679688 426.265625 18.507812 426.265625 C 18.851562 425.734375 19.570312 425.59375 19.960938 425.59375 C 20.414062 425.59375 21.007812 425.828125 21.007812 426.8125 C 21.007812 426.9375 20.992188 427.578125 20.695312 428.046875 C 20.367188 428.578125 20.007812 428.609375 19.726562 428.625 C 19.648438 428.625 19.382812 428.65625 19.304688 428.65625 C 19.210938 428.65625 19.148438 428.671875 19.148438 428.78125 C 19.148438 428.90625 19.210938 428.90625 19.398438 428.90625 L 19.882812 428.90625 C 20.773438 428.90625 21.179688 429.640625 21.179688 430.71875 C 21.179688 432.203125 20.429688 432.515625 19.945312 432.515625 C 19.476562 432.515625 18.664062 432.328125 18.273438 431.6875 C 18.664062 431.734375 18.992188 431.5 18.992188 431.078125 C 18.992188 430.6875 18.710938 430.46875 18.382812 430.46875 C 18.132812 430.46875 17.773438 430.625 17.773438 431.109375 C 17.773438 432.09375 18.789062 432.8125 19.976562 432.8125 C 21.304688 432.8125 22.304688 431.828125 22.304688 430.71875 C 22.304688 429.8125 21.617188 428.96875 20.476562 428.734375 Z M 20.476562 428.734375 "/>
<path style=" stroke:none;fill-rule:nonzero;fill:rgb(0%,0%,0%);fill-opacity:1;" d="M 25.929688 429.859375 C 25.929688 429 25.804688 427.6875 25.210938 426.453125 C 24.554688 425.109375 23.617188 424.40625 23.507812 424.40625 C 23.445312 424.40625 23.398438 424.4375 23.398438 424.5 C 23.398438 424.546875 23.398438 424.5625 23.601562 424.765625 C 24.664062 425.84375 25.289062 427.578125 25.289062 429.859375 C 25.289062 431.71875 24.882812 433.640625 23.539062 435.015625 C 23.398438 435.140625 23.398438 435.15625 23.398438 435.203125 C 23.398438 435.265625 23.445312 435.296875 23.507812 435.296875 C 23.617188 435.296875 24.601562 434.5625 25.242188 433.171875 C 25.789062 431.984375 25.929688 430.765625 25.929688 429.859375 Z M 25.929688 429.859375 "/>
</g>
</svg>
