<?xml version="1.0" encoding="UTF-8"?>
<svg xmlns="http://www.w3.org/2000/svg" xmlns:xlink="http://www.w3.org/1999/xlink" width="380pt" height="21pt" viewBox="0 0 380 21" version="1.1">
<g id="surface25">
<path style="fill:none;stroke-width:0.566929;stroke-linecap:butt;stroke-linejoin:miter;stroke:rgb(0%,0%,0%);stroke-opacity:1;stroke-miterlimit:10;" d="M 0 0 L 340.15625 0 " transform="matrix(1,0,0,1,4,4)"/>
<path style="fill:none;stroke-width:0.566929;stroke-linecap:round;stroke-linejoin:round;stroke:rgb(0%,0%,0%);stroke-opacity:1;stroke-miterlimit:10;" d="M 340.15625 0 L 339.992188 -0.0703125 L 339.914062 -0.105469 L 339.832031 -0.144531 L 339.753906 -0.183594 L 339.597656 -0.269531 L 339.519531 -0.316406 L 339.371094 -0.410156 L 339.222656 -0.511719 L 339.011719 -0.675781 L 338.878906 -0.792969 L 338.8125 -0.855469 L 338.746094 -0.914062 L 338.683594 -0.976562 L 338.625 -1.042969 L 338.5625 -1.109375 L 338.445312 -1.242188 L 338.28125 -1.453125 L 338.179688 -1.601562 L 338.085938 -1.75 L 338.039062 -1.828125 L 337.953125 -1.984375 L 337.914062 -2.0625 L 337.875 -2.144531 L 337.839844 -2.222656 L 337.769531 -2.386719 L 337.738281 -2.472656 M 340.15625 0 L 339.992188 0.0703125 L 339.914062 0.105469 L 339.832031 0.144531 L 339.753906 0.183594 L 339.597656 0.269531 L 339.519531 0.316406 L 339.371094 0.410156 L 339.222656 0.511719 L 339.011719 0.675781 L 338.878906 0.792969 L 338.8125 0.855469 L 338.746094 0.914062 L 338.683594 0.976562 L 338.625 1.042969 L 338.5625 1.109375 L 338.445312 1.242188 L 338.28125 1.453125 L 338.179688 1.601562 L 338.085938 1.75 L 338.039062 1.828125 L 337.953125 1.984375 L 337.914062 2.0625 L 337.875 2.144531 L 337.839844 2.222656 L 337.769531 2.386719 L 337.738281 2.472656 " transform="matrix(1,0,0,1,4,4)"/>
<path style=" stroke:none;fill-rule:nonzero;fill:rgb(0%,0%,0%);fill-opacity:1;" d="M 5.417969 4 C 5.417969 2.109375 2.582031 2.109375 2.582031 4 C 2.582031 5.890625 5.417969 5.890625 5.417969 4 Z M 5.417969 4 "/>
<path style="fill:none;stroke-width:0.566929;stroke-linecap:butt;stroke-linejoin:miter;stroke:rgb(0%,0%,0%);stroke-opacity:1;stroke-miterlimit:10;" d="M 2.835938 0 C 2.835938 -3.78125 -2.835938 -3.78125 -2.835938 0 C -2.835938 3.78125 2.835938 3.78125 2.835938 0 Z M 2.835938 0 " transform="matrix(1,0,0,1,4,4)"/>
<path style=" stroke:none;fill-rule:nonzero;fill:rgb(0%,0%,0%);fill-opacity:1;" d="M 5.375 10.691406 C 5.375 10.675781 5.40625 10.550781 5.40625 10.550781 C 5.40625 10.535156 5.40625 10.441406 5.28125 10.441406 C 5.171875 10.441406 5.15625 10.472656 5.109375 10.660156 L 4.484375 13.175781 C 2.75 13.222656 1.140625 14.675781 1.140625 16.160156 C 1.140625 17.191406 1.90625 18.050781 3.234375 18.128906 C 3.15625 18.472656 3.078125 18.816406 2.984375 19.160156 C 2.859375 19.675781 2.75 20.082031 2.75 20.113281 C 2.75 20.222656 2.828125 20.238281 2.875 20.238281 C 2.9375 20.238281 2.953125 20.222656 2.984375 20.191406 C 3.015625 20.175781 3.078125 19.910156 3.109375 19.753906 L 3.515625 18.128906 C 5.28125 18.082031 6.859375 16.613281 6.859375 15.144531 C 6.859375 14.285156 6.28125 13.285156 4.765625 13.175781 Z M 3.296875 17.894531 C 2.640625 17.863281 1.859375 17.472656 1.859375 16.394531 C 1.859375 15.082031 2.796875 13.550781 4.421875 13.410156 Z M 4.703125 13.410156 C 5.53125 13.457031 6.15625 13.957031 6.15625 14.910156 C 6.15625 16.207031 5.21875 17.769531 3.578125 17.894531 Z M 4.703125 13.410156 "/>
<path style=" stroke:none;fill-rule:nonzero;fill:rgb(0%,0%,0%);fill-opacity:1;" d="M 90.457031 4 C 90.457031 2.109375 87.621094 2.109375 87.621094 4 C 87.621094 5.890625 90.457031 5.890625 90.457031 4 Z M 90.457031 4 "/>
<path style="fill:none;stroke-width:0.801759;stroke-linecap:butt;stroke-linejoin:miter;stroke:rgb(0%,0%,0%);stroke-opacity:1;stroke-miterlimit:10;" d="M 79.371094 14.171875 L 85.039062 14.171875 L 85.039062 8.503906 L 79.371094 8.503906 Z M 79.371094 14.171875 " transform="matrix(1,0,0,1,4,4)"/>
<path style="fill:none;stroke-width:0.801759;stroke-linecap:butt;stroke-linejoin:miter;stroke:rgb(0%,0%,0%);stroke-opacity:1;stroke-miterlimit:10;" d="M 85.039062 14.171875 L 90.707031 14.171875 L 90.707031 8.503906 L 85.039062 8.503906 Z M 85.039062 14.171875 " transform="matrix(1,0,0,1,4,4)"/>
<path style=" stroke:none;fill-rule:nonzero;fill:rgb(0%,0%,0%);fill-opacity:1;" d="M 175.496094 4 C 175.496094 2.109375 172.660156 2.109375 172.660156 4 C 172.660156 5.890625 175.496094 5.890625 175.496094 4 Z M 175.496094 4 "/>
<path style="fill:none;stroke-width:0.801759;stroke-linecap:butt;stroke-linejoin:miter;stroke:rgb(0%,0%,0%);stroke-opacity:1;stroke-miterlimit:10;" d="M 158.738281 14.171875 L 164.410156 14.171875 L 164.410156 8.503906 L 158.738281 8.503906 Z M 158.738281 14.171875 " transform="matrix(1,0,0,1,4,4)"/>
<path style="fill:none;stroke-width:0.801759;stroke-linecap:butt;stroke-linejoin:miter;stroke:rgb(0%,0%,0%);stroke-opacity:1;stroke-miterlimit:10;" d="M 164.410156 14.171875 L 170.078125 14.171875 L 170.078125 8.503906 L 164.410156 8.503906 Z M 164.410156 14.171875 " transform="matrix(1,0,0,1,4,4)"/>
<path style="fill:none;stroke-width:0.801759;stroke-linecap:butt;stroke-linejoin:miter;stroke:rgb(0%,0%,0%);stroke-opacity:1;stroke-miterlimit:10;" d="M 170.078125 14.171875 L 175.746094 14.171875 L 175.746094 8.503906 L 170.078125 8.503906 Z M 170.078125 14.171875 " transform="matrix(1,0,0,1,4,4)"/>
<path style="fill:none;stroke-width:0.801759;stroke-linecap:butt;stroke-linejoin:miter;stroke:rgb(0%,0%,0%);stroke-opacity:1;stroke-miterlimit:10;" d="M 175.746094 14.171875 L 181.417969 14.171875 L 181.417969 8.503906 L 175.746094 8.503906 Z M 175.746094 14.171875 " transform="matrix(1,0,0,1,4,4)"/>
<path style=" stroke:none;fill-rule:nonzero;fill:rgb(0%,0%,0%);fill-opacity:1;" d="M 260.535156 4 C 260.535156 2.109375 257.699219 2.109375 257.699219 4 C 257.699219 5.890625 260.535156 5.890625 260.535156 4 Z M 260.535156 4 "/>
<path style="fill:none;stroke-width:0.801759;stroke-linecap:butt;stroke-linejoin:miter;stroke:rgb(0%,0%,0%);stroke-opacity:1;stroke-miterlimit:10;" d="M 238.109375 14.171875 L 243.78125 14.171875 L 243.78125 8.503906 L 238.109375 8.503906 Z M 238.109375 14.171875 " transform="matrix(1,0,0,1,4,4)"/>
<path style="fill:none;stroke-width:0.801759;stroke-linecap:butt;stroke-linejoin:miter;stroke:rgb(0%,0%,0%);stroke-opacity:1;stroke-miterlimit:10;" d="M 243.78125 14.171875 L 249.449219 14.171875 L 249.449219 8.503906 L 243.78125 8.503906 Z M 243.78125 14.171875 " transform="matrix(1,0,0,1,4,4)"/>
<path style="fill:none;stroke-width:0.801759;stroke-linecap:butt;stroke-linejoin:miter;stroke:rgb(0%,0%,0%);stroke-opacity:1;stroke-miterlimit:10;" d="M 249.449219 14.171875 L 255.117188 14.171875 L 255.117188 8.503906 L 249.449219 8.503906 Z M 249.449219 14.171875 " transform="matrix(1,0,0,1,4,4)"/>
<path style="fill:none;stroke-width:0.801759;stroke-linecap:butt;stroke-linejoin:miter;stroke:rgb(0%,0%,0%);stroke-opacity:1;stroke-miterlimit:10;" d="M 255.117188 14.171875 L 260.789062 14.171875 L 260.789062 8.503906 L 255.117188 8.503906 Z M 255.117188 14.171875 " transform="matrix(1,0,0,1,4,4)"/>
<path style="fill:none;stroke-width:0.801759;stroke-linecap:butt;stroke-linejoin:miter;stroke:rgb(0%,0%,0%);stroke-opacity:1;stroke-miterlimit:10;" d="M 260.789062 14.171875 L 266.457031 14.171875 L 266.457031 8.503906 L 260.789062 8.503906 Z M 260.789062 14.171875 " transform="matrix(1,0,0,1,4,4)"/>
<path style="fill:none;stroke-width:0.801759;stroke-linecap:butt;stroke-linejoin:miter;stroke:rgb(0%,0%,0%);stroke-opacity:1;stroke-miterlimit:10;" d="M 266.457031 14.171875 L 272.125 14.171875 L 272.125 8.503906 L 266.457031 8.503906 Z M 266.457031 14.171875 " transform="matrix(1,0,0,1,4,4)"/>
<path style=" stroke:none;fill-rule:nonzero;fill:rgb(0%,0%,0%);fill-opacity:1;" d="M 346.75 12.054688 L 348.59375 12.054688 C 349.90625 12.054688 351.09375 11.179688 351.09375 10.085938 C 351.09375 9.023438 350 8.054688 348.515625 8.054688 L 344.65625 8.054688 L 344.65625 8.398438 L 344.921875 8.398438 C 345.765625 8.398438 345.78125 8.523438 345.78125 8.914062 L 345.78125 14.664062 C 345.78125 15.054688 345.765625 15.164062 344.921875 15.164062 L 344.65625 15.164062 L 344.65625 15.507812 C 345.046875 15.476562 345.859375 15.476562 346.265625 15.476562 C 346.6875 15.476562 347.5 15.476562 347.875 15.507812 L 347.875 15.164062 L 347.625 15.164062 C 346.78125 15.164062 346.75 15.054688 346.75 14.664062 Z M 346.71875 11.773438 L 346.71875 8.835938 C 346.71875 8.476562 346.75 8.398438 347.265625 8.398438 L 348.234375 8.398438 C 349.96875 8.398438 349.96875 9.554688 349.96875 10.085938 C 349.96875 10.601562 349.96875 11.773438 348.234375 11.773438 Z M 346.71875 11.773438 "/>
<path style=" stroke:none;fill-rule:nonzero;fill:rgb(0%,0%,0%);fill-opacity:1;" d="M 358.175781 14.820312 C 358.316406 15.054688 358.753906 15.492188 358.878906 15.492188 C 358.972656 15.492188 358.972656 15.414062 358.972656 15.242188 L 358.972656 13.351562 C 358.972656 12.929688 359.019531 12.867188 359.722656 12.867188 L 359.722656 12.523438 C 359.316406 12.539062 358.722656 12.570312 358.394531 12.570312 C 357.957031 12.570312 357.035156 12.570312 356.628906 12.523438 L 356.628906 12.867188 L 356.988281 12.867188 C 357.972656 12.867188 358.003906 12.992188 358.003906 13.398438 L 358.003906 14.085938 C 358.003906 15.304688 356.613281 15.414062 356.316406 15.414062 C 355.597656 15.414062 353.441406 15.023438 353.441406 11.773438 C 353.441406 8.523438 355.582031 8.164062 356.238281 8.164062 C 357.410156 8.164062 358.410156 9.132812 358.628906 10.742188 C 358.644531 10.898438 358.644531 10.929688 358.800781 10.929688 C 358.972656 10.929688 358.972656 10.898438 358.972656 10.664062 L 358.972656 8.085938 C 358.972656 7.898438 358.972656 7.820312 358.847656 7.820312 C 358.800781 7.820312 358.769531 7.820312 358.675781 7.945312 L 358.128906 8.757812 C 357.785156 8.414062 357.191406 7.820312 356.113281 7.820312 C 354.082031 7.820312 352.316406 9.539062 352.316406 11.773438 C 352.316406 14.007812 354.066406 15.742188 356.128906 15.742188 C 356.925781 15.742188 357.800781 15.460938 358.175781 14.820312 Z M 358.175781 14.820312 "/>
<path style=" stroke:none;fill-rule:nonzero;fill:rgb(0%,0%,0%);fill-opacity:1;" d="M 366.613281 12.695312 L 366.347656 12.695312 C 366.222656 13.804688 366.066406 15.164062 364.144531 15.164062 L 363.253906 15.164062 C 362.738281 15.164062 362.722656 15.085938 362.722656 14.726562 L 362.722656 8.914062 C 362.722656 8.554688 362.722656 8.398438 363.753906 8.398438 L 364.113281 8.398438 L 364.113281 8.054688 C 363.722656 8.085938 362.738281 8.085938 362.285156 8.085938 C 361.863281 8.085938 361.003906 8.085938 360.628906 8.054688 L 360.628906 8.398438 L 360.894531 8.398438 C 361.738281 8.398438 361.753906 8.523438 361.753906 8.914062 L 361.753906 14.664062 C 361.753906 15.054688 361.738281 15.164062 360.894531 15.164062 L 360.628906 15.164062 L 360.628906 15.507812 L 366.316406 15.507812 Z M 366.613281 12.695312 "/>
<path style=" stroke:none;fill-rule:nonzero;fill:rgb(0%,0%,0%);fill-opacity:1;" d="M 370.695312 18.132812 C 370.695312 18.085938 370.695312 18.070312 370.507812 17.882812 C 369.148438 16.507812 368.804688 14.445312 368.804688 12.789062 C 368.804688 10.882812 369.210938 8.992188 370.554688 7.617188 C 370.695312 7.492188 370.695312 7.476562 370.695312 7.429688 C 370.695312 7.367188 370.648438 7.335938 370.585938 7.335938 C 370.476562 7.335938 369.492188 8.070312 368.851562 9.460938 C 368.289062 10.648438 368.164062 11.867188 368.164062 12.789062 C 368.164062 13.632812 368.289062 14.945312 368.882812 16.179688 C 369.539062 17.523438 370.476562 18.226562 370.585938 18.226562 C 370.648438 18.226562 370.695312 18.195312 370.695312 18.132812 Z M 370.695312 18.132812 "/>
<path style=" stroke:none;fill-rule:nonzero;fill:rgb(0%,0%,0%);fill-opacity:1;" d="M 372.71875 14.664062 L 373.875 13.539062 C 375.578125 12.039062 376.21875 11.445312 376.21875 10.367188 C 376.21875 9.117188 375.25 8.242188 373.90625 8.242188 C 372.6875 8.242188 371.875 9.242188 371.875 10.210938 C 371.875 10.835938 372.421875 10.835938 372.453125 10.835938 C 372.640625 10.835938 373.015625 10.695312 373.015625 10.257812 C 373.015625 9.960938 372.828125 9.679688 372.4375 9.679688 C 372.359375 9.679688 372.328125 9.679688 372.296875 9.695312 C 372.546875 8.992188 373.140625 8.585938 373.765625 8.585938 C 374.765625 8.585938 375.234375 9.460938 375.234375 10.367188 C 375.234375 11.226562 374.6875 12.101562 374.09375 12.773438 L 372 15.101562 C 371.875 15.226562 371.875 15.242188 371.875 15.507812 L 375.921875 15.507812 L 376.21875 13.617188 L 375.953125 13.617188 C 375.890625 13.929688 375.828125 14.414062 375.71875 14.585938 C 375.640625 14.664062 374.921875 14.664062 374.671875 14.664062 Z M 372.71875 14.664062 "/>
<path style=" stroke:none;fill-rule:nonzero;fill:rgb(0%,0%,0%);fill-opacity:1;" d="M 379.9375 12.789062 C 379.9375 11.929688 379.8125 10.617188 379.21875 9.382812 C 378.5625 8.039062 377.625 7.335938 377.515625 7.335938 C 377.453125 7.335938 377.40625 7.367188 377.40625 7.429688 C 377.40625 7.476562 377.40625 7.492188 377.609375 7.695312 C 378.671875 8.773438 379.296875 10.507812 379.296875 12.789062 C 379.296875 14.648438 378.890625 16.570312 377.546875 17.945312 C 377.40625 18.070312 377.40625 18.085938 377.40625 18.132812 C 377.40625 18.195312 377.453125 18.226562 377.515625 18.226562 C 377.625 18.226562 378.609375 17.492188 379.25 16.101562 C 379.796875 14.914062 379.9375 13.695312 379.9375 12.789062 Z M 379.9375 12.789062 "/>
</g>
</svg>
