<?xml version="1.0" encoding="UTF-8"?>
<svg xmlns="http://www.w3.org/2000/svg" xmlns:xlink="http://www.w3.org/1999/xlink" width="192pt" height="179pt" viewBox="0 0 192 179" version="1.1">
<g id="surface76">
<path style="fill:none;stroke-width:1.603518;stroke-linecap:butt;stroke-linejoin:miter;stroke:rgb(100%,30%,20%);stroke-opacity:0.7;stroke-miterlimit:10;" d="M 0 0 L 93.542969 -162.023438 " transform="matrix(1,0,0,1,4,163)"/>
<path style="fill:none;stroke-width:1.603518;stroke-linecap:butt;stroke-linejoin:miter;stroke:rgb(100%,30%,20%);stroke-opacity:0.7;stroke-miterlimit:10;" d="M 0 0 L 187.085938 0 " transform="matrix(1,0,0,1,4,163)"/>
<path style=" stroke:none;fill-rule:nonzero;fill:rgb(0%,0%,0%);fill-opacity:1;" d="M 5.375 169.417969 C 5.375 169.402344 5.40625 169.277344 5.40625 169.277344 C 5.40625 169.261719 5.40625 169.167969 5.28125 169.167969 C 5.171875 169.167969 5.15625 169.199219 5.109375 169.386719 L 4.484375 171.902344 C 2.75 171.949219 1.140625 173.402344 1.140625 174.886719 C 1.140625 175.917969 1.90625 176.777344 3.234375 176.855469 C 3.15625 177.199219 3.078125 177.542969 2.984375 177.886719 C 2.859375 178.402344 2.75 178.808594 2.75 178.839844 C 2.75 178.949219 2.828125 178.964844 2.875 178.964844 C 2.9375 178.964844 2.953125 178.949219 2.984375 178.917969 C 3.015625 178.902344 3.078125 178.636719 3.109375 178.480469 L 3.515625 176.855469 C 5.28125 176.808594 6.859375 175.339844 6.859375 173.871094 C 6.859375 173.011719 6.28125 172.011719 4.765625 171.902344 Z M 3.296875 176.621094 C 2.640625 176.589844 1.859375 176.199219 1.859375 175.121094 C 1.859375 173.808594 2.796875 172.277344 4.421875 172.136719 Z M 4.703125 172.136719 C 5.53125 172.183594 6.15625 172.683594 6.15625 173.636719 C 6.15625 174.933594 5.21875 176.496094 3.578125 176.621094 Z M 4.703125 172.136719 "/>
<path style=" stroke:none;fill-rule:evenodd;fill:rgb(0%,0%,0%);fill-opacity:1;" d="M 5.417969 163 C 5.417969 161.109375 2.582031 161.109375 2.582031 163 C 2.582031 164.890625 5.417969 164.890625 5.417969 163 Z M 5.417969 163 "/>
<path style="fill:none;stroke-width:0.566929;stroke-linecap:butt;stroke-linejoin:miter;stroke:rgb(0%,0%,0%);stroke-opacity:1;stroke-miterlimit:10;" d="M 2.835938 0 C 2.835938 -3.78125 -2.835938 -3.78125 -2.835938 0 C -2.835938 3.78125 2.835938 3.78125 2.835938 0 Z M 2.835938 0 " transform="matrix(1,0,0,1,4,163)"/>
<path style=" stroke:none;fill-rule:evenodd;fill:rgb(20%,70%,20%);fill-opacity:1;" d="M 22.425781 133.542969 C 22.425781 131.652344 19.589844 131.652344 19.589844 133.542969 C 19.589844 135.429688 22.425781 135.429688 22.425781 133.542969 Z M 22.425781 133.542969 "/>
<path style=" stroke:none;fill-rule:evenodd;fill:rgb(20%,70%,20%);fill-opacity:1;" d="M 39.433594 104.082031 C 39.433594 102.191406 36.597656 102.191406 36.597656 104.082031 C 36.597656 105.972656 39.433594 105.972656 39.433594 104.082031 Z M 39.433594 104.082031 "/>
<path style="fill:none;stroke-width:0.801759;stroke-linecap:butt;stroke-linejoin:miter;stroke:rgb(0%,0%,0%);stroke-opacity:1;stroke-miterlimit:10;" d="M 42.519531 -71.367188 L 48.1875 -71.367188 L 48.1875 -77.035156 L 42.519531 -77.035156 Z M 42.519531 -71.367188 " transform="matrix(1,0,0,1,4,163)"/>
<path style="fill:none;stroke-width:0.801759;stroke-linecap:butt;stroke-linejoin:miter;stroke:rgb(0%,0%,0%);stroke-opacity:1;stroke-miterlimit:10;" d="M 48.1875 -71.367188 L 53.859375 -71.367188 L 53.859375 -77.035156 L 48.1875 -77.035156 Z M 48.1875 -71.367188 " transform="matrix(1,0,0,1,4,163)"/>
<path style="fill:none;stroke-width:0.801759;stroke-linecap:butt;stroke-linejoin:miter;stroke:rgb(0%,0%,0%);stroke-opacity:1;stroke-miterlimit:10;" d="M 53.859375 -71.367188 L 59.527344 -71.367188 L 59.527344 -77.035156 L 53.859375 -77.035156 Z M 53.859375 -71.367188 " transform="matrix(1,0,0,1,4,163)"/>
<path style="fill:none;stroke-width:0.801759;stroke-linecap:butt;stroke-linejoin:miter;stroke:rgb(0%,0%,0%);stroke-opacity:1;stroke-miterlimit:10;" d="M 42.519531 -77.035156 L 48.1875 -77.035156 L 48.1875 -82.707031 L 42.519531 -82.707031 Z M 42.519531 -77.035156 " transform="matrix(1,0,0,1,4,163)"/>
<path style="fill:none;stroke-width:0.801759;stroke-linecap:butt;stroke-linejoin:miter;stroke:rgb(0%,0%,0%);stroke-opacity:1;stroke-miterlimit:10;" d="M 48.1875 -77.035156 L 53.859375 -77.035156 L 53.859375 -82.707031 L 48.1875 -82.707031 Z M 48.1875 -77.035156 " transform="matrix(1,0,0,1,4,163)"/>
<path style="fill:none;stroke-width:0.801759;stroke-linecap:butt;stroke-linejoin:miter;stroke:rgb(0%,0%,0%);stroke-opacity:1;stroke-miterlimit:10;" d="M 53.859375 -77.035156 L 59.527344 -77.035156 L 59.527344 -82.707031 L 53.859375 -82.707031 Z M 53.859375 -77.035156 " transform="matrix(1,0,0,1,4,163)"/>
<path style=" stroke:none;fill-rule:evenodd;fill:rgb(0%,0%,0%);fill-opacity:1;" d="M 56.441406 74.625 C 56.441406 72.734375 53.605469 72.734375 53.605469 74.625 C 53.605469 76.515625 56.441406 76.515625 56.441406 74.625 Z M 56.441406 74.625 "/>
<path style=" stroke:none;fill-rule:evenodd;fill:rgb(20%,70%,20%);fill-opacity:1;" d="M 73.449219 45.164062 C 73.449219 43.277344 70.613281 43.277344 70.613281 45.164062 C 70.613281 47.054688 73.449219 47.054688 73.449219 45.164062 Z M 73.449219 45.164062 "/>
<path style=" stroke:none;fill-rule:evenodd;fill:rgb(20%,70%,20%);fill-opacity:1;" d="M 90.457031 15.707031 C 90.457031 13.816406 87.621094 13.816406 87.621094 15.707031 C 87.621094 17.597656 90.457031 17.597656 90.457031 15.707031 Z M 90.457031 15.707031 "/>
<path style=" stroke:none;fill-rule:evenodd;fill:rgb(20%,70%,20%);fill-opacity:1;" d="M 39.433594 163 C 39.433594 161.109375 36.597656 161.109375 36.597656 163 C 36.597656 164.890625 39.433594 164.890625 39.433594 163 Z M 39.433594 163 "/>
<path style="fill:none;stroke-width:0.801759;stroke-linecap:butt;stroke-linejoin:miter;stroke:rgb(0%,0%,0%);stroke-opacity:1;stroke-miterlimit:10;" d="M 45.355469 -12.449219 L 51.023438 -12.449219 L 51.023438 -18.121094 L 45.355469 -18.121094 Z M 45.355469 -12.449219 " transform="matrix(1,0,0,1,4,163)"/>
<path style="fill:none;stroke-width:0.801759;stroke-linecap:butt;stroke-linejoin:miter;stroke:rgb(0%,0%,0%);stroke-opacity:1;stroke-miterlimit:10;" d="M 51.023438 -12.449219 L 56.691406 -12.449219 L 56.691406 -18.121094 L 51.023438 -18.121094 Z M 51.023438 -12.449219 " transform="matrix(1,0,0,1,4,163)"/>
<path style="fill:none;stroke-width:0.801759;stroke-linecap:butt;stroke-linejoin:miter;stroke:rgb(0%,0%,0%);stroke-opacity:1;stroke-miterlimit:10;" d="M 45.355469 -18.121094 L 51.023438 -18.121094 L 51.023438 -23.789062 L 45.355469 -23.789062 Z M 45.355469 -18.121094 " transform="matrix(1,0,0,1,4,163)"/>
<path style=" stroke:none;fill-rule:evenodd;fill:rgb(0%,0%,0%);fill-opacity:1;" d="M 56.441406 133.542969 C 56.441406 131.652344 53.605469 131.652344 53.605469 133.542969 C 53.605469 135.429688 56.441406 135.429688 56.441406 133.542969 Z M 56.441406 133.542969 "/>
<path style=" stroke:none;fill-rule:evenodd;fill:rgb(20%,70%,20%);fill-opacity:1;" d="M 73.449219 104.082031 C 73.449219 102.191406 70.613281 102.191406 70.613281 104.082031 C 70.613281 105.972656 73.449219 105.972656 73.449219 104.082031 Z M 73.449219 104.082031 "/>
<path style=" stroke:none;fill-rule:evenodd;fill:rgb(20%,70%,20%);fill-opacity:1;" d="M 90.457031 74.625 C 90.457031 72.734375 87.621094 72.734375 87.621094 74.625 C 87.621094 76.515625 90.457031 76.515625 90.457031 74.625 Z M 90.457031 74.625 "/>
<path style="fill:none;stroke-width:0.801759;stroke-linecap:butt;stroke-linejoin:miter;stroke:rgb(0%,0%,0%);stroke-opacity:1;stroke-miterlimit:10;" d="M 87.875 -100.824219 L 93.542969 -100.824219 L 93.542969 -106.496094 L 87.875 -106.496094 Z M 87.875 -100.824219 " transform="matrix(1,0,0,1,4,163)"/>
<path style="fill:none;stroke-width:0.801759;stroke-linecap:butt;stroke-linejoin:miter;stroke:rgb(0%,0%,0%);stroke-opacity:1;stroke-miterlimit:10;" d="M 93.542969 -100.824219 L 99.210938 -100.824219 L 99.210938 -106.496094 L 93.542969 -106.496094 Z M 93.542969 -100.824219 " transform="matrix(1,0,0,1,4,163)"/>
<path style="fill:none;stroke-width:0.801759;stroke-linecap:butt;stroke-linejoin:miter;stroke:rgb(0%,0%,0%);stroke-opacity:1;stroke-miterlimit:10;" d="M 99.210938 -100.824219 L 104.882812 -100.824219 L 104.882812 -106.496094 L 99.210938 -106.496094 Z M 99.210938 -100.824219 " transform="matrix(1,0,0,1,4,163)"/>
<path style="fill:none;stroke-width:0.801759;stroke-linecap:butt;stroke-linejoin:miter;stroke:rgb(0%,0%,0%);stroke-opacity:1;stroke-miterlimit:10;" d="M 104.882812 -100.824219 L 110.550781 -100.824219 L 110.550781 -106.496094 L 104.882812 -106.496094 Z M 104.882812 -100.824219 " transform="matrix(1,0,0,1,4,163)"/>
<path style="fill:none;stroke-width:0.801759;stroke-linecap:butt;stroke-linejoin:miter;stroke:rgb(0%,0%,0%);stroke-opacity:1;stroke-miterlimit:10;" d="M 110.550781 -100.824219 L 116.21875 -100.824219 L 116.21875 -106.496094 L 110.550781 -106.496094 Z M 110.550781 -100.824219 " transform="matrix(1,0,0,1,4,163)"/>
<path style="fill:none;stroke-width:0.801759;stroke-linecap:butt;stroke-linejoin:miter;stroke:rgb(0%,0%,0%);stroke-opacity:1;stroke-miterlimit:10;" d="M 87.875 -106.496094 L 93.542969 -106.496094 L 93.542969 -112.164062 L 87.875 -112.164062 Z M 87.875 -106.496094 " transform="matrix(1,0,0,1,4,163)"/>
<path style="fill:none;stroke-width:0.801759;stroke-linecap:butt;stroke-linejoin:miter;stroke:rgb(0%,0%,0%);stroke-opacity:1;stroke-miterlimit:10;" d="M 93.542969 -106.496094 L 99.210938 -106.496094 L 99.210938 -112.164062 L 93.542969 -112.164062 Z M 93.542969 -106.496094 " transform="matrix(1,0,0,1,4,163)"/>
<path style="fill:none;stroke-width:0.801759;stroke-linecap:butt;stroke-linejoin:miter;stroke:rgb(0%,0%,0%);stroke-opacity:1;stroke-miterlimit:10;" d="M 99.210938 -106.496094 L 104.882812 -106.496094 L 104.882812 -112.164062 L 99.210938 -112.164062 Z M 99.210938 -106.496094 " transform="matrix(1,0,0,1,4,163)"/>
<path style="fill:none;stroke-width:0.801759;stroke-linecap:butt;stroke-linejoin:miter;stroke:rgb(0%,0%,0%);stroke-opacity:1;stroke-miterlimit:10;" d="M 104.882812 -106.496094 L 110.550781 -106.496094 L 110.550781 -112.164062 L 104.882812 -112.164062 Z M 104.882812 -106.496094 " transform="matrix(1,0,0,1,4,163)"/>
<path style=" stroke:none;fill-rule:evenodd;fill:rgb(0%,0%,0%);fill-opacity:1;" d="M 107.464844 45.164062 C 107.464844 43.277344 104.628906 43.277344 104.628906 45.164062 C 104.628906 47.054688 107.464844 47.054688 107.464844 45.164062 Z M 107.464844 45.164062 "/>
<path style=" stroke:none;fill-rule:evenodd;fill:rgb(20%,70%,20%);fill-opacity:1;" d="M 73.449219 163 C 73.449219 161.109375 70.613281 161.109375 70.613281 163 C 70.613281 164.890625 73.449219 164.890625 73.449219 163 Z M 73.449219 163 "/>
<path style=" stroke:none;fill-rule:evenodd;fill:rgb(20%,70%,20%);fill-opacity:1;" d="M 90.457031 133.542969 C 90.457031 131.652344 87.621094 131.652344 87.621094 133.542969 C 87.621094 135.429688 90.457031 135.429688 90.457031 133.542969 Z M 90.457031 133.542969 "/>
<path style="fill:none;stroke-width:0.801759;stroke-linecap:butt;stroke-linejoin:miter;stroke:rgb(0%,0%,0%);stroke-opacity:1;stroke-miterlimit:10;" d="M 90.707031 -41.910156 L 96.378906 -41.910156 L 96.378906 -47.578125 L 90.707031 -47.578125 Z M 90.707031 -41.910156 " transform="matrix(1,0,0,1,4,163)"/>
<path style="fill:none;stroke-width:0.801759;stroke-linecap:butt;stroke-linejoin:miter;stroke:rgb(0%,0%,0%);stroke-opacity:1;stroke-miterlimit:10;" d="M 96.378906 -41.910156 L 102.046875 -41.910156 L 102.046875 -47.578125 L 96.378906 -47.578125 Z M 96.378906 -41.910156 " transform="matrix(1,0,0,1,4,163)"/>
<path style="fill:none;stroke-width:0.801759;stroke-linecap:butt;stroke-linejoin:miter;stroke:rgb(0%,0%,0%);stroke-opacity:1;stroke-miterlimit:10;" d="M 102.046875 -41.910156 L 107.714844 -41.910156 L 107.714844 -47.578125 L 102.046875 -47.578125 Z M 102.046875 -41.910156 " transform="matrix(1,0,0,1,4,163)"/>
<path style="fill:none;stroke-width:0.801759;stroke-linecap:butt;stroke-linejoin:miter;stroke:rgb(0%,0%,0%);stroke-opacity:1;stroke-miterlimit:10;" d="M 107.714844 -41.910156 L 113.386719 -41.910156 L 113.386719 -47.578125 L 107.714844 -47.578125 Z M 107.714844 -41.910156 " transform="matrix(1,0,0,1,4,163)"/>
<path style="fill:none;stroke-width:0.801759;stroke-linecap:butt;stroke-linejoin:miter;stroke:rgb(0%,0%,0%);stroke-opacity:1;stroke-miterlimit:10;" d="M 90.707031 -47.578125 L 96.378906 -47.578125 L 96.378906 -53.246094 L 90.707031 -53.246094 Z M 90.707031 -47.578125 " transform="matrix(1,0,0,1,4,163)"/>
<path style="fill:none;stroke-width:0.801759;stroke-linecap:butt;stroke-linejoin:miter;stroke:rgb(0%,0%,0%);stroke-opacity:1;stroke-miterlimit:10;" d="M 96.378906 -47.578125 L 102.046875 -47.578125 L 102.046875 -53.246094 L 96.378906 -53.246094 Z M 96.378906 -47.578125 " transform="matrix(1,0,0,1,4,163)"/>
<path style=" stroke:none;fill-rule:evenodd;fill:rgb(0%,0%,0%);fill-opacity:1;" d="M 107.464844 104.082031 C 107.464844 102.191406 104.628906 102.191406 104.628906 104.082031 C 104.628906 105.972656 107.464844 105.972656 107.464844 104.082031 Z M 107.464844 104.082031 "/>
<path style=" stroke:none;fill-rule:evenodd;fill:rgb(20%,70%,20%);fill-opacity:1;" d="M 124.472656 74.625 C 124.472656 72.734375 121.636719 72.734375 121.636719 74.625 C 121.636719 76.515625 124.472656 76.515625 124.472656 74.625 Z M 124.472656 74.625 "/>
<path style="fill:none;stroke-width:0.801759;stroke-linecap:butt;stroke-linejoin:miter;stroke:rgb(0%,0%,0%);stroke-opacity:1;stroke-miterlimit:10;" d="M 93.542969 11.339844 L 99.210938 11.339844 L 99.210938 5.667969 L 93.542969 5.667969 Z M 93.542969 11.339844 " transform="matrix(1,0,0,1,4,163)"/>
<path style="fill:none;stroke-width:0.801759;stroke-linecap:butt;stroke-linejoin:miter;stroke:rgb(0%,0%,0%);stroke-opacity:1;stroke-miterlimit:10;" d="M 99.210938 11.339844 L 104.882812 11.339844 L 104.882812 5.667969 L 99.210938 5.667969 Z M 99.210938 11.339844 " transform="matrix(1,0,0,1,4,163)"/>
<path style="fill:none;stroke-width:0.801759;stroke-linecap:butt;stroke-linejoin:miter;stroke:rgb(0%,0%,0%);stroke-opacity:1;stroke-miterlimit:10;" d="M 104.882812 11.339844 L 110.550781 11.339844 L 110.550781 5.667969 L 104.882812 5.667969 Z M 104.882812 11.339844 " transform="matrix(1,0,0,1,4,163)"/>
<path style=" stroke:none;fill-rule:evenodd;fill:rgb(0%,0%,0%);fill-opacity:1;" d="M 107.464844 163 C 107.464844 161.109375 104.628906 161.109375 104.628906 163 C 104.628906 164.890625 107.464844 164.890625 107.464844 163 Z M 107.464844 163 "/>
<path style=" stroke:none;fill-rule:evenodd;fill:rgb(20%,70%,20%);fill-opacity:1;" d="M 124.472656 133.542969 C 124.472656 131.652344 121.636719 131.652344 121.636719 133.542969 C 121.636719 135.429688 124.472656 135.429688 124.472656 133.542969 Z M 124.472656 133.542969 "/>
<path style=" stroke:none;fill-rule:evenodd;fill:rgb(20%,70%,20%);fill-opacity:1;" d="M 141.480469 104.082031 C 141.480469 102.191406 138.644531 102.191406 138.644531 104.082031 C 138.644531 105.972656 141.480469 105.972656 141.480469 104.082031 Z M 141.480469 104.082031 "/>
<path style=" stroke:none;fill-rule:evenodd;fill:rgb(20%,70%,20%);fill-opacity:1;" d="M 141.480469 163 C 141.480469 161.109375 138.644531 161.109375 138.644531 163 C 138.644531 164.890625 141.480469 164.890625 141.480469 163 Z M 141.480469 163 "/>
<path style="fill:none;stroke-width:0.801759;stroke-linecap:butt;stroke-linejoin:miter;stroke:rgb(0%,0%,0%);stroke-opacity:1;stroke-miterlimit:10;" d="M 138.898438 -12.449219 L 144.566406 -12.449219 L 144.566406 -18.121094 L 138.898438 -18.121094 Z M 138.898438 -12.449219 " transform="matrix(1,0,0,1,4,163)"/>
<path style="fill:none;stroke-width:0.801759;stroke-linecap:butt;stroke-linejoin:miter;stroke:rgb(0%,0%,0%);stroke-opacity:1;stroke-miterlimit:10;" d="M 144.566406 -12.449219 L 150.234375 -12.449219 L 150.234375 -18.121094 L 144.566406 -18.121094 Z M 144.566406 -12.449219 " transform="matrix(1,0,0,1,4,163)"/>
<path style="fill:none;stroke-width:0.801759;stroke-linecap:butt;stroke-linejoin:miter;stroke:rgb(0%,0%,0%);stroke-opacity:1;stroke-miterlimit:10;" d="M 150.234375 -12.449219 L 155.90625 -12.449219 L 155.90625 -18.121094 L 150.234375 -18.121094 Z M 150.234375 -12.449219 " transform="matrix(1,0,0,1,4,163)"/>
<path style="fill:none;stroke-width:0.801759;stroke-linecap:butt;stroke-linejoin:miter;stroke:rgb(0%,0%,0%);stroke-opacity:1;stroke-miterlimit:10;" d="M 155.90625 -12.449219 L 161.574219 -12.449219 L 161.574219 -18.121094 L 155.90625 -18.121094 Z M 155.90625 -12.449219 " transform="matrix(1,0,0,1,4,163)"/>
<path style="fill:none;stroke-width:0.801759;stroke-linecap:butt;stroke-linejoin:miter;stroke:rgb(0%,0%,0%);stroke-opacity:1;stroke-miterlimit:10;" d="M 161.574219 -12.449219 L 167.242188 -12.449219 L 167.242188 -18.121094 L 161.574219 -18.121094 Z M 161.574219 -12.449219 " transform="matrix(1,0,0,1,4,163)"/>
<path style="fill:none;stroke-width:0.801759;stroke-linecap:butt;stroke-linejoin:miter;stroke:rgb(0%,0%,0%);stroke-opacity:1;stroke-miterlimit:10;" d="M 138.898438 -18.121094 L 144.566406 -18.121094 L 144.566406 -23.789062 L 138.898438 -23.789062 Z M 138.898438 -18.121094 " transform="matrix(1,0,0,1,4,163)"/>
<path style=" stroke:none;fill-rule:evenodd;fill:rgb(0%,0%,0%);fill-opacity:1;" d="M 158.488281 133.542969 C 158.488281 131.652344 155.652344 131.652344 155.652344 133.542969 C 155.652344 135.429688 158.488281 135.429688 158.488281 133.542969 Z M 158.488281 133.542969 "/>
<path style=" stroke:none;fill-rule:evenodd;fill:rgb(20%,70%,20%);fill-opacity:1;" d="M 175.496094 163 C 175.496094 161.109375 172.660156 161.109375 172.660156 163 C 172.660156 164.890625 175.496094 164.890625 175.496094 163 Z M 175.496094 163 "/>
</g>
</svg>
