<?xml version="1.0" encoding="UTF-8"?>
<svg xmlns="http://www.w3.org/2000/svg" xmlns:xlink="http://www.w3.org/1999/xlink" width="370pt" height="21pt" viewBox="0 0 370 21" version="1.1">
<g id="surface11">
<path style="fill:none;stroke-width:0.566929;stroke-linecap:butt;stroke-linejoin:miter;stroke:rgb(0%,0%,0%);stroke-opacity:1;stroke-miterlimit:10;" d="M 0 0 L 340.15625 0 " transform="matrix(1,0,0,1,4,4)"/>
<path style="fill:none;stroke-width:0.566929;stroke-linecap:round;stroke-linejoin:round;stroke:rgb(0%,0%,0%);stroke-opacity:1;stroke-miterlimit:10;" d="M 340.15625 0 L 339.992188 -0.0703125 L 339.914062 -0.105469 L 339.832031 -0.144531 L 339.753906 -0.183594 L 339.597656 -0.269531 L 339.519531 -0.316406 L 339.371094 -0.410156 L 339.222656 -0.511719 L 339.011719 -0.675781 L 338.878906 -0.792969 L 338.8125 -0.855469 L 338.746094 -0.914062 L 338.683594 -0.976562 L 338.625 -1.042969 L 338.5625 -1.109375 L 338.445312 -1.242188 L 338.28125 -1.453125 L 338.179688 -1.601562 L 338.085938 -1.75 L 338.039062 -1.828125 L 337.953125 -1.984375 L 337.914062 -2.0625 L 337.875 -2.144531 L 337.839844 -2.222656 L 337.769531 -2.386719 L 337.738281 -2.472656 M 340.15625 0 L 339.992188 0.0703125 L 339.914062 0.105469 L 339.832031 0.144531 L 339.753906 0.183594 L 339.597656 0.269531 L 339.519531 0.316406 L 339.371094 0.410156 L 339.222656 0.511719 L 339.011719 0.675781 L 338.878906 0.792969 L 338.8125 0.855469 L 338.746094 0.914062 L 338.683594 0.976562 L 338.625 1.042969 L 338.5625 1.109375 L 338.445312 1.242188 L 338.28125 1.453125 L 338.179688 1.601562 L 338.085938 1.75 L 338.039062 1.828125 L 337.953125 1.984375 L 337.914062 2.0625 L 337.875 2.144531 L 337.839844 2.222656 L 337.769531 2.386719 L 337.738281 2.472656 " transform="matrix(1,0,0,1,4,4)"/>
<path style=" stroke:none;fill-rule:nonzero;fill:rgb(0%,0%,0%);fill-opacity:1;" d="M 5.417969 4 C 5.417969 2.109375 2.582031 2.109375 2.582031 4 C 2.582031 5.890625 5.417969 5.890625 5.417969 4 Z M 5.417969 4 "/>
<path style="fill:none;stroke-width:0.566929;stroke-linecap:butt;stroke-linejoin:miter;stroke:rgb(0%,0%,0%);stroke-opacity:1;stroke-miterlimit:10;" d="M 2.835938 0 C 2.835938 -3.78125 -2.835938 -3.78125 -2.835938 0 C -2.835938 3.78125 2.835938 3.78125 2.835938 0 Z M 2.835938 0 " transform="matrix(1,0,0,1,4,4)"/>
<path style=" stroke:none;fill-rule:nonzero;fill:rgb(0%,0%,0%);fill-opacity:1;" d="M 5.375 10.691406 C 5.375 10.675781 5.40625 10.550781 5.40625 10.550781 C 5.40625 10.535156 5.40625 10.441406 5.28125 10.441406 C 5.171875 10.441406 5.15625 10.472656 5.109375 10.660156 L 4.484375 13.175781 C 2.75 13.222656 1.140625 14.675781 1.140625 16.160156 C 1.140625 17.191406 1.90625 18.050781 3.234375 18.128906 C 3.15625 18.472656 3.078125 18.816406 2.984375 19.160156 C 2.859375 19.675781 2.75 20.082031 2.75 20.113281 C 2.75 20.222656 2.828125 20.238281 2.875 20.238281 C 2.9375 20.238281 2.953125 20.222656 2.984375 20.191406 C 3.015625 20.175781 3.078125 19.910156 3.109375 19.753906 L 3.515625 18.128906 C 5.28125 18.082031 6.859375 16.613281 6.859375 15.144531 C 6.859375 14.285156 6.28125 13.285156 4.765625 13.175781 Z M 3.296875 17.894531 C 2.640625 17.863281 1.859375 17.472656 1.859375 16.394531 C 1.859375 15.082031 2.796875 13.550781 4.421875 13.410156 Z M 4.703125 13.410156 C 5.53125 13.457031 6.15625 13.957031 6.15625 14.910156 C 6.15625 16.207031 5.21875 17.769531 3.578125 17.894531 Z M 4.703125 13.410156 "/>
<path style=" stroke:none;fill-rule:nonzero;fill:rgb(0%,0%,0%);fill-opacity:1;" d="M 47.9375 4 C 47.9375 2.109375 45.101562 2.109375 45.101562 4 C 45.101562 5.890625 47.9375 5.890625 47.9375 4 Z M 47.9375 4 "/>
<path style="fill:none;stroke-width:0.801759;stroke-linecap:butt;stroke-linejoin:miter;stroke:rgb(0%,0%,0%);stroke-opacity:1;stroke-miterlimit:10;" d="M 39.683594 14.171875 L 45.355469 14.171875 L 45.355469 8.503906 L 39.683594 8.503906 Z M 39.683594 14.171875 " transform="matrix(1,0,0,1,4,4)"/>
<path style=" stroke:none;fill-rule:nonzero;fill:rgb(0%,0%,0%);fill-opacity:1;" d="M 90.457031 4 C 90.457031 2.109375 87.621094 2.109375 87.621094 4 C 87.621094 5.890625 90.457031 5.890625 90.457031 4 Z M 90.457031 4 "/>
<path style="fill:none;stroke-width:0.801759;stroke-linecap:butt;stroke-linejoin:miter;stroke:rgb(0%,0%,0%);stroke-opacity:1;stroke-miterlimit:10;" d="M 79.371094 14.171875 L 85.039062 14.171875 L 85.039062 8.503906 L 79.371094 8.503906 Z M 79.371094 14.171875 " transform="matrix(1,0,0,1,4,4)"/>
<path style="fill:none;stroke-width:0.801759;stroke-linecap:butt;stroke-linejoin:miter;stroke:rgb(0%,0%,0%);stroke-opacity:1;stroke-miterlimit:10;" d="M 85.039062 14.171875 L 90.707031 14.171875 L 90.707031 8.503906 L 85.039062 8.503906 Z M 85.039062 14.171875 " transform="matrix(1,0,0,1,4,4)"/>
<path style=" stroke:none;fill-rule:nonzero;fill:rgb(0%,0%,0%);fill-opacity:1;" d="M 132.976562 4 C 132.976562 2.109375 130.140625 2.109375 130.140625 4 C 130.140625 5.890625 132.976562 5.890625 132.976562 4 Z M 132.976562 4 "/>
<path style="fill:none;stroke-width:0.801759;stroke-linecap:butt;stroke-linejoin:miter;stroke:rgb(0%,0%,0%);stroke-opacity:1;stroke-miterlimit:10;" d="M 119.054688 14.171875 L 124.722656 14.171875 L 124.722656 8.503906 L 119.054688 8.503906 Z M 119.054688 14.171875 " transform="matrix(1,0,0,1,4,4)"/>
<path style="fill:none;stroke-width:0.801759;stroke-linecap:butt;stroke-linejoin:miter;stroke:rgb(0%,0%,0%);stroke-opacity:1;stroke-miterlimit:10;" d="M 124.722656 14.171875 L 130.394531 14.171875 L 130.394531 8.503906 L 124.722656 8.503906 Z M 124.722656 14.171875 " transform="matrix(1,0,0,1,4,4)"/>
<path style="fill:none;stroke-width:0.801759;stroke-linecap:butt;stroke-linejoin:miter;stroke:rgb(0%,0%,0%);stroke-opacity:1;stroke-miterlimit:10;" d="M 130.394531 14.171875 L 136.0625 14.171875 L 136.0625 8.503906 L 130.394531 8.503906 Z M 130.394531 14.171875 " transform="matrix(1,0,0,1,4,4)"/>
<path style=" stroke:none;fill-rule:nonzero;fill:rgb(0%,0%,0%);fill-opacity:1;" d="M 175.496094 4 C 175.496094 2.109375 172.660156 2.109375 172.660156 4 C 172.660156 5.890625 175.496094 5.890625 175.496094 4 Z M 175.496094 4 "/>
<path style="fill:none;stroke-width:0.801759;stroke-linecap:butt;stroke-linejoin:miter;stroke:rgb(0%,0%,0%);stroke-opacity:1;stroke-miterlimit:10;" d="M 158.738281 14.171875 L 164.410156 14.171875 L 164.410156 8.503906 L 158.738281 8.503906 Z M 158.738281 14.171875 " transform="matrix(1,0,0,1,4,4)"/>
<path style="fill:none;stroke-width:0.801759;stroke-linecap:butt;stroke-linejoin:miter;stroke:rgb(0%,0%,0%);stroke-opacity:1;stroke-miterlimit:10;" d="M 164.410156 14.171875 L 170.078125 14.171875 L 170.078125 8.503906 L 164.410156 8.503906 Z M 164.410156 14.171875 " transform="matrix(1,0,0,1,4,4)"/>
<path style="fill:none;stroke-width:0.801759;stroke-linecap:butt;stroke-linejoin:miter;stroke:rgb(0%,0%,0%);stroke-opacity:1;stroke-miterlimit:10;" d="M 170.078125 14.171875 L 175.746094 14.171875 L 175.746094 8.503906 L 170.078125 8.503906 Z M 170.078125 14.171875 " transform="matrix(1,0,0,1,4,4)"/>
<path style="fill:none;stroke-width:0.801759;stroke-linecap:butt;stroke-linejoin:miter;stroke:rgb(0%,0%,0%);stroke-opacity:1;stroke-miterlimit:10;" d="M 175.746094 14.171875 L 181.417969 14.171875 L 181.417969 8.503906 L 175.746094 8.503906 Z M 175.746094 14.171875 " transform="matrix(1,0,0,1,4,4)"/>
<path style=" stroke:none;fill-rule:nonzero;fill:rgb(0%,0%,0%);fill-opacity:1;" d="M 218.015625 4 C 218.015625 2.109375 215.179688 2.109375 215.179688 4 C 215.179688 5.890625 218.015625 5.890625 218.015625 4 Z M 218.015625 4 "/>
<path style="fill:none;stroke-width:0.801759;stroke-linecap:butt;stroke-linejoin:miter;stroke:rgb(0%,0%,0%);stroke-opacity:1;stroke-miterlimit:10;" d="M 198.425781 14.171875 L 204.09375 14.171875 L 204.09375 8.503906 L 198.425781 8.503906 Z M 198.425781 14.171875 " transform="matrix(1,0,0,1,4,4)"/>
<path style="fill:none;stroke-width:0.801759;stroke-linecap:butt;stroke-linejoin:miter;stroke:rgb(0%,0%,0%);stroke-opacity:1;stroke-miterlimit:10;" d="M 204.09375 14.171875 L 209.765625 14.171875 L 209.765625 8.503906 L 204.09375 8.503906 Z M 204.09375 14.171875 " transform="matrix(1,0,0,1,4,4)"/>
<path style="fill:none;stroke-width:0.801759;stroke-linecap:butt;stroke-linejoin:miter;stroke:rgb(0%,0%,0%);stroke-opacity:1;stroke-miterlimit:10;" d="M 209.765625 14.171875 L 215.433594 14.171875 L 215.433594 8.503906 L 209.765625 8.503906 Z M 209.765625 14.171875 " transform="matrix(1,0,0,1,4,4)"/>
<path style="fill:none;stroke-width:0.801759;stroke-linecap:butt;stroke-linejoin:miter;stroke:rgb(0%,0%,0%);stroke-opacity:1;stroke-miterlimit:10;" d="M 215.433594 14.171875 L 221.101562 14.171875 L 221.101562 8.503906 L 215.433594 8.503906 Z M 215.433594 14.171875 " transform="matrix(1,0,0,1,4,4)"/>
<path style="fill:none;stroke-width:0.801759;stroke-linecap:butt;stroke-linejoin:miter;stroke:rgb(0%,0%,0%);stroke-opacity:1;stroke-miterlimit:10;" d="M 221.101562 14.171875 L 226.773438 14.171875 L 226.773438 8.503906 L 221.101562 8.503906 Z M 221.101562 14.171875 " transform="matrix(1,0,0,1,4,4)"/>
<path style=" stroke:none;fill-rule:nonzero;fill:rgb(0%,0%,0%);fill-opacity:1;" d="M 260.535156 4 C 260.535156 2.109375 257.699219 2.109375 257.699219 4 C 257.699219 5.890625 260.535156 5.890625 260.535156 4 Z M 260.535156 4 "/>
<path style="fill:none;stroke-width:0.801759;stroke-linecap:butt;stroke-linejoin:miter;stroke:rgb(0%,0%,0%);stroke-opacity:1;stroke-miterlimit:10;" d="M 238.109375 14.171875 L 243.78125 14.171875 L 243.78125 8.503906 L 238.109375 8.503906 Z M 238.109375 14.171875 " transform="matrix(1,0,0,1,4,4)"/>
<path style="fill:none;stroke-width:0.801759;stroke-linecap:butt;stroke-linejoin:miter;stroke:rgb(0%,0%,0%);stroke-opacity:1;stroke-miterlimit:10;" d="M 243.78125 14.171875 L 249.449219 14.171875 L 249.449219 8.503906 L 243.78125 8.503906 Z M 243.78125 14.171875 " transform="matrix(1,0,0,1,4,4)"/>
<path style="fill:none;stroke-width:0.801759;stroke-linecap:butt;stroke-linejoin:miter;stroke:rgb(0%,0%,0%);stroke-opacity:1;stroke-miterlimit:10;" d="M 249.449219 14.171875 L 255.117188 14.171875 L 255.117188 8.503906 L 249.449219 8.503906 Z M 249.449219 14.171875 " transform="matrix(1,0,0,1,4,4)"/>
<path style="fill:none;stroke-width:0.801759;stroke-linecap:butt;stroke-linejoin:miter;stroke:rgb(0%,0%,0%);stroke-opacity:1;stroke-miterlimit:10;" d="M 255.117188 14.171875 L 260.789062 14.171875 L 260.789062 8.503906 L 255.117188 8.503906 Z M 255.117188 14.171875 " transform="matrix(1,0,0,1,4,4)"/>
<path style="fill:none;stroke-width:0.801759;stroke-linecap:butt;stroke-linejoin:miter;stroke:rgb(0%,0%,0%);stroke-opacity:1;stroke-miterlimit:10;" d="M 260.789062 14.171875 L 266.457031 14.171875 L 266.457031 8.503906 L 260.789062 8.503906 Z M 260.789062 14.171875 " transform="matrix(1,0,0,1,4,4)"/>
<path style="fill:none;stroke-width:0.801759;stroke-linecap:butt;stroke-linejoin:miter;stroke:rgb(0%,0%,0%);stroke-opacity:1;stroke-miterlimit:10;" d="M 266.457031 14.171875 L 272.125 14.171875 L 272.125 8.503906 L 266.457031 8.503906 Z M 266.457031 14.171875 " transform="matrix(1,0,0,1,4,4)"/>
<path style=" stroke:none;fill-rule:nonzero;fill:rgb(0%,0%,0%);fill-opacity:1;" d="M 303.054688 4 C 303.054688 2.109375 300.21875 2.109375 300.21875 4 C 300.21875 5.890625 303.054688 5.890625 303.054688 4 Z M 303.054688 4 "/>
<path style="fill:none;stroke-width:0.801759;stroke-linecap:butt;stroke-linejoin:miter;stroke:rgb(0%,0%,0%);stroke-opacity:1;stroke-miterlimit:10;" d="M 277.796875 14.171875 L 283.464844 14.171875 L 283.464844 8.503906 L 277.796875 8.503906 Z M 277.796875 14.171875 " transform="matrix(1,0,0,1,4,4)"/>
<path style="fill:none;stroke-width:0.801759;stroke-linecap:butt;stroke-linejoin:miter;stroke:rgb(0%,0%,0%);stroke-opacity:1;stroke-miterlimit:10;" d="M 283.464844 14.171875 L 289.132812 14.171875 L 289.132812 8.503906 L 283.464844 8.503906 Z M 283.464844 14.171875 " transform="matrix(1,0,0,1,4,4)"/>
<path style="fill:none;stroke-width:0.801759;stroke-linecap:butt;stroke-linejoin:miter;stroke:rgb(0%,0%,0%);stroke-opacity:1;stroke-miterlimit:10;" d="M 289.132812 14.171875 L 294.804688 14.171875 L 294.804688 8.503906 L 289.132812 8.503906 Z M 289.132812 14.171875 " transform="matrix(1,0,0,1,4,4)"/>
<path style="fill:none;stroke-width:0.801759;stroke-linecap:butt;stroke-linejoin:miter;stroke:rgb(0%,0%,0%);stroke-opacity:1;stroke-miterlimit:10;" d="M 294.804688 14.171875 L 300.472656 14.171875 L 300.472656 8.503906 L 294.804688 8.503906 Z M 294.804688 14.171875 " transform="matrix(1,0,0,1,4,4)"/>
<path style="fill:none;stroke-width:0.801759;stroke-linecap:butt;stroke-linejoin:miter;stroke:rgb(0%,0%,0%);stroke-opacity:1;stroke-miterlimit:10;" d="M 300.472656 14.171875 L 306.140625 14.171875 L 306.140625 8.503906 L 300.472656 8.503906 Z M 300.472656 14.171875 " transform="matrix(1,0,0,1,4,4)"/>
<path style="fill:none;stroke-width:0.801759;stroke-linecap:butt;stroke-linejoin:miter;stroke:rgb(0%,0%,0%);stroke-opacity:1;stroke-miterlimit:10;" d="M 306.140625 14.171875 L 311.8125 14.171875 L 311.8125 8.503906 L 306.140625 8.503906 Z M 306.140625 14.171875 " transform="matrix(1,0,0,1,4,4)"/>
<path style="fill:none;stroke-width:0.801759;stroke-linecap:butt;stroke-linejoin:miter;stroke:rgb(0%,0%,0%);stroke-opacity:1;stroke-miterlimit:10;" d="M 311.8125 14.171875 L 317.480469 14.171875 L 317.480469 8.503906 L 311.8125 8.503906 Z M 311.8125 14.171875 " transform="matrix(1,0,0,1,4,4)"/>
<path style=" stroke:none;fill-rule:nonzero;fill:rgb(0%,0%,0%);fill-opacity:1;" d="M 347.859375 11.273438 L 346.453125 10.945312 C 345.78125 10.773438 345.359375 10.179688 345.359375 9.554688 C 345.359375 8.789062 345.9375 8.117188 346.796875 8.117188 C 348.609375 8.117188 348.859375 9.914062 348.921875 10.398438 C 348.9375 10.476562 348.9375 10.539062 349.046875 10.539062 C 349.1875 10.539062 349.1875 10.476562 349.1875 10.273438 L 349.1875 8.085938 C 349.1875 7.898438 349.1875 7.820312 349.078125 7.820312 C 349 7.820312 348.984375 7.835938 348.90625 7.960938 L 348.53125 8.585938 C 348.203125 8.273438 347.75 7.820312 346.78125 7.820312 C 345.578125 7.820312 344.65625 8.773438 344.65625 9.929688 C 344.65625 10.835938 345.234375 11.632812 346.09375 11.929688 C 346.203125 11.976562 346.765625 12.101562 347.53125 12.289062 C 347.828125 12.367188 348.140625 12.445312 348.453125 12.851562 C 348.6875 13.132812 348.796875 13.492188 348.796875 13.851562 C 348.796875 14.617188 348.25 15.414062 347.328125 15.414062 C 347.015625 15.414062 346.1875 15.351562 345.609375 14.820312 C 344.96875 14.226562 344.9375 13.539062 344.9375 13.148438 C 344.921875 13.039062 344.828125 13.039062 344.796875 13.039062 C 344.65625 13.039062 344.65625 13.101562 344.65625 13.304688 L 344.65625 15.492188 C 344.65625 15.664062 344.65625 15.742188 344.78125 15.742188 C 344.859375 15.742188 344.859375 15.726562 344.9375 15.601562 C 344.9375 15.601562 344.96875 15.554688 345.328125 14.976562 C 345.671875 15.351562 346.375 15.742188 347.34375 15.742188 C 348.609375 15.742188 349.484375 14.679688 349.484375 13.476562 C 349.484375 12.382812 348.765625 11.492188 347.859375 11.273438 Z M 347.859375 11.273438 "/>
<path style=" stroke:none;fill-rule:nonzero;fill:rgb(0%,0%,0%);fill-opacity:1;" d="M 356.453125 12.695312 L 356.1875 12.695312 C 356.0625 13.804688 355.90625 15.164062 353.984375 15.164062 L 353.09375 15.164062 C 352.578125 15.164062 352.5625 15.085938 352.5625 14.726562 L 352.5625 8.914062 C 352.5625 8.554688 352.5625 8.398438 353.59375 8.398438 L 353.953125 8.398438 L 353.953125 8.054688 C 353.5625 8.085938 352.578125 8.085938 352.125 8.085938 C 351.703125 8.085938 350.84375 8.085938 350.46875 8.054688 L 350.46875 8.398438 L 350.734375 8.398438 C 351.578125 8.398438 351.59375 8.523438 351.59375 8.914062 L 351.59375 14.664062 C 351.59375 15.054688 351.578125 15.164062 350.734375 15.164062 L 350.46875 15.164062 L 350.46875 15.507812 L 356.15625 15.507812 Z M 356.453125 12.695312 "/>
<path style=" stroke:none;fill-rule:nonzero;fill:rgb(0%,0%,0%);fill-opacity:1;" d="M 360.535156 18.132812 C 360.535156 18.085938 360.535156 18.070312 360.347656 17.882812 C 358.988281 16.507812 358.644531 14.445312 358.644531 12.789062 C 358.644531 10.882812 359.050781 8.992188 360.394531 7.617188 C 360.535156 7.492188 360.535156 7.476562 360.535156 7.429688 C 360.535156 7.367188 360.488281 7.335938 360.425781 7.335938 C 360.316406 7.335938 359.332031 8.070312 358.691406 9.460938 C 358.128906 10.648438 358.003906 11.867188 358.003906 12.789062 C 358.003906 13.632812 358.128906 14.945312 358.722656 16.179688 C 359.378906 17.523438 360.316406 18.226562 360.425781 18.226562 C 360.488281 18.226562 360.535156 18.195312 360.535156 18.132812 Z M 360.535156 18.132812 "/>
<path style=" stroke:none;fill-rule:nonzero;fill:rgb(0%,0%,0%);fill-opacity:1;" d="M 362.5625 14.664062 L 363.71875 13.539062 C 365.421875 12.039062 366.0625 11.445312 366.0625 10.367188 C 366.0625 9.117188 365.09375 8.242188 363.75 8.242188 C 362.53125 8.242188 361.71875 9.242188 361.71875 10.210938 C 361.71875 10.835938 362.265625 10.835938 362.296875 10.835938 C 362.484375 10.835938 362.859375 10.695312 362.859375 10.257812 C 362.859375 9.960938 362.671875 9.679688 362.28125 9.679688 C 362.203125 9.679688 362.171875 9.679688 362.140625 9.695312 C 362.390625 8.992188 362.984375 8.585938 363.609375 8.585938 C 364.609375 8.585938 365.078125 9.460938 365.078125 10.367188 C 365.078125 11.226562 364.53125 12.101562 363.9375 12.773438 L 361.84375 15.101562 C 361.71875 15.226562 361.71875 15.242188 361.71875 15.507812 L 365.765625 15.507812 L 366.0625 13.617188 L 365.796875 13.617188 C 365.734375 13.929688 365.671875 14.414062 365.5625 14.585938 C 365.484375 14.664062 364.765625 14.664062 364.515625 14.664062 Z M 362.5625 14.664062 "/>
<path style=" stroke:none;fill-rule:nonzero;fill:rgb(0%,0%,0%);fill-opacity:1;" d="M 369.78125 12.789062 C 369.78125 11.929688 369.65625 10.617188 369.0625 9.382812 C 368.40625 8.039062 367.46875 7.335938 367.359375 7.335938 C 367.296875 7.335938 367.25 7.367188 367.25 7.429688 C 367.25 7.476562 367.25 7.492188 367.453125 7.695312 C 368.515625 8.773438 369.140625 10.507812 369.140625 12.789062 C 369.140625 14.648438 368.734375 16.570312 367.390625 17.945312 C 367.25 18.070312 367.25 18.085938 367.25 18.132812 C 367.25 18.195312 367.296875 18.226562 367.359375 18.226562 C 367.46875 18.226562 368.453125 17.492188 369.09375 16.101562 C 369.640625 14.914062 369.78125 13.695312 369.78125 12.789062 Z M 369.78125 12.789062 "/>
</g>
</svg>
