<?xml version="1.0" encoding="UTF-8"?>
<svg xmlns="http://www.w3.org/2000/svg" xmlns:xlink="http://www.w3.org/1999/xlink" width="376pt" height="326pt" viewBox="0 0 376 326" version="1.1">
<g id="surface53">
<path style="fill:none;stroke-width:1.603518;stroke-linecap:butt;stroke-linejoin:miter;stroke:rgb(100%,30%,20%);stroke-opacity:0.7;stroke-miterlimit:10;" d="M 0 0 L 93.542969 -162.023438 " transform="matrix(1,0,0,1,188,163)"/>
<path style="fill:none;stroke-width:1.603518;stroke-linecap:butt;stroke-linejoin:miter;stroke:rgb(100%,30%,20%);stroke-opacity:0.7;stroke-miterlimit:10;" d="M 0 0 L 187.085938 0 " transform="matrix(1,0,0,1,188,163)"/>
<path style="fill:none;stroke-width:1.603518;stroke-linecap:butt;stroke-linejoin:miter;stroke:rgb(100%,30%,20%);stroke-opacity:0.7;stroke-miterlimit:10;" d="M 0 0 L 93.542969 162.023438 " transform="matrix(1,0,0,1,188,163)"/>
<path style="fill:none;stroke-width:1.603518;stroke-linecap:butt;stroke-linejoin:miter;stroke:rgb(100%,30%,20%);stroke-opacity:0.7;stroke-miterlimit:10;" d="M 0 0 L -93.542969 162.023438 " transform="matrix(1,0,0,1,188,163)"/>
<path style="fill:none;stroke-width:1.603518;stroke-linecap:butt;stroke-linejoin:miter;stroke:rgb(100%,30%,20%);stroke-opacity:0.7;stroke-miterlimit:10;" d="M 0 0 L -187.085938 0 " transform="matrix(1,0,0,1,188,163)"/>
<path style="fill:none;stroke-width:1.603518;stroke-linecap:butt;stroke-linejoin:miter;stroke:rgb(100%,30%,20%);stroke-opacity:0.7;stroke-miterlimit:10;" d="M 0 0 L -93.542969 -162.023438 " transform="matrix(1,0,0,1,188,163)"/>
<path style=" stroke:none;fill-rule:nonzero;fill:rgb(0%,0%,0%);fill-opacity:1;" d="M 19.339844 163 C 19.339844 161.109375 16.503906 161.109375 16.503906 163 C 16.503906 164.890625 19.339844 164.890625 19.339844 163 Z M 19.339844 163 "/>
<path style=" stroke:none;fill-rule:nonzero;fill:rgb(0%,0%,0%);fill-opacity:1;" d="M 36.347656 133.542969 C 36.347656 131.652344 33.511719 131.652344 33.511719 133.542969 C 33.511719 135.429688 36.347656 135.429688 36.347656 133.542969 Z M 36.347656 133.542969 "/>
<path style=" stroke:none;fill-rule:nonzero;fill:rgb(0%,0%,0%);fill-opacity:1;" d="M 53.355469 104.082031 C 53.355469 102.191406 50.519531 102.191406 50.519531 104.082031 C 50.519531 105.972656 53.355469 105.972656 53.355469 104.082031 Z M 53.355469 104.082031 "/>
<path style=" stroke:none;fill-rule:nonzero;fill:rgb(0%,0%,0%);fill-opacity:1;" d="M 70.363281 74.625 C 70.363281 72.734375 67.527344 72.734375 67.527344 74.625 C 67.527344 76.515625 70.363281 76.515625 70.363281 74.625 Z M 70.363281 74.625 "/>
<path style=" stroke:none;fill-rule:nonzero;fill:rgb(0%,0%,0%);fill-opacity:1;" d="M 87.371094 45.164062 C 87.371094 43.277344 84.535156 43.277344 84.535156 45.164062 C 84.535156 47.054688 87.371094 47.054688 87.371094 45.164062 Z M 87.371094 45.164062 "/>
<path style=" stroke:none;fill-rule:nonzero;fill:rgb(0%,0%,0%);fill-opacity:1;" d="M 104.378906 15.707031 C 104.378906 13.816406 101.542969 13.816406 101.542969 15.707031 C 101.542969 17.597656 104.378906 17.597656 104.378906 15.707031 Z M 104.378906 15.707031 "/>
<path style=" stroke:none;fill-rule:nonzero;fill:rgb(0%,0%,0%);fill-opacity:1;" d="M 36.347656 192.457031 C 36.347656 190.570312 33.511719 190.570312 33.511719 192.457031 C 33.511719 194.347656 36.347656 194.347656 36.347656 192.457031 Z M 36.347656 192.457031 "/>
<path style=" stroke:none;fill-rule:nonzero;fill:rgb(0%,0%,0%);fill-opacity:1;" d="M 53.355469 163 C 53.355469 161.109375 50.519531 161.109375 50.519531 163 C 50.519531 164.890625 53.355469 164.890625 53.355469 163 Z M 53.355469 163 "/>
<path style=" stroke:none;fill-rule:nonzero;fill:rgb(0%,0%,0%);fill-opacity:1;" d="M 70.363281 133.542969 C 70.363281 131.652344 67.527344 131.652344 67.527344 133.542969 C 67.527344 135.429688 70.363281 135.429688 70.363281 133.542969 Z M 70.363281 133.542969 "/>
<path style=" stroke:none;fill-rule:nonzero;fill:rgb(0%,0%,0%);fill-opacity:1;" d="M 87.371094 104.082031 C 87.371094 102.191406 84.535156 102.191406 84.535156 104.082031 C 84.535156 105.972656 87.371094 105.972656 87.371094 104.082031 Z M 87.371094 104.082031 "/>
<path style=" stroke:none;fill-rule:nonzero;fill:rgb(0%,0%,0%);fill-opacity:1;" d="M 104.378906 74.625 C 104.378906 72.734375 101.542969 72.734375 101.542969 74.625 C 101.542969 76.515625 104.378906 76.515625 104.378906 74.625 Z M 104.378906 74.625 "/>
<path style=" stroke:none;fill-rule:nonzero;fill:rgb(0%,0%,0%);fill-opacity:1;" d="M 121.386719 45.164062 C 121.386719 43.277344 118.550781 43.277344 118.550781 45.164062 C 118.550781 47.054688 121.386719 47.054688 121.386719 45.164062 Z M 121.386719 45.164062 "/>
<path style=" stroke:none;fill-rule:nonzero;fill:rgb(0%,0%,0%);fill-opacity:1;" d="M 138.394531 15.707031 C 138.394531 13.816406 135.558594 13.816406 135.558594 15.707031 C 135.558594 17.597656 138.394531 17.597656 138.394531 15.707031 Z M 138.394531 15.707031 "/>
<path style=" stroke:none;fill-rule:nonzero;fill:rgb(0%,0%,0%);fill-opacity:1;" d="M 53.355469 221.917969 C 53.355469 220.027344 50.519531 220.027344 50.519531 221.917969 C 50.519531 223.808594 53.355469 223.808594 53.355469 221.917969 Z M 53.355469 221.917969 "/>
<path style=" stroke:none;fill-rule:nonzero;fill:rgb(0%,0%,0%);fill-opacity:1;" d="M 70.363281 192.457031 C 70.363281 190.570312 67.527344 190.570312 67.527344 192.457031 C 67.527344 194.347656 70.363281 194.347656 70.363281 192.457031 Z M 70.363281 192.457031 "/>
<path style=" stroke:none;fill-rule:nonzero;fill:rgb(0%,0%,0%);fill-opacity:1;" d="M 87.371094 163 C 87.371094 161.109375 84.535156 161.109375 84.535156 163 C 84.535156 164.890625 87.371094 164.890625 87.371094 163 Z M 87.371094 163 "/>
<path style=" stroke:none;fill-rule:nonzero;fill:rgb(0%,0%,0%);fill-opacity:1;" d="M 104.378906 133.542969 C 104.378906 131.652344 101.542969 131.652344 101.542969 133.542969 C 101.542969 135.429688 104.378906 135.429688 104.378906 133.542969 Z M 104.378906 133.542969 "/>
<path style=" stroke:none;fill-rule:nonzero;fill:rgb(0%,0%,0%);fill-opacity:1;" d="M 121.386719 104.082031 C 121.386719 102.191406 118.550781 102.191406 118.550781 104.082031 C 118.550781 105.972656 121.386719 105.972656 121.386719 104.082031 Z M 121.386719 104.082031 "/>
<path style=" stroke:none;fill-rule:nonzero;fill:rgb(0%,0%,0%);fill-opacity:1;" d="M 138.394531 74.625 C 138.394531 72.734375 135.558594 72.734375 135.558594 74.625 C 135.558594 76.515625 138.394531 76.515625 138.394531 74.625 Z M 138.394531 74.625 "/>
<path style=" stroke:none;fill-rule:nonzero;fill:rgb(0%,0%,0%);fill-opacity:1;" d="M 155.402344 45.164062 C 155.402344 43.277344 152.566406 43.277344 152.566406 45.164062 C 152.566406 47.054688 155.402344 47.054688 155.402344 45.164062 Z M 155.402344 45.164062 "/>
<path style=" stroke:none;fill-rule:nonzero;fill:rgb(0%,0%,0%);fill-opacity:1;" d="M 172.410156 15.707031 C 172.410156 13.816406 169.574219 13.816406 169.574219 15.707031 C 169.574219 17.597656 172.410156 17.597656 172.410156 15.707031 Z M 172.410156 15.707031 "/>
<path style=" stroke:none;fill-rule:nonzero;fill:rgb(0%,0%,0%);fill-opacity:1;" d="M 70.363281 251.375 C 70.363281 249.484375 67.527344 249.484375 67.527344 251.375 C 67.527344 253.265625 70.363281 253.265625 70.363281 251.375 Z M 70.363281 251.375 "/>
<path style=" stroke:none;fill-rule:nonzero;fill:rgb(0%,0%,0%);fill-opacity:1;" d="M 87.371094 221.917969 C 87.371094 220.027344 84.535156 220.027344 84.535156 221.917969 C 84.535156 223.808594 87.371094 223.808594 87.371094 221.917969 Z M 87.371094 221.917969 "/>
<path style=" stroke:none;fill-rule:nonzero;fill:rgb(0%,0%,0%);fill-opacity:1;" d="M 104.378906 192.457031 C 104.378906 190.570312 101.542969 190.570312 101.542969 192.457031 C 101.542969 194.347656 104.378906 194.347656 104.378906 192.457031 Z M 104.378906 192.457031 "/>
<path style=" stroke:none;fill-rule:nonzero;fill:rgb(0%,0%,0%);fill-opacity:1;" d="M 121.386719 163 C 121.386719 161.109375 118.550781 161.109375 118.550781 163 C 118.550781 164.890625 121.386719 164.890625 121.386719 163 Z M 121.386719 163 "/>
<path style=" stroke:none;fill-rule:nonzero;fill:rgb(0%,0%,0%);fill-opacity:1;" d="M 138.394531 133.542969 C 138.394531 131.652344 135.558594 131.652344 135.558594 133.542969 C 135.558594 135.429688 138.394531 135.429688 138.394531 133.542969 Z M 138.394531 133.542969 "/>
<path style=" stroke:none;fill-rule:nonzero;fill:rgb(0%,0%,0%);fill-opacity:1;" d="M 155.402344 104.082031 C 155.402344 102.191406 152.566406 102.191406 152.566406 104.082031 C 152.566406 105.972656 155.402344 105.972656 155.402344 104.082031 Z M 155.402344 104.082031 "/>
<path style=" stroke:none;fill-rule:nonzero;fill:rgb(0%,0%,0%);fill-opacity:1;" d="M 172.410156 74.625 C 172.410156 72.734375 169.574219 72.734375 169.574219 74.625 C 169.574219 76.515625 172.410156 76.515625 172.410156 74.625 Z M 172.410156 74.625 "/>
<path style=" stroke:none;fill-rule:nonzero;fill:rgb(0%,0%,0%);fill-opacity:1;" d="M 189.417969 45.164062 C 189.417969 43.277344 186.582031 43.277344 186.582031 45.164062 C 186.582031 47.054688 189.417969 47.054688 189.417969 45.164062 Z M 189.417969 45.164062 "/>
<path style=" stroke:none;fill-rule:nonzero;fill:rgb(0%,0%,0%);fill-opacity:1;" d="M 206.425781 15.707031 C 206.425781 13.816406 203.589844 13.816406 203.589844 15.707031 C 203.589844 17.597656 206.425781 17.597656 206.425781 15.707031 Z M 206.425781 15.707031 "/>
<path style=" stroke:none;fill-rule:nonzero;fill:rgb(0%,0%,0%);fill-opacity:1;" d="M 87.371094 280.835938 C 87.371094 278.945312 84.535156 278.945312 84.535156 280.835938 C 84.535156 282.722656 87.371094 282.722656 87.371094 280.835938 Z M 87.371094 280.835938 "/>
<path style=" stroke:none;fill-rule:nonzero;fill:rgb(0%,0%,0%);fill-opacity:1;" d="M 104.378906 251.375 C 104.378906 249.484375 101.542969 249.484375 101.542969 251.375 C 101.542969 253.265625 104.378906 253.265625 104.378906 251.375 Z M 104.378906 251.375 "/>
<path style=" stroke:none;fill-rule:nonzero;fill:rgb(0%,0%,0%);fill-opacity:1;" d="M 121.386719 221.917969 C 121.386719 220.027344 118.550781 220.027344 118.550781 221.917969 C 118.550781 223.808594 121.386719 223.808594 121.386719 221.917969 Z M 121.386719 221.917969 "/>
<path style=" stroke:none;fill-rule:nonzero;fill:rgb(0%,0%,0%);fill-opacity:1;" d="M 138.394531 192.457031 C 138.394531 190.570312 135.558594 190.570312 135.558594 192.457031 C 135.558594 194.347656 138.394531 194.347656 138.394531 192.457031 Z M 138.394531 192.457031 "/>
<path style=" stroke:none;fill-rule:nonzero;fill:rgb(0%,0%,0%);fill-opacity:1;" d="M 155.402344 163 C 155.402344 161.109375 152.566406 161.109375 152.566406 163 C 152.566406 164.890625 155.402344 164.890625 155.402344 163 Z M 155.402344 163 "/>
<path style=" stroke:none;fill-rule:nonzero;fill:rgb(0%,0%,0%);fill-opacity:1;" d="M 172.410156 133.542969 C 172.410156 131.652344 169.574219 131.652344 169.574219 133.542969 C 169.574219 135.429688 172.410156 135.429688 172.410156 133.542969 Z M 172.410156 133.542969 "/>
<path style=" stroke:none;fill-rule:nonzero;fill:rgb(0%,0%,0%);fill-opacity:1;" d="M 189.417969 104.082031 C 189.417969 102.191406 186.582031 102.191406 186.582031 104.082031 C 186.582031 105.972656 189.417969 105.972656 189.417969 104.082031 Z M 189.417969 104.082031 "/>
<path style=" stroke:none;fill-rule:nonzero;fill:rgb(0%,0%,0%);fill-opacity:1;" d="M 206.425781 74.625 C 206.425781 72.734375 203.589844 72.734375 203.589844 74.625 C 203.589844 76.515625 206.425781 76.515625 206.425781 74.625 Z M 206.425781 74.625 "/>
<path style=" stroke:none;fill-rule:nonzero;fill:rgb(0%,0%,0%);fill-opacity:1;" d="M 223.433594 45.164062 C 223.433594 43.277344 220.597656 43.277344 220.597656 45.164062 C 220.597656 47.054688 223.433594 47.054688 223.433594 45.164062 Z M 223.433594 45.164062 "/>
<path style=" stroke:none;fill-rule:nonzero;fill:rgb(0%,0%,0%);fill-opacity:1;" d="M 240.441406 15.707031 C 240.441406 13.816406 237.605469 13.816406 237.605469 15.707031 C 237.605469 17.597656 240.441406 17.597656 240.441406 15.707031 Z M 240.441406 15.707031 "/>
<path style=" stroke:none;fill-rule:nonzero;fill:rgb(0%,0%,0%);fill-opacity:1;" d="M 104.378906 310.292969 C 104.378906 308.402344 101.542969 308.402344 101.542969 310.292969 C 101.542969 312.183594 104.378906 312.183594 104.378906 310.292969 Z M 104.378906 310.292969 "/>
<path style=" stroke:none;fill-rule:nonzero;fill:rgb(0%,0%,0%);fill-opacity:1;" d="M 121.386719 280.835938 C 121.386719 278.945312 118.550781 278.945312 118.550781 280.835938 C 118.550781 282.722656 121.386719 282.722656 121.386719 280.835938 Z M 121.386719 280.835938 "/>
<path style=" stroke:none;fill-rule:nonzero;fill:rgb(0%,0%,0%);fill-opacity:1;" d="M 138.394531 251.375 C 138.394531 249.484375 135.558594 249.484375 135.558594 251.375 C 135.558594 253.265625 138.394531 253.265625 138.394531 251.375 Z M 138.394531 251.375 "/>
<path style=" stroke:none;fill-rule:nonzero;fill:rgb(0%,0%,0%);fill-opacity:1;" d="M 155.402344 221.917969 C 155.402344 220.027344 152.566406 220.027344 152.566406 221.917969 C 152.566406 223.808594 155.402344 223.808594 155.402344 221.917969 Z M 155.402344 221.917969 "/>
<path style=" stroke:none;fill-rule:nonzero;fill:rgb(0%,0%,0%);fill-opacity:1;" d="M 172.410156 192.457031 C 172.410156 190.570312 169.574219 190.570312 169.574219 192.457031 C 169.574219 194.347656 172.410156 194.347656 172.410156 192.457031 Z M 172.410156 192.457031 "/>
<path style=" stroke:none;fill-rule:nonzero;fill:rgb(0%,0%,0%);fill-opacity:1;" d="M 189.375 169.417969 C 189.375 169.402344 189.40625 169.277344 189.40625 169.277344 C 189.40625 169.261719 189.40625 169.167969 189.28125 169.167969 C 189.171875 169.167969 189.15625 169.199219 189.109375 169.386719 L 188.484375 171.902344 C 186.75 171.949219 185.140625 173.402344 185.140625 174.886719 C 185.140625 175.917969 185.90625 176.777344 187.234375 176.855469 C 187.15625 177.199219 187.078125 177.542969 186.984375 177.886719 C 186.859375 178.402344 186.75 178.808594 186.75 178.839844 C 186.75 178.949219 186.828125 178.964844 186.875 178.964844 C 186.9375 178.964844 186.953125 178.949219 186.984375 178.917969 C 187.015625 178.902344 187.078125 178.636719 187.109375 178.480469 L 187.515625 176.855469 C 189.28125 176.808594 190.859375 175.339844 190.859375 173.871094 C 190.859375 173.011719 190.28125 172.011719 188.765625 171.902344 Z M 187.296875 176.621094 C 186.640625 176.589844 185.859375 176.199219 185.859375 175.121094 C 185.859375 173.808594 186.796875 172.277344 188.421875 172.136719 Z M 188.703125 172.136719 C 189.53125 172.183594 190.15625 172.683594 190.15625 173.636719 C 190.15625 174.933594 189.21875 176.496094 187.578125 176.621094 Z M 188.703125 172.136719 "/>
<path style=" stroke:none;fill-rule:nonzero;fill:rgb(0%,0%,0%);fill-opacity:1;" d="M 189.417969 163 C 189.417969 161.109375 186.582031 161.109375 186.582031 163 C 186.582031 164.890625 189.417969 164.890625 189.417969 163 Z M 189.417969 163 "/>
<path style="fill:none;stroke-width:0.566929;stroke-linecap:butt;stroke-linejoin:miter;stroke:rgb(0%,0%,0%);stroke-opacity:1;stroke-miterlimit:10;" d="M 2.835938 0 C 2.835938 -3.78125 -2.835938 -3.78125 -2.835938 0 C -2.835938 3.78125 2.835938 3.78125 2.835938 0 Z M 2.835938 0 " transform="matrix(1,0,0,1,188,163)"/>
<path style="fill:none;stroke-width:0.801759;stroke-linecap:butt;stroke-linejoin:miter;stroke:rgb(0%,0%,0%);stroke-opacity:1;stroke-miterlimit:10;" d="M 14.171875 -12.449219 L 19.84375 -12.449219 L 19.84375 -18.121094 L 14.171875 -18.121094 Z M 14.171875 -12.449219 " transform="matrix(1,0,0,1,188,163)"/>
<path style="fill:none;stroke-width:0.801759;stroke-linecap:butt;stroke-linejoin:miter;stroke:rgb(0%,0%,0%);stroke-opacity:1;stroke-miterlimit:10;" d="M 14.171875 -18.121094 L 19.84375 -18.121094 L 19.84375 -23.789062 L 14.171875 -23.789062 Z M 14.171875 -18.121094 " transform="matrix(1,0,0,1,188,163)"/>
<path style=" stroke:none;fill-rule:nonzero;fill:rgb(0%,0%,0%);fill-opacity:1;" d="M 206.425781 133.542969 C 206.425781 131.652344 203.589844 131.652344 203.589844 133.542969 C 203.589844 135.429688 206.425781 135.429688 206.425781 133.542969 Z M 206.425781 133.542969 "/>
<path style="fill:none;stroke-width:0.801759;stroke-linecap:butt;stroke-linejoin:miter;stroke:rgb(0%,0%,0%);stroke-opacity:1;stroke-miterlimit:10;" d="M 28.347656 -41.910156 L 34.015625 -41.910156 L 34.015625 -47.578125 L 28.347656 -47.578125 Z M 28.347656 -41.910156 " transform="matrix(1,0,0,1,188,163)"/>
<path style="fill:none;stroke-width:0.801759;stroke-linecap:butt;stroke-linejoin:miter;stroke:rgb(0%,0%,0%);stroke-opacity:1;stroke-miterlimit:10;" d="M 34.015625 -41.910156 L 39.683594 -41.910156 L 39.683594 -47.578125 L 34.015625 -47.578125 Z M 34.015625 -41.910156 " transform="matrix(1,0,0,1,188,163)"/>
<path style="fill:none;stroke-width:0.801759;stroke-linecap:butt;stroke-linejoin:miter;stroke:rgb(0%,0%,0%);stroke-opacity:1;stroke-miterlimit:10;" d="M 28.347656 -47.578125 L 34.015625 -47.578125 L 34.015625 -53.246094 L 28.347656 -53.246094 Z M 28.347656 -47.578125 " transform="matrix(1,0,0,1,188,163)"/>
<path style="fill:none;stroke-width:0.801759;stroke-linecap:butt;stroke-linejoin:miter;stroke:rgb(0%,0%,0%);stroke-opacity:1;stroke-miterlimit:10;" d="M 34.015625 -47.578125 L 39.683594 -47.578125 L 39.683594 -53.246094 L 34.015625 -53.246094 Z M 34.015625 -47.578125 " transform="matrix(1,0,0,1,188,163)"/>
<path style=" stroke:none;fill-rule:nonzero;fill:rgb(0%,0%,0%);fill-opacity:1;" d="M 223.433594 104.082031 C 223.433594 102.191406 220.597656 102.191406 220.597656 104.082031 C 220.597656 105.972656 223.433594 105.972656 223.433594 104.082031 Z M 223.433594 104.082031 "/>
<path style="fill:none;stroke-width:0.801759;stroke-linecap:butt;stroke-linejoin:miter;stroke:rgb(0%,0%,0%);stroke-opacity:1;stroke-miterlimit:10;" d="M 42.519531 -71.367188 L 48.1875 -71.367188 L 48.1875 -77.035156 L 42.519531 -77.035156 Z M 42.519531 -71.367188 " transform="matrix(1,0,0,1,188,163)"/>
<path style="fill:none;stroke-width:0.801759;stroke-linecap:butt;stroke-linejoin:miter;stroke:rgb(0%,0%,0%);stroke-opacity:1;stroke-miterlimit:10;" d="M 48.1875 -71.367188 L 53.859375 -71.367188 L 53.859375 -77.035156 L 48.1875 -77.035156 Z M 48.1875 -71.367188 " transform="matrix(1,0,0,1,188,163)"/>
<path style="fill:none;stroke-width:0.801759;stroke-linecap:butt;stroke-linejoin:miter;stroke:rgb(0%,0%,0%);stroke-opacity:1;stroke-miterlimit:10;" d="M 53.859375 -71.367188 L 59.527344 -71.367188 L 59.527344 -77.035156 L 53.859375 -77.035156 Z M 53.859375 -71.367188 " transform="matrix(1,0,0,1,188,163)"/>
<path style="fill:none;stroke-width:0.801759;stroke-linecap:butt;stroke-linejoin:miter;stroke:rgb(0%,0%,0%);stroke-opacity:1;stroke-miterlimit:10;" d="M 42.519531 -77.035156 L 48.1875 -77.035156 L 48.1875 -82.707031 L 42.519531 -82.707031 Z M 42.519531 -77.035156 " transform="matrix(1,0,0,1,188,163)"/>
<path style="fill:none;stroke-width:0.801759;stroke-linecap:butt;stroke-linejoin:miter;stroke:rgb(0%,0%,0%);stroke-opacity:1;stroke-miterlimit:10;" d="M 48.1875 -77.035156 L 53.859375 -77.035156 L 53.859375 -82.707031 L 48.1875 -82.707031 Z M 48.1875 -77.035156 " transform="matrix(1,0,0,1,188,163)"/>
<path style="fill:none;stroke-width:0.801759;stroke-linecap:butt;stroke-linejoin:miter;stroke:rgb(0%,0%,0%);stroke-opacity:1;stroke-miterlimit:10;" d="M 53.859375 -77.035156 L 59.527344 -77.035156 L 59.527344 -82.707031 L 53.859375 -82.707031 Z M 53.859375 -77.035156 " transform="matrix(1,0,0,1,188,163)"/>
<path style=" stroke:none;fill-rule:nonzero;fill:rgb(0%,0%,0%);fill-opacity:1;" d="M 240.441406 74.625 C 240.441406 72.734375 237.605469 72.734375 237.605469 74.625 C 237.605469 76.515625 240.441406 76.515625 240.441406 74.625 Z M 240.441406 74.625 "/>
<path style="fill:none;stroke-width:0.801759;stroke-linecap:butt;stroke-linejoin:miter;stroke:rgb(0%,0%,0%);stroke-opacity:1;stroke-miterlimit:10;" d="M 56.691406 -100.824219 L 62.363281 -100.824219 L 62.363281 -106.496094 L 56.691406 -106.496094 Z M 56.691406 -100.824219 " transform="matrix(1,0,0,1,188,163)"/>
<path style="fill:none;stroke-width:0.801759;stroke-linecap:butt;stroke-linejoin:miter;stroke:rgb(0%,0%,0%);stroke-opacity:1;stroke-miterlimit:10;" d="M 62.363281 -100.824219 L 68.03125 -100.824219 L 68.03125 -106.496094 L 62.363281 -106.496094 Z M 62.363281 -100.824219 " transform="matrix(1,0,0,1,188,163)"/>
<path style="fill:none;stroke-width:0.801759;stroke-linecap:butt;stroke-linejoin:miter;stroke:rgb(0%,0%,0%);stroke-opacity:1;stroke-miterlimit:10;" d="M 68.03125 -100.824219 L 73.699219 -100.824219 L 73.699219 -106.496094 L 68.03125 -106.496094 Z M 68.03125 -100.824219 " transform="matrix(1,0,0,1,188,163)"/>
<path style="fill:none;stroke-width:0.801759;stroke-linecap:butt;stroke-linejoin:miter;stroke:rgb(0%,0%,0%);stroke-opacity:1;stroke-miterlimit:10;" d="M 73.699219 -100.824219 L 79.371094 -100.824219 L 79.371094 -106.496094 L 73.699219 -106.496094 Z M 73.699219 -100.824219 " transform="matrix(1,0,0,1,188,163)"/>
<path style="fill:none;stroke-width:0.801759;stroke-linecap:butt;stroke-linejoin:miter;stroke:rgb(0%,0%,0%);stroke-opacity:1;stroke-miterlimit:10;" d="M 56.691406 -106.496094 L 62.363281 -106.496094 L 62.363281 -112.164062 L 56.691406 -112.164062 Z M 56.691406 -106.496094 " transform="matrix(1,0,0,1,188,163)"/>
<path style="fill:none;stroke-width:0.801759;stroke-linecap:butt;stroke-linejoin:miter;stroke:rgb(0%,0%,0%);stroke-opacity:1;stroke-miterlimit:10;" d="M 62.363281 -106.496094 L 68.03125 -106.496094 L 68.03125 -112.164062 L 62.363281 -112.164062 Z M 62.363281 -106.496094 " transform="matrix(1,0,0,1,188,163)"/>
<path style="fill:none;stroke-width:0.801759;stroke-linecap:butt;stroke-linejoin:miter;stroke:rgb(0%,0%,0%);stroke-opacity:1;stroke-miterlimit:10;" d="M 68.03125 -106.496094 L 73.699219 -106.496094 L 73.699219 -112.164062 L 68.03125 -112.164062 Z M 68.03125 -106.496094 " transform="matrix(1,0,0,1,188,163)"/>
<path style="fill:none;stroke-width:0.801759;stroke-linecap:butt;stroke-linejoin:miter;stroke:rgb(0%,0%,0%);stroke-opacity:1;stroke-miterlimit:10;" d="M 73.699219 -106.496094 L 79.371094 -106.496094 L 79.371094 -112.164062 L 73.699219 -112.164062 Z M 73.699219 -106.496094 " transform="matrix(1,0,0,1,188,163)"/>
<path style=" stroke:none;fill-rule:nonzero;fill:rgb(0%,0%,0%);fill-opacity:1;" d="M 257.449219 45.164062 C 257.449219 43.277344 254.613281 43.277344 254.613281 45.164062 C 254.613281 47.054688 257.449219 47.054688 257.449219 45.164062 Z M 257.449219 45.164062 "/>
<path style="fill:none;stroke-width:0.801759;stroke-linecap:butt;stroke-linejoin:miter;stroke:rgb(0%,0%,0%);stroke-opacity:1;stroke-miterlimit:10;" d="M 70.867188 -130.285156 L 76.535156 -130.285156 L 76.535156 -135.953125 L 70.867188 -135.953125 Z M 70.867188 -130.285156 " transform="matrix(1,0,0,1,188,163)"/>
<path style="fill:none;stroke-width:0.801759;stroke-linecap:butt;stroke-linejoin:miter;stroke:rgb(0%,0%,0%);stroke-opacity:1;stroke-miterlimit:10;" d="M 76.535156 -130.285156 L 82.203125 -130.285156 L 82.203125 -135.953125 L 76.535156 -135.953125 Z M 76.535156 -130.285156 " transform="matrix(1,0,0,1,188,163)"/>
<path style="fill:none;stroke-width:0.801759;stroke-linecap:butt;stroke-linejoin:miter;stroke:rgb(0%,0%,0%);stroke-opacity:1;stroke-miterlimit:10;" d="M 82.203125 -130.285156 L 87.875 -130.285156 L 87.875 -135.953125 L 82.203125 -135.953125 Z M 82.203125 -130.285156 " transform="matrix(1,0,0,1,188,163)"/>
<path style="fill:none;stroke-width:0.801759;stroke-linecap:butt;stroke-linejoin:miter;stroke:rgb(0%,0%,0%);stroke-opacity:1;stroke-miterlimit:10;" d="M 87.875 -130.285156 L 93.542969 -130.285156 L 93.542969 -135.953125 L 87.875 -135.953125 Z M 87.875 -130.285156 " transform="matrix(1,0,0,1,188,163)"/>
<path style="fill:none;stroke-width:0.801759;stroke-linecap:butt;stroke-linejoin:miter;stroke:rgb(0%,0%,0%);stroke-opacity:1;stroke-miterlimit:10;" d="M 93.542969 -130.285156 L 99.210938 -130.285156 L 99.210938 -135.953125 L 93.542969 -135.953125 Z M 93.542969 -130.285156 " transform="matrix(1,0,0,1,188,163)"/>
<path style="fill:none;stroke-width:0.801759;stroke-linecap:butt;stroke-linejoin:miter;stroke:rgb(0%,0%,0%);stroke-opacity:1;stroke-miterlimit:10;" d="M 70.867188 -135.953125 L 76.535156 -135.953125 L 76.535156 -141.625 L 70.867188 -141.625 Z M 70.867188 -135.953125 " transform="matrix(1,0,0,1,188,163)"/>
<path style="fill:none;stroke-width:0.801759;stroke-linecap:butt;stroke-linejoin:miter;stroke:rgb(0%,0%,0%);stroke-opacity:1;stroke-miterlimit:10;" d="M 76.535156 -135.953125 L 82.203125 -135.953125 L 82.203125 -141.625 L 76.535156 -141.625 Z M 76.535156 -135.953125 " transform="matrix(1,0,0,1,188,163)"/>
<path style="fill:none;stroke-width:0.801759;stroke-linecap:butt;stroke-linejoin:miter;stroke:rgb(0%,0%,0%);stroke-opacity:1;stroke-miterlimit:10;" d="M 82.203125 -135.953125 L 87.875 -135.953125 L 87.875 -141.625 L 82.203125 -141.625 Z M 82.203125 -135.953125 " transform="matrix(1,0,0,1,188,163)"/>
<path style="fill:none;stroke-width:0.801759;stroke-linecap:butt;stroke-linejoin:miter;stroke:rgb(0%,0%,0%);stroke-opacity:1;stroke-miterlimit:10;" d="M 87.875 -135.953125 L 93.542969 -135.953125 L 93.542969 -141.625 L 87.875 -141.625 Z M 87.875 -135.953125 " transform="matrix(1,0,0,1,188,163)"/>
<path style="fill:none;stroke-width:0.801759;stroke-linecap:butt;stroke-linejoin:miter;stroke:rgb(0%,0%,0%);stroke-opacity:1;stroke-miterlimit:10;" d="M 93.542969 -135.953125 L 99.210938 -135.953125 L 99.210938 -141.625 L 93.542969 -141.625 Z M 93.542969 -135.953125 " transform="matrix(1,0,0,1,188,163)"/>
<path style=" stroke:none;fill-rule:nonzero;fill:rgb(0%,0%,0%);fill-opacity:1;" d="M 274.457031 15.707031 C 274.457031 13.816406 271.621094 13.816406 271.621094 15.707031 C 271.621094 17.597656 274.457031 17.597656 274.457031 15.707031 Z M 274.457031 15.707031 "/>
<path style=" stroke:none;fill-rule:nonzero;fill:rgb(0%,0%,0%);fill-opacity:1;" d="M 138.394531 310.292969 C 138.394531 308.402344 135.558594 308.402344 135.558594 310.292969 C 135.558594 312.183594 138.394531 312.183594 138.394531 310.292969 Z M 138.394531 310.292969 "/>
<path style=" stroke:none;fill-rule:nonzero;fill:rgb(0%,0%,0%);fill-opacity:1;" d="M 155.402344 280.835938 C 155.402344 278.945312 152.566406 278.945312 152.566406 280.835938 C 152.566406 282.722656 155.402344 282.722656 155.402344 280.835938 Z M 155.402344 280.835938 "/>
<path style=" stroke:none;fill-rule:nonzero;fill:rgb(0%,0%,0%);fill-opacity:1;" d="M 172.410156 251.375 C 172.410156 249.484375 169.574219 249.484375 169.574219 251.375 C 169.574219 253.265625 172.410156 253.265625 172.410156 251.375 Z M 172.410156 251.375 "/>
<path style=" stroke:none;fill-rule:nonzero;fill:rgb(0%,0%,0%);fill-opacity:1;" d="M 189.417969 221.917969 C 189.417969 220.027344 186.582031 220.027344 186.582031 221.917969 C 186.582031 223.808594 189.417969 223.808594 189.417969 221.917969 Z M 189.417969 221.917969 "/>
<path style=" stroke:none;fill-rule:nonzero;fill:rgb(0%,0%,0%);fill-opacity:1;" d="M 206.425781 192.457031 C 206.425781 190.570312 203.589844 190.570312 203.589844 192.457031 C 203.589844 194.347656 206.425781 194.347656 206.425781 192.457031 Z M 206.425781 192.457031 "/>
<path style="fill:none;stroke-width:0.801759;stroke-linecap:butt;stroke-linejoin:miter;stroke:rgb(0%,0%,0%);stroke-opacity:1;stroke-miterlimit:10;" d="M 31.179688 11.339844 L 36.851562 11.339844 L 36.851562 5.667969 L 31.179688 5.667969 Z M 31.179688 11.339844 " transform="matrix(1,0,0,1,188,163)"/>
<path style=" stroke:none;fill-rule:nonzero;fill:rgb(0%,0%,0%);fill-opacity:1;" d="M 223.433594 163 C 223.433594 161.109375 220.597656 161.109375 220.597656 163 C 220.597656 164.890625 223.433594 164.890625 223.433594 163 Z M 223.433594 163 "/>
<path style="fill:none;stroke-width:0.801759;stroke-linecap:butt;stroke-linejoin:miter;stroke:rgb(0%,0%,0%);stroke-opacity:1;stroke-miterlimit:10;" d="M 45.355469 -12.449219 L 51.023438 -12.449219 L 51.023438 -18.121094 L 45.355469 -18.121094 Z M 45.355469 -12.449219 " transform="matrix(1,0,0,1,188,163)"/>
<path style="fill:none;stroke-width:0.801759;stroke-linecap:butt;stroke-linejoin:miter;stroke:rgb(0%,0%,0%);stroke-opacity:1;stroke-miterlimit:10;" d="M 51.023438 -12.449219 L 56.691406 -12.449219 L 56.691406 -18.121094 L 51.023438 -18.121094 Z M 51.023438 -12.449219 " transform="matrix(1,0,0,1,188,163)"/>
<path style="fill:none;stroke-width:0.801759;stroke-linecap:butt;stroke-linejoin:miter;stroke:rgb(0%,0%,0%);stroke-opacity:1;stroke-miterlimit:10;" d="M 45.355469 -18.121094 L 51.023438 -18.121094 L 51.023438 -23.789062 L 45.355469 -23.789062 Z M 45.355469 -18.121094 " transform="matrix(1,0,0,1,188,163)"/>
<path style=" stroke:none;fill-rule:nonzero;fill:rgb(0%,0%,0%);fill-opacity:1;" d="M 240.441406 133.542969 C 240.441406 131.652344 237.605469 131.652344 237.605469 133.542969 C 237.605469 135.429688 240.441406 135.429688 240.441406 133.542969 Z M 240.441406 133.542969 "/>
<path style="fill:none;stroke-width:0.801759;stroke-linecap:butt;stroke-linejoin:miter;stroke:rgb(0%,0%,0%);stroke-opacity:1;stroke-miterlimit:10;" d="M 59.527344 -41.910156 L 65.195312 -41.910156 L 65.195312 -47.578125 L 59.527344 -47.578125 Z M 59.527344 -41.910156 " transform="matrix(1,0,0,1,188,163)"/>
<path style="fill:none;stroke-width:0.801759;stroke-linecap:butt;stroke-linejoin:miter;stroke:rgb(0%,0%,0%);stroke-opacity:1;stroke-miterlimit:10;" d="M 65.195312 -41.910156 L 70.867188 -41.910156 L 70.867188 -47.578125 L 65.195312 -47.578125 Z M 65.195312 -41.910156 " transform="matrix(1,0,0,1,188,163)"/>
<path style="fill:none;stroke-width:0.801759;stroke-linecap:butt;stroke-linejoin:miter;stroke:rgb(0%,0%,0%);stroke-opacity:1;stroke-miterlimit:10;" d="M 70.867188 -41.910156 L 76.535156 -41.910156 L 76.535156 -47.578125 L 70.867188 -47.578125 Z M 70.867188 -41.910156 " transform="matrix(1,0,0,1,188,163)"/>
<path style="fill:none;stroke-width:0.801759;stroke-linecap:butt;stroke-linejoin:miter;stroke:rgb(0%,0%,0%);stroke-opacity:1;stroke-miterlimit:10;" d="M 59.527344 -47.578125 L 65.195312 -47.578125 L 65.195312 -53.246094 L 59.527344 -53.246094 Z M 59.527344 -47.578125 " transform="matrix(1,0,0,1,188,163)"/>
<path style="fill:none;stroke-width:0.801759;stroke-linecap:butt;stroke-linejoin:miter;stroke:rgb(0%,0%,0%);stroke-opacity:1;stroke-miterlimit:10;" d="M 65.195312 -47.578125 L 70.867188 -47.578125 L 70.867188 -53.246094 L 65.195312 -53.246094 Z M 65.195312 -47.578125 " transform="matrix(1,0,0,1,188,163)"/>
<path style=" stroke:none;fill-rule:nonzero;fill:rgb(0%,0%,0%);fill-opacity:1;" d="M 257.449219 104.082031 C 257.449219 102.191406 254.613281 102.191406 254.613281 104.082031 C 254.613281 105.972656 257.449219 105.972656 257.449219 104.082031 Z M 257.449219 104.082031 "/>
<path style="fill:none;stroke-width:0.801759;stroke-linecap:butt;stroke-linejoin:miter;stroke:rgb(0%,0%,0%);stroke-opacity:1;stroke-miterlimit:10;" d="M 73.699219 -71.367188 L 79.371094 -71.367188 L 79.371094 -77.035156 L 73.699219 -77.035156 Z M 73.699219 -71.367188 " transform="matrix(1,0,0,1,188,163)"/>
<path style="fill:none;stroke-width:0.801759;stroke-linecap:butt;stroke-linejoin:miter;stroke:rgb(0%,0%,0%);stroke-opacity:1;stroke-miterlimit:10;" d="M 79.371094 -71.367188 L 85.039062 -71.367188 L 85.039062 -77.035156 L 79.371094 -77.035156 Z M 79.371094 -71.367188 " transform="matrix(1,0,0,1,188,163)"/>
<path style="fill:none;stroke-width:0.801759;stroke-linecap:butt;stroke-linejoin:miter;stroke:rgb(0%,0%,0%);stroke-opacity:1;stroke-miterlimit:10;" d="M 85.039062 -71.367188 L 90.707031 -71.367188 L 90.707031 -77.035156 L 85.039062 -77.035156 Z M 85.039062 -71.367188 " transform="matrix(1,0,0,1,188,163)"/>
<path style="fill:none;stroke-width:0.801759;stroke-linecap:butt;stroke-linejoin:miter;stroke:rgb(0%,0%,0%);stroke-opacity:1;stroke-miterlimit:10;" d="M 90.707031 -71.367188 L 96.378906 -71.367188 L 96.378906 -77.035156 L 90.707031 -77.035156 Z M 90.707031 -71.367188 " transform="matrix(1,0,0,1,188,163)"/>
<path style="fill:none;stroke-width:0.801759;stroke-linecap:butt;stroke-linejoin:miter;stroke:rgb(0%,0%,0%);stroke-opacity:1;stroke-miterlimit:10;" d="M 73.699219 -77.035156 L 79.371094 -77.035156 L 79.371094 -82.707031 L 73.699219 -82.707031 Z M 73.699219 -77.035156 " transform="matrix(1,0,0,1,188,163)"/>
<path style="fill:none;stroke-width:0.801759;stroke-linecap:butt;stroke-linejoin:miter;stroke:rgb(0%,0%,0%);stroke-opacity:1;stroke-miterlimit:10;" d="M 79.371094 -77.035156 L 85.039062 -77.035156 L 85.039062 -82.707031 L 79.371094 -82.707031 Z M 79.371094 -77.035156 " transform="matrix(1,0,0,1,188,163)"/>
<path style="fill:none;stroke-width:0.801759;stroke-linecap:butt;stroke-linejoin:miter;stroke:rgb(0%,0%,0%);stroke-opacity:1;stroke-miterlimit:10;" d="M 85.039062 -77.035156 L 90.707031 -77.035156 L 90.707031 -82.707031 L 85.039062 -82.707031 Z M 85.039062 -77.035156 " transform="matrix(1,0,0,1,188,163)"/>
<path style=" stroke:none;fill-rule:nonzero;fill:rgb(0%,0%,0%);fill-opacity:1;" d="M 274.457031 74.625 C 274.457031 72.734375 271.621094 72.734375 271.621094 74.625 C 271.621094 76.515625 274.457031 76.515625 274.457031 74.625 Z M 274.457031 74.625 "/>
<path style="fill:none;stroke-width:0.801759;stroke-linecap:butt;stroke-linejoin:miter;stroke:rgb(0%,0%,0%);stroke-opacity:1;stroke-miterlimit:10;" d="M 87.875 -100.824219 L 93.542969 -100.824219 L 93.542969 -106.496094 L 87.875 -106.496094 Z M 87.875 -100.824219 " transform="matrix(1,0,0,1,188,163)"/>
<path style="fill:none;stroke-width:0.801759;stroke-linecap:butt;stroke-linejoin:miter;stroke:rgb(0%,0%,0%);stroke-opacity:1;stroke-miterlimit:10;" d="M 93.542969 -100.824219 L 99.210938 -100.824219 L 99.210938 -106.496094 L 93.542969 -106.496094 Z M 93.542969 -100.824219 " transform="matrix(1,0,0,1,188,163)"/>
<path style="fill:none;stroke-width:0.801759;stroke-linecap:butt;stroke-linejoin:miter;stroke:rgb(0%,0%,0%);stroke-opacity:1;stroke-miterlimit:10;" d="M 99.210938 -100.824219 L 104.882812 -100.824219 L 104.882812 -106.496094 L 99.210938 -106.496094 Z M 99.210938 -100.824219 " transform="matrix(1,0,0,1,188,163)"/>
<path style="fill:none;stroke-width:0.801759;stroke-linecap:butt;stroke-linejoin:miter;stroke:rgb(0%,0%,0%);stroke-opacity:1;stroke-miterlimit:10;" d="M 104.882812 -100.824219 L 110.550781 -100.824219 L 110.550781 -106.496094 L 104.882812 -106.496094 Z M 104.882812 -100.824219 " transform="matrix(1,0,0,1,188,163)"/>
<path style="fill:none;stroke-width:0.801759;stroke-linecap:butt;stroke-linejoin:miter;stroke:rgb(0%,0%,0%);stroke-opacity:1;stroke-miterlimit:10;" d="M 110.550781 -100.824219 L 116.21875 -100.824219 L 116.21875 -106.496094 L 110.550781 -106.496094 Z M 110.550781 -100.824219 " transform="matrix(1,0,0,1,188,163)"/>
<path style="fill:none;stroke-width:0.801759;stroke-linecap:butt;stroke-linejoin:miter;stroke:rgb(0%,0%,0%);stroke-opacity:1;stroke-miterlimit:10;" d="M 87.875 -106.496094 L 93.542969 -106.496094 L 93.542969 -112.164062 L 87.875 -112.164062 Z M 87.875 -106.496094 " transform="matrix(1,0,0,1,188,163)"/>
<path style="fill:none;stroke-width:0.801759;stroke-linecap:butt;stroke-linejoin:miter;stroke:rgb(0%,0%,0%);stroke-opacity:1;stroke-miterlimit:10;" d="M 93.542969 -106.496094 L 99.210938 -106.496094 L 99.210938 -112.164062 L 93.542969 -112.164062 Z M 93.542969 -106.496094 " transform="matrix(1,0,0,1,188,163)"/>
<path style="fill:none;stroke-width:0.801759;stroke-linecap:butt;stroke-linejoin:miter;stroke:rgb(0%,0%,0%);stroke-opacity:1;stroke-miterlimit:10;" d="M 99.210938 -106.496094 L 104.882812 -106.496094 L 104.882812 -112.164062 L 99.210938 -112.164062 Z M 99.210938 -106.496094 " transform="matrix(1,0,0,1,188,163)"/>
<path style="fill:none;stroke-width:0.801759;stroke-linecap:butt;stroke-linejoin:miter;stroke:rgb(0%,0%,0%);stroke-opacity:1;stroke-miterlimit:10;" d="M 104.882812 -106.496094 L 110.550781 -106.496094 L 110.550781 -112.164062 L 104.882812 -112.164062 Z M 104.882812 -106.496094 " transform="matrix(1,0,0,1,188,163)"/>
<path style=" stroke:none;fill-rule:nonzero;fill:rgb(0%,0%,0%);fill-opacity:1;" d="M 291.464844 45.164062 C 291.464844 43.277344 288.628906 43.277344 288.628906 45.164062 C 288.628906 47.054688 291.464844 47.054688 291.464844 45.164062 Z M 291.464844 45.164062 "/>
<path style=" stroke:none;fill-rule:nonzero;fill:rgb(0%,0%,0%);fill-opacity:1;" d="M 172.410156 310.292969 C 172.410156 308.402344 169.574219 308.402344 169.574219 310.292969 C 169.574219 312.183594 172.410156 312.183594 172.410156 310.292969 Z M 172.410156 310.292969 "/>
<path style=" stroke:none;fill-rule:nonzero;fill:rgb(0%,0%,0%);fill-opacity:1;" d="M 189.417969 280.835938 C 189.417969 278.945312 186.582031 278.945312 186.582031 280.835938 C 186.582031 282.722656 189.417969 282.722656 189.417969 280.835938 Z M 189.417969 280.835938 "/>
<path style=" stroke:none;fill-rule:nonzero;fill:rgb(0%,0%,0%);fill-opacity:1;" d="M 206.425781 251.375 C 206.425781 249.484375 203.589844 249.484375 203.589844 251.375 C 203.589844 253.265625 206.425781 253.265625 206.425781 251.375 Z M 206.425781 251.375 "/>
<path style=" stroke:none;fill-rule:nonzero;fill:rgb(0%,0%,0%);fill-opacity:1;" d="M 223.433594 221.917969 C 223.433594 220.027344 220.597656 220.027344 220.597656 221.917969 C 220.597656 223.808594 223.433594 223.808594 223.433594 221.917969 Z M 223.433594 221.917969 "/>
<path style=" stroke:none;fill-rule:nonzero;fill:rgb(0%,0%,0%);fill-opacity:1;" d="M 240.441406 192.457031 C 240.441406 190.570312 237.605469 190.570312 237.605469 192.457031 C 237.605469 194.347656 240.441406 194.347656 240.441406 192.457031 Z M 240.441406 192.457031 "/>
<path style="fill:none;stroke-width:0.801759;stroke-linecap:butt;stroke-linejoin:miter;stroke:rgb(0%,0%,0%);stroke-opacity:1;stroke-miterlimit:10;" d="M 62.363281 11.339844 L 68.03125 11.339844 L 68.03125 5.667969 L 62.363281 5.667969 Z M 62.363281 11.339844 " transform="matrix(1,0,0,1,188,163)"/>
<path style="fill:none;stroke-width:0.801759;stroke-linecap:butt;stroke-linejoin:miter;stroke:rgb(0%,0%,0%);stroke-opacity:1;stroke-miterlimit:10;" d="M 68.03125 11.339844 L 73.699219 11.339844 L 73.699219 5.667969 L 68.03125 5.667969 Z M 68.03125 11.339844 " transform="matrix(1,0,0,1,188,163)"/>
<path style=" stroke:none;fill-rule:nonzero;fill:rgb(0%,0%,0%);fill-opacity:1;" d="M 257.449219 163 C 257.449219 161.109375 254.613281 161.109375 254.613281 163 C 254.613281 164.890625 257.449219 164.890625 257.449219 163 Z M 257.449219 163 "/>
<path style="fill:none;stroke-width:0.801759;stroke-linecap:butt;stroke-linejoin:miter;stroke:rgb(0%,0%,0%);stroke-opacity:1;stroke-miterlimit:10;" d="M 76.535156 -12.449219 L 82.203125 -12.449219 L 82.203125 -18.121094 L 76.535156 -18.121094 Z M 76.535156 -12.449219 " transform="matrix(1,0,0,1,188,163)"/>
<path style="fill:none;stroke-width:0.801759;stroke-linecap:butt;stroke-linejoin:miter;stroke:rgb(0%,0%,0%);stroke-opacity:1;stroke-miterlimit:10;" d="M 82.203125 -12.449219 L 87.875 -12.449219 L 87.875 -18.121094 L 82.203125 -18.121094 Z M 82.203125 -12.449219 " transform="matrix(1,0,0,1,188,163)"/>
<path style="fill:none;stroke-width:0.801759;stroke-linecap:butt;stroke-linejoin:miter;stroke:rgb(0%,0%,0%);stroke-opacity:1;stroke-miterlimit:10;" d="M 87.875 -12.449219 L 93.542969 -12.449219 L 93.542969 -18.121094 L 87.875 -18.121094 Z M 87.875 -12.449219 " transform="matrix(1,0,0,1,188,163)"/>
<path style="fill:none;stroke-width:0.801759;stroke-linecap:butt;stroke-linejoin:miter;stroke:rgb(0%,0%,0%);stroke-opacity:1;stroke-miterlimit:10;" d="M 76.535156 -18.121094 L 82.203125 -18.121094 L 82.203125 -23.789062 L 76.535156 -23.789062 Z M 76.535156 -18.121094 " transform="matrix(1,0,0,1,188,163)"/>
<path style=" stroke:none;fill-rule:nonzero;fill:rgb(0%,0%,0%);fill-opacity:1;" d="M 274.457031 133.542969 C 274.457031 131.652344 271.621094 131.652344 271.621094 133.542969 C 271.621094 135.429688 274.457031 135.429688 274.457031 133.542969 Z M 274.457031 133.542969 "/>
<path style="fill:none;stroke-width:0.801759;stroke-linecap:butt;stroke-linejoin:miter;stroke:rgb(0%,0%,0%);stroke-opacity:1;stroke-miterlimit:10;" d="M 90.707031 -41.910156 L 96.378906 -41.910156 L 96.378906 -47.578125 L 90.707031 -47.578125 Z M 90.707031 -41.910156 " transform="matrix(1,0,0,1,188,163)"/>
<path style="fill:none;stroke-width:0.801759;stroke-linecap:butt;stroke-linejoin:miter;stroke:rgb(0%,0%,0%);stroke-opacity:1;stroke-miterlimit:10;" d="M 96.378906 -41.910156 L 102.046875 -41.910156 L 102.046875 -47.578125 L 96.378906 -47.578125 Z M 96.378906 -41.910156 " transform="matrix(1,0,0,1,188,163)"/>
<path style="fill:none;stroke-width:0.801759;stroke-linecap:butt;stroke-linejoin:miter;stroke:rgb(0%,0%,0%);stroke-opacity:1;stroke-miterlimit:10;" d="M 102.046875 -41.910156 L 107.714844 -41.910156 L 107.714844 -47.578125 L 102.046875 -47.578125 Z M 102.046875 -41.910156 " transform="matrix(1,0,0,1,188,163)"/>
<path style="fill:none;stroke-width:0.801759;stroke-linecap:butt;stroke-linejoin:miter;stroke:rgb(0%,0%,0%);stroke-opacity:1;stroke-miterlimit:10;" d="M 107.714844 -41.910156 L 113.386719 -41.910156 L 113.386719 -47.578125 L 107.714844 -47.578125 Z M 107.714844 -41.910156 " transform="matrix(1,0,0,1,188,163)"/>
<path style="fill:none;stroke-width:0.801759;stroke-linecap:butt;stroke-linejoin:miter;stroke:rgb(0%,0%,0%);stroke-opacity:1;stroke-miterlimit:10;" d="M 90.707031 -47.578125 L 96.378906 -47.578125 L 96.378906 -53.246094 L 90.707031 -53.246094 Z M 90.707031 -47.578125 " transform="matrix(1,0,0,1,188,163)"/>
<path style="fill:none;stroke-width:0.801759;stroke-linecap:butt;stroke-linejoin:miter;stroke:rgb(0%,0%,0%);stroke-opacity:1;stroke-miterlimit:10;" d="M 96.378906 -47.578125 L 102.046875 -47.578125 L 102.046875 -53.246094 L 96.378906 -53.246094 Z M 96.378906 -47.578125 " transform="matrix(1,0,0,1,188,163)"/>
<path style=" stroke:none;fill-rule:nonzero;fill:rgb(0%,0%,0%);fill-opacity:1;" d="M 291.464844 104.082031 C 291.464844 102.191406 288.628906 102.191406 288.628906 104.082031 C 288.628906 105.972656 291.464844 105.972656 291.464844 104.082031 Z M 291.464844 104.082031 "/>
<path style="fill:none;stroke-width:0.801759;stroke-linecap:butt;stroke-linejoin:miter;stroke:rgb(0%,0%,0%);stroke-opacity:1;stroke-miterlimit:10;" d="M 104.882812 -71.367188 L 110.550781 -71.367188 L 110.550781 -77.035156 L 104.882812 -77.035156 Z M 104.882812 -71.367188 " transform="matrix(1,0,0,1,188,163)"/>
<path style="fill:none;stroke-width:0.801759;stroke-linecap:butt;stroke-linejoin:miter;stroke:rgb(0%,0%,0%);stroke-opacity:1;stroke-miterlimit:10;" d="M 110.550781 -71.367188 L 116.21875 -71.367188 L 116.21875 -77.035156 L 110.550781 -77.035156 Z M 110.550781 -71.367188 " transform="matrix(1,0,0,1,188,163)"/>
<path style="fill:none;stroke-width:0.801759;stroke-linecap:butt;stroke-linejoin:miter;stroke:rgb(0%,0%,0%);stroke-opacity:1;stroke-miterlimit:10;" d="M 116.21875 -71.367188 L 121.890625 -71.367188 L 121.890625 -77.035156 L 116.21875 -77.035156 Z M 116.21875 -71.367188 " transform="matrix(1,0,0,1,188,163)"/>
<path style="fill:none;stroke-width:0.801759;stroke-linecap:butt;stroke-linejoin:miter;stroke:rgb(0%,0%,0%);stroke-opacity:1;stroke-miterlimit:10;" d="M 121.890625 -71.367188 L 127.558594 -71.367188 L 127.558594 -77.035156 L 121.890625 -77.035156 Z M 121.890625 -71.367188 " transform="matrix(1,0,0,1,188,163)"/>
<path style="fill:none;stroke-width:0.801759;stroke-linecap:butt;stroke-linejoin:miter;stroke:rgb(0%,0%,0%);stroke-opacity:1;stroke-miterlimit:10;" d="M 127.558594 -71.367188 L 133.226562 -71.367188 L 133.226562 -77.035156 L 127.558594 -77.035156 Z M 127.558594 -71.367188 " transform="matrix(1,0,0,1,188,163)"/>
<path style="fill:none;stroke-width:0.801759;stroke-linecap:butt;stroke-linejoin:miter;stroke:rgb(0%,0%,0%);stroke-opacity:1;stroke-miterlimit:10;" d="M 104.882812 -77.035156 L 110.550781 -77.035156 L 110.550781 -82.707031 L 104.882812 -82.707031 Z M 104.882812 -77.035156 " transform="matrix(1,0,0,1,188,163)"/>
<path style="fill:none;stroke-width:0.801759;stroke-linecap:butt;stroke-linejoin:miter;stroke:rgb(0%,0%,0%);stroke-opacity:1;stroke-miterlimit:10;" d="M 110.550781 -77.035156 L 116.21875 -77.035156 L 116.21875 -82.707031 L 110.550781 -82.707031 Z M 110.550781 -77.035156 " transform="matrix(1,0,0,1,188,163)"/>
<path style="fill:none;stroke-width:0.801759;stroke-linecap:butt;stroke-linejoin:miter;stroke:rgb(0%,0%,0%);stroke-opacity:1;stroke-miterlimit:10;" d="M 116.21875 -77.035156 L 121.890625 -77.035156 L 121.890625 -82.707031 L 116.21875 -82.707031 Z M 116.21875 -77.035156 " transform="matrix(1,0,0,1,188,163)"/>
<path style=" stroke:none;fill-rule:nonzero;fill:rgb(0%,0%,0%);fill-opacity:1;" d="M 308.472656 74.625 C 308.472656 72.734375 305.636719 72.734375 305.636719 74.625 C 305.636719 76.515625 308.472656 76.515625 308.472656 74.625 Z M 308.472656 74.625 "/>
<path style=" stroke:none;fill-rule:nonzero;fill:rgb(0%,0%,0%);fill-opacity:1;" d="M 206.425781 310.292969 C 206.425781 308.402344 203.589844 308.402344 203.589844 310.292969 C 203.589844 312.183594 206.425781 312.183594 206.425781 310.292969 Z M 206.425781 310.292969 "/>
<path style=" stroke:none;fill-rule:nonzero;fill:rgb(0%,0%,0%);fill-opacity:1;" d="M 223.433594 280.835938 C 223.433594 278.945312 220.597656 278.945312 220.597656 280.835938 C 220.597656 282.722656 223.433594 282.722656 223.433594 280.835938 Z M 223.433594 280.835938 "/>
<path style=" stroke:none;fill-rule:nonzero;fill:rgb(0%,0%,0%);fill-opacity:1;" d="M 240.441406 251.375 C 240.441406 249.484375 237.605469 249.484375 237.605469 251.375 C 237.605469 253.265625 240.441406 253.265625 240.441406 251.375 Z M 240.441406 251.375 "/>
<path style=" stroke:none;fill-rule:nonzero;fill:rgb(0%,0%,0%);fill-opacity:1;" d="M 257.449219 221.917969 C 257.449219 220.027344 254.613281 220.027344 254.613281 221.917969 C 254.613281 223.808594 257.449219 223.808594 257.449219 221.917969 Z M 257.449219 221.917969 "/>
<path style=" stroke:none;fill-rule:nonzero;fill:rgb(0%,0%,0%);fill-opacity:1;" d="M 274.457031 192.457031 C 274.457031 190.570312 271.621094 190.570312 271.621094 192.457031 C 271.621094 194.347656 274.457031 194.347656 274.457031 192.457031 Z M 274.457031 192.457031 "/>
<path style="fill:none;stroke-width:0.801759;stroke-linecap:butt;stroke-linejoin:miter;stroke:rgb(0%,0%,0%);stroke-opacity:1;stroke-miterlimit:10;" d="M 93.542969 11.339844 L 99.210938 11.339844 L 99.210938 5.667969 L 93.542969 5.667969 Z M 93.542969 11.339844 " transform="matrix(1,0,0,1,188,163)"/>
<path style="fill:none;stroke-width:0.801759;stroke-linecap:butt;stroke-linejoin:miter;stroke:rgb(0%,0%,0%);stroke-opacity:1;stroke-miterlimit:10;" d="M 99.210938 11.339844 L 104.882812 11.339844 L 104.882812 5.667969 L 99.210938 5.667969 Z M 99.210938 11.339844 " transform="matrix(1,0,0,1,188,163)"/>
<path style="fill:none;stroke-width:0.801759;stroke-linecap:butt;stroke-linejoin:miter;stroke:rgb(0%,0%,0%);stroke-opacity:1;stroke-miterlimit:10;" d="M 104.882812 11.339844 L 110.550781 11.339844 L 110.550781 5.667969 L 104.882812 5.667969 Z M 104.882812 11.339844 " transform="matrix(1,0,0,1,188,163)"/>
<path style=" stroke:none;fill-rule:nonzero;fill:rgb(0%,0%,0%);fill-opacity:1;" d="M 291.464844 163 C 291.464844 161.109375 288.628906 161.109375 288.628906 163 C 288.628906 164.890625 291.464844 164.890625 291.464844 163 Z M 291.464844 163 "/>
<path style="fill:none;stroke-width:0.801759;stroke-linecap:butt;stroke-linejoin:miter;stroke:rgb(0%,0%,0%);stroke-opacity:1;stroke-miterlimit:10;" d="M 107.714844 -12.449219 L 113.386719 -12.449219 L 113.386719 -18.121094 L 107.714844 -18.121094 Z M 107.714844 -12.449219 " transform="matrix(1,0,0,1,188,163)"/>
<path style="fill:none;stroke-width:0.801759;stroke-linecap:butt;stroke-linejoin:miter;stroke:rgb(0%,0%,0%);stroke-opacity:1;stroke-miterlimit:10;" d="M 113.386719 -12.449219 L 119.054688 -12.449219 L 119.054688 -18.121094 L 113.386719 -18.121094 Z M 113.386719 -12.449219 " transform="matrix(1,0,0,1,188,163)"/>
<path style="fill:none;stroke-width:0.801759;stroke-linecap:butt;stroke-linejoin:miter;stroke:rgb(0%,0%,0%);stroke-opacity:1;stroke-miterlimit:10;" d="M 119.054688 -12.449219 L 124.722656 -12.449219 L 124.722656 -18.121094 L 119.054688 -18.121094 Z M 119.054688 -12.449219 " transform="matrix(1,0,0,1,188,163)"/>
<path style="fill:none;stroke-width:0.801759;stroke-linecap:butt;stroke-linejoin:miter;stroke:rgb(0%,0%,0%);stroke-opacity:1;stroke-miterlimit:10;" d="M 124.722656 -12.449219 L 130.394531 -12.449219 L 130.394531 -18.121094 L 124.722656 -18.121094 Z M 124.722656 -12.449219 " transform="matrix(1,0,0,1,188,163)"/>
<path style="fill:none;stroke-width:0.801759;stroke-linecap:butt;stroke-linejoin:miter;stroke:rgb(0%,0%,0%);stroke-opacity:1;stroke-miterlimit:10;" d="M 107.714844 -18.121094 L 113.386719 -18.121094 L 113.386719 -23.789062 L 107.714844 -23.789062 Z M 107.714844 -18.121094 " transform="matrix(1,0,0,1,188,163)"/>
<path style=" stroke:none;fill-rule:nonzero;fill:rgb(0%,0%,0%);fill-opacity:1;" d="M 308.472656 133.542969 C 308.472656 131.652344 305.636719 131.652344 305.636719 133.542969 C 305.636719 135.429688 308.472656 135.429688 308.472656 133.542969 Z M 308.472656 133.542969 "/>
<path style="fill:none;stroke-width:0.801759;stroke-linecap:butt;stroke-linejoin:miter;stroke:rgb(0%,0%,0%);stroke-opacity:1;stroke-miterlimit:10;" d="M 121.890625 -41.910156 L 127.558594 -41.910156 L 127.558594 -47.578125 L 121.890625 -47.578125 Z M 121.890625 -41.910156 " transform="matrix(1,0,0,1,188,163)"/>
<path style="fill:none;stroke-width:0.801759;stroke-linecap:butt;stroke-linejoin:miter;stroke:rgb(0%,0%,0%);stroke-opacity:1;stroke-miterlimit:10;" d="M 127.558594 -41.910156 L 133.226562 -41.910156 L 133.226562 -47.578125 L 127.558594 -47.578125 Z M 127.558594 -41.910156 " transform="matrix(1,0,0,1,188,163)"/>
<path style="fill:none;stroke-width:0.801759;stroke-linecap:butt;stroke-linejoin:miter;stroke:rgb(0%,0%,0%);stroke-opacity:1;stroke-miterlimit:10;" d="M 133.226562 -41.910156 L 138.898438 -41.910156 L 138.898438 -47.578125 L 133.226562 -47.578125 Z M 133.226562 -41.910156 " transform="matrix(1,0,0,1,188,163)"/>
<path style="fill:none;stroke-width:0.801759;stroke-linecap:butt;stroke-linejoin:miter;stroke:rgb(0%,0%,0%);stroke-opacity:1;stroke-miterlimit:10;" d="M 138.898438 -41.910156 L 144.566406 -41.910156 L 144.566406 -47.578125 L 138.898438 -47.578125 Z M 138.898438 -41.910156 " transform="matrix(1,0,0,1,188,163)"/>
<path style="fill:none;stroke-width:0.801759;stroke-linecap:butt;stroke-linejoin:miter;stroke:rgb(0%,0%,0%);stroke-opacity:1;stroke-miterlimit:10;" d="M 144.566406 -41.910156 L 150.234375 -41.910156 L 150.234375 -47.578125 L 144.566406 -47.578125 Z M 144.566406 -41.910156 " transform="matrix(1,0,0,1,188,163)"/>
<path style="fill:none;stroke-width:0.801759;stroke-linecap:butt;stroke-linejoin:miter;stroke:rgb(0%,0%,0%);stroke-opacity:1;stroke-miterlimit:10;" d="M 121.890625 -47.578125 L 127.558594 -47.578125 L 127.558594 -53.246094 L 121.890625 -53.246094 Z M 121.890625 -47.578125 " transform="matrix(1,0,0,1,188,163)"/>
<path style="fill:none;stroke-width:0.801759;stroke-linecap:butt;stroke-linejoin:miter;stroke:rgb(0%,0%,0%);stroke-opacity:1;stroke-miterlimit:10;" d="M 127.558594 -47.578125 L 133.226562 -47.578125 L 133.226562 -53.246094 L 127.558594 -53.246094 Z M 127.558594 -47.578125 " transform="matrix(1,0,0,1,188,163)"/>
<path style=" stroke:none;fill-rule:nonzero;fill:rgb(0%,0%,0%);fill-opacity:1;" d="M 325.480469 104.082031 C 325.480469 102.191406 322.644531 102.191406 322.644531 104.082031 C 322.644531 105.972656 325.480469 105.972656 325.480469 104.082031 Z M 325.480469 104.082031 "/>
<path style=" stroke:none;fill-rule:nonzero;fill:rgb(0%,0%,0%);fill-opacity:1;" d="M 240.441406 310.292969 C 240.441406 308.402344 237.605469 308.402344 237.605469 310.292969 C 237.605469 312.183594 240.441406 312.183594 240.441406 310.292969 Z M 240.441406 310.292969 "/>
<path style=" stroke:none;fill-rule:nonzero;fill:rgb(0%,0%,0%);fill-opacity:1;" d="M 257.449219 280.835938 C 257.449219 278.945312 254.613281 278.945312 254.613281 280.835938 C 254.613281 282.722656 257.449219 282.722656 257.449219 280.835938 Z M 257.449219 280.835938 "/>
<path style=" stroke:none;fill-rule:nonzero;fill:rgb(0%,0%,0%);fill-opacity:1;" d="M 274.457031 251.375 C 274.457031 249.484375 271.621094 249.484375 271.621094 251.375 C 271.621094 253.265625 274.457031 253.265625 274.457031 251.375 Z M 274.457031 251.375 "/>
<path style=" stroke:none;fill-rule:nonzero;fill:rgb(0%,0%,0%);fill-opacity:1;" d="M 291.464844 221.917969 C 291.464844 220.027344 288.628906 220.027344 288.628906 221.917969 C 288.628906 223.808594 291.464844 223.808594 291.464844 221.917969 Z M 291.464844 221.917969 "/>
<path style=" stroke:none;fill-rule:nonzero;fill:rgb(0%,0%,0%);fill-opacity:1;" d="M 308.472656 192.457031 C 308.472656 190.570312 305.636719 190.570312 305.636719 192.457031 C 305.636719 194.347656 308.472656 194.347656 308.472656 192.457031 Z M 308.472656 192.457031 "/>
<path style="fill:none;stroke-width:0.801759;stroke-linecap:butt;stroke-linejoin:miter;stroke:rgb(0%,0%,0%);stroke-opacity:1;stroke-miterlimit:10;" d="M 124.722656 11.339844 L 130.394531 11.339844 L 130.394531 5.667969 L 124.722656 5.667969 Z M 124.722656 11.339844 " transform="matrix(1,0,0,1,188,163)"/>
<path style="fill:none;stroke-width:0.801759;stroke-linecap:butt;stroke-linejoin:miter;stroke:rgb(0%,0%,0%);stroke-opacity:1;stroke-miterlimit:10;" d="M 130.394531 11.339844 L 136.0625 11.339844 L 136.0625 5.667969 L 130.394531 5.667969 Z M 130.394531 11.339844 " transform="matrix(1,0,0,1,188,163)"/>
<path style="fill:none;stroke-width:0.801759;stroke-linecap:butt;stroke-linejoin:miter;stroke:rgb(0%,0%,0%);stroke-opacity:1;stroke-miterlimit:10;" d="M 136.0625 11.339844 L 141.730469 11.339844 L 141.730469 5.667969 L 136.0625 5.667969 Z M 136.0625 11.339844 " transform="matrix(1,0,0,1,188,163)"/>
<path style="fill:none;stroke-width:0.801759;stroke-linecap:butt;stroke-linejoin:miter;stroke:rgb(0%,0%,0%);stroke-opacity:1;stroke-miterlimit:10;" d="M 141.730469 11.339844 L 147.402344 11.339844 L 147.402344 5.667969 L 141.730469 5.667969 Z M 141.730469 11.339844 " transform="matrix(1,0,0,1,188,163)"/>
<path style=" stroke:none;fill-rule:nonzero;fill:rgb(0%,0%,0%);fill-opacity:1;" d="M 325.480469 163 C 325.480469 161.109375 322.644531 161.109375 322.644531 163 C 322.644531 164.890625 325.480469 164.890625 325.480469 163 Z M 325.480469 163 "/>
<path style="fill:none;stroke-width:0.801759;stroke-linecap:butt;stroke-linejoin:miter;stroke:rgb(0%,0%,0%);stroke-opacity:1;stroke-miterlimit:10;" d="M 138.898438 -12.449219 L 144.566406 -12.449219 L 144.566406 -18.121094 L 138.898438 -18.121094 Z M 138.898438 -12.449219 " transform="matrix(1,0,0,1,188,163)"/>
<path style="fill:none;stroke-width:0.801759;stroke-linecap:butt;stroke-linejoin:miter;stroke:rgb(0%,0%,0%);stroke-opacity:1;stroke-miterlimit:10;" d="M 144.566406 -12.449219 L 150.234375 -12.449219 L 150.234375 -18.121094 L 144.566406 -18.121094 Z M 144.566406 -12.449219 " transform="matrix(1,0,0,1,188,163)"/>
<path style="fill:none;stroke-width:0.801759;stroke-linecap:butt;stroke-linejoin:miter;stroke:rgb(0%,0%,0%);stroke-opacity:1;stroke-miterlimit:10;" d="M 150.234375 -12.449219 L 155.90625 -12.449219 L 155.90625 -18.121094 L 150.234375 -18.121094 Z M 150.234375 -12.449219 " transform="matrix(1,0,0,1,188,163)"/>
<path style="fill:none;stroke-width:0.801759;stroke-linecap:butt;stroke-linejoin:miter;stroke:rgb(0%,0%,0%);stroke-opacity:1;stroke-miterlimit:10;" d="M 155.90625 -12.449219 L 161.574219 -12.449219 L 161.574219 -18.121094 L 155.90625 -18.121094 Z M 155.90625 -12.449219 " transform="matrix(1,0,0,1,188,163)"/>
<path style="fill:none;stroke-width:0.801759;stroke-linecap:butt;stroke-linejoin:miter;stroke:rgb(0%,0%,0%);stroke-opacity:1;stroke-miterlimit:10;" d="M 161.574219 -12.449219 L 167.242188 -12.449219 L 167.242188 -18.121094 L 161.574219 -18.121094 Z M 161.574219 -12.449219 " transform="matrix(1,0,0,1,188,163)"/>
<path style="fill:none;stroke-width:0.801759;stroke-linecap:butt;stroke-linejoin:miter;stroke:rgb(0%,0%,0%);stroke-opacity:1;stroke-miterlimit:10;" d="M 138.898438 -18.121094 L 144.566406 -18.121094 L 144.566406 -23.789062 L 138.898438 -23.789062 Z M 138.898438 -18.121094 " transform="matrix(1,0,0,1,188,163)"/>
<path style=" stroke:none;fill-rule:nonzero;fill:rgb(0%,0%,0%);fill-opacity:1;" d="M 342.488281 133.542969 C 342.488281 131.652344 339.652344 131.652344 339.652344 133.542969 C 339.652344 135.429688 342.488281 135.429688 342.488281 133.542969 Z M 342.488281 133.542969 "/>
<path style=" stroke:none;fill-rule:nonzero;fill:rgb(0%,0%,0%);fill-opacity:1;" d="M 274.457031 310.292969 C 274.457031 308.402344 271.621094 308.402344 271.621094 310.292969 C 271.621094 312.183594 274.457031 312.183594 274.457031 310.292969 Z M 274.457031 310.292969 "/>
<path style=" stroke:none;fill-rule:nonzero;fill:rgb(0%,0%,0%);fill-opacity:1;" d="M 291.464844 280.835938 C 291.464844 278.945312 288.628906 278.945312 288.628906 280.835938 C 288.628906 282.722656 291.464844 282.722656 291.464844 280.835938 Z M 291.464844 280.835938 "/>
<path style=" stroke:none;fill-rule:nonzero;fill:rgb(0%,0%,0%);fill-opacity:1;" d="M 308.472656 251.375 C 308.472656 249.484375 305.636719 249.484375 305.636719 251.375 C 305.636719 253.265625 308.472656 253.265625 308.472656 251.375 Z M 308.472656 251.375 "/>
<path style=" stroke:none;fill-rule:nonzero;fill:rgb(0%,0%,0%);fill-opacity:1;" d="M 325.480469 221.917969 C 325.480469 220.027344 322.644531 220.027344 322.644531 221.917969 C 322.644531 223.808594 325.480469 223.808594 325.480469 221.917969 Z M 325.480469 221.917969 "/>
<path style=" stroke:none;fill-rule:nonzero;fill:rgb(0%,0%,0%);fill-opacity:1;" d="M 342.488281 192.457031 C 342.488281 190.570312 339.652344 190.570312 339.652344 192.457031 C 339.652344 194.347656 342.488281 194.347656 342.488281 192.457031 Z M 342.488281 192.457031 "/>
<path style="fill:none;stroke-width:0.801759;stroke-linecap:butt;stroke-linejoin:miter;stroke:rgb(0%,0%,0%);stroke-opacity:1;stroke-miterlimit:10;" d="M 155.90625 11.339844 L 161.574219 11.339844 L 161.574219 5.667969 L 155.90625 5.667969 Z M 155.90625 11.339844 " transform="matrix(1,0,0,1,188,163)"/>
<path style="fill:none;stroke-width:0.801759;stroke-linecap:butt;stroke-linejoin:miter;stroke:rgb(0%,0%,0%);stroke-opacity:1;stroke-miterlimit:10;" d="M 161.574219 11.339844 L 167.242188 11.339844 L 167.242188 5.667969 L 161.574219 5.667969 Z M 161.574219 11.339844 " transform="matrix(1,0,0,1,188,163)"/>
<path style="fill:none;stroke-width:0.801759;stroke-linecap:butt;stroke-linejoin:miter;stroke:rgb(0%,0%,0%);stroke-opacity:1;stroke-miterlimit:10;" d="M 167.242188 11.339844 L 172.914062 11.339844 L 172.914062 5.667969 L 167.242188 5.667969 Z M 167.242188 11.339844 " transform="matrix(1,0,0,1,188,163)"/>
<path style="fill:none;stroke-width:0.801759;stroke-linecap:butt;stroke-linejoin:miter;stroke:rgb(0%,0%,0%);stroke-opacity:1;stroke-miterlimit:10;" d="M 172.914062 11.339844 L 178.582031 11.339844 L 178.582031 5.667969 L 172.914062 5.667969 Z M 172.914062 11.339844 " transform="matrix(1,0,0,1,188,163)"/>
<path style="fill:none;stroke-width:0.801759;stroke-linecap:butt;stroke-linejoin:miter;stroke:rgb(0%,0%,0%);stroke-opacity:1;stroke-miterlimit:10;" d="M 178.582031 11.339844 L 184.253906 11.339844 L 184.253906 5.667969 L 178.582031 5.667969 Z M 178.582031 11.339844 " transform="matrix(1,0,0,1,188,163)"/>
<path style=" stroke:none;fill-rule:nonzero;fill:rgb(0%,0%,0%);fill-opacity:1;" d="M 359.496094 163 C 359.496094 161.109375 356.660156 161.109375 356.660156 163 C 356.660156 164.890625 359.496094 164.890625 359.496094 163 Z M 359.496094 163 "/>
</g>
</svg>
