<?xml version="1.0" encoding="UTF-8"?>
<svg xmlns="http://www.w3.org/2000/svg" xmlns:xlink="http://www.w3.org/1999/xlink" width="114pt" height="130pt" viewBox="0 0 114 130" version="1.1">
<defs>
<clipPath id="clip1">
  <path d="M 5 6 L 49 6 L 49 124 L 5 124 Z M 5 6 "/>
</clipPath>
<clipPath id="clip2">
  <path d="M 108.015625 123.917969 L 108.015625 6.082031 L 5.96875 65 Z M 108.015625 123.917969 "/>
</clipPath>
<clipPath id="clip3">
  <path d="M 5 64 L 75 64 L 75 66 L 5 66 Z M 5 64 "/>
</clipPath>
<clipPath id="clip4">
  <path d="M 108.015625 123.917969 L 108.015625 6.082031 L 5.96875 65 Z M 108.015625 123.917969 "/>
</clipPath>
<clipPath id="clip5">
  <path d="M 5 6 L 83 6 L 83 113 L 5 113 Z M 5 6 "/>
</clipPath>
<clipPath id="clip6">
  <path d="M 108.015625 123.917969 L 108.015625 6.082031 L 5.96875 65 Z M 108.015625 123.917969 "/>
</clipPath>
<clipPath id="clip7">
  <path d="M 5 45 L 109 45 L 109 46 L 5 46 Z M 5 45 "/>
</clipPath>
<clipPath id="clip8">
  <path d="M 108.015625 123.917969 L 108.015625 6.082031 L 5.96875 65 Z M 108.015625 123.917969 "/>
</clipPath>
<clipPath id="clip9">
  <path d="M 5 6 L 71 6 L 71 124 L 5 124 Z M 5 6 "/>
</clipPath>
<clipPath id="clip10">
  <path d="M 108.015625 123.917969 L 108.015625 6.082031 L 5.96875 65 Z M 108.015625 123.917969 "/>
</clipPath>
<clipPath id="clip11">
  <path d="M 5 64 L 97 64 L 97 66 L 5 66 Z M 5 64 "/>
</clipPath>
<clipPath id="clip12">
  <path d="M 108.015625 123.917969 L 108.015625 6.082031 L 5.96875 65 Z M 108.015625 123.917969 "/>
</clipPath>
<clipPath id="clip13">
  <path d="M 31 6 L 109 6 L 109 93 L 31 93 Z M 31 6 "/>
</clipPath>
<clipPath id="clip14">
  <path d="M 108.015625 123.917969 L 108.015625 6.082031 L 5.96875 65 Z M 108.015625 123.917969 "/>
</clipPath>
<clipPath id="clip15">
  <path d="M 5 25 L 109 25 L 109 27 L 5 27 Z M 5 25 "/>
</clipPath>
<clipPath id="clip16">
  <path d="M 108.015625 123.917969 L 108.015625 6.082031 L 5.96875 65 Z M 108.015625 123.917969 "/>
</clipPath>
<clipPath id="clip17">
  <path d="M 20 6 L 105 6 L 105 113 L 20 113 Z M 20 6 "/>
</clipPath>
<clipPath id="clip18">
  <path d="M 108.015625 123.917969 L 108.015625 6.082031 L 5.96875 65 Z M 108.015625 123.917969 "/>
</clipPath>
<clipPath id="clip19">
  <path d="M 5 45 L 109 45 L 109 46 L 5 46 Z M 5 45 "/>
</clipPath>
<clipPath id="clip20">
  <path d="M 108.015625 123.917969 L 108.015625 6.082031 L 5.96875 65 Z M 108.015625 123.917969 "/>
</clipPath>
<clipPath id="clip21">
  <path d="M 9 6 L 94 6 L 94 124 L 9 124 Z M 9 6 "/>
</clipPath>
<clipPath id="clip22">
  <path d="M 108.015625 123.917969 L 108.015625 6.082031 L 5.96875 65 Z M 108.015625 123.917969 "/>
</clipPath>
<clipPath id="clip23">
  <path d="M 5 64 L 109 64 L 109 66 L 5 66 Z M 5 64 "/>
</clipPath>
<clipPath id="clip24">
  <path d="M 108.015625 123.917969 L 108.015625 6.082031 L 5.96875 65 Z M 108.015625 123.917969 "/>
</clipPath>
<clipPath id="clip25">
  <path d="M 5 17 L 83 17 L 83 124 L 5 124 Z M 5 17 "/>
</clipPath>
<clipPath id="clip26">
  <path d="M 108.015625 123.917969 L 108.015625 6.082031 L 5.96875 65 Z M 108.015625 123.917969 "/>
</clipPath>
<clipPath id="clip27">
  <path d="M 5 84 L 109 84 L 109 85 L 5 85 Z M 5 84 "/>
</clipPath>
<clipPath id="clip28">
  <path d="M 108.015625 123.917969 L 108.015625 6.082031 L 5.96875 65 Z M 108.015625 123.917969 "/>
</clipPath>
<clipPath id="clip29">
  <path d="M 65 6 L 109 6 L 109 74 L 65 74 Z M 65 6 "/>
</clipPath>
<clipPath id="clip30">
  <path d="M 108.015625 123.917969 L 108.015625 6.082031 L 5.96875 65 Z M 108.015625 123.917969 "/>
</clipPath>
<clipPath id="clip31">
  <path d="M 39 6 L 109 6 L 109 7 L 39 7 Z M 39 6 "/>
</clipPath>
<clipPath id="clip32">
  <path d="M 108.015625 123.917969 L 108.015625 6.082031 L 5.96875 65 Z M 108.015625 123.917969 "/>
</clipPath>
<clipPath id="clip33">
  <path d="M 54 6 L 109 6 L 109 93 L 54 93 Z M 54 6 "/>
</clipPath>
<clipPath id="clip34">
  <path d="M 108.015625 123.917969 L 108.015625 6.082031 L 5.96875 65 Z M 108.015625 123.917969 "/>
</clipPath>
<clipPath id="clip35">
  <path d="M 28 25 L 109 25 L 109 27 L 28 27 Z M 28 25 "/>
</clipPath>
<clipPath id="clip36">
  <path d="M 108.015625 123.917969 L 108.015625 6.082031 L 5.96875 65 Z M 108.015625 123.917969 "/>
</clipPath>
<clipPath id="clip37">
  <path d="M 43 6 L 109 6 L 109 113 L 43 113 Z M 43 6 "/>
</clipPath>
<clipPath id="clip38">
  <path d="M 108.015625 123.917969 L 108.015625 6.082031 L 5.96875 65 Z M 108.015625 123.917969 "/>
</clipPath>
<clipPath id="clip39">
  <path d="M 17 45 L 109 45 L 109 46 L 17 46 Z M 17 45 "/>
</clipPath>
<clipPath id="clip40">
  <path d="M 108.015625 123.917969 L 108.015625 6.082031 L 5.96875 65 Z M 108.015625 123.917969 "/>
</clipPath>
<clipPath id="clip41">
  <path d="M 31 6 L 109 6 L 109 124 L 31 124 Z M 31 6 "/>
</clipPath>
<clipPath id="clip42">
  <path d="M 108.015625 123.917969 L 108.015625 6.082031 L 5.96875 65 Z M 108.015625 123.917969 "/>
</clipPath>
<clipPath id="clip43">
  <path d="M 5 64 L 109 64 L 109 66 L 5 66 Z M 5 64 "/>
</clipPath>
<clipPath id="clip44">
  <path d="M 108.015625 123.917969 L 108.015625 6.082031 L 5.96875 65 Z M 108.015625 123.917969 "/>
</clipPath>
<clipPath id="clip45">
  <path d="M 20 17 L 105 17 L 105 124 L 20 124 Z M 20 17 "/>
</clipPath>
<clipPath id="clip46">
  <path d="M 108.015625 123.917969 L 108.015625 6.082031 L 5.96875 65 Z M 108.015625 123.917969 "/>
</clipPath>
<clipPath id="clip47">
  <path d="M 5 84 L 109 84 L 109 85 L 5 85 Z M 5 84 "/>
</clipPath>
<clipPath id="clip48">
  <path d="M 108.015625 123.917969 L 108.015625 6.082031 L 5.96875 65 Z M 108.015625 123.917969 "/>
</clipPath>
<clipPath id="clip49">
  <path d="M 65 6 L 109 6 L 109 113 L 65 113 Z M 65 6 "/>
</clipPath>
<clipPath id="clip50">
  <path d="M 108.015625 123.917969 L 108.015625 6.082031 L 5.96875 65 Z M 108.015625 123.917969 "/>
</clipPath>
<clipPath id="clip51">
  <path d="M 39 45 L 109 45 L 109 46 L 39 46 Z M 39 45 "/>
</clipPath>
<clipPath id="clip52">
  <path d="M 108.015625 123.917969 L 108.015625 6.082031 L 5.96875 65 Z M 108.015625 123.917969 "/>
</clipPath>
<clipPath id="clip53">
  <path d="M 54 6 L 109 6 L 109 124 L 54 124 Z M 54 6 "/>
</clipPath>
<clipPath id="clip54">
  <path d="M 108.015625 123.917969 L 108.015625 6.082031 L 5.96875 65 Z M 108.015625 123.917969 "/>
</clipPath>
<clipPath id="clip55">
  <path d="M 28 64 L 109 64 L 109 66 L 28 66 Z M 28 64 "/>
</clipPath>
<clipPath id="clip56">
  <path d="M 108.015625 123.917969 L 108.015625 6.082031 L 5.96875 65 Z M 108.015625 123.917969 "/>
</clipPath>
<clipPath id="clip57">
  <path d="M 43 17 L 109 17 L 109 124 L 43 124 Z M 43 17 "/>
</clipPath>
<clipPath id="clip58">
  <path d="M 108.015625 123.917969 L 108.015625 6.082031 L 5.96875 65 Z M 108.015625 123.917969 "/>
</clipPath>
<clipPath id="clip59">
  <path d="M 17 84 L 109 84 L 109 85 L 17 85 Z M 17 84 "/>
</clipPath>
<clipPath id="clip60">
  <path d="M 108.015625 123.917969 L 108.015625 6.082031 L 5.96875 65 Z M 108.015625 123.917969 "/>
</clipPath>
<clipPath id="clip61">
  <path d="M 31 37 L 109 37 L 109 124 L 31 124 Z M 31 37 "/>
</clipPath>
<clipPath id="clip62">
  <path d="M 108.015625 123.917969 L 108.015625 6.082031 L 5.96875 65 Z M 108.015625 123.917969 "/>
</clipPath>
<clipPath id="clip63">
  <path d="M 5 103 L 109 103 L 109 105 L 5 105 Z M 5 103 "/>
</clipPath>
<clipPath id="clip64">
  <path d="M 108.015625 123.917969 L 108.015625 6.082031 L 5.96875 65 Z M 108.015625 123.917969 "/>
</clipPath>
<clipPath id="clip65">
  <path d="M 65 17 L 109 17 L 109 124 L 65 124 Z M 65 17 "/>
</clipPath>
<clipPath id="clip66">
  <path d="M 108.015625 123.917969 L 108.015625 6.082031 L 5.96875 65 Z M 108.015625 123.917969 "/>
</clipPath>
<clipPath id="clip67">
  <path d="M 39 84 L 109 84 L 109 85 L 39 85 Z M 39 84 "/>
</clipPath>
<clipPath id="clip68">
  <path d="M 108.015625 123.917969 L 108.015625 6.082031 L 5.96875 65 Z M 108.015625 123.917969 "/>
</clipPath>
<clipPath id="clip69">
  <path d="M 54 37 L 109 37 L 109 124 L 54 124 Z M 54 37 "/>
</clipPath>
<clipPath id="clip70">
  <path d="M 108.015625 123.917969 L 108.015625 6.082031 L 5.96875 65 Z M 108.015625 123.917969 "/>
</clipPath>
<clipPath id="clip71">
  <path d="M 28 103 L 109 103 L 109 105 L 28 105 Z M 28 103 "/>
</clipPath>
<clipPath id="clip72">
  <path d="M 108.015625 123.917969 L 108.015625 6.082031 L 5.96875 65 Z M 108.015625 123.917969 "/>
</clipPath>
<clipPath id="clip73">
  <path d="M 65 56 L 109 56 L 109 124 L 65 124 Z M 65 56 "/>
</clipPath>
<clipPath id="clip74">
  <path d="M 108.015625 123.917969 L 108.015625 6.082031 L 5.96875 65 Z M 108.015625 123.917969 "/>
</clipPath>
<clipPath id="clip75">
  <path d="M 39 123 L 109 123 L 109 124 L 39 124 Z M 39 123 "/>
</clipPath>
<clipPath id="clip76">
  <path d="M 108.015625 123.917969 L 108.015625 6.082031 L 5.96875 65 Z M 108.015625 123.917969 "/>
</clipPath>
<clipPath id="clip77">
  <path d="M 23 6 L 109 6 L 109 124 L 23 124 Z M 23 6 "/>
</clipPath>
<clipPath id="clip78">
  <path d="M 108.015625 123.917969 L 108.015625 6.082031 L 5.96875 65 Z M 108.015625 123.917969 "/>
</clipPath>
<clipPath id="clip79">
  <path d="M 5 64 L 109 64 L 109 66 L 5 66 Z M 5 64 "/>
</clipPath>
<clipPath id="clip80">
  <path d="M 108.015625 123.917969 L 108.015625 6.082031 L 5.96875 65 Z M 108.015625 123.917969 "/>
</clipPath>
<clipPath id="clip81">
  <path d="M 5 63 L 8 63 L 8 67 L 5 67 Z M 5 63 "/>
</clipPath>
<clipPath id="clip82">
  <path d="M 108.015625 123.917969 L 108.015625 6.082031 L 5.96875 65 Z M 108.015625 123.917969 "/>
</clipPath>
<clipPath id="clip83">
  <path d="M 38 43 L 42 43 L 42 47 L 38 47 Z M 38 43 "/>
</clipPath>
<clipPath id="clip84">
  <path d="M 108.015625 123.917969 L 108.015625 6.082031 L 5.96875 65 Z M 108.015625 123.917969 "/>
</clipPath>
<clipPath id="clip85">
  <path d="M 27 63 L 31 63 L 31 67 L 27 67 Z M 27 63 "/>
</clipPath>
<clipPath id="clip86">
  <path d="M 108.015625 123.917969 L 108.015625 6.082031 L 5.96875 65 Z M 108.015625 123.917969 "/>
</clipPath>
<clipPath id="clip87">
  <path d="M 72 24 L 76 24 L 76 28 L 72 28 Z M 72 24 "/>
</clipPath>
<clipPath id="clip88">
  <path d="M 108.015625 123.917969 L 108.015625 6.082031 L 5.96875 65 Z M 108.015625 123.917969 "/>
</clipPath>
<clipPath id="clip89">
  <path d="M 61 43 L 65 43 L 65 47 L 61 47 Z M 61 43 "/>
</clipPath>
<clipPath id="clip90">
  <path d="M 108.015625 123.917969 L 108.015625 6.082031 L 5.96875 65 Z M 108.015625 123.917969 "/>
</clipPath>
<clipPath id="clip91">
  <path d="M 49 63 L 53 63 L 53 67 L 49 67 Z M 49 63 "/>
</clipPath>
<clipPath id="clip92">
  <path d="M 108.015625 123.917969 L 108.015625 6.082031 L 5.96875 65 Z M 108.015625 123.917969 "/>
</clipPath>
<clipPath id="clip93">
  <path d="M 38 83 L 42 83 L 42 87 L 38 87 Z M 38 83 "/>
</clipPath>
<clipPath id="clip94">
  <path d="M 108.015625 123.917969 L 108.015625 6.082031 L 5.96875 65 Z M 108.015625 123.917969 "/>
</clipPath>
<clipPath id="clip95">
  <path d="M 106 6 L 109 6 L 109 8 L 106 8 Z M 106 6 "/>
</clipPath>
<clipPath id="clip96">
  <path d="M 108.015625 123.917969 L 108.015625 6.082031 L 5.96875 65 Z M 108.015625 123.917969 "/>
</clipPath>
<clipPath id="clip97">
  <path d="M 95 24 L 99 24 L 99 28 L 95 28 Z M 95 24 "/>
</clipPath>
<clipPath id="clip98">
  <path d="M 108.015625 123.917969 L 108.015625 6.082031 L 5.96875 65 Z M 108.015625 123.917969 "/>
</clipPath>
<clipPath id="clip99">
  <path d="M 83 43 L 87 43 L 87 47 L 83 47 Z M 83 43 "/>
</clipPath>
<clipPath id="clip100">
  <path d="M 108.015625 123.917969 L 108.015625 6.082031 L 5.96875 65 Z M 108.015625 123.917969 "/>
</clipPath>
<clipPath id="clip101">
  <path d="M 72 63 L 76 63 L 76 67 L 72 67 Z M 72 63 "/>
</clipPath>
<clipPath id="clip102">
  <path d="M 108.015625 123.917969 L 108.015625 6.082031 L 5.96875 65 Z M 108.015625 123.917969 "/>
</clipPath>
<clipPath id="clip103">
  <path d="M 61 83 L 65 83 L 65 87 L 61 87 Z M 61 83 "/>
</clipPath>
<clipPath id="clip104">
  <path d="M 108.015625 123.917969 L 108.015625 6.082031 L 5.96875 65 Z M 108.015625 123.917969 "/>
</clipPath>
<clipPath id="clip105">
  <path d="M 106 43 L 109 43 L 109 47 L 106 47 Z M 106 43 "/>
</clipPath>
<clipPath id="clip106">
  <path d="M 108.015625 123.917969 L 108.015625 6.082031 L 5.96875 65 Z M 108.015625 123.917969 "/>
</clipPath>
<clipPath id="clip107">
  <path d="M 95 63 L 99 63 L 99 67 L 95 67 Z M 95 63 "/>
</clipPath>
<clipPath id="clip108">
  <path d="M 108.015625 123.917969 L 108.015625 6.082031 L 5.96875 65 Z M 108.015625 123.917969 "/>
</clipPath>
<clipPath id="clip109">
  <path d="M 83 83 L 87 83 L 87 87 L 83 87 Z M 83 83 "/>
</clipPath>
<clipPath id="clip110">
  <path d="M 108.015625 123.917969 L 108.015625 6.082031 L 5.96875 65 Z M 108.015625 123.917969 "/>
</clipPath>
<clipPath id="clip111">
  <path d="M 72 102 L 76 102 L 76 106 L 72 106 Z M 72 102 "/>
</clipPath>
<clipPath id="clip112">
  <path d="M 108.015625 123.917969 L 108.015625 6.082031 L 5.96875 65 Z M 108.015625 123.917969 "/>
</clipPath>
<clipPath id="clip113">
  <path d="M 106 83 L 109 83 L 109 87 L 106 87 Z M 106 83 "/>
</clipPath>
<clipPath id="clip114">
  <path d="M 108.015625 123.917969 L 108.015625 6.082031 L 5.96875 65 Z M 108.015625 123.917969 "/>
</clipPath>
<clipPath id="clip115">
  <path d="M 95 102 L 99 102 L 99 106 L 95 106 Z M 95 102 "/>
</clipPath>
<clipPath id="clip116">
  <path d="M 108.015625 123.917969 L 108.015625 6.082031 L 5.96875 65 Z M 108.015625 123.917969 "/>
</clipPath>
<clipPath id="clip117">
  <path d="M 106 122 L 109 122 L 109 124 L 106 124 Z M 106 122 "/>
</clipPath>
<clipPath id="clip118">
  <path d="M 108.015625 123.917969 L 108.015625 6.082031 L 5.96875 65 Z M 108.015625 123.917969 "/>
</clipPath>
</defs>
<g id="surface60">
<path style="fill:none;stroke-width:1.133858;stroke-linecap:butt;stroke-linejoin:miter;stroke:rgb(0%,0%,0%);stroke-opacity:1;stroke-miterlimit:10;" d="M 34.015625 58.917969 L 34.015625 -58.917969 L -68.03125 0 Z M 34.015625 58.917969 " transform="matrix(1,0,0,1,74,65)"/>
<g clip-path="url(#clip1)" clip-rule="nonzero">
<g clip-path="url(#clip2)" clip-rule="nonzero">
<path style="fill:none;stroke-width:0.566929;stroke-linecap:butt;stroke-linejoin:miter;stroke:rgb(0%,0%,0%);stroke-opacity:1;stroke-miterlimit:10;" d="M -102.046875 -58.917969 L -34.015625 58.917969 " transform="matrix(1,0,0,1,74,65)"/>
<path style="fill:none;stroke-width:0.566929;stroke-linecap:butt;stroke-linejoin:miter;stroke:rgb(0%,0%,0%);stroke-opacity:1;stroke-miterlimit:10;" d="M -102.046875 58.917969 L -34.015625 -58.917969 " transform="matrix(1,0,0,1,74,65)"/>
</g>
</g>
<g clip-path="url(#clip3)" clip-rule="nonzero">
<g clip-path="url(#clip4)" clip-rule="nonzero">
<path style="fill:none;stroke-width:0.566929;stroke-linecap:butt;stroke-linejoin:miter;stroke:rgb(0%,0%,0%);stroke-opacity:1;stroke-miterlimit:10;" d="M 0 0 L -136.0625 0 " transform="matrix(1,0,0,1,74,65)"/>
</g>
</g>
<g clip-path="url(#clip5)" clip-rule="nonzero">
<g clip-path="url(#clip6)" clip-rule="nonzero">
<path style="fill:none;stroke-width:0.566929;stroke-linecap:butt;stroke-linejoin:miter;stroke:rgb(0%,0%,0%);stroke-opacity:1;stroke-miterlimit:10;" d="M -68.03125 -78.554688 L 0 39.277344 " transform="matrix(1,0,0,1,74,65)"/>
<path style="fill:none;stroke-width:0.566929;stroke-linecap:butt;stroke-linejoin:miter;stroke:rgb(0%,0%,0%);stroke-opacity:1;stroke-miterlimit:10;" d="M -68.03125 39.277344 L 0 -78.554688 " transform="matrix(1,0,0,1,74,65)"/>
</g>
</g>
<g clip-path="url(#clip7)" clip-rule="nonzero">
<g clip-path="url(#clip8)" clip-rule="nonzero">
<path style="fill:none;stroke-width:0.566929;stroke-linecap:butt;stroke-linejoin:miter;stroke:rgb(0%,0%,0%);stroke-opacity:1;stroke-miterlimit:10;" d="M 34.015625 -19.640625 L -102.046875 -19.640625 " transform="matrix(1,0,0,1,74,65)"/>
</g>
</g>
<g clip-path="url(#clip9)" clip-rule="nonzero">
<g clip-path="url(#clip10)" clip-rule="nonzero">
<path style="fill:none;stroke-width:0.566929;stroke-linecap:butt;stroke-linejoin:miter;stroke:rgb(0%,0%,0%);stroke-opacity:1;stroke-miterlimit:10;" d="M -79.371094 -58.917969 L -11.339844 58.917969 " transform="matrix(1,0,0,1,74,65)"/>
<path style="fill:none;stroke-width:0.566929;stroke-linecap:butt;stroke-linejoin:miter;stroke:rgb(0%,0%,0%);stroke-opacity:1;stroke-miterlimit:10;" d="M -79.371094 58.917969 L -11.339844 -58.917969 " transform="matrix(1,0,0,1,74,65)"/>
</g>
</g>
<g clip-path="url(#clip11)" clip-rule="nonzero">
<g clip-path="url(#clip12)" clip-rule="nonzero">
<path style="fill:none;stroke-width:0.566929;stroke-linecap:butt;stroke-linejoin:miter;stroke:rgb(0%,0%,0%);stroke-opacity:1;stroke-miterlimit:10;" d="M 22.675781 0 L -113.386719 0 " transform="matrix(1,0,0,1,74,65)"/>
</g>
</g>
<g clip-path="url(#clip13)" clip-rule="nonzero">
<g clip-path="url(#clip14)" clip-rule="nonzero">
<path style="fill:none;stroke-width:0.566929;stroke-linecap:butt;stroke-linejoin:miter;stroke:rgb(0%,0%,0%);stroke-opacity:1;stroke-miterlimit:10;" d="M -34.015625 -98.195312 L 34.015625 19.640625 " transform="matrix(1,0,0,1,74,65)"/>
<path style="fill:none;stroke-width:0.566929;stroke-linecap:butt;stroke-linejoin:miter;stroke:rgb(0%,0%,0%);stroke-opacity:1;stroke-miterlimit:10;" d="M -34.015625 19.640625 L 34.015625 -98.195312 " transform="matrix(1,0,0,1,74,65)"/>
</g>
</g>
<g clip-path="url(#clip15)" clip-rule="nonzero">
<g clip-path="url(#clip16)" clip-rule="nonzero">
<path style="fill:none;stroke-width:0.566929;stroke-linecap:butt;stroke-linejoin:miter;stroke:rgb(0%,0%,0%);stroke-opacity:1;stroke-miterlimit:10;" d="M 68.03125 -39.277344 L -68.03125 -39.277344 " transform="matrix(1,0,0,1,74,65)"/>
</g>
</g>
<g clip-path="url(#clip17)" clip-rule="nonzero">
<g clip-path="url(#clip18)" clip-rule="nonzero">
<path style="fill:none;stroke-width:0.566929;stroke-linecap:butt;stroke-linejoin:miter;stroke:rgb(0%,0%,0%);stroke-opacity:1;stroke-miterlimit:10;" d="M -45.355469 -78.554688 L 22.675781 39.277344 " transform="matrix(1,0,0,1,74,65)"/>
<path style="fill:none;stroke-width:0.566929;stroke-linecap:butt;stroke-linejoin:miter;stroke:rgb(0%,0%,0%);stroke-opacity:1;stroke-miterlimit:10;" d="M -45.355469 39.277344 L 22.675781 -78.554688 " transform="matrix(1,0,0,1,74,65)"/>
</g>
</g>
<g clip-path="url(#clip19)" clip-rule="nonzero">
<g clip-path="url(#clip20)" clip-rule="nonzero">
<path style="fill:none;stroke-width:0.566929;stroke-linecap:butt;stroke-linejoin:miter;stroke:rgb(0%,0%,0%);stroke-opacity:1;stroke-miterlimit:10;" d="M 56.691406 -19.640625 L -79.371094 -19.640625 " transform="matrix(1,0,0,1,74,65)"/>
</g>
</g>
<g clip-path="url(#clip21)" clip-rule="nonzero">
<g clip-path="url(#clip22)" clip-rule="nonzero">
<path style="fill:none;stroke-width:0.566929;stroke-linecap:butt;stroke-linejoin:miter;stroke:rgb(0%,0%,0%);stroke-opacity:1;stroke-miterlimit:10;" d="M -56.691406 -58.917969 L 11.339844 58.917969 " transform="matrix(1,0,0,1,74,65)"/>
<path style="fill:none;stroke-width:0.566929;stroke-linecap:butt;stroke-linejoin:miter;stroke:rgb(0%,0%,0%);stroke-opacity:1;stroke-miterlimit:10;" d="M -56.691406 58.917969 L 11.339844 -58.917969 " transform="matrix(1,0,0,1,74,65)"/>
</g>
</g>
<g clip-path="url(#clip23)" clip-rule="nonzero">
<g clip-path="url(#clip24)" clip-rule="nonzero">
<path style="fill:none;stroke-width:0.566929;stroke-linecap:butt;stroke-linejoin:miter;stroke:rgb(0%,0%,0%);stroke-opacity:1;stroke-miterlimit:10;" d="M 45.355469 0 L -90.707031 0 " transform="matrix(1,0,0,1,74,65)"/>
</g>
</g>
<g clip-path="url(#clip25)" clip-rule="nonzero">
<g clip-path="url(#clip26)" clip-rule="nonzero">
<path style="fill:none;stroke-width:0.566929;stroke-linecap:butt;stroke-linejoin:miter;stroke:rgb(0%,0%,0%);stroke-opacity:1;stroke-miterlimit:10;" d="M -68.03125 -39.277344 L 0 78.554688 " transform="matrix(1,0,0,1,74,65)"/>
<path style="fill:none;stroke-width:0.566929;stroke-linecap:butt;stroke-linejoin:miter;stroke:rgb(0%,0%,0%);stroke-opacity:1;stroke-miterlimit:10;" d="M -68.03125 78.554688 L 0 -39.277344 " transform="matrix(1,0,0,1,74,65)"/>
</g>
</g>
<g clip-path="url(#clip27)" clip-rule="nonzero">
<g clip-path="url(#clip28)" clip-rule="nonzero">
<path style="fill:none;stroke-width:0.566929;stroke-linecap:butt;stroke-linejoin:miter;stroke:rgb(0%,0%,0%);stroke-opacity:1;stroke-miterlimit:10;" d="M 34.015625 19.640625 L -102.046875 19.640625 " transform="matrix(1,0,0,1,74,65)"/>
</g>
</g>
<g clip-path="url(#clip29)" clip-rule="nonzero">
<g clip-path="url(#clip30)" clip-rule="nonzero">
<path style="fill:none;stroke-width:0.566929;stroke-linecap:butt;stroke-linejoin:miter;stroke:rgb(0%,0%,0%);stroke-opacity:1;stroke-miterlimit:10;" d="M 0 -117.835938 L 68.03125 0 " transform="matrix(1,0,0,1,74,65)"/>
<path style="fill:none;stroke-width:0.566929;stroke-linecap:butt;stroke-linejoin:miter;stroke:rgb(0%,0%,0%);stroke-opacity:1;stroke-miterlimit:10;" d="M 0 0 L 68.03125 -117.835938 " transform="matrix(1,0,0,1,74,65)"/>
</g>
</g>
<g clip-path="url(#clip31)" clip-rule="nonzero">
<g clip-path="url(#clip32)" clip-rule="nonzero">
<path style="fill:none;stroke-width:0.566929;stroke-linecap:butt;stroke-linejoin:miter;stroke:rgb(0%,0%,0%);stroke-opacity:1;stroke-miterlimit:10;" d="M 102.046875 -58.917969 L -34.015625 -58.917969 " transform="matrix(1,0,0,1,74,65)"/>
</g>
</g>
<g clip-path="url(#clip33)" clip-rule="nonzero">
<g clip-path="url(#clip34)" clip-rule="nonzero">
<path style="fill:none;stroke-width:0.566929;stroke-linecap:butt;stroke-linejoin:miter;stroke:rgb(0%,0%,0%);stroke-opacity:1;stroke-miterlimit:10;" d="M -11.339844 -98.195312 L 56.691406 19.640625 " transform="matrix(1,0,0,1,74,65)"/>
<path style="fill:none;stroke-width:0.566929;stroke-linecap:butt;stroke-linejoin:miter;stroke:rgb(0%,0%,0%);stroke-opacity:1;stroke-miterlimit:10;" d="M -11.339844 19.640625 L 56.691406 -98.195312 " transform="matrix(1,0,0,1,74,65)"/>
</g>
</g>
<g clip-path="url(#clip35)" clip-rule="nonzero">
<g clip-path="url(#clip36)" clip-rule="nonzero">
<path style="fill:none;stroke-width:0.566929;stroke-linecap:butt;stroke-linejoin:miter;stroke:rgb(0%,0%,0%);stroke-opacity:1;stroke-miterlimit:10;" d="M 90.707031 -39.277344 L -45.355469 -39.277344 " transform="matrix(1,0,0,1,74,65)"/>
</g>
</g>
<g clip-path="url(#clip37)" clip-rule="nonzero">
<g clip-path="url(#clip38)" clip-rule="nonzero">
<path style="fill:none;stroke-width:0.566929;stroke-linecap:butt;stroke-linejoin:miter;stroke:rgb(0%,0%,0%);stroke-opacity:1;stroke-miterlimit:10;" d="M -22.675781 -78.554688 L 45.355469 39.277344 " transform="matrix(1,0,0,1,74,65)"/>
<path style="fill:none;stroke-width:0.566929;stroke-linecap:butt;stroke-linejoin:miter;stroke:rgb(0%,0%,0%);stroke-opacity:1;stroke-miterlimit:10;" d="M -22.675781 39.277344 L 45.355469 -78.554688 " transform="matrix(1,0,0,1,74,65)"/>
</g>
</g>
<g clip-path="url(#clip39)" clip-rule="nonzero">
<g clip-path="url(#clip40)" clip-rule="nonzero">
<path style="fill:none;stroke-width:0.566929;stroke-linecap:butt;stroke-linejoin:miter;stroke:rgb(0%,0%,0%);stroke-opacity:1;stroke-miterlimit:10;" d="M 79.371094 -19.640625 L -56.691406 -19.640625 " transform="matrix(1,0,0,1,74,65)"/>
</g>
</g>
<g clip-path="url(#clip41)" clip-rule="nonzero">
<g clip-path="url(#clip42)" clip-rule="nonzero">
<path style="fill:none;stroke-width:0.566929;stroke-linecap:butt;stroke-linejoin:miter;stroke:rgb(0%,0%,0%);stroke-opacity:1;stroke-miterlimit:10;" d="M -34.015625 -58.917969 L 34.015625 58.917969 " transform="matrix(1,0,0,1,74,65)"/>
<path style="fill:none;stroke-width:0.566929;stroke-linecap:butt;stroke-linejoin:miter;stroke:rgb(0%,0%,0%);stroke-opacity:1;stroke-miterlimit:10;" d="M -34.015625 58.917969 L 34.015625 -58.917969 " transform="matrix(1,0,0,1,74,65)"/>
</g>
</g>
<g clip-path="url(#clip43)" clip-rule="nonzero">
<g clip-path="url(#clip44)" clip-rule="nonzero">
<path style="fill:none;stroke-width:0.566929;stroke-linecap:butt;stroke-linejoin:miter;stroke:rgb(0%,0%,0%);stroke-opacity:1;stroke-miterlimit:10;" d="M 68.03125 0 L -68.03125 0 " transform="matrix(1,0,0,1,74,65)"/>
</g>
</g>
<g clip-path="url(#clip45)" clip-rule="nonzero">
<g clip-path="url(#clip46)" clip-rule="nonzero">
<path style="fill:none;stroke-width:0.566929;stroke-linecap:butt;stroke-linejoin:miter;stroke:rgb(0%,0%,0%);stroke-opacity:1;stroke-miterlimit:10;" d="M -45.355469 -39.277344 L 22.675781 78.554688 " transform="matrix(1,0,0,1,74,65)"/>
<path style="fill:none;stroke-width:0.566929;stroke-linecap:butt;stroke-linejoin:miter;stroke:rgb(0%,0%,0%);stroke-opacity:1;stroke-miterlimit:10;" d="M -45.355469 78.554688 L 22.675781 -39.277344 " transform="matrix(1,0,0,1,74,65)"/>
</g>
</g>
<g clip-path="url(#clip47)" clip-rule="nonzero">
<g clip-path="url(#clip48)" clip-rule="nonzero">
<path style="fill:none;stroke-width:0.566929;stroke-linecap:butt;stroke-linejoin:miter;stroke:rgb(0%,0%,0%);stroke-opacity:1;stroke-miterlimit:10;" d="M 56.691406 19.640625 L -79.371094 19.640625 " transform="matrix(1,0,0,1,74,65)"/>
</g>
</g>
<g clip-path="url(#clip49)" clip-rule="nonzero">
<g clip-path="url(#clip50)" clip-rule="nonzero">
<path style="fill:none;stroke-width:0.566929;stroke-linecap:butt;stroke-linejoin:miter;stroke:rgb(0%,0%,0%);stroke-opacity:1;stroke-miterlimit:10;" d="M 0 -78.554688 L 68.03125 39.277344 " transform="matrix(1,0,0,1,74,65)"/>
<path style="fill:none;stroke-width:0.566929;stroke-linecap:butt;stroke-linejoin:miter;stroke:rgb(0%,0%,0%);stroke-opacity:1;stroke-miterlimit:10;" d="M 0 39.277344 L 68.03125 -78.554688 " transform="matrix(1,0,0,1,74,65)"/>
</g>
</g>
<g clip-path="url(#clip51)" clip-rule="nonzero">
<g clip-path="url(#clip52)" clip-rule="nonzero">
<path style="fill:none;stroke-width:0.566929;stroke-linecap:butt;stroke-linejoin:miter;stroke:rgb(0%,0%,0%);stroke-opacity:1;stroke-miterlimit:10;" d="M 102.046875 -19.640625 L -34.015625 -19.640625 " transform="matrix(1,0,0,1,74,65)"/>
</g>
</g>
<g clip-path="url(#clip53)" clip-rule="nonzero">
<g clip-path="url(#clip54)" clip-rule="nonzero">
<path style="fill:none;stroke-width:0.566929;stroke-linecap:butt;stroke-linejoin:miter;stroke:rgb(0%,0%,0%);stroke-opacity:1;stroke-miterlimit:10;" d="M -11.339844 -58.917969 L 56.691406 58.917969 " transform="matrix(1,0,0,1,74,65)"/>
<path style="fill:none;stroke-width:0.566929;stroke-linecap:butt;stroke-linejoin:miter;stroke:rgb(0%,0%,0%);stroke-opacity:1;stroke-miterlimit:10;" d="M -11.339844 58.917969 L 56.691406 -58.917969 " transform="matrix(1,0,0,1,74,65)"/>
</g>
</g>
<g clip-path="url(#clip55)" clip-rule="nonzero">
<g clip-path="url(#clip56)" clip-rule="nonzero">
<path style="fill:none;stroke-width:0.566929;stroke-linecap:butt;stroke-linejoin:miter;stroke:rgb(0%,0%,0%);stroke-opacity:1;stroke-miterlimit:10;" d="M 90.707031 0 L -45.355469 0 " transform="matrix(1,0,0,1,74,65)"/>
</g>
</g>
<g clip-path="url(#clip57)" clip-rule="nonzero">
<g clip-path="url(#clip58)" clip-rule="nonzero">
<path style="fill:none;stroke-width:0.566929;stroke-linecap:butt;stroke-linejoin:miter;stroke:rgb(0%,0%,0%);stroke-opacity:1;stroke-miterlimit:10;" d="M -22.675781 -39.277344 L 45.355469 78.554688 " transform="matrix(1,0,0,1,74,65)"/>
<path style="fill:none;stroke-width:0.566929;stroke-linecap:butt;stroke-linejoin:miter;stroke:rgb(0%,0%,0%);stroke-opacity:1;stroke-miterlimit:10;" d="M -22.675781 78.554688 L 45.355469 -39.277344 " transform="matrix(1,0,0,1,74,65)"/>
</g>
</g>
<g clip-path="url(#clip59)" clip-rule="nonzero">
<g clip-path="url(#clip60)" clip-rule="nonzero">
<path style="fill:none;stroke-width:0.566929;stroke-linecap:butt;stroke-linejoin:miter;stroke:rgb(0%,0%,0%);stroke-opacity:1;stroke-miterlimit:10;" d="M 79.371094 19.640625 L -56.691406 19.640625 " transform="matrix(1,0,0,1,74,65)"/>
</g>
</g>
<g clip-path="url(#clip61)" clip-rule="nonzero">
<g clip-path="url(#clip62)" clip-rule="nonzero">
<path style="fill:none;stroke-width:0.566929;stroke-linecap:butt;stroke-linejoin:miter;stroke:rgb(0%,0%,0%);stroke-opacity:1;stroke-miterlimit:10;" d="M -34.015625 -19.640625 L 34.015625 98.195312 " transform="matrix(1,0,0,1,74,65)"/>
<path style="fill:none;stroke-width:0.566929;stroke-linecap:butt;stroke-linejoin:miter;stroke:rgb(0%,0%,0%);stroke-opacity:1;stroke-miterlimit:10;" d="M -34.015625 98.195312 L 34.015625 -19.640625 " transform="matrix(1,0,0,1,74,65)"/>
</g>
</g>
<g clip-path="url(#clip63)" clip-rule="nonzero">
<g clip-path="url(#clip64)" clip-rule="nonzero">
<path style="fill:none;stroke-width:0.566929;stroke-linecap:butt;stroke-linejoin:miter;stroke:rgb(0%,0%,0%);stroke-opacity:1;stroke-miterlimit:10;" d="M 68.03125 39.277344 L -68.03125 39.277344 " transform="matrix(1,0,0,1,74,65)"/>
</g>
</g>
<g clip-path="url(#clip65)" clip-rule="nonzero">
<g clip-path="url(#clip66)" clip-rule="nonzero">
<path style="fill:none;stroke-width:0.566929;stroke-linecap:butt;stroke-linejoin:miter;stroke:rgb(0%,0%,0%);stroke-opacity:1;stroke-miterlimit:10;" d="M 0 -39.277344 L 68.03125 78.554688 " transform="matrix(1,0,0,1,74,65)"/>
<path style="fill:none;stroke-width:0.566929;stroke-linecap:butt;stroke-linejoin:miter;stroke:rgb(0%,0%,0%);stroke-opacity:1;stroke-miterlimit:10;" d="M 0 78.554688 L 68.03125 -39.277344 " transform="matrix(1,0,0,1,74,65)"/>
</g>
</g>
<g clip-path="url(#clip67)" clip-rule="nonzero">
<g clip-path="url(#clip68)" clip-rule="nonzero">
<path style="fill:none;stroke-width:0.566929;stroke-linecap:butt;stroke-linejoin:miter;stroke:rgb(0%,0%,0%);stroke-opacity:1;stroke-miterlimit:10;" d="M 102.046875 19.640625 L -34.015625 19.640625 " transform="matrix(1,0,0,1,74,65)"/>
</g>
</g>
<g clip-path="url(#clip69)" clip-rule="nonzero">
<g clip-path="url(#clip70)" clip-rule="nonzero">
<path style="fill:none;stroke-width:0.566929;stroke-linecap:butt;stroke-linejoin:miter;stroke:rgb(0%,0%,0%);stroke-opacity:1;stroke-miterlimit:10;" d="M -11.339844 -19.640625 L 56.691406 98.195312 " transform="matrix(1,0,0,1,74,65)"/>
<path style="fill:none;stroke-width:0.566929;stroke-linecap:butt;stroke-linejoin:miter;stroke:rgb(0%,0%,0%);stroke-opacity:1;stroke-miterlimit:10;" d="M -11.339844 98.195312 L 56.691406 -19.640625 " transform="matrix(1,0,0,1,74,65)"/>
</g>
</g>
<g clip-path="url(#clip71)" clip-rule="nonzero">
<g clip-path="url(#clip72)" clip-rule="nonzero">
<path style="fill:none;stroke-width:0.566929;stroke-linecap:butt;stroke-linejoin:miter;stroke:rgb(0%,0%,0%);stroke-opacity:1;stroke-miterlimit:10;" d="M 90.707031 39.277344 L -45.355469 39.277344 " transform="matrix(1,0,0,1,74,65)"/>
</g>
</g>
<g clip-path="url(#clip73)" clip-rule="nonzero">
<g clip-path="url(#clip74)" clip-rule="nonzero">
<path style="fill:none;stroke-width:0.566929;stroke-linecap:butt;stroke-linejoin:miter;stroke:rgb(0%,0%,0%);stroke-opacity:1;stroke-miterlimit:10;" d="M 0 0 L 68.03125 117.835938 " transform="matrix(1,0,0,1,74,65)"/>
<path style="fill:none;stroke-width:0.566929;stroke-linecap:butt;stroke-linejoin:miter;stroke:rgb(0%,0%,0%);stroke-opacity:1;stroke-miterlimit:10;" d="M 0 117.835938 L 68.03125 0 " transform="matrix(1,0,0,1,74,65)"/>
</g>
</g>
<g clip-path="url(#clip75)" clip-rule="nonzero">
<g clip-path="url(#clip76)" clip-rule="nonzero">
<path style="fill:none;stroke-width:0.566929;stroke-linecap:butt;stroke-linejoin:miter;stroke:rgb(0%,0%,0%);stroke-opacity:1;stroke-miterlimit:10;" d="M 102.046875 58.917969 L -34.015625 58.917969 " transform="matrix(1,0,0,1,74,65)"/>
</g>
</g>
<g clip-path="url(#clip77)" clip-rule="nonzero">
<g clip-path="url(#clip78)" clip-rule="nonzero">
<path style="fill:none;stroke-width:1.133858;stroke-linecap:butt;stroke-linejoin:miter;stroke:rgb(100%,30%,20%);stroke-opacity:0.7;stroke-miterlimit:10;" d="M -34.015625 -58.917969 L 34.015625 58.917969 " transform="matrix(1,0,0,1,74,65)"/>
<path style="fill:none;stroke-width:1.133858;stroke-linecap:butt;stroke-linejoin:miter;stroke:rgb(100%,30%,20%);stroke-opacity:0.7;stroke-miterlimit:10;" d="M -34.015625 58.917969 L 34.015625 -58.917969 " transform="matrix(1,0,0,1,74,65)"/>
</g>
</g>
<g clip-path="url(#clip79)" clip-rule="nonzero">
<g clip-path="url(#clip80)" clip-rule="nonzero">
<path style="fill:none;stroke-width:1.133858;stroke-linecap:butt;stroke-linejoin:miter;stroke:rgb(100%,30%,20%);stroke-opacity:0.7;stroke-miterlimit:10;" d="M 68.03125 0 L -68.03125 0 " transform="matrix(1,0,0,1,74,65)"/>
</g>
</g>
<g clip-path="url(#clip81)" clip-rule="nonzero">
<g clip-path="url(#clip82)" clip-rule="nonzero">
<path style=" stroke:none;fill-rule:evenodd;fill:rgb(0%,0%,0%);fill-opacity:1;" d="M 7.386719 65 C 7.386719 63.109375 4.550781 63.109375 4.550781 65 C 4.550781 66.890625 7.386719 66.890625 7.386719 65 Z M 7.386719 65 "/>
</g>
</g>
<g clip-path="url(#clip83)" clip-rule="nonzero">
<g clip-path="url(#clip84)" clip-rule="nonzero">
<path style=" stroke:none;fill-rule:evenodd;fill:rgb(0%,0%,0%);fill-opacity:1;" d="M 41.402344 45.359375 C 41.402344 43.472656 38.566406 43.472656 38.566406 45.359375 C 38.566406 47.25 41.402344 47.25 41.402344 45.359375 Z M 41.402344 45.359375 "/>
</g>
</g>
<g clip-path="url(#clip85)" clip-rule="nonzero">
<g clip-path="url(#clip86)" clip-rule="nonzero">
<path style=" stroke:none;fill-rule:evenodd;fill:rgb(0%,0%,0%);fill-opacity:1;" d="M 30.0625 65 C 30.0625 63.109375 27.226562 63.109375 27.226562 65 C 27.226562 66.890625 30.0625 66.890625 30.0625 65 Z M 30.0625 65 "/>
</g>
</g>
<g clip-path="url(#clip87)" clip-rule="nonzero">
<g clip-path="url(#clip88)" clip-rule="nonzero">
<path style=" stroke:none;fill-rule:evenodd;fill:rgb(0%,0%,0%);fill-opacity:1;" d="M 75.417969 25.722656 C 75.417969 23.832031 72.582031 23.832031 72.582031 25.722656 C 72.582031 27.613281 75.417969 27.613281 75.417969 25.722656 Z M 75.417969 25.722656 "/>
</g>
</g>
<g clip-path="url(#clip89)" clip-rule="nonzero">
<g clip-path="url(#clip90)" clip-rule="nonzero">
<path style=" stroke:none;fill-rule:evenodd;fill:rgb(0%,0%,0%);fill-opacity:1;" d="M 64.078125 45.359375 C 64.078125 43.472656 61.242188 43.472656 61.242188 45.359375 C 61.242188 47.25 64.078125 47.25 64.078125 45.359375 Z M 64.078125 45.359375 "/>
</g>
</g>
<g clip-path="url(#clip91)" clip-rule="nonzero">
<g clip-path="url(#clip92)" clip-rule="nonzero">
<path style=" stroke:none;fill-rule:evenodd;fill:rgb(0%,0%,0%);fill-opacity:1;" d="M 52.738281 65 C 52.738281 63.109375 49.90625 63.109375 49.90625 65 C 49.90625 66.890625 52.738281 66.890625 52.738281 65 Z M 52.738281 65 "/>
</g>
</g>
<g clip-path="url(#clip93)" clip-rule="nonzero">
<g clip-path="url(#clip94)" clip-rule="nonzero">
<path style=" stroke:none;fill-rule:evenodd;fill:rgb(0%,0%,0%);fill-opacity:1;" d="M 41.402344 84.640625 C 41.402344 82.75 38.566406 82.75 38.566406 84.640625 C 38.566406 86.527344 41.402344 86.527344 41.402344 84.640625 Z M 41.402344 84.640625 "/>
</g>
</g>
<g clip-path="url(#clip95)" clip-rule="nonzero">
<g clip-path="url(#clip96)" clip-rule="nonzero">
<path style=" stroke:none;fill-rule:evenodd;fill:rgb(0%,0%,0%);fill-opacity:1;" d="M 109.433594 6.082031 C 109.433594 4.191406 106.597656 4.191406 106.597656 6.082031 C 106.597656 7.972656 109.433594 7.972656 109.433594 6.082031 Z M 109.433594 6.082031 "/>
</g>
</g>
<g clip-path="url(#clip97)" clip-rule="nonzero">
<g clip-path="url(#clip98)" clip-rule="nonzero">
<path style=" stroke:none;fill-rule:evenodd;fill:rgb(0%,0%,0%);fill-opacity:1;" d="M 98.09375 25.722656 C 98.09375 23.832031 95.261719 23.832031 95.261719 25.722656 C 95.261719 27.613281 98.09375 27.613281 98.09375 25.722656 Z M 98.09375 25.722656 "/>
</g>
</g>
<g clip-path="url(#clip99)" clip-rule="nonzero">
<g clip-path="url(#clip100)" clip-rule="nonzero">
<path style=" stroke:none;fill-rule:evenodd;fill:rgb(0%,0%,0%);fill-opacity:1;" d="M 86.757812 45.359375 C 86.757812 43.472656 83.921875 43.472656 83.921875 45.359375 C 83.921875 47.25 86.757812 47.25 86.757812 45.359375 Z M 86.757812 45.359375 "/>
</g>
</g>
<g clip-path="url(#clip101)" clip-rule="nonzero">
<g clip-path="url(#clip102)" clip-rule="nonzero">
<path style=" stroke:none;fill-rule:evenodd;fill:rgb(0%,0%,0%);fill-opacity:1;" d="M 75.417969 65 C 75.417969 63.109375 72.582031 63.109375 72.582031 65 C 72.582031 66.890625 75.417969 66.890625 75.417969 65 Z M 75.417969 65 "/>
</g>
</g>
<g clip-path="url(#clip103)" clip-rule="nonzero">
<g clip-path="url(#clip104)" clip-rule="nonzero">
<path style=" stroke:none;fill-rule:evenodd;fill:rgb(0%,0%,0%);fill-opacity:1;" d="M 64.078125 84.640625 C 64.078125 82.75 61.242188 82.75 61.242188 84.640625 C 61.242188 86.527344 64.078125 86.527344 64.078125 84.640625 Z M 64.078125 84.640625 "/>
</g>
</g>
<g clip-path="url(#clip105)" clip-rule="nonzero">
<g clip-path="url(#clip106)" clip-rule="nonzero">
<path style=" stroke:none;fill-rule:evenodd;fill:rgb(0%,0%,0%);fill-opacity:1;" d="M 109.433594 45.359375 C 109.433594 43.472656 106.597656 43.472656 106.597656 45.359375 C 106.597656 47.25 109.433594 47.25 109.433594 45.359375 Z M 109.433594 45.359375 "/>
</g>
</g>
<g clip-path="url(#clip107)" clip-rule="nonzero">
<g clip-path="url(#clip108)" clip-rule="nonzero">
<path style=" stroke:none;fill-rule:evenodd;fill:rgb(0%,0%,0%);fill-opacity:1;" d="M 98.09375 65 C 98.09375 63.109375 95.261719 63.109375 95.261719 65 C 95.261719 66.890625 98.09375 66.890625 98.09375 65 Z M 98.09375 65 "/>
</g>
</g>
<g clip-path="url(#clip109)" clip-rule="nonzero">
<g clip-path="url(#clip110)" clip-rule="nonzero">
<path style=" stroke:none;fill-rule:evenodd;fill:rgb(0%,0%,0%);fill-opacity:1;" d="M 86.757812 84.640625 C 86.757812 82.75 83.921875 82.75 83.921875 84.640625 C 83.921875 86.527344 86.757812 86.527344 86.757812 84.640625 Z M 86.757812 84.640625 "/>
</g>
</g>
<g clip-path="url(#clip111)" clip-rule="nonzero">
<g clip-path="url(#clip112)" clip-rule="nonzero">
<path style=" stroke:none;fill-rule:evenodd;fill:rgb(0%,0%,0%);fill-opacity:1;" d="M 75.417969 104.277344 C 75.417969 102.386719 72.582031 102.386719 72.582031 104.277344 C 72.582031 106.167969 75.417969 106.167969 75.417969 104.277344 Z M 75.417969 104.277344 "/>
</g>
</g>
<g clip-path="url(#clip113)" clip-rule="nonzero">
<g clip-path="url(#clip114)" clip-rule="nonzero">
<path style=" stroke:none;fill-rule:evenodd;fill:rgb(0%,0%,0%);fill-opacity:1;" d="M 109.433594 84.640625 C 109.433594 82.75 106.597656 82.75 106.597656 84.640625 C 106.597656 86.527344 109.433594 86.527344 109.433594 84.640625 Z M 109.433594 84.640625 "/>
</g>
</g>
<g clip-path="url(#clip115)" clip-rule="nonzero">
<g clip-path="url(#clip116)" clip-rule="nonzero">
<path style=" stroke:none;fill-rule:evenodd;fill:rgb(0%,0%,0%);fill-opacity:1;" d="M 98.09375 104.277344 C 98.09375 102.386719 95.261719 102.386719 95.261719 104.277344 C 95.261719 106.167969 98.09375 106.167969 98.09375 104.277344 Z M 98.09375 104.277344 "/>
</g>
</g>
<g clip-path="url(#clip117)" clip-rule="nonzero">
<g clip-path="url(#clip118)" clip-rule="nonzero">
<path style=" stroke:none;fill-rule:evenodd;fill:rgb(0%,0%,0%);fill-opacity:1;" d="M 109.433594 123.917969 C 109.433594 122.027344 106.597656 122.027344 106.597656 123.917969 C 106.597656 125.808594 109.433594 125.808594 109.433594 123.917969 Z M 109.433594 123.917969 "/>
</g>
</g>
<path style=" stroke:none;fill-rule:evenodd;fill:rgb(80%,80%,80%);fill-opacity:1;" d="M 79.667969 65 C 79.667969 61.867188 77.132812 59.332031 74 59.332031 C 70.867188 59.332031 68.332031 61.867188 68.332031 65 C 68.332031 68.132812 70.867188 70.667969 74 70.667969 C 77.132812 70.667969 79.667969 68.132812 79.667969 65 Z M 79.667969 65 "/>
<path style=" stroke:none;fill-rule:nonzero;fill:rgb(0%,0%,0%);fill-opacity:1;" d="M 74.4375 61.648438 C 74.4375 61.398438 74.4375 61.367188 74.1875 61.367188 C 73.515625 62.070312 72.546875 62.070312 72.203125 62.070312 L 72.203125 62.398438 C 72.421875 62.398438 73.0625 62.398438 73.640625 62.117188 L 73.640625 67.773438 C 73.640625 68.164062 73.59375 68.289062 72.625 68.289062 L 72.265625 68.289062 L 72.265625 68.632812 C 72.65625 68.601562 73.59375 68.601562 74.03125 68.601562 C 74.46875 68.601562 75.421875 68.601562 75.796875 68.632812 L 75.796875 68.289062 L 75.453125 68.289062 C 74.46875 68.289062 74.4375 68.179688 74.4375 67.773438 Z M 74.4375 61.648438 "/>
<path style=" stroke:none;fill-rule:evenodd;fill:rgb(80%,80%,80%);fill-opacity:1;" d="M 113.683594 84.640625 C 113.683594 81.507812 111.148438 78.96875 108.015625 78.96875 C 104.882812 78.96875 102.347656 81.507812 102.347656 84.640625 C 102.347656 87.769531 104.882812 90.308594 108.015625 90.308594 C 111.148438 90.308594 113.683594 87.769531 113.683594 84.640625 Z M 113.683594 84.640625 "/>
<path style=" stroke:none;fill-rule:nonzero;fill:rgb(0%,0%,0%);fill-opacity:1;" d="M 108.453125 81.289062 C 108.453125 81.039062 108.453125 81.007812 108.203125 81.007812 C 107.53125 81.710938 106.5625 81.710938 106.21875 81.710938 L 106.21875 82.039062 C 106.4375 82.039062 107.078125 82.039062 107.65625 81.757812 L 107.65625 87.414062 C 107.65625 87.804688 107.609375 87.929688 106.640625 87.929688 L 106.28125 87.929688 L 106.28125 88.273438 C 106.671875 88.242188 107.609375 88.242188 108.046875 88.242188 C 108.484375 88.242188 109.4375 88.242188 109.8125 88.273438 L 109.8125 87.929688 L 109.46875 87.929688 C 108.484375 87.929688 108.453125 87.820312 108.453125 87.414062 Z M 108.453125 81.289062 "/>
<path style=" stroke:none;fill-rule:evenodd;fill:rgb(80%,80%,80%);fill-opacity:1;" d="M 45.652344 45.359375 C 45.652344 42.230469 43.117188 39.691406 39.984375 39.691406 C 36.851562 39.691406 34.316406 42.230469 34.316406 45.359375 C 34.316406 48.492188 36.851562 51.03125 39.984375 51.03125 C 43.117188 51.03125 45.652344 48.492188 45.652344 45.359375 Z M 45.652344 45.359375 "/>
<path style=" stroke:none;fill-rule:nonzero;fill:rgb(0%,0%,0%);fill-opacity:1;" d="M 40.421875 42.007812 C 40.421875 41.757812 40.421875 41.726562 40.171875 41.726562 C 39.5 42.429688 38.53125 42.429688 38.1875 42.429688 L 38.1875 42.757812 C 38.40625 42.757812 39.046875 42.757812 39.625 42.476562 L 39.625 48.132812 C 39.625 48.523438 39.578125 48.648438 38.609375 48.648438 L 38.25 48.648438 L 38.25 48.992188 C 38.640625 48.960938 39.578125 48.960938 40.015625 48.960938 C 40.453125 48.960938 41.40625 48.960938 41.78125 48.992188 L 41.78125 48.648438 L 41.4375 48.648438 C 40.453125 48.648438 40.421875 48.539062 40.421875 48.132812 Z M 40.421875 42.007812 "/>
<path style=" stroke:none;fill-rule:evenodd;fill:rgb(80%,80%,80%);fill-opacity:1;" d="M 113.683594 45.359375 C 113.683594 42.230469 111.148438 39.691406 108.015625 39.691406 C 104.882812 39.691406 102.347656 42.230469 102.347656 45.359375 C 102.347656 48.492188 104.882812 51.03125 108.015625 51.03125 C 111.148438 51.03125 113.683594 48.492188 113.683594 45.359375 Z M 113.683594 45.359375 "/>
<path style=" stroke:none;fill-rule:nonzero;fill:rgb(0%,0%,0%);fill-opacity:1;" d="M 108.453125 42.007812 C 108.453125 41.757812 108.453125 41.726562 108.203125 41.726562 C 107.53125 42.429688 106.5625 42.429688 106.21875 42.429688 L 106.21875 42.757812 C 106.4375 42.757812 107.078125 42.757812 107.65625 42.476562 L 107.65625 48.132812 C 107.65625 48.523438 107.609375 48.648438 106.640625 48.648438 L 106.28125 48.648438 L 106.28125 48.992188 C 106.671875 48.960938 107.609375 48.960938 108.046875 48.960938 C 108.484375 48.960938 109.4375 48.960938 109.8125 48.992188 L 109.8125 48.648438 L 109.46875 48.648438 C 108.484375 48.648438 108.453125 48.539062 108.453125 48.132812 Z M 108.453125 42.007812 "/>
<path style=" stroke:none;fill-rule:evenodd;fill:rgb(80%,80%,80%);fill-opacity:1;" d="M 79.667969 25.722656 C 79.667969 22.589844 77.132812 20.050781 74 20.050781 C 70.867188 20.050781 68.332031 22.589844 68.332031 25.722656 C 68.332031 28.851562 70.867188 31.390625 74 31.390625 C 77.132812 31.390625 79.667969 28.851562 79.667969 25.722656 Z M 79.667969 25.722656 "/>
<path style=" stroke:none;fill-rule:nonzero;fill:rgb(0%,0%,0%);fill-opacity:1;" d="M 74.4375 22.371094 C 74.4375 22.121094 74.4375 22.089844 74.1875 22.089844 C 73.515625 22.792969 72.546875 22.792969 72.203125 22.792969 L 72.203125 23.121094 C 72.421875 23.121094 73.0625 23.121094 73.640625 22.839844 L 73.640625 28.496094 C 73.640625 28.886719 73.59375 29.011719 72.625 29.011719 L 72.265625 29.011719 L 72.265625 29.355469 C 72.65625 29.324219 73.59375 29.324219 74.03125 29.324219 C 74.46875 29.324219 75.421875 29.324219 75.796875 29.355469 L 75.796875 29.011719 L 75.453125 29.011719 C 74.46875 29.011719 74.4375 28.902344 74.4375 28.496094 Z M 74.4375 22.371094 "/>
<path style=" stroke:none;fill-rule:evenodd;fill:rgb(80%,80%,80%);fill-opacity:1;" d="M 113.683594 6.082031 C 113.683594 2.953125 111.148438 0.414062 108.015625 0.414062 C 104.882812 0.414062 102.347656 2.953125 102.347656 6.082031 C 102.347656 9.214844 104.882812 11.753906 108.015625 11.753906 C 111.148438 11.753906 113.683594 9.214844 113.683594 6.082031 Z M 113.683594 6.082031 "/>
<path style=" stroke:none;fill-rule:nonzero;fill:rgb(0%,0%,0%);fill-opacity:1;" d="M 108.453125 2.730469 C 108.453125 2.480469 108.453125 2.449219 108.203125 2.449219 C 107.53125 3.152344 106.5625 3.152344 106.21875 3.152344 L 106.21875 3.480469 C 106.4375 3.480469 107.078125 3.480469 107.65625 3.199219 L 107.65625 8.855469 C 107.65625 9.246094 107.609375 9.371094 106.640625 9.371094 L 106.28125 9.371094 L 106.28125 9.714844 C 106.671875 9.683594 107.609375 9.683594 108.046875 9.683594 C 108.484375 9.683594 109.4375 9.683594 109.8125 9.714844 L 109.8125 9.371094 L 109.46875 9.371094 C 108.484375 9.371094 108.453125 9.261719 108.453125 8.855469 Z M 108.453125 2.730469 "/>
<path style=" stroke:none;fill-rule:evenodd;fill:rgb(80%,80%,80%);fill-opacity:1;" d="M 45.652344 84.640625 C 45.652344 81.507812 43.117188 78.96875 39.984375 78.96875 C 36.851562 78.96875 34.316406 81.507812 34.316406 84.640625 C 34.316406 87.769531 36.851562 90.308594 39.984375 90.308594 C 43.117188 90.308594 45.652344 87.769531 45.652344 84.640625 Z M 45.652344 84.640625 "/>
<path style=" stroke:none;fill-rule:nonzero;fill:rgb(0%,0%,0%);fill-opacity:1;" d="M 40.421875 81.289062 C 40.421875 81.039062 40.421875 81.007812 40.171875 81.007812 C 39.5 81.710938 38.53125 81.710938 38.1875 81.710938 L 38.1875 82.039062 C 38.40625 82.039062 39.046875 82.039062 39.625 81.757812 L 39.625 87.414062 C 39.625 87.804688 39.578125 87.929688 38.609375 87.929688 L 38.25 87.929688 L 38.25 88.273438 C 38.640625 88.242188 39.578125 88.242188 40.015625 88.242188 C 40.453125 88.242188 41.40625 88.242188 41.78125 88.273438 L 41.78125 87.929688 L 41.4375 87.929688 C 40.453125 87.929688 40.421875 87.820312 40.421875 87.414062 Z M 40.421875 81.289062 "/>
<path style=" stroke:none;fill-rule:evenodd;fill:rgb(80%,80%,80%);fill-opacity:1;" d="M 79.667969 104.277344 C 79.667969 101.148438 77.132812 98.609375 74 98.609375 C 70.867188 98.609375 68.332031 101.148438 68.332031 104.277344 C 68.332031 107.410156 70.867188 109.949219 74 109.949219 C 77.132812 109.949219 79.667969 107.410156 79.667969 104.277344 Z M 79.667969 104.277344 "/>
<path style=" stroke:none;fill-rule:nonzero;fill:rgb(0%,0%,0%);fill-opacity:1;" d="M 74.4375 100.925781 C 74.4375 100.675781 74.4375 100.644531 74.1875 100.644531 C 73.515625 101.347656 72.546875 101.347656 72.203125 101.347656 L 72.203125 101.675781 C 72.421875 101.675781 73.0625 101.675781 73.640625 101.394531 L 73.640625 107.050781 C 73.640625 107.441406 73.59375 107.566406 72.625 107.566406 L 72.265625 107.566406 L 72.265625 107.910156 C 72.65625 107.878906 73.59375 107.878906 74.03125 107.878906 C 74.46875 107.878906 75.421875 107.878906 75.796875 107.910156 L 75.796875 107.566406 L 75.453125 107.566406 C 74.46875 107.566406 74.4375 107.457031 74.4375 107.050781 Z M 74.4375 100.925781 "/>
<path style=" stroke:none;fill-rule:evenodd;fill:rgb(80%,80%,80%);fill-opacity:1;" d="M 113.683594 123.917969 C 113.683594 120.785156 111.148438 118.246094 108.015625 118.246094 C 104.882812 118.246094 102.347656 120.785156 102.347656 123.917969 C 102.347656 127.046875 104.882812 129.585938 108.015625 129.585938 C 111.148438 129.585938 113.683594 127.046875 113.683594 123.917969 Z M 113.683594 123.917969 "/>
<path style=" stroke:none;fill-rule:nonzero;fill:rgb(0%,0%,0%);fill-opacity:1;" d="M 108.453125 120.566406 C 108.453125 120.316406 108.453125 120.285156 108.203125 120.285156 C 107.53125 120.988281 106.5625 120.988281 106.21875 120.988281 L 106.21875 121.316406 C 106.4375 121.316406 107.078125 121.316406 107.65625 121.035156 L 107.65625 126.691406 C 107.65625 127.082031 107.609375 127.207031 106.640625 127.207031 L 106.28125 127.207031 L 106.28125 127.550781 C 106.671875 127.519531 107.609375 127.519531 108.046875 127.519531 C 108.484375 127.519531 109.4375 127.519531 109.8125 127.550781 L 109.8125 127.207031 L 109.46875 127.207031 C 108.484375 127.207031 108.453125 127.097656 108.453125 126.691406 Z M 108.453125 120.566406 "/>
<path style=" stroke:none;fill-rule:evenodd;fill:rgb(80%,80%,80%);fill-opacity:1;" d="M 11.636719 65 C 11.636719 61.867188 9.097656 59.332031 5.96875 59.332031 C 2.835938 59.332031 0.300781 61.867188 0.300781 65 C 0.300781 68.132812 2.835938 70.667969 5.96875 70.667969 C 9.097656 70.667969 11.636719 68.132812 11.636719 65 Z M 11.636719 65 "/>
<path style=" stroke:none;fill-rule:nonzero;fill:rgb(0%,0%,0%);fill-opacity:1;" d="M 6.40625 61.648438 C 6.40625 61.398438 6.40625 61.367188 6.15625 61.367188 C 5.484375 62.070312 4.515625 62.070312 4.171875 62.070312 L 4.171875 62.398438 C 4.390625 62.398438 5.03125 62.398438 5.609375 62.117188 L 5.609375 67.773438 C 5.609375 68.164062 5.5625 68.289062 4.59375 68.289062 L 4.234375 68.289062 L 4.234375 68.632812 C 4.625 68.601562 5.5625 68.601562 6 68.601562 C 6.4375 68.601562 7.390625 68.601562 7.765625 68.632812 L 7.765625 68.289062 L 7.421875 68.289062 C 6.4375 68.289062 6.40625 68.179688 6.40625 67.773438 Z M 6.40625 61.648438 "/>
</g>
</svg>
