<?xml version="1.0" encoding="UTF-8"?>
<svg xmlns="http://www.w3.org/2000/svg" xmlns:xlink="http://www.w3.org/1999/xlink" width="12pt" height="12pt" viewBox="0 0 12 12" version="1.1">
<g id="surface12">
<path style=" stroke:none;fill-rule:evenodd;fill:rgb(80%,80%,80%);fill-opacity:1;" d="M 11.667969 6 C 11.667969 2.867188 9.132812 0.332031 6 0.332031 C 2.867188 0.332031 0.332031 2.867188 0.332031 6 C 0.332031 9.132812 2.867188 11.667969 6 11.667969 C 9.132812 11.667969 11.667969 9.132812 11.667969 6 Z M 11.667969 6 "/>
<path style=" stroke:none;fill-rule:nonzero;fill:rgb(0%,0%,0%);fill-opacity:1;" d="M 6.4375 2.648438 C 6.4375 2.398438 6.4375 2.367188 6.1875 2.367188 C 5.515625 3.070312 4.546875 3.070312 4.203125 3.070312 L 4.203125 3.398438 C 4.421875 3.398438 5.0625 3.398438 5.640625 3.117188 L 5.640625 8.773438 C 5.640625 9.164062 5.59375 9.289062 4.625 9.289062 L 4.265625 9.289062 L 4.265625 9.632812 C 4.65625 9.601562 5.59375 9.601562 6.03125 9.601562 C 6.46875 9.601562 7.421875 9.601562 7.796875 9.632812 L 7.796875 9.289062 L 7.453125 9.289062 C 6.46875 9.289062 6.4375 9.179688 6.4375 8.773438 Z M 6.4375 2.648438 "/>
</g>
</svg>
