<?xml version="1.0" encoding="UTF-8"?>
<svg xmlns="http://www.w3.org/2000/svg" xmlns:xlink="http://www.w3.org/1999/xlink" width="81pt" height="90pt" viewBox="0 0 81 90" version="1.1">
<defs>
<clipPath id="clip1">
  <path d="M 6 5 L 38 5 L 38 54 L 6 54 Z M 6 5 "/>
</clipPath>
<clipPath id="clip2">
  <path d="M 6.324219 5.722656 L 74.355469 45 L 6.324219 84.277344 Z M 6.324219 5.722656 "/>
</clipPath>
<clipPath id="clip3">
  <path d="M 6 5 L 52 5 L 52 7 L 6 7 Z M 6 5 "/>
</clipPath>
<clipPath id="clip4">
  <path d="M 6.324219 5.722656 L 74.355469 45 L 6.324219 84.277344 Z M 6.324219 5.722656 "/>
</clipPath>
<clipPath id="clip5">
  <path d="M 6 5 L 38 5 L 38 54 L 6 54 Z M 6 5 "/>
</clipPath>
<clipPath id="clip6">
  <path d="M 6.324219 5.722656 L 74.355469 45 L 6.324219 84.277344 Z M 6.324219 5.722656 "/>
</clipPath>
<clipPath id="clip7">
  <path d="M 6 5 L 49 5 L 49 73 L 6 73 Z M 6 5 "/>
</clipPath>
<clipPath id="clip8">
  <path d="M 6.324219 5.722656 L 74.355469 45 L 6.324219 84.277344 Z M 6.324219 5.722656 "/>
</clipPath>
<clipPath id="clip9">
  <path d="M 6 25 L 64 25 L 64 26 L 6 26 Z M 6 25 "/>
</clipPath>
<clipPath id="clip10">
  <path d="M 6.324219 5.722656 L 74.355469 45 L 6.324219 84.277344 Z M 6.324219 5.722656 "/>
</clipPath>
<clipPath id="clip11">
  <path d="M 6 5 L 49 5 L 49 73 L 6 73 Z M 6 5 "/>
</clipPath>
<clipPath id="clip12">
  <path d="M 6.324219 5.722656 L 74.355469 45 L 6.324219 84.277344 Z M 6.324219 5.722656 "/>
</clipPath>
<clipPath id="clip13">
  <path d="M 6 5 L 38 5 L 38 85 L 6 85 Z M 6 5 "/>
</clipPath>
<clipPath id="clip14">
  <path d="M 6.324219 5.722656 L 74.355469 45 L 6.324219 84.277344 Z M 6.324219 5.722656 "/>
</clipPath>
<clipPath id="clip15">
  <path d="M 6 44 L 52 44 L 52 46 L 6 46 Z M 6 44 "/>
</clipPath>
<clipPath id="clip16">
  <path d="M 6.324219 5.722656 L 74.355469 45 L 6.324219 84.277344 Z M 6.324219 5.722656 "/>
</clipPath>
<clipPath id="clip17">
  <path d="M 6 5 L 38 5 L 38 85 L 6 85 Z M 6 5 "/>
</clipPath>
<clipPath id="clip18">
  <path d="M 6.324219 5.722656 L 74.355469 45 L 6.324219 84.277344 Z M 6.324219 5.722656 "/>
</clipPath>
<clipPath id="clip19">
  <path d="M 9 5 L 72 5 L 72 73 L 9 73 Z M 9 5 "/>
</clipPath>
<clipPath id="clip20">
  <path d="M 6.324219 5.722656 L 74.355469 45 L 6.324219 84.277344 Z M 6.324219 5.722656 "/>
</clipPath>
<clipPath id="clip21">
  <path d="M 6 25 L 75 25 L 75 26 L 6 26 Z M 6 25 "/>
</clipPath>
<clipPath id="clip22">
  <path d="M 6.324219 5.722656 L 74.355469 45 L 6.324219 84.277344 Z M 6.324219 5.722656 "/>
</clipPath>
<clipPath id="clip23">
  <path d="M 9 5 L 72 5 L 72 73 L 9 73 Z M 9 5 "/>
</clipPath>
<clipPath id="clip24">
  <path d="M 6.324219 5.722656 L 74.355469 45 L 6.324219 84.277344 Z M 6.324219 5.722656 "/>
</clipPath>
<clipPath id="clip25">
  <path d="M 6 5 L 60 5 L 60 85 L 6 85 Z M 6 5 "/>
</clipPath>
<clipPath id="clip26">
  <path d="M 6.324219 5.722656 L 74.355469 45 L 6.324219 84.277344 Z M 6.324219 5.722656 "/>
</clipPath>
<clipPath id="clip27">
  <path d="M 6 44 L 75 44 L 75 46 L 6 46 Z M 6 44 "/>
</clipPath>
<clipPath id="clip28">
  <path d="M 6.324219 5.722656 L 74.355469 45 L 6.324219 84.277344 Z M 6.324219 5.722656 "/>
</clipPath>
<clipPath id="clip29">
  <path d="M 6 5 L 60 5 L 60 85 L 6 85 Z M 6 5 "/>
</clipPath>
<clipPath id="clip30">
  <path d="M 6.324219 5.722656 L 74.355469 45 L 6.324219 84.277344 Z M 6.324219 5.722656 "/>
</clipPath>
<clipPath id="clip31">
  <path d="M 6 17 L 49 17 L 49 85 L 6 85 Z M 6 17 "/>
</clipPath>
<clipPath id="clip32">
  <path d="M 6.324219 5.722656 L 74.355469 45 L 6.324219 84.277344 Z M 6.324219 5.722656 "/>
</clipPath>
<clipPath id="clip33">
  <path d="M 6 64 L 64 64 L 64 65 L 6 65 Z M 6 64 "/>
</clipPath>
<clipPath id="clip34">
  <path d="M 6.324219 5.722656 L 74.355469 45 L 6.324219 84.277344 Z M 6.324219 5.722656 "/>
</clipPath>
<clipPath id="clip35">
  <path d="M 6 17 L 49 17 L 49 85 L 6 85 Z M 6 17 "/>
</clipPath>
<clipPath id="clip36">
  <path d="M 6.324219 5.722656 L 74.355469 45 L 6.324219 84.277344 Z M 6.324219 5.722656 "/>
</clipPath>
<clipPath id="clip37">
  <path d="M 6 36 L 38 36 L 38 85 L 6 85 Z M 6 36 "/>
</clipPath>
<clipPath id="clip38">
  <path d="M 6.324219 5.722656 L 74.355469 45 L 6.324219 84.277344 Z M 6.324219 5.722656 "/>
</clipPath>
<clipPath id="clip39">
  <path d="M 6 83 L 52 83 L 52 85 L 6 85 Z M 6 83 "/>
</clipPath>
<clipPath id="clip40">
  <path d="M 6.324219 5.722656 L 74.355469 45 L 6.324219 84.277344 Z M 6.324219 5.722656 "/>
</clipPath>
<clipPath id="clip41">
  <path d="M 6 36 L 38 36 L 38 85 L 6 85 Z M 6 36 "/>
</clipPath>
<clipPath id="clip42">
  <path d="M 6.324219 5.722656 L 74.355469 45 L 6.324219 84.277344 Z M 6.324219 5.722656 "/>
</clipPath>
<clipPath id="clip43">
  <path d="M 20 5 L 75 5 L 75 85 L 20 85 Z M 20 5 "/>
</clipPath>
<clipPath id="clip44">
  <path d="M 6.324219 5.722656 L 74.355469 45 L 6.324219 84.277344 Z M 6.324219 5.722656 "/>
</clipPath>
<clipPath id="clip45">
  <path d="M 6 44 L 75 44 L 75 46 L 6 46 Z M 6 44 "/>
</clipPath>
<clipPath id="clip46">
  <path d="M 6.324219 5.722656 L 74.355469 45 L 6.324219 84.277344 Z M 6.324219 5.722656 "/>
</clipPath>
<clipPath id="clip47">
  <path d="M 20 5 L 75 5 L 75 85 L 20 85 Z M 20 5 "/>
</clipPath>
<clipPath id="clip48">
  <path d="M 6.324219 5.722656 L 74.355469 45 L 6.324219 84.277344 Z M 6.324219 5.722656 "/>
</clipPath>
<clipPath id="clip49">
  <path d="M 9 17 L 72 17 L 72 85 L 9 85 Z M 9 17 "/>
</clipPath>
<clipPath id="clip50">
  <path d="M 6.324219 5.722656 L 74.355469 45 L 6.324219 84.277344 Z M 6.324219 5.722656 "/>
</clipPath>
<clipPath id="clip51">
  <path d="M 6 64 L 75 64 L 75 65 L 6 65 Z M 6 64 "/>
</clipPath>
<clipPath id="clip52">
  <path d="M 6.324219 5.722656 L 74.355469 45 L 6.324219 84.277344 Z M 6.324219 5.722656 "/>
</clipPath>
<clipPath id="clip53">
  <path d="M 9 17 L 72 17 L 72 85 L 9 85 Z M 9 17 "/>
</clipPath>
<clipPath id="clip54">
  <path d="M 6.324219 5.722656 L 74.355469 45 L 6.324219 84.277344 Z M 6.324219 5.722656 "/>
</clipPath>
<clipPath id="clip55">
  <path d="M 43 5 L 75 5 L 75 85 L 43 85 Z M 43 5 "/>
</clipPath>
<clipPath id="clip56">
  <path d="M 6.324219 5.722656 L 74.355469 45 L 6.324219 84.277344 Z M 6.324219 5.722656 "/>
</clipPath>
<clipPath id="clip57">
  <path d="M 28 44 L 75 44 L 75 46 L 28 46 Z M 28 44 "/>
</clipPath>
<clipPath id="clip58">
  <path d="M 6.324219 5.722656 L 74.355469 45 L 6.324219 84.277344 Z M 6.324219 5.722656 "/>
</clipPath>
<clipPath id="clip59">
  <path d="M 43 5 L 75 5 L 75 85 L 43 85 Z M 43 5 "/>
</clipPath>
<clipPath id="clip60">
  <path d="M 6.324219 5.722656 L 74.355469 45 L 6.324219 84.277344 Z M 6.324219 5.722656 "/>
</clipPath>
<clipPath id="clip61">
  <path d="M 6 5 L 68 5 L 68 85 L 6 85 Z M 6 5 "/>
</clipPath>
<clipPath id="clip62">
  <path d="M 6.324219 5.722656 L 74.355469 45 L 6.324219 84.277344 Z M 6.324219 5.722656 "/>
</clipPath>
<clipPath id="clip63">
  <path d="M 6 44 L 75 44 L 75 46 L 6 46 Z M 6 44 "/>
</clipPath>
<clipPath id="clip64">
  <path d="M 6.324219 5.722656 L 74.355469 45 L 6.324219 84.277344 Z M 6.324219 5.722656 "/>
</clipPath>
<clipPath id="clip65">
  <path d="M 6 5 L 68 5 L 68 85 L 6 85 Z M 6 5 "/>
</clipPath>
<clipPath id="clip66">
  <path d="M 6.324219 5.722656 L 74.355469 45 L 6.324219 84.277344 Z M 6.324219 5.722656 "/>
</clipPath>
<clipPath id="clip67">
  <path d="M 6 5 L 8 5 L 8 8 L 6 8 Z M 6 5 "/>
</clipPath>
<clipPath id="clip68">
  <path d="M 6.324219 5.722656 L 74.355469 45 L 6.324219 84.277344 Z M 6.324219 5.722656 "/>
</clipPath>
<clipPath id="clip69">
  <path d="M 16 23 L 20 23 L 20 27 L 16 27 Z M 16 23 "/>
</clipPath>
<clipPath id="clip70">
  <path d="M 6.324219 5.722656 L 74.355469 45 L 6.324219 84.277344 Z M 6.324219 5.722656 "/>
</clipPath>
<clipPath id="clip71">
  <path d="M 6 43 L 8 43 L 8 47 L 6 47 Z M 6 43 "/>
</clipPath>
<clipPath id="clip72">
  <path d="M 6.324219 5.722656 L 74.355469 45 L 6.324219 84.277344 Z M 6.324219 5.722656 "/>
</clipPath>
<clipPath id="clip73">
  <path d="M 38 23 L 42 23 L 42 27 L 38 27 Z M 38 23 "/>
</clipPath>
<clipPath id="clip74">
  <path d="M 6.324219 5.722656 L 74.355469 45 L 6.324219 84.277344 Z M 6.324219 5.722656 "/>
</clipPath>
<clipPath id="clip75">
  <path d="M 27 43 L 31 43 L 31 47 L 27 47 Z M 27 43 "/>
</clipPath>
<clipPath id="clip76">
  <path d="M 6.324219 5.722656 L 74.355469 45 L 6.324219 84.277344 Z M 6.324219 5.722656 "/>
</clipPath>
<clipPath id="clip77">
  <path d="M 16 63 L 20 63 L 20 67 L 16 67 Z M 16 63 "/>
</clipPath>
<clipPath id="clip78">
  <path d="M 6.324219 5.722656 L 74.355469 45 L 6.324219 84.277344 Z M 6.324219 5.722656 "/>
</clipPath>
<clipPath id="clip79">
  <path d="M 6 82 L 8 82 L 8 85 L 6 85 Z M 6 82 "/>
</clipPath>
<clipPath id="clip80">
  <path d="M 6.324219 5.722656 L 74.355469 45 L 6.324219 84.277344 Z M 6.324219 5.722656 "/>
</clipPath>
<clipPath id="clip81">
  <path d="M 50 43 L 54 43 L 54 47 L 50 47 Z M 50 43 "/>
</clipPath>
<clipPath id="clip82">
  <path d="M 6.324219 5.722656 L 74.355469 45 L 6.324219 84.277344 Z M 6.324219 5.722656 "/>
</clipPath>
<clipPath id="clip83">
  <path d="M 38 63 L 42 63 L 42 67 L 38 67 Z M 38 63 "/>
</clipPath>
<clipPath id="clip84">
  <path d="M 6.324219 5.722656 L 74.355469 45 L 6.324219 84.277344 Z M 6.324219 5.722656 "/>
</clipPath>
<clipPath id="clip85">
  <path d="M 72 43 L 75 43 L 75 47 L 72 47 Z M 72 43 "/>
</clipPath>
<clipPath id="clip86">
  <path d="M 6.324219 5.722656 L 74.355469 45 L 6.324219 84.277344 Z M 6.324219 5.722656 "/>
</clipPath>
</defs>
<g id="surface140">
<path style="fill:none;stroke-width:1.133858;stroke-linecap:butt;stroke-linejoin:miter;stroke:rgb(0%,0%,0%);stroke-opacity:1;stroke-miterlimit:10;" d="M -22.675781 -39.277344 L 45.355469 0 L -22.675781 39.277344 Z M -22.675781 -39.277344 " transform="matrix(1,0,0,1,29,45)"/>
<g clip-path="url(#clip1)" clip-rule="nonzero">
<g clip-path="url(#clip2)" clip-rule="nonzero">
<path style="fill:none;stroke-width:0.566929;stroke-linecap:butt;stroke-linejoin:miter;stroke:rgb(0%,0%,0%);stroke-opacity:1;stroke-miterlimit:10;" d="M 0 0 L -45.355469 -78.554688 " transform="matrix(1,0,0,1,29,45)"/>
</g>
</g>
<g clip-path="url(#clip3)" clip-rule="nonzero">
<g clip-path="url(#clip4)" clip-rule="nonzero">
<path style="fill:none;stroke-width:0.566929;stroke-linecap:butt;stroke-linejoin:miter;stroke:rgb(0%,0%,0%);stroke-opacity:1;stroke-miterlimit:10;" d="M -68.03125 -39.277344 L 22.675781 -39.277344 " transform="matrix(1,0,0,1,29,45)"/>
</g>
</g>
<g clip-path="url(#clip5)" clip-rule="nonzero">
<g clip-path="url(#clip6)" clip-rule="nonzero">
<path style="fill:none;stroke-width:0.566929;stroke-linecap:butt;stroke-linejoin:miter;stroke:rgb(0%,0%,0%);stroke-opacity:1;stroke-miterlimit:10;" d="M 0 -78.554688 L -45.355469 0 " transform="matrix(1,0,0,1,29,45)"/>
</g>
</g>
<g clip-path="url(#clip7)" clip-rule="nonzero">
<g clip-path="url(#clip8)" clip-rule="nonzero">
<path style="fill:none;stroke-width:0.566929;stroke-linecap:butt;stroke-linejoin:miter;stroke:rgb(0%,0%,0%);stroke-opacity:1;stroke-miterlimit:10;" d="M 11.339844 19.640625 L -34.015625 -58.917969 " transform="matrix(1,0,0,1,29,45)"/>
</g>
</g>
<g clip-path="url(#clip9)" clip-rule="nonzero">
<g clip-path="url(#clip10)" clip-rule="nonzero">
<path style="fill:none;stroke-width:0.566929;stroke-linecap:butt;stroke-linejoin:miter;stroke:rgb(0%,0%,0%);stroke-opacity:1;stroke-miterlimit:10;" d="M -56.691406 -19.640625 L 34.015625 -19.640625 " transform="matrix(1,0,0,1,29,45)"/>
</g>
</g>
<g clip-path="url(#clip11)" clip-rule="nonzero">
<g clip-path="url(#clip12)" clip-rule="nonzero">
<path style="fill:none;stroke-width:0.566929;stroke-linecap:butt;stroke-linejoin:miter;stroke:rgb(0%,0%,0%);stroke-opacity:1;stroke-miterlimit:10;" d="M 11.339844 -58.917969 L -34.015625 19.640625 " transform="matrix(1,0,0,1,29,45)"/>
</g>
</g>
<g clip-path="url(#clip13)" clip-rule="nonzero">
<g clip-path="url(#clip14)" clip-rule="nonzero">
<path style="fill:none;stroke-width:0.566929;stroke-linecap:butt;stroke-linejoin:miter;stroke:rgb(0%,0%,0%);stroke-opacity:1;stroke-miterlimit:10;" d="M 0 39.277344 L -45.355469 -39.277344 " transform="matrix(1,0,0,1,29,45)"/>
</g>
</g>
<g clip-path="url(#clip15)" clip-rule="nonzero">
<g clip-path="url(#clip16)" clip-rule="nonzero">
<path style="fill:none;stroke-width:0.566929;stroke-linecap:butt;stroke-linejoin:miter;stroke:rgb(0%,0%,0%);stroke-opacity:1;stroke-miterlimit:10;" d="M -68.03125 0 L 22.675781 0 " transform="matrix(1,0,0,1,29,45)"/>
</g>
</g>
<g clip-path="url(#clip17)" clip-rule="nonzero">
<g clip-path="url(#clip18)" clip-rule="nonzero">
<path style="fill:none;stroke-width:0.566929;stroke-linecap:butt;stroke-linejoin:miter;stroke:rgb(0%,0%,0%);stroke-opacity:1;stroke-miterlimit:10;" d="M 0 -39.277344 L -45.355469 39.277344 " transform="matrix(1,0,0,1,29,45)"/>
</g>
</g>
<g clip-path="url(#clip19)" clip-rule="nonzero">
<g clip-path="url(#clip20)" clip-rule="nonzero">
<path style="fill:none;stroke-width:0.566929;stroke-linecap:butt;stroke-linejoin:miter;stroke:rgb(0%,0%,0%);stroke-opacity:1;stroke-miterlimit:10;" d="M 34.015625 19.640625 L -11.339844 -58.917969 " transform="matrix(1,0,0,1,29,45)"/>
</g>
</g>
<g clip-path="url(#clip21)" clip-rule="nonzero">
<g clip-path="url(#clip22)" clip-rule="nonzero">
<path style="fill:none;stroke-width:0.566929;stroke-linecap:butt;stroke-linejoin:miter;stroke:rgb(0%,0%,0%);stroke-opacity:1;stroke-miterlimit:10;" d="M -34.015625 -19.640625 L 56.691406 -19.640625 " transform="matrix(1,0,0,1,29,45)"/>
</g>
</g>
<g clip-path="url(#clip23)" clip-rule="nonzero">
<g clip-path="url(#clip24)" clip-rule="nonzero">
<path style="fill:none;stroke-width:0.566929;stroke-linecap:butt;stroke-linejoin:miter;stroke:rgb(0%,0%,0%);stroke-opacity:1;stroke-miterlimit:10;" d="M 34.015625 -58.917969 L -11.339844 19.640625 " transform="matrix(1,0,0,1,29,45)"/>
</g>
</g>
<g clip-path="url(#clip25)" clip-rule="nonzero">
<g clip-path="url(#clip26)" clip-rule="nonzero">
<path style="fill:none;stroke-width:0.566929;stroke-linecap:butt;stroke-linejoin:miter;stroke:rgb(0%,0%,0%);stroke-opacity:1;stroke-miterlimit:10;" d="M 22.675781 39.277344 L -22.675781 -39.277344 " transform="matrix(1,0,0,1,29,45)"/>
</g>
</g>
<g clip-path="url(#clip27)" clip-rule="nonzero">
<g clip-path="url(#clip28)" clip-rule="nonzero">
<path style="fill:none;stroke-width:0.566929;stroke-linecap:butt;stroke-linejoin:miter;stroke:rgb(0%,0%,0%);stroke-opacity:1;stroke-miterlimit:10;" d="M -45.355469 0 L 45.355469 0 " transform="matrix(1,0,0,1,29,45)"/>
</g>
</g>
<g clip-path="url(#clip29)" clip-rule="nonzero">
<g clip-path="url(#clip30)" clip-rule="nonzero">
<path style="fill:none;stroke-width:0.566929;stroke-linecap:butt;stroke-linejoin:miter;stroke:rgb(0%,0%,0%);stroke-opacity:1;stroke-miterlimit:10;" d="M 22.675781 -39.277344 L -22.675781 39.277344 " transform="matrix(1,0,0,1,29,45)"/>
</g>
</g>
<g clip-path="url(#clip31)" clip-rule="nonzero">
<g clip-path="url(#clip32)" clip-rule="nonzero">
<path style="fill:none;stroke-width:0.566929;stroke-linecap:butt;stroke-linejoin:miter;stroke:rgb(0%,0%,0%);stroke-opacity:1;stroke-miterlimit:10;" d="M 11.339844 58.917969 L -34.015625 -19.640625 " transform="matrix(1,0,0,1,29,45)"/>
</g>
</g>
<g clip-path="url(#clip33)" clip-rule="nonzero">
<g clip-path="url(#clip34)" clip-rule="nonzero">
<path style="fill:none;stroke-width:0.566929;stroke-linecap:butt;stroke-linejoin:miter;stroke:rgb(0%,0%,0%);stroke-opacity:1;stroke-miterlimit:10;" d="M -56.691406 19.640625 L 34.015625 19.640625 " transform="matrix(1,0,0,1,29,45)"/>
</g>
</g>
<g clip-path="url(#clip35)" clip-rule="nonzero">
<g clip-path="url(#clip36)" clip-rule="nonzero">
<path style="fill:none;stroke-width:0.566929;stroke-linecap:butt;stroke-linejoin:miter;stroke:rgb(0%,0%,0%);stroke-opacity:1;stroke-miterlimit:10;" d="M 11.339844 -19.640625 L -34.015625 58.917969 " transform="matrix(1,0,0,1,29,45)"/>
</g>
</g>
<g clip-path="url(#clip37)" clip-rule="nonzero">
<g clip-path="url(#clip38)" clip-rule="nonzero">
<path style="fill:none;stroke-width:0.566929;stroke-linecap:butt;stroke-linejoin:miter;stroke:rgb(0%,0%,0%);stroke-opacity:1;stroke-miterlimit:10;" d="M 0 78.554688 L -45.355469 0 " transform="matrix(1,0,0,1,29,45)"/>
</g>
</g>
<g clip-path="url(#clip39)" clip-rule="nonzero">
<g clip-path="url(#clip40)" clip-rule="nonzero">
<path style="fill:none;stroke-width:0.566929;stroke-linecap:butt;stroke-linejoin:miter;stroke:rgb(0%,0%,0%);stroke-opacity:1;stroke-miterlimit:10;" d="M -68.03125 39.277344 L 22.675781 39.277344 " transform="matrix(1,0,0,1,29,45)"/>
</g>
</g>
<g clip-path="url(#clip41)" clip-rule="nonzero">
<g clip-path="url(#clip42)" clip-rule="nonzero">
<path style="fill:none;stroke-width:0.566929;stroke-linecap:butt;stroke-linejoin:miter;stroke:rgb(0%,0%,0%);stroke-opacity:1;stroke-miterlimit:10;" d="M 0 0 L -45.355469 78.554688 " transform="matrix(1,0,0,1,29,45)"/>
</g>
</g>
<g clip-path="url(#clip43)" clip-rule="nonzero">
<g clip-path="url(#clip44)" clip-rule="nonzero">
<path style="fill:none;stroke-width:0.566929;stroke-linecap:butt;stroke-linejoin:miter;stroke:rgb(0%,0%,0%);stroke-opacity:1;stroke-miterlimit:10;" d="M 45.355469 39.277344 L 0 -39.277344 " transform="matrix(1,0,0,1,29,45)"/>
</g>
</g>
<g clip-path="url(#clip45)" clip-rule="nonzero">
<g clip-path="url(#clip46)" clip-rule="nonzero">
<path style="fill:none;stroke-width:0.566929;stroke-linecap:butt;stroke-linejoin:miter;stroke:rgb(0%,0%,0%);stroke-opacity:1;stroke-miterlimit:10;" d="M -22.675781 0 L 68.03125 0 " transform="matrix(1,0,0,1,29,45)"/>
</g>
</g>
<g clip-path="url(#clip47)" clip-rule="nonzero">
<g clip-path="url(#clip48)" clip-rule="nonzero">
<path style="fill:none;stroke-width:0.566929;stroke-linecap:butt;stroke-linejoin:miter;stroke:rgb(0%,0%,0%);stroke-opacity:1;stroke-miterlimit:10;" d="M 45.355469 -39.277344 L 0 39.277344 " transform="matrix(1,0,0,1,29,45)"/>
</g>
</g>
<g clip-path="url(#clip49)" clip-rule="nonzero">
<g clip-path="url(#clip50)" clip-rule="nonzero">
<path style="fill:none;stroke-width:0.566929;stroke-linecap:butt;stroke-linejoin:miter;stroke:rgb(0%,0%,0%);stroke-opacity:1;stroke-miterlimit:10;" d="M 34.015625 58.917969 L -11.339844 -19.640625 " transform="matrix(1,0,0,1,29,45)"/>
</g>
</g>
<g clip-path="url(#clip51)" clip-rule="nonzero">
<g clip-path="url(#clip52)" clip-rule="nonzero">
<path style="fill:none;stroke-width:0.566929;stroke-linecap:butt;stroke-linejoin:miter;stroke:rgb(0%,0%,0%);stroke-opacity:1;stroke-miterlimit:10;" d="M -34.015625 19.640625 L 56.691406 19.640625 " transform="matrix(1,0,0,1,29,45)"/>
</g>
</g>
<g clip-path="url(#clip53)" clip-rule="nonzero">
<g clip-path="url(#clip54)" clip-rule="nonzero">
<path style="fill:none;stroke-width:0.566929;stroke-linecap:butt;stroke-linejoin:miter;stroke:rgb(0%,0%,0%);stroke-opacity:1;stroke-miterlimit:10;" d="M 34.015625 -19.640625 L -11.339844 58.917969 " transform="matrix(1,0,0,1,29,45)"/>
</g>
</g>
<g clip-path="url(#clip55)" clip-rule="nonzero">
<g clip-path="url(#clip56)" clip-rule="nonzero">
<path style="fill:none;stroke-width:0.566929;stroke-linecap:butt;stroke-linejoin:miter;stroke:rgb(0%,0%,0%);stroke-opacity:1;stroke-miterlimit:10;" d="M 68.03125 39.277344 L 22.675781 -39.277344 " transform="matrix(1,0,0,1,29,45)"/>
</g>
</g>
<g clip-path="url(#clip57)" clip-rule="nonzero">
<g clip-path="url(#clip58)" clip-rule="nonzero">
<path style="fill:none;stroke-width:0.566929;stroke-linecap:butt;stroke-linejoin:miter;stroke:rgb(0%,0%,0%);stroke-opacity:1;stroke-miterlimit:10;" d="M 0 0 L 90.707031 0 " transform="matrix(1,0,0,1,29,45)"/>
</g>
</g>
<g clip-path="url(#clip59)" clip-rule="nonzero">
<g clip-path="url(#clip60)" clip-rule="nonzero">
<path style="fill:none;stroke-width:0.566929;stroke-linecap:butt;stroke-linejoin:miter;stroke:rgb(0%,0%,0%);stroke-opacity:1;stroke-miterlimit:10;" d="M 68.03125 -39.277344 L 22.675781 39.277344 " transform="matrix(1,0,0,1,29,45)"/>
</g>
</g>
<g clip-path="url(#clip61)" clip-rule="nonzero">
<g clip-path="url(#clip62)" clip-rule="nonzero">
<path style="fill:none;stroke-width:1.133858;stroke-linecap:butt;stroke-linejoin:miter;stroke:rgb(100%,30%,20%);stroke-opacity:0.7;stroke-miterlimit:10;" d="M 22.675781 39.277344 L -22.675781 -39.277344 " transform="matrix(1,0,0,1,29,45)"/>
</g>
</g>
<g clip-path="url(#clip63)" clip-rule="nonzero">
<g clip-path="url(#clip64)" clip-rule="nonzero">
<path style="fill:none;stroke-width:1.133858;stroke-linecap:butt;stroke-linejoin:miter;stroke:rgb(100%,30%,20%);stroke-opacity:0.7;stroke-miterlimit:10;" d="M -45.355469 0 L 45.355469 0 " transform="matrix(1,0,0,1,29,45)"/>
</g>
</g>
<g clip-path="url(#clip65)" clip-rule="nonzero">
<g clip-path="url(#clip66)" clip-rule="nonzero">
<path style="fill:none;stroke-width:1.133858;stroke-linecap:butt;stroke-linejoin:miter;stroke:rgb(100%,30%,20%);stroke-opacity:0.7;stroke-miterlimit:10;" d="M 22.675781 -39.277344 L -22.675781 39.277344 " transform="matrix(1,0,0,1,29,45)"/>
</g>
</g>
<g clip-path="url(#clip67)" clip-rule="nonzero">
<g clip-path="url(#clip68)" clip-rule="nonzero">
<path style=" stroke:none;fill-rule:evenodd;fill:rgb(0%,0%,0%);fill-opacity:1;" d="M 7.738281 5.722656 C 7.738281 3.832031 4.90625 3.832031 4.90625 5.722656 C 4.90625 7.613281 7.738281 7.613281 7.738281 5.722656 Z M 7.738281 5.722656 "/>
</g>
</g>
<g clip-path="url(#clip69)" clip-rule="nonzero">
<g clip-path="url(#clip70)" clip-rule="nonzero">
<path style=" stroke:none;fill-rule:evenodd;fill:rgb(0%,0%,0%);fill-opacity:1;" d="M 19.078125 25.359375 C 19.078125 23.472656 16.242188 23.472656 16.242188 25.359375 C 16.242188 27.25 19.078125 27.25 19.078125 25.359375 Z M 19.078125 25.359375 "/>
</g>
</g>
<g clip-path="url(#clip71)" clip-rule="nonzero">
<g clip-path="url(#clip72)" clip-rule="nonzero">
<path style=" stroke:none;fill-rule:evenodd;fill:rgb(0%,0%,0%);fill-opacity:1;" d="M 7.738281 45 C 7.738281 43.109375 4.90625 43.109375 4.90625 45 C 4.90625 46.890625 7.738281 46.890625 7.738281 45 Z M 7.738281 45 "/>
</g>
</g>
<g clip-path="url(#clip73)" clip-rule="nonzero">
<g clip-path="url(#clip74)" clip-rule="nonzero">
<path style=" stroke:none;fill-rule:evenodd;fill:rgb(0%,0%,0%);fill-opacity:1;" d="M 41.757812 25.359375 C 41.757812 23.472656 38.921875 23.472656 38.921875 25.359375 C 38.921875 27.25 41.757812 27.25 41.757812 25.359375 Z M 41.757812 25.359375 "/>
</g>
</g>
<g clip-path="url(#clip75)" clip-rule="nonzero">
<g clip-path="url(#clip76)" clip-rule="nonzero">
<path style=" stroke:none;fill-rule:evenodd;fill:rgb(0%,0%,0%);fill-opacity:1;" d="M 30.417969 45 C 30.417969 43.109375 27.582031 43.109375 27.582031 45 C 27.582031 46.890625 30.417969 46.890625 30.417969 45 Z M 30.417969 45 "/>
</g>
</g>
<g clip-path="url(#clip77)" clip-rule="nonzero">
<g clip-path="url(#clip78)" clip-rule="nonzero">
<path style=" stroke:none;fill-rule:evenodd;fill:rgb(0%,0%,0%);fill-opacity:1;" d="M 19.078125 64.640625 C 19.078125 62.75 16.242188 62.75 16.242188 64.640625 C 16.242188 66.527344 19.078125 66.527344 19.078125 64.640625 Z M 19.078125 64.640625 "/>
</g>
</g>
<g clip-path="url(#clip79)" clip-rule="nonzero">
<g clip-path="url(#clip80)" clip-rule="nonzero">
<path style=" stroke:none;fill-rule:evenodd;fill:rgb(0%,0%,0%);fill-opacity:1;" d="M 7.738281 84.277344 C 7.738281 82.386719 4.90625 82.386719 4.90625 84.277344 C 4.90625 86.167969 7.738281 86.167969 7.738281 84.277344 Z M 7.738281 84.277344 "/>
</g>
</g>
<g clip-path="url(#clip81)" clip-rule="nonzero">
<g clip-path="url(#clip82)" clip-rule="nonzero">
<path style=" stroke:none;fill-rule:evenodd;fill:rgb(0%,0%,0%);fill-opacity:1;" d="M 53.09375 45 C 53.09375 43.109375 50.261719 43.109375 50.261719 45 C 50.261719 46.890625 53.09375 46.890625 53.09375 45 Z M 53.09375 45 "/>
</g>
</g>
<g clip-path="url(#clip83)" clip-rule="nonzero">
<g clip-path="url(#clip84)" clip-rule="nonzero">
<path style=" stroke:none;fill-rule:evenodd;fill:rgb(0%,0%,0%);fill-opacity:1;" d="M 41.757812 64.640625 C 41.757812 62.75 38.921875 62.75 38.921875 64.640625 C 38.921875 66.527344 41.757812 66.527344 41.757812 64.640625 Z M 41.757812 64.640625 "/>
</g>
</g>
<g clip-path="url(#clip85)" clip-rule="nonzero">
<g clip-path="url(#clip86)" clip-rule="nonzero">
<path style=" stroke:none;fill-rule:evenodd;fill:rgb(0%,0%,0%);fill-opacity:1;" d="M 75.773438 45 C 75.773438 43.109375 72.9375 43.109375 72.9375 45 C 72.9375 46.890625 75.773438 46.890625 75.773438 45 Z M 75.773438 45 "/>
</g>
</g>
<path style=" stroke:none;fill-rule:evenodd;fill:rgb(80%,80%,80%);fill-opacity:1;" d="M 11.992188 45 C 11.992188 41.867188 9.453125 39.332031 6.324219 39.332031 C 3.191406 39.332031 0.652344 41.867188 0.652344 45 C 0.652344 48.132812 3.191406 50.667969 6.324219 50.667969 C 9.453125 50.667969 11.992188 48.132812 11.992188 45 Z M 11.992188 45 "/>
<path style=" stroke:none;fill-rule:nonzero;fill:rgb(0%,0%,0%);fill-opacity:1;" d="M 6.761719 41.648438 C 6.761719 41.398438 6.761719 41.367188 6.511719 41.367188 C 5.839844 42.070312 4.871094 42.070312 4.527344 42.070312 L 4.527344 42.398438 C 4.746094 42.398438 5.386719 42.398438 5.964844 42.117188 L 5.964844 47.773438 C 5.964844 48.164062 5.917969 48.289062 4.949219 48.289062 L 4.589844 48.289062 L 4.589844 48.632812 C 4.980469 48.601562 5.917969 48.601562 6.355469 48.601562 C 6.792969 48.601562 7.746094 48.601562 8.121094 48.632812 L 8.121094 48.289062 L 7.777344 48.289062 C 6.792969 48.289062 6.761719 48.179688 6.761719 47.773438 Z M 6.761719 41.648438 "/>
<path style=" stroke:none;fill-rule:evenodd;fill:rgb(80%,80%,80%);fill-opacity:1;" d="M 46.007812 64.640625 C 46.007812 61.507812 43.46875 58.96875 40.339844 58.96875 C 37.207031 58.96875 34.667969 61.507812 34.667969 64.640625 C 34.667969 67.769531 37.207031 70.308594 40.339844 70.308594 C 43.46875 70.308594 46.007812 67.769531 46.007812 64.640625 Z M 46.007812 64.640625 "/>
<path style=" stroke:none;fill-rule:nonzero;fill:rgb(0%,0%,0%);fill-opacity:1;" d="M 40.777344 61.289062 C 40.777344 61.039062 40.777344 61.007812 40.527344 61.007812 C 39.855469 61.710938 38.886719 61.710938 38.542969 61.710938 L 38.542969 62.039062 C 38.761719 62.039062 39.402344 62.039062 39.980469 61.757812 L 39.980469 67.414062 C 39.980469 67.804688 39.933594 67.929688 38.964844 67.929688 L 38.605469 67.929688 L 38.605469 68.273438 C 38.996094 68.242188 39.933594 68.242188 40.371094 68.242188 C 40.808594 68.242188 41.761719 68.242188 42.136719 68.273438 L 42.136719 67.929688 L 41.792969 67.929688 C 40.808594 67.929688 40.777344 67.820312 40.777344 67.414062 Z M 40.777344 61.289062 "/>
<path style=" stroke:none;fill-rule:evenodd;fill:rgb(80%,80%,80%);fill-opacity:1;" d="M 11.992188 84.277344 C 11.992188 81.148438 9.453125 78.609375 6.324219 78.609375 C 3.191406 78.609375 0.652344 81.148438 0.652344 84.277344 C 0.652344 87.410156 3.191406 89.949219 6.324219 89.949219 C 9.453125 89.949219 11.992188 87.410156 11.992188 84.277344 Z M 11.992188 84.277344 "/>
<path style=" stroke:none;fill-rule:nonzero;fill:rgb(0%,0%,0%);fill-opacity:1;" d="M 6.761719 80.925781 C 6.761719 80.675781 6.761719 80.644531 6.511719 80.644531 C 5.839844 81.347656 4.871094 81.347656 4.527344 81.347656 L 4.527344 81.675781 C 4.746094 81.675781 5.386719 81.675781 5.964844 81.394531 L 5.964844 87.050781 C 5.964844 87.441406 5.917969 87.566406 4.949219 87.566406 L 4.589844 87.566406 L 4.589844 87.910156 C 4.980469 87.878906 5.917969 87.878906 6.355469 87.878906 C 6.792969 87.878906 7.746094 87.878906 8.121094 87.910156 L 8.121094 87.566406 L 7.777344 87.566406 C 6.792969 87.566406 6.761719 87.457031 6.761719 87.050781 Z M 6.761719 80.925781 "/>
<path style=" stroke:none;fill-rule:evenodd;fill:rgb(80%,80%,80%);fill-opacity:1;" d="M 46.007812 25.359375 C 46.007812 22.230469 43.46875 19.691406 40.339844 19.691406 C 37.207031 19.691406 34.667969 22.230469 34.667969 25.359375 C 34.667969 28.492188 37.207031 31.03125 40.339844 31.03125 C 43.46875 31.03125 46.007812 28.492188 46.007812 25.359375 Z M 46.007812 25.359375 "/>
<path style=" stroke:none;fill-rule:nonzero;fill:rgb(0%,0%,0%);fill-opacity:1;" d="M 40.777344 22.007812 C 40.777344 21.757812 40.777344 21.726562 40.527344 21.726562 C 39.855469 22.429688 38.886719 22.429688 38.542969 22.429688 L 38.542969 22.757812 C 38.761719 22.757812 39.402344 22.757812 39.980469 22.476562 L 39.980469 28.132812 C 39.980469 28.523438 39.933594 28.648438 38.964844 28.648438 L 38.605469 28.648438 L 38.605469 28.992188 C 38.996094 28.960938 39.933594 28.960938 40.371094 28.960938 C 40.808594 28.960938 41.761719 28.960938 42.136719 28.992188 L 42.136719 28.648438 L 41.792969 28.648438 C 40.808594 28.648438 40.777344 28.539062 40.777344 28.132812 Z M 40.777344 22.007812 "/>
<path style=" stroke:none;fill-rule:evenodd;fill:rgb(80%,80%,80%);fill-opacity:1;" d="M 11.992188 5.722656 C 11.992188 2.589844 9.453125 0.0507812 6.324219 0.0507812 C 3.191406 0.0507812 0.652344 2.589844 0.652344 5.722656 C 0.652344 8.851562 3.191406 11.390625 6.324219 11.390625 C 9.453125 11.390625 11.992188 8.851562 11.992188 5.722656 Z M 11.992188 5.722656 "/>
<path style=" stroke:none;fill-rule:nonzero;fill:rgb(0%,0%,0%);fill-opacity:1;" d="M 6.761719 2.371094 C 6.761719 2.121094 6.761719 2.089844 6.511719 2.089844 C 5.839844 2.792969 4.871094 2.792969 4.527344 2.792969 L 4.527344 3.121094 C 4.746094 3.121094 5.386719 3.121094 5.964844 2.839844 L 5.964844 8.496094 C 5.964844 8.886719 5.917969 9.011719 4.949219 9.011719 L 4.589844 9.011719 L 4.589844 9.355469 C 4.980469 9.324219 5.917969 9.324219 6.355469 9.324219 C 6.792969 9.324219 7.746094 9.324219 8.121094 9.355469 L 8.121094 9.011719 L 7.777344 9.011719 C 6.792969 9.011719 6.761719 8.902344 6.761719 8.496094 Z M 6.761719 2.371094 "/>
<path style=" stroke:none;fill-rule:evenodd;fill:rgb(80%,80%,80%);fill-opacity:1;" d="M 80.023438 45 C 80.023438 41.867188 77.484375 39.332031 74.355469 39.332031 C 71.222656 39.332031 68.683594 41.867188 68.683594 45 C 68.683594 48.132812 71.222656 50.667969 74.355469 50.667969 C 77.484375 50.667969 80.023438 48.132812 80.023438 45 Z M 80.023438 45 "/>
<path style=" stroke:none;fill-rule:nonzero;fill:rgb(0%,0%,0%);fill-opacity:1;" d="M 74.792969 41.648438 C 74.792969 41.398438 74.792969 41.367188 74.542969 41.367188 C 73.871094 42.070312 72.902344 42.070312 72.558594 42.070312 L 72.558594 42.398438 C 72.777344 42.398438 73.417969 42.398438 73.996094 42.117188 L 73.996094 47.773438 C 73.996094 48.164062 73.949219 48.289062 72.980469 48.289062 L 72.621094 48.289062 L 72.621094 48.632812 C 73.011719 48.601562 73.949219 48.601562 74.386719 48.601562 C 74.824219 48.601562 75.777344 48.601562 76.152344 48.632812 L 76.152344 48.289062 L 75.808594 48.289062 C 74.824219 48.289062 74.792969 48.179688 74.792969 47.773438 Z M 74.792969 41.648438 "/>
</g>
</svg>
