<?xml version="1.0" encoding="UTF-8"?>
<svg xmlns="http://www.w3.org/2000/svg" xmlns:xlink="http://www.w3.org/1999/xlink" width="80pt" height="90pt" viewBox="0 0 80 90" version="1.1">
<defs>
<clipPath id="clip1">
  <path d="M 5 5 L 49 5 L 49 85 L 5 85 Z M 5 5 "/>
</clipPath>
<clipPath id="clip2">
  <path d="M 5.984375 25.359375 L 40 5.722656 L 74.015625 25.359375 L 74.015625 64.640625 L 40 84.277344 L 5.984375 64.640625 Z M 5.984375 25.359375 "/>
</clipPath>
<clipPath id="clip3">
  <path d="M 5 25 L 75 25 L 75 26 L 5 26 Z M 5 25 "/>
</clipPath>
<clipPath id="clip4">
  <path d="M 5.984375 25.359375 L 40 5.722656 L 74.015625 25.359375 L 74.015625 64.640625 L 40 84.277344 L 5.984375 64.640625 Z M 5.984375 25.359375 "/>
</clipPath>
<clipPath id="clip5">
  <path d="M 5 5 L 49 5 L 49 85 L 5 85 Z M 5 5 "/>
</clipPath>
<clipPath id="clip6">
  <path d="M 5.984375 25.359375 L 40 5.722656 L 74.015625 25.359375 L 74.015625 64.640625 L 40 84.277344 L 5.984375 64.640625 Z M 5.984375 25.359375 "/>
</clipPath>
<clipPath id="clip7">
  <path d="M 5 25 L 75 25 L 75 26 L 5 26 Z M 5 25 "/>
</clipPath>
<clipPath id="clip8">
  <path d="M 5.984375 25.359375 L 40 5.722656 L 74.015625 25.359375 L 74.015625 64.640625 L 40 84.277344 L 5.984375 64.640625 Z M 5.984375 25.359375 "/>
</clipPath>
<clipPath id="clip9">
  <path d="M 5 5 L 49 5 L 49 85 L 5 85 Z M 5 5 "/>
</clipPath>
<clipPath id="clip10">
  <path d="M 5.984375 25.359375 L 40 5.722656 L 74.015625 25.359375 L 74.015625 64.640625 L 40 84.277344 L 5.984375 64.640625 Z M 5.984375 25.359375 "/>
</clipPath>
<clipPath id="clip11">
  <path d="M 5 5 L 75 5 L 75 73 L 5 73 Z M 5 5 "/>
</clipPath>
<clipPath id="clip12">
  <path d="M 5.984375 25.359375 L 40 5.722656 L 74.015625 25.359375 L 74.015625 64.640625 L 40 84.277344 L 5.984375 64.640625 Z M 5.984375 25.359375 "/>
</clipPath>
<clipPath id="clip13">
  <path d="M 5 5 L 75 5 L 75 7 L 5 7 Z M 5 5 "/>
</clipPath>
<clipPath id="clip14">
  <path d="M 5.984375 25.359375 L 40 5.722656 L 74.015625 25.359375 L 74.015625 64.640625 L 40 84.277344 L 5.984375 64.640625 Z M 5.984375 25.359375 "/>
</clipPath>
<clipPath id="clip15">
  <path d="M 5 5 L 75 5 L 75 73 L 5 73 Z M 5 5 "/>
</clipPath>
<clipPath id="clip16">
  <path d="M 5.984375 25.359375 L 40 5.722656 L 74.015625 25.359375 L 74.015625 64.640625 L 40 84.277344 L 5.984375 64.640625 Z M 5.984375 25.359375 "/>
</clipPath>
<clipPath id="clip17">
  <path d="M 5 5 L 75 5 L 75 7 L 5 7 Z M 5 5 "/>
</clipPath>
<clipPath id="clip18">
  <path d="M 5.984375 25.359375 L 40 5.722656 L 74.015625 25.359375 L 74.015625 64.640625 L 40 84.277344 L 5.984375 64.640625 Z M 5.984375 25.359375 "/>
</clipPath>
<clipPath id="clip19">
  <path d="M 5 5 L 75 5 L 75 73 L 5 73 Z M 5 5 "/>
</clipPath>
<clipPath id="clip20">
  <path d="M 5.984375 25.359375 L 40 5.722656 L 74.015625 25.359375 L 74.015625 64.640625 L 40 84.277344 L 5.984375 64.640625 Z M 5.984375 25.359375 "/>
</clipPath>
<clipPath id="clip21">
  <path d="M 5 5 L 71 5 L 71 85 L 5 85 Z M 5 5 "/>
</clipPath>
<clipPath id="clip22">
  <path d="M 5.984375 25.359375 L 40 5.722656 L 74.015625 25.359375 L 74.015625 64.640625 L 40 84.277344 L 5.984375 64.640625 Z M 5.984375 25.359375 "/>
</clipPath>
<clipPath id="clip23">
  <path d="M 5 25 L 75 25 L 75 26 L 5 26 Z M 5 25 "/>
</clipPath>
<clipPath id="clip24">
  <path d="M 5.984375 25.359375 L 40 5.722656 L 74.015625 25.359375 L 74.015625 64.640625 L 40 84.277344 L 5.984375 64.640625 Z M 5.984375 25.359375 "/>
</clipPath>
<clipPath id="clip25">
  <path d="M 5 5 L 71 5 L 71 85 L 5 85 Z M 5 5 "/>
</clipPath>
<clipPath id="clip26">
  <path d="M 5.984375 25.359375 L 40 5.722656 L 74.015625 25.359375 L 74.015625 64.640625 L 40 84.277344 L 5.984375 64.640625 Z M 5.984375 25.359375 "/>
</clipPath>
<clipPath id="clip27">
  <path d="M 5 25 L 75 25 L 75 26 L 5 26 Z M 5 25 "/>
</clipPath>
<clipPath id="clip28">
  <path d="M 5.984375 25.359375 L 40 5.722656 L 74.015625 25.359375 L 74.015625 64.640625 L 40 84.277344 L 5.984375 64.640625 Z M 5.984375 25.359375 "/>
</clipPath>
<clipPath id="clip29">
  <path d="M 5 5 L 71 5 L 71 85 L 5 85 Z M 5 5 "/>
</clipPath>
<clipPath id="clip30">
  <path d="M 5.984375 25.359375 L 40 5.722656 L 74.015625 25.359375 L 74.015625 64.640625 L 40 84.277344 L 5.984375 64.640625 Z M 5.984375 25.359375 "/>
</clipPath>
<clipPath id="clip31">
  <path d="M 5 5 L 60 5 L 60 85 L 5 85 Z M 5 5 "/>
</clipPath>
<clipPath id="clip32">
  <path d="M 5.984375 25.359375 L 40 5.722656 L 74.015625 25.359375 L 74.015625 64.640625 L 40 84.277344 L 5.984375 64.640625 Z M 5.984375 25.359375 "/>
</clipPath>
<clipPath id="clip33">
  <path d="M 5 44 L 75 44 L 75 46 L 5 46 Z M 5 44 "/>
</clipPath>
<clipPath id="clip34">
  <path d="M 5.984375 25.359375 L 40 5.722656 L 74.015625 25.359375 L 74.015625 64.640625 L 40 84.277344 L 5.984375 64.640625 Z M 5.984375 25.359375 "/>
</clipPath>
<clipPath id="clip35">
  <path d="M 5 5 L 60 5 L 60 85 L 5 85 Z M 5 5 "/>
</clipPath>
<clipPath id="clip36">
  <path d="M 5.984375 25.359375 L 40 5.722656 L 74.015625 25.359375 L 74.015625 64.640625 L 40 84.277344 L 5.984375 64.640625 Z M 5.984375 25.359375 "/>
</clipPath>
<clipPath id="clip37">
  <path d="M 5 44 L 75 44 L 75 46 L 5 46 Z M 5 44 "/>
</clipPath>
<clipPath id="clip38">
  <path d="M 5.984375 25.359375 L 40 5.722656 L 74.015625 25.359375 L 74.015625 64.640625 L 40 84.277344 L 5.984375 64.640625 Z M 5.984375 25.359375 "/>
</clipPath>
<clipPath id="clip39">
  <path d="M 5 5 L 60 5 L 60 85 L 5 85 Z M 5 5 "/>
</clipPath>
<clipPath id="clip40">
  <path d="M 5.984375 25.359375 L 40 5.722656 L 74.015625 25.359375 L 74.015625 64.640625 L 40 84.277344 L 5.984375 64.640625 Z M 5.984375 25.359375 "/>
</clipPath>
<clipPath id="clip41">
  <path d="M 5 5 L 49 5 L 49 85 L 5 85 Z M 5 5 "/>
</clipPath>
<clipPath id="clip42">
  <path d="M 5.984375 25.359375 L 40 5.722656 L 74.015625 25.359375 L 74.015625 64.640625 L 40 84.277344 L 5.984375 64.640625 Z M 5.984375 25.359375 "/>
</clipPath>
<clipPath id="clip43">
  <path d="M 5 64 L 75 64 L 75 65 L 5 65 Z M 5 64 "/>
</clipPath>
<clipPath id="clip44">
  <path d="M 5.984375 25.359375 L 40 5.722656 L 74.015625 25.359375 L 74.015625 64.640625 L 40 84.277344 L 5.984375 64.640625 Z M 5.984375 25.359375 "/>
</clipPath>
<clipPath id="clip45">
  <path d="M 5 5 L 49 5 L 49 85 L 5 85 Z M 5 5 "/>
</clipPath>
<clipPath id="clip46">
  <path d="M 5.984375 25.359375 L 40 5.722656 L 74.015625 25.359375 L 74.015625 64.640625 L 40 84.277344 L 5.984375 64.640625 Z M 5.984375 25.359375 "/>
</clipPath>
<clipPath id="clip47">
  <path d="M 5 64 L 75 64 L 75 65 L 5 65 Z M 5 64 "/>
</clipPath>
<clipPath id="clip48">
  <path d="M 5.984375 25.359375 L 40 5.722656 L 74.015625 25.359375 L 74.015625 64.640625 L 40 84.277344 L 5.984375 64.640625 Z M 5.984375 25.359375 "/>
</clipPath>
<clipPath id="clip49">
  <path d="M 5 5 L 49 5 L 49 85 L 5 85 Z M 5 5 "/>
</clipPath>
<clipPath id="clip50">
  <path d="M 5.984375 25.359375 L 40 5.722656 L 74.015625 25.359375 L 74.015625 64.640625 L 40 84.277344 L 5.984375 64.640625 Z M 5.984375 25.359375 "/>
</clipPath>
<clipPath id="clip51">
  <path d="M 9 5 L 75 5 L 75 85 L 9 85 Z M 9 5 "/>
</clipPath>
<clipPath id="clip52">
  <path d="M 5.984375 25.359375 L 40 5.722656 L 74.015625 25.359375 L 74.015625 64.640625 L 40 84.277344 L 5.984375 64.640625 Z M 5.984375 25.359375 "/>
</clipPath>
<clipPath id="clip53">
  <path d="M 5 25 L 75 25 L 75 26 L 5 26 Z M 5 25 "/>
</clipPath>
<clipPath id="clip54">
  <path d="M 5.984375 25.359375 L 40 5.722656 L 74.015625 25.359375 L 74.015625 64.640625 L 40 84.277344 L 5.984375 64.640625 Z M 5.984375 25.359375 "/>
</clipPath>
<clipPath id="clip55">
  <path d="M 9 5 L 75 5 L 75 85 L 9 85 Z M 9 5 "/>
</clipPath>
<clipPath id="clip56">
  <path d="M 5.984375 25.359375 L 40 5.722656 L 74.015625 25.359375 L 74.015625 64.640625 L 40 84.277344 L 5.984375 64.640625 Z M 5.984375 25.359375 "/>
</clipPath>
<clipPath id="clip57">
  <path d="M 5 25 L 75 25 L 75 26 L 5 26 Z M 5 25 "/>
</clipPath>
<clipPath id="clip58">
  <path d="M 5.984375 25.359375 L 40 5.722656 L 74.015625 25.359375 L 74.015625 64.640625 L 40 84.277344 L 5.984375 64.640625 Z M 5.984375 25.359375 "/>
</clipPath>
<clipPath id="clip59">
  <path d="M 9 5 L 75 5 L 75 85 L 9 85 Z M 9 5 "/>
</clipPath>
<clipPath id="clip60">
  <path d="M 5.984375 25.359375 L 40 5.722656 L 74.015625 25.359375 L 74.015625 64.640625 L 40 84.277344 L 5.984375 64.640625 Z M 5.984375 25.359375 "/>
</clipPath>
<clipPath id="clip61">
  <path d="M 5 5 L 75 5 L 75 85 L 5 85 Z M 5 5 "/>
</clipPath>
<clipPath id="clip62">
  <path d="M 5.984375 25.359375 L 40 5.722656 L 74.015625 25.359375 L 74.015625 64.640625 L 40 84.277344 L 5.984375 64.640625 Z M 5.984375 25.359375 "/>
</clipPath>
<clipPath id="clip63">
  <path d="M 5 44 L 75 44 L 75 46 L 5 46 Z M 5 44 "/>
</clipPath>
<clipPath id="clip64">
  <path d="M 5.984375 25.359375 L 40 5.722656 L 74.015625 25.359375 L 74.015625 64.640625 L 40 84.277344 L 5.984375 64.640625 Z M 5.984375 25.359375 "/>
</clipPath>
<clipPath id="clip65">
  <path d="M 5 5 L 75 5 L 75 85 L 5 85 Z M 5 5 "/>
</clipPath>
<clipPath id="clip66">
  <path d="M 5.984375 25.359375 L 40 5.722656 L 74.015625 25.359375 L 74.015625 64.640625 L 40 84.277344 L 5.984375 64.640625 Z M 5.984375 25.359375 "/>
</clipPath>
<clipPath id="clip67">
  <path d="M 5 44 L 75 44 L 75 46 L 5 46 Z M 5 44 "/>
</clipPath>
<clipPath id="clip68">
  <path d="M 5.984375 25.359375 L 40 5.722656 L 74.015625 25.359375 L 74.015625 64.640625 L 40 84.277344 L 5.984375 64.640625 Z M 5.984375 25.359375 "/>
</clipPath>
<clipPath id="clip69">
  <path d="M 5 5 L 75 5 L 75 85 L 5 85 Z M 5 5 "/>
</clipPath>
<clipPath id="clip70">
  <path d="M 5.984375 25.359375 L 40 5.722656 L 74.015625 25.359375 L 74.015625 64.640625 L 40 84.277344 L 5.984375 64.640625 Z M 5.984375 25.359375 "/>
</clipPath>
<clipPath id="clip71">
  <path d="M 5 5 L 71 5 L 71 85 L 5 85 Z M 5 5 "/>
</clipPath>
<clipPath id="clip72">
  <path d="M 5.984375 25.359375 L 40 5.722656 L 74.015625 25.359375 L 74.015625 64.640625 L 40 84.277344 L 5.984375 64.640625 Z M 5.984375 25.359375 "/>
</clipPath>
<clipPath id="clip73">
  <path d="M 5 64 L 75 64 L 75 65 L 5 65 Z M 5 64 "/>
</clipPath>
<clipPath id="clip74">
  <path d="M 5.984375 25.359375 L 40 5.722656 L 74.015625 25.359375 L 74.015625 64.640625 L 40 84.277344 L 5.984375 64.640625 Z M 5.984375 25.359375 "/>
</clipPath>
<clipPath id="clip75">
  <path d="M 5 5 L 71 5 L 71 85 L 5 85 Z M 5 5 "/>
</clipPath>
<clipPath id="clip76">
  <path d="M 5.984375 25.359375 L 40 5.722656 L 74.015625 25.359375 L 74.015625 64.640625 L 40 84.277344 L 5.984375 64.640625 Z M 5.984375 25.359375 "/>
</clipPath>
<clipPath id="clip77">
  <path d="M 5 64 L 75 64 L 75 65 L 5 65 Z M 5 64 "/>
</clipPath>
<clipPath id="clip78">
  <path d="M 5.984375 25.359375 L 40 5.722656 L 74.015625 25.359375 L 74.015625 64.640625 L 40 84.277344 L 5.984375 64.640625 Z M 5.984375 25.359375 "/>
</clipPath>
<clipPath id="clip79">
  <path d="M 5 5 L 71 5 L 71 85 L 5 85 Z M 5 5 "/>
</clipPath>
<clipPath id="clip80">
  <path d="M 5.984375 25.359375 L 40 5.722656 L 74.015625 25.359375 L 74.015625 64.640625 L 40 84.277344 L 5.984375 64.640625 Z M 5.984375 25.359375 "/>
</clipPath>
<clipPath id="clip81">
  <path d="M 31 5 L 75 5 L 75 85 L 31 85 Z M 31 5 "/>
</clipPath>
<clipPath id="clip82">
  <path d="M 5.984375 25.359375 L 40 5.722656 L 74.015625 25.359375 L 74.015625 64.640625 L 40 84.277344 L 5.984375 64.640625 Z M 5.984375 25.359375 "/>
</clipPath>
<clipPath id="clip83">
  <path d="M 5 25 L 75 25 L 75 26 L 5 26 Z M 5 25 "/>
</clipPath>
<clipPath id="clip84">
  <path d="M 5.984375 25.359375 L 40 5.722656 L 74.015625 25.359375 L 74.015625 64.640625 L 40 84.277344 L 5.984375 64.640625 Z M 5.984375 25.359375 "/>
</clipPath>
<clipPath id="clip85">
  <path d="M 31 5 L 75 5 L 75 85 L 31 85 Z M 31 5 "/>
</clipPath>
<clipPath id="clip86">
  <path d="M 5.984375 25.359375 L 40 5.722656 L 74.015625 25.359375 L 74.015625 64.640625 L 40 84.277344 L 5.984375 64.640625 Z M 5.984375 25.359375 "/>
</clipPath>
<clipPath id="clip87">
  <path d="M 5 25 L 75 25 L 75 26 L 5 26 Z M 5 25 "/>
</clipPath>
<clipPath id="clip88">
  <path d="M 5.984375 25.359375 L 40 5.722656 L 74.015625 25.359375 L 74.015625 64.640625 L 40 84.277344 L 5.984375 64.640625 Z M 5.984375 25.359375 "/>
</clipPath>
<clipPath id="clip89">
  <path d="M 31 5 L 75 5 L 75 85 L 31 85 Z M 31 5 "/>
</clipPath>
<clipPath id="clip90">
  <path d="M 5.984375 25.359375 L 40 5.722656 L 74.015625 25.359375 L 74.015625 64.640625 L 40 84.277344 L 5.984375 64.640625 Z M 5.984375 25.359375 "/>
</clipPath>
<clipPath id="clip91">
  <path d="M 20 5 L 75 5 L 75 85 L 20 85 Z M 20 5 "/>
</clipPath>
<clipPath id="clip92">
  <path d="M 5.984375 25.359375 L 40 5.722656 L 74.015625 25.359375 L 74.015625 64.640625 L 40 84.277344 L 5.984375 64.640625 Z M 5.984375 25.359375 "/>
</clipPath>
<clipPath id="clip93">
  <path d="M 5 44 L 75 44 L 75 46 L 5 46 Z M 5 44 "/>
</clipPath>
<clipPath id="clip94">
  <path d="M 5.984375 25.359375 L 40 5.722656 L 74.015625 25.359375 L 74.015625 64.640625 L 40 84.277344 L 5.984375 64.640625 Z M 5.984375 25.359375 "/>
</clipPath>
<clipPath id="clip95">
  <path d="M 20 5 L 75 5 L 75 85 L 20 85 Z M 20 5 "/>
</clipPath>
<clipPath id="clip96">
  <path d="M 5.984375 25.359375 L 40 5.722656 L 74.015625 25.359375 L 74.015625 64.640625 L 40 84.277344 L 5.984375 64.640625 Z M 5.984375 25.359375 "/>
</clipPath>
<clipPath id="clip97">
  <path d="M 5 44 L 75 44 L 75 46 L 5 46 Z M 5 44 "/>
</clipPath>
<clipPath id="clip98">
  <path d="M 5.984375 25.359375 L 40 5.722656 L 74.015625 25.359375 L 74.015625 64.640625 L 40 84.277344 L 5.984375 64.640625 Z M 5.984375 25.359375 "/>
</clipPath>
<clipPath id="clip99">
  <path d="M 20 5 L 75 5 L 75 85 L 20 85 Z M 20 5 "/>
</clipPath>
<clipPath id="clip100">
  <path d="M 5.984375 25.359375 L 40 5.722656 L 74.015625 25.359375 L 74.015625 64.640625 L 40 84.277344 L 5.984375 64.640625 Z M 5.984375 25.359375 "/>
</clipPath>
<clipPath id="clip101">
  <path d="M 9 5 L 75 5 L 75 85 L 9 85 Z M 9 5 "/>
</clipPath>
<clipPath id="clip102">
  <path d="M 5.984375 25.359375 L 40 5.722656 L 74.015625 25.359375 L 74.015625 64.640625 L 40 84.277344 L 5.984375 64.640625 Z M 5.984375 25.359375 "/>
</clipPath>
<clipPath id="clip103">
  <path d="M 5 64 L 75 64 L 75 65 L 5 65 Z M 5 64 "/>
</clipPath>
<clipPath id="clip104">
  <path d="M 5.984375 25.359375 L 40 5.722656 L 74.015625 25.359375 L 74.015625 64.640625 L 40 84.277344 L 5.984375 64.640625 Z M 5.984375 25.359375 "/>
</clipPath>
<clipPath id="clip105">
  <path d="M 9 5 L 75 5 L 75 85 L 9 85 Z M 9 5 "/>
</clipPath>
<clipPath id="clip106">
  <path d="M 5.984375 25.359375 L 40 5.722656 L 74.015625 25.359375 L 74.015625 64.640625 L 40 84.277344 L 5.984375 64.640625 Z M 5.984375 25.359375 "/>
</clipPath>
<clipPath id="clip107">
  <path d="M 5 64 L 75 64 L 75 65 L 5 65 Z M 5 64 "/>
</clipPath>
<clipPath id="clip108">
  <path d="M 5.984375 25.359375 L 40 5.722656 L 74.015625 25.359375 L 74.015625 64.640625 L 40 84.277344 L 5.984375 64.640625 Z M 5.984375 25.359375 "/>
</clipPath>
<clipPath id="clip109">
  <path d="M 9 5 L 75 5 L 75 85 L 9 85 Z M 9 5 "/>
</clipPath>
<clipPath id="clip110">
  <path d="M 5.984375 25.359375 L 40 5.722656 L 74.015625 25.359375 L 74.015625 64.640625 L 40 84.277344 L 5.984375 64.640625 Z M 5.984375 25.359375 "/>
</clipPath>
<clipPath id="clip111">
  <path d="M 5 17 L 75 17 L 75 85 L 5 85 Z M 5 17 "/>
</clipPath>
<clipPath id="clip112">
  <path d="M 5.984375 25.359375 L 40 5.722656 L 74.015625 25.359375 L 74.015625 64.640625 L 40 84.277344 L 5.984375 64.640625 Z M 5.984375 25.359375 "/>
</clipPath>
<clipPath id="clip113">
  <path d="M 5 83 L 75 83 L 75 85 L 5 85 Z M 5 83 "/>
</clipPath>
<clipPath id="clip114">
  <path d="M 5.984375 25.359375 L 40 5.722656 L 74.015625 25.359375 L 74.015625 64.640625 L 40 84.277344 L 5.984375 64.640625 Z M 5.984375 25.359375 "/>
</clipPath>
<clipPath id="clip115">
  <path d="M 5 17 L 75 17 L 75 85 L 5 85 Z M 5 17 "/>
</clipPath>
<clipPath id="clip116">
  <path d="M 5.984375 25.359375 L 40 5.722656 L 74.015625 25.359375 L 74.015625 64.640625 L 40 84.277344 L 5.984375 64.640625 Z M 5.984375 25.359375 "/>
</clipPath>
<clipPath id="clip117">
  <path d="M 5 83 L 75 83 L 75 85 L 5 85 Z M 5 83 "/>
</clipPath>
<clipPath id="clip118">
  <path d="M 5.984375 25.359375 L 40 5.722656 L 74.015625 25.359375 L 74.015625 64.640625 L 40 84.277344 L 5.984375 64.640625 Z M 5.984375 25.359375 "/>
</clipPath>
<clipPath id="clip119">
  <path d="M 5 17 L 75 17 L 75 85 L 5 85 Z M 5 17 "/>
</clipPath>
<clipPath id="clip120">
  <path d="M 5.984375 25.359375 L 40 5.722656 L 74.015625 25.359375 L 74.015625 64.640625 L 40 84.277344 L 5.984375 64.640625 Z M 5.984375 25.359375 "/>
</clipPath>
<clipPath id="clip121">
  <path d="M 31 5 L 75 5 L 75 85 L 31 85 Z M 31 5 "/>
</clipPath>
<clipPath id="clip122">
  <path d="M 5.984375 25.359375 L 40 5.722656 L 74.015625 25.359375 L 74.015625 64.640625 L 40 84.277344 L 5.984375 64.640625 Z M 5.984375 25.359375 "/>
</clipPath>
<clipPath id="clip123">
  <path d="M 5 64 L 75 64 L 75 65 L 5 65 Z M 5 64 "/>
</clipPath>
<clipPath id="clip124">
  <path d="M 5.984375 25.359375 L 40 5.722656 L 74.015625 25.359375 L 74.015625 64.640625 L 40 84.277344 L 5.984375 64.640625 Z M 5.984375 25.359375 "/>
</clipPath>
<clipPath id="clip125">
  <path d="M 31 5 L 75 5 L 75 85 L 31 85 Z M 31 5 "/>
</clipPath>
<clipPath id="clip126">
  <path d="M 5.984375 25.359375 L 40 5.722656 L 74.015625 25.359375 L 74.015625 64.640625 L 40 84.277344 L 5.984375 64.640625 Z M 5.984375 25.359375 "/>
</clipPath>
<clipPath id="clip127">
  <path d="M 5 64 L 75 64 L 75 65 L 5 65 Z M 5 64 "/>
</clipPath>
<clipPath id="clip128">
  <path d="M 5.984375 25.359375 L 40 5.722656 L 74.015625 25.359375 L 74.015625 64.640625 L 40 84.277344 L 5.984375 64.640625 Z M 5.984375 25.359375 "/>
</clipPath>
<clipPath id="clip129">
  <path d="M 31 5 L 75 5 L 75 85 L 31 85 Z M 31 5 "/>
</clipPath>
<clipPath id="clip130">
  <path d="M 5.984375 25.359375 L 40 5.722656 L 74.015625 25.359375 L 74.015625 64.640625 L 40 84.277344 L 5.984375 64.640625 Z M 5.984375 25.359375 "/>
</clipPath>
<clipPath id="clip131">
  <path d="M 5 5 L 75 5 L 75 85 L 5 85 Z M 5 5 "/>
</clipPath>
<clipPath id="clip132">
  <path d="M 5.984375 25.359375 L 40 5.722656 L 74.015625 25.359375 L 74.015625 64.640625 L 40 84.277344 L 5.984375 64.640625 Z M 5.984375 25.359375 "/>
</clipPath>
<clipPath id="clip133">
  <path d="M 5 44 L 75 44 L 75 46 L 5 46 Z M 5 44 "/>
</clipPath>
<clipPath id="clip134">
  <path d="M 5.984375 25.359375 L 40 5.722656 L 74.015625 25.359375 L 74.015625 64.640625 L 40 84.277344 L 5.984375 64.640625 Z M 5.984375 25.359375 "/>
</clipPath>
<clipPath id="clip135">
  <path d="M 5 5 L 75 5 L 75 85 L 5 85 Z M 5 5 "/>
</clipPath>
<clipPath id="clip136">
  <path d="M 5.984375 25.359375 L 40 5.722656 L 74.015625 25.359375 L 74.015625 64.640625 L 40 84.277344 L 5.984375 64.640625 Z M 5.984375 25.359375 "/>
</clipPath>
<clipPath id="clip137">
  <path d="M 5 44 L 75 44 L 75 46 L 5 46 Z M 5 44 "/>
</clipPath>
<clipPath id="clip138">
  <path d="M 5.984375 25.359375 L 40 5.722656 L 74.015625 25.359375 L 74.015625 64.640625 L 40 84.277344 L 5.984375 64.640625 Z M 5.984375 25.359375 "/>
</clipPath>
<clipPath id="clip139">
  <path d="M 5 5 L 75 5 L 75 85 L 5 85 Z M 5 5 "/>
</clipPath>
<clipPath id="clip140">
  <path d="M 5.984375 25.359375 L 40 5.722656 L 74.015625 25.359375 L 74.015625 64.640625 L 40 84.277344 L 5.984375 64.640625 Z M 5.984375 25.359375 "/>
</clipPath>
<clipPath id="clip141">
  <path d="M 5 23 L 8 23 L 8 27 L 5 27 Z M 5 23 "/>
</clipPath>
<clipPath id="clip142">
  <path d="M 5.984375 25.359375 L 40 5.722656 L 74.015625 25.359375 L 74.015625 64.640625 L 40 84.277344 L 5.984375 64.640625 Z M 5.984375 25.359375 "/>
</clipPath>
<clipPath id="clip143">
  <path d="M 38 5 L 42 5 L 42 8 L 38 8 Z M 38 5 "/>
</clipPath>
<clipPath id="clip144">
  <path d="M 5.984375 25.359375 L 40 5.722656 L 74.015625 25.359375 L 74.015625 64.640625 L 40 84.277344 L 5.984375 64.640625 Z M 5.984375 25.359375 "/>
</clipPath>
<clipPath id="clip145">
  <path d="M 27 23 L 31 23 L 31 27 L 27 27 Z M 27 23 "/>
</clipPath>
<clipPath id="clip146">
  <path d="M 5.984375 25.359375 L 40 5.722656 L 74.015625 25.359375 L 74.015625 64.640625 L 40 84.277344 L 5.984375 64.640625 Z M 5.984375 25.359375 "/>
</clipPath>
<clipPath id="clip147">
  <path d="M 15 43 L 19 43 L 19 47 L 15 47 Z M 15 43 "/>
</clipPath>
<clipPath id="clip148">
  <path d="M 5.984375 25.359375 L 40 5.722656 L 74.015625 25.359375 L 74.015625 64.640625 L 40 84.277344 L 5.984375 64.640625 Z M 5.984375 25.359375 "/>
</clipPath>
<clipPath id="clip149">
  <path d="M 5 63 L 8 63 L 8 67 L 5 67 Z M 5 63 "/>
</clipPath>
<clipPath id="clip150">
  <path d="M 5.984375 25.359375 L 40 5.722656 L 74.015625 25.359375 L 74.015625 64.640625 L 40 84.277344 L 5.984375 64.640625 Z M 5.984375 25.359375 "/>
</clipPath>
<clipPath id="clip151">
  <path d="M 49 23 L 53 23 L 53 27 L 49 27 Z M 49 23 "/>
</clipPath>
<clipPath id="clip152">
  <path d="M 5.984375 25.359375 L 40 5.722656 L 74.015625 25.359375 L 74.015625 64.640625 L 40 84.277344 L 5.984375 64.640625 Z M 5.984375 25.359375 "/>
</clipPath>
<clipPath id="clip153">
  <path d="M 38 43 L 42 43 L 42 47 L 38 47 Z M 38 43 "/>
</clipPath>
<clipPath id="clip154">
  <path d="M 5.984375 25.359375 L 40 5.722656 L 74.015625 25.359375 L 74.015625 64.640625 L 40 84.277344 L 5.984375 64.640625 Z M 5.984375 25.359375 "/>
</clipPath>
<clipPath id="clip155">
  <path d="M 27 63 L 31 63 L 31 67 L 27 67 Z M 27 63 "/>
</clipPath>
<clipPath id="clip156">
  <path d="M 5.984375 25.359375 L 40 5.722656 L 74.015625 25.359375 L 74.015625 64.640625 L 40 84.277344 L 5.984375 64.640625 Z M 5.984375 25.359375 "/>
</clipPath>
<clipPath id="clip157">
  <path d="M 72 23 L 75 23 L 75 27 L 72 27 Z M 72 23 "/>
</clipPath>
<clipPath id="clip158">
  <path d="M 5.984375 25.359375 L 40 5.722656 L 74.015625 25.359375 L 74.015625 64.640625 L 40 84.277344 L 5.984375 64.640625 Z M 5.984375 25.359375 "/>
</clipPath>
<clipPath id="clip159">
  <path d="M 61 43 L 65 43 L 65 47 L 61 47 Z M 61 43 "/>
</clipPath>
<clipPath id="clip160">
  <path d="M 5.984375 25.359375 L 40 5.722656 L 74.015625 25.359375 L 74.015625 64.640625 L 40 84.277344 L 5.984375 64.640625 Z M 5.984375 25.359375 "/>
</clipPath>
<clipPath id="clip161">
  <path d="M 49 63 L 53 63 L 53 67 L 49 67 Z M 49 63 "/>
</clipPath>
<clipPath id="clip162">
  <path d="M 5.984375 25.359375 L 40 5.722656 L 74.015625 25.359375 L 74.015625 64.640625 L 40 84.277344 L 5.984375 64.640625 Z M 5.984375 25.359375 "/>
</clipPath>
<clipPath id="clip163">
  <path d="M 38 82 L 42 82 L 42 85 L 38 85 Z M 38 82 "/>
</clipPath>
<clipPath id="clip164">
  <path d="M 5.984375 25.359375 L 40 5.722656 L 74.015625 25.359375 L 74.015625 64.640625 L 40 84.277344 L 5.984375 64.640625 Z M 5.984375 25.359375 "/>
</clipPath>
<clipPath id="clip165">
  <path d="M 72 63 L 75 63 L 75 67 L 72 67 Z M 72 63 "/>
</clipPath>
<clipPath id="clip166">
  <path d="M 5.984375 25.359375 L 40 5.722656 L 74.015625 25.359375 L 74.015625 64.640625 L 40 84.277344 L 5.984375 64.640625 Z M 5.984375 25.359375 "/>
</clipPath>
</defs>
<g id="surface92">
<path style="fill:none;stroke-width:1.133858;stroke-linecap:butt;stroke-linejoin:miter;stroke:rgb(0%,0%,0%);stroke-opacity:1;stroke-miterlimit:10;" d="M -34.015625 -19.640625 L 0 -39.277344 L 34.015625 -19.640625 L 34.015625 19.640625 L 0 39.277344 L -34.015625 19.640625 Z M -34.015625 -19.640625 " transform="matrix(1,0,0,1,40,45)"/>
<g clip-path="url(#clip1)" clip-rule="nonzero">
<g clip-path="url(#clip2)" clip-rule="nonzero">
<path style="fill:none;stroke-width:0.566929;stroke-linecap:butt;stroke-linejoin:miter;stroke:rgb(0%,0%,0%);stroke-opacity:1;stroke-miterlimit:10;" d="M -68.03125 39.277344 L 0 -78.554688 " transform="matrix(1,0,0,1,40,45)"/>
<path style="fill:none;stroke-width:0.566929;stroke-linecap:butt;stroke-linejoin:miter;stroke:rgb(0%,0%,0%);stroke-opacity:1;stroke-miterlimit:10;" d="M 0 -78.554688 L -68.03125 39.277344 " transform="matrix(1,0,0,1,40,45)"/>
</g>
</g>
<g clip-path="url(#clip3)" clip-rule="nonzero">
<g clip-path="url(#clip4)" clip-rule="nonzero">
<path style="fill:none;stroke-width:0.566929;stroke-linecap:butt;stroke-linejoin:miter;stroke:rgb(0%,0%,0%);stroke-opacity:1;stroke-miterlimit:10;" d="M 34.015625 -19.640625 L -102.046875 -19.640625 " transform="matrix(1,0,0,1,40,45)"/>
</g>
</g>
<g clip-path="url(#clip5)" clip-rule="nonzero">
<g clip-path="url(#clip6)" clip-rule="nonzero">
<path style="fill:none;stroke-width:0.566929;stroke-linecap:butt;stroke-linejoin:miter;stroke:rgb(0%,0%,0%);stroke-opacity:1;stroke-miterlimit:10;" d="M 0 39.277344 L -68.03125 -78.554688 " transform="matrix(1,0,0,1,40,45)"/>
</g>
</g>
<g clip-path="url(#clip7)" clip-rule="nonzero">
<g clip-path="url(#clip8)" clip-rule="nonzero">
<path style="fill:none;stroke-width:0.566929;stroke-linecap:butt;stroke-linejoin:miter;stroke:rgb(0%,0%,0%);stroke-opacity:1;stroke-miterlimit:10;" d="M -102.046875 -19.640625 L 34.015625 -19.640625 " transform="matrix(1,0,0,1,40,45)"/>
</g>
</g>
<g clip-path="url(#clip9)" clip-rule="nonzero">
<g clip-path="url(#clip10)" clip-rule="nonzero">
<path style="fill:none;stroke-width:0.566929;stroke-linecap:butt;stroke-linejoin:miter;stroke:rgb(0%,0%,0%);stroke-opacity:1;stroke-miterlimit:10;" d="M -68.03125 -78.554688 L 0 39.277344 " transform="matrix(1,0,0,1,40,45)"/>
</g>
</g>
<g clip-path="url(#clip11)" clip-rule="nonzero">
<g clip-path="url(#clip12)" clip-rule="nonzero">
<path style="fill:none;stroke-width:0.566929;stroke-linecap:butt;stroke-linejoin:miter;stroke:rgb(0%,0%,0%);stroke-opacity:1;stroke-miterlimit:10;" d="M -34.015625 19.640625 L 34.015625 -98.195312 " transform="matrix(1,0,0,1,40,45)"/>
<path style="fill:none;stroke-width:0.566929;stroke-linecap:butt;stroke-linejoin:miter;stroke:rgb(0%,0%,0%);stroke-opacity:1;stroke-miterlimit:10;" d="M 34.015625 -98.195312 L -34.015625 19.640625 " transform="matrix(1,0,0,1,40,45)"/>
</g>
</g>
<g clip-path="url(#clip13)" clip-rule="nonzero">
<g clip-path="url(#clip14)" clip-rule="nonzero">
<path style="fill:none;stroke-width:0.566929;stroke-linecap:butt;stroke-linejoin:miter;stroke:rgb(0%,0%,0%);stroke-opacity:1;stroke-miterlimit:10;" d="M 68.03125 -39.277344 L -68.03125 -39.277344 " transform="matrix(1,0,0,1,40,45)"/>
</g>
</g>
<g clip-path="url(#clip15)" clip-rule="nonzero">
<g clip-path="url(#clip16)" clip-rule="nonzero">
<path style="fill:none;stroke-width:0.566929;stroke-linecap:butt;stroke-linejoin:miter;stroke:rgb(0%,0%,0%);stroke-opacity:1;stroke-miterlimit:10;" d="M 34.015625 19.640625 L -34.015625 -98.195312 " transform="matrix(1,0,0,1,40,45)"/>
</g>
</g>
<g clip-path="url(#clip17)" clip-rule="nonzero">
<g clip-path="url(#clip18)" clip-rule="nonzero">
<path style="fill:none;stroke-width:0.566929;stroke-linecap:butt;stroke-linejoin:miter;stroke:rgb(0%,0%,0%);stroke-opacity:1;stroke-miterlimit:10;" d="M -68.03125 -39.277344 L 68.03125 -39.277344 " transform="matrix(1,0,0,1,40,45)"/>
</g>
</g>
<g clip-path="url(#clip19)" clip-rule="nonzero">
<g clip-path="url(#clip20)" clip-rule="nonzero">
<path style="fill:none;stroke-width:0.566929;stroke-linecap:butt;stroke-linejoin:miter;stroke:rgb(0%,0%,0%);stroke-opacity:1;stroke-miterlimit:10;" d="M -34.015625 -98.195312 L 34.015625 19.640625 " transform="matrix(1,0,0,1,40,45)"/>
</g>
</g>
<g clip-path="url(#clip21)" clip-rule="nonzero">
<g clip-path="url(#clip22)" clip-rule="nonzero">
<path style="fill:none;stroke-width:0.566929;stroke-linecap:butt;stroke-linejoin:miter;stroke:rgb(0%,0%,0%);stroke-opacity:1;stroke-miterlimit:10;" d="M -45.355469 39.277344 L 22.675781 -78.554688 " transform="matrix(1,0,0,1,40,45)"/>
<path style="fill:none;stroke-width:0.566929;stroke-linecap:butt;stroke-linejoin:miter;stroke:rgb(0%,0%,0%);stroke-opacity:1;stroke-miterlimit:10;" d="M 22.675781 -78.554688 L -45.355469 39.277344 " transform="matrix(1,0,0,1,40,45)"/>
</g>
</g>
<g clip-path="url(#clip23)" clip-rule="nonzero">
<g clip-path="url(#clip24)" clip-rule="nonzero">
<path style="fill:none;stroke-width:0.566929;stroke-linecap:butt;stroke-linejoin:miter;stroke:rgb(0%,0%,0%);stroke-opacity:1;stroke-miterlimit:10;" d="M 56.691406 -19.640625 L -79.371094 -19.640625 " transform="matrix(1,0,0,1,40,45)"/>
</g>
</g>
<g clip-path="url(#clip25)" clip-rule="nonzero">
<g clip-path="url(#clip26)" clip-rule="nonzero">
<path style="fill:none;stroke-width:0.566929;stroke-linecap:butt;stroke-linejoin:miter;stroke:rgb(0%,0%,0%);stroke-opacity:1;stroke-miterlimit:10;" d="M 22.675781 39.277344 L -45.355469 -78.554688 " transform="matrix(1,0,0,1,40,45)"/>
</g>
</g>
<g clip-path="url(#clip27)" clip-rule="nonzero">
<g clip-path="url(#clip28)" clip-rule="nonzero">
<path style="fill:none;stroke-width:0.566929;stroke-linecap:butt;stroke-linejoin:miter;stroke:rgb(0%,0%,0%);stroke-opacity:1;stroke-miterlimit:10;" d="M -79.371094 -19.640625 L 56.691406 -19.640625 " transform="matrix(1,0,0,1,40,45)"/>
</g>
</g>
<g clip-path="url(#clip29)" clip-rule="nonzero">
<g clip-path="url(#clip30)" clip-rule="nonzero">
<path style="fill:none;stroke-width:0.566929;stroke-linecap:butt;stroke-linejoin:miter;stroke:rgb(0%,0%,0%);stroke-opacity:1;stroke-miterlimit:10;" d="M -45.355469 -78.554688 L 22.675781 39.277344 " transform="matrix(1,0,0,1,40,45)"/>
</g>
</g>
<g clip-path="url(#clip31)" clip-rule="nonzero">
<g clip-path="url(#clip32)" clip-rule="nonzero">
<path style="fill:none;stroke-width:0.566929;stroke-linecap:butt;stroke-linejoin:miter;stroke:rgb(0%,0%,0%);stroke-opacity:1;stroke-miterlimit:10;" d="M -56.691406 58.917969 L 11.339844 -58.917969 " transform="matrix(1,0,0,1,40,45)"/>
<path style="fill:none;stroke-width:0.566929;stroke-linecap:butt;stroke-linejoin:miter;stroke:rgb(0%,0%,0%);stroke-opacity:1;stroke-miterlimit:10;" d="M 11.339844 -58.917969 L -56.691406 58.917969 " transform="matrix(1,0,0,1,40,45)"/>
</g>
</g>
<g clip-path="url(#clip33)" clip-rule="nonzero">
<g clip-path="url(#clip34)" clip-rule="nonzero">
<path style="fill:none;stroke-width:0.566929;stroke-linecap:butt;stroke-linejoin:miter;stroke:rgb(0%,0%,0%);stroke-opacity:1;stroke-miterlimit:10;" d="M 45.355469 0 L -90.707031 0 " transform="matrix(1,0,0,1,40,45)"/>
</g>
</g>
<g clip-path="url(#clip35)" clip-rule="nonzero">
<g clip-path="url(#clip36)" clip-rule="nonzero">
<path style="fill:none;stroke-width:0.566929;stroke-linecap:butt;stroke-linejoin:miter;stroke:rgb(0%,0%,0%);stroke-opacity:1;stroke-miterlimit:10;" d="M 11.339844 58.917969 L -56.691406 -58.917969 " transform="matrix(1,0,0,1,40,45)"/>
</g>
</g>
<g clip-path="url(#clip37)" clip-rule="nonzero">
<g clip-path="url(#clip38)" clip-rule="nonzero">
<path style="fill:none;stroke-width:0.566929;stroke-linecap:butt;stroke-linejoin:miter;stroke:rgb(0%,0%,0%);stroke-opacity:1;stroke-miterlimit:10;" d="M -90.707031 0 L 45.355469 0 " transform="matrix(1,0,0,1,40,45)"/>
</g>
</g>
<g clip-path="url(#clip39)" clip-rule="nonzero">
<g clip-path="url(#clip40)" clip-rule="nonzero">
<path style="fill:none;stroke-width:0.566929;stroke-linecap:butt;stroke-linejoin:miter;stroke:rgb(0%,0%,0%);stroke-opacity:1;stroke-miterlimit:10;" d="M -56.691406 -58.917969 L 11.339844 58.917969 " transform="matrix(1,0,0,1,40,45)"/>
</g>
</g>
<g clip-path="url(#clip41)" clip-rule="nonzero">
<g clip-path="url(#clip42)" clip-rule="nonzero">
<path style="fill:none;stroke-width:0.566929;stroke-linecap:butt;stroke-linejoin:miter;stroke:rgb(0%,0%,0%);stroke-opacity:1;stroke-miterlimit:10;" d="M -68.03125 78.554688 L 0 -39.277344 " transform="matrix(1,0,0,1,40,45)"/>
<path style="fill:none;stroke-width:0.566929;stroke-linecap:butt;stroke-linejoin:miter;stroke:rgb(0%,0%,0%);stroke-opacity:1;stroke-miterlimit:10;" d="M 0 -39.277344 L -68.03125 78.554688 " transform="matrix(1,0,0,1,40,45)"/>
</g>
</g>
<g clip-path="url(#clip43)" clip-rule="nonzero">
<g clip-path="url(#clip44)" clip-rule="nonzero">
<path style="fill:none;stroke-width:0.566929;stroke-linecap:butt;stroke-linejoin:miter;stroke:rgb(0%,0%,0%);stroke-opacity:1;stroke-miterlimit:10;" d="M 34.015625 19.640625 L -102.046875 19.640625 " transform="matrix(1,0,0,1,40,45)"/>
</g>
</g>
<g clip-path="url(#clip45)" clip-rule="nonzero">
<g clip-path="url(#clip46)" clip-rule="nonzero">
<path style="fill:none;stroke-width:0.566929;stroke-linecap:butt;stroke-linejoin:miter;stroke:rgb(0%,0%,0%);stroke-opacity:1;stroke-miterlimit:10;" d="M 0 78.554688 L -68.03125 -39.277344 " transform="matrix(1,0,0,1,40,45)"/>
</g>
</g>
<g clip-path="url(#clip47)" clip-rule="nonzero">
<g clip-path="url(#clip48)" clip-rule="nonzero">
<path style="fill:none;stroke-width:0.566929;stroke-linecap:butt;stroke-linejoin:miter;stroke:rgb(0%,0%,0%);stroke-opacity:1;stroke-miterlimit:10;" d="M -102.046875 19.640625 L 34.015625 19.640625 " transform="matrix(1,0,0,1,40,45)"/>
</g>
</g>
<g clip-path="url(#clip49)" clip-rule="nonzero">
<g clip-path="url(#clip50)" clip-rule="nonzero">
<path style="fill:none;stroke-width:0.566929;stroke-linecap:butt;stroke-linejoin:miter;stroke:rgb(0%,0%,0%);stroke-opacity:1;stroke-miterlimit:10;" d="M -68.03125 -39.277344 L 0 78.554688 " transform="matrix(1,0,0,1,40,45)"/>
</g>
</g>
<g clip-path="url(#clip51)" clip-rule="nonzero">
<g clip-path="url(#clip52)" clip-rule="nonzero">
<path style="fill:none;stroke-width:0.566929;stroke-linecap:butt;stroke-linejoin:miter;stroke:rgb(0%,0%,0%);stroke-opacity:1;stroke-miterlimit:10;" d="M -22.675781 39.277344 L 45.355469 -78.554688 " transform="matrix(1,0,0,1,40,45)"/>
<path style="fill:none;stroke-width:0.566929;stroke-linecap:butt;stroke-linejoin:miter;stroke:rgb(0%,0%,0%);stroke-opacity:1;stroke-miterlimit:10;" d="M 45.355469 -78.554688 L -22.675781 39.277344 " transform="matrix(1,0,0,1,40,45)"/>
</g>
</g>
<g clip-path="url(#clip53)" clip-rule="nonzero">
<g clip-path="url(#clip54)" clip-rule="nonzero">
<path style="fill:none;stroke-width:0.566929;stroke-linecap:butt;stroke-linejoin:miter;stroke:rgb(0%,0%,0%);stroke-opacity:1;stroke-miterlimit:10;" d="M 79.371094 -19.640625 L -56.691406 -19.640625 " transform="matrix(1,0,0,1,40,45)"/>
</g>
</g>
<g clip-path="url(#clip55)" clip-rule="nonzero">
<g clip-path="url(#clip56)" clip-rule="nonzero">
<path style="fill:none;stroke-width:0.566929;stroke-linecap:butt;stroke-linejoin:miter;stroke:rgb(0%,0%,0%);stroke-opacity:1;stroke-miterlimit:10;" d="M 45.355469 39.277344 L -22.675781 -78.554688 " transform="matrix(1,0,0,1,40,45)"/>
</g>
</g>
<g clip-path="url(#clip57)" clip-rule="nonzero">
<g clip-path="url(#clip58)" clip-rule="nonzero">
<path style="fill:none;stroke-width:0.566929;stroke-linecap:butt;stroke-linejoin:miter;stroke:rgb(0%,0%,0%);stroke-opacity:1;stroke-miterlimit:10;" d="M -56.691406 -19.640625 L 79.371094 -19.640625 " transform="matrix(1,0,0,1,40,45)"/>
</g>
</g>
<g clip-path="url(#clip59)" clip-rule="nonzero">
<g clip-path="url(#clip60)" clip-rule="nonzero">
<path style="fill:none;stroke-width:0.566929;stroke-linecap:butt;stroke-linejoin:miter;stroke:rgb(0%,0%,0%);stroke-opacity:1;stroke-miterlimit:10;" d="M -22.675781 -78.554688 L 45.355469 39.277344 " transform="matrix(1,0,0,1,40,45)"/>
</g>
</g>
<g clip-path="url(#clip61)" clip-rule="nonzero">
<g clip-path="url(#clip62)" clip-rule="nonzero">
<path style="fill:none;stroke-width:0.566929;stroke-linecap:butt;stroke-linejoin:miter;stroke:rgb(0%,0%,0%);stroke-opacity:1;stroke-miterlimit:10;" d="M -34.015625 58.917969 L 34.015625 -58.917969 " transform="matrix(1,0,0,1,40,45)"/>
<path style="fill:none;stroke-width:0.566929;stroke-linecap:butt;stroke-linejoin:miter;stroke:rgb(0%,0%,0%);stroke-opacity:1;stroke-miterlimit:10;" d="M 34.015625 -58.917969 L -34.015625 58.917969 " transform="matrix(1,0,0,1,40,45)"/>
</g>
</g>
<g clip-path="url(#clip63)" clip-rule="nonzero">
<g clip-path="url(#clip64)" clip-rule="nonzero">
<path style="fill:none;stroke-width:0.566929;stroke-linecap:butt;stroke-linejoin:miter;stroke:rgb(0%,0%,0%);stroke-opacity:1;stroke-miterlimit:10;" d="M 68.03125 0 L -68.03125 0 " transform="matrix(1,0,0,1,40,45)"/>
</g>
</g>
<g clip-path="url(#clip65)" clip-rule="nonzero">
<g clip-path="url(#clip66)" clip-rule="nonzero">
<path style="fill:none;stroke-width:0.566929;stroke-linecap:butt;stroke-linejoin:miter;stroke:rgb(0%,0%,0%);stroke-opacity:1;stroke-miterlimit:10;" d="M 34.015625 58.917969 L -34.015625 -58.917969 " transform="matrix(1,0,0,1,40,45)"/>
</g>
</g>
<g clip-path="url(#clip67)" clip-rule="nonzero">
<g clip-path="url(#clip68)" clip-rule="nonzero">
<path style="fill:none;stroke-width:0.566929;stroke-linecap:butt;stroke-linejoin:miter;stroke:rgb(0%,0%,0%);stroke-opacity:1;stroke-miterlimit:10;" d="M -68.03125 0 L 68.03125 0 " transform="matrix(1,0,0,1,40,45)"/>
</g>
</g>
<g clip-path="url(#clip69)" clip-rule="nonzero">
<g clip-path="url(#clip70)" clip-rule="nonzero">
<path style="fill:none;stroke-width:0.566929;stroke-linecap:butt;stroke-linejoin:miter;stroke:rgb(0%,0%,0%);stroke-opacity:1;stroke-miterlimit:10;" d="M -34.015625 -58.917969 L 34.015625 58.917969 " transform="matrix(1,0,0,1,40,45)"/>
</g>
</g>
<g clip-path="url(#clip71)" clip-rule="nonzero">
<g clip-path="url(#clip72)" clip-rule="nonzero">
<path style="fill:none;stroke-width:0.566929;stroke-linecap:butt;stroke-linejoin:miter;stroke:rgb(0%,0%,0%);stroke-opacity:1;stroke-miterlimit:10;" d="M -45.355469 78.554688 L 22.675781 -39.277344 " transform="matrix(1,0,0,1,40,45)"/>
<path style="fill:none;stroke-width:0.566929;stroke-linecap:butt;stroke-linejoin:miter;stroke:rgb(0%,0%,0%);stroke-opacity:1;stroke-miterlimit:10;" d="M 22.675781 -39.277344 L -45.355469 78.554688 " transform="matrix(1,0,0,1,40,45)"/>
</g>
</g>
<g clip-path="url(#clip73)" clip-rule="nonzero">
<g clip-path="url(#clip74)" clip-rule="nonzero">
<path style="fill:none;stroke-width:0.566929;stroke-linecap:butt;stroke-linejoin:miter;stroke:rgb(0%,0%,0%);stroke-opacity:1;stroke-miterlimit:10;" d="M 56.691406 19.640625 L -79.371094 19.640625 " transform="matrix(1,0,0,1,40,45)"/>
</g>
</g>
<g clip-path="url(#clip75)" clip-rule="nonzero">
<g clip-path="url(#clip76)" clip-rule="nonzero">
<path style="fill:none;stroke-width:0.566929;stroke-linecap:butt;stroke-linejoin:miter;stroke:rgb(0%,0%,0%);stroke-opacity:1;stroke-miterlimit:10;" d="M 22.675781 78.554688 L -45.355469 -39.277344 " transform="matrix(1,0,0,1,40,45)"/>
</g>
</g>
<g clip-path="url(#clip77)" clip-rule="nonzero">
<g clip-path="url(#clip78)" clip-rule="nonzero">
<path style="fill:none;stroke-width:0.566929;stroke-linecap:butt;stroke-linejoin:miter;stroke:rgb(0%,0%,0%);stroke-opacity:1;stroke-miterlimit:10;" d="M -79.371094 19.640625 L 56.691406 19.640625 " transform="matrix(1,0,0,1,40,45)"/>
</g>
</g>
<g clip-path="url(#clip79)" clip-rule="nonzero">
<g clip-path="url(#clip80)" clip-rule="nonzero">
<path style="fill:none;stroke-width:0.566929;stroke-linecap:butt;stroke-linejoin:miter;stroke:rgb(0%,0%,0%);stroke-opacity:1;stroke-miterlimit:10;" d="M -45.355469 -39.277344 L 22.675781 78.554688 " transform="matrix(1,0,0,1,40,45)"/>
</g>
</g>
<g clip-path="url(#clip81)" clip-rule="nonzero">
<g clip-path="url(#clip82)" clip-rule="nonzero">
<path style="fill:none;stroke-width:0.566929;stroke-linecap:butt;stroke-linejoin:miter;stroke:rgb(0%,0%,0%);stroke-opacity:1;stroke-miterlimit:10;" d="M 0 39.277344 L 68.03125 -78.554688 " transform="matrix(1,0,0,1,40,45)"/>
<path style="fill:none;stroke-width:0.566929;stroke-linecap:butt;stroke-linejoin:miter;stroke:rgb(0%,0%,0%);stroke-opacity:1;stroke-miterlimit:10;" d="M 68.03125 -78.554688 L 0 39.277344 " transform="matrix(1,0,0,1,40,45)"/>
</g>
</g>
<g clip-path="url(#clip83)" clip-rule="nonzero">
<g clip-path="url(#clip84)" clip-rule="nonzero">
<path style="fill:none;stroke-width:0.566929;stroke-linecap:butt;stroke-linejoin:miter;stroke:rgb(0%,0%,0%);stroke-opacity:1;stroke-miterlimit:10;" d="M 102.046875 -19.640625 L -34.015625 -19.640625 " transform="matrix(1,0,0,1,40,45)"/>
</g>
</g>
<g clip-path="url(#clip85)" clip-rule="nonzero">
<g clip-path="url(#clip86)" clip-rule="nonzero">
<path style="fill:none;stroke-width:0.566929;stroke-linecap:butt;stroke-linejoin:miter;stroke:rgb(0%,0%,0%);stroke-opacity:1;stroke-miterlimit:10;" d="M 68.03125 39.277344 L 0 -78.554688 " transform="matrix(1,0,0,1,40,45)"/>
</g>
</g>
<g clip-path="url(#clip87)" clip-rule="nonzero">
<g clip-path="url(#clip88)" clip-rule="nonzero">
<path style="fill:none;stroke-width:0.566929;stroke-linecap:butt;stroke-linejoin:miter;stroke:rgb(0%,0%,0%);stroke-opacity:1;stroke-miterlimit:10;" d="M -34.015625 -19.640625 L 102.046875 -19.640625 " transform="matrix(1,0,0,1,40,45)"/>
</g>
</g>
<g clip-path="url(#clip89)" clip-rule="nonzero">
<g clip-path="url(#clip90)" clip-rule="nonzero">
<path style="fill:none;stroke-width:0.566929;stroke-linecap:butt;stroke-linejoin:miter;stroke:rgb(0%,0%,0%);stroke-opacity:1;stroke-miterlimit:10;" d="M 0 -78.554688 L 68.03125 39.277344 " transform="matrix(1,0,0,1,40,45)"/>
</g>
</g>
<g clip-path="url(#clip91)" clip-rule="nonzero">
<g clip-path="url(#clip92)" clip-rule="nonzero">
<path style="fill:none;stroke-width:0.566929;stroke-linecap:butt;stroke-linejoin:miter;stroke:rgb(0%,0%,0%);stroke-opacity:1;stroke-miterlimit:10;" d="M -11.339844 58.917969 L 56.691406 -58.917969 " transform="matrix(1,0,0,1,40,45)"/>
<path style="fill:none;stroke-width:0.566929;stroke-linecap:butt;stroke-linejoin:miter;stroke:rgb(0%,0%,0%);stroke-opacity:1;stroke-miterlimit:10;" d="M 56.691406 -58.917969 L -11.339844 58.917969 " transform="matrix(1,0,0,1,40,45)"/>
</g>
</g>
<g clip-path="url(#clip93)" clip-rule="nonzero">
<g clip-path="url(#clip94)" clip-rule="nonzero">
<path style="fill:none;stroke-width:0.566929;stroke-linecap:butt;stroke-linejoin:miter;stroke:rgb(0%,0%,0%);stroke-opacity:1;stroke-miterlimit:10;" d="M 90.707031 0 L -45.355469 0 " transform="matrix(1,0,0,1,40,45)"/>
</g>
</g>
<g clip-path="url(#clip95)" clip-rule="nonzero">
<g clip-path="url(#clip96)" clip-rule="nonzero">
<path style="fill:none;stroke-width:0.566929;stroke-linecap:butt;stroke-linejoin:miter;stroke:rgb(0%,0%,0%);stroke-opacity:1;stroke-miterlimit:10;" d="M 56.691406 58.917969 L -11.339844 -58.917969 " transform="matrix(1,0,0,1,40,45)"/>
</g>
</g>
<g clip-path="url(#clip97)" clip-rule="nonzero">
<g clip-path="url(#clip98)" clip-rule="nonzero">
<path style="fill:none;stroke-width:0.566929;stroke-linecap:butt;stroke-linejoin:miter;stroke:rgb(0%,0%,0%);stroke-opacity:1;stroke-miterlimit:10;" d="M -45.355469 0 L 90.707031 0 " transform="matrix(1,0,0,1,40,45)"/>
</g>
</g>
<g clip-path="url(#clip99)" clip-rule="nonzero">
<g clip-path="url(#clip100)" clip-rule="nonzero">
<path style="fill:none;stroke-width:0.566929;stroke-linecap:butt;stroke-linejoin:miter;stroke:rgb(0%,0%,0%);stroke-opacity:1;stroke-miterlimit:10;" d="M -11.339844 -58.917969 L 56.691406 58.917969 " transform="matrix(1,0,0,1,40,45)"/>
</g>
</g>
<g clip-path="url(#clip101)" clip-rule="nonzero">
<g clip-path="url(#clip102)" clip-rule="nonzero">
<path style="fill:none;stroke-width:0.566929;stroke-linecap:butt;stroke-linejoin:miter;stroke:rgb(0%,0%,0%);stroke-opacity:1;stroke-miterlimit:10;" d="M -22.675781 78.554688 L 45.355469 -39.277344 " transform="matrix(1,0,0,1,40,45)"/>
<path style="fill:none;stroke-width:0.566929;stroke-linecap:butt;stroke-linejoin:miter;stroke:rgb(0%,0%,0%);stroke-opacity:1;stroke-miterlimit:10;" d="M 45.355469 -39.277344 L -22.675781 78.554688 " transform="matrix(1,0,0,1,40,45)"/>
</g>
</g>
<g clip-path="url(#clip103)" clip-rule="nonzero">
<g clip-path="url(#clip104)" clip-rule="nonzero">
<path style="fill:none;stroke-width:0.566929;stroke-linecap:butt;stroke-linejoin:miter;stroke:rgb(0%,0%,0%);stroke-opacity:1;stroke-miterlimit:10;" d="M 79.371094 19.640625 L -56.691406 19.640625 " transform="matrix(1,0,0,1,40,45)"/>
</g>
</g>
<g clip-path="url(#clip105)" clip-rule="nonzero">
<g clip-path="url(#clip106)" clip-rule="nonzero">
<path style="fill:none;stroke-width:0.566929;stroke-linecap:butt;stroke-linejoin:miter;stroke:rgb(0%,0%,0%);stroke-opacity:1;stroke-miterlimit:10;" d="M 45.355469 78.554688 L -22.675781 -39.277344 " transform="matrix(1,0,0,1,40,45)"/>
</g>
</g>
<g clip-path="url(#clip107)" clip-rule="nonzero">
<g clip-path="url(#clip108)" clip-rule="nonzero">
<path style="fill:none;stroke-width:0.566929;stroke-linecap:butt;stroke-linejoin:miter;stroke:rgb(0%,0%,0%);stroke-opacity:1;stroke-miterlimit:10;" d="M -56.691406 19.640625 L 79.371094 19.640625 " transform="matrix(1,0,0,1,40,45)"/>
</g>
</g>
<g clip-path="url(#clip109)" clip-rule="nonzero">
<g clip-path="url(#clip110)" clip-rule="nonzero">
<path style="fill:none;stroke-width:0.566929;stroke-linecap:butt;stroke-linejoin:miter;stroke:rgb(0%,0%,0%);stroke-opacity:1;stroke-miterlimit:10;" d="M -22.675781 -39.277344 L 45.355469 78.554688 " transform="matrix(1,0,0,1,40,45)"/>
</g>
</g>
<g clip-path="url(#clip111)" clip-rule="nonzero">
<g clip-path="url(#clip112)" clip-rule="nonzero">
<path style="fill:none;stroke-width:0.566929;stroke-linecap:butt;stroke-linejoin:miter;stroke:rgb(0%,0%,0%);stroke-opacity:1;stroke-miterlimit:10;" d="M -34.015625 98.195312 L 34.015625 -19.640625 " transform="matrix(1,0,0,1,40,45)"/>
<path style="fill:none;stroke-width:0.566929;stroke-linecap:butt;stroke-linejoin:miter;stroke:rgb(0%,0%,0%);stroke-opacity:1;stroke-miterlimit:10;" d="M 34.015625 -19.640625 L -34.015625 98.195312 " transform="matrix(1,0,0,1,40,45)"/>
</g>
</g>
<g clip-path="url(#clip113)" clip-rule="nonzero">
<g clip-path="url(#clip114)" clip-rule="nonzero">
<path style="fill:none;stroke-width:0.566929;stroke-linecap:butt;stroke-linejoin:miter;stroke:rgb(0%,0%,0%);stroke-opacity:1;stroke-miterlimit:10;" d="M 68.03125 39.277344 L -68.03125 39.277344 " transform="matrix(1,0,0,1,40,45)"/>
</g>
</g>
<g clip-path="url(#clip115)" clip-rule="nonzero">
<g clip-path="url(#clip116)" clip-rule="nonzero">
<path style="fill:none;stroke-width:0.566929;stroke-linecap:butt;stroke-linejoin:miter;stroke:rgb(0%,0%,0%);stroke-opacity:1;stroke-miterlimit:10;" d="M 34.015625 98.195312 L -34.015625 -19.640625 " transform="matrix(1,0,0,1,40,45)"/>
</g>
</g>
<g clip-path="url(#clip117)" clip-rule="nonzero">
<g clip-path="url(#clip118)" clip-rule="nonzero">
<path style="fill:none;stroke-width:0.566929;stroke-linecap:butt;stroke-linejoin:miter;stroke:rgb(0%,0%,0%);stroke-opacity:1;stroke-miterlimit:10;" d="M -68.03125 39.277344 L 68.03125 39.277344 " transform="matrix(1,0,0,1,40,45)"/>
</g>
</g>
<g clip-path="url(#clip119)" clip-rule="nonzero">
<g clip-path="url(#clip120)" clip-rule="nonzero">
<path style="fill:none;stroke-width:0.566929;stroke-linecap:butt;stroke-linejoin:miter;stroke:rgb(0%,0%,0%);stroke-opacity:1;stroke-miterlimit:10;" d="M -34.015625 -19.640625 L 34.015625 98.195312 " transform="matrix(1,0,0,1,40,45)"/>
</g>
</g>
<g clip-path="url(#clip121)" clip-rule="nonzero">
<g clip-path="url(#clip122)" clip-rule="nonzero">
<path style="fill:none;stroke-width:0.566929;stroke-linecap:butt;stroke-linejoin:miter;stroke:rgb(0%,0%,0%);stroke-opacity:1;stroke-miterlimit:10;" d="M 0 78.554688 L 68.03125 -39.277344 " transform="matrix(1,0,0,1,40,45)"/>
<path style="fill:none;stroke-width:0.566929;stroke-linecap:butt;stroke-linejoin:miter;stroke:rgb(0%,0%,0%);stroke-opacity:1;stroke-miterlimit:10;" d="M 68.03125 -39.277344 L 0 78.554688 " transform="matrix(1,0,0,1,40,45)"/>
</g>
</g>
<g clip-path="url(#clip123)" clip-rule="nonzero">
<g clip-path="url(#clip124)" clip-rule="nonzero">
<path style="fill:none;stroke-width:0.566929;stroke-linecap:butt;stroke-linejoin:miter;stroke:rgb(0%,0%,0%);stroke-opacity:1;stroke-miterlimit:10;" d="M 102.046875 19.640625 L -34.015625 19.640625 " transform="matrix(1,0,0,1,40,45)"/>
</g>
</g>
<g clip-path="url(#clip125)" clip-rule="nonzero">
<g clip-path="url(#clip126)" clip-rule="nonzero">
<path style="fill:none;stroke-width:0.566929;stroke-linecap:butt;stroke-linejoin:miter;stroke:rgb(0%,0%,0%);stroke-opacity:1;stroke-miterlimit:10;" d="M 68.03125 78.554688 L 0 -39.277344 " transform="matrix(1,0,0,1,40,45)"/>
</g>
</g>
<g clip-path="url(#clip127)" clip-rule="nonzero">
<g clip-path="url(#clip128)" clip-rule="nonzero">
<path style="fill:none;stroke-width:0.566929;stroke-linecap:butt;stroke-linejoin:miter;stroke:rgb(0%,0%,0%);stroke-opacity:1;stroke-miterlimit:10;" d="M -34.015625 19.640625 L 102.046875 19.640625 " transform="matrix(1,0,0,1,40,45)"/>
</g>
</g>
<g clip-path="url(#clip129)" clip-rule="nonzero">
<g clip-path="url(#clip130)" clip-rule="nonzero">
<path style="fill:none;stroke-width:0.566929;stroke-linecap:butt;stroke-linejoin:miter;stroke:rgb(0%,0%,0%);stroke-opacity:1;stroke-miterlimit:10;" d="M 0 -39.277344 L 68.03125 78.554688 " transform="matrix(1,0,0,1,40,45)"/>
</g>
</g>
<g clip-path="url(#clip131)" clip-rule="nonzero">
<g clip-path="url(#clip132)" clip-rule="nonzero">
<path style="fill:none;stroke-width:1.133858;stroke-linecap:butt;stroke-linejoin:miter;stroke:rgb(100%,30%,20%);stroke-opacity:0.7;stroke-miterlimit:10;" d="M -34.015625 58.917969 L 34.015625 -58.917969 " transform="matrix(1,0,0,1,40,45)"/>
<path style="fill:none;stroke-width:1.133858;stroke-linecap:butt;stroke-linejoin:miter;stroke:rgb(100%,30%,20%);stroke-opacity:0.7;stroke-miterlimit:10;" d="M 34.015625 -58.917969 L -34.015625 58.917969 " transform="matrix(1,0,0,1,40,45)"/>
</g>
</g>
<g clip-path="url(#clip133)" clip-rule="nonzero">
<g clip-path="url(#clip134)" clip-rule="nonzero">
<path style="fill:none;stroke-width:1.133858;stroke-linecap:butt;stroke-linejoin:miter;stroke:rgb(100%,30%,20%);stroke-opacity:0.7;stroke-miterlimit:10;" d="M 68.03125 0 L -68.03125 0 " transform="matrix(1,0,0,1,40,45)"/>
</g>
</g>
<g clip-path="url(#clip135)" clip-rule="nonzero">
<g clip-path="url(#clip136)" clip-rule="nonzero">
<path style="fill:none;stroke-width:1.133858;stroke-linecap:butt;stroke-linejoin:miter;stroke:rgb(100%,30%,20%);stroke-opacity:0.7;stroke-miterlimit:10;" d="M 34.015625 58.917969 L -34.015625 -58.917969 " transform="matrix(1,0,0,1,40,45)"/>
</g>
</g>
<g clip-path="url(#clip137)" clip-rule="nonzero">
<g clip-path="url(#clip138)" clip-rule="nonzero">
<path style="fill:none;stroke-width:1.133858;stroke-linecap:butt;stroke-linejoin:miter;stroke:rgb(100%,30%,20%);stroke-opacity:0.7;stroke-miterlimit:10;" d="M -68.03125 0 L 68.03125 0 " transform="matrix(1,0,0,1,40,45)"/>
</g>
</g>
<g clip-path="url(#clip139)" clip-rule="nonzero">
<g clip-path="url(#clip140)" clip-rule="nonzero">
<path style="fill:none;stroke-width:1.133858;stroke-linecap:butt;stroke-linejoin:miter;stroke:rgb(100%,30%,20%);stroke-opacity:0.7;stroke-miterlimit:10;" d="M -34.015625 -58.917969 L 34.015625 58.917969 " transform="matrix(1,0,0,1,40,45)"/>
</g>
</g>
<g clip-path="url(#clip141)" clip-rule="nonzero">
<g clip-path="url(#clip142)" clip-rule="nonzero">
<path style=" stroke:none;fill-rule:evenodd;fill:rgb(0%,0%,0%);fill-opacity:1;" d="M 7.402344 25.359375 C 7.402344 23.472656 4.566406 23.472656 4.566406 25.359375 C 4.566406 27.25 7.402344 27.25 7.402344 25.359375 Z M 7.402344 25.359375 "/>
</g>
</g>
<g clip-path="url(#clip143)" clip-rule="nonzero">
<g clip-path="url(#clip144)" clip-rule="nonzero">
<path style=" stroke:none;fill-rule:evenodd;fill:rgb(0%,0%,0%);fill-opacity:1;" d="M 41.417969 5.722656 C 41.417969 3.832031 38.582031 3.832031 38.582031 5.722656 C 38.582031 7.613281 41.417969 7.613281 41.417969 5.722656 Z M 41.417969 5.722656 "/>
</g>
</g>
<g clip-path="url(#clip145)" clip-rule="nonzero">
<g clip-path="url(#clip146)" clip-rule="nonzero">
<path style=" stroke:none;fill-rule:evenodd;fill:rgb(0%,0%,0%);fill-opacity:1;" d="M 30.078125 25.359375 C 30.078125 23.472656 27.242188 23.472656 27.242188 25.359375 C 27.242188 27.25 30.078125 27.25 30.078125 25.359375 Z M 30.078125 25.359375 "/>
</g>
</g>
<g clip-path="url(#clip147)" clip-rule="nonzero">
<g clip-path="url(#clip148)" clip-rule="nonzero">
<path style=" stroke:none;fill-rule:evenodd;fill:rgb(0%,0%,0%);fill-opacity:1;" d="M 18.738281 45 C 18.738281 43.109375 15.90625 43.109375 15.90625 45 C 15.90625 46.890625 18.738281 46.890625 18.738281 45 Z M 18.738281 45 "/>
</g>
</g>
<g clip-path="url(#clip149)" clip-rule="nonzero">
<g clip-path="url(#clip150)" clip-rule="nonzero">
<path style=" stroke:none;fill-rule:evenodd;fill:rgb(0%,0%,0%);fill-opacity:1;" d="M 7.402344 64.640625 C 7.402344 62.75 4.566406 62.75 4.566406 64.640625 C 4.566406 66.527344 7.402344 66.527344 7.402344 64.640625 Z M 7.402344 64.640625 "/>
</g>
</g>
<g clip-path="url(#clip151)" clip-rule="nonzero">
<g clip-path="url(#clip152)" clip-rule="nonzero">
<path style=" stroke:none;fill-rule:evenodd;fill:rgb(0%,0%,0%);fill-opacity:1;" d="M 52.757812 25.359375 C 52.757812 23.472656 49.921875 23.472656 49.921875 25.359375 C 49.921875 27.25 52.757812 27.25 52.757812 25.359375 Z M 52.757812 25.359375 "/>
</g>
</g>
<g clip-path="url(#clip153)" clip-rule="nonzero">
<g clip-path="url(#clip154)" clip-rule="nonzero">
<path style=" stroke:none;fill-rule:evenodd;fill:rgb(0%,0%,0%);fill-opacity:1;" d="M 41.417969 45 C 41.417969 43.109375 38.582031 43.109375 38.582031 45 C 38.582031 46.890625 41.417969 46.890625 41.417969 45 Z M 41.417969 45 "/>
</g>
</g>
<g clip-path="url(#clip155)" clip-rule="nonzero">
<g clip-path="url(#clip156)" clip-rule="nonzero">
<path style=" stroke:none;fill-rule:evenodd;fill:rgb(0%,0%,0%);fill-opacity:1;" d="M 30.078125 64.640625 C 30.078125 62.75 27.242188 62.75 27.242188 64.640625 C 27.242188 66.527344 30.078125 66.527344 30.078125 64.640625 Z M 30.078125 64.640625 "/>
</g>
</g>
<g clip-path="url(#clip157)" clip-rule="nonzero">
<g clip-path="url(#clip158)" clip-rule="nonzero">
<path style=" stroke:none;fill-rule:evenodd;fill:rgb(0%,0%,0%);fill-opacity:1;" d="M 75.433594 25.359375 C 75.433594 23.472656 72.597656 23.472656 72.597656 25.359375 C 72.597656 27.25 75.433594 27.25 75.433594 25.359375 Z M 75.433594 25.359375 "/>
</g>
</g>
<g clip-path="url(#clip159)" clip-rule="nonzero">
<g clip-path="url(#clip160)" clip-rule="nonzero">
<path style=" stroke:none;fill-rule:evenodd;fill:rgb(0%,0%,0%);fill-opacity:1;" d="M 64.09375 45 C 64.09375 43.109375 61.261719 43.109375 61.261719 45 C 61.261719 46.890625 64.09375 46.890625 64.09375 45 Z M 64.09375 45 "/>
</g>
</g>
<g clip-path="url(#clip161)" clip-rule="nonzero">
<g clip-path="url(#clip162)" clip-rule="nonzero">
<path style=" stroke:none;fill-rule:evenodd;fill:rgb(0%,0%,0%);fill-opacity:1;" d="M 52.757812 64.640625 C 52.757812 62.75 49.921875 62.75 49.921875 64.640625 C 49.921875 66.527344 52.757812 66.527344 52.757812 64.640625 Z M 52.757812 64.640625 "/>
</g>
</g>
<g clip-path="url(#clip163)" clip-rule="nonzero">
<g clip-path="url(#clip164)" clip-rule="nonzero">
<path style=" stroke:none;fill-rule:evenodd;fill:rgb(0%,0%,0%);fill-opacity:1;" d="M 41.417969 84.277344 C 41.417969 82.386719 38.582031 82.386719 38.582031 84.277344 C 38.582031 86.167969 41.417969 86.167969 41.417969 84.277344 Z M 41.417969 84.277344 "/>
</g>
</g>
<g clip-path="url(#clip165)" clip-rule="nonzero">
<g clip-path="url(#clip166)" clip-rule="nonzero">
<path style=" stroke:none;fill-rule:evenodd;fill:rgb(0%,0%,0%);fill-opacity:1;" d="M 75.433594 64.640625 C 75.433594 62.75 72.597656 62.75 72.597656 64.640625 C 72.597656 66.527344 75.433594 66.527344 75.433594 64.640625 Z M 75.433594 64.640625 "/>
</g>
</g>
<path style=" stroke:none;fill-rule:evenodd;fill:rgb(80%,80%,80%);fill-opacity:1;" d="M 45.667969 5.722656 C 45.667969 2.589844 43.132812 0.0507812 40 0.0507812 C 36.867188 0.0507812 34.332031 2.589844 34.332031 5.722656 C 34.332031 8.851562 36.867188 11.390625 40 11.390625 C 43.132812 11.390625 45.667969 8.851562 45.667969 5.722656 Z M 45.667969 5.722656 "/>
<path style=" stroke:none;fill-rule:nonzero;fill:rgb(0%,0%,0%);fill-opacity:1;" d="M 40.4375 2.371094 C 40.4375 2.121094 40.4375 2.089844 40.1875 2.089844 C 39.515625 2.792969 38.546875 2.792969 38.203125 2.792969 L 38.203125 3.121094 C 38.421875 3.121094 39.0625 3.121094 39.640625 2.839844 L 39.640625 8.496094 C 39.640625 8.886719 39.59375 9.011719 38.625 9.011719 L 38.265625 9.011719 L 38.265625 9.355469 C 38.65625 9.324219 39.59375 9.324219 40.03125 9.324219 C 40.46875 9.324219 41.421875 9.324219 41.796875 9.355469 L 41.796875 9.011719 L 41.453125 9.011719 C 40.46875 9.011719 40.4375 8.902344 40.4375 8.496094 Z M 40.4375 2.371094 "/>
<path style=" stroke:none;fill-rule:evenodd;fill:rgb(80%,80%,80%);fill-opacity:1;" d="M 79.683594 25.359375 C 79.683594 22.230469 77.148438 19.691406 74.015625 19.691406 C 70.882812 19.691406 68.347656 22.230469 68.347656 25.359375 C 68.347656 28.492188 70.882812 31.03125 74.015625 31.03125 C 77.148438 31.03125 79.683594 28.492188 79.683594 25.359375 Z M 79.683594 25.359375 "/>
<path style=" stroke:none;fill-rule:nonzero;fill:rgb(0%,0%,0%);fill-opacity:1;" d="M 74.453125 22.007812 C 74.453125 21.757812 74.453125 21.726562 74.203125 21.726562 C 73.53125 22.429688 72.5625 22.429688 72.21875 22.429688 L 72.21875 22.757812 C 72.4375 22.757812 73.078125 22.757812 73.65625 22.476562 L 73.65625 28.132812 C 73.65625 28.523438 73.609375 28.648438 72.640625 28.648438 L 72.28125 28.648438 L 72.28125 28.992188 C 72.671875 28.960938 73.609375 28.960938 74.046875 28.960938 C 74.484375 28.960938 75.4375 28.960938 75.8125 28.992188 L 75.8125 28.648438 L 75.46875 28.648438 C 74.484375 28.648438 74.453125 28.539062 74.453125 28.132812 Z M 74.453125 22.007812 "/>
<path style=" stroke:none;fill-rule:evenodd;fill:rgb(80%,80%,80%);fill-opacity:1;" d="M 45.667969 84.277344 C 45.667969 81.148438 43.132812 78.609375 40 78.609375 C 36.867188 78.609375 34.332031 81.148438 34.332031 84.277344 C 34.332031 87.410156 36.867188 89.949219 40 89.949219 C 43.132812 89.949219 45.667969 87.410156 45.667969 84.277344 Z M 45.667969 84.277344 "/>
<path style=" stroke:none;fill-rule:nonzero;fill:rgb(0%,0%,0%);fill-opacity:1;" d="M 40.4375 80.925781 C 40.4375 80.675781 40.4375 80.644531 40.1875 80.644531 C 39.515625 81.347656 38.546875 81.347656 38.203125 81.347656 L 38.203125 81.675781 C 38.421875 81.675781 39.0625 81.675781 39.640625 81.394531 L 39.640625 87.050781 C 39.640625 87.441406 39.59375 87.566406 38.625 87.566406 L 38.265625 87.566406 L 38.265625 87.910156 C 38.65625 87.878906 39.59375 87.878906 40.03125 87.878906 C 40.46875 87.878906 41.421875 87.878906 41.796875 87.910156 L 41.796875 87.566406 L 41.453125 87.566406 C 40.46875 87.566406 40.4375 87.457031 40.4375 87.050781 Z M 40.4375 80.925781 "/>
<path style=" stroke:none;fill-rule:evenodd;fill:rgb(80%,80%,80%);fill-opacity:1;" d="M 45.667969 45 C 45.667969 41.867188 43.132812 39.332031 40 39.332031 C 36.867188 39.332031 34.332031 41.867188 34.332031 45 C 34.332031 48.132812 36.867188 50.667969 40 50.667969 C 43.132812 50.667969 45.667969 48.132812 45.667969 45 Z M 45.667969 45 "/>
<path style=" stroke:none;fill-rule:nonzero;fill:rgb(0%,0%,0%);fill-opacity:1;" d="M 38.671875 47.789062 L 39.828125 46.664062 C 41.53125 45.164062 42.171875 44.570312 42.171875 43.492188 C 42.171875 42.242188 41.203125 41.367188 39.859375 41.367188 C 38.640625 41.367188 37.828125 42.367188 37.828125 43.335938 C 37.828125 43.960938 38.375 43.960938 38.40625 43.960938 C 38.59375 43.960938 38.96875 43.820312 38.96875 43.382812 C 38.96875 43.085938 38.78125 42.804688 38.390625 42.804688 C 38.3125 42.804688 38.28125 42.804688 38.25 42.820312 C 38.5 42.117188 39.09375 41.710938 39.71875 41.710938 C 40.71875 41.710938 41.1875 42.585938 41.1875 43.492188 C 41.1875 44.351562 40.640625 45.226562 40.046875 45.898438 L 37.953125 48.226562 C 37.828125 48.351562 37.828125 48.367188 37.828125 48.632812 L 41.875 48.632812 L 42.171875 46.742188 L 41.90625 46.742188 C 41.84375 47.054688 41.78125 47.539062 41.671875 47.710938 C 41.59375 47.789062 40.875 47.789062 40.625 47.789062 Z M 38.671875 47.789062 "/>
<path style=" stroke:none;fill-rule:evenodd;fill:rgb(80%,80%,80%);fill-opacity:1;" d="M 79.683594 64.640625 C 79.683594 61.507812 77.148438 58.96875 74.015625 58.96875 C 70.882812 58.96875 68.347656 61.507812 68.347656 64.640625 C 68.347656 67.769531 70.882812 70.308594 74.015625 70.308594 C 77.148438 70.308594 79.683594 67.769531 79.683594 64.640625 Z M 79.683594 64.640625 "/>
<path style=" stroke:none;fill-rule:nonzero;fill:rgb(0%,0%,0%);fill-opacity:1;" d="M 74.453125 61.289062 C 74.453125 61.039062 74.453125 61.007812 74.203125 61.007812 C 73.53125 61.710938 72.5625 61.710938 72.21875 61.710938 L 72.21875 62.039062 C 72.4375 62.039062 73.078125 62.039062 73.65625 61.757812 L 73.65625 67.414062 C 73.65625 67.804688 73.609375 67.929688 72.640625 67.929688 L 72.28125 67.929688 L 72.28125 68.273438 C 72.671875 68.242188 73.609375 68.242188 74.046875 68.242188 C 74.484375 68.242188 75.4375 68.242188 75.8125 68.273438 L 75.8125 67.929688 L 75.46875 67.929688 C 74.484375 67.929688 74.453125 67.820312 74.453125 67.414062 Z M 74.453125 61.289062 "/>
<path style=" stroke:none;fill-rule:evenodd;fill:rgb(80%,80%,80%);fill-opacity:1;" d="M 11.652344 64.640625 C 11.652344 61.507812 9.117188 58.96875 5.984375 58.96875 C 2.851562 58.96875 0.316406 61.507812 0.316406 64.640625 C 0.316406 67.769531 2.851562 70.308594 5.984375 70.308594 C 9.117188 70.308594 11.652344 67.769531 11.652344 64.640625 Z M 11.652344 64.640625 "/>
<path style=" stroke:none;fill-rule:nonzero;fill:rgb(0%,0%,0%);fill-opacity:1;" d="M 6.421875 61.289062 C 6.421875 61.039062 6.421875 61.007812 6.171875 61.007812 C 5.5 61.710938 4.53125 61.710938 4.1875 61.710938 L 4.1875 62.039062 C 4.40625 62.039062 5.046875 62.039062 5.625 61.757812 L 5.625 67.414062 C 5.625 67.804688 5.578125 67.929688 4.609375 67.929688 L 4.25 67.929688 L 4.25 68.273438 C 4.640625 68.242188 5.578125 68.242188 6.015625 68.242188 C 6.453125 68.242188 7.40625 68.242188 7.78125 68.273438 L 7.78125 67.929688 L 7.4375 67.929688 C 6.453125 67.929688 6.421875 67.820312 6.421875 67.414062 Z M 6.421875 61.289062 "/>
<path style=" stroke:none;fill-rule:evenodd;fill:rgb(80%,80%,80%);fill-opacity:1;" d="M 11.652344 25.359375 C 11.652344 22.230469 9.117188 19.691406 5.984375 19.691406 C 2.851562 19.691406 0.316406 22.230469 0.316406 25.359375 C 0.316406 28.492188 2.851562 31.03125 5.984375 31.03125 C 9.117188 31.03125 11.652344 28.492188 11.652344 25.359375 Z M 11.652344 25.359375 "/>
<path style=" stroke:none;fill-rule:nonzero;fill:rgb(0%,0%,0%);fill-opacity:1;" d="M 6.421875 22.007812 C 6.421875 21.757812 6.421875 21.726562 6.171875 21.726562 C 5.5 22.429688 4.53125 22.429688 4.1875 22.429688 L 4.1875 22.757812 C 4.40625 22.757812 5.046875 22.757812 5.625 22.476562 L 5.625 28.132812 C 5.625 28.523438 5.578125 28.648438 4.609375 28.648438 L 4.25 28.648438 L 4.25 28.992188 C 4.640625 28.960938 5.578125 28.960938 6.015625 28.960938 C 6.453125 28.960938 7.40625 28.960938 7.78125 28.992188 L 7.78125 28.648438 L 7.4375 28.648438 C 6.453125 28.648438 6.421875 28.539062 6.421875 28.132812 Z M 6.421875 22.007812 "/>
</g>
</svg>
