<?xml version="1.0" encoding="UTF-8"?>
<svg xmlns="http://www.w3.org/2000/svg" xmlns:xlink="http://www.w3.org/1999/xlink" width="36pt" height="36pt" viewBox="0 0 36 36" version="1.1">
<defs>
<clipPath id="clip1">
  <path d="M 29 6.660156 L 29.339844 6.660156 L 29.339844 29.339844 L 29 29.339844 Z M 29 6.660156 "/>
</clipPath>
<clipPath id="clip2">
  <path d="M 6.660156 29 L 29.339844 29 L 29.339844 29.339844 L 6.660156 29.339844 Z M 6.660156 29 "/>
</clipPath>
<clipPath id="clip3">
  <path d="M 29 6.660156 L 29.339844 6.660156 L 29.339844 29.339844 L 29 29.339844 Z M 29 6.660156 "/>
</clipPath>
<clipPath id="clip4">
  <path d="M 6.660156 6.660156 L 29.339844 6.660156 L 29.339844 7 L 6.660156 7 Z M 6.660156 6.660156 "/>
</clipPath>
<clipPath id="clip5">
  <path d="M 29 6.660156 L 29.339844 6.660156 L 29.339844 29.339844 L 29 29.339844 Z M 29 6.660156 "/>
</clipPath>
<clipPath id="clip6">
  <path d="M 17 6.660156 L 19 6.660156 L 19 29.339844 L 17 29.339844 Z M 17 6.660156 "/>
</clipPath>
<clipPath id="clip7">
  <path d="M 6.660156 17 L 29.339844 17 L 29.339844 19 L 6.660156 19 Z M 6.660156 17 "/>
</clipPath>
<clipPath id="clip8">
  <path d="M 17 6.660156 L 19 6.660156 L 19 29.339844 L 17 29.339844 Z M 17 6.660156 "/>
</clipPath>
<clipPath id="clip9">
  <path d="M 6.660156 6.660156 L 7 6.660156 L 7 29.339844 L 6.660156 29.339844 Z M 6.660156 6.660156 "/>
</clipPath>
<clipPath id="clip10">
  <path d="M 6.660156 29 L 29.339844 29 L 29.339844 29.339844 L 6.660156 29.339844 Z M 6.660156 29 "/>
</clipPath>
<clipPath id="clip11">
  <path d="M 6.660156 6.660156 L 7 6.660156 L 7 29.339844 L 6.660156 29.339844 Z M 6.660156 6.660156 "/>
</clipPath>
<clipPath id="clip12">
  <path d="M 6.660156 6.660156 L 29.339844 6.660156 L 29.339844 7 L 6.660156 7 Z M 6.660156 6.660156 "/>
</clipPath>
<clipPath id="clip13">
  <path d="M 6.660156 6.660156 L 7 6.660156 L 7 29.339844 L 6.660156 29.339844 Z M 6.660156 6.660156 "/>
</clipPath>
<clipPath id="clip14">
  <path d="M 17 6.660156 L 19 6.660156 L 19 29.339844 L 17 29.339844 Z M 17 6.660156 "/>
</clipPath>
<clipPath id="clip15">
  <path d="M 6.660156 17 L 29.339844 17 L 29.339844 19 L 6.660156 19 Z M 6.660156 17 "/>
</clipPath>
<clipPath id="clip16">
  <path d="M 17 6.660156 L 19 6.660156 L 19 29.339844 L 17 29.339844 Z M 17 6.660156 "/>
</clipPath>
<clipPath id="clip17">
  <path d="M 27 27 L 29.339844 27 L 29.339844 29.339844 L 27 29.339844 Z M 27 27 "/>
</clipPath>
<clipPath id="clip18">
  <path d="M 27 6.660156 L 29.339844 6.660156 L 29.339844 9 L 27 9 Z M 27 6.660156 "/>
</clipPath>
<clipPath id="clip19">
  <path d="M 6.660156 27 L 9 27 L 9 29.339844 L 6.660156 29.339844 Z M 6.660156 27 "/>
</clipPath>
<clipPath id="clip20">
  <path d="M 6.660156 6.660156 L 9 6.660156 L 9 9 L 6.660156 9 Z M 6.660156 6.660156 "/>
</clipPath>
</defs>
<g id="surface60">
<path style="fill:none;stroke-width:1.133858;stroke-linecap:butt;stroke-linejoin:miter;stroke:rgb(0%,0%,0%);stroke-opacity:1;stroke-miterlimit:10;" d="M 11.339844 11.339844 L -11.339844 11.339844 L -11.339844 -11.339844 L 11.339844 -11.339844 Z M 11.339844 11.339844 " transform="matrix(1,0,0,1,18,18)"/>
<g clip-path="url(#clip1)" clip-rule="nonzero">
<path style="fill:none;stroke-width:0.566929;stroke-linecap:butt;stroke-linejoin:miter;stroke:rgb(0%,0%,0%);stroke-opacity:1;stroke-miterlimit:10;" d="M 11.339844 -11.339844 L 11.339844 34.015625 " transform="matrix(1,0,0,1,18,18)"/>
</g>
<g clip-path="url(#clip2)" clip-rule="nonzero">
<path style="fill:none;stroke-width:0.566929;stroke-linecap:butt;stroke-linejoin:miter;stroke:rgb(0%,0%,0%);stroke-opacity:1;stroke-miterlimit:10;" d="M -11.339844 11.339844 L 34.015625 11.339844 " transform="matrix(1,0,0,1,18,18)"/>
<path style="fill:none;stroke-width:0.566929;stroke-linecap:butt;stroke-linejoin:miter;stroke:rgb(0%,0%,0%);stroke-opacity:1;stroke-miterlimit:10;" d="M 34.015625 11.339844 L -11.339844 11.339844 " transform="matrix(1,0,0,1,18,18)"/>
</g>
<g clip-path="url(#clip3)" clip-rule="nonzero">
<path style="fill:none;stroke-width:0.566929;stroke-linecap:butt;stroke-linejoin:miter;stroke:rgb(0%,0%,0%);stroke-opacity:1;stroke-miterlimit:10;" d="M 11.339844 34.015625 L 11.339844 -11.339844 " transform="matrix(1,0,0,1,18,18)"/>
<path style="fill:none;stroke-width:0.566929;stroke-linecap:butt;stroke-linejoin:miter;stroke:rgb(0%,0%,0%);stroke-opacity:1;stroke-miterlimit:10;" d="M 11.339844 -34.015625 L 11.339844 11.339844 " transform="matrix(1,0,0,1,18,18)"/>
</g>
<g clip-path="url(#clip4)" clip-rule="nonzero">
<path style="fill:none;stroke-width:0.566929;stroke-linecap:butt;stroke-linejoin:miter;stroke:rgb(0%,0%,0%);stroke-opacity:1;stroke-miterlimit:10;" d="M -11.339844 -11.339844 L 34.015625 -11.339844 " transform="matrix(1,0,0,1,18,18)"/>
<path style="fill:none;stroke-width:0.566929;stroke-linecap:butt;stroke-linejoin:miter;stroke:rgb(0%,0%,0%);stroke-opacity:1;stroke-miterlimit:10;" d="M 34.015625 -11.339844 L -11.339844 -11.339844 " transform="matrix(1,0,0,1,18,18)"/>
</g>
<g clip-path="url(#clip5)" clip-rule="nonzero">
<path style="fill:none;stroke-width:0.566929;stroke-linecap:butt;stroke-linejoin:miter;stroke:rgb(0%,0%,0%);stroke-opacity:1;stroke-miterlimit:10;" d="M 11.339844 11.339844 L 11.339844 -34.015625 " transform="matrix(1,0,0,1,18,18)"/>
</g>
<g clip-path="url(#clip6)" clip-rule="nonzero">
<path style="fill:none;stroke-width:0.566929;stroke-linecap:butt;stroke-linejoin:miter;stroke:rgb(0%,0%,0%);stroke-opacity:1;stroke-miterlimit:10;" d="M 0 -22.675781 L 0 22.675781 " transform="matrix(1,0,0,1,18,18)"/>
</g>
<g clip-path="url(#clip7)" clip-rule="nonzero">
<path style="fill:none;stroke-width:0.566929;stroke-linecap:butt;stroke-linejoin:miter;stroke:rgb(0%,0%,0%);stroke-opacity:1;stroke-miterlimit:10;" d="M -22.675781 0 L 22.675781 0 " transform="matrix(1,0,0,1,18,18)"/>
<path style="fill:none;stroke-width:0.566929;stroke-linecap:butt;stroke-linejoin:miter;stroke:rgb(0%,0%,0%);stroke-opacity:1;stroke-miterlimit:10;" d="M 22.675781 0 L -22.675781 0 " transform="matrix(1,0,0,1,18,18)"/>
</g>
<g clip-path="url(#clip8)" clip-rule="nonzero">
<path style="fill:none;stroke-width:0.566929;stroke-linecap:butt;stroke-linejoin:miter;stroke:rgb(0%,0%,0%);stroke-opacity:1;stroke-miterlimit:10;" d="M 0 22.675781 L 0 -22.675781 " transform="matrix(1,0,0,1,18,18)"/>
</g>
<g clip-path="url(#clip9)" clip-rule="nonzero">
<path style="fill:none;stroke-width:0.566929;stroke-linecap:butt;stroke-linejoin:miter;stroke:rgb(0%,0%,0%);stroke-opacity:1;stroke-miterlimit:10;" d="M -11.339844 -11.339844 L -11.339844 34.015625 " transform="matrix(1,0,0,1,18,18)"/>
</g>
<g clip-path="url(#clip10)" clip-rule="nonzero">
<path style="fill:none;stroke-width:0.566929;stroke-linecap:butt;stroke-linejoin:miter;stroke:rgb(0%,0%,0%);stroke-opacity:1;stroke-miterlimit:10;" d="M -34.015625 11.339844 L 11.339844 11.339844 " transform="matrix(1,0,0,1,18,18)"/>
<path style="fill:none;stroke-width:0.566929;stroke-linecap:butt;stroke-linejoin:miter;stroke:rgb(0%,0%,0%);stroke-opacity:1;stroke-miterlimit:10;" d="M 11.339844 11.339844 L -34.015625 11.339844 " transform="matrix(1,0,0,1,18,18)"/>
</g>
<g clip-path="url(#clip11)" clip-rule="nonzero">
<path style="fill:none;stroke-width:0.566929;stroke-linecap:butt;stroke-linejoin:miter;stroke:rgb(0%,0%,0%);stroke-opacity:1;stroke-miterlimit:10;" d="M -11.339844 34.015625 L -11.339844 -11.339844 " transform="matrix(1,0,0,1,18,18)"/>
<path style="fill:none;stroke-width:0.566929;stroke-linecap:butt;stroke-linejoin:miter;stroke:rgb(0%,0%,0%);stroke-opacity:1;stroke-miterlimit:10;" d="M -11.339844 -34.015625 L -11.339844 11.339844 " transform="matrix(1,0,0,1,18,18)"/>
</g>
<g clip-path="url(#clip12)" clip-rule="nonzero">
<path style="fill:none;stroke-width:0.566929;stroke-linecap:butt;stroke-linejoin:miter;stroke:rgb(0%,0%,0%);stroke-opacity:1;stroke-miterlimit:10;" d="M -34.015625 -11.339844 L 11.339844 -11.339844 " transform="matrix(1,0,0,1,18,18)"/>
<path style="fill:none;stroke-width:0.566929;stroke-linecap:butt;stroke-linejoin:miter;stroke:rgb(0%,0%,0%);stroke-opacity:1;stroke-miterlimit:10;" d="M 11.339844 -11.339844 L -34.015625 -11.339844 " transform="matrix(1,0,0,1,18,18)"/>
</g>
<g clip-path="url(#clip13)" clip-rule="nonzero">
<path style="fill:none;stroke-width:0.566929;stroke-linecap:butt;stroke-linejoin:miter;stroke:rgb(0%,0%,0%);stroke-opacity:1;stroke-miterlimit:10;" d="M -11.339844 11.339844 L -11.339844 -34.015625 " transform="matrix(1,0,0,1,18,18)"/>
</g>
<g clip-path="url(#clip14)" clip-rule="nonzero">
<path style="fill:none;stroke-width:1.133858;stroke-linecap:butt;stroke-linejoin:miter;stroke:rgb(100%,30%,20%);stroke-opacity:0.7;stroke-miterlimit:10;" d="M 0 -22.675781 L 0 22.675781 " transform="matrix(1,0,0,1,18,18)"/>
</g>
<g clip-path="url(#clip15)" clip-rule="nonzero">
<path style="fill:none;stroke-width:1.133858;stroke-linecap:butt;stroke-linejoin:miter;stroke:rgb(100%,30%,20%);stroke-opacity:0.7;stroke-miterlimit:10;" d="M -22.675781 0 L 22.675781 0 " transform="matrix(1,0,0,1,18,18)"/>
<path style="fill:none;stroke-width:1.133858;stroke-linecap:butt;stroke-linejoin:miter;stroke:rgb(100%,30%,20%);stroke-opacity:0.7;stroke-miterlimit:10;" d="M 22.675781 0 L -22.675781 0 " transform="matrix(1,0,0,1,18,18)"/>
</g>
<g clip-path="url(#clip16)" clip-rule="nonzero">
<path style="fill:none;stroke-width:1.133858;stroke-linecap:butt;stroke-linejoin:miter;stroke:rgb(100%,30%,20%);stroke-opacity:0.7;stroke-miterlimit:10;" d="M 0 22.675781 L 0 -22.675781 " transform="matrix(1,0,0,1,18,18)"/>
</g>
<g clip-path="url(#clip17)" clip-rule="nonzero">
<path style=" stroke:none;fill-rule:evenodd;fill:rgb(0%,0%,0%);fill-opacity:1;" d="M 30.757812 29.339844 C 30.757812 27.449219 27.921875 27.449219 27.921875 29.339844 C 27.921875 31.226562 30.757812 31.226562 30.757812 29.339844 Z M 30.757812 29.339844 "/>
</g>
<g clip-path="url(#clip18)" clip-rule="nonzero">
<path style=" stroke:none;fill-rule:evenodd;fill:rgb(0%,0%,0%);fill-opacity:1;" d="M 30.757812 6.660156 C 30.757812 4.773438 27.921875 4.773438 27.921875 6.660156 C 27.921875 8.550781 30.757812 8.550781 30.757812 6.660156 Z M 30.757812 6.660156 "/>
</g>
<path style=" stroke:none;fill-rule:evenodd;fill:rgb(0%,0%,0%);fill-opacity:1;" d="M 19.417969 18 C 19.417969 16.109375 16.582031 16.109375 16.582031 18 C 16.582031 19.890625 19.417969 19.890625 19.417969 18 Z M 19.417969 18 "/>
<g clip-path="url(#clip19)" clip-rule="nonzero">
<path style=" stroke:none;fill-rule:evenodd;fill:rgb(0%,0%,0%);fill-opacity:1;" d="M 8.078125 29.339844 C 8.078125 27.449219 5.242188 27.449219 5.242188 29.339844 C 5.242188 31.226562 8.078125 31.226562 8.078125 29.339844 Z M 8.078125 29.339844 "/>
</g>
<g clip-path="url(#clip20)" clip-rule="nonzero">
<path style=" stroke:none;fill-rule:evenodd;fill:rgb(0%,0%,0%);fill-opacity:1;" d="M 8.078125 6.660156 C 8.078125 4.773438 5.242188 4.773438 5.242188 6.660156 C 5.242188 8.550781 8.078125 8.550781 8.078125 6.660156 Z M 8.078125 6.660156 "/>
</g>
<path style=" stroke:none;fill-rule:evenodd;fill:rgb(80%,80%,80%);fill-opacity:1;" d="M 12.332031 6.660156 C 12.332031 3.53125 9.792969 0.992188 6.660156 0.992188 C 3.53125 0.992188 0.992188 3.53125 0.992188 6.660156 C 0.992188 9.792969 3.53125 12.332031 6.660156 12.332031 C 9.792969 12.332031 12.332031 9.792969 12.332031 6.660156 Z M 12.332031 6.660156 "/>
<path style=" stroke:none;fill-rule:nonzero;fill:rgb(0%,0%,0%);fill-opacity:1;" d="M 7.097656 3.308594 C 7.097656 3.058594 7.097656 3.027344 6.847656 3.027344 C 6.175781 3.730469 5.207031 3.730469 4.863281 3.730469 L 4.863281 4.058594 C 5.082031 4.058594 5.722656 4.058594 6.300781 3.777344 L 6.300781 9.433594 C 6.300781 9.824219 6.253906 9.949219 5.285156 9.949219 L 4.925781 9.949219 L 4.925781 10.292969 C 5.316406 10.261719 6.253906 10.261719 6.691406 10.261719 C 7.128906 10.261719 8.082031 10.261719 8.457031 10.292969 L 8.457031 9.949219 L 8.113281 9.949219 C 7.128906 9.949219 7.097656 9.839844 7.097656 9.433594 Z M 7.097656 3.308594 "/>
<path style=" stroke:none;fill-rule:evenodd;fill:rgb(80%,80%,80%);fill-opacity:1;" d="M 35.007812 6.660156 C 35.007812 3.53125 32.46875 0.992188 29.339844 0.992188 C 26.207031 0.992188 23.667969 3.53125 23.667969 6.660156 C 23.667969 9.792969 26.207031 12.332031 29.339844 12.332031 C 32.46875 12.332031 35.007812 9.792969 35.007812 6.660156 Z M 35.007812 6.660156 "/>
<path style=" stroke:none;fill-rule:nonzero;fill:rgb(0%,0%,0%);fill-opacity:1;" d="M 29.777344 3.308594 C 29.777344 3.058594 29.777344 3.027344 29.527344 3.027344 C 28.855469 3.730469 27.886719 3.730469 27.542969 3.730469 L 27.542969 4.058594 C 27.761719 4.058594 28.402344 4.058594 28.980469 3.777344 L 28.980469 9.433594 C 28.980469 9.824219 28.933594 9.949219 27.964844 9.949219 L 27.605469 9.949219 L 27.605469 10.292969 C 27.996094 10.261719 28.933594 10.261719 29.371094 10.261719 C 29.808594 10.261719 30.761719 10.261719 31.136719 10.292969 L 31.136719 9.949219 L 30.792969 9.949219 C 29.808594 9.949219 29.777344 9.839844 29.777344 9.433594 Z M 29.777344 3.308594 "/>
<path style=" stroke:none;fill-rule:evenodd;fill:rgb(80%,80%,80%);fill-opacity:1;" d="M 12.332031 29.339844 C 12.332031 26.207031 9.792969 23.667969 6.660156 23.667969 C 3.53125 23.667969 0.992188 26.207031 0.992188 29.339844 C 0.992188 32.46875 3.53125 35.007812 6.660156 35.007812 C 9.792969 35.007812 12.332031 32.46875 12.332031 29.339844 Z M 12.332031 29.339844 "/>
<path style=" stroke:none;fill-rule:nonzero;fill:rgb(0%,0%,0%);fill-opacity:1;" d="M 7.097656 25.988281 C 7.097656 25.738281 7.097656 25.707031 6.847656 25.707031 C 6.175781 26.410156 5.207031 26.410156 4.863281 26.410156 L 4.863281 26.738281 C 5.082031 26.738281 5.722656 26.738281 6.300781 26.457031 L 6.300781 32.113281 C 6.300781 32.503906 6.253906 32.628906 5.285156 32.628906 L 4.925781 32.628906 L 4.925781 32.972656 C 5.316406 32.941406 6.253906 32.941406 6.691406 32.941406 C 7.128906 32.941406 8.082031 32.941406 8.457031 32.972656 L 8.457031 32.628906 L 8.113281 32.628906 C 7.128906 32.628906 7.097656 32.519531 7.097656 32.113281 Z M 7.097656 25.988281 "/>
<path style=" stroke:none;fill-rule:evenodd;fill:rgb(80%,80%,80%);fill-opacity:1;" d="M 35.007812 29.339844 C 35.007812 26.207031 32.46875 23.667969 29.339844 23.667969 C 26.207031 23.667969 23.667969 26.207031 23.667969 29.339844 C 23.667969 32.46875 26.207031 35.007812 29.339844 35.007812 C 32.46875 35.007812 35.007812 32.46875 35.007812 29.339844 Z M 35.007812 29.339844 "/>
<path style=" stroke:none;fill-rule:nonzero;fill:rgb(0%,0%,0%);fill-opacity:1;" d="M 29.777344 25.988281 C 29.777344 25.738281 29.777344 25.707031 29.527344 25.707031 C 28.855469 26.410156 27.886719 26.410156 27.542969 26.410156 L 27.542969 26.738281 C 27.761719 26.738281 28.402344 26.738281 28.980469 26.457031 L 28.980469 32.113281 C 28.980469 32.503906 28.933594 32.628906 27.964844 32.628906 L 27.605469 32.628906 L 27.605469 32.972656 C 27.996094 32.941406 28.933594 32.941406 29.371094 32.941406 C 29.808594 32.941406 30.761719 32.941406 31.136719 32.972656 L 31.136719 32.628906 L 30.792969 32.628906 C 29.808594 32.628906 29.777344 32.519531 29.777344 32.113281 Z M 29.777344 25.988281 "/>
</g>
</svg>
